<svg xmlns="http://www.w3.org/2000/svg" xmlns:xlink="http://www.w3.org/1999/xlink" viewBox="0 0 48 48">
  <defs>
    <style>
      .cls-1 {
        clip-path: url(#clip-buy);
      }

      .cls-2 {
        fill: #11c44d;
      }

      .cls-3, .cls-4 {
        fill: #fff;
      }

      .cls-4 {
        fill-rule: evenodd;
      }

      .cls-5 {
        fill: rgba(255,255,255,0);
      }
    </style>
    <clipPath id="clip-buy">
      <rect width="48" height="48"/>
    </clipPath>
  </defs>
  <g id="buy" class="cls-1">
    <rect class="cls-5" width="48" height="48"/>
    <circle id="Ellipse_38" data-name="Ellipse 38" class="cls-2" cx="22.2" cy="22.2" r="22.2" transform="translate(1.8 1.8)"/>
    <g id="Group_216" data-name="Group 216" transform="translate(-2537.114 1165.886)">
      <path id="Subtraction_75" data-name="Subtraction 75" class="cls-3" d="M13.287,23.628a.472.472,0,0,1-.136-.02l-.108.007c-.1.007-.2.013-.3.013-.06,0-.121,0-.179-.008l-.114-.007a.468.468,0,0,1-.118.015H1.672a1.564,1.564,0,0,1-1.2-.57A2.053,2.053,0,0,1,0,21.738,2.009,2.009,0,0,1,.576,20.32a2.032,2.032,0,0,1,0-2.835,2.033,2.033,0,0,1,0-2.836A2.007,2.007,0,0,1,0,13.232a1.794,1.794,0,0,1,1.672-1.891H7.121a7.1,7.1,0,0,0-.554.945H1.672a.854.854,0,0,0-.727.946.854.854,0,0,0,.727.945H5.959a7.149,7.149,0,0,0-.1,1.2,7.019,7.019,0,0,0,2.178,5.107,6.1,6.1,0,0,0,4.7,2.2,6.168,6.168,0,0,0,3.213-.9,7.138,7.138,0,0,0,3.874-4.772h2.129a.854.854,0,0,0,.728-.945.854.854,0,0,0-.728-.945H20.011a7.134,7.134,0,0,0-.1-.945h2.041a.854.854,0,0,0,.728-.945.854.854,0,0,0-.728-.946H19.307a7.094,7.094,0,0,0-.554-.945h3.2a.854.854,0,0,0,.728-.945.854.854,0,0,0-.728-.945H16.809a7.027,7.027,0,0,0-2.166-.945h7.313a.854.854,0,0,0,.728-.945.854.854,0,0,0-.728-.945h-8a.854.854,0,0,0-.727.945,1.039,1.039,0,0,0,.3.763c-.193-.016-.392-.025-.593-.025-.168,0-.339.006-.506.018a2.037,2.037,0,0,1-.144-.756,2.012,2.012,0,0,1,.576-1.418,2.032,2.032,0,0,1,0-2.835,2.008,2.008,0,0,1-.576-1.418A2.053,2.053,0,0,1,12.761.57a1.565,1.565,0,0,1,1.2-.57h8a1.565,1.565,0,0,1,1.2.57,2.053,2.053,0,0,1,.475,1.32,2.008,2.008,0,0,1-.576,1.418,2.032,2.032,0,0,1,0,2.835,2.033,2.033,0,0,1,0,2.836,2.032,2.032,0,0,1,0,2.835,2.032,2.032,0,0,1,0,2.835,2.033,2.033,0,0,1,0,2.836,2.032,2.032,0,0,1,0,2.835,2.01,2.01,0,0,1,.576,1.418,2.053,2.053,0,0,1-.475,1.32,1.565,1.565,0,0,1-1.2.57H13.287Zm5.125-2.836a7.114,7.114,0,0,1-2.145,1.891h5.689a.978.978,0,0,0,0-1.891Zm-16.739,0a.978.978,0,0,0,0,1.891h7.55A7.061,7.061,0,0,1,7.07,20.76a.468.468,0,0,1-.174.033H1.672Zm18.033-2.835a7.016,7.016,0,0,1-.685,1.89h2.935a.854.854,0,0,0,.728-.945.854.854,0,0,0-.728-.945Zm-18.033,0a.854.854,0,0,0-.727.945.854.854,0,0,0,.727.945H6.49a7.065,7.065,0,0,1-.677-1.89Zm0-2.835a.854.854,0,0,0-.727.945.854.854,0,0,0,.727.945H5.695q0-.049-.007-.1c-.008-.122-.017-.248-.017-.375a7.157,7.157,0,0,1,.142-1.417ZM13.959,3.78a.854.854,0,0,0-.727.946.854.854,0,0,0,.727.945h8a.854.854,0,0,0,.728-.945.854.854,0,0,0-.728-.946Zm0-2.835a.854.854,0,0,0-.727.945.854.854,0,0,0,.727.945h8a.854.854,0,0,0,.728-.945.854.854,0,0,0-.728-.945Z" transform="translate(2549 -1154)"/>
      <path id="Subtraction_74" data-name="Subtraction 74" class="cls-3" d="M8.055,16.11a8.055,8.055,0,0,1-5.7-13.751A8.055,8.055,0,0,1,13.751,13.751,8,8,0,0,1,8.055,16.11Zm0-15.134a7.079,7.079,0,1,0,7.079,7.079A7.087,7.087,0,0,0,8.055.976Z" transform="translate(2553.882 -1146.677)"/>
      <path id="Path_1057" data-name="Path 1057" class="cls-4" d="M24.836,24.329H22.583v-5h-2.3l3.409-4.4,3.394,4.4H24.836v5Z" transform="translate(2585.767 -1118.328) rotate(180)"/>
    </g>
  </g>
</svg>
