<?xml version="1.0" encoding="utf-8"?>
<!-- Generator: Adobe Illustrator 22.0.1, SVG Export Plug-In . SVG Version: 6.00 Build 0)  -->
<svg version="1.1" id="Layer_1" xmlns="http://www.w3.org/2000/svg" xmlns:xlink="http://www.w3.org/1999/xlink" x="0px" y="0px"
	 viewBox="0 0 100 100" style="enable-background:new 0 0 100 100;" xml:space="preserve">
<g>
	<path d="M93.2,66.9H84V52.1c0-1-0.8-1.8-1.8-1.8H51.8V37.4h12.4c1,0,1.8-0.8,1.8-1.8V17.8c0-1-0.8-1.8-1.8-1.8H35.8
		c-1,0-1.8,0.8-1.8,1.8v17.8c0,1,0.8,1.8,1.8,1.8h12.4v12.9H17.9c-1,0-1.8,0.8-1.8,1.8v14.8H6.8c-1,0-1.8,0.8-1.8,1.8v13.5
		c0,1,0.8,1.8,1.8,1.8h22c1,0,1.8-0.8,1.8-1.8V68.8c0-1-0.8-1.8-1.8-1.8h-9.2V54h28.5v12.9H39c-1,0-1.8,0.8-1.8,1.8v13.5
		c0,1,0.8,1.8,1.8,1.8h22c1,0,1.8-0.8,1.8-1.8V68.8c0-1-0.8-1.8-1.8-1.8h-9.2V54h28.5v12.9h-9.2c-1,0-1.8,0.8-1.8,1.8v13.5
		c0,1,0.8,1.8,1.8,1.8h22c1,0,1.8-0.8,1.8-1.8V68.8C95,67.8,94.2,66.9,93.2,66.9z M27,70.6v9.8H8.7v-9.8H27z M59.2,70.6v9.8H40.8
		v-9.8H59.2z M37.6,33.7V19.6h24.8v14.1C62.4,33.7,37.6,33.7,37.6,33.7z M91.3,80.4H73v-9.8h18.4C91.3,70.6,91.3,80.4,91.3,80.4z"/>
</g>
</svg>
