<?xml version="1.0" encoding="utf-8"?>
<!-- Generator: Adobe Illustrator 22.0.1, SVG Export Plug-In . SVG Version: 6.00 Build 0)  -->
<svg version="1.1" id="Layer_1" xmlns="http://www.w3.org/2000/svg" xmlns:xlink="http://www.w3.org/1999/xlink" x="0px" y="0px"
	 viewBox="0 0 239.7 33.7" style="enable-background:new 0 0 239.7 33.7;" xml:space="preserve">
<style type="text/css">
	.st0{fill:#FFFFFF;}
</style>
<polygon class="st0" points="20.7,10.5 36.4,26.3 40.5,21.3 20.7,1.5 0.9,21.3 4.9,26.3 "/>
<polyline class="st0" points="9.8,26.9 12.3,29.3 20.7,21 29,29.3 31.5,26.9 31.9,26.3 31.5,25.9 20.7,15 9.3,26.3 "/>
<g>
	<path class="st0" d="M49.4,11.9l-6.6,17.3h2.3l1.6-4.5H54l1.6,4.5H58l-6.6-17.3H49.4z M47.5,22.8l2.9-8.1l2.9,8.1H47.5z"/>
	<path class="st0" d="M66.7,11.9h-6.4v17.3h2.3v-6.8h4.1c2,0,3.5-0.5,4.5-1.4c1-0.9,1.6-2.2,1.6-3.9c0-1.6-0.5-2.9-1.6-3.8
		S68.6,11.9,66.7,11.9z M69.5,19.7c-0.6,0.6-1.6,0.9-2.8,0.9h-4.1v-6.8h4.2c1.1,0,2,0.3,2.7,1s1,1.4,1,2.5
		C70.5,18.3,70.2,19.2,69.5,19.7z"/>
	<path class="st0" d="M82,11.9h-6.4v17.3H78v-6.8H82c2,0,3.5-0.5,4.5-1.4c1-0.9,1.6-2.2,1.6-3.9c0-1.6-0.5-2.9-1.6-3.8
		C85.4,12.4,83.9,11.9,82,11.9z M84.8,19.7c-0.6,0.6-1.6,0.9-2.8,0.9H78v-6.8h4.2c1.1,0,2,0.3,2.7,1s1,1.4,1,2.5
		C85.8,18.3,85.5,19.2,84.8,19.7z"/>
	<polygon class="st0" points="101.9,13.6 101.9,11.9 89.9,11.9 89.9,13.8 99.2,13.8 89.7,27.5 89.7,29.2 102.3,29.2 102.3,27.4 
		92.4,27.4 	"/>
	<rect x="105.4" y="11.9" class="st0" width="2.3" height="17.3"/>
	<polygon class="st0" points="114.1,11.9 111.8,11.9 111.8,29.2 122.3,29.2 122.3,27.4 114.1,27.4 	"/>
	<polygon class="st0" points="127.2,11.9 124.9,11.9 124.9,29.2 135.4,29.2 135.4,27.4 127.2,27.4 	"/>
	<path class="st0" d="M147.2,12.7c-1.1-0.7-2.3-1-3.7-1c-1.4,0-2.6,0.3-3.6,1c-1.1,0.7-1.9,1.7-2.4,2.9c-0.6,1.3-0.9,2.7-0.9,4.4
		v1.2c0,1.6,0.3,3.1,0.9,4.3c0.6,1.2,1.4,2.2,2.4,2.9s2.3,1,3.6,1c1.4,0,2.6-0.3,3.7-1c1-0.7,1.9-1.6,2.4-2.9
		c0.6-1.3,0.9-2.7,0.9-4.4V20c0-1.7-0.3-3.2-0.9-4.4C149.1,14.3,148.3,13.4,147.2,12.7z M148.2,21.3c0,2-0.4,3.5-1.2,4.6
		c-0.8,1.1-1.9,1.6-3.4,1.6c-1.5,0-2.6-0.6-3.4-1.7c-0.8-1.1-1.3-2.7-1.3-4.7v-1.3c0-1.9,0.4-3.5,1.3-4.6s2-1.6,3.4-1.6
		c1.5,0,2.6,0.5,3.5,1.6c0.8,1.1,1.2,2.7,1.2,4.7V21.3z"/>
	<polygon class="st0" points="164.9,25.3 156.2,11.9 153.9,11.9 153.9,29.2 156.2,29.2 156.2,15.9 164.9,29.2 167.2,29.2 
		167.2,11.9 164.9,11.9 	"/>
	<path class="st0" d="M183.6,20.3c0.8-0.3,1.4-0.8,1.8-1.4c0.4-0.6,0.7-1.4,0.7-2.2c0-1.5-0.5-2.7-1.6-3.5c-1.1-0.8-2.7-1.2-4.8-1.2
		h-6v17.3h6.7c2,0,3.5-0.5,4.5-1.3c1.1-0.9,1.6-2.1,1.6-3.8c0-1-0.3-1.8-0.8-2.5S184.5,20.6,183.6,20.3z M177.1,14.8h2.5
		c1,0,1.7,0.2,2.2,0.5c0.5,0.3,0.7,0.9,0.7,1.7c0,1.4-0.9,2.1-2.7,2.1h-2.6V14.8z M182.2,25.8c-0.5,0.4-1.1,0.6-2,0.6h-3v-4.7h3.3
		c1.6,0,2.5,0.8,2.5,2.4C182.9,24.8,182.6,25.4,182.2,25.8z"/>
	<path class="st0" d="M194.1,11.9l-6.4,17.3h3.8l1.2-3.6h6.2l1.2,3.6h3.8l-6.5-17.3H194.1z M193.6,22.8l2.1-6.5l2.2,6.5H193.6z"/>
	<polygon class="st0" points="215.9,23.3 209,11.9 205.4,11.9 205.4,29.2 209,29.2 209,17.9 215.9,29.2 219.5,29.2 219.5,11.9 
		215.9,11.9 	"/>
	<polygon class="st0" points="230.4,19.6 236.5,11.9 232.1,11.9 227.7,17.6 226.1,19.8 226.1,11.9 222.6,11.9 222.6,29.2 
		226.1,29.2 226.1,24.3 228,22.3 232.4,29.2 236.7,29.2 	"/>
</g>
</svg>
