<?xml version="1.0" encoding="utf-8"?>
<!-- Generator: Adobe Illustrator 22.1.0, SVG Export Plug-In . SVG Version: 6.00 Build 0)  -->
<svg version="1.1" id="Layer_1" xmlns="http://www.w3.org/2000/svg" xmlns:xlink="http://www.w3.org/1999/xlink" x="0px" y="0px"
	 viewBox="0 0 100 100" style="enable-background:new 0 0 100 100;" xml:space="preserve">
<title>credit card, bank card</title>
<path d="M16,90.6c-1.5,0-3.5-0.6-4.3-3.7c-1.3-4.7-2.6-9.4-3.9-14.1C6.2,67.2,4.7,61.6,3.1,56c-1-3.8,0-5.5,3.7-6.6l3.2-0.9
	c4.4-1.3,8.9-2.6,13.4-3.7c1.7-0.4,2.2-1.1,2.6-2.8c0.4-2.3,1-4.6,1.6-6.9c0.3-1,0.5-2.1,0.8-3.2l0.2-1l1,0.2
	c1.7,0.4,3.5,0.8,5.2,1.1c4,0.9,7.8,1.7,11.6,2.8c2.2,0.6,4.2,0.9,6.2,0.9c2.2,0,4.4-0.4,6.7-1.2c1.7-0.6,3-1,4.1-1
	c2.6,0,3.4,2.1,4.5,5.1c0.2,0.5,1.1,1.2,1.8,1.4c5.4,1.4,10.9,2.7,16.2,3.9c2,0.5,4.1,1,6.1,1.5c0.7,0.2,1.3,0.3,2,0.6l2.1,0.6
	l-0.2,1c-0.4,1.7-0.8,3.4-1.2,5.1c-0.9,4-1.8,8.1-3,12.1c-0.6,2.3-2.4,3.6-4.8,3.6c-0.6,0-1.3-0.1-2-0.3c-2.4-0.6-4.8-1.1-7.4-1.7
	l-2-0.5c0.1,0.7,0.3,1.3,0.4,1.9c1.1,4.6,0.3,6.1-4.1,7.3C56.5,79.6,41.3,83.8,26.2,88l-2.5,0.7c-2,0.6-4,1.1-6,1.6
	C17.1,90.5,16.5,90.6,16,90.6z M11.8,72.6c1.2,4.2,2.3,8.3,3.4,12.3c0.4,1.6,0.9,1.6,1.4,1.6l0,0c0.3,0,0.8-0.1,1.3-0.2
	c5.6-1.7,11.4-3.3,16.9-4.8c0,0,12-3.4,15.9-4.4c6.5-1.8,13-3.6,19.5-5.4c0.2,0,0.3-0.1,0.5-0.1c0.6-0.2,1.4-0.4,1.6-0.7
	c0.1-0.2,0.1-0.5,0-1c-1.2-4.1-2.3-8.3-3.5-12.5l-1.4-5L10.6,68.2C11,69.7,11.4,71.2,11.8,72.6z M62.8,38c-0.5,0-1.4,0.3-2.7,0.6
	c-6.2,1.7-12.4,3.4-18.5,5.2c-9.9,2.8-19.9,5.5-29.8,8.3c-0.9,0.2-1.6,0.4-2.3,0.6c-1.3,0.4-2.7,0.7-2.9,1c-0.1,0.3,0.2,1.5,0.6,2.8
	c0.2,0.7,0.5,1.6,0.8,2.7c0,0,0,0,0.1,0.1l56.6-15.8L64.7,43c-0.2-0.8-0.4-1.5-0.6-2.2C63.3,38.2,63.2,38,62.8,38z"/>
<path d="M96.7,38.6c-21.9-5.1-43.5-10.2-65.3-15.3c0.3-1.6,0.5-2.9,0.8-4.1c0.9-3.3,2.8-4.5,6.1-3.8c18.6,4.3,37.2,8.7,55.9,13.1
	c3.1,0.7,4.3,2.7,3.6,5.8C97.5,35.7,97.1,37.1,96.7,38.6z"/>
</svg>
