<?xml version="1.0" encoding="utf-8"?>
<!-- Generator: Adobe Illustrator 22.0.1, SVG Export Plug-In . SVG Version: 6.00 Build 0)  -->
<svg version="1.1"
	 id="Layer_1" xmlns:cc="http://creativecommons.org/ns#" xmlns:dc="http://purl.org/dc/elements/1.1/" xmlns:rdf="http://www.w3.org/1999/02/22-rdf-syntax-ns#" xmlns:svg="http://www.w3.org/2000/svg"
	 xmlns="http://www.w3.org/2000/svg" xmlns:xlink="http://www.w3.org/1999/xlink" x="0px" y="0px" viewBox="0 0 100 100"
	 style="enable-background:new 0 0 100 100;" xml:space="preserve">
<g>
	<path d="M61.6,50.8c5,4.1,12.3,4.7,17.2,1.3c-2.1-3.2-4.2-6.7-6.5-9.9c-1.5-2.1-2.1-4.2-1.9-6.8c0.2-3.7,0-7.6,0-11.4
		c-5.2-0.5-11,3.6-13.3,9.1C54.6,39.5,56.5,46.6,61.6,50.8z"/>
	<path d="M80.9,51.3c0.2,0.3,0.5,0.6,0.6,0.8c6.8-4.1,8.9-14.8,4.4-21.1c-4.1,3.1-8.1,6-12.3,9.1C76,44,78.4,47.6,80.9,51.3z"/>
	<path d="M43.4,35.2c-0.5,0-1,0-1.6,0c-1.8-0.2-2.3,0.5-2.3,2.3c0.2,4.2,0,8.3,0,12.5c0,4.4,0,4.2,4.4,4.2c1.6,0,2.1-0.6,1.9-2.1
		c0-2.4,0-5,0-7.5c0-2.3-0.2-4.7,0-7C46.2,35.9,45.4,35.1,43.4,35.2z"/>
	<path d="M24.3,30.4c1.9,1.5,3.6,2.9,5.4,4.2c4.1,3.2,4.1,3.2,7.6-0.6c2.1-2.4,4.2-4.7,6.8-7.5c0,1.5-0.2,2.3,0,3.1
		c0.2,0.6,0.6,1.1,1,1.6c0.3-0.5,0.8-1,0.8-1.5c0.6-6.8,0.6-6.8-6.2-6.8c-0.2,0-0.5,0-0.6,0c-0.5,0.3-1,0.6-1.5,1
		c0.5,0.3,1,0.8,1.5,0.8c1,0.2,1.9,0,3.6,0c-1.8,2.1-3.2,3.7-4.7,5.4s-2.9,3.2-4.5,5C30.6,33,28,31,25.6,28.9
		c-1.1-1-1.9-0.8-3.1,0.2c-3.2,3.1-6.5,6-9.7,9.1c-0.5,0.5-0.6,1.5-0.8,2.3c0.8-0.2,1.6-0.3,2.3-0.6C17.6,36.5,20.9,33.5,24.3,30.4z
		"/>
	<path d="M23,38.5c-1.5,0-1.9,0.6-1.9,1.9c0,1.9,0,3.9,0,5.8c0,1.8,0.2,3.6,0,5.5c-0.2,1.8,0.5,2.8,2.4,2.6c0.5,0,1,0,1.3,0
		c2.1,0.3,2.8-0.8,2.6-2.6c0-3.1,0.2-6,0.2-9.1C27.5,38.3,27.5,38.3,23,38.5z"/>
	<path d="M84.8,29.1c-3.1-3.7-7-5.8-12-6.5c0,4.5,0,8.8,0,13c0,0.6,0.2,1.3,0.2,2.3C77,34.8,80.9,32,84.8,29.1z"/>
	<path d="M34.3,41.6c-0.6,0-1.3,0-1.9,0c-1.5,0-1.9,0.6-1.9,1.9c0,2.4,0,5,0,7.5c0,3.2,0,3.2,3.2,3.2c3.1,0,3.1,0,3.1-3.1
		c0-1,0-2.1,0-3.1c0-1.5,0-2.8,0-4.2C36.9,42.1,36.1,41.4,34.3,41.6z"/>
	<path d="M13.1,54.2c4.2,0.8,5.2,0.2,5.2-4.1c0-0.2,0-0.5,0-0.6c0-5,0-5-4.7-4.7h-0.2c-0.5,0.5-1.5,1-1.5,1.5
		c-0.2,2.1-0.2,4.4,0,6.5C11.9,53.4,12.6,54.2,13.1,54.2z"/>
	<path d="M94.2,9.4L94.2,9.4c-29.5,0-59,0-88.7,0c-3.6,0-4.5,0.8-4.5,4.4c0,18.5,0,37.1,0,55.6c0,3.6,0.8,4.4,4.4,4.4
		c11,0,21.9,0,32.9,0c0.8,0,1.6,0,2.4,0c-0.2,2.1-0.3,3.9-0.3,5.7c0,3.4-1.5,5.8-4.5,7.5c-0.6,0.3-1.5,0.8-2.1,1.3
		c-0.5,0.5-1,1-1.3,1.6c0.6,0.3,1.3,0.6,2.1,0.6c10.2,0,20.6,0,30.8,0c0.3,0,0.6,0,0.8,0c0.3-0.2,1.1-0.3,1.1-0.5
		c0-0.5-0.2-1-0.5-1.3c-1.1-0.8-2.3-1.5-3.4-2.1c-1.9-1.1-3.4-2.6-3.7-4.9c-0.3-2.4-0.3-5-0.6-7.8c1,0,1.8,0,2.6,0
		c10.9,0,21.6,0,32.4,0c4.1,0,4.9-0.8,4.9-4.7c0-18.3,0-36.7,0-55C99.1,10.4,98.1,9.4,94.2,9.4z M95.8,67.8H4.3V12.2h91.5V67.8z"/>
</g>
</svg>
