<?xml version="1.0" encoding="utf-8"?>
<!-- Generator: Adobe Illustrator 22.0.1, SVG Export Plug-In . SVG Version: 6.00 Build 0)  -->
<svg version="1.1" id="Layer_1" xmlns="http://www.w3.org/2000/svg" xmlns:xlink="http://www.w3.org/1999/xlink" x="0px" y="0px"
	 viewBox="0 0 48 48" enable-background="new 0 0 48 48" xml:space="preserve">
<g>
	<path d="M5.6,32.6c0,0,0.1,0,0.2,0l5.9-0.7c0.3,0,0.6-0.1,0.9-0.1c1.2,0,2.4,0.3,3.5,0.9l5.2,3c0.2,0.1,0.4,0.2,0.6,0.2h6.2
		c0.7,0,1.3,0.6,1.3,1.3l0,0.7c0,0.3-0.1,0.7-0.4,0.9c-0.2,0.2-0.6,0.4-0.9,0.4h-9.4c-0.6,0-1.1,0.5-1.1,1.1c0,0.6,0.5,1.1,1.1,1.2
		H28c0.9,0,1.8-0.4,2.5-1.1c0.7-0.7,1-1.6,1-2.6l0-0.7c0-2-1.6-3.6-3.6-3.6H22l-4.9-2.8c-1.4-0.8-3-1.2-4.6-1.2
		c-0.4,0-0.8,0-1.1,0.1l-5.9,0.7c-0.6,0.1-1.1,0.6-1,1.3C4.5,32.2,5,32.6,5.6,32.6z"/>
	<path d="M43.1,36.2c-0.5-0.9-1.3-1.6-2.1-1.8c-0.3-0.1-0.6-0.1-1-0.1c-0.4,0-0.9,0.1-1.3,0.2c-1.2,0.4-2.4,0.8-3.6,1.3l-1.8,0.7
		c-0.3,0.1-0.5,0.3-0.6,0.6c-0.1,0.3-0.1,0.6,0,0.9c0.2,0.5,0.6,0.8,1.1,0.8c0.1,0,0.3,0,0.4-0.1l2-0.7c1.2-0.4,2.3-0.8,3.5-1.2
		c0.2-0.1,0.4-0.1,0.6-0.1c0.1,0,0.2,0,0.3,0c0.2,0.1,0.5,0.2,0.8,0.7c0.1,0.2,0.1,0.6,0,0.9c-0.1,0.4-0.4,0.7-0.7,0.8l-12,5.4
		c-1.9,0.9-4,1.3-6.1,1.3c-1.2,0-2.3-0.1-3.5-0.4L5.9,42.3c-0.1,0-0.2,0-0.3,0c-0.5,0-1,0.3-1.1,0.8c-0.1,0.3,0,0.6,0.1,0.9
		c0.1,0.3,0.4,0.5,0.8,0.6l12.9,3.1c1.3,0.3,2.6,0.5,4,0.5c0,0,0,0,0,0c2.4,0,4.8-0.5,7.1-1.5l12-5.4c0.9-0.4,1.6-1.2,1.9-2.2
		C43.7,38.1,43.6,37.1,43.1,36.2z"/>
	<path d="M21.9,28.3c1.4,0,2.7-0.5,3.7-1.5c2-2,2-5.4,0-7.4c-1-1-2.3-1.5-3.7-1.5c-1.4,0-2.7,0.5-3.7,1.5c-2,2-2,5.4,0,7.4
		C19.2,27.8,20.5,28.3,21.9,28.3z M19.8,21c0.6-0.6,1.3-0.9,2.1-0.9c0.8,0,1.5,0.3,2.1,0.9c1.2,1.2,1.2,3,0,4.2
		c-0.6,0.6-1.3,0.9-2.1,0.9c-0.8,0-1.5-0.3-2.1-0.9C18.6,24,18.6,22.2,19.8,21z"/>
	<path d="M33,20.3c2.7,0,5.3-1.1,7.2-3c4-4,4-10.4,0-14.4c-1.9-1.9-4.5-3-7.2-3c-2.7,0-5.3,1.1-7.2,3c-4,4-4,10.4,0,14.4
		C27.7,19.2,30.3,20.3,33,20.3z M33,2.3c2.1,0,4.1,0.8,5.6,2.3c3.1,3.1,3.1,8.1,0,11.1C37.1,17.2,35.1,18,33,18
		c-2.1,0-4.1-0.8-5.6-2.3c-3.1-3.1-3.1-8.1,0-11.1C28.9,3.1,30.9,2.3,33,2.3z"/>
	<path d="M28.1,11.3c0.6,0,1.1-0.5,1.1-1.2c0-1,0.4-2,1.1-2.7C31,6.8,32,6.4,33,6.4c1,0,2,0.4,2.7,1.1c1.5,1.5,1.5,3.9,0,5.4
		c-0.7,0.7-1.7,1.1-2.7,1.1c-1,0-2-0.4-2.7-1.1c-0.2-0.2-0.5-0.3-0.8-0.3c-0.3,0-0.6,0.1-0.8,0.3c-0.2,0.2-0.3,0.5-0.3,0.8
		c0,0.3,0.1,0.6,0.3,0.8c1.1,1.1,2.7,1.8,4.3,1.8c1.6,0,3.1-0.6,4.3-1.8c2.4-2.4,2.4-6.2,0-8.6c-1.1-1.1-2.7-1.8-4.3-1.8
		c-1.6,0-3.1,0.6-4.3,1.8c-1.1,1.1-1.8,2.7-1.8,4.3C26.9,10.8,27.4,11.3,28.1,11.3z"/>
</g>
</svg>
