<?xml version="1.0" encoding="utf-8"?>
<!-- Generator: Adobe Illustrator 22.0.1, SVG Export Plug-In . SVG Version: 6.00 Build 0)  -->
<svg version="1.1" id="Layer_1" xmlns="http://www.w3.org/2000/svg" xmlns:xlink="http://www.w3.org/1999/xlink" x="0px" y="0px"
	 viewBox="0 0 48 48" enable-background="new 0 0 48 48" xml:space="preserve">
<g>
	<path d="M23.8,25.8c-0.5,0-0.9-0.4-0.9-0.9v-5.4c-4.9,0.2-8.9,1.5-9.7,3.1c-0.1,0.2-0.2,0.5-0.6,0.6l-0.3,0c-0.2,0-0.5-0.1-0.6-0.3
		L11.7,23v0c0-0.1-0.1-0.1-0.1-0.2c-0.1-0.3-1.2-0.9-3.2-0.9c-2,0-3.1,0.7-3.2,1c-0.1,0.4-0.5,0.6-0.9,0.6c-0.4,0-0.8-0.4-0.9-0.7
		l0,0v-0.1c0-11,8.6-20,19.6-20.6v-1C23.1,0.4,23.5,0,24,0s0.9,0.4,0.9,0.9V2c11,0.5,19.6,9.4,19.6,20.5c0,0.1,0,0.2-0.1,0.3
		c-0.1,0.3-0.3,0.4-0.5,0.5l-0.1,0h-0.2c-0.4,0-0.7-0.3-0.9-0.6c-0.1-0.4-1.2-1-3.2-1c-2,0-3.1,0.6-3.2,0.9v0.1l-0.2,0.2
		c-0.1,0.1-0.2,0.2-0.3,0.2c0,0-0.1,0-0.1,0.1c-0.2,0.1-0.3,0.1-0.4,0.1c-0.1,0-0.2,0-0.3-0.1c-0.3,0-0.4-0.1-0.4-0.2l0,0
		c-0.1-0.1-0.2-0.2-0.2-0.3c-0.8-1.7-4.9-3-9.8-3.2v5.4C24.7,25.4,24.3,25.8,23.8,25.8z M30.5,5c3.3,3.3,5.5,9.1,5.9,15.6
		c0.9-0.4,2-0.6,3.2-0.6c1.2,0,2.2,0.2,3,0.5C41.8,13.5,37.1,7.5,30.5,5z M8.4,20c1.3,0,2.3,0.2,3.2,0.5c0.4-6.5,2.6-12.3,5.9-15.6
		C10.9,7.4,6.2,13.5,5.4,20.5C6.2,20.2,7.3,20,8.4,20z M24,3.8c-5.3,0-9.9,7.1-10.5,16.2c2.2-1.4,6.1-2.3,10.5-2.3
		c4.6,0,8.3,0.8,10.5,2.3C33.9,10.9,29.3,3.8,24,3.8z"/>
	<path d="M38.7,33.5c-1.3,0.9-3.7,1.6-6.5,1.6c-2.8,0-5.1-0.6-6.5-1.6v0c0,0-0.1,0-0.1,0V35c0,0,0.1,0,0.1,0v1.3
		c0,0.9,1.9,1.9,4.6,2.3c0,0,0,0,0,0c0.2,0,0.4,0,0.7,0c0.3,0,0.7,0,1.1,0c0,0,0.1,0,0.1,0c0,0,0,0,0,0c0,0,0,0,0,0c0,0,0.1,0,0.1,0
		c0.4,0,0.7,0,1.1,0c0.2,0,0.5,0,0.7,0c0,0,0,0,0,0c2.7-0.3,4.6-1.4,4.6-2.3V35c0,0,0.1,0,0.1,0L38.7,33.5
		C38.7,33.5,38.7,33.5,38.7,33.5L38.7,33.5z"/>
	<path d="M38.7,28.7c-1.3,0.9-3.7,1.6-6.5,1.6c-2.8,0-5.1-0.6-6.5-1.6v0c0,0-0.1,0-0.1,0v2.9c0,1.1,2.8,2.4,6.5,2.4c0,0,0,0,0,0
		c0,0,0,0,0,0c3.7,0,6.5-1.3,6.5-2.4L38.7,28.7C38.7,28.7,38.7,28.7,38.7,28.7L38.7,28.7z"/>
	<path d="M32.3,24.3C32.2,24.3,32.2,24.3,32.3,24.3C32.2,24.3,32.2,24.3,32.3,24.3c-3.8,0-6.6,1.3-6.6,2.4c0,0.6,0.7,1.2,1.9,1.6
		c0,0,0.1,0,0.2,0.1c0.1,0,0.2,0.1,0.3,0.1c0.1,0,0.2,0,0.2,0.1c0.1,0,0.2,0.1,0.3,0.1c0.1,0,0.1,0,0.2,0c0.1,0,0.2,0.1,0.4,0.1
		c0,0,0,0,0,0c0.9,0.2,1.9,0.3,3,0.3c0,0,0,0,0,0s0,0,0,0c1.1,0,2.2-0.1,3-0.3c0,0,0,0,0,0c0.1,0,0.3-0.1,0.4-0.1c0.1,0,0.1,0,0.2,0
		c0.1,0,0.2-0.1,0.3-0.1c0.1,0,0.2,0,0.2-0.1c0.1,0,0.2-0.1,0.3-0.1c0.1,0,0.1,0,0.2-0.1c1.2-0.5,1.9-1.1,1.9-1.6
		C38.8,25.6,36,24.3,32.3,24.3z"/>
	<path d="M33.8,44.6c-0.2,0-0.4,0-0.6,0.1c-0.3,0-0.6,0-0.9,0c0,0-0.1,0-0.1,0s-0.1,0-0.1,0c-0.3,0-0.6,0-0.9,0
		c-0.2,0-0.4,0-0.6-0.1c0,0,0,0,0,0c-2.1-0.2-3.9-0.7-5-1.5v2.5c0.1,0.8,1.4,1.6,3.5,2.1c0.7,0.2,1.5,0.3,2.3,0.3c0.2,0,0.3,0,0.5,0
		c0.1,0,0.1,0,0.2,0c0,0,0,0,0,0c0,0,0,0,0,0c0.1,0,0.1,0,0.2,0c0.2,0,0.4,0,0.5,0c0.8,0,1.6-0.1,2.3-0.3c2.1-0.4,3.4-1.3,3.5-2.1
		v-2.5C37.7,43.9,35.9,44.4,33.8,44.6C33.8,44.6,33.8,44.6,33.8,44.6z"/>
	<path d="M25.7,41.2c0,1,2.4,2.1,5.8,2.3c0.2,0,0.4,0,0.6,0c0,0,0,0,0,0s0,0,0,0c0.2,0,0.4,0,0.6,0c3.4-0.1,5.8-1.2,5.8-2.3v-2.9
		c-1.1,0.8-2.9,1.3-5.1,1.5c0,0,0,0,0,0c-0.4,0-0.8,0.1-1.3,0.1c0,0-0.1,0-0.1,0c0,0-0.1,0-0.1,0c-0.4,0-0.8-0.1-1.3-0.1
		c0,0,0,0,0,0c-2.2-0.2-4-0.7-5.1-1.5V41.2z"/>
	<path d="M23.2,38c-1.3,0.9-3.7,1.6-6.5,1.6c-2.8,0-5.1-0.6-6.5-1.6v0c0,0-0.1,0-0.1,0v1.5c0,0,0.1,0,0.1,0v1.3
		c0,0.9,1.9,1.9,4.6,2.3c0,0,0,0,0,0c0.2,0,0.4,0,0.7,0c0.3,0,0.7,0,1.1,0c0,0,0.1,0,0.1,0c0,0,0,0,0,0c0,0,0,0,0,0c0,0,0.1,0,0.1,0
		c0.4,0,0.7,0,1.1,0c0.2,0,0.5,0,0.7,0c0,0,0,0,0,0c2.7-0.3,4.6-1.4,4.6-2.3v-1.3c0,0,0.1,0,0.1,0L23.2,38C23.3,38,23.3,38,23.2,38
		L23.2,38z"/>
	<path d="M23.2,33.2c-1.3,0.9-3.7,1.6-6.5,1.6c-2.8,0-5.1-0.6-6.5-1.6v0c0,0-0.1,0-0.1,0V36c0,1.1,2.8,2.4,6.5,2.4c0,0,0,0,0,0
		c0,0,0,0,0,0c3.7,0,6.5-1.3,6.5-2.4L23.2,33.2C23.3,33.2,23.3,33.2,23.2,33.2L23.2,33.2z"/>
	<path d="M16.8,28.8C16.8,28.8,16.8,28.8,16.8,28.8C16.7,28.8,16.7,28.8,16.8,28.8c-3.8,0-6.6,1.3-6.6,2.4c0,0.6,0.7,1.2,1.9,1.6
		c0,0,0.1,0,0.2,0.1c0.1,0,0.2,0.1,0.3,0.1c0.1,0,0.2,0,0.2,0.1c0.1,0,0.2,0.1,0.3,0.1c0.1,0,0.1,0,0.2,0c0.1,0,0.2,0.1,0.4,0.1
		c0,0,0,0,0,0c0.9,0.2,1.9,0.3,3,0.3c0,0,0,0,0,0s0,0,0,0c1.1,0,2.2-0.1,3-0.3c0,0,0,0,0,0c0.1,0,0.3-0.1,0.4-0.1c0.1,0,0.1,0,0.2,0
		c0.1,0,0.2-0.1,0.3-0.1c0.1,0,0.2,0,0.2-0.1c0.1,0,0.2-0.1,0.3-0.1c0.1,0,0.1,0,0.2-0.1c1.2-0.5,1.9-1.1,1.9-1.6
		C23.3,30.1,20.5,28.8,16.8,28.8z"/>
	<path d="M18.1,44.3c-0.4,0-0.8,0.1-1.3,0.1c0,0-0.1,0-0.1,0c0,0-0.1,0-0.1,0c-0.4,0-0.8-0.1-1.3-0.1c0,0,0,0,0,0
		c-2.2-0.2-4-0.7-5.1-1.5v2.9c0,1,2.4,2.1,5.8,2.3c0.2,0,0.4,0,0.6,0c0,0,0,0,0,0s0,0,0,0c0.2,0,0.4,0,0.6,0
		c3.4-0.1,5.8-1.2,5.8-2.3v-2.9C22.1,43.5,20.3,44.1,18.1,44.3C18.1,44.3,18.1,44.3,18.1,44.3z"/>
</g>
</svg>
