<?xml version="1.0" encoding="utf-8"?>
<!-- Generator: Adobe Illustrator 22.0.1, SVG Export Plug-In . SVG Version: 6.00 Build 0)  -->
<svg version="1.1" id="Layer_1" xmlns="http://www.w3.org/2000/svg" xmlns:xlink="http://www.w3.org/1999/xlink" x="0px" y="0px"
	 viewBox="0 0 39.4 39.4" style="enable-background:new 0 0 39.4 39.4;" xml:space="preserve">
<path id="Union_196" d="M22.4,36.5c-1.9-1.9-2.9-4.4-2.9-7.1c0-2.6,1-5.2,2.9-7.1c1.9-1.9,4.4-2.9,7.1-2.9c2.6,0,5.2,1,7.1,2.9
	c1.9,1.9,2.9,4.4,2.9,7.1c0,2.7-1,5.2-2.9,7.1c-1.9,1.9-4.4,2.9-7.1,2.9C26.8,39.4,24.2,38.4,22.4,36.5z M20.7,29.4
	c0,4.8,3.9,8.7,8.7,8.7c4.8,0,8.7-3.9,8.7-8.7c0-4.8-3.9-8.7-8.7-8.7C24.6,20.7,20.7,24.6,20.7,29.4L20.7,29.4z M35.9,33.2H23.2
	c0.8-2.1,2.6-3.8,4.8-4.3c-0.7-0.6-1.2-1.5-1.2-2.4c0-1.7,1.4-3.2,3.2-3.2c1.7,0,3.2,1.4,3.2,3.2c0,1-0.5,2-1.4,2.6
	C33.7,29.7,35.3,31.2,35.9,33.2L35.9,33.2z M0.7,32.4c-0.4,0-0.7-0.3-0.7-0.7c0,0,0,0,0-0.1v-2.9C0,28.3,0.3,28,0.7,28
	c0,0,0,0,0.1,0h1.5v-2.2c0-0.4,0.3-0.7,0.7-0.7c0,0,0,0,0.1,0h0.7V11.8H2.9c-0.4,0-0.7-0.3-0.7-0.7c0,0,0,0,0-0.1V8.8H0.7
	C0.4,8.9,0,8.6,0,8.2c0,0,0,0,0-0.1V5.2c0-0.3,0.2-0.6,0.5-0.7L16,0h0.4l15.5,4.4c0.3,0.1,0.5,0.4,0.5,0.7v2.9
	c0,0.4-0.3,0.7-0.7,0.7c0,0,0,0-0.1,0h-1.5V11c0,0.4-0.3,0.7-0.7,0.7c0,0,0,0-0.1,0h-0.7v5.9c-0.5,0-1,0.1-1.5,0.2v-6.1h-1.5v6.5
	c-0.5,0.2-1,0.4-1.5,0.6v-7.1h-5.9V25h0.1c-0.2,0.5-0.4,1-0.5,1.5H3.7V28h14.1c-0.1,0.5-0.1,1-0.1,1.5H1.5v1.5h16.3
	c0.1,0.5,0.2,1,0.3,1.5L0.7,32.4z M15.5,25h1.5V11.8h-1.5V25z M8.1,25H14V11.8H8.1V25z M5.2,25h1.5V11.8H5.2V25z M3.7,10.3h25V8.8
	h-25V10.3z M1.5,5.7v1.6h29.4V5.7L16.2,1.5L1.5,5.7z M20.6,5.2c0-0.4,0.3-0.7,0.7-0.7c0.4,0,0.7,0.3,0.7,0.7c0,0.4-0.3,0.7-0.7,0.7
	C20.9,5.9,20.6,5.6,20.6,5.2L20.6,5.2z M14.7,4.4c0-0.8,0.7-1.5,1.5-1.5c0.8,0,1.5,0.7,1.5,1.5c0,0.8-0.7,1.5-1.5,1.5
	C15.4,5.9,14.7,5.2,14.7,4.4L14.7,4.4z M10.3,5.2c0-0.4,0.3-0.7,0.7-0.7c0.4,0,0.7,0.3,0.7,0.7c0,0.4-0.3,0.7-0.7,0.7
	C10.6,5.9,10.3,5.6,10.3,5.2C10.3,5.2,10.3,5.2,10.3,5.2L10.3,5.2z"/>
</svg>
