<?xml version="1.0" encoding="utf-8"?>
<!-- Generator: Adobe Illustrator 22.0.1, SVG Export Plug-In . SVG Version: 6.00 Build 0)  -->
<svg version="1.1" id="Layer_1" xmlns="http://www.w3.org/2000/svg" xmlns:xlink="http://www.w3.org/1999/xlink" x="0px" y="0px"
	 viewBox="0 0 38.4 31.4" style="enable-background:new 0 0 38.4 31.4;" xml:space="preserve">
<path id="Union_194" d="M28.3,25.7h-3.5v-6h3.5V14l10.1,8.7l-10.1,8.7V25.7z M20.8,25.7v-6h2v6H20.8z M16.8,25.7v-6h2v6H16.8z
	 M11,25.7v-6h3.8v6H11z M0,8.7L10.1,0v5.7h3.5v6h-3.5v5.7L0,8.7z M27.4,11.7h-3.8v-6h3.8L27.4,11.7L27.4,11.7z M19.5,11.7v-6h2v6
	H19.5z M15.5,11.7v-6h2v6H15.5z"/>
</svg>
