<?xml version="1.0" encoding="utf-8"?>
<!-- Generator: Adobe Illustrator 22.0.1, SVG Export Plug-In . SVG Version: 6.00 Build 0)  -->
<svg version="1.1" id="Layer_1" xmlns="http://www.w3.org/2000/svg" xmlns:xlink="http://www.w3.org/1999/xlink" x="0px" y="0px"
	 viewBox="0 0 35 35.3" style="enable-background:new 0 0 35 35.3;" xml:space="preserve">
<path d="M33.3,16.3l-10.1-2.9h-0.3l-10.1,2.9c-0.2,0.1-0.3,0.3-0.3,0.5v1.9c0,0.3,0.2,0.5,0.4,0.5c0,0,0,0,0.1,0h1v1.4
	c0,0.3,0.2,0.5,0.4,0.5c0,0,0,0,0.1,0h0.5v8.7h-0.5c-0.3,0-0.5,0.2-0.5,0.4c0,0,0,0,0,0.1v1.4h-1c-0.3,0-0.5,0.2-0.5,0.4
	c0,0,0,0,0,0.1v1.9c0,0.3,0.2,0.5,0.4,0.5c0,0,0,0,0.1,0h20.2c0.3,0,0.5-0.2,0.5-0.4c0,0,0,0,0-0.1v-1.9c0-0.3-0.2-0.5-0.4-0.5
	c0,0,0,0-0.1,0h-1v-1.4c0-0.3-0.2-0.5-0.4-0.5c0,0,0,0-0.1,0h-0.5v-8.7h0.5c0.3,0,0.5-0.2,0.5-0.4c0,0,0,0,0-0.1v-1.4h1
	c0.3,0,0.5-0.2,0.5-0.4c0,0,0,0,0-0.1v-1.9C33.6,16.6,33.5,16.4,33.3,16.3z M14.8,30.8h16.4v1H14.8V30.8z M15.8,21.1h1v8.7h-1
	L15.8,21.1z M17.7,21.1h3.8v8.7h-3.8L17.7,21.1z M22.5,29.8v-8.7h1v8.7H22.5z M24.5,21.1h3.8v8.7h-3.8L24.5,21.1z M29.3,29.8v-8.7h1
	v8.7H29.3z M32.7,32.7v1H13.4v-1H32.7z M31.2,20.2H14.8v-1h16.4V20.2z M32.7,18.3H13.4v-1.1l9.6-2.8l9.6,2.7V18.3z"/>
<path d="M19.7,16.3c-0.3,0-0.5,0.2-0.5,0.5c0,0.3,0.2,0.5,0.5,0.5c0.3,0,0.5-0.2,0.5-0.5C20.1,16.6,19.9,16.3,19.7,16.3z"/>
<path d="M26.4,17.3c0.3,0,0.5-0.2,0.5-0.5c0-0.3-0.2-0.5-0.5-0.5h0c-0.3,0-0.5,0.2-0.5,0.5C25.9,17.1,26.1,17.3,26.4,17.3z"/>
<path d="M22.1,16.3c0,0.5,0.4,1,1,1c0.5,0,1-0.4,1-1c0-0.5-0.4-1-1-1C22.5,15.4,22.1,15.8,22.1,16.3z"/>
<circle cx="9.8" cy="4.5" r="0.6"/>
<path d="M2.6,23.8v-1.1h6.9l0-1.1H4.3v-1.1h5.2l0-1.1H7.6l0-9.9H12v4.8l1.1-0.3V9.5h1.1v4.1l1.1-0.3l0-3.8h4.4v2.4l1.1-0.3V9.5h1.1
	v1.8l1.1-0.3V9.5h0.6c0.3,0,0.5-0.2,0.6-0.5c0,0,0,0,0-0.1V7.3h1.1c0.3,0,0.5-0.2,0.6-0.5c0,0,0,0,0-0.1V4.5c0-0.2-0.2-0.5-0.4-0.6
	L13.8,0.7h-0.3L1.9,4C1.7,4.1,1.5,4.3,1.5,4.5v2.2C1.5,7,1.7,7.3,2,7.3c0,0,0,0,0.1,0h1.1v1.7c0,0.3,0.2,0.5,0.5,0.6c0,0,0,0,0.1,0
	h0.6v9.9H3.7c-0.3,0-0.5,0.2-0.6,0.5c0,0,0,0,0,0.1v1.7H2.1c-0.3,0-0.5,0.2-0.6,0.5c0,0,0,0,0,0.1v2.2c0,0.3,0.2,0.5,0.5,0.6
	c0,0,0,0,0.1,0h7.5l0-1.1H2.6z M6.5,19.4H5.4l0-9.9h1.1V19.4z M23,8.4H4.3V7.3H23V8.4z M2.6,6.2V5l11-3.2l11,3.1v1.3H2.6z"/>
<path d="M17.5,4L17.5,4c-0.3,0-0.6,0.2-0.6,0.6s0.2,0.6,0.6,0.6S18,4.8,18,4.5C18,4.2,17.8,4,17.5,4z"/>
<path d="M13.6,2.9c-0.6,0-1.1,0.5-1.1,1.1c0,0.6,0.5,1.1,1.1,1.1c0.6,0,1.1-0.5,1.1-1.1C14.7,3.4,14.2,2.9,13.6,2.9z"/>
</svg>
