<?xml version="1.0" encoding="utf-8"?>
<!-- Generator: Adobe Illustrator 22.0.1, SVG Export Plug-In . SVG Version: 6.00 Build 0)  -->
<svg version="1.1" id="Layer_1" xmlns="http://www.w3.org/2000/svg" xmlns:xlink="http://www.w3.org/1999/xlink" x="0px" y="0px"
	 viewBox="0 0 100 100" style="enable-background:new 0 0 100 100;" xml:space="preserve">
<style type="text/css">
	.st0{fill:#FFFFFF;}
</style>
<path d="M49.4,3.4c-10.8,0-19.5,8.7-19.5,19.5c0,10.8,8.7,19.5,19.5,19.5s19.5-8.7,19.5-19.5C68.9,12.1,60.1,3.4,49.4,3.4z"/>
<g>
	<path d="M31.1,78.2c-0.2-2.3-2-4.3-4.5-4.7c-1.6,3.2-6.9,3.6-9,0c-2.4,0.5-4.2,2.2-4.4,4.1c-0.2,2-0.4,3.9-0.5,5.9
		c0,0.5,0.2,1.2,0.6,1.6c2.4,2.1,5.6,3.2,8.8,3.3c3,0,6.1-1.1,8.4-3c0.5-0.4,0.9-1.2,0.9-1.9C31.5,81.7,31.3,79.9,31.1,78.2z"/>
	<path d="M22.1,74c2.6,0,4.8-2.2,4.8-4.8c0-2.6-2.2-4.7-4.8-4.7c-2.6,0-4.7,2.1-4.7,4.7C17.4,71.8,19.5,73.9,22.1,74z"/>
</g>
<polygon points="63.6,64.6 51,56.5 51,40.9 47.4,40.9 47.4,56.3 34.5,64.6 36.4,67.6 49,59.5 61.7,67.6 "/>
<path d="M22.1,56.9c-10.8,0-19.5,8.7-19.5,19.5c0,10.8,8.7,19.5,19.5,19.5s19.5-8.7,19.5-19.5C41.6,65.6,32.9,56.9,22.1,56.9z
	 M22.1,93.2c-9.3,0-16.8-7.5-16.8-16.8s7.5-16.8,16.8-16.8s16.8,7.5,16.8,16.8S31.4,93.2,22.1,93.2z"/>
<g>
	<path d="M86.9,78.2c-0.2-2.3-2-4.3-4.5-4.7c-1.6,3.2-6.9,3.6-9,0C71,74,69.2,75.6,69,77.6c-0.2,2-0.4,3.9-0.5,5.9
		c0,0.5,0.2,1.2,0.6,1.6c2.4,2.1,5.6,3.2,8.8,3.3c3,0,6.1-1.1,8.4-3c0.5-0.4,0.9-1.2,0.9-1.9C87.3,81.7,87,79.9,86.9,78.2z"/>
	<path d="M77.8,74c2.6,0,4.8-2.2,4.8-4.8c0-2.6-2.2-4.7-4.8-4.7c-2.6,0-4.7,2.1-4.7,4.7C73.1,71.8,75.2,73.9,77.8,74z"/>
</g>
<path d="M77.9,56.9c-10.8,0-19.5,8.7-19.5,19.5c0,10.8,8.7,19.5,19.5,19.5s19.5-8.7,19.5-19.5C97.4,65.6,88.6,56.9,77.9,56.9z
	 M77.9,93.2c-9.3,0-16.8-7.5-16.8-16.8s7.5-16.8,16.8-16.8s16.8,7.5,16.8,16.8S87.2,93.2,77.9,93.2z"/>
<g>
	<path class="st0" d="M58.4,24.7c-0.2-2.3-2-4.3-4.5-4.7c-1.6,3.2-6.9,3.6-9,0c-2.4,0.5-4.2,2.2-4.4,4.1C40.2,26,40.1,28,40,30
		c0,0.5,0.2,1.2,0.6,1.6c2.4,2.1,5.6,3.2,8.8,3.3c3,0,6.1-1.1,8.4-3c0.5-0.4,0.9-1.2,0.9-1.9C58.8,28.2,58.5,26.4,58.4,24.7z"/>
	<path class="st0" d="M49.3,20.5c2.6,0,4.8-2.2,4.8-4.8c0-2.6-2.2-4.7-4.8-4.7c-2.6,0-4.7,2.1-4.7,4.7
		C44.6,18.3,46.7,20.4,49.3,20.5z"/>
</g>
</svg>
