<?xml version="1.0" encoding="utf-8"?>
<!-- Generator: Adobe Illustrator 22.0.1, SVG Export Plug-In . SVG Version: 6.00 Build 0)  -->
<svg version="1.1" id="Layer_1" xmlns="http://www.w3.org/2000/svg" xmlns:xlink="http://www.w3.org/1999/xlink" x="0px" y="0px"
	 viewBox="0 0 100 100" style="enable-background:new 0 0 100 100;" xml:space="preserve">
<g>
	<path d="M67.1,47.8c-2.4-2-5.3-3.4-8.1-5c-1.2-0.7-2.3-0.4-3.6,0.4c-3.1,2-6.6,2.7-9.7,0.6c-2.7-1.9-5-1.3-7.3,0
		c-2,1.2-4,2.5-5.7,4.1c-2.4,2.2-3.6,5-3.5,8.5c0.2,7.7,0.1,15.4,0.1,23.1c0,0.8,0,1.6,0,2.4c2.3,0,4.2,0,6.3,0c0-7.6,0-15,0-22.5
		c1.3,0,2.4,0,3.8,0c0,7.6,0,15,0,22.5c7.8,0,15.3,0,23.1,0c0-1,0-1.8,0-2.6c0-6.1,0-12.2,0-18.3c0-1.8,0-1.8,2.1-1.3
		c0,7.4,0,14.8,0,22.3c2.1,0,4,0,6.1,0c0-8.7-0.2-17.2,0.1-25.6C70.9,52.8,69.7,49.9,67.1,47.8z"/>
	<path d="M98.1,51.1c0.1-3.6-1.1-6.4-3.7-8.3c-2.7-2-5.8-3.5-8.8-5.1c-0.7-0.4-2-0.2-2.7,0.3c-4.2,2.3-8.2,2.2-12.4,0
		c-0.6-0.3-1.5-0.7-2.1-0.6c-1.9,0.6-3.6,1.4-5.6,2.1c2.7,1.9,5.1,3.3,7.2,5.2c3.2,2.8,5.3,6.1,4.9,10.7c-0.3,3.2-0.1,6.5-0.1,9.8
		c0,2.7,0,5.4,0,8.2c4.5,0,8.7,0,13.1,0c0-6.5,0-12.9,0-19.5c0.9,0.1,1.6,0.1,2.5,0.2c0,6.6,0,12.9,0,19.3c2.6,0,5,0,7.5,0
		C98,65.8,97.8,58.4,98.1,51.1z"/>
	<path d="M34.5,41.3c0.6-0.4,1.3-0.7,2.3-1.3c-2.9-1.1-5-3.5-7.9-1.9c-4.1,2.3-8.1,2.2-12.1,0c-0.7-0.4-1.6-0.6-2.3-0.4
		C9.8,39,5.8,41.5,3.1,45.7c-0.7,1-1.1,2.4-1.1,3.6c-0.1,7,0,14,0,21c0,1,0,2.1,0,3.3c2.4,0,4.5,0,6.7,0c0-6.5,0-12.9,0-19.3
		c0.9,0,1.6,0,2.5,0c0,6.5,0,12.9,0,19.3c4.7,0,9.2,0,13.9,0c0-6.3,0.2-12.5-0.1-18.6c-0.2-3.7,1.2-6.6,3.6-9
		C30.4,44.2,32.5,42.8,34.5,41.3z"/>
	<path d="M50.3,40.6c6.4,0,11.3-4.9,11.3-11.2c0-6.4-5-11.4-11.4-11.4c-6.4,0-11.3,5-11.3,11.5C39,35.8,43.9,40.6,50.3,40.6z"/>
	<path d="M22.9,37.1c5.2,0,9.4-4.3,9.4-9.4c0-5.2-4.2-9.3-9.5-9.3c-5.3,0-9.4,4.1-9.4,9.3C13.5,32.8,17.8,37.1,22.9,37.1z"/>
	<path d="M76.6,37c5.1,0,9.5-4.4,9.4-9.5c0-5.1-4.2-9.2-9.3-9.2c-5.4,0-9.5,3.9-9.6,9.2C67,32.7,71.3,37,76.6,37z"/>
</g>
</svg>
