<?xml version="1.0" encoding="utf-8"?>
<!-- Generator: Adobe Illustrator 22.0.1, SVG Export Plug-In . SVG Version: 6.00 Build 0)  -->
<svg version="1.1" id="Layer_1" xmlns="http://www.w3.org/2000/svg" xmlns:xlink="http://www.w3.org/1999/xlink" x="0px" y="0px"
	 viewBox="0 0 36.2 35.6" style="enable-background:new 0 0 36.2 35.6;" xml:space="preserve">
<path id="Union_184" d="M2.6,35.6C1.2,35.6,0,34.4,0,33V2.6C0,1.2,1.2,0,2.6,0h31c1.4,0,2.6,1.2,2.6,2.6V33c0,1.4-1.2,2.6-2.6,2.6
	H2.6z M1.8,33h32.5v-31H1.8L1.8,33z M14.9,29.7c-2,0-3.8-1.3-4.3-3.2H2.6v-1.7h10.3v1.3c0,1,0.8,1.8,1.9,1.8c0,0,0,0,0.1,0H22
	c1,0,1.9-0.7,1.9-1.8c0,0,0,0,0-0.1v-1.3h9.7v1.7h-7.3c-0.6,1.9-2.3,3.2-4.3,3.2H14.9z M17.1,22.5V11.4l-1.8,1.8l-1.4-1.4l4.2-4.2
	l4.2,4.2l-1.4,1.4l-1.8-1.8v11.1L17.1,22.5z"/>
</svg>
