<?xml version="1.0" encoding="utf-8"?>
<!-- Generator: Adobe Illustrator 22.0.1, SVG Export Plug-In . SVG Version: 6.00 Build 0)  -->
<svg version="1.1" id="Layer_1" xmlns="http://www.w3.org/2000/svg" xmlns:xlink="http://www.w3.org/1999/xlink" x="0px" y="0px"
	 viewBox="0 0 100 100" style="enable-background:new 0 0 100 100;" xml:space="preserve">
<g>
	<path d="M3.8,89.4c30.9,0,61.8,0,92.8,0c1.1,0,2-0.3,2.5-1.3c0-12.4,0-24.8,0-37.3c-0.5-1-1.3-1.3-2.5-1.3c-30.9,0-61.9,0-92.8,0
		c-1.4,0-2.3,0.4-2.7,1.7c0,12.2,0,24.4,0,36.7C1.5,89.1,2.4,89.4,3.8,89.4z M5.1,53.4c29.9,0,59.9,0,89.8,0c0,10.7,0,21.5,0,32.2
		c-29.9,0-59.8,0-89.8,0C5.1,74.8,5.1,64.1,5.1,53.4z"/>
	<path d="M50,27.5c4.7,0,8.5-3.8,8.5-8.5c0-4.7-3.8-8.5-8.5-8.5c-4.6,0-8.4,3.8-8.4,8.5C41.6,23.7,45.4,27.5,50,27.5z"/>
	<path d="M46.9,42.2c-0.8-0.9-1.2-1.9-1.3-3.1c-0.1-0.7-0.2-1.3-0.3-1.9c-0.4-2.4-0.8-4.9-1.2-7.4c-2,0.4-3.8,0.7-5.7,1
		c-2.1,0.4-3.4,1.6-4,3.7c-0.6,2.2-1.2,4.4-1.9,6.6c-0.3,0.9-0.5,1.8-0.8,2.8c5.5,0,10.8,0,16.3,0C47.7,43.2,47.3,42.6,46.9,42.2z"
		/>
	<path d="M55.9,30.2c-0.4,2.3-0.8,4.5-1.1,6.8c-0.3,2.3-0.8,4.5-2.5,6.3c-0.1,0.1-0.1,0.3-0.2,0.5c5.4,0,10.8,0,16.3,0
		c-1-3.4-1.9-6.8-2.9-10.2c-0.4-1.4-1.6-2.4-3-2.8c-2.1-0.5-4.2-0.8-6.4-1.2C56,29.9,55.9,30.1,55.9,30.2z"/>
	<path d="M23.2,35.7c3.9,0,7.1-3,7.2-6.9c0.1-3.9-3.1-7.1-6.9-7.1c-3.9,0-7.1,3-7.1,7C16.2,32.5,19.3,35.7,23.2,35.7z"/>
	<path d="M76.8,35.7c3.9,0,7.1-3.1,7.1-7c0-3.9-3.1-7-7-7.1c-3.9,0-7.1,3.1-7.1,7C69.8,32.5,73,35.7,76.8,35.7z"/>
	<path d="M80.8,43.8c3.3,0,6.5,0,9.8,0c-0.4-1.2-0.7-2.4-1.2-3.4c-0.5-1-1.4-1.6-2.5-1.9c-0.6-0.1-1.2-0.2-1.7-0.3
		c-1.1-0.2-2.3-0.4-3.4-0.6C81.4,39.7,81.1,41.7,80.8,43.8z"/>
	<path d="M18.4,37.5c-1.9,0.4-3.7,0.7-5.6,1.1c-0.9,0.2-1.7,0.9-2,1.7c-0.5,1.1-0.8,2.3-1.2,3.4c3.3,0,6.5,0,9.8,0
		C19.1,41.7,18.7,39.6,18.4,37.5z"/>
	<path d="M47.9,40.4c0,1.3,1.1,2,1.6,3c0,0.1,0.1,0.1,0.1,0.2c0.3,0.4,0.7,0.4,1,0c0.5-0.8,1-1.6,1.5-2.4c0.1-0.2,0.2-0.4,0.1-0.6
		c-0.2-1.9-0.5-3.8-0.7-5.7c-0.1-1.5-0.7-3,0.2-4.4c0.3-0.5-0.1-1.1-0.7-1.1c-0.7,0-1.3,0-2,0c-0.7,0-1,0.5-0.8,1.1
		c0.2,0.6,0.6,1.2,0.5,1.8c-0.1,1.6-0.3,3.1-0.5,4.7C48.1,38.1,47.9,39.3,47.9,40.4z"/>
	<path d="M24.1,37.3c-0.6,0-1.1,0-1.7,0c-0.5,0-0.9,0.4-0.6,0.9c0.5,0.9,0.5,1.7,0.3,2.7c-0.2,1-0.2,2-0.3,3c1,0,2,0,3,0
		c-0.1-0.7-0.2-1.4-0.2-2.1c-0.1-1.2-0.5-2.4,0.3-3.6C25,37.7,24.6,37.3,24.1,37.3z"/>
	<path d="M77.7,37.3c-0.6,0-1.2,0-1.8,0c-0.5,0-0.8,0.5-0.6,0.9c0.5,0.9,0.5,1.8,0.3,2.7c-0.2,1-0.2,1.9-0.3,2.9c1,0,2,0,3,0
		c-0.1-0.8-0.2-1.5-0.3-2.2c-0.1-1.2-0.5-2.4,0.3-3.5C78.6,37.7,78.2,37.3,77.7,37.3z"/>
	<path d="M71.4,43c0.2,0.7,0.5,1,1.2,0.9c0.1,0,0.2,0,0.4,0c-0.3-2.1-0.7-4.2-1-6.3c-0.7,0.1-1.3,0.2-2,0.4
		C70.5,39.6,71,41.3,71.4,43z"/>
	<path d="M28.5,43.5c0.6-1.8,1.1-3.7,1.6-5.6c-0.7-0.1-1.3-0.2-1.9-0.3c-0.3,2.1-0.7,4.2-1,6.3C27.7,43.7,28.3,44.2,28.5,43.5z"/>
	<path d="M87,61.2C86.7,61,86.4,61,86.1,61c-4.1,0-8.3,0-12.4,0c-11.6,0-23.3,0-34.9,0c-6.6,0-13.2,0-19.8,0c-1.7,0-3.5,0-5.2,0
		c-0.7,0-1.1,0.4-1.1,0.9c0,0.6,0.4,0.9,1.1,1c0.1,0,0.3,0,0.4,0c2.9,0,5.8,0,8.6,0c9.1,0,18.2,0,27.3,0c0,0,0,0,0,0
		c5.5,0,11,0,16.5,0c4.3,0,8.6,0,12.9,0c2.3,0,4.5,0,6.8,0c0.5,0,0.9-0.2,1.1-0.7C87.5,61.8,87.4,61.4,87,61.2z"/>
	<path d="M86.4,76.1c-0.2,0-0.3,0-0.5,0c-23.8,0-47.5,0-71.3,0c-0.3,0-0.5,0-0.8,0c-0.7,0-1.2,0.4-1.2,0.9c0,0.6,0.4,0.9,1.2,0.9
		c0.1,0,0.3,0,0.4,0c11.9,0,23.9,0,35.8,0c11.9,0,23.9,0,35.8,0c0.2,0,0.4,0,0.6,0c0.6,0,1-0.4,1-0.9C87.4,76.5,87,76.1,86.4,76.1z"
		/>
	<path d="M13.6,70.4c0.2,0,0.4,0,0.6,0c11.9,0,23.9,0,35.8,0c11.9,0,23.7,0,35.6,0c0.3,0,0.6,0,0.9,0c0.6-0.1,0.9-0.4,0.9-0.9
		c0-0.5-0.3-0.9-0.9-1c-0.2,0-0.3,0-0.5,0c-24,0-48,0-72,0c-0.2,0-0.3,0-0.5,0c-0.5,0.1-0.9,0.4-0.8,0.9C12.7,70,13,70.3,13.6,70.4z
		"/>
</g>
</svg>
