<svg xmlns="http://www.w3.org/2000/svg" xmlns:xlink="http://www.w3.org/1999/xlink" width="52" height="52" viewBox="0 0 52 52">
  <defs>
    <clipPath id="clip-path">
      <rect id="Rectangle_2" data-name="Rectangle 2" width="52" height="52"/>
    </clipPath>
  </defs>
  <g id="facebook13" clip-path="url(#clip-path)">
    <rect id="Rectangle_3" data-name="Rectangle 3" width="50" height="50" rx="8" transform="translate(1 1)" fill="#fff"/>
    <g id="Artboard_6" data-name="Artboard – 6" clip-path="url(#clip-path)">
      <path id="_002-facebook" data-name="002-facebook" d="M43.264,0H6.74A6.738,6.738,0,0,0,0,6.738V43.262A6.738,6.738,0,0,0,6.74,50H24.753l.031-17.867H20.142a1.1,1.1,0,0,1-1.1-1.091l-.022-5.759a1.1,1.1,0,0,1,1.1-1.1h4.633V18.618c0-6.458,3.944-9.975,9.7-9.975h4.727a1.1,1.1,0,0,1,1.1,1.1V14.6a1.1,1.1,0,0,1-1.1,1.1h-2.9c-3.133,0-3.74,1.489-3.74,3.674v4.818h6.88a1.1,1.1,0,0,1,1.088,1.224l-.683,5.759a1.1,1.1,0,0,1-1.088.966h-6.17L32.546,50H43.264A6.738,6.738,0,0,0,50,43.263V6.738A6.738,6.738,0,0,0,43.264,0Z" transform="translate(0.998 1)" fill="#475993"/>
    </g>
  </g>
</svg>
