<?xml version="1.0" encoding="utf-8"?>
<!-- Generator: Adobe Illustrator 22.0.1, SVG Export Plug-In . SVG Version: 6.00 Build 0)  -->
<svg version="1.1" id="Layer_1" xmlns="http://www.w3.org/2000/svg" xmlns:xlink="http://www.w3.org/1999/xlink" x="0px" y="0px"
	 viewBox="0 0 48 48" enable-background="new 0 0 48 48" xml:space="preserve">
<path d="M36,0H12c-1.7,0-3,1.3-3,3v42c0,1.7,1.3,3,3,3h24c1.7,0,3-1.3,3-3V3C39,1.3,37.7,0,36,0z M18.8,3h10.5C29.7,3,30,3.3,30,3.8
	s-0.3,0.8-0.8,0.8H18.8c-0.4,0-0.8-0.3-0.8-0.8S18.3,3,18.8,3z M24,46.5c-1.2,0-2.3-1-2.3-2.3s1-2.3,2.3-2.3s2.3,1,2.3,2.3
	S25.2,46.5,24,46.5z M36,40.5H12v-33h24V40.5z"/>
</svg>
