<?xml version="1.0" encoding="utf-8"?>
<!-- Generator: Adobe Illustrator 22.0.1, SVG Export Plug-In . SVG Version: 6.00 Build 0)  -->
<svg version="1.1" id="Layer_1" xmlns="http://www.w3.org/2000/svg" xmlns:xlink="http://www.w3.org/1999/xlink" x="0px" y="0px"
	 viewBox="0 0 100 100" style="enable-background:new 0 0 100 100;" xml:space="preserve">
<g>
	<path d="M41,43.8c-8.1,0-16.1,0-24.1,0c0,1.1,0,2,0,2.9c8.1,0,16.1,0,24.1,0C41,45.7,41,44.8,41,43.8z"/>
	<path d="M16.8,57.5c8.1,0,16.1,0,24.2,0c0-1.1,0-2,0-3c-8.1,0-16.1,0-24.2,0C16.8,55.6,16.8,56.5,16.8,57.5z"/>
	<path d="M16.8,67.9c8.2,0,16.2,0,24.1,0c0-1.1,0-2.1,0-3c-8.1,0-16.1,0-24.1,0C16.8,66,16.8,66.9,16.8,67.9z"/>
	<path d="M35.4,25.2c-0.8-0.8-1.2-1.1-2.4-2.2c-3.2,3.3-6.6,6.3-9.6,9.3c-1.3-1.3-2.6-2.5-3.8-3.6c-0.9,0.7-1.6,1.3-2.4,1.9
		c2.2,2.2,4.2,4.2,6,6.1C27.3,32.9,31.3,29.2,35.4,25.2z"/>
	<path d="M9.9,46.8c1,0,1.8,0,2.8,0c0-1,0-1.9,0-3c-0.9,0-1.9,0-2.8,0C9.9,44.9,9.9,45.8,9.9,46.8z"/>
	<path d="M9.8,57.6c1.1-0.1,1.9-0.1,2.8-0.1c0-1.1,0-2,0-3.1c-1,0-1.9,0-2.8,0C9.8,55.5,9.8,56.4,9.8,57.6z"/>
	<path d="M9.8,67.9c0.9,0,1.7,0,2.7,0c0-1.2,0-2.1,0-3.1c-1,0-1.8,0-2.7,0C9.8,65.9,9.8,66.9,9.8,67.9z"/>
	<path d="M90.1,43.8c-8.1,0-16.1,0-24.1,0c0,1.1,0,2,0,3c8.1,0,16,0,24.1,0C90.1,45.8,90.1,44.9,90.1,43.8z"/>
	<path d="M66.1,57.5c8.1,0,16.1,0,24.1,0c0-1,0-1.9,0-3.1c-8.2,0-16.1,0-24.1,0C66.1,55.6,66.1,56.5,66.1,57.5z"/>
	<path d="M66.1,67.9c8.1,0,16,0,24,0c0-1.1,0-2,0-3c-8.1,0-16,0-24,0C66.1,66,66.1,67,66.1,67.9z"/>
	<path d="M58.9,46.8c1.2,0,2.2,0,3.1,0c0-1.1,0-2.1,0-3c-1.1,0-2.1,0-3.1,0C58.9,44.9,58.9,45.8,58.9,46.8z"/>
	<path d="M59,57.6c1,0,1.9,0,3,0c0-1.2,0-2.2,0-3.1c-1.1,0-2.1,0-3,0C59,55.6,59,56.5,59,57.6z"/>
	<path d="M59,68c1,0,1.9,0,3,0c0-1,0-2,0-3.1c-1,0-2,0-3,0C59,66,59,66.9,59,68z"/>
	<path d="M95.5,12.1c-11.4,0-22.9,0.1-34.3-0.1c-4.5-0.1-8.3,0.8-11.2,4.7c-3.1-4.5-7.5-4.8-12.3-4.7c-11.2,0.1-22.4,0-33.5,0
		c-1,0-2,0-3.2,0v69.8h38.5c3.9,0,7.2,2.6,8.3,6.1h4.3c1.1-3.5,4.4-6.1,8.3-6.1H99V12.1C97.7,12.1,96.6,12.1,95.5,12.1z M48.3,79.7
		c0,0.8,0,1.6,0,3.1c-4.1-4.1-8.7-4-13.4-4c-9.3,0.1-18.5,0-27.8,0c-0.9,0-1.8,0-2.9,0c0-21.4,0-42.3,0-63.5
		c0.9-0.1,1.7-0.2,2.5-0.2c11.1,0,22.2,0,33.3,0c5.5,0,8.3,2.8,8.3,8.3C48.3,42.2,48.3,61,48.3,79.7z M95.7,78.7
		c-1,0-1.9,0.1-2.9,0.1c-9.8,0-19.5,0.1-29.3,0c-4.1,0-8,0.3-11.6,3.5c-0.1-1.1-0.2-1.8-0.2-2.5c0-18.9,0-37.9,0-56.8
		c0-4.8,2.5-7.8,7.2-7.9c11.9-0.1,23.8,0,35.8,0c0.3,0,0.6,0.1,1.1,0.3C95.7,36.5,95.7,57.4,95.7,78.7z"/>
	<polygon points="71.5,36 75.2,32.3 78.9,36 80.9,33.9 77.2,30.2 80.9,26.5 78.9,24.5 75.2,28.2 71.5,24.5 69.5,26.5 73.2,30.2 
		69.5,33.9 	"/>
</g>
</svg>
