<?xml version="1.0" encoding="utf-8"?>
<!-- Generator: Adobe Illustrator 22.0.1, SVG Export Plug-In . SVG Version: 6.00 Build 0)  -->
<svg version="1.1"
	 id="Layer_1" xmlns:cc="http://creativecommons.org/ns#" xmlns:dc="http://purl.org/dc/elements/1.1/" xmlns:inkscape="http://www.inkscape.org/namespaces/inkscape" xmlns:rdf="http://www.w3.org/1999/02/22-rdf-syntax-ns#" xmlns:sodipodi="http://sodipodi.sourceforge.net/DTD/sodipodi-0.dtd" xmlns:svg="http://www.w3.org/2000/svg"
	 xmlns="http://www.w3.org/2000/svg" xmlns:xlink="http://www.w3.org/1999/xlink" x="0px" y="0px" viewBox="0 0 100 100"
	 style="enable-background:new 0 0 100 100;" xml:space="preserve">
<g transform="translate(0,-952.36218)">
	<path d="M4.3,953.4c-1.8,0-3.3,1.5-3.3,3.3v6.7c0,1.8,1.5,3.3,3.3,3.3h1.1v52.3c0,1.8,1.5,3.3,3.3,3.3H35l-8.3,26
		c-0.4,1.1,0.3,2.5,1.4,2.8c1.1,0.4,2.3-0.1,2.8-1.5l3.8-11.8h30.6l3.8,11.8c0.4,1.3,1.7,1.8,2.8,1.5c1.1-0.4,1.8-1.7,1.4-2.8
		l-8.3-26h26.2c1.8,0,3.3-1.5,3.3-3.3v-52.3h1.1c1.8,0,3.3-1.5,3.3-3.3v-6.7c0-1.8-1.5-3.3-3.3-3.3H4.3L4.3,953.4z M5.5,957.8h89.1
		v4.5H5.5V957.8z M9.9,966.7h80.2v51.2H9.9V966.7z M50,972.3c-1.5,0-2.8,1.2-2.8,2.8c0,1.5,1.2,2.8,2.8,2.8s2.8-1.2,2.8-2.8
		C52.8,973.5,51.5,972.3,50,972.3z M45.5,979c-1.2,0-2.2,1-2.2,2.2c0,1.2,1,2.2,2.2,2.2h2.2v24.5h-2.2c-1.2,0-2.2,1-2.2,2.2
		c0,1.2,1,2.2,2.2,2.2h8.9c1.2,0,2.2-1,2.2-2.2c0-1.2-1-2.2-2.2-2.2h-2.2v-26.7c0-1.2-1-2.2-2.2-2.2H45.5z M39.7,1022.4h20.5
		l3.6,11.1H36.1L39.7,1022.4L39.7,1022.4z"/>
</g>
</svg>
