<svg xmlns="http://www.w3.org/2000/svg" width="346.329" height="65" viewBox="0 0 346.329 65"><defs><style>.a{fill:#fff;}.b{fill:#00b624;}</style></defs><g transform="translate(-1098 -581)"><rect class="a" width="58.761" height="51.848" transform="translate(1101.457 584.457)"/><g transform="translate(1098 581)"><path class="b" d="M107.3,281.419h65.674V222.7H107.3Zm43.123-12.688h-15.3V241.163h7.672v22.678h7.377c5.1,0,7.25-3.541,7.25-12.646,0-9.147-2.445-11.8-7.588-11.8H132.971v29.339h-7.63V239.393H114.171V234.5h37.98c9.147,0,13.531,4.721,13.531,16.65.042,15.639-6.492,17.578-15.259,17.578" transform="translate(-107.3 -222.7)"/><path class="a" d="M300.7,250.8h15.639c4.3,0,8.557,1.391,8.557,6.112,0,3.414-1.813,5.227-5.143,6.112v.084c3.457.464,5.606,3.161,5.606,5.648,0,6.281-5.058,6.913-10.243,6.913H300.7Zm8.979,9.527h2.4c1.686,0,3.5-.506,3.5-2.4,0-1.855-1.56-2.4-3.288-2.4h-2.614Zm0,10.2h2.487c1.77,0,3.625-.632,3.625-2.571,0-2.15-1.77-2.529-3.583-2.529h-2.529Z" transform="translate(-219.176 -238.955)"/><path class="a" d="M365.65,265.854a23.648,23.648,0,0,1,7.756-1.054c5.143,0,11.381.927,11.381,7.714v11.3h-8.346v-2.656H376.4a6.788,6.788,0,0,1-6.07,3.119c-3.457,0-6.829-1.56-6.829-5.438,0-5.691,5.143-6.829,9.569-6.829,1.265,0,2.656.169,3.5.253-.042-2.4-2.487-2.7-4.763-2.7a14.484,14.484,0,0,0-6.2,1.56v-5.269Zm10.96,9.737h-.885c-1.855,0-4,.169-4,2.108,0,1.307.717,1.77,2.108,1.77,1.855,0,2.782-1.728,2.782-3.33Z" transform="translate(-255.504 -247.054)"/><path class="a" d="M421,265.122h8.473v3.2h.084c1.054-2.614,3.541-3.625,6.07-3.625,4.763,0,6.534,2.487,6.534,6.112v12.9h-8.979V273c0-1.054,0-2.529-1.56-2.529-1.6,0-1.6,1.475-1.6,2.529v10.707H421Z" transform="translate(-288.766 -246.996)"/><path class="a" d="M488.179,261.912h.084l5.143-7.377h10.159l-6.281,8.22,6.534,10.37h-10.5l-5.058-9.021h-.084v9.021H479.2V246.4h8.979Z" transform="translate(-322.433 -236.41)"/></g><g transform="translate(1181.463 633.354)"><g transform="translate(0 0.843)"><path class="a" d="M19.81,403.9h2.613l4.553,11.592H24.405l-1.012-2.656H18.714L17.7,415.492H15.3Zm1.307,2.361h0l-1.686,4.763H22.8Z" transform="translate(-15.3 -403.9)"/></g><g transform="translate(12.941 0.211)"><path class="a" d="M46,410.811h2.066v1.18h.042a3.029,3.029,0,0,1,2.529-1.391,2.553,2.553,0,0,1,2.529,1.518,2.972,2.972,0,0,1,2.656-1.518c2.108,0,2.7,1.433,2.7,3.33v5.4H56.285v-5.1c0-.8,0-1.939-1.265-1.939-1.475,0-1.644,1.77-1.644,2.866v4.131H51.143v-5.1c0-.8,0-1.939-1.265-1.939-1.475,0-1.644,1.77-1.644,2.866v4.131H46Z" transform="translate(-46 -407.143)"/><path class="a" d="M87.119,418.962a5.665,5.665,0,0,1-2.951.674c-2.824,0-4.468-1.6-4.468-4.426,0-2.487,1.307-4.51,3.962-4.51,3.161,0,4.047,2.15,4.047,5.143h-5.9a2.21,2.21,0,0,0,2.445,2.15,6.012,6.012,0,0,0,2.824-.843v1.813ZM85.6,414.325c-.084-1.1-.548-2.023-1.813-2.023s-1.855.843-1.981,2.023Z" transform="translate(-65.494 -407.201)"/><path class="a" d="M103,410.811h1.981v1.939h.042a2.6,2.6,0,0,1,2.318-2.15,3.627,3.627,0,0,1,.674.042v2.234a2.19,2.19,0,0,0-1.012-.169c-1.813,0-1.813,2.276-1.813,3.5v3.119H103Z" transform="translate(-78.973 -407.143)"/><path class="a" d="M118.3,402.4h2.234v2.108H118.3Zm0,3.709h2.234v8.515H118.3Z" transform="translate(-87.823 -402.4)"/><path class="a" d="M133.912,412.723a3.515,3.515,0,0,0-1.518-.337c-1.391,0-2.276,1.1-2.276,2.7,0,1.56.759,2.782,2.318,2.782a4.986,4.986,0,0,0,1.728-.379l.084,1.855a6.831,6.831,0,0,1-2.234.3c-2.782,0-4.215-1.9-4.215-4.51,0-2.487,1.475-4.426,4.131-4.426a6.3,6.3,0,0,1,2.15.3Z" transform="translate(-93.319 -407.201)"/><path class="a" d="M146.17,411.332a7.884,7.884,0,0,1,2.951-.632c2.613,0,3.667,1.054,3.667,3.583v1.1c0,.885,0,1.518.042,2.15,0,.632.042,1.265.084,1.9h-1.939a7.527,7.527,0,0,1-.084-1.265h-.042a3.11,3.11,0,0,1-2.656,1.475,2.735,2.735,0,0,1-2.993-2.529,2.554,2.554,0,0,1,1.475-2.445,6.652,6.652,0,0,1,2.866-.506h1.222c0-1.391-.632-1.855-1.939-1.855a4.71,4.71,0,0,0-2.656.927Zm2.613,6.66a1.879,1.879,0,0,0,1.56-.759,2.73,2.73,0,0,0,.464-1.77h-.97c-1.012,0-2.487.169-2.487,1.475,0,.759.632,1.054,1.433,1.054" transform="translate(-103.384 -407.201)"/><path class="a" d="M168.154,403.9h2.4l-1.518,4.173H167.1Z" transform="translate(-116.053 -403.268)"/><path class="a" d="M180.806,412.566a5.915,5.915,0,0,0-1.981-.379c-.59,0-1.307.211-1.307.927,0,1.349,3.878.506,3.878,3.583,0,1.981-1.77,2.782-3.583,2.782a10.193,10.193,0,0,1-2.529-.379l.126-1.813a5.106,5.106,0,0,0,2.192.548c.548,0,1.475-.211,1.475-1.054,0-1.686-3.878-.548-3.878-3.625,0-1.855,1.6-2.656,3.33-2.656a11.264,11.264,0,0,1,2.4.3Z" transform="translate(-120.738 -407.086)"/><path class="a" d="M205.3,403.9h3.709l2.782,8.768h0l2.782-8.768h3.709v11.592h-2.234v-9.569h-.042l-3.119,9.569H210.7l-3.119-9.569-.042.042v9.527H205.3Z" transform="translate(-138.15 -403.268)"/><path class="a" d="M245.168,410.7a4.281,4.281,0,0,1,4.468,4.51,4.468,4.468,0,1,1-4.468-4.51m0,7.208c1.686,0,2.15-1.518,2.15-2.951a2.178,2.178,0,1,0-4.3,0c0,1.391.464,2.951,2.15,2.951" transform="translate(-158.628 -407.201)"/><path class="a" d="M270.306,412.566a5.915,5.915,0,0,0-1.981-.379c-.59,0-1.307.211-1.307.927,0,1.349,3.878.506,3.878,3.583,0,1.981-1.77,2.782-3.583,2.782a10.5,10.5,0,0,1-2.529-.379l.126-1.813a5.106,5.106,0,0,0,2.192.548c.548,0,1.475-.211,1.475-1.054,0-1.686-3.878-.548-3.878-3.625,0-1.855,1.6-2.656,3.33-2.656a11.263,11.263,0,0,1,2.4.3Z" transform="translate(-172.511 -407.086)"/><path class="a" d="M282.944,409.447H281.3V407.8h1.644v-1.686l2.234-.717v2.4h1.981v1.644h-1.981v3.962c0,.717.211,1.391,1.054,1.391a2.258,2.258,0,0,0,1.012-.211l.084,1.77a6,6,0,0,1-1.644.211,2.526,2.526,0,0,1-2.7-2.782v-4.342Z" transform="translate(-182.114 -404.135)"/><path class="a" d="M317.721,415.092a11.218,11.218,0,0,1-2.656.379c-3.752,0-6.365-1.855-6.365-5.775,0-3.962,2.4-6.2,6.365-6.2a8.554,8.554,0,0,1,2.614.464l-.169,1.939a4.747,4.747,0,0,0-2.487-.632,3.844,3.844,0,0,0-3.878,4.173,3.8,3.8,0,0,0,3.92,4.131,6.945,6.945,0,0,0,2.529-.464Z" transform="translate(-197.964 -403.036)"/><path class="a" d="M336.868,410.7a4.281,4.281,0,0,1,4.468,4.51,4.468,4.468,0,1,1-4.468-4.51m0,7.208c1.686,0,2.15-1.518,2.15-2.951,0-1.307-.674-2.529-2.15-2.529a2.28,2.28,0,0,0-2.15,2.529c0,1.391.464,2.951,2.15,2.951" transform="translate(-211.674 -407.201)"/><path class="a" d="M357.7,410.869h2.108v1.18h.042a3.167,3.167,0,0,1,2.782-1.349c2.023,0,2.909,1.433,2.909,3.33v5.4h-2.234v-4.552c0-1.054,0-2.445-1.433-2.445-1.6,0-1.939,1.728-1.939,2.824v4.173H357.7Z" transform="translate(-226.309 -407.201)"/><path class="a" d="M379.5,411.1h2.4l2.108,6.239h.042l2.065-6.239h2.234l-3.161,8.557h-2.529Z" transform="translate(-238.92 -407.433)"/><path class="a" d="M409.777,418.962a5.607,5.607,0,0,1-2.909.674c-2.824,0-4.468-1.6-4.468-4.426,0-2.487,1.307-4.51,3.962-4.51,3.161,0,4.047,2.15,4.047,5.143h-5.9a2.21,2.21,0,0,0,2.445,2.15,6.012,6.012,0,0,0,2.824-.843Zm-1.518-4.637c-.084-1.1-.548-2.023-1.813-2.023-1.222,0-1.855.843-1.981,2.023Z" transform="translate(-252.167 -407.201)"/><path class="a" d="M425.5,410.869h2.108v1.18h.042a3.215,3.215,0,0,1,2.782-1.349c2.023,0,2.909,1.433,2.909,3.33v5.4h-2.234v-4.552c0-1.054,0-2.445-1.433-2.445-1.6,0-1.939,1.728-1.939,2.824v4.173H425.5v-8.557Z" transform="translate(-265.529 -407.201)"/><path class="a" d="M449.6,402.4h2.234v2.108H449.6Zm0,3.709h2.234v8.515H449.6Z" transform="translate(-279.47 -402.4)"/><path class="a" d="M466.577,418.962a5.607,5.607,0,0,1-2.909.674c-2.824,0-4.468-1.6-4.468-4.426,0-2.487,1.307-4.51,3.962-4.51,3.161,0,4.047,2.15,4.047,5.143h-5.9a2.21,2.21,0,0,0,2.445,2.15,6.012,6.012,0,0,0,2.824-.843Zm-1.518-4.637c-.042-1.1-.548-2.023-1.813-2.023-1.222,0-1.855.843-1.981,2.023Z" transform="translate(-285.024 -407.201)"/><path class="a" d="M482.3,410.869h2.108v1.18h.042a3.167,3.167,0,0,1,2.782-1.349c2.023,0,2.909,1.433,2.909,3.33v5.4h-2.234v-4.552c0-1.054,0-2.445-1.433-2.445-1.6,0-1.939,1.728-1.939,2.824v4.173H482.3Z" transform="translate(-298.386 -407.201)"/><path class="a" d="M505.844,409.447H504.2V407.8h1.644v-1.686l2.234-.717v2.4h1.981v1.644h-1.981v3.962c0,.717.211,1.391,1.054,1.391a2.258,2.258,0,0,0,1.012-.211l.084,1.77a6,6,0,0,1-1.644.211,2.526,2.526,0,0,1-2.7-2.782v-4.342Z" transform="translate(-311.055 -404.135)"/><path class="a" d="M533,403.9h4.047c1.475,0,3.709.422,3.709,2.993a2.562,2.562,0,0,1-2.318,2.571v.042a2.719,2.719,0,0,1,2.656,2.614c0,2.909-2.613,3.33-4.089,3.33h-4Zm2.361,4.679h.927c.97,0,2.192-.211,2.192-1.391,0-1.349-1.18-1.433-2.234-1.433h-.885Zm0,5.1h1.1c1.1,0,2.4-.253,2.4-1.6,0-1.518-1.222-1.728-2.4-1.728h-1.1Z" transform="translate(-327.715 -403.268)"/><path class="a" d="M556.285,411.332a7.884,7.884,0,0,1,2.951-.632c2.613,0,3.667,1.054,3.667,3.583v1.1c0,.885,0,1.518.042,2.15,0,.632.042,1.265.084,1.9h-1.9a7.528,7.528,0,0,1-.084-1.265h-.042a3.04,3.04,0,0,1-2.613,1.475,2.735,2.735,0,0,1-2.993-2.529,2.492,2.492,0,0,1,1.475-2.445,6.652,6.652,0,0,1,2.866-.506h1.222c0-1.391-.632-1.855-1.939-1.855a4.71,4.71,0,0,0-2.656.927Zm2.614,6.66a1.879,1.879,0,0,0,1.56-.759,2.73,2.73,0,0,0,.464-1.77h-.969c-1.012,0-2.487.169-2.487,1.475,0,.759.632,1.054,1.433,1.054" transform="translate(-340.672 -407.201)"/><path class="a" d="M578.5,410.869h2.108v1.18h.042a3.215,3.215,0,0,1,2.782-1.349c2.023,0,2.909,1.433,2.909,3.33v5.4h-2.234v-4.552c0-1.054,0-2.445-1.433-2.445-1.6,0-1.939,1.728-1.939,2.824v4.173H578.5Z" transform="translate(-354.035 -407.201)"/></g><g transform="translate(247.565 0)"><path class="a" d="M602.6,401.9h2.234v7.293h0l2.7-3.414H610.1l-3.161,3.836,3.583,4.721H607.7l-2.866-4.131h0v4.131H602.6Z" transform="translate(-602.6 -401.9)"/><path class="a" d="M625.957,401.9a3.457,3.457,0,1,1-3.457,3.457,3.472,3.472,0,0,1,3.457-3.457m0,6.154a2.707,2.707,0,1,0-2.487-2.7,2.52,2.52,0,0,0,2.487,2.7m-1.391-4.637H626c.97,0,1.56.3,1.56,1.138,0,.717-.422.97-1.012,1.012l1.012,1.686h-.843l-.927-1.644h-.379v1.644h-.843Zm1.517,1.6c.379,0,.674-.084.674-.506,0-.379-.422-.422-.759-.422h-.59v.97h.674Z" transform="translate(-614.112 -401.9)"/></g></g></g></svg>