<?xml version="1.0" encoding="utf-8"?>
<!-- Generator: Adobe Illustrator 22.0.1, SVG Export Plug-In . SVG Version: 6.00 Build 0)  -->
<svg version="1.1"
	 id="Layer_1" xmlns:cc="http://creativecommons.org/ns#" xmlns:dc="http://purl.org/dc/elements/1.1/" xmlns:rdf="http://www.w3.org/1999/02/22-rdf-syntax-ns#" xmlns:svg="http://www.w3.org/2000/svg"
	 xmlns="http://www.w3.org/2000/svg" xmlns:xlink="http://www.w3.org/1999/xlink" x="0px" y="0px" viewBox="0 0 100 100"
	 style="enable-background:new 0 0 100 100;" xml:space="preserve">
<g>
	<path d="M45.4,19.2v-7.8c0-0.3-0.2-0.5-0.5-0.5H20.7V3c0-0.2-0.1-0.4-0.3-0.5s-0.4,0-0.6,0.1L2.7,19.8c-0.2,0.2-0.2,0.5,0,0.7
		l17.1,17.2c0.1,0.1,0.2,0.2,0.4,0.2c0.1,0,0.1,0,0.2,0c0.2-0.1,0.3-0.3,0.3-0.5v-8h6.1C31.5,24.1,38,20.4,45.4,19.2z"/>
	<path d="M97.3,79.4L80.2,62.3c-0.2-0.2-0.4-0.2-0.6-0.1c-0.2,0.1-0.3,0.3-0.3,0.5v8h-6.1c-4.7,5.3-11.3,9-18.7,10.2v7.8
		c0,0.3,0.2,0.5,0.5,0.5h24.2v8c0,0.2,0.1,0.4,0.3,0.5c0.1,0,0.1,0,0.2,0c0.1,0,0.3-0.1,0.4-0.2l17.2-17.2
		C97.6,80,97.6,79.6,97.3,79.4z"/>
	<path d="M78.1,50c0-15.5-12.6-28.1-28.1-28.1S21.9,34.5,21.9,50S34.5,78.1,50,78.1S78.1,65.5,78.1,50z M50,75.2
		c-13.9,0-25.2-11.3-25.2-25.2S36.1,24.8,50,24.8S75.2,36.1,75.2,50S63.9,75.2,50,75.2z"/>
	<path d="M66,36.3c-0.5,0-1.1,0-1.6,0c-2-0.2-2.5,0.7-2.5,3.1c0.2,5.8,0,11.4,0,17.2c0,6,0,5.8,4.7,5.8c1.8,0,2.2-0.9,2.2-2.9
		c0-3.4,0-6.9,0-10.3c0-3.1-0.2-6.5,0-9.6C68.9,36.9,68.2,36,66,36.3z"/>
	<path d="M43.5,40.7c-1.6,0-2.2,0.9-2.2,2.7c0,2.7,0,5.4,0,8c0,2.5,0.2,4.9,0,7.6c-0.2,2.5,0.5,3.8,2.7,3.6c0.5,0,0.9,0,1.5,0
		c2.4,0.4,2.9-1.1,2.9-3.6c-0.2-4.5,0-8.5,0-12.5C48.4,40.5,48.4,40.5,43.5,40.7z"/>
	<path d="M55.9,45c-0.7,0-1.5,0-2.2,0c-1.5,0-2.2,0.9-2.2,2.7c0,3.4,0,6.9,0,10.3c0,4.5,0,4.5,3.6,4.5c3.4,0,3.4,0,3.4-4.2
		c0-1.3,0-2.9,0-4.2c0-2,0-3.8,0-5.8C58.8,45.6,57.8,44.8,55.9,45z"/>
	<path d="M33,49.4h-0.2c-0.5,0.7-1.6,1.3-1.6,2c-0.2,2.9-0.2,6,0,8.9c0,0.7,0.7,1.8,1.3,2c4.7,1.1,5.6,0.2,5.6-5.6
		c0-0.2,0-0.7,0-0.9C38.1,49,38.1,49,33,49.4z"/>
</g>
</svg>
