<svg xmlns="http://www.w3.org/2000/svg" xmlns:xlink="http://www.w3.org/1999/xlink" width="52" height="52" viewBox="0 0 52 52">
  <defs>
    <clipPath id="clip-path">
      <rect id="Rectangle_4" data-name="Rectangle 4" width="52" height="52"/>
    </clipPath>
  </defs>
  <g id="web13" clip-path="url(#clip-path)">
    <rect id="Rectangle_3" data-name="Rectangle 3" width="50" height="50" rx="8" transform="translate(1 1)" fill="#fff"/>
    <g id="web13-2" data-name="web13" clip-path="url(#clip-path)">
      <rect id="Rectangle_7" data-name="Rectangle 7" width="50" height="50" rx="6" transform="translate(1 1)" fill="#ee1c39"/>
      <g id="_001-earth" data-name="001-earth" transform="translate(-2 -2)">
        <path id="Path_11" data-name="Path 11" d="M40.615,16.085A17.336,17.336,0,1,0,45.7,28.35a17.336,17.336,0,0,0-5.085-12.265Zm3.512,11.486H37.4a30.125,30.125,0,0,0-1.1-7.542,17.206,17.206,0,0,0,3.576-2.464,15.757,15.757,0,0,1,4.252,10.006Zm-15,1.558h6.72a28.478,28.478,0,0,1-.984,6.933,17.515,17.515,0,0,0-5.736-1.246ZM38.76,16.481a15.777,15.777,0,0,1-2.946,2.047A18.089,18.089,0,0,0,34.9,16.4a12.482,12.482,0,0,0-2.28-3.258,15.728,15.728,0,0,1,6.14,3.339ZM29.129,12.8c1.622.361,3.151,1.855,4.384,4.291a17.7,17.7,0,0,1,.892,2.1,15.892,15.892,0,0,1-5.276,1.183Zm5.743,7.889a28.482,28.482,0,0,1,.97,6.89H29.129V21.941a17.524,17.524,0,0,0,5.743-1.253Zm-7.3,6.883h-6.72a28.482,28.482,0,0,1,.97-6.89,17.2,17.2,0,0,0,5.743,1.246v5.644ZM27.578,12.8v7.577A15.853,15.853,0,0,1,22.3,19.193a17.7,17.7,0,0,1,.892-2.1c1.232-2.436,2.762-3.93,4.384-4.291Zm-3.491.347a12.6,12.6,0,0,0-2.28,3.258,20.832,20.832,0,0,0-.914,2.124,16.013,16.013,0,0,1-2.946-2.047,15.728,15.728,0,0,1,6.14-3.335Zm-7.259,4.419A17.482,17.482,0,0,0,20.4,20.029a29.851,29.851,0,0,0-1.1,7.542H12.579a15.757,15.757,0,0,1,4.249-10.006ZM12.579,29.129h6.728a30.086,30.086,0,0,0,1.112,7.584,17.05,17.05,0,0,0-3.562,2.45,15.732,15.732,0,0,1-4.278-10.034Zm5.4,11.118a15.837,15.837,0,0,1,2.932-2.032,19.191,19.191,0,0,0,.9,2.082,12.649,12.649,0,0,0,2.28,3.265,15.807,15.807,0,0,1-6.111-3.314Zm9.6,3.654c-1.622-.361-3.151-1.855-4.384-4.291a18.2,18.2,0,0,1-.878-2.061,15.631,15.631,0,0,1,5.262-1.176Zm-5.736-7.839a28.478,28.478,0,0,1-.984-6.933h6.72v5.687a17.161,17.161,0,0,0-5.737,1.246ZM29.136,43.9V36.373A15.8,15.8,0,0,1,34.4,37.549a18.2,18.2,0,0,1-.878,2.061c-1.232,2.436-2.762,3.93-4.384,4.291Zm3.491-.347a12.528,12.528,0,0,0,2.28-3.265,19.19,19.19,0,0,0,.9-2.082,15.836,15.836,0,0,1,2.932,2.032,15.623,15.623,0,0,1-6.111,3.314Zm7.237-4.391a17.323,17.323,0,0,0-3.562-2.45,30.135,30.135,0,0,0,1.112-7.584h6.728a15.806,15.806,0,0,1-4.277,10.035Z" fill="#eaeaf5"/>
      </g>
    </g>
  </g>
</svg>
