<?xml version="1.0" encoding="utf-8"?>
<!-- Generator: Adobe Illustrator 22.0.1, SVG Export Plug-In . SVG Version: 6.00 Build 0)  -->
<svg version="1.1" id="Layer_1" xmlns="http://www.w3.org/2000/svg" xmlns:xlink="http://www.w3.org/1999/xlink" x="0px" y="0px"
	 viewBox="0 0 40 40" style="enable-background:new 0 0 40 40;" xml:space="preserve">
<path id="Union_191" d="M0.9,40C0.4,40,0,39.7,0,39.2c0,0,0-0.1,0-0.1v-3.6c0-0.5,0.3-0.9,0.8-0.9c0,0,0.1,0,0.1,0h1.8v-2.7
	c0-0.5,0.3-0.9,0.8-0.9c0,0,0.1,0,0.1,0h0.9V28h1.8v2.9h1.8V28H10v2.9h7.3V14.5H10v2.3H8.2v-2.3H6.4v2.3H4.5v-2.3H3.6
	c-0.5,0-0.9-0.3-0.9-0.8c0,0,0-0.1,0-0.1v-2.7H0.9c-0.5,0-0.9-0.3-0.9-0.8c0,0,0-0.1,0-0.1V6.4C0,6,0.3,5.6,0.6,5.5L19.7,0h0.5
	l19.1,5.5C39.7,5.6,40,6,40,6.4V10c0,0.5-0.3,0.9-0.8,0.9c0,0-0.1,0-0.1,0h-1.8v2.7c0,0.5-0.3,0.9-0.8,0.9c0,0-0.1,0-0.1,0h-0.9v2.3
	h-1.8v-2.3h-1.8v2.3H30v-2.3h-7.3v16.4H30V28h1.8v2.9h1.8V28h1.8v2.9h0.9c0.5,0,0.9,0.3,0.9,0.8c0,0,0,0.1,0,0.1v2.7h1.8
	c0.5,0,0.9,0.3,0.9,0.8c0,0,0,0.1,0,0.1v3.6c0,0.5-0.3,0.9-0.8,0.9c0,0-0.1,0-0.1,0H0.9z M1.8,38.2h36.4v-1.8H1.8V38.2z M4.5,34.5
	h30.9v-1.8H4.5V34.5z M19.1,30.9h1.8V14.5h-1.8V30.9z M4.5,12.7h30.9v-1.8H4.5V12.7z M1.8,7.1v2h36.4V7L20,1.8L1.8,7.1z M23.5,22.2
	l5.4-4.7v3.1h9.3v3.2h-9.3v3.1L23.5,22.2z M10.9,26.9v-3.1H1.6v-3.2h9.3v-3.1l5.4,4.7L10.9,26.9L10.9,26.9z M25.5,6.4
	c0-0.5,0.4-0.9,0.9-0.9c0.5,0,0.9,0.4,0.9,0.9c0,0.5-0.4,0.9-0.9,0.9l0,0C25.9,7.3,25.5,6.9,25.5,6.4L25.5,6.4L25.5,6.4z M18.2,5.5
	c0-1,0.8-1.8,1.8-1.8c1,0,1.8,0.8,1.8,1.8c0,1-0.8,1.8-1.8,1.8C19,7.3,18.2,6.5,18.2,5.5L18.2,5.5z M12.7,6.4c0-0.5,0.4-0.9,0.9-0.9
	c0.5,0,0.9,0.4,0.9,0.9c0,0.5-0.4,0.9-0.9,0.9S12.7,6.9,12.7,6.4L12.7,6.4z"/>
</svg>
