<svg xmlns="http://www.w3.org/2000/svg" xmlns:xlink="http://www.w3.org/1999/xlink" width="500" height="500" viewBox="0 0 500 500">
  <defs>
    <clipPath id="clip-path">
      <rect id="Rectangle_2" data-name="Rectangle 2" width="500" height="500"/>
    </clipPath>
  </defs>
  <g id="_002-email" data-name="002-email" clip-path="url(#clip-path)">
    <g id="_002-email-2" data-name="002-email" clip-path="url(#clip-path)">
      <g id="_002-email-3" data-name="002-email" transform="translate(81 71.128)">
        <path id="Path_41" data-name="Path 41" d="M168.512,327.351h-.078a16.316,16.316,0,0,1-13.172-6.689l-31.116-42.186a3.306,3.306,0,0,0-2.65-1.337H36.216A36.257,36.257,0,0,1,0,240.923V67.088A36.257,36.257,0,0,1,36.216,30.872h264.7a36.257,36.257,0,0,1,36.216,36.216V240.923a36.257,36.257,0,0,1-36.216,36.216h-84.8a3.31,3.31,0,0,0-2.632,1.314l-31.82,42.329a16.316,16.316,0,0,1-13.156,6.57Z" fill="#272727"/>
        <path id="Path_42" data-name="Path 42" d="M388.352,30.872H256V327.349a16.315,16.315,0,0,0,13.1-6.568l31.82-42.329a3.31,3.31,0,0,1,2.632-1.314h84.8a36.257,36.257,0,0,0,36.216-36.216V67.088a36.256,36.256,0,0,0-36.216-36.216Z" transform="translate(-87.432)" fill="#272727"/>
        <path id="Path_43" data-name="Path 43" d="M139.159,221.52,14.684,330.635a36.119,36.119,0,0,0,26.547,11.617h85.28a3.306,3.306,0,0,1,2.65,1.337l31.115,42.185a16.317,16.317,0,0,0,13.173,6.69h.078a16.316,16.316,0,0,0,13.156-6.57l31.82-42.329a3.31,3.31,0,0,1,2.632-1.314h84.8a36.118,36.118,0,0,0,26.547-11.616L208.006,221.52Z" transform="translate(-5.015 -65.113)" fill="#3d3d3d"/>
        <path id="Path_44" data-name="Path 44" d="M290.423,221.52H256V392.462a16.315,16.315,0,0,0,13.1-6.568l31.82-42.329a3.31,3.31,0,0,1,2.632-1.314h84.8A36.118,36.118,0,0,0,414.9,330.635Z" transform="translate(-87.432 -65.113)" fill="#3d3d3d"/>
        <path id="Path_45" data-name="Path 45" d="M189.439,169.361l145.3-120.585a36.227,36.227,0,0,0-31.227-17.9H38.814A36.229,36.229,0,0,0,7.607,48.742L152.952,169.361a28.567,28.567,0,0,0,36.487,0Z" transform="translate(-2.598)"/>
        <path id="Path_46" data-name="Path 46" d="M388.352,30.872H256V175.944a28.515,28.515,0,0,0,18.274-6.583l145.3-120.585a36.227,36.227,0,0,0-31.226-17.9Z" transform="translate(-87.432)"/>
      </g>
    </g>
  </g>
</svg>
