<svg xmlns="http://www.w3.org/2000/svg" xmlns:xlink="http://www.w3.org/1999/xlink" width="500" height="500" viewBox="0 0 500 500">
  <defs>
    <clipPath id="clip-path">
      <rect id="Rectangle_5" data-name="Rectangle 5" width="500" height="500"/>
    </clipPath>
  </defs>
  <g id="_005-cheque" data-name="005-cheque" clip-path="url(#clip-path)">
    <g id="_005-cheque-2" data-name="005-cheque" clip-path="url(#clip-path)">
      <g id="_005-cheque-3" data-name="005-cheque" transform="translate(33 28.8)">
        <rect id="Rectangle_29" data-name="Rectangle 29" width="368.651" height="214.005" transform="translate(66.349 176.448)" fill="#fff"/>
        <rect id="Rectangle_30" data-name="Rectangle 30" width="368.651" height="121.049" transform="translate(66.349 239.167)" fill="#272727"/>
        <g id="Group_42" data-name="Group 42" transform="translate(136.115 195.343)">
          <rect id="Rectangle_31" data-name="Rectangle 31" width="166.541" height="6.701" transform="translate(31.282 175.521)" fill="#64798a"/>
          <rect id="Rectangle_32" data-name="Rectangle 32" width="128.049" height="6.701" transform="translate(0 20.086)" fill="#64798a"/>
          <rect id="Rectangle_33" data-name="Rectangle 33" width="90.074" height="6.701" fill="#64798a"/>
        </g>
        <path id="Path_67" data-name="Path 67" d="M127.217,203.613H101.856L89.175,225.576l12.681,21.964h25.361L139.9,225.576Z" transform="translate(-10.257 -19.37)" fill="#e56353"/>
        <g id="Group_43" data-name="Group 43" transform="translate(308.387 198.474)">
          <rect id="Rectangle_34" data-name="Rectangle 34" width="15.365" height="23.652" fill="#d5d6db"/>
          <rect id="Rectangle_35" data-name="Rectangle 35" width="15.365" height="23.652" transform="translate(17.391)" fill="#d5d6db"/>
          <rect id="Rectangle_36" data-name="Rectangle 36" width="15.365" height="23.652" transform="translate(34.799)" fill="#d5d6db"/>
          <rect id="Rectangle_37" data-name="Rectangle 37" width="15.365" height="23.652" transform="translate(52.153)" fill="#d5d6db"/>
          <rect id="Rectangle_38" data-name="Rectangle 38" width="15.365" height="23.652" transform="translate(69.553)" fill="#d5d6db"/>
          <rect id="Rectangle_39" data-name="Rectangle 39" width="15.365" height="23.652" transform="translate(86.952)" fill="#d5d6db"/>
        </g>
        <g id="Group_44" data-name="Group 44" transform="translate(84.777 265.657)">
          <rect id="Rectangle_40" data-name="Rectangle 40" width="207.258" height="6.701" fill="#ebf0f3"/>
          <rect id="Rectangle_41" data-name="Rectangle 41" width="207.258" height="6.701" transform="translate(0 30.866)" fill="#ebf0f3"/>
          <rect id="Rectangle_42" data-name="Rectangle 42" width="96.757" height="6.701" transform="translate(235.029 61.36)" fill="#ebf0f3"/>
          <rect id="Rectangle_43" data-name="Rectangle 43" width="96.757" height="31.541" transform="translate(235.029)" fill="#ebf0f3"/>
        </g>
        <rect id="Rectangle_44" data-name="Rectangle 44" width="368.651" height="17.44" transform="translate(66.349 390.407)" fill="#e1e6e9"/>
        <rect id="Rectangle_45" data-name="Rectangle 45" width="66.349" height="17.44" transform="translate(0 390.457)" fill="#d5d6db"/>
        <path id="Rectangle_46" data-name="Rectangle 46" d="M0,0H66.349V214.005H0Z" transform="translate(0 176.403)" fill="#1d1d1d"/>
        <path id="Path_68" data-name="Path 68" d="M74.97,176.434C180.634,172.153,253.925,44.461,359.473,35.2q0,107,0,213.991c-105.547,9.26-178.839,136.953-284.5,141.234Q74.963,283.43,74.97,176.434Z" transform="translate(-8.622)" fill="#272727"/>
      </g>
    </g>
  </g>
</svg>
