<svg xmlns="http://www.w3.org/2000/svg" xmlns:xlink="http://www.w3.org/1999/xlink" width="178" height="223" viewBox="0 0 178 223">
  <defs>
    <clipPath id="clip-american">
      <rect width="178" height="223"/>
    </clipPath>
  </defs>
  <g id="american" clip-path="url(#clip-american)">
    <g id="americanBlue" transform="translate(-4.371 -6.71)">
      <path id="Path_1" data-name="Path 1" d="M106,153.08c0,.03.01.05.01.08l.02.01c-.01-.02-.01-.05-.02-.07S106,153.09,106,153.08Z" fill="#070B53"/>
      <path id="Path_2" data-name="Path 2" d="M169.76,64.05c-3.05-7.53-8.78-13.96-13.49-20.82,5.57,11.28,12.29,22.18,16.16,34.02,12.23,37.34,8.49,73.49-11.35,107.69a46.353,46.353,0,0,1-4.09,5.23q5.775-12.72,11.54-25.44c-13.87,6.56-15,6.66-26.84,1.37,6.09.3,10.19.5,15.61.76-2.71-2.31-4.46-3.81-6.22-5.3.18-.63.36-1.26.54-1.88q8.4,2.52,16.81,5.03c10.4-25.63,10.54-51.88,4.68-78.47-.08-.37-.71-.61-1.08-.92,1.06,9.85,2.95,19.69,2.97,29.54.02,10.39-1.45,20.81-2.78,31.16-1.57,12.22-7.84,14.9-17.02,8.19-8,1.5-11.7,16.06-22.34,7.11-10.85-9.13.36-15.34,4.43-21.96-4.02.19-7.55.31-11.08.52a48.4,48.4,0,0,1-30.66-8.35c-.7-.47-.49-2.28-.7-3.47-1.15.69-2.31,1.38-3.46,2.07-.99-2.3-2.62-4.56-2.78-6.91-.13-1.95,1.43-4.01,2.26-6.02l.43-.31.66.13c-.36-.44-.71-.88-1.07-1.32a.01.01,0,0,0,.01-.01c.91-8.89,1.28-17.88,2.95-26.63.93-4.87,5.03-6.33,10.25-4.59,2.04.68,4.74-.76,7.17-1.06,2.58-.32,5.18-.43,7.77-.64l.21,1.89q-6.18,3.03-12.36,6.05l.09,1.65c6.23-.67,14.6.91,18.23-2.51,6.21-5.86,7.3-2.01,9.07,1.59,2.74-5.24,5.51-10.53,7.92-15.15-17.45-5.74-34.41.04-50.87,7.08-7.85-11.64-7.9-11.96-2.14-17.31-2.31.18-3.79.29-5.18.4,1.03-4.48-11.69-7.13-2.23-13.3,5.65,4.23,11.31.55,17.03.31,3.33-.14,6.77,2,9.96,4.5l-5.99.99c.11.67.22,1.34.32,2.01,8.61-1.76,17.21-3.52,28.06-5.74-6.68-3.4-12.36-6.06-17.8-9.15-4.19-2.39-9.38-4.54-11.64-8.29-1.59-2.63.42-8.01,1.9-11.74,1.59-3.99,4.45-7.48,6.75-11.18-2-.93-4.01-1.87-6.01-2.8,13.85.63,25.4,6.49,35.59,15.15,5.29,4.49,10.16,9.48,15.2,14.26a23.8,23.8,0,0,0-2.78-4.85c-12.77-14.71-28.27-25-48.38-28.6l-6.04,5.64c-.1-.68-.2-1.37-.31-2.05-7.17.92-14.35,1.77-21.47,2.95-.36.06-.23,3.04-.35,4.64-1.17-.12-2.38-.26-3.58-.4q-8.085,5.58-16.17,11.15h0q8.085-5.58,16.18-11.17c-1.06-1.59-2.13-3.16-3.95-5.85C78.36,11.27,87.79,9.7,97.22,8.13c-.06-.47-.12-.95-.18-1.42Q82.91,8.39,68.85,10.08L54.59,23.86c-1.92.73-3.31,2.83-4.95,4.29l-9.87,9.33-.23-.18c.05.08.1.17.15.25l.06-.06q4.38,3.93,8.75,7.86c-.24.36-.49.71-.73,1.07-1.19-.5-2.38-.99-3.56-1.49-1.5-2.46-3.01-4.93-4.51-7.39-1.01.95-2.03,1.9-3.04,2.85l5.35,4.6h0c-1.09-.09-2.17-.18-3.26-.26h0c-.71-.43-1.41-.87-2.12-1.3a4.233,4.233,0,0,1-.16,1.46c-.22.12-.5.19-.63.37a.654.654,0,0,0-.03.62c2.18,2.31,4.38,4.59,7.32,7.65-4.15.35-6.82.57-9.49.8-1.01-.14-2.02-.29-3.03-.43-.67-.9-1.36-1.84-2.5-3.38-.26,1.75-.39,2.65-.53,3.55,1.05,0,2.1-.01,3.14-.01-.02-.03-.05-.07-.07-.1,1,.5,1.99,1,2.99,1.5l.01.01c.98.58,1.96,1.15,2.94,1.73.56,1.09,1.12,2.19,1.68,3.28-2.08-.79-4.15-1.57-6.23-2.36l1.83,2.64c1.41.28,2.82.56,4.23.85h0c-.44.95-.87,1.89-1.31,2.84-.91.06-1.82.11-2.73.17-4.44.74-9.83-3.8-13.28,2.3-1.93,3.4-3.66,6.91-5.48,10.37,6.14-1.62,11.38-3.01,16.62-4.39-19.16,8.15-21.1,10.29-20.11,23.82q9.54-5.865,19.14-11.74c.42.49.84.99,1.26,1.48q-4.68,5.5-9.36,11.02c-3.98.87-9.02.59-11.6,2.98-2.1,1.95-4.75,7.58,1.22,10.37l12.3-13.17c2.14,1.26,7.66-4.85,6.73,3.09l.6,1.47c.47,1,.94,2,1.42,2.99.12,1.48.25,2.95.37,4.43-1.33,1.04-2.65,2.08-3.98,3.11a3.006,3.006,0,0,0-.07-.32c-.03.14-.07.29-.1.43-.7-.08-1.4-.16-2.1-.23.02-.98.03-1.95.05-2.93.44-.04.88-.09,1.32-.13v-2.8a4.287,4.287,0,0,1-1.13.1c-.11.95-.23,1.9-.34,2.85a.2.2,0,0,0,.07-.01l-1.59,3.06c.52-.03,1.05-.07,1.57-.1-.97,1.37-1.93,2.74-2.9,4.11l.03-2.76-1.55.06c-.01-1.02-.02-2.05-.03-3.07-.43,1.03-.86,2.05-1.28,3.08.4.04.79.09,1.19.13-.01,1.01-.03,2.02-.04,3.03h.08l-1.5,2.85c-.96.52-1.93,1.05-2.89,1.57q-3.87,7.35-7.73,14.7c.1,1.34.19,2.67.37,5.21,1.75-2.87,2.85-4.68,3.94-6.49.64-1.01,1.28-2.03,1.92-3.04-.07,1.05-.15,2.11-.22,3.16-.43,3.01-.85,6.02-1.28,9.03.48.01.96.01,1.45.02l1.57-.06h0c0,.81-.01,1.63-.01,2.44.42-.81.84-1.63,1.26-2.44q7.59-15.21,15.18-30.41c1,.63,2,1.27,3,1.9q-.75,6.78-1.51,13.57c1.51-.94,3.02-1.89,4.53-2.83,1.55-.45,3.81-.43,4.47-1.45,1.11-1.71,1.19-4.09,1.95-7.2,6.37,10.17,6.02,20.41,5.93,30.69-.05,5.46-1.9,11.59,4.14,15.5l13.68,4.68c.46-2.8,1.13-5.58,1.31-8.39a28.758,28.758,0,0,0-.91-10.24c-.6-2.29-2.4-5.22-1.58-6.75,4.06-7.58.02-14.38-1.18-21.46-.24-1.44-.18-2.93-.32-5.5,7.6,4.78,16.14,6.35,19.76,15.88,1.6,4.21,7.07,6.82,10.33,10.56,2.74,3.15,4.85,6.85,7.23,10.32-.02.03-.03.05-.05.08l-.07-.03.06.06-.51.9c.21-.26.41-.53.62-.79h0v-.01l.02-.02c.69,2.77,2.63,6.26,1.59,8.02-3.46,5.87.58,4.55,3.85,4.58-1.9,3.01-3.75,5.94-6.31,9.98-8.85,0-19.08-.08-29.3.04-4.6.05-5.55-2.25-4.58-6.15-2.77,3.05-5.3,6.37-8.38,9.08a53.09,53.09,0,0,1-9.19,6.13c-3.6,2.02-8.15,2.89-10.96,5.63-3.95,3.86-6.94,4.04-10.63.38,4.29,5.02,8.06,10.62,12.95,14.97,16.6,14.73,35.75,22.51,58.25,18.02,8.64-1.72,16.97-5.01,25.44-7.58-1.51,1.15-2.87,2.6-4.54,3.42-20.43,9.99-41.05,9.98-61.68.71-15.17-6.81-25.91-18.81-36.12-31.38a20.015,20.015,0,0,0-1.15-2.68C5.38,153.45,1.7,118.21,11.46,81.55c5.58-20.93,16.57-39.13,31.95-54.67a96.559,96.559,0,0,0-15.9,16.84C5.33,75.04.21,109.88,7.43,146.92c3.02,15.49,8.51,30.09,18.36,42.73,1.44,2.29,2.71,4.69,4.33,6.84,32.62,43.37,92.39,43.88,124.84.51C185.79,155.81,188.73,110.86,169.76,64.05ZM24.39,117.23c-.4.82-.81,1.63-1.21,2.45,0-.81,0-1.62.01-2.43C23.59,117.24,23.99,117.24,24.39,117.23Zm-2.71,3.04c.41-.01.81-.02,1.22-.02-.47,1.03-.95,2.05-1.42,3.08C21.55,122.31,21.61,121.29,21.68,120.27Zm-2.99,8.76s-.11.14-.17.24l.17-.24Zm-1.57,3.11.07-.1h0A1.027,1.027,0,0,1,17.12,132.14Zm3.08-6.12-.23.31.23-.31Zm1.51-3s-.06.08-.12.15l.12-.15ZM90.76,117c-.3-.31-.6-.62-.91-.93.3-.12.61-.23.91-.35C90.77,116.15,90.76,116.57,90.76,117ZM68.31,40.7Zm9.06-1.63c.3.11.6.23.9.34-.3.27-.59.55-.89.82C77.37,39.84,77.37,39.46,77.37,39.07Zm-.16,1.48c.05.47.1.95.16,1.42l-4.65,1.5c.06-.53.11-1.05.17-1.58.44-.44.88-.89,1.32-1.33C75.2,40.56,76.2,40.55,77.21,40.55Zm-8.85.14c1.49-.12,2.99-.23,4.48-.34.44-.4.87-.8,1.31-1.2.01.42.01.83.02,1.25l-1.33.12c-.04.48-.09.95-.13,1.43l-2.97,1.5q-3.99,3.03-7.97,6.05c-.3-.32-.61-.64-.91-.96.51-.97,1.01-1.95,1.52-2.92C64.37,43.97,66.37,42.33,68.36,40.69Zm26.65-4.55c-.4,1.52-3.91,2.41-6.15,3.23a36.491,36.491,0,0,1-5.78,1.14c.1-.61.2-1.21.3-1.82-1-.41-2.01-.83-3.01-1.24V37.4c-.1-.02-.19-.04-.29-.07l.23.17.01.01a.3.3,0,0,1,.04.03c-1.01,0-2.02-.01-3.03-.01-.05.44-.09.89-.14,1.33-.87-.01-1.74-.02-2.61-.04.85-.47,1.71-.93,2.56-1.4.01-.5.03-1.01.04-1.51-.33-.54-.66-1.08-.99-1.61a1.069,1.069,0,0,0-.96.3c3.06-2.41,5.81-5.52,9.27-7.02,2.81-1.22,7.25-1.71,9.47-.25C95.66,28.43,95.75,33.33,95.01,36.14ZM38.27,60.49h0c-.03.17-.05.33-.07.5C38.22,60.82,38.24,60.65,38.27,60.49Zm2.6,43.77c.34,2.21.85,4.56-2.5,1.91-1.08,1.23-2.16,2.45-3.23,3.68h0c1.08-1.22,2.16-2.45,3.23-3.67-2.36-14.58-1.56-28.93,3.97-42.72,8.74-21.8,25.28-35.41,46.69-43.87,2.25-.89,3.95-3.16,5.9-4.8.91-.28,1.83-.56,2.74-.83L86.92,24a43.086,43.086,0,0,0-10.79,4.99C48.42,45.56,35.95,72.29,40.87,104.26ZM53.3,73.44c.15-.33.29-.65.44-.98.25.33.51.65.76.98Zm30.13,45.98c-1.74-.19-3.74.11-5.19-.65-9.52-4.99-12.4-15.23-6.55-21.94,1.91,5.05,3.85,10.2,5.8,15.35.42-.07.85-.15,1.27-.22v-8.22c2.01,3.86,3.94,6.86,5.12,10.14C84.46,115.47,83.63,117.56,83.43,119.42ZM82.36,99.38c-1.85.66-3.72,1.26-5.59,1.9-2.36-5.2-4.6-10.13-6.84-15.05.2,2.32.41,4.68.65,7.48-1.49,2.35-3.41,5.37-5.34,8.4,2.62,12.69.64,24.92-3.02,37.17-2.1,7.01-3.03,14.38-4.48,21.58-1-1.85-2.82-3.69-2.87-5.57-.23-9.46-.45-18.97.24-28.4.4-5.45,2.55-10.78,3.9-16.13,6.17,1.78,4.54-3.45,4.74-7.16-2.75.63-5.5,1.27-8.25,1.9,1.03-2.72,1.5-5.89,3.21-8.08,3.29-4.2,7.25-7.88,10.96-11.76.09.19.17.38.26.57-.02-.25-.04-.51-.07-.76h0l-.21.15C66.59,74.81,63.54,64,60.27,52.45l4.56.2C76.98,60.91,84.4,72.58,88.8,86.28,91.91,95.95,91.74,96.01,82.36,99.38Zm23.67,53.79h0a.031.031,0,0,1-.02-.01h0l-.01-.08h0a.32.32,0,0,1-.01-.07.292.292,0,0,1,.02.09l.06.09ZM69.8,179.24c.12-.62.23-1.23.35-1.85H120.2C104.12,182.14,86.96,180.81,69.8,179.24Z" fill="#070B53"/>
      <path id="Path_3" data-name="Path 3" d="M156.27,43.23c-.22-.44-.44-.89-.66-1.33l-.07.07.07-.07c-.15-.15-.3-.29-.46-.44.1.2.2.39.31.58C155.73,42.44,156,42.83,156.27,43.23Z" fill="#070B53"/>
      <path id="Path_4" data-name="Path 4" d="M29.12,186.34c1.14-1.88,1.99-4.04,3.48-5.6,12.79-13.39,12.84-30.04,12.76-47.11-1.16,1.65-2.04,2.91-2.92,4.16,1.75,16.46-1.54,31.36-14.81,45.39,1.24-3.76,1.85-5.6,2.46-7.45-.28-1.37-.56-2.74-.85-4.11-.1-1.23-.19-2.46-.29-3.69,1.77-9.42,3.56-18.85,5.3-28.28.36-1.93.56-3.89.83-5.83-2.48,9.1-4.85,18.24-7.52,27.29-.89,3.03-2.52,5.84-3.81,8.75q-.33-3.87-.67-7.74c-.16,1.05-.33,2.1-.49,3.15a2.539,2.539,0,0,0,.4,1.28C17.47,175.49,25.32,180.29,29.12,186.34Z" fill="#070B53"/>
      <path id="Path_5" data-name="Path 5" d="M18.48,121.78c.47-1.91.94-3.83,1.41-5.74q-2.775,2.865-5.55,5.72c-.63,2.14-1.25,4.28-1.88,6.43q3.045-3.225,6.1-6.45a.746.746,0,0,0,.12-.07c.02-.05.05-.09.07-.14Z" fill="#070B53"/>
      <path id="Path_6" data-name="Path 6" d="M20.17,115.75c.53-.48,1.06-.97,1.58-1.45l-.26-.25c-.5.51-.99,1.02-1.49,1.52-.04.15-.08.31-.11.46.09-.09.18-.19.28-.28Z" fill="#070B53"/>
      <path id="Path_7" data-name="Path 7" d="M14.18,151.63h0c-.07.07-.14.14-.21.22h0s.08-.07.14-.13l.08-.08c.16,1.41.33,2.83.49,4.24l1.71-1.11c.17-1.48.34-2.95.51-4.43-.48,0-.96.01-1.44.01Z" fill="#070B53"/>
      <path id="Path_8" data-name="Path 8" d="M15.45,150.35l.25-.25-.25.25c.52-1,1.05-2.01,1.58-3.01h.14v-.26l-.11.13-.11.13c.06-1.03.13-2.06.19-3.09-.48-.01-.96-.01-1.45-.02-1.07-.54-2.15-1.07-5.35-2.66,1.71,4.47,2.77,7.27,3.84,10.06.43-.43.85-.85,1.27-1.28Z" fill="#070B53"/>
      <path id="Path_9" data-name="Path 9" d="M33.74,63.27a2.156,2.156,0,0,0,.32,1.35c.91-.06,1.82-.11,2.73-.17C35.77,64.06,34.76,63.67,33.74,63.27Z" fill="#070B53"/>
      <path id="Path_10" data-name="Path 10" d="M77.38,37.3l-.21.12v.1Z" fill="#070B53"/>
      <path id="Path_11" data-name="Path 11" d="M72.86,40.35h-.02a1.8,1.8,0,0,0-.2.19Z" fill="#070B53"/>
      <path id="Path_12" data-name="Path 12" d="M77.24,35.92c.03.06.06.13.06.13-.01-.07-.01-.13-.02-.2h-.07v.04l.09.15A1.1,1.1,0,0,1,77.24,35.92Z" fill="#070B53"/>
      <path id="Path_13" data-name="Path 13" d="M77.16,37.52h.19a1.635,1.635,0,0,0,.02-.22C77.38,37.3,77.16,37.52,77.16,37.52Z" fill="#070B53"/>
      <path id="Path_14" data-name="Path 14" d="M32.07,165.06c2.91-11.46,5.64-22.96,8.43-34.45-1.28,2.72-2.96,5.33-3.77,8.18-2.76,9.67-5.22,19.42-7.79,29.14.1,1.23.19,2.46.29,3.69C30.2,169.44,31.49,167.34,32.07,165.06Z" fill="#070B53"/>
      <path id="Path_15" data-name="Path 15" d="M17.15,150.32c-.05-.03-.23-.16-.23-.16-.01.06-.01.12-.02.19h.29v-.71c-.09.17-.18.35-.26.52A2.663,2.663,0,0,0,17.15,150.32Z" fill="#070B53"/>
      <path id="Path_16" data-name="Path 16" d="M18.33,147.34h.36v-.72c-.07.14-.15.29-.22.43C18.43,147.15,18.38,147.24,18.33,147.34Z" fill="#070B53"/>
      <path id="Path_17" data-name="Path 17" d="M17.18,149.63c.38-.77.77-1.53,1.15-2.29H17.18Z" fill="#070B53"/>
      <path id="Path_18" data-name="Path 18" d="M30.47,109.75c-.4,0-.79,0-1.19.01.19.89.37,1.78.55,2.67C30.04,111.53,30.26,110.64,30.47,109.75Z" fill="#070B53"/>
      <path id="Path_19" data-name="Path 19" d="M30.51,109.59c-.01.05-.03.11-.04.16h.26Z" fill="#070B53"/>
      <path id="Path_20" data-name="Path 20" d="M29,109.76h.28c-.01-.07-.03-.14-.04-.21a1.952,1.952,0,0,1-.23.02,1.21,1.21,0,0,0-.01.19Z" fill="#070B53"/>
      <path id="Path_21" data-name="Path 21" d="M21.84,114.09c-.12-.01-.24-.03-.35-.04l.27.25A1.8,1.8,0,0,1,21.84,114.09Z" fill="#070B53"/>
      <path id="Path_22" data-name="Path 22" d="M136.74,118.55c-5.79,1.55-9.96,2.67-14.13,3.79,3.27,1.35,6.23.73,9.2.73,1.02,0,2.04,1.52,3.07,2.34-1.95,1.37-3.9,2.75-6.19,4.36,2.35.63,4.75,1.28,7.19,1.93,4.18-8.08-2.8-18.66,9.14-24.9-7.57.87-12.71,1.46-18.7,2.15Z" fill="#070B53"/>
      <path id="Path_23" data-name="Path 23" d="M77.15,34.38c.05.49.09.98.14,1.47.87-.01,1.73-.03,2.6-.04C78.97,35.34,78.06,34.86,77.15,34.38Z" fill="#070B53"/>
      <path id="Path_24" data-name="Path 24" d="M80.38,36.11v-.3c-.17,0-.33.01-.5.01.08.04.15.08.23.12S80.29,36.05,80.38,36.11Z" fill="#070B53"/>
      <path id="Path_25" data-name="Path 25" d="M80.38,36.11v1.28c1.03.23,2.06.47,3.09.7Z" fill="#070B53"/>
      <path id="Path_26" data-name="Path 26" d="M72.64,40.54c.07-.01.14-.01.21-.02.01-.06.01-.11.02-.17C72.86,40.35,72.64,40.54,72.64,40.54Z" fill="#070B53"/>
      <path id="Path_27" data-name="Path 27" d="M30.73,109.75v-.57c-.07.13-.15.27-.22.4C30.51,109.59,30.73,109.75,30.73,109.75Z" fill="#070B53"/>
      <path id="Path_28" data-name="Path 28" d="M32.23,106.46c-.5.09-1,.17-1.5.26v2.46C31.23,108.28,31.73,107.37,32.23,106.46Z" fill="#070B53"/>
      <path id="Path_29" data-name="Path 29" d="M30.65,106.62l-.09.13.17-.03v-.23h-.32c.05.09.1.17.15.26A1.025,1.025,0,0,0,30.65,106.62Z" fill="#070B53"/>
      <path id="Path_30" data-name="Path 30" d="M29.87,105.55c-.19.31-.37.63-.56.94h1.1C30.23,106.18,30.05,105.86,29.87,105.55Z" fill="#070B53"/>
      <path id="Path_31" data-name="Path 31" d="M29.31,106.49H29v.28l.16-.03C29.21,106.66,29.26,106.58,29.31,106.49Z" fill="#070B53"/>
    </g>
  </g>
</svg>
