<svg xmlns="http://www.w3.org/2000/svg" xmlns:xlink="http://www.w3.org/1999/xlink" width="64" height="64" viewBox="0 0 64 64">
  <defs>
    <clipPath id="clip-book_appointment">
      <rect width="64" height="64"/>
    </clipPath>
  </defs>
  <g id="book_appointment" clip-path="url(#clip-book_appointment)">
    <path id="Union_334" data-name="Union 334" d="M28.118,59.036l0,0A29.507,29.507,0,1,1,46.26,53.84c2.088,4.564,9.7,5.4,12.064,5.522-.856,0-2.544.04-5.361.2-3.707.2-7.052.282-10,.282A111.223,111.223,0,0,1,28.118,59.036Zm30.206.327c.361,0,.574,0,.661.01s.054.01-.062.01S58.6,59.377,58.324,59.362Z" transform="translate(2 2)" fill="#ff205d"/>
    <g id="Group_6148" data-name="Group 6148" transform="translate(1228.335 -530.488)">
      <path id="Path_14177" data-name="Path 14177" d="M-1209.584,583.893V567.767c.088,0,.164-.01.24-.01q11.825,0,23.649,0c.2,0,.263.045.262.258-.015,2.136-.017,4.272-.027,6.409a.218.218,0,0,0,.152.24,5.421,5.421,0,0,1,1.565.833v-7.254c0-2.008,0-4.016,0-6.025a1.822,1.822,0,0,0-1.809-1.805c-.548,0-1.1,0-1.645,0h-.723v.251c0,1.011-.02,2.023.006,3.033a1.533,1.533,0,0,1-1.012,1.547,3.624,3.624,0,0,1-1.586.255,1.858,1.858,0,0,1-1.954-1.96c0-.961,0-1.923,0-2.884v-.227h-2.96v.27c0,.954.005,1.908,0,2.863a1.854,1.854,0,0,1-1.506,1.906,3.822,3.822,0,0,1-.766.026,2.024,2.024,0,0,1-1.938-1.973q0-1.431,0-2.863v-.227h-2.6v.274c0,1,.005,1.994,0,2.991a1.726,1.726,0,0,1-1.291,1.729,4.218,4.218,0,0,1-1,.068,1.886,1.886,0,0,1-1.91-1.929q0-1.453,0-2.906v-.245h-.259c-.84,0-1.682.032-2.521-.008a2.143,2.143,0,0,0-2.114,2.092q.016,10.553.007,21.107a2.031,2.031,0,0,0,2.047,2.044h11.494c.075,0,.149-.006.223-.009l-.409-1.742Z" transform="translate(0 -12.166)" fill="#fff"/>
      <path id="Path_14178" data-name="Path 14178" d="M-1053.816,551.691a1.028,1.028,0,0,0,.9.912,5.95,5.95,0,0,0,.7.022,1.091,1.091,0,0,0,1.166-1.18c0-.626,0-1.252,0-1.878,0-.647.006-1.295,0-1.942a1.087,1.087,0,0,0-1.133-1.127c-.135,0-.271,0-.406,0a1.111,1.111,0,0,0-1.25,1.247q0,1.782,0,3.564A3.286,3.286,0,0,0-1053.816,551.691Z" transform="translate(-137.752 -0.008)" fill="#fff"/>
      <path id="Path_14179" data-name="Path 14179" d="M-1112.286,551.6a1.026,1.026,0,0,0,.917,1.01,4.692,4.692,0,0,0,.852.011,1.057,1.057,0,0,0,1-1.113q0-1.953,0-3.905a1.044,1.044,0,0,0-.884-1.066,4.626,4.626,0,0,0-.765-.03,1.072,1.072,0,0,0-1.126,1.125c0,.647,0,1.295,0,1.942h0C-1112.288,550.245-1112.294,550.921-1112.286,551.6Z" transform="translate(-86.627 -0.011)" fill="#fff"/>
      <path id="Path_14180" data-name="Path 14180" d="M-1165.742,552.606a6.028,6.028,0,0,0,.618.012,1.08,1.08,0,0,0,1.168-1.172c0-.626,0-1.252,0-1.878,0-.654.008-1.309,0-1.963a1.073,1.073,0,0,0-1.139-1.115c-.185,0-.37,0-.555,0a1.073,1.073,0,0,0-1.084,1.066q-.019,2,0,3.991A1.046,1.046,0,0,0-1165.742,552.606Z" transform="translate(-39)" fill="#fff"/>
      <path id="Path_14181" data-name="Path 14181" d="M-1132.719,670.915q-1.5,0-3.008,0c-.255,0-.329.075-.329.331q0,1.237,0,2.475c0,.273.069.342.337.343.5,0,1,0,1.494,0s1.01,0,1.515,0c.244,0,.316-.073.317-.318q0-1.248,0-2.5C-1132.4,670.99-1132.466,670.915-1132.719,670.915Z" transform="translate(-65.84 -108.826)" fill="#fff"/>
      <path id="Path_14182" data-name="Path 14182" d="M-1132.727,707.322h-1.5c-.506,0-1.011,0-1.517,0-.247,0-.317.069-.318.316q0,1.25,0,2.5c0,.251.067.325.312.326q1.517,0,3.034,0c.25,0,.315-.071.316-.32q0-1.25,0-2.5C-1132.4,707.383-1132.459,707.323-1132.727,707.322Z" transform="translate(-65.839 -140.669)" fill="#fff"/>
      <path id="Path_14183" data-name="Path 14183" d="M-1175.864,670.914q-1.516,0-3.033,0c-.239,0-.307.067-.308.305q0,1.271,0,2.542c0,.243.063.3.309.3.505,0,1.011,0,1.516,0s1.011,0,1.516,0c.236,0,.306-.07.307-.3q0-1.271,0-2.541C-1175.557,670.987-1175.629,670.915-1175.864,670.914Z" transform="translate(-28.1 -108.825)" fill="#fff"/>
      <path id="Path_14184" data-name="Path 14184" d="M-1178.924,710.455h3.1c.19,0,.283-.088.281-.289-.005-.854,0-1.708,0-2.562,0-.227-.064-.29-.293-.291-.512,0-1.025,0-1.537,0s-1.025,0-1.537,0c-.186,0-.281.077-.281.263q0,1.3,0,2.6A.243.243,0,0,0-1178.924,710.455Z" transform="translate(-28.107 -140.661)" fill="#fff"/>
      <path id="Path_14185" data-name="Path 14185" d="M-1050.335,637.331c-.583-.008-1.166-.005-1.749-.005v.013c-.52,0-1.039.013-1.558-.007-.184-.007-.214.046-.213.208.006.818,0,1.636,0,2.454a1.194,1.194,0,0,0,.019.212.285.285,0,0,0,.318.27c.982-.006,1.964,0,2.945,0a.337.337,0,0,0,.37-.349q.009-1.334,0-2.668A.186.186,0,0,0-1050.335,637.331Z" transform="translate(-137.736 -79.448)" fill="#fff"/>
      <path id="Path_14186" data-name="Path 14186" d="M-1090.848,637.443c-.505,0-1.01,0-1.516,0h-1.494c-.292,0-.339.045-.339.329q0,1.238,0,2.476c0,.279.045.326.321.326q1.5,0,3.01,0c.258,0,.322-.059.323-.309q0-1.259,0-2.519C-1090.543,637.505-1090.61,637.444-1090.848,637.443Z" transform="translate(-102.451 -79.551)" fill="#fff"/>
      <path id="Path_14187" data-name="Path 14187" d="M-1175.556,637.732c0-.231-.059-.288-.293-.289q-1.526,0-3.052,0c-.247,0-.3.052-.3.3q0,1.259,0,2.518c0,.261.053.31.317.311.5,0,1,0,1.494,0,.519,0,1.039,0,1.558,0,.2,0,.283-.083.282-.283C-1175.558,639.439-1175.554,638.585-1175.556,637.732Z" transform="translate(-28.1 -79.551)" fill="#fff"/>
      <path id="Path_14188" data-name="Path 14188" d="M-1135.9,640.048q1.58-.006,3.16-.008c.048,0,.1-.005.155-.008v-2.8h-3.478c0,.89,0,1.785,0,2.681C-1136.06,640.035-1136,640.049-1135.9,640.048Z" transform="translate(-65.837 -79.368)" fill="#fff"/>
      <path id="Path_14189" data-name="Path 14189" d="M-1090.743,671.471c.21-.108.248-.244.08-.407a.563.563,0,0,0-.349-.149c-.918-.012-1.837-.007-2.755-.007-.315,0-.448.133-.448.454,0,.854,0,1.709,0,2.563a.287.287,0,0,0,.277.336c.038-.049.079-.1.116-.149A8.686,8.686,0,0,1-1090.743,671.471Z" transform="translate(-102.432 -108.82)" fill="#fff"/>
      <path id="Path_14190" data-name="Path 14190" d="M-1082.9,679.661a7.233,7.233,0,0,0-7.233,7.233,7.233,7.233,0,0,0,7.233,7.233,7.233,7.233,0,0,0,7.233-7.233A7.233,7.233,0,0,0-1082.9,679.661Zm2.645,1.994a.535.535,0,0,1,.551.549.532.532,0,0,1-.537.539.528.528,0,0,1-.54-.535A.534.534,0,0,1-1080.254,681.655Zm-2.764-.728a.554.554,0,0,1,.536.576.554.554,0,0,1-.554.556.568.568,0,0,1-.528-.608A.5.5,0,0,1-1083.017,680.927Zm-4.817,2.785a.538.538,0,0,1,.546.556.535.535,0,0,1-.552.527.536.536,0,0,1-.534-.544A.536.536,0,0,1-1087.834,683.712Zm-1.276,3.372a.565.565,0,0,1,.542-.571.559.559,0,0,1,.535.575.554.554,0,0,1-.552.575A.549.549,0,0,1-1089.109,687.084Zm1.277,3.295a.56.56,0,0,1-.54-.551.548.548,0,0,1,.543-.543.551.551,0,0,1,.552.535A.56.56,0,0,1-1087.832,690.379Zm2.027-8.708a.529.529,0,0,1,.546.549.528.528,0,0,1-.546.528.525.525,0,0,1-.536-.539A.526.526,0,0,1-1085.8,681.671Zm.015,10.738a.526.526,0,0,1-.537-.557.524.524,0,0,1,.55-.521.521.521,0,0,1,.526.545A.521.521,0,0,1-1085.79,692.409Zm2.781.755a.544.544,0,0,1-.54-.565.543.543,0,0,1,.548-.534.543.543,0,0,1,.528.554A.544.544,0,0,1-1083.009,693.164Zm2.782-.758a.527.527,0,0,1-.544-.529.528.528,0,0,1,.546-.549.522.522,0,0,1,.532.541A.521.521,0,0,1-1080.227,692.405Zm.829-4.33c-.013.064-.229.12-.353.122-.776.011-1.552.005-2.328.006h-.252c.015.139.024.257.042.374a.365.365,0,0,1-.278.454,2.771,2.771,0,0,1-.82-.021c-.269-.052-.333-.191-.331-.466,0-.105,0-.21,0-.257a4.378,4.378,0,0,1-.716-.285c-.078-.047-.09-.242-.092-.37-.006-.336.108-.4.842-.5.013-.236.031-.476.038-.716q.051-1.568.1-3.137c.01-.357.142-.494.489-.5.406,0,.556.12.568.488q.052,1.665.1,3.329c.005.176,0,.353,0,.554h2.576c.177,0,.411-.034.451.181A1.95,1.95,0,0,1-1079.4,688.076Zm1.189-4.387a.556.556,0,0,1,.552.537.559.559,0,0,1-.551.561.564.564,0,0,1-.543-.55A.559.559,0,0,1-1078.208,683.689Zm.022,6.68a.541.541,0,0,1-.554-.529.539.539,0,0,1,.523-.557.536.536,0,0,1,.563.536A.54.54,0,0,1-1078.186,690.369Zm.816-2.792a.521.521,0,0,1-.523-.549.538.538,0,0,1,.528-.553.54.54,0,0,1,.513.547A.524.524,0,0,1-1077.37,687.576Z" transform="translate(-106.007 -116.476)" fill="#fff"/>
    </g>
  </g>
</svg>
