<svg xmlns="http://www.w3.org/2000/svg" xmlns:xlink="http://www.w3.org/1999/xlink" width="131" height="106" viewBox="0 0 131 106">
  <defs>
    <clipPath id="clip-card">
      <rect width="131" height="106"/>
    </clipPath>
  </defs>
  <g id="card" clip-path="url(#clip-card)">
    <g id="Group_7470" data-name="Group 7470" transform="translate(1602.28 4607.402) rotate(-16)">
      <path id="Path_17011" data-name="Path 17011" d="M107.1,47.2H8.4a5.913,5.913,0,0,0-5.9,5.9v57.852a5.913,5.913,0,0,0,5.9,5.9H107.1a5.913,5.913,0,0,0,5.9-5.9V53.1a5.912,5.912,0,0,0-5.9-5.9Z" transform="translate(-279 -4883.389)" fill="#070B53"/>
      <path id="Path_17012" data-name="Path 17012" d="M194.367,67.5h-9.974a3.845,3.845,0,0,0-3.885,3.487,3.752,3.752,0,0,0,3.733,4h9.974A3.845,3.845,0,0,0,198.1,71.5,3.751,3.751,0,0,0,194.367,67.5Z" transform="translate(-378.637 -4894.752)" fill="#fff"/>
      <path id="Path_17013" data-name="Path 17013" d="M122.06,94.588C94.9,94.777,48,101.768,18.685,143.369h97.479a5.913,5.913,0,0,0,5.9-5.9V94.588Z" transform="translate(-288.06 -4909.915)" fill="#fff"/>
      <path id="Path_17014" data-name="Path 17014" d="M23.024,160.959h95.569a5.913,5.913,0,0,0,5.9-5.9V127.176c-18.159-2.328-70.2-5.042-101.465,33.783Z" transform="translate(-290.489 -4927.504)" fill="#070B53"/>
      <path id="Path_17015" data-name="Path 17015" d="M206.267,171.105H196.192a1.1,1.1,0,0,1,0-2.2h10.075a1.1,1.1,0,1,1,0,2.2Z" transform="translate(-386.805 -4951.514)" fill="#fff"/>
      <path id="Path_17016" data-name="Path 17016" d="M206.267,182.687H196.192a1.1,1.1,0,0,1,0-2.2h10.075a1.1,1.1,0,1,1,0,2.2Z" transform="translate(-386.805 -4957.997)" fill="#fff"/>
      <path id="Path_17017" data-name="Path 17017" d="M34.113,104.02a.5.5,0,0,0-.4-.2H32.38a.494.494,0,0,0-.462.317c-1.083,2.81-5.652,2.48-5.652-1.506,0-4.017,4.576-4.327,5.652-1.533h0a.492.492,0,0,0,.462.316h1.336a.5.5,0,0,0,.475-.634A5.015,5.015,0,0,0,32.4,98.112a5.283,5.283,0,0,0-8.434,4.521c0,6.525,8.6,7.415,10.224,1.823a.494.494,0,0,0-.078-.435Z" transform="translate(-291.016 -4911.306)" fill="#fff"/>
      <path id="Path_17018" data-name="Path 17018" d="M53.16,98.152h0a.5.5,0,0,0-.464-.321H51.263a.5.5,0,0,0-.463.32l-3.632,9.629a.5.5,0,0,0,.464.67H49a.5.5,0,0,0,.465-.327l.7-1.941h3.619l.7,1.942a.5.5,0,0,0,.465.326h1.364a.5.5,0,0,0,.464-.67Zm-.1,6.052H50.884l1.089-3.005Z" transform="translate(-303.985 -4911.73)" fill="#fff"/>
      <path id="Path_17019" data-name="Path 17019" d="M75.039,104c3.4-1.04,3.239-6.584-1.546-6.584H70.263a.5.5,0,0,0-.5.5v9.81a.5.5,0,0,0,.5.5H71.53a.5.5,0,0,0,.5-.5v-3.513h.611l2.414,3.779a.492.492,0,0,0,.417.229H76.9a.5.5,0,0,0,.413-.768Zm0-3.1c0,.98-.5,1.4-1.662,1.4H72.025V99.51H73.38C74.545,99.51,75.042,99.928,75.042,100.907Z" transform="translate(-316.654 -4911.5)" fill="#fff"/>
      <path id="Path_17020" data-name="Path 17020" d="M91.808,97.42H88.69a.5.5,0,0,0-.5.5v9.81a.5.5,0,0,0,.5.5h3.117a5.315,5.315,0,0,0,4.985-2.576,6.259,6.259,0,0,0-.085-5.816C96.053,98.729,94.672,97.42,91.808,97.42Zm3.359,5.393c0,2.144-1.2,3.276-3.457,3.276H90.451V99.523h1.258C93.971,99.523,95.167,100.661,95.167,102.813Z" transform="translate(-326.969 -4911.5)" fill="#fff"/>
      <path id="Path_17021" data-name="Path 17021" d="M141.245,36.544a1.234,1.234,0,1,0-.993-1.21A1.232,1.232,0,0,0,141.245,36.544Z" transform="translate(-356.108 -4876.055)" fill="#070B53"/>
      <path id="Path_17022" data-name="Path 17022" d="M159.859,21.725a4.341,4.341,0,0,1,3.48,3.409.078.078,0,0,0,.155,0,4.341,4.341,0,0,1,3.48-3.409.076.076,0,0,0,0-.151,4.341,4.341,0,0,1-3.48-3.409.078.078,0,0,0-.155,0,4.341,4.341,0,0,1-3.48,3.409A.076.076,0,0,0,159.859,21.725Z" transform="translate(-367.046 -4867.099)" fill="#ef4460"/>
      <path id="Path_17023" data-name="Path 17023" d="M77.838,224.266a2.955,2.955,0,0,0,2.369-2.321.053.053,0,0,1,.105,0,2.955,2.955,0,0,0,2.369,2.321.052.052,0,0,1,0,.1,2.955,2.955,0,0,0-2.369,2.321.053.053,0,0,1-.105,0,2.955,2.955,0,0,0-2.369-2.321A.052.052,0,0,1,77.838,224.266Z" transform="translate(-321.146 -4981.179)" fill="#070B53"/>
      <path id="Path_17024" data-name="Path 17024" d="M147.728,218.724a1.235,1.235,0,1,1-1.477,1.21,1.234,1.234,0,0,1,1.477-1.21Z" transform="translate(-359.466 -4979.389)" fill="#070B53"/>
      <path id="Path_17025" data-name="Path 17025" d="M119.548,225.157h-.911v.911a1.235,1.235,0,0,1-2.47,0v-.911h-.911a1.235,1.235,0,1,1,0-2.47h.911v-.911a1.235,1.235,0,1,1,2.47,0v.911h.911a1.235,1.235,0,1,1,0,2.47Z" transform="translate(-341.425 -4980.418)" fill="#070B53"/>
      <path id="Path_17027" data-name="Path 17027" d="M27.536,67.341H24.408a.44.44,0,0,0-.44.44v9.844a.44.44,0,0,0,.44.44h1.271a.44.44,0,0,0,.44-.44V74.1h1.417a4.06,4.06,0,0,0,2.793-.888,3.178,3.178,0,0,0,1.013-2.485,3.254,3.254,0,0,0-.976-2.478A4,4,0,0,0,27.536,67.341Zm-1.417,1.941h1.305a2,2,0,0,1,1.366.361,1.415,1.415,0,0,1,.372,1.083,1.4,1.4,0,0,1-.374,1.064,1.975,1.975,0,0,1-1.364.366H26.119Z" transform="translate(-291.017 -4894.663)" fill="#fff"/>
      <path id="Path_17028" data-name="Path 17028" d="M47.221,73.858a3.045,3.045,0,0,0,2.328-3.145c0-1.956-1.253-3.373-3.791-3.373h-3.24a.44.44,0,0,0-.44.44v9.844a.44.44,0,0,0,.44.44H43.79a.44.44,0,0,0,.44-.44V74.043h.7l2.439,3.818a.44.44,0,0,0,.371.2H49.18a.44.44,0,0,0,.368-.683Zm.149-3.075c0,2.076-2.314,1.264-3.141,1.459V69.324C45.057,69.518,47.371,68.709,47.371,70.783Z" transform="translate(-301.155 -4894.663)" fill="#fff"/>
      <path id="Path_17029" data-name="Path 17029" d="M66.408,67.341H60.976c-.829,0-.259.844-.44,10.284a.44.44,0,0,0,.44.44h5.432a.44.44,0,0,0,.44-.44V76.592a.44.44,0,0,0-.44-.44H62.687V73.6h3.3a.44.44,0,0,0,.44-.44v-.977a.44.44,0,0,0-.44-.44h-3.3V69.254h3.721a.44.44,0,0,0,.44-.44V67.781a.44.44,0,0,0-.44-.44Z" transform="translate(-311.472 -4894.663)" fill="#fff"/>
      <path id="Path_17030" data-name="Path 17030" d="M77.057,67.317a.44.44,0,0,0-.44.44V77.6a.44.44,0,0,0,.44.44h1.271a.44.44,0,0,0,.44-.44V74.076h1.418c2.265,0,3.805-1.149,3.805-3.373,0-4.569-5.573-3.119-6.934-3.386ZM81.811,70.7c0,1.105-.633,1.431-1.738,1.431H78.768V69.258h1.305C81.2,69.258,81.811,69.58,81.811,70.7Z" transform="translate(-320.488 -4894.639)" fill="#fff"/>
      <path id="Path_17031" data-name="Path 17031" d="M98.951,68.038a.44.44,0,0,0-.413-.285H97.1a.441.441,0,0,0-.412.285L93.044,77.7a.44.44,0,0,0,.412.6h1.368a.44.44,0,0,0,.414-.291l.718-1.985h3.712l.719,1.985a.441.441,0,0,0,.414.291h1.368a.44.44,0,0,0,.412-.6Zm.035,6.11H96.639l1.174-3.238Z" transform="translate(-329.667 -4894.894)" fill="#fff"/>
      <path id="Path_17032" data-name="Path 17032" d="M117.435,67.341h-1.271a.44.44,0,0,0-.44.44v9.844a.44.44,0,0,0,.44.44h1.271a.44.44,0,0,0,.44-.44V67.781A.44.44,0,0,0,117.435,67.341Z" transform="translate(-342.378 -4894.663)" fill="#fff"/>
      <path id="Path_17033" data-name="Path 17033" d="M126.809,67.341h-3.128a.44.44,0,0,0-.44.44v9.844a.44.44,0,0,0,.44.44h3.128c3.584,0,5.606-2.159,5.606-5.369C132.415,69.438,130.388,67.341,126.809,67.341Zm3.428,5.355c0,2.1-1.135,3.344-3.526,3.344h-1.319v-6.7C125.924,69.474,130.237,68.5,130.237,72.7Z" transform="translate(-346.586 -4894.663)" fill="#fff"/>
    </g>
  </g>
</svg>
