<svg xmlns="http://www.w3.org/2000/svg" xmlns:xlink="http://www.w3.org/1999/xlink" width="534" height="541" viewBox="0 0 534 541">
  <defs>
    <clipPath id="clip-_6">
      <rect width="534" height="541"/>
    </clipPath>
  </defs>
  <g id="_6" data-name="6" clip-path="url(#clip-_6)">
    <g id="Group_21" data-name="Group 21" transform="translate(0 17)">
      <path id="Path_24" data-name="Path 24" d="M297.68,99.6c-2.559-1.2-5.2-2.4-7.84-3.441A111.411,111.411,0,0,0,231.68,89.2c-1.2.16-2.4.4-3.6.559a112,112,0,1,0,69.6,9.839Zm0,0" transform="translate(27 12.999)" fill="none"/>
      <path id="Path_25" data-name="Path 25" d="M320,376l-16,32H176l-16-32H8v96H472V376Zm0,0" transform="translate(27 12.999)" fill="#fff"/>
      <path id="Path_26" data-name="Path 26" d="M176,200a71.4,71.4,0,0,1,5.848-28.41,72.139,72.139,0,0,1,32-34.918,8,8,0,1,0-7.582-14.1A88.187,88.187,0,0,0,167.2,165.266,87.1,87.1,0,0,0,160,200a8,8,0,0,0,16,0Zm0,0" transform="translate(27 12.999)" fill="#070B53"/>
      <path id="Path_27" data-name="Path 27" d="M179.32,221.6a8,8,0,0,0-15.254,4.8,87.032,87.032,0,0,0,8.141,18.168,8,8,0,1,0,13.762-8.152A70.844,70.844,0,0,1,179.32,221.6Zm0,0" transform="translate(27 12.999)" fill="#070B53"/>
      <path id="Path_28" data-name="Path 28" d="M248,208c.219,0,.4-.105.609-.121s.367.145.574.16a16.024,16.024,0,1,1-17.145,14.816,8,8,0,1,0-15.949-1.2A32,32,0,0,0,240,254.922V264a8,8,0,0,0,16,0v-9.121a31.936,31.936,0,0,0-5.6-62.793,7.044,7.044,0,0,0-1.25.145A6.764,6.764,0,0,0,248,192a16,16,0,1,1,16-16,8,8,0,0,0,16,0,32,32,0,0,0-24-30.867V136a8,8,0,0,0-16,0v9.133A31.938,31.938,0,0,0,248,208Zm0,0" transform="translate(27 12.999)" fill="#070B53"/>
      <path id="Path_29" data-name="Path 29" d="M128,96a8,8,0,1,0,16,0,24,24,0,0,1,24-24,8,8,0,0,0,0-16A40.047,40.047,0,0,0,128,96Zm0,0" transform="translate(27 12.999)" fill="#070B53"/>
      <path id="Path_30" data-name="Path 30" d="M240,48a24,24,0,0,1,24,24,8,8,0,0,0,16,0,40.045,40.045,0,0,0-40-40,8,8,0,0,0,0,16Zm0,0" transform="translate(27 12.999)" fill="#070B53"/>
      <path id="Path_31" data-name="Path 31" d="M479.855,375.3a5.354,5.354,0,0,0,0-.613l-56-336A7.994,7.994,0,0,0,416,32H299.625a71.519,71.519,0,0,0-114.887-5.867c-.969-.23-1.891-.582-2.891-.8A72.721,72.721,0,0,0,135.242,32H64a8,8,0,0,0-7.887,6.688l-56,336a5.353,5.353,0,0,0,0,.613A7.043,7.043,0,0,0,0,376v96a8,8,0,0,0,8,8H472a8,8,0,0,0,8-8V376a6,6,0,0,0-.145-.7ZM152.472,158.914a104.571,104.571,0,0,1,76.641-61.223l3.75-.57c2.4-.359,4.8-.613,7.2-.8.7-.047,1.4-.055,2.094-.094,1.711-.1,3.418-.176,5.137-.191H249.4c2.3,0,4.582.152,6.855.328.977.078,1.949.145,2.926.246,2.688.289,5.352.664,8,1.16.938.176,1.875.426,2.809.625,1.977.43,3.938.9,5.891,1.449q1.436.4,2.879.848c2.734.855,5.457,1.773,8.129,2.871,2.469.977,4.934,2.1,7.328,3.2a104,104,0,1,1-141.746,52.1ZM240,16a56.084,56.084,0,0,1,53.379,72.949l-.508-.2A117.737,117.737,0,0,0,248,80c-3.109,0-6.215.133-9.27.375h-.395a1.307,1.307,0,0,0-.094-.336c-.184-.8-.449-1.6-.664-2.4-.488-1.855-1-3.711-1.6-5.512-.344-.984-.758-1.918-1.152-2.887-.633-1.6-1.277-3.129-2.016-4.648-.48-.992-1.008-1.953-1.535-2.918-.8-1.426-1.6-2.832-2.465-4.2-.6-.941-1.223-1.863-1.871-2.781-.93-1.32-1.914-2.6-2.93-3.859-.7-.863-1.4-1.719-2.137-2.551-1.109-1.238-2.277-2.4-3.477-3.582-.8-.738-1.5-1.5-2.289-2.211-1.359-1.207-2.809-2.336-4.266-3.445-.727-.555-1.414-1.145-2.16-1.672a72.791,72.791,0,0,0-7.023-4.387c-.6-.328-1.2-.656-1.809-.965A55.685,55.685,0,0,1,240,16Zm-61.223,25.07a42.075,42.075,0,0,1,6.465,1.727,58.713,58.713,0,0,1,15.1,7.625c.563.391,1.074.8,1.6,1.23,1.152.875,2.289,1.77,3.367,2.723.594.527,1.152,1.086,1.719,1.6.945.922,1.875,1.867,2.754,2.84.551.609,1.078,1.234,1.6,1.875.8,1,1.6,2.039,2.4,3.094.465.656.938,1.313,1.367,1.992.738,1.145,1.41,2.32,2.066,3.512.352.648.727,1.281,1.055,1.938.742,1.5,1.4,3.047,2.008,4.617.145.383.336.75.473,1.141a54.191,54.191,0,0,1,1.7,5.73c-.961.207-1.9.5-2.855.734-1.184.289-2.4.586-3.543.914-1.762.488-3.488,1.039-5.227,1.6-1.109.367-2.238.715-3.344,1.113-1.848.664-3.656,1.414-5.473,2.168-.949.4-1.91.75-2.855,1.176-2.719,1.215-5.4,2.52-8,3.938-2.824,1.52-5.6,3.2-8.254,4.9-.9.586-1.738,1.215-2.609,1.816-1.77,1.215-3.52,2.4-5.215,3.734-.992.8-1.937,1.6-2.906,2.363-1.5,1.23-3,2.469-4.445,3.781-.977.879-1.922,1.8-2.875,2.711-1.352,1.3-2.68,2.633-4,4-.926.977-1.824,1.969-2.711,2.977-1.23,1.4-2.4,2.832-3.609,4.281-.8,1.047-1.664,2.1-2.461,3.16-1.137,1.512-2.219,3.063-3.281,4.625-.734,1.078-1.48,2.16-2.176,3.262-1.062,1.672-2.047,3.4-3.023,5.129-.6,1.047-1.215,2.082-1.777,3.152-.168.3-.352.6-.512.9A55.964,55.964,0,0,1,168,40a53.109,53.109,0,0,1,10.777,1.07ZM70.777,48h43.551c-.734.8-1.391,1.7-2.086,2.551-.426.52-.863,1.023-1.273,1.559a70.416,70.416,0,0,0-4.711,6.879c-.273.449-.5.906-.754,1.355q-1.752,3.094-3.2,6.344c-.3.656-.59,1.313-.871,1.973a72.552,72.552,0,0,0-2.77,7.953c-.086.328-.145.664-.23.992a70.418,70.418,0,0,0-1.527,7.465c-.121.75-.227,1.5-.32,2.246a70.973,70.973,0,0,0,38.5,72.5A119.919,119.919,0,1,0,307.854,96,70.4,70.4,0,0,0,312,72a72.575,72.575,0,0,0-.551-8.441c-.082-.672-.16-1.328-.258-1.992a72.46,72.46,0,0,0-1.6-8.062c-.1-.363-.234-.715-.328-1.082-.426-1.488-.848-2.969-1.367-4.422H409.225l53.328,320H320a7.991,7.991,0,0,0-7.2,4.422L299.057,400H180.944L167.2,372.425A7.987,7.987,0,0,0,160,368H17.448ZM464,464H16V384H155.059l13.781,27.574A8.008,8.008,0,0,0,176,416H304a8,8,0,0,0,7.2-4.426L324.945,384H464Zm0,0" transform="translate(27 12.999)" fill="#070B53"/>
      <path id="Path_32" data-name="Path 32" d="M24,440H40v16H24Zm0,0" transform="translate(27 12.999)" fill="#070B53"/>
      <path id="Path_33" data-name="Path 33" d="M56,440H72v16H56Zm0,0" transform="translate(27 12.999)" fill="#070B53"/>
      <path id="Path_34" data-name="Path 34" d="M88,440h16v16H88Zm0,0" transform="translate(27 12.999)" fill="#070B53"/>
      <path id="Path_35" data-name="Path 35" d="M120,440h16v16H120Zm0,0" transform="translate(27 12.999)" fill="#070B53"/>
      <path id="Path_36" data-name="Path 36" d="M120,440h16v16H120Zm0,0" transform="translate(27 12.999)" fill="#070B53"/>
      <path id="Path_37" data-name="Path 37" d="M152,440h16v16H152Zm0,0" transform="translate(27 12.999)" fill="#070B53"/>
      <path id="Path_38" data-name="Path 38" d="M184,440h16v16H184Zm0,0" transform="translate(27 12.999)" fill="#070B53"/>
      <path id="Path_39" data-name="Path 39" d="M216,440h16v16H216Zm0,0" transform="translate(27 12.999)" fill="#070B53"/>
      <path id="Path_40" data-name="Path 40" d="M248,440h16v16H248Zm0,0" transform="translate(27 12.999)" fill="#070B53"/>
      <path id="Path_41" data-name="Path 41" d="M280,440h16v16H280Zm0,0" transform="translate(27 12.999)" fill="#070B53"/>
      <path id="Path_42" data-name="Path 42" d="M312,440h16v16H312Zm0,0" transform="translate(27 12.999)" fill="#070B53"/>
      <path id="Path_43" data-name="Path 43" d="M344,440h16v16H344Zm0,0" transform="translate(27 12.999)" fill="#070B53"/>
      <path id="Path_44" data-name="Path 44" d="M376,440h16v16H376Zm0,0" transform="translate(27 12.999)" fill="#070B53"/>
      <path id="Path_45" data-name="Path 45" d="M408,440h16v16H408Zm0,0" transform="translate(27 12.999)" fill="#070B53"/>
      <path id="Path_46" data-name="Path 46" d="M440,440h16v16H440Zm0,0" transform="translate(27 12.999)" fill="#070B53"/>
    </g>
  </g>
</svg>
