<svg xmlns="http://www.w3.org/2000/svg" xmlns:xlink="http://www.w3.org/1999/xlink" width="64" height="64" viewBox="0 0 64 64">
  <defs>
    <clipPath id="clip-path">
      <rect id="Rectangle_6483" data-name="Rectangle 6483" width="64" height="64"/>
    </clipPath>
  </defs>
  <g id="iris" clip-path="url(#clip-path)">
    <rect width="64" height="64" fill="#fff"/>
    <g id="FaceID" clip-path="url(#clip-path)">
      <path id="Union_3" data-name="Union 3" d="M469.178-425a1.421,1.421,0,0,1-1.409-1.433,1.421,1.421,0,0,1,1.409-1.434h15V-443.12a1.421,1.421,0,0,1,1.409-1.433,1.422,1.422,0,0,1,1,.424,1.422,1.422,0,0,1,.409,1.01v16.686A1.421,1.421,0,0,1,485.59-425Zm-40.768,0a1.422,1.422,0,0,1-1.41-1.433v-16.686a1.422,1.422,0,0,1,1.41-1.433,1.421,1.421,0,0,1,1.409,1.433v15.253h15a1.421,1.421,0,0,1,1.409,1.434A1.421,1.421,0,0,1,444.822-425Zm55.772-42.881v-15.253h-15a1.422,1.422,0,0,1-1.409-1.434,1.421,1.421,0,0,1,1.4-1.432H485.59a1.421,1.421,0,0,1,1.41,1.433v16.686a1.422,1.422,0,0,1-1.409,1.434,1.422,1.422,0,0,1-1.41-1.434Zm-57.182,0v-16.686A1.422,1.422,0,0,1,428.41-486h16.413a1.421,1.421,0,0,1,1.409,1.433,1.422,1.422,0,0,1-1.409,1.434h-15v15.253a1.422,1.422,0,0,1-1.409,1.434,1.422,1.422,0,0,1-1-.424,1.422,1.422,0,0,1-.409-1.011Z" transform="translate(-425 488)"/>
    </g>
    <path id="Union_333" data-name="Union 333" d="M16.4,39.389a20.61,20.61,0,0,1-10.11-9.22H8.986a18.192,18.192,0,0,0,30.8,0h2.695A20.55,20.55,0,0,1,16.4,39.389ZM7.746,27.851l-2.517,0H1.547a1.547,1.547,0,1,1,0-3.094H4.312A20.523,20.523,0,0,1,43.291,12.52,20.348,20.348,0,0,1,44.9,20.5a20.573,20.573,0,0,1-.441,4.255h1.991a1.547,1.547,0,1,1,0,3.094H7.746v0Zm34.333-3.1a18.194,18.194,0,1,0-35.384,0h9A9.582,9.582,0,0,1,14.71,20.5a9.678,9.678,0,0,1,14.129-8.585,3.1,3.1,0,1,0,4.14,4.137A9.67,9.67,0,0,1,34.064,20.5a9.569,9.569,0,0,1-.985,4.254Z" transform="translate(8 12)"/>
  </g>
</svg>
