<svg xmlns="http://www.w3.org/2000/svg" xmlns:xlink="http://www.w3.org/1999/xlink" width="534" height="541" viewBox="0 0 534 541">
  <defs>
    <clipPath id="clip-_2">
      <rect width="534" height="541"/>
    </clipPath>
  </defs>
  <g id="_2" data-name="2" clip-path="url(#clip-_2)">
    <g id="Group_17" data-name="Group 17" transform="translate(2 -2)">
      <g id="loan" transform="translate(21 29)">
        <g id="Group_3" data-name="Group 3" transform="translate(0 0)">
          <path id="Path_47" data-name="Path 47" d="M180.807,78.558,94.369,55.016,73.129,72.681A60.465,60.465,0,0,1,62.937,39.025V19.655a19.645,19.645,0,1,1,39.29,0v7.858a3.93,3.93,0,1,0,7.859,0V19.655a19.645,19.645,0,0,1,39.29,0v7.858a3.93,3.93,0,1,0,7.859,0V19.655a19.645,19.645,0,0,1,39.29,0v19.37a60.445,60.445,0,0,1-10.192,33.656Z" transform="translate(39.218 -0.01)" fill="#070B53"/>
          <path id="Path_48" data-name="Path 48" d="M96.151,169.29l-15.717-7.858H55.006V43.562H0v149.3H55.006V177.148H76.726l15.717,7.858h9.713V169.288l-6,0ZM39.29,177.149H15.717V59.277H39.291V177.149Z" transform="translate(0 27.129)" fill="#070B53"/>
          <path id="Path_49" data-name="Path 49" d="M145.782,327.1c-1.422,0-2.837-.024-4.267-.086-53.042-2.138-96.976-47.094-97.927-100.206A101.266,101.266,0,0,1,72.45,153.873C89.3,136.546,98.578,114.929,98.578,93.02l39.29-25.232L153.584,83.5v78.548h55.006l9.2-9.461A102.132,102.132,0,0,1,145.782,327.1Z" transform="translate(27.15 42.225)" fill="#070B53"/>
          <path id="Path_50" data-name="Path 50" d="M160.883,173.012v-3.9a27.561,27.561,0,0,0-27.5-27.535h-3.93V125.863H113.733V141.58H109.8a27.5,27.5,0,0,0,0,55.006h23.574a11.787,11.787,0,1,1,0,23.574H109.805A11.775,11.775,0,0,1,98.018,208.4v-3.96H82.3v3.96a27.506,27.506,0,0,0,27.5,27.472h3.93v15.717H129.45V235.876h3.93a27.5,27.5,0,1,0,0-55.006H109.805a11.787,11.787,0,1,1,0-23.574h23.574a11.829,11.829,0,0,1,11.787,11.818v3.9l15.717,0Z" transform="translate(51.285 78.413)" fill="#fff"/>
          <path id="Path_51" data-name="Path 51" d="M227.228,92.251a23.5,23.5,0,0,0-17.445-39.322H180.535l-5.47-6.837L113.655,28.53,65.494,68.644H29.048V84.361H71.183l46.142-38.434,48.6,13.892L182.46,80.478a12.828,12.828,0,0,1-2.326,18.285,12.9,12.9,0,0,1-16.769-1.195L147.508,81.71l-44.782,35.827,9.815,12.274,33.8-27.04,5.91,5.916a27.423,27.423,0,0,0,2.782,2.3c.573,5.736,2.664,9.107,5.877,12.667a23.225,23.225,0,0,0,0,31.44,23.344,23.344,0,0,0-6.129,15.7,23.593,23.593,0,0,0,23.574,23.574h31.432a23.457,23.457,0,0,0,17.445-39.267,23.216,23.216,0,0,0,0-31.434,23.2,23.2,0,0,0,0-31.421Zm-17.445,86.406H178.35a7.858,7.858,0,1,1,0-15.715h31.432a7.858,7.858,0,1,1,0,15.715Zm0-31.432H178.35a7.858,7.858,0,0,1,0-15.715h31.432a7.858,7.858,0,1,1,0,15.715Zm0-31.432H180.668A27.675,27.675,0,0,0,198.4,100.078h11.386a7.858,7.858,0,1,1,0,15.715Zm0-31.432h-9.218a28.272,28.272,0,0,0-5.838-13.7l-1.618-2.019h16.674a7.858,7.858,0,1,1,0,15.715Z" transform="translate(18.101 17.762)" fill="#070B53"/>
          <path id="Path_52" data-name="Path 52" d="M368.787,233.558v23.574H316.162l-21.594-14.4-66.227-23.488a24.282,24.282,0,0,0-31.276,15.866,24.327,24.327,0,0,0,11.842,28.478l17.012,9.036-24.737.078-10.169-25.428a21.857,21.857,0,0,0-41,15.1l2.381,7.056-17.241-9.422a22.559,22.559,0,1,0-20.792,40.03l38.788,19.142,80.514,16.376,104.473.149,30.654-6.129v21.846h55.006V233.558Zm-203.052,18.27c2.641-3.678,9.005-2.9,10.679,1.3l7.858,19.637-14.16.047-5.2-15.449A6.071,6.071,0,0,1,165.735,251.828ZM336.576,320h-100.6l-76.805-15.363-37.86-18.679a6.824,6.824,0,0,1-3.206-8.966,6.737,6.737,0,0,1,4.063-3.662,6.668,6.668,0,0,1,5.454.487l26.993,14.749H229.2l31.008-15.5-43.919-23.346a8.593,8.593,0,0,1-4.181-10.042,8.572,8.572,0,0,1,11.032-5.6l63.541,22.294L311.4,272.847h57.388v40.7Zm71.5,15.715H384.5V249.273h23.574Z" transform="translate(63.406 135.74)" fill="#070B53"/>
        </g>
      </g>
    </g>
  </g>
</svg>
