<svg xmlns="http://www.w3.org/2000/svg" xmlns:xlink="http://www.w3.org/1999/xlink" width="534" height="541" viewBox="0 0 534 541">
  <defs>
    <clipPath id="clip-_4">
      <rect width="534" height="541"/>
    </clipPath>
  </defs>
  <g id="_4" data-name="4" clip-path="url(#clip-_4)">
    <g id="Group_19" data-name="Group 19" transform="translate(-2266 158)">
      <g id="mortgage" transform="translate(2291 -117)">
        <g id="Group_4" data-name="Group 4" transform="translate(0 0)">
          <path id="Path_53" data-name="Path 53" d="M209.928,95.1,178.847,56.249,147.766,95.1H15.671V242.735H54.522V176.687a42.737,42.737,0,0,1,85.473,0v66.048H342.022V95.1Zm93.244,93.243H194.389V126.181H303.173Z" transform="translate(9.481 21.454)" fill="#070B53"/>
          <path id="Path_54" data-name="Path 54" d="M366.949,226.712v23.311H314.911l-21.353-14.251L228.071,212.54a24.011,24.011,0,0,0-30.927,15.689,24.051,24.051,0,0,0,11.71,28.16l16.822,8.935-24.46.077-10.055-25.144a21.609,21.609,0,0,0-40.538,14.933l2.347,6.971-17.04-9.317a22.307,22.307,0,1,0-20.56,39.583l38.355,18.928,79.615,16.193,103.306.156,30.3-6.069v21.632h54.392V226.712ZM166.172,244.747c2.6-3.637,8.889-2.867,10.551,1.282l7.77,19.417-14,.047-5.144-15.268A5.984,5.984,0,0,1,166.172,244.747Zm200.777,61.035-31.85,6.4H235.624l-75.947-15.206L122.24,278.5a6.748,6.748,0,0,1-3.17-8.866,6.757,6.757,0,0,1,9.41-3.131l26.691,14.6H228.92l30.662-15.347-43.436-23.1a8.48,8.48,0,0,1-4.126-9.93,8.476,8.476,0,0,1,10.909-5.54l62.823,22.059,24.454,16.318h56.747v40.22ZM405.8,327.726H382.49V242.253H405.8Z" transform="translate(62.259 115.18)" fill="#070B53"/>
          <path id="Path_55" data-name="Path 55" d="M374.122,208.6H156.553V150.326a50.506,50.506,0,1,0-101.013,0V208.6H1.147v46.622H374.122ZM71.08,150.326a34.967,34.967,0,0,1,69.933,0V208.6H71.08Zm287.5,89.359H16.688V224.144H358.581l0,15.541Z" transform="translate(0.694 47.815)" fill="#070B53"/>
          <path id="Path_56" data-name="Path 56" d="M110.625,132.16h50.352l27.351-34.182,27.351,34.182H376.658L350.022,7.836H26.637L0,132.16H110.625Zm112.514-15.54L188.328,73.1,153.517,116.62h-27.11l61.921-80.5,61.921,80.5Zm134.294,0H269.855L198.127,23.377H337.448Zm-338.21,0L39.209,23.377H178.53L106.8,116.62Z" transform="translate(0 -7.836)" fill="#070B53"/>
          <path id="Path_57" data-name="Path 57" d="M122.18,172.682H246.505v-77.7H122.18ZM137.72,141.6H176.57v15.541H137.72Zm54.392,15.541V141.6h38.851v15.541Zm38.852-31.081H192.113V110.519h38.851Zm-54.392-15.541V126.06H137.721V110.519Z" transform="translate(73.92 44.886)" fill="#070B53"/>
        </g>
      </g>
    </g>
  </g>
</svg>
