<svg xmlns="http://www.w3.org/2000/svg" xmlns:xlink="http://www.w3.org/1999/xlink" width="534" height="541" viewBox="0 0 534 541">
  <defs>
    <clipPath id="clip-_5">
      <rect width="534" height="541"/>
    </clipPath>
  </defs>
  <g id="_5" data-name="5" clip-path="url(#clip-_5)">
    <g id="Group_20" data-name="Group 20" transform="translate(0 -6)">
      <g id="Group_11" data-name="Group 11" transform="translate(-2822 -287)">
        <path id="Path_58" data-name="Path 58" d="M304,472V373.121l5.039-7.2,77.84-32.242a12.15,12.15,0,0,0,6.723-16.238,12.907,12.907,0,0,0-16.8-6.48L304,336H176l-72.8-25.039a12.907,12.907,0,0,0-16.8,6.48,11.962,11.962,0,0,0-1.117,4.879,12.287,12.287,0,0,0,7.84,11.359l77.84,32.242,5.039,7.2V472Zm0,0" transform="translate(2849 324)" fill="#fff"/>
        <path id="Path_59" data-name="Path 59" d="M296,176h96V128H296Zm0,0" transform="translate(2849 324)" fill="#fff"/>
        <path id="Path_60" data-name="Path 60" d="M273.922,18.719,258.238,24c-.957-.4-1.84-.8-2.8-1.2L248,8H232l-7.441,14.8c-.957.4-1.84.8-2.8,1.2l-15.684-5.281L194.719,30.078,200,45.762c-.4.957-.8,1.84-1.2,2.8L184,56V72l14.8,7.441c.4.957.8,1.84,1.2,2.8l-5.281,15.684,11.359,11.359L221.762,104c.8.32,1.52.641,2.238.961.16.078.4.16.559.238L232,120h16l7.441-14.8c.16-.078.4-.16.559-.238.719-.32,1.441-.641,2.238-.961l15.684,5.281,11.359-11.359L280,82.238c.4-.957.8-1.84,1.2-2.8L296,72V56l-14.8-7.441c-.4-.957-.8-1.84-1.2-2.8l5.281-15.684ZM240,80a16,16,0,1,1,16-16A16,16,0,0,1,240,80Zm0,0" transform="translate(2849 324)" fill="#fff"/>
        <path id="Path_61" data-name="Path 61" d="M88,176h96V128H88Zm0,0" transform="translate(2849 324)" fill="#fff"/>
        <path id="Path_62" data-name="Path 62" d="M280,280c0-26.473-17.945-48-40-48s-40,21.527-40,48,17.945,48,40,48S280,306.473,280,280Zm-40,32c-13.23,0-24-14.352-24-32s10.77-32,24-32,24,14.352,24,32S253.23,312,240,312Zm0,0" transform="translate(2849 324)" fill="#070B53"/>
        <path id="Path_63" data-name="Path 63" d="M240,40a24,24,0,1,0,24,24A24,24,0,0,0,240,40Zm0,32a8,8,0,1,1,8-8A8,8,0,0,1,240,72Zm0,0" transform="translate(2849 324)" fill="#070B53"/>
        <path id="Path_64" data-name="Path 64" d="M374.168,303.4l-71.5,24.6H177.336l-71.023-24.414a21.065,21.065,0,0,0-27.25,10.66,20.007,20.007,0,0,0,11,26.859l75.68,31.32,2.258,3.2V472a8,8,0,0,0,8,8H304a8,8,0,0,0,8-8V375.625l2.258-3.2,75.7-31.328a20.435,20.435,0,0,0,11.285-11.379,19.761,19.761,0,0,0-.336-15.527A20.911,20.911,0,0,0,374.168,303.4Zm12.23,20.418a4.6,4.6,0,0,1-2.551,2.5L306,358.527a8.07,8.07,0,0,0-3.488,2.785l-5.047,7.2A7.98,7.98,0,0,0,296,373.121V464H184v-90.91a7.98,7.98,0,0,0-1.465-4.609l-5.047-7.2A8.07,8.07,0,0,0,174,358.5L96.215,326.3a4.421,4.421,0,0,1-2.9-4,4.216,4.216,0,0,1,.391-1.6,5.141,5.141,0,0,1,6.93-2.184l72.8,25.039A8.07,8.07,0,0,0,176,344H304a8.2,8.2,0,0,0,2.6-.434l73.246-25.223a4.949,4.949,0,0,1,6.449,2.4,3.944,3.944,0,0,1,.1,3.074Zm0,0" transform="translate(2849 324)" fill="#070B53"/>
        <path id="Path_65" data-name="Path 65" d="M272,440h16v16H272Zm0,0" transform="translate(2849 324)" fill="#070B53"/>
        <path id="Path_66" data-name="Path 66" d="M248,440h16v16H248Zm0,0" transform="translate(2849 324)" fill="#070B53"/>
        <path id="Path_67" data-name="Path 67" d="M272,416h16v16H272Zm0,0" transform="translate(2849 324)" fill="#070B53"/>
        <path id="Path_68" data-name="Path 68" d="M376,64h96a8,8,0,0,0,8-8V8a8,8,0,0,0-8-8H376a8,8,0,0,0-8,8V24H328a8,8,0,0,0-8,8V56H304a8,8,0,0,0-4.426-7.16l-10.4-5.2,3.68-11.055A8.014,8.014,0,0,0,290.93,24.4L279.6,13.09a8,8,0,0,0-8.187-1.891l-11.055,3.68-5.2-10.4A8,8,0,0,0,248,0H232a8,8,0,0,0-7.16,4.426l-5.2,10.4L208.586,11.2a8.008,8.008,0,0,0-8.187,1.93L189.09,24.4a8,8,0,0,0-1.891,8.188l3.68,11.055-10.4,5.2A8,8,0,0,0,176,56H160V32a8,8,0,0,0-8-8H112V8a8,8,0,0,0-8-8H8A8,8,0,0,0,0,8V56a8,8,0,0,0,8,8h96a8,8,0,0,0,8-8V40h32V64a8,8,0,0,0,8,8h24a8,8,0,0,0,4.426,7.16l10.4,5.2-3.68,11.055c-.066.2-.066.395-.113.586H136a8,8,0,0,0-8,8v16H88a8,8,0,0,0-8,8v48a8,8,0,0,0,8,8h96a8,8,0,0,0,8-8V128a8,8,0,0,0-8-8H144v-8h53.5l2.9,2.91a8.008,8.008,0,0,0,8.188,1.93L216,114.4V192H144a8,8,0,0,0-8,8v32H112V216a8,8,0,0,0-8-8H8a8,8,0,0,0-8,8v48a8,8,0,0,0,8,8h96a8,8,0,0,0,8-8V248h32a8,8,0,0,0,8-8V208h72a8,8,0,0,0,8-8V128h16v72a8,8,0,0,0,8,8h72v32a8,8,0,0,0,8,8h32v16a8,8,0,0,0,8,8h96a8,8,0,0,0,8-8V216a8,8,0,0,0-8-8H376a8,8,0,0,0-8,8v16H344V200a8,8,0,0,0-8-8H264V114.4l7.414,2.465a8.006,8.006,0,0,0,8.188-1.926L282.5,112H336v8H296a8,8,0,0,0-8,8v48a8,8,0,0,0,8,8h96a8,8,0,0,0,8-8V128a8,8,0,0,0-8-8H352V104a8,8,0,0,0-8-8H292.953c-.051-.191-.051-.391-.113-.586l-3.68-11.055,10.4-5.2A8,8,0,0,0,304,72h24a8,8,0,0,0,8-8V40h32V56a8,8,0,0,0,8,8Zm8-48h80V48H384ZM96,48H16V16H96Zm80,120H96V136h80ZM96,256H16V224H96Zm288-32h80v32H384Zm0-56H304V136h80ZM277.6,72.266a7.994,7.994,0,0,0-3.922,4.352c-.289.8-.59,1.543-.937,2.285a8.017,8.017,0,0,0-.309,5.852l3.68,11.031-4.32,4.32-11.031-3.68a8.017,8.017,0,0,0-5.852.309c-.742.336-1.512.648-2.285.938a7.982,7.982,0,0,0-4.359,3.922l-5.2,10.4h-6.109l-5.211-10.4a7.994,7.994,0,0,0-4.352-3.922c-.8-.289-1.543-.594-2.285-.937a8.007,8.007,0,0,0-5.848-.309l-11.035,3.68-4.32-4.32,3.684-11.043a8.01,8.01,0,0,0-.312-5.855c-.344-.734-.648-1.5-.937-2.27a7.982,7.982,0,0,0-3.922-4.359l-10.4-5.2V60.945l10.4-5.2a7.982,7.982,0,0,0,3.922-4.359c.289-.8.6-1.543.938-2.285a8.017,8.017,0,0,0,.313-5.852L203.9,32.215l4.32-4.32,11.035,3.68a8.088,8.088,0,0,0,5.848-.309c.742-.336,1.512-.648,2.285-.937a8,8,0,0,0,4.363-3.922l5.2-10.4h6.109l5.2,10.4a7.982,7.982,0,0,0,4.359,3.922c.8.289,1.543.6,2.285.938a8.077,8.077,0,0,0,5.852.309l11.031-3.68,4.32,4.32-3.68,11.031a7.985,7.985,0,0,0,.3,5.832c.344.754.656,1.523.945,2.3a7.982,7.982,0,0,0,3.922,4.359l10.4,5.2v6.109Zm0,0" transform="translate(2849 324)" fill="#070B53"/>
      </g>
    </g>
  </g>
</svg>
