<svg xmlns="http://www.w3.org/2000/svg" xmlns:xlink="http://www.w3.org/1999/xlink" width="289" height="243" viewBox="0 0 289 243">
  <defs>
    <clipPath id="clip-Loans">
      <rect width="289" height="243"/>
    </clipPath>
  </defs>
  <g id="Loans" clip-path="url(#clip-Loans)">
    <g id="Group_1166" data-name="Group 1166" transform="translate(46.01 9.596)">
      <path id="Path_2464" data-name="Path 2464" d="M179.678,242.085H21.221c-5.084,0-9.253-2.908-9.253-6.474v-2.588a5.475,5.475,0,0,1,2.213-4.188H9.243c-5.084,0-9.253-2.908-9.253-6.474s4.16-6.474,9.253-6.474H23.406c-2.917-1.088-4.91-3.246-4.91-5.706,0-3.557,4.16-6.474,9.253-6.474H131.821l5.934,19.823,3.822-1.317-2.789-18.506h49.8c5.084,0,9.253,2.908,9.253,6.474s-4.16,6.474-9.253,6.474l-19.046-.091a3.944,3.944,0,0,1,3.264,2.725,5.677,5.677,0,0,1-.869,6.035,4.752,4.752,0,0,1-2.99,1.362l10.716-.146c5.084,0,9.253,2.908,9.253,6.474V235.6c.009,3.566-4.151,6.483-9.244,6.483" transform="translate(0 -17.448)" fill="#ecebeb"/>
      <path id="Path_2465" data-name="Path 2465" d="M110.655,96.369l.439,3.347-1.417,2.185-2.3-.338-.3-3.849,3.127-1.564Z" transform="translate(-9.172 -8.235)" fill="#eacdb0"/>
      <path id="Path_2466" data-name="Path 2466" d="M83.91,93.47l16.285,21.4,3.118-14.044,5.8,1.115-3.347,21.185-5.623,3.9-14.895-9.93Z" transform="translate(-7.188 -8.006)" fill="#afccdc"/>
      <path id="Path_2467" data-name="Path 2467" d="M148.09,97.13l5.129,3.785,20.3,28.107-.9,6.693h-9.143L143.18,108.5l4.91-11.375" transform="translate(-12.264 -8.319)" fill="#8bae9f"/>
      <path id="Path_2468" data-name="Path 2468" d="M51.658,224.6l-.558,2.524,4.371,3.6,3.017-1.993-1.911-3.063-4.371-3.6Z" transform="translate(-4.378 -19.02)" fill="#3a3029"/>
      <path id="Path_2469" data-name="Path 2469" d="M66.981,139.78l-4.873,11.237-.466,31.636L51.62,216.677l4.663,2.066,20.454-39.509,2.332-12.508.923-26.361Z" transform="translate(-4.422 -11.972)" fill="#8c9499"/>
      <path id="Path_2470" data-name="Path 2470" d="M92.34,142.251l.384,33.154L86.47,218.151h-4.8l-3.036-39.445L72.06,139.27Z" transform="translate(-6.173 -11.928)" fill="#8c9499"/>
      <path id="Path_2471" data-name="Path 2471" d="M82.6,224.91v2.6l5.194,2.6,2.6-2.6-2.6-2.6Z" transform="translate(-7.076 -19.264)" fill="#3a3029"/>
      <path id="Path_2472" data-name="Path 2472" d="M81.459,93.4,68.695,92.92s-7.635,6.7-11.576,24.1c-4.014,17.72.741,43.24.741,43.24S92.093,155.7,97.707,155L89.14,120,81.459,93.4Z" transform="translate(-4.755 -7.958)" fill="#afccdc"/>
      <path id="Path_2473" data-name="Path 2473" d="M78.219,93.364l-4.471-.439a22.119,22.119,0,0,1,.238-3.566c-1.244-.439-2.679-1.088-2.9-2.386a3.517,3.517,0,0,1,.073-1.234c.293-1.692.576-3.383.869-5.065a4.579,4.579,0,0,1,.521-1.682,3.822,3.822,0,0,1,2.661-1.445,9.263,9.263,0,0,1,7.5,1.82,4.106,4.106,0,0,1,1.271,1.664,5.522,5.522,0,0,1-.183,3.209c-.256.969-.512,1.948-.759,2.917-.293,1.115-.713,2.386-1.792,2.816a8.685,8.685,0,0,0-1.765.494c-.914.567-.786,1.929-1.262,2.9Z" transform="translate(-6.087 -6.629)" fill="#eacdb0"/>
      <path id="Path_2474" data-name="Path 2474" d="M92.262,75.7a14.538,14.538,0,0,0-.366-3.383c-.393-1.81-2.542-2.633-4.389-2.761-4-.274-7.863-2.094-11.777-.695-2.231.8-5.239,1-7.26,2.121A5.988,5.988,0,0,0,66.432,73a8.984,8.984,0,0,0-.009,9.509,13.626,13.626,0,0,0,1.4,1.765c1.052,1.143,2.322,2.551,3.767,2.972.037-1.3-1.152-5.385-.155-6.455,1.582-1.692,5.157-1.106,7.123-.695,2.14.448,4.051,1.966,6.172,2.286A8.05,8.05,0,0,0,89.5,81.077,6.067,6.067,0,0,0,92.262,75.7Z" transform="translate(-5.574 -5.853)" fill="#3a3029"/>
      <path id="Path_2475" data-name="Path 2475" d="M79.491,95.1,92.9,148.752l1.1,7.04L77.287,158s.658-25.693.439-29.122-2.7-10.835-3.081-18.817c-.219-4.617-1.682-12.911-.658-15.617l5.5.658Z" transform="translate(-6.307 -8.089)" fill="#fff"/>
      <path id="Path_2476" data-name="Path 2476" d="M130.995,76.215s-2.368,1.938-1.253,9.079a44.06,44.06,0,0,1,.448,11.823s2.45,1.116,4.233,0,2.45-1.335,1.783-4.233-2.012-16.723-2.012-16.723l-3.2.055Z" transform="translate(-11.088 -6.523)" fill="#9e6652"/>
      <path id="Path_2477" data-name="Path 2477" d="M154.166,224.527l.21,2.057-3.731,2.56-2.176-1.8,1.756-2.313,3.731-2.56Z" transform="translate(-12.718 -19.055)" fill="#514943"/>
      <path id="Path_2478" data-name="Path 2478" d="M153.169,155.886l.631,6.245-5.6,21.46,5.193,34.48-3.822,1.326L139.49,185.721l-1.6-9.793.064-20.728,15.215.686" transform="translate(-11.811 -13.293)" fill="#cbb5a2"/>
      <path id="Path_2479" data-name="Path 2479" d="M122.43,163.067l8.046,57.787h3.657l.658-37.04,6.656-26Z" transform="translate(-10.487 -13.516)" fill="#cbb5a2"/>
      <path id="Path_2480" data-name="Path 2480" d="M134.654,226.26v2.076l-3.959,2.076-1.975-2.076,1.975-2.076Z" transform="translate(-11.026 -19.379)" fill="#514943"/>
      <path id="Path_2481" data-name="Path 2481" d="M131.484,99.034c.073-.128.155-.247.229-.375,2.871-4.352,9.372-1.618,13.624-1.618,1.161,12.28,4.389,23.992,6.464,36.044q3.319,19.215,7.461,38.265c.119.53-5.943.475-9.527.411-1.262-.018-2.222-.046-2.487-.037-10.707.183-24.715.146-35.038-3.1,6.592-17.72,9-36.793,14.191-54.971,1.143-4.014,2.386-7.964,3.849-11.832a16.484,16.484,0,0,1,1.234-2.789" transform="translate(-9.612 -8.239)" fill="#8bae9f"/>
      <path id="Path_2482" data-name="Path 2482" d="M136.9,78.463a7.22,7.22,0,0,0-5.139,6.053,6.361,6.361,0,0,1,1.4-10.3,7.344,7.344,0,0,1,3.539,4.3l.2-.055Z" transform="translate(-11.113 -6.357)" fill="#9e6652"/>
      <path id="Path_2483" data-name="Path 2483" d="M131.506,82.362c1.4-7.406,10.634-6.126,13.285-.128,1.509,3.411,1.152,10.067-3.081,11.182-.064.658-.146,1.884-.649,2.322-.539.475-2.249.018-2.917-.137a1.135,1.135,0,0,1-.512-.229,2.008,2.008,0,0,1-.2-1.125,6.05,6.05,0,0,1-1.509-.3,7.144,7.144,0,0,1-4.343-4.864,14.268,14.268,0,0,1-.073-6.72Z" transform="translate(-11.233 -6.617)" fill="#eacdb0"/>
      <path id="Path_2484" data-name="Path 2484" d="M133.664,73.863s-.9,4.014,4.233,5.13,8.458,5.129,7.58,9.363-4.672,7.36-2.67,8.476,9.363,0,9.363,0,4.462-14.94-1.564-21.414-14.712-6.684-16.943-1.554Z" transform="translate(-11.444 -6.018)" fill="#9e6652"/>
      <path id="Path_2485" data-name="Path 2485" d="M132.705,97.7l-3.529,2.268-16.486,19.96.448,5.568H120.8l13.971-22.072L132.705,97.7" transform="translate(-9.653 -8.368)" fill="#8bae9f"/>
      <path id="Path_2486" data-name="Path 2486" d="M173.482,117.176c-15.645-2.642-20.271-12.252-20.865-13.633,0,0,.018-.11-.037-.082-.018-.055-.082.037-.082.037-1.381.594-11.365,4.361-24.514-4.517,0,0-12.563,25.017-8.4,38.933,4.453,14.867,10.652,21.3,10.7,21.286.027.046,9-.247,22.429-8.046,12.581-7.278,20.774-33.977,20.774-33.977" transform="translate(-10.171 -8.478)" fill="#066599"/>
      <path id="Path_2487" data-name="Path 2487" d="M170.508,119.324c-14.172-2.45-18.424-11.054-18.964-12.289,0,0,.018-.091-.027-.073-.018-.046-.073.027-.073.027-1.243.521-10.259,3.822-22.209-4.169,0,0-11.228,22.255-7.37,34.709,4.115,13.295,9.509,19.7,9.555,19.686.027.037,8.394-.786,20.509-7.662,11.329-6.437,18.58-30.228,18.58-30.228" transform="translate(-10.37 -8.806)" fill="#4498c6"/>
      <path id="Path_2488" data-name="Path 2488" d="M170.3,121.908c-.009,0-.027-.009-.037-.009.594-1.673.905-2.688.905-2.688-14.172-2.45-18.424-11.054-18.964-12.289,0,0,.009-.073-.018-.073h-.009c-.009-.009-.009-.018-.018-.018-.027,0-.055.046-.055.046a17.317,17.317,0,0,1-6.474,1.116c-3.959,0-9.436-1.079-15.736-5.294,0,0-.475.951-1.207,2.569-.018-.009-.027-.018-.046-.027,1.006-2.322,1.728-3.74,1.728-3.74,6.3,4.215,11.777,5.294,15.736,5.294a17.317,17.317,0,0,0,6.474-1.116s.027-.046.055-.046c.009,0,.018,0,.018.018h.009c.037,0,.018.073.018.073.539,1.234,4.791,9.838,18.964,12.289-.009,0-.466,1.518-1.344,3.9" transform="translate(-11.019 -8.693)" fill="#076090"/>
      <path id="Path_2489" data-name="Path 2489" d="M170.255,122.01c-14.127-2.761-18.415-11.438-18.973-12.709,0,0,.018-.082-.018-.082h-.009c-.009-.009-.009-.018-.018-.018-.027,0-.055.046-.055.046a18.159,18.159,0,0,1-6.775,1.17c-3.987,0-9.445-1.042-15.727-5.047.722-1.618,1.207-2.569,1.207-2.569,6.3,4.215,11.777,5.294,15.736,5.294a17.317,17.317,0,0,0,6.474-1.116s.027-.046.055-.046c.009,0,.018,0,.018.018h.009c.037,0,.018.073.018.073.539,1.234,4.791,9.838,18.964,12.289,0,.009-.311,1.033-.905,2.7" transform="translate(-11.023 -8.805)" fill="#418fb9"/>
      <path id="Path_2490" data-name="Path 2490" d="M133.828,153.041h-.037c-.046,0-4.288-4.416-7.333-14.593-2.853-9.546,4.553-26.918,4.553-26.918a22.687,22.687,0,0,0,12.773,4.105,15.468,15.468,0,0,0,5.23-.786s.027-.037.046-.037.009,0,.018.009h.009c.027,0,.018.055.018.055.4.951,4.663,8.238,15.389,10.049,0,0-6.693,17.6-15.315,22.594-8.814,5.111-14.812,5.523-15.352,5.523" transform="translate(-10.776 -9.552)" fill="#85bbd9"/>
      <path id="Path_2491" data-name="Path 2491" d="M67.586,92.98l-6.026,3.347L41.71,125.769l1.783,7.58,10.926-1.335Z" transform="translate(-3.573 -7.964)" fill="#afccdc"/>
      <path id="Path_2492" data-name="Path 2492" d="M99.4,136.1,57.221,147.031,49.54,117.37l18.049-17.19,24.13,6.263Z" transform="translate(-4.244 -8.58)" fill="#f4ae1a"/>
      <path id="Path_2493" data-name="Path 2493" d="M101.151,102.107q-5.8-1.495-11.594-3L70.812,94.253c-1.509-.393-3.017-.823-4.535-1.17a2.614,2.614,0,0,0-2.514.7c-.448.43-.878.869-1.317,1.308L49.737,107.721c-3.438,3.411-6.931,6.775-10.314,10.25l-.174.174a2.25,2.25,0,0,0,3.173,3.191q4.183-4.156,8.357-8.311,6.638-6.583,13.267-13.176c.713-.713,1.426-1.417,2.149-2.13q5.253,1.358,10.506,2.725,9.45,2.441,18.89,4.892c1.445.375,2.88.75,4.325,1.116a2.3,2.3,0,0,0,2.78-1.554,2.273,2.273,0,0,0-1.545-2.789Z" transform="translate(-3.307 -7.966)" fill="#2f4761"/>
      <path id="Path_2494" data-name="Path 2494" d="M74.057,143.984l-10.277,2.661L58.65,126.831l10.277-2.661Z" transform="translate(-5.024 -10.635)" fill="#fffef3"/>
      <path id="Path_2495" data-name="Path 2495" d="M84.32,125.393l-5.6,1.445-1.234-4.773,5.6-1.445Z" transform="translate(-6.638 -10.331)" fill="#fffef3"/>
      <path id="Path_2496" data-name="Path 2496" d="M92.33,123.313l-5.6,1.454L85.5,119.994l5.6-1.454Z" transform="translate(-7.324 -10.153)" fill="#fffef3"/>
      <path id="Path_2497" data-name="Path 2497" d="M86.17,132.533l-5.6,1.445L79.34,129.2l5.6-1.445Z" transform="translate(-6.796 -10.943)" fill="#fffef3"/>
      <path id="Path_2498" data-name="Path 2498" d="M94.18,130.453l-5.6,1.454-1.234-4.773,5.587-1.454Z" transform="translate(-7.483 -10.764)" fill="#fffef3"/>
      <path id="Path_2499" data-name="Path 2499" d="M41.71,128.631l7.361-2.231L73.6,139.557l-1.893,5.13-28.217-8.476Z" transform="translate(-3.573 -10.826)" fill="#afccdc"/>
      <path id="Path_2500" data-name="Path 2500" d="M76.1,141.769l4.343-.009,3.465,4.179L80,147.338l-5.258-1.874Z" transform="translate(-6.402 -12.142)" fill="#eacdb0"/>
      <path id="Path_2501" data-name="Path 2501" d="M173.811,131.759l-8.257-2.679L146.6,131.092l.219,5.8,26.1,2.9Z" transform="translate(-12.557 -11.056)" fill="#8bae9f"/>
      <path id="Path_2502" data-name="Path 2502" d="M145.755,132.065l-4.453-.055-4.462,2.67,1.783,2.46,4.462-.448,2.834-1.28Z" transform="translate(-11.721 -11.307)" fill="#eacdb0"/>
      <path id="Path_2503" data-name="Path 2503" d="M113.133,4.453V2.268L112.128.211a.693.693,0,0,0-1.006.018l-.841,2.039V4.453c-.8,0-2.085.622-2.085,1.39a1.411,1.411,0,0,0,1.436,1.39h.649V81.3c0,4.179-2.213,7.653-5.386,7.58-2.46-.055-4.608-2.149-4.965-5.559a1.5,1.5,0,0,0-1.509-1.335h-.064a1.487,1.487,0,0,0-1.509,1.637c.631,4.855,4.48,8.33,8.138,8.33a7.271,7.271,0,0,0,6.565-3.712c1.692-2.953,1.582-6.2,1.582-9.445V7.242h.448a1.411,1.411,0,0,0,1.436-1.39c-.009-.777-1.1-1.4-1.884-1.4" transform="translate(-8.295 0)" fill="#5a595b"/>
      <path id="Path_2504" data-name="Path 2504" d="M111.527,46.562l-.027-.027V41.57h.027v4.992" transform="translate(-9.551 -3.56)" fill="#bdbdbd"/>
      <path id="Path_2505" data-name="Path 2505" d="M114.393,49.534l-2.853-2.972V41.57h2.853v7.964" transform="translate(-9.554 -3.56)" fill="#424343"/>
      <path id="Path_2506" data-name="Path 2506" d="M87.208,53.138l.512-3.173A74.579,74.579,0,0,1,100.073,19.4L108.091,7.85A52.037,52.037,0,0,0,58.68,53.211a50.571,50.571,0,0,1,14.355-1.984,52.235,52.235,0,0,1,14.172,1.911Z" transform="translate(-5.027 -0.672)" fill="#00a3a0"/>
      <path id="Path_2507" data-name="Path 2507" d="M133.841,46.76l1.372,6.8h.512a49.663,49.663,0,0,1,15.462-2.341,50.674,50.674,0,0,1,15.526,2.322A52.079,52.079,0,0,0,115.014,7.8c-.558,0-1.115.009-1.664.027l6.41,9.372c7.854,9.665,11.466,19.457,14.081,29.561Z" transform="translate(-9.709 -0.668)" fill="#00a3a0"/>
      <path id="Path_2508" data-name="Path 2508" d="M90.4,49.972l-.512,3.173c.046.009.091.027.137.037,5.4-2.4,12.819-3.785,21-3.785,8.622,0,16.394,1.527,21.88,4.169h.311l-1.372-6.8c-2.624-10.113-6.227-19.9-14.081-29.561l-6.41-9.372c-.192.009-.384.009-.576.018L102.764,19.4A74.382,74.382,0,0,0,90.4,49.972Z" transform="translate(-7.7 -0.67)" fill="#16c3c0"/>
      <path id="Path_2509" data-name="Path 2509" d="M89.878,57.38l-.018.11c.055-.027.1-.046.155-.073a.763.763,0,0,1-.137-.037Z" transform="translate(-7.698 -4.914)" fill="#fff"/>
      <path id="Path_2510" data-name="Path 2510" d="M112.69,121.957l7.214-.567,13.3,14.84-2.9,2.9-17.171-11.6Z" transform="translate(-9.653 -10.397)" fill="#8bae9f"/>
      <path id="Path_2511" data-name="Path 2511" d="M134.32,138.29l2.844,2.286.229,4.233h-2.46l-2.1-5.029Z" transform="translate(-11.378 -11.844)" fill="#eacdb0"/>
      <path id="Path_2512" data-name="Path 2512" d="M105.487,100.914,104.07,98.4l.082-3.959,1.335.448.448,2.012,2.45,2.231-.722,2.286Z" transform="translate(-8.915 -8.089)" fill="#eacdb0"/>
      <path id="Path_2513" data-name="Path 2513" d="M105.67,97.543l.32-2.588,2.642-1.966,1.8,1.4-.421,2.158Z" transform="translate(-9.052 -7.964)" fill="#eacdb0"/>
    </g>
  </g>
</svg>
