<svg xmlns="http://www.w3.org/2000/svg" xmlns:xlink="http://www.w3.org/1999/xlink" width="289" height="243" viewBox="0 0 289 243">
  <defs>
    <clipPath id="clip-cards">
      <rect width="289" height="243"/>
    </clipPath>
  </defs>
  <g id="cards" clip-path="url(#clip-cards)">
    <g id="Group_1163" data-name="Group 1163" transform="translate(10.99 10.999)">
      <path id="Path_1974" data-name="Path 1974" d="M155.55,334.221l-.016.1H20.56c1.052-3.542,4-6.408,7.349-8.105,3.775-1.909,8.042-2.554,12.229-3.172a33.46,33.46,0,0,1-7.307-13.863c-1-3.907-.92-8.792,2.4-11.071,2.2-1.517,5.144-1.359,7.746-.756a28.418,28.418,0,0,1,12.7,6.619,57.208,57.208,0,0,1,1.015-21.132c1-4.182,3.061-8.824,7.227-9.9,3.764-.983,7.587,1.47,10.268,4.293a31.4,31.4,0,0,1,7.867,14.962c4.214-7.481,8.591-15.163,15.338-20.472,3.564-2.8,8.533-4.875,12.557-2.77,2.85,1.491,4.4,4.764,4.69,7.968s-.5,6.392-1.285,9.5q-1.57,6.273-3.135,12.53a46.171,46.171,0,0,1,16.728-6.376c2.4-.407,5.017-.582,7.138.613,2.934,1.66,3.981,5.552,3.326,8.856s-2.622,6.175-4.557,8.935q-2.728,3.9-5.456,7.793a22.71,22.71,0,0,1,28.154,15.449Z" transform="translate(-9.685 -126.349)" fill="#00a3a0"/>
      <path id="Path_1975" data-name="Path 1975" d="M108.62,317.093v39.8a.4.4,0,0,0,.8-.005v-39.8a.4.4,0,0,0-.8.005Z" transform="translate(-51.187 -149.259)" fill="#a5d6da"/>
      <path id="Path_1976" data-name="Path 1976" d="M167.139,335.987q-3.664,4.6-6.979,9.469V333.237a.372.372,0,0,0,.042-.211q2.744-4.417,5.842-8.6c.307-.412-.386-.809-.693-.4q-2.736,3.688-5.192,7.582V313.02a.4.4,0,0,0-.8.005v19.393c-2.834-1.364-5.9-2.2-8.655-3.717-.449-.249-.851.444-.4.693,2.9,1.586,6.117,2.432,9.057,3.912v12.076c-2.532-1.438-5.028-2.934-7.471-4.515-.434-.28-.83.412-.4.693q3.854,2.5,7.872,4.748v8.132a.4.4,0,0,0,.8-.005v-7.6c.016-.021.037-.032.053-.053q3.537-5.258,7.481-10.225c.317-.4-.243-.973-.561-.571Z" transform="translate(-70.74 -147.343)" fill="#a5d6da"/>
      <path id="Path_1977" data-name="Path 1977" d="M115.842,326.14a105.031,105.031,0,0,0-7.159,9.876c-.275.433.412.83.693.4a103.677,103.677,0,0,1,7.027-9.707c.323-.391-.238-.962-.56-.566Z" transform="translate(-51.187 -153.643)" fill="#a5d6da"/>
      <path id="Path_1978" data-name="Path 1978" d="M116.675,361.988a110.493,110.493,0,0,0-7.851,9.622c-.3.412.391.809.693.4a110.226,110.226,0,0,1,7.719-9.453c.344-.375-.217-.946-.56-.566Z" transform="translate(-51.248 -170.542)" fill="#a5d6da"/>
      <path id="Path_1979" data-name="Path 1979" d="M103.184,356.745a25.073,25.073,0,0,0-3.061-3.516q-1.665-1.792-3.336-3.59c-.349-.375-.92.185-.566.56q1.618,1.745,3.246,3.49c.534.571,1.068,1.147,1.6,1.718a11.839,11.839,0,0,1,1.433,1.734c.27.433.962.037.687-.4Z" transform="translate(-45.291 -164.723)" fill="#a5d6da"/>
      <path id="Path_1980" data-name="Path 1980" d="M103.8,324.907q-2.9-3.275-6.1-6.265c-.375-.349-.941.212-.566.56q3.2,2.99,6.1,6.265c.338.381.9-.18.566-.56Z" transform="translate(-45.714 -150.121)" fill="#a5d6da"/>
      <path id="Path_1981" data-name="Path 1981" d="M330.21,334.262l-.016.1H195.22c1.052-3.542,4-6.408,7.349-8.105,3.775-1.909,8.042-2.554,12.229-3.178a33.459,33.459,0,0,1-7.307-13.863c-1-3.907-.92-8.792,2.4-11.071,2.2-1.517,5.144-1.359,7.746-.756a28.418,28.418,0,0,1,12.7,6.619,57.209,57.209,0,0,1,1.015-21.133c1-4.182,3.061-8.824,7.227-9.9,3.764-.978,7.587,1.47,10.268,4.293a31.4,31.4,0,0,1,7.867,14.962c4.214-7.481,8.591-15.163,15.338-20.466,3.564-2.8,8.533-4.875,12.557-2.77,2.85,1.491,4.4,4.764,4.69,7.968s-.5,6.392-1.285,9.5q-1.57,6.273-3.135,12.53a46.1,46.1,0,0,1,16.728-6.371c2.4-.407,5.017-.582,7.138.613,2.934,1.66,3.981,5.552,3.326,8.856s-2.622,6.175-4.558,8.935q-2.728,3.9-5.456,7.793a22.708,22.708,0,0,1,28.154,15.444Z" transform="translate(-92.001 -126.368)" fill="#00a3a0"/>
      <path id="Path_1982" data-name="Path 1982" d="M283.27,317.133v39.8a.4.4,0,0,0,.8-.005v-39.8a.4.4,0,0,0-.8.005Z" transform="translate(-133.498 -149.278)" fill="#a5d6da"/>
      <path id="Path_1983" data-name="Path 1983" d="M341.8,336.025q-3.664,4.6-6.979,9.469V333.276a.422.422,0,0,0,.042-.211q2.744-4.417,5.842-8.6c.307-.412-.386-.809-.693-.4q-2.736,3.688-5.192,7.582V313.058a.4.4,0,0,0-.8.005v19.393c-2.834-1.364-5.89-2.2-8.655-3.717-.449-.243-.851.444-.4.693,2.892,1.586,6.117,2.432,9.057,3.912V345.42q-3.8-2.149-7.471-4.515c-.434-.28-.83.412-.4.693q3.854,2.5,7.867,4.748v8.131a.4.4,0,0,0,.8-.005v-7.6c.016-.021.037-.032.053-.053q3.537-5.258,7.486-10.225c.312-.4-.248-.973-.566-.571Z" transform="translate(-153.057 -147.36)" fill="#a5d6da"/>
      <path id="Path_1984" data-name="Path 1984" d="M290.5,326.18a105.016,105.016,0,0,0-7.159,9.876c-.275.433.412.83.693.4a103.65,103.65,0,0,1,7.027-9.707c.322-.391-.238-.962-.56-.566Z" transform="translate(-133.503 -153.662)" fill="#a5d6da"/>
      <path id="Path_1985" data-name="Path 1985" d="M291.335,362.028a110.475,110.475,0,0,0-7.851,9.623c-.3.412.391.809.693.4A109.266,109.266,0,0,1,291.9,362.6c.338-.381-.222-.952-.566-.571Z" transform="translate(-133.564 -170.561)" fill="#a5d6da"/>
      <path id="Path_1986" data-name="Path 1986" d="M277.838,356.785a25.061,25.061,0,0,0-3.061-3.516q-1.673-1.792-3.341-3.59c-.349-.375-.915.185-.571.56q1.626,1.745,3.246,3.484c.534.571,1.068,1.147,1.6,1.718a11.827,11.827,0,0,1,1.433,1.734c.28.439.973.042.7-.391Z" transform="translate(-127.601 -164.742)" fill="#a5d6da"/>
      <path id="Path_1987" data-name="Path 1987" d="M278.455,324.936q-2.9-3.275-6.1-6.265c-.375-.349-.946.206-.566.56q3.2,2.99,6.1,6.265c.338.386.9-.175.566-.56Z" transform="translate(-128.027 -150.134)" fill="#a5d6da"/>
      <path id="Path_1988" data-name="Path 1988" d="M15.817,285.862l3.548,3.548,1.919-1.919-3.548-3.547,3.521-3.527L19.339,278.5l-3.521,3.527L12.291,278.5l-1.919,1.919,3.526,3.527-3.526,3.521,1.919,1.919,3.526-3.521Zm3.548,4.5-3.548-3.548-3.526,3.521L9.42,287.464l3.526-3.521L9.42,280.416l2.871-2.876,3.526,3.527,3.521-3.527,2.876,2.876-3.521,3.527,3.548,3.547-2.876,2.876Z" transform="translate(-4.435 -130.802)" fill="#e86946"/>
      <path id="Path_1989" data-name="Path 1989" d="M39.526,221.8l4.933,4.029,4.034-4.933-4.933-4.029L39.526,221.8Zm5.028,4.98-5.98-4.891,4.885-5.98,5.98,4.89-4.885,5.98Zm-8.332-4.653,8.57,7.005,7.005-8.57-8.57-7.005-7.005,8.57Zm8.66,7.957-9.612-7.857,7.862-9.617,9.617,7.862-7.867,9.612Z" transform="translate(-16.618 -100.201)" fill="#e86946"/>
      <path id="Path_1990" data-name="Path 1990" d="M60.3,277.373a4.185,4.185,0,1,0-4.187,4.187,4.186,4.186,0,0,0,4.187-4.187Zm-4.187-6.683a6.683,6.683,0,1,1-6.683,6.678,6.69,6.69,0,0,1,6.683-6.678Z" transform="translate(-23.291 -127.573)" fill="#bce0e5"/>
      <path id="Path_1991" data-name="Path 1991" d="M89.252,237.253a2.459,2.459,0,1,0-2.458,2.459,2.461,2.461,0,0,0,2.458-2.459Zm-2.458-3.923a3.926,3.926,0,1,1-3.923,3.923,3.93,3.93,0,0,1,3.923-3.923Z" transform="translate(-39.051 -109.966)" fill="#fde468"/>
      <path id="Path_1992" data-name="Path 1992" d="M100.829,206.943l-4.5-3.109,3.109-4.5,4.5,3.109Z" transform="translate(-45.395 -93.942)" fill="#bce0e5"/>
      <path id="Path_1993" data-name="Path 1993" d="M213.5,224.1a3.336,3.336,0,1,1-3.336-3.336A3.336,3.336,0,0,1,213.5,224.1Z" transform="translate(-97.472 -104.042)" fill="#bce0e5"/>
      <path id="Path_1994" data-name="Path 1994" d="M491.925,213.678l1.919-1.919-3.526-3.521,3.526-3.527-1.919-1.919-3.526,3.526-3.521-3.526-1.919,1.919,3.521,3.527-3.548,3.548,1.919,1.919,3.548-3.548,3.526,3.521Zm-9.945-1.888,3.548-3.548-3.521-3.527,2.876-2.876,3.521,3.526,3.526-3.526,2.876,2.876-3.527,3.527,3.527,3.521-2.876,2.876-3.526-3.521-3.548,3.548-2.876-2.876Z" transform="translate(-227.148 -95.125)" fill="#f7ba5e"/>
      <path id="Path_1995" data-name="Path 1995" d="M409.029,222.031l-4.933,4.034L408.125,231l4.933-4.034-4.029-4.933Zm-5.885,3.934,5.98-4.891,4.885,5.98-5.98,4.891-4.885-5.98Zm6.212-7.238-8.57,7.005,7.005,8.57,8.57-7.005-7.005-8.57Zm-9.517,6.9,9.617-7.862,7.862,9.617-9.617,7.862-7.862-9.617Z" transform="translate(-188.436 -102.633)" fill="#fff"/>
      <path id="Path_1996" data-name="Path 1996" d="M475.5,253.44a4.185,4.185,0,1,0-4.187-4.187,4.189,4.189,0,0,0,4.188,4.187Zm6.677-4.187a6.685,6.685,0,1,1-6.683-6.683,6.695,6.695,0,0,1,6.683,6.683Z" transform="translate(-220.941 -114.321)" fill="#bce0e5"/>
      <path id="Path_1997" data-name="Path 1997" d="M452.738,208.277a2.461,2.461,0,1,0-2.464-2.464,2.465,2.465,0,0,0,2.464,2.464Zm3.923-2.464a3.926,3.926,0,1,1-3.923-3.923,3.933,3.933,0,0,1,3.923,3.923Z" transform="translate(-211.516 -95.149)" fill="#e86946"/>
      <path id="Path_1998" data-name="Path 1998" d="M426.449,215.388l4.5-3.1-3.1-4.5-4.5,3.109Z" transform="translate(-199.512 -97.925)" fill="#f7ba5e"/>
      <path id="Path_1999" data-name="Path 1999" d="M416.551,250.321a1.761,1.761,0,1,1-1.76-1.761,1.76,1.76,0,0,1,1.76,1.761Z" transform="translate(-194.653 -117.144)" fill="#e86946"/>
      <path id="Path_2000" data-name="Path 2000" d="M486.42,292.775a2.485,2.485,0,1,1-2.485-2.485,2.485,2.485,0,0,1,2.485,2.485Z" transform="translate(-226.898 -136.811)" fill="#e86946"/>
      <path id="Path_2001" data-name="Path 2001" d="M4.567,336.129a2.279,2.279,0,1,1-2.279-2.279,2.279,2.279,0,0,1,2.279,2.279Z" transform="translate(0 -157.34)" fill="#e86946"/>
      <path id="Path_2002" data-name="Path 2002" d="M115.517,174.108a2.178,2.178,0,1,1-2.178-2.178,2.179,2.179,0,0,1,2.178,2.178Z" transform="translate(-52.384 -81.029)" fill="#f7ba5e"/>
      <path id="Path_2003" data-name="Path 2003" d="M159.658,384.6v4.69H122.04V384.6Z" transform="translate(-57.512 -181.258)" fill="#f7ba5e"/>
      <path id="Path_2004" data-name="Path 2004" d="M159.658,377.55v3.727H122.04V377.55Z" transform="translate(-57.512 -177.936)" fill="#f4ae47"/>
      <path id="Path_2005" data-name="Path 2005" d="M159.658,370.51v3.722H122.04V370.51Z" transform="translate(-57.512 -174.618)" fill="#f7ba5e"/>
      <path id="Path_2006" data-name="Path 2006" d="M159.658,363.46v3.727H122.04V363.46Z" transform="translate(-57.512 -171.295)" fill="#f4ae47"/>
      <path id="Path_2007" data-name="Path 2007" d="M159.658,356.41v3.727H122.04V356.41Z" transform="translate(-57.512 -167.973)" fill="#f7ba5e"/>
      <path id="Path_2008" data-name="Path 2008" d="M159.658,349.37v3.722H122.04V349.37Z" transform="translate(-57.512 -164.655)" fill="#f4ae47"/>
      <path id="Path_2009" data-name="Path 2009" d="M159.658,342.32v3.727H122.04V342.32Z" transform="translate(-57.512 -161.332)" fill="#f7ba5e"/>
      <path id="Path_2010" data-name="Path 2010" d="M159.658,335.27V339H122.04V335.27Z" transform="translate(-57.512 -158.009)" fill="#f4ae47"/>
      <path id="Path_2011" data-name="Path 2011" d="M159.658,328.23v3.722H122.04V328.23Z" transform="translate(-57.512 -154.692)" fill="#f7ba5e"/>
      <path id="Path_2012" data-name="Path 2012" d="M159.658,321.18v3.728H122.04V321.18Z" transform="translate(-57.512 -151.369)" fill="#f4ae47"/>
      <path id="Path_2013" data-name="Path 2013" d="M159.658,314.13v3.727H122.04V314.13Z" transform="translate(-57.512 -148.046)" fill="#f7ba5e"/>
      <path id="Path_2014" data-name="Path 2014" d="M159.658,307.09v3.722H122.04V307.09Z" transform="translate(-57.512 -144.728)" fill="#f4ae47"/>
      <path id="Path_2015" data-name="Path 2015" d="M159.658,300.04v3.727H122.04V300.04Z" transform="translate(-57.512 -141.406)" fill="#f7ba5e"/>
      <path id="Path_2016" data-name="Path 2016" d="M159.658,292.99v3.727H122.04V292.99Z" transform="translate(-57.512 -138.083)" fill="#f4ae47"/>
      <path id="Path_2017" data-name="Path 2017" d="M159.658,285.95v3.722H122.04V285.95Z" transform="translate(-57.512 -134.765)" fill="#f7ba5e"/>
      <path id="Path_2018" data-name="Path 2018" d="M159.658,278.9v3.727H122.04V278.9Z" transform="translate(-57.512 -131.443)" fill="#f4ae47"/>
      <path id="Path_2019" data-name="Path 2019" d="M159.658,271.85v3.727H122.04V271.85Z" transform="translate(-57.512 -128.12)" fill="#f7ba5e"/>
      <path id="Path_2020" data-name="Path 2020" d="M159.653,257.28v7.709H122.03V257.28s6.841,5.372,20.329,5.372,17.294-5.372,17.294-5.372Z" transform="translate(-57.507 -121.253)" fill="#f4ae47"/>
      <path id="Path_2021" data-name="Path 2021" d="M122.04,257.28h37.623s-3.807,5.372-17.289,5.372-20.334-5.372-20.334-5.372Z" transform="translate(-57.512 -121.253)" fill="#f7ba5e"/>
      <path id="Path_2022" data-name="Path 2022" d="M186.42,330.14v3.722h37.623V330.14Z" transform="translate(-87.853 -155.592)" fill="#f7bc50"/>
      <path id="Path_2023" data-name="Path 2023" d="M186.42,323.09v3.727h37.623V323.09Z" transform="translate(-87.853 -152.269)" fill="#fde468"/>
      <path id="Path_2024" data-name="Path 2024" d="M186.42,316.04v3.727h37.623V316.04Z" transform="translate(-87.853 -148.947)" fill="#f7bc50"/>
      <path id="Path_2025" data-name="Path 2025" d="M186.42,309v3.722h37.623V309Z" transform="translate(-87.853 -145.629)" fill="#fde468"/>
      <path id="Path_2026" data-name="Path 2026" d="M186.42,301.95v3.727h37.623V301.95Z" transform="translate(-87.853 -142.306)" fill="#f7bc50"/>
      <path id="Path_2027" data-name="Path 2027" d="M186.42,287.68v7.545h37.623V287.68s-6.577,4.161-18.811,4.161-18.811-4.161-18.811-4.161Z" transform="translate(-87.853 -135.581)" fill="#fde468"/>
      <path id="Path_2028" data-name="Path 2028" d="M224.043,287.68H186.42s6.577,4.161,18.811,4.161,18.811-4.161,18.811-4.161Z" transform="translate(-87.853 -135.581)" fill="#f1a729"/>
      <path id="Path_2029" data-name="Path 2029" d="M186.42,358.24v3.722h37.623V358.24Z" transform="translate(-87.853 -168.835)" fill="#f7bc50"/>
      <path id="Path_2030" data-name="Path 2030" d="M186.42,351.19v3.727h37.623V351.19Z" transform="translate(-87.853 -165.512)" fill="#fde468"/>
      <path id="Path_2031" data-name="Path 2031" d="M186.42,344.14v3.727h37.623V344.14Z" transform="translate(-87.853 -162.19)" fill="#f7bc50"/>
      <path id="Path_2032" data-name="Path 2032" d="M186.42,337.1v3.722h37.623V337.1Z" transform="translate(-87.853 -158.872)" fill="#fde468"/>
      <path id="Path_2033" data-name="Path 2033" d="M186.42,386.42v3.727h37.623V386.42Z" transform="translate(-87.853 -182.116)" fill="#f7bc50"/>
      <path id="Path_2034" data-name="Path 2034" d="M186.42,379.38V383.1h37.623V379.38Z" transform="translate(-87.853 -178.798)" fill="#fde468"/>
      <path id="Path_2035" data-name="Path 2035" d="M186.42,372.33v3.727h37.623V372.33Z" transform="translate(-87.853 -175.476)" fill="#f7bc50"/>
      <path id="Path_2036" data-name="Path 2036" d="M186.42,365.28v3.728h37.623V365.28Z" transform="translate(-87.853 -172.153)" fill="#fde468"/>
      <path id="Path_2037" data-name="Path 2037" d="M379.94,364.29v3.727h37.618V364.29Z" transform="translate(-179.058 -171.686)" fill="#f7bc50"/>
      <path id="Path_2038" data-name="Path 2038" d="M379.94,357.24v3.727h37.618V357.24Z" transform="translate(-179.058 -168.364)" fill="#fde468"/>
      <path id="Path_2039" data-name="Path 2039" d="M379.94,350.2v3.722h37.618V350.2Z" transform="translate(-179.058 -165.046)" fill="#f7bc50"/>
      <path id="Path_2040" data-name="Path 2040" d="M379.94,343.15v3.727h37.618V343.15Z" transform="translate(-179.058 -161.723)" fill="#fde468"/>
      <path id="Path_2041" data-name="Path 2041" d="M379.94,336.1v3.727h37.618V336.1Z" transform="translate(-179.058 -158.401)" fill="#f7bc50"/>
      <path id="Path_2042" data-name="Path 2042" d="M379.94,321.84v7.545h37.623V321.84S410.986,326,398.752,326s-18.812-4.161-18.812-4.161Z" transform="translate(-179.058 -151.68)" fill="#fde468"/>
      <path id="Path_2043" data-name="Path 2043" d="M417.553,321.84H379.93S386.507,326,398.741,326s18.812-4.161,18.812-4.161Z" transform="translate(-179.053 -151.68)" fill="#f1a729"/>
      <path id="Path_2044" data-name="Path 2044" d="M379.94,385.34v3.727h37.618V385.34Z" transform="translate(-179.058 -181.607)" fill="#fde468"/>
      <path id="Path_2045" data-name="Path 2045" d="M379.94,378.3v3.722h37.618V378.3Z" transform="translate(-179.058 -178.289)" fill="#f7bc50"/>
      <path id="Path_2046" data-name="Path 2046" d="M379.94,371.25v3.727h37.618V371.25Z" transform="translate(-179.058 -174.967)" fill="#fde468"/>
      <path id="Path_2047" data-name="Path 2047" d="M404.633,315.7v3.727H367.01V315.7Z" transform="translate(-172.964 -148.786)" fill="#f7ba5e"/>
      <path id="Path_2048" data-name="Path 2048" d="M404.633,308.66v3.722H367.01V308.66Z" transform="translate(-172.964 -145.468)" fill="#f4ae47"/>
      <path id="Path_2049" data-name="Path 2049" d="M404.633,301.61v3.727H367.01V301.61Z" transform="translate(-172.964 -142.146)" fill="#f7ba5e"/>
      <path id="Path_2050" data-name="Path 2050" d="M404.633,287.03v7.709H367.01V287.03s6.847,5.372,20.329,5.372,17.294-5.372,17.294-5.372Z" transform="translate(-172.964 -135.274)" fill="#f4ae47"/>
      <path id="Path_2051" data-name="Path 2051" d="M367.01,287.03h37.623s-3.807,5.372-17.294,5.372-20.329-5.372-20.329-5.372Z" transform="translate(-172.964 -135.274)" fill="#f7ba5e"/>
      <path id="Path_2052" data-name="Path 2052" d="M271.8,54.212s11.452-3.035,27.154,22.771l31.426,1.491-.439,7.915-32.7-.106a4.5,4.5,0,0,1-2.363-.682c-2.569-1.618-8.893-6-12.25-11.854-4.272-7.46-10.833-19.536-10.833-19.536Z" transform="translate(-128.092 -25.497)" fill="#f4ae61"/>
      <path id="Path_2053" data-name="Path 2053" d="M201.09,248.76s20.133-.19,34.44,9.03,39.447,6.144,39.447,6.144-26.615-27.149-43.819-27.054-30.068,11.88-30.068,11.88Z" transform="translate(-94.767 -111.639)" fill="#001b3d"/>
      <path id="Path_2054" data-name="Path 2054" d="M191.2,384.315c.375-1.01.65-1.924,1.015-2.929.2-.486.391-.973.6-1.459a18.523,18.523,0,0,1-1.613,9.136,27.253,27.253,0,0,1-5.477,7.878,6.91,6.91,0,0,1-3.22,2.168,2.807,2.807,0,0,1-1.956-.2,4.063,4.063,0,0,1-1.66-2.776,13.436,13.436,0,0,1-.127-6.894,14.685,14.685,0,0,1,2.363-4.431c1.8-2.464,4.066-4.573,5.726-7.132-.011.026-.021.058-.032.085-.206.518-.418,1.031-.634,1.544a.2.2,0,0,1-.026.058c-1.2,2.617-3.1,5.884-3.542,8.2a3.11,3.11,0,0,0,.6,2.913,2.523,2.523,0,0,0,1.8.555,5.576,5.576,0,0,0,4.066-2.369,16.7,16.7,0,0,0,2.12-4.351Z" transform="translate(-84.056 -177.997)" fill="#001b3d"/>
      <path id="Path_2055" data-name="Path 2055" d="M195.91,320.646c-.365,1-.64,1.919-1.015,2.929a16.7,16.7,0,0,1-2.12,4.351,5.575,5.575,0,0,1-4.066,2.369,2.523,2.523,0,0,1-1.8-.555,3.11,3.11,0,0,1-.6-2.913c.444-2.316,2.342-5.583,3.542-8.2a.194.194,0,0,0,.026-.058c.249-.55.471-1.073.634-1.544.011-.026.021-.058.032-.085,5.726-14.439,7.153-30.57,14.492-44.29,1.168-2.184,2.48-4.288,3.447-6.561,2.31-5.4,2.591-11.4,2.739-17.289a35.077,35.077,0,0,1,16.617,5.081q1.158.682,2.273,1.433-9.794,19.993-20.794,39.368c-4.552,8.021-9.279,16.009-12.811,24.506-.206.486-.4.973-.6,1.459Z" transform="translate(-87.752 -117.257)" fill="#f4ae61"/>
      <path id="Path_2056" data-name="Path 2056" d="M193.15,379.384c.217-.513.428-1.026.634-1.544-.164.47-.386.994-.634,1.544Z" transform="translate(-91.025 -178.072)" fill="#001b3d"/>
      <path id="Path_2057" data-name="Path 2057" d="M284.017,403.441c-.1-1.665-.032-3.241-.137-4.906a10.012,10.012,0,0,0,2.226,3.817A5.244,5.244,0,0,0,290.1,404a2.447,2.447,0,0,0,2.48-2.628,9.484,9.484,0,0,0-.27-1.919c-.174-.857-.328-1.713-.449-2.575,1.359,2.591,3.865,4.584,4.647,7.413a2.175,2.175,0,0,1-.243,2.046,2.145,2.145,0,0,1-.9.518,12.409,12.409,0,0,1-4.679.328,27.2,27.2,0,0,1-3.881-.418,3.547,3.547,0,0,1-2.242-1.19,4.054,4.054,0,0,1-.539-2.136Z" transform="translate(-133.785 -187.046)" fill="#001b3d"/>
      <path id="Path_2058" data-name="Path 2058" d="M291.446,339.359a1.671,1.671,0,0,0,.085.169c.122.862.275,1.718.45,2.575a9.491,9.491,0,0,1,.27,1.919,2.447,2.447,0,0,1-2.48,2.628,5.245,5.245,0,0,1-3.992-1.65,10.015,10.015,0,0,1-2.226-3.817h-.037q-.166-18.415-.317-36.846a48.411,48.411,0,0,1,.915-12.15c.687-2.786,1.866-5.44,2.342-8.269a22.831,22.831,0,0,0-.444-8.729,38.659,38.659,0,0,0,9.834,5.335,30.17,30.17,0,0,0,6.091,1.359q-6.21,28.439-10.458,57.259c-.01.074-.021.143-.032.217Z" transform="translate(-133.458 -129.694)" fill="#f4ae61"/>
      <path id="Path_2059" data-name="Path 2059" d="M243.923,51.692l.111-.037c1.433-.27,2.86-.539,4.293-.8a12.93,12.93,0,0,1-18.859,6.815l-.09-.085A5.767,5.767,0,0,0,231,54.748l.026.005a11.181,11.181,0,0,0-2.073-8.724c.069.005.132.005.2.005a39.08,39.08,0,0,0,7.122,2.76,15.711,15.711,0,0,0,3.447.634,4.452,4.452,0,0,0,2.289-.4,3.749,3.749,0,0,0,1.322-1.237,12.684,12.684,0,0,0,.592,3.9Z" transform="translate(-107.897 -21.693)" fill="#e79646"/>
      <path id="Path_2060" data-name="Path 2060" d="M202.175,37.74a18.9,18.9,0,0,0-3.759,2.834c-1.882,2.051-2.511,4.922-3.13,7.64-.3,1.3-.6,2.585-.915,3.87a11.386,11.386,0,0,1-12.89.455A12.63,12.63,0,0,1,176.8,38.512c.962-3.019,2.966-5.578,4.547-8.322A52.665,52.665,0,0,0,186,18.352c1.242-4.346,2.347-8.893,5.144-12.446A15.314,15.314,0,0,1,213.8,4.235h0a8.919,8.919,0,0,0-5.218-2.379,23.4,23.4,0,0,1-6.524,17.405l-.074-.069a3.161,3.161,0,0,0-2.353-.264,2.013,2.013,0,0,0-.9,2.464,3.925,3.925,0,0,0,1.946,2.036,7.674,7.674,0,0,0,3.437.909,11.181,11.181,0,0,1,2.073,8.724l-.026-.005a5.767,5.767,0,0,1-1.618,2.834,11.635,11.635,0,0,1-1.7,1.406c-.217.153-.439.3-.661.444Z" transform="translate(-83.052 0)" fill="#001b3d"/>
      <path id="Path_2061" data-name="Path 2061" d="M182.245,85.724c.317-1.285.619-2.575.915-3.87.619-2.718,1.248-5.588,3.13-7.64a18.9,18.9,0,0,1,3.759-2.834c1.137,6.979-.285,14.111-.312,21.191-.005,2.036.159,4.224,1.4,5.837a5.517,5.517,0,0,0,1.052,1.026q-4.441,6.765-8.888,13.53a47.837,47.837,0,0,1-3.347,4.674,4.669,4.669,0,0,1-2.934,1.94c-1.65.143-2.982-1.269-3.981-2.591-5.562-7.317-9.7-15.6-14.471-23.454a.005.005,0,0,0-.005-.005,3.725,3.725,0,0,0-2.379-.629,8.217,8.217,0,0,1-2.839-.2,3.956,3.956,0,0,1-2.184-2.231,9.754,9.754,0,0,1-.619-3.141c-.106-1.422-.074-3.014.9-4.055,1.391-1.48,3.928-1.068,5.578-2.252h.164c-.026-1.792-.048-3.59-.079-5.382a3.433,3.433,0,0,1,.629-2.5,13.881,13.881,0,0,1,1.65,4.425,53.705,53.705,0,0,1,.967,5.5,12.9,12.9,0,0,0,.7,3.426,10.688,10.688,0,0,0,1.237,2.073,207.9,207.9,0,0,0,14.344,17.484c1.972-6.752,3.934-13.508,5.61-20.334Z" transform="translate(-70.926 -33.64)" fill="#f4ae61"/>
      <path id="Path_2062" data-name="Path 2062" d="M266.586,138.976a86.083,86.083,0,0,0,.841,20.033,48.321,48.321,0,0,0,7.55,18.88,63.914,63.914,0,0,1-11.732-.106,30.179,30.179,0,0,1-6.091-1.359,38.658,38.658,0,0,1-9.834-5.335c-3.415-2.416-6.694-5.123-10.194-7.439q-1.118-.753-2.273-1.433a35.079,35.079,0,0,0-16.617-5.081c-.058,0-.122-.005-.18-.005a26.885,26.885,0,0,0-16.966,5.583c3.489-9.432,6.313-19.1,10.082-28.423,3.669-9.067,8.3-17.886,14.9-25.093q-2.839-8.113-5.684-16.242a9.168,9.168,0,0,1-4.357-1.57,5.517,5.517,0,0,1-1.052-1.026c-1.242-1.613-1.406-3.8-1.4-5.837.026-7.079,1.449-14.212.312-21.191.222-.148.444-.291.661-.444a11.639,11.639,0,0,0,1.7-1.406l.09.085A12.93,12.93,0,0,0,235.2,54.753l1.369-.254a4.706,4.706,0,0,1,2.86.063,4.76,4.76,0,0,1,1.729,1.787q4.045,6.067,8.089,12.129c1.269,1.9,2.538,3.8,3.68,5.774a7.99,7.99,0,0,1,1.216,3.1,5.8,5.8,0,0,1-1.116,3.759,16.988,16.988,0,0,1-2.67,2.844l.222.243q1.309,9.9,3.341,19.689l-.011.021c4.1,1.84,8.137,4.3,10.49,8.132a20.873,20.873,0,0,1,2.644,8.9c.608,5.99-.106,12.023-.455,18.029Z" transform="translate(-94.767 -25.594)" fill="#ec8046"/>
      <path id="Path_2063" data-name="Path 2063" d="M246.329,55.15,237.2,109.6q-2.839-8.113-5.684-16.242a9.167,9.167,0,0,1-4.357-1.57,5.518,5.518,0,0,1-1.052-1.026c-1.242-1.613-1.406-3.8-1.4-5.837.026-7.079,1.449-14.212.312-21.191.222-.148.444-.291.661-.444a11.632,11.632,0,0,0,1.7-1.406l.09.085a12.93,12.93,0,0,0,18.859-6.815Z" transform="translate(-105.899 -25.991)" fill="#e86946"/>
      <path id="Path_2064" data-name="Path 2064" d="M222,20.915A23.4,23.4,0,0,0,228.525,3.51a8.919,8.919,0,0,1,5.218,2.379,11.915,11.915,0,0,1,1.348,1.433,22.636,22.636,0,0,1,3.437,6.868l.011-.005a3.288,3.288,0,0,1,2.374.661,2.827,2.827,0,0,1,.6,1.924,17.675,17.675,0,0,1-.656,4.785,24.582,24.582,0,0,1-1.819,5.155,7.934,7.934,0,0,1-.608,1.047,3.749,3.749,0,0,1-1.322,1.237,4.452,4.452,0,0,1-2.289.4,15.711,15.711,0,0,1-3.447-.634A39.08,39.08,0,0,1,224.253,26c-.069,0-.132,0-.2-.005a7.673,7.673,0,0,1-3.437-.909,3.925,3.925,0,0,1-1.946-2.036,2.013,2.013,0,0,1,.9-2.464,3.161,3.161,0,0,1,2.353.264l.074.069Z" transform="translate(-103 -1.654)" fill="#f4ae61"/>
      <path id="Path_2065" data-name="Path 2065" d="M250.915,25.858a5.935,5.935,0,0,0-.862-.3c-.28-.09-.555-.185-.835-.291a5.13,5.13,0,0,1-1.56-.867c-.254-.222-.634.148-.375.37a8.35,8.35,0,0,0,2.924,1.4,2.678,2.678,0,0,0,.349.127c-.016.063-.037.122-.058.185a4.921,4.921,0,0,1-.317.751,5.324,5.324,0,0,1-.989,1.332.264.264,0,0,0,.37.375,5.589,5.589,0,0,0,1.089-1.47,5.858,5.858,0,0,0,.344-.82c.1-.27.238-.619-.079-.788Z" transform="translate(-116.497 -11.466)" fill="#cb7825"/>
      <path id="Path_2066" data-name="Path 2066" d="M239.4,24.114a1.084,1.084,0,0,1-.55.8,1.4,1.4,0,0,1-1.718-.428,2.75,2.75,0,0,1-.492-2.157.268.268,0,0,1,.058-.116.643.643,0,0,1,.016-.09.8.8,0,0,1,.936-.56A2.347,2.347,0,0,1,239.18,23a1.888,1.888,0,0,1,.217,1.11Z" transform="translate(-111.497 -10.156)" fill="#001b3d"/>
      <path id="Path_2067" data-name="Path 2067" d="M250.307,18.574a1.084,1.084,0,0,1-.55.8,1.4,1.4,0,0,1-1.718-.428,2.75,2.75,0,0,1-.492-2.157.268.268,0,0,1,.058-.116.662.662,0,0,1,.016-.09.8.8,0,0,1,.936-.56,2.347,2.347,0,0,1,1.533,1.438,1.888,1.888,0,0,1,.217,1.11Z" transform="translate(-116.639 -7.545)" fill="#001b3d"/>
      <path id="Path_2068" data-name="Path 2068" d="M249.393,38.675a2.718,2.718,0,0,1-1.153,1.676,2.532,2.532,0,0,1-1.829.264c-1.4-.333-1.988-1.766-2.332-3.014a.235.235,0,0,1,.111-.28.207.207,0,0,1,.148-.085,15.4,15.4,0,0,0,4.684-1.47.238.238,0,0,1,.058-.016.245.245,0,0,1,.423.116,6.375,6.375,0,0,1-.111,2.807Z" transform="translate(-115.023 -16.813)" fill="#fff"/>
      <path id="Path_2069" data-name="Path 2069" d="M309.284,105.509l-70.54-6.7a2.432,2.432,0,0,1-2.184-2.644l3.78-39.738a2.432,2.432,0,0,1,2.644-2.184l70.54,6.709a2.432,2.432,0,0,1,2.184,2.644l-3.78,39.738a2.432,2.432,0,0,1-2.644,2.178Z" transform="translate(-111.479 -25.557)" fill="#00a3a0"/>
      <path id="Path_2070" data-name="Path 2070" d="M316.982,81.49,241.62,74.321l.656-6.921,75.367,7.164Z" transform="translate(-113.869 -31.765)" fill="#001b3d"/>
      <path id="Path_2071" data-name="Path 2071" d="M312.922,101.309,244.2,94.775l.64-6.715,68.722,6.535Z" transform="translate(-115.085 -41.502)" fill="#fff"/>
      <path id="Path_2072" data-name="Path 2072" d="M323.928,101.518,305.36,99.752l.259-2.7,18.563,1.766Z" transform="translate(-143.909 -45.738)" fill="#00a3a0"/>
      <path id="Path_2073" data-name="Path 2073" d="M354.689,104.442l-10.759-1.02.254-2.7,10.764,1.02Z" transform="translate(-162.086 -47.468)" fill="#00a3a0"/>
      <path id="Path_2074" data-name="Path 2074" d="M336.764,118.524,295.9,114.638l.164-1.708,40.864,3.886Z" transform="translate(-139.45 -53.223)" fill="#a5d6da"/>
      <path id="Path_2075" data-name="Path 2075" d="M336.014,126.408l-40.864-3.881.164-1.708,40.864,3.886Z" transform="translate(-139.097 -56.941)" fill="#a5d6da"/>
      <path id="Path_2076" data-name="Path 2076" d="M335.184,135.184,294.32,131.3l.164-1.708,40.864,3.886Z" transform="translate(-138.706 -61.074)" fill="#a5d6da"/>
      <path id="Path_2077" data-name="Path 2077" d="M257.7,113.482a6.217,6.217,0,1,1-5.6-6.778,6.213,6.213,0,0,1,5.6,6.778Z" transform="translate(-115.601 -50.275)" fill="#f4ae47"/>
      <path id="Path_2078" data-name="Path 2078" d="M275.341,115.152a6.217,6.217,0,1,1-5.6-6.778,6.216,6.216,0,0,1,5.6,6.778Z" transform="translate(-123.915 -51.062)" fill="#ec8046"/>
      <path id="Path_2079" data-name="Path 2079" d="M378.185,96.481a7.664,7.664,0,0,0,.434-2.046c.148-.978.714-2.12,1.7-2.125.814-.005,1.4.793,1.644,1.565a8.843,8.843,0,0,1,.264,3.188c-.111,1.914-.375,3.817-.64,5.721a26.886,26.886,0,0,1-1,4.885A3.458,3.458,0,0,1,378.766,110a2.5,2.5,0,0,1-2.184-.349,5.345,5.345,0,0,1-1.528-1.7,12.994,12.994,0,0,1-1.539-3.627,6.506,6.506,0,0,1,.291-4.637c.872-1.623,2.649-2.506,4.378-3.2Z" transform="translate(-175.896 -43.505)" fill="#f4ae61"/>
      <path id="Path_2080" data-name="Path 2080" d="M132.521,174.14l-.021,6.847h.153l3.3.011.021-6.847a6.245,6.245,0,0,1,6.26-6.223l6.159.016a6.248,6.248,0,0,1,6.223,6.26l-.021,6.847,3.347.011h.111l.021-6.847a9.711,9.711,0,0,0-9.675-9.728l-6.159-.016a9.7,9.7,0,0,0-9.723,9.67Z" transform="translate(-62.441 -77.513)" fill="#008581"/>
      <path id="Path_2081" data-name="Path 2081" d="M124.124,199.268l-.074,25.949a3.565,3.565,0,0,0,3.553,3.574l3.019.011a3.562,3.562,0,0,1-3.553-3.574l.074-25.944a3.562,3.562,0,0,1,3.574-3.553l-3.019-.011a3.557,3.557,0,0,0-3.574,3.548Z" transform="translate(-58.459 -92.241)" fill="#008581"/>
      <path id="Path_2082" data-name="Path 2082" d="M147.551,222.758l2.115.005a1.376,1.376,0,0,0,1.459-1.528l-2.036-11.261a.05.05,0,0,1,.032-.053,4.339,4.339,0,0,0,3.024-3.971V205.9a4.623,4.623,0,0,0-4.822-4.351,5.406,5.406,0,0,0-1.063.106,5.01,5.01,0,0,0-2.353,1.158,4.1,4.1,0,0,0-1.428,3.056v.053a4.248,4.248,0,0,0,2.4,3.727v.005l-3.225,11.632a1.211,1.211,0,0,0,1.274,1.459l4.621.016ZM133.408,195.73l21.947.058,3.347.011a3.564,3.564,0,0,1,3.532,3.574l-.074,25.949a3.562,3.562,0,0,1-3.574,3.553l-25.272-.069a3.562,3.562,0,0,1-3.553-3.574l.074-25.944a3.563,3.563,0,0,1,3.574-3.558Z" transform="translate(-61.15 -92.245)" fill="#00a3a0"/>
      <path id="Path_2083" data-name="Path 2083" d="M136.381,174.15,136.36,181h.153l3.3.011.021-6.847a6.248,6.248,0,0,1,6.26-6.223l6.159.016a6.248,6.248,0,0,1,6.223,6.26l-.021,6.847,3.347.011h.111l.021-6.847a9.712,9.712,0,0,0-9.675-9.728l-6.159-.016a9.7,9.7,0,0,0-9.723,9.67Z" transform="translate(-64.261 -77.518)" fill="#00a3a0"/>
      <path id="Path_2084" data-name="Path 2084" d="M152.215,226.561a1.211,1.211,0,0,0,1.274,1.459l4.626.011a1.367,1.367,0,0,0,1.454-1.528l-2.035-11.256a.05.05,0,0,1,.032-.053,4.339,4.339,0,0,0,3.024-3.971v-.053a4.489,4.489,0,0,0-3.77-4.24,5.011,5.011,0,0,0-2.353,1.158,4.1,4.1,0,0,0-1.428,3.056v.053a4.248,4.248,0,0,0,2.4,3.727v.005l-3.225,11.632Z" transform="translate(-71.714 -97.524)" fill="#001b3d"/>
      <path id="Path_2085" data-name="Path 2085" d="M161.71,215.095a.045.045,0,0,0-.032.053l2.035,11.256a1.369,1.369,0,0,1-1.454,1.528l2.115.005a1.376,1.376,0,0,0,1.459-1.528L163.8,215.148a.05.05,0,0,1,.032-.053,4.339,4.339,0,0,0,3.024-3.971v-.053a4.623,4.623,0,0,0-4.822-4.351,5.411,5.411,0,0,0-1.063.106,4.485,4.485,0,0,1,3.77,4.24v.053a4.351,4.351,0,0,1-3.029,3.976Z" transform="translate(-75.859 -97.425)" fill="#008581"/>
    </g>
  </g>
</svg>
