<svg xmlns="http://www.w3.org/2000/svg" xmlns:xlink="http://www.w3.org/1999/xlink" width="64" height="64" viewBox="0 0 64 64">
  <defs>
    <clipPath id="clip-OCR">
      <rect width="64" height="64"/>
    </clipPath>
  </defs>
  <g id="OCR" clip-path="url(#clip-OCR)">
    <path id="Union_3" data-name="Union 3" d="M469.178-425a1.421,1.421,0,0,1-1.409-1.433,1.421,1.421,0,0,1,1.409-1.434h15v-15.253a1.421,1.421,0,0,1,1.409-1.433A1.422,1.422,0,0,1,487-443.119v16.686A1.421,1.421,0,0,1,485.59-425Zm-40.768,0a1.422,1.422,0,0,1-1.41-1.433v-16.686a1.422,1.422,0,0,1,1.41-1.433,1.421,1.421,0,0,1,1.409,1.433v15.253h15a1.421,1.421,0,0,1,1.409,1.434A1.421,1.421,0,0,1,444.822-425Zm55.772-42.881v-15.253h-15a1.422,1.422,0,0,1-1.409-1.434A1.421,1.421,0,0,1,469.178-486H485.59A1.421,1.421,0,0,1,487-484.567v16.686a1.422,1.422,0,0,1-1.409,1.434A1.422,1.422,0,0,1,484.181-467.881Zm-57.182,0v-16.686A1.422,1.422,0,0,1,428.41-486h16.413a1.421,1.421,0,0,1,1.409,1.433,1.422,1.422,0,0,1-1.409,1.434h-15v15.253a1.422,1.422,0,0,1-1.409,1.434A1.422,1.422,0,0,1,427-467.881Z" transform="translate(-425 488)"/>
    <path id="Path_49" data-name="Path 49" d="M7.007-20.57a5.161,5.161,0,0,1-3.881-1.55,5.565,5.565,0,0,1-1.5-4.04,5.964,5.964,0,0,1,1.523-4.252,5.273,5.273,0,0,1,4.036-1.624,5.032,5.032,0,0,1,3.839,1.554,5.73,5.73,0,0,1,1.465,4.1,5.868,5.868,0,0,1-1.519,4.214A5.214,5.214,0,0,1,7.007-20.57Zm.108-9.316a2.514,2.514,0,0,0-2.088.986,4.11,4.11,0,0,0-.773,2.609,4.035,4.035,0,0,0,.773,2.606,2.477,2.477,0,0,0,2.026.959A2.5,2.5,0,0,0,9.1-23.659a3.99,3.99,0,0,0,.758-2.586,4.324,4.324,0,0,0-.734-2.683A2.4,2.4,0,0,0,7.115-29.887Zm15.161,8.729a7.311,7.311,0,0,1-3.17.588,5.343,5.343,0,0,1-4.013-1.5,5.483,5.483,0,0,1-1.461-4,5.858,5.858,0,0,1,1.643-4.314,5.747,5.747,0,0,1,4.264-1.655,7.974,7.974,0,0,1,2.737.41v2.4a4.85,4.85,0,0,0-2.536-.665,3.364,3.364,0,0,0-2.52.982,3.643,3.643,0,0,0-.959,2.66,3.574,3.574,0,0,0,.9,2.563,3.2,3.2,0,0,0,2.435.955,5.2,5.2,0,0,0,2.675-.711Zm11.234.394H30.642l-1.724-2.853q-.193-.325-.371-.58a3.222,3.222,0,0,0-.36-.437,1.43,1.43,0,0,0-.379-.278.962.962,0,0,0-.429-.1h-.673v4.245h-2.5V-31.851h3.959q4.036,0,4.036,3.015a3.122,3.122,0,0,1-.178,1.071,2.975,2.975,0,0,1-.5.885,3.186,3.186,0,0,1-.785.68,4.047,4.047,0,0,1-1.024.448v.031a1.589,1.589,0,0,1,.479.251,3.433,3.433,0,0,1,.448.406,5.663,5.663,0,0,1,.414.5q.2.267.36.522Zm-6.8-9.216v3.085h1.082a1.8,1.8,0,0,0,1.291-.464,1.548,1.548,0,0,0,.495-1.167q0-1.454-1.74-1.454Z" transform="translate(14.374 58.036)"/>
  </g>
</svg>
