<svg xmlns="http://www.w3.org/2000/svg" xmlns:xlink="http://www.w3.org/1999/xlink" width="534" height="541" viewBox="0 0 534 541">
  <defs>
    <clipPath id="clip-_8">
      <rect width="534" height="541"/>
    </clipPath>
  </defs>
  <g id="_8" data-name="8" clip-path="url(#clip-_8)">
    <g id="Group_23" data-name="Group 23" transform="translate(-4121 -1157)">
      <path id="Path_159" data-name="Path 159" d="M359.1,251.4a204.455,204.455,0,0,0,37.2-118V38.7a9.855,9.855,0,0,0-7.8-9.7L259.7.2a10.385,10.385,0,0,0-4.3,0L126.5,29a9.937,9.937,0,0,0-7.8,9.7v94.7A205.622,205.622,0,0,0,254.1,326.7a10.159,10.159,0,0,0,3.4.6,9.737,9.737,0,0,0,3.4-.6A204.179,204.179,0,0,0,359.1,251.4ZM257.5,306.7A185.612,185.612,0,0,1,138.6,133.4V46.7L257.5,20.2,376.4,46.7v86.7A185.612,185.612,0,0,1,257.5,306.7Z" transform="translate(4132.069 1172.025)" fill="#070B53"/>
      <path id="Path_160" data-name="Path 160" d="M359.4,68.3a9.855,9.855,0,0,0-7.8-9.7L259.7,38.1a10.385,10.385,0,0,0-4.3,0L163.5,58.6a9.984,9.984,0,1,0,4.3,19.5l89.8-20,82,18.3v57a148.869,148.869,0,0,1-81.9,133,149.143,149.143,0,0,1-81.5-121.1c-.2-2.2-.3-4.4-.4-6.6a9.956,9.956,0,1,0-19.9.7c.1,2.5.2,5,.4,7.5a168.865,168.865,0,0,0,97.2,139.7,10.25,10.25,0,0,0,8.4,0,168.755,168.755,0,0,0,97.7-153.1l-.2-65.2Z" transform="translate(4132.069 1172.025)" fill="#070B53"/>
      <path id="Path_161" data-name="Path 161" d="M229.1,185.2a9.913,9.913,0,0,0,7,3.5h.7a9.711,9.711,0,0,0,6.7-2.6l72.4-65.5a9.982,9.982,0,1,0-13.4-14.8l-64.7,58.5-18.5-21.8A10.006,10.006,0,1,0,204,155.4Z" transform="translate(4132.069 1172.025)" fill="#070B53"/>
      <path id="Path_162" data-name="Path 162" d="M173.5,330.3a32,32,0,0,0-45.4-5.7,30.919,30.919,0,0,0-7.7,8.9l-2.9-3.8a19.611,19.611,0,0,1-4-11.9v-90a33.376,33.376,0,0,0-66.6-3.2L36.1,337.3A39.1,39.1,0,0,0,44,364.9l84.8,110.5V501a10,10,0,0,0,20,0V472a9.814,9.814,0,0,0-2.1-6.1L59.8,352.8a19.492,19.492,0,0,1-3.9-13.6L66.6,226.5a13.381,13.381,0,0,1,26.7,1.3v90a39.356,39.356,0,0,0,8.2,24L122.4,369l.1.1,16.9,22a9.981,9.981,0,0,0,15.8-12.2l-16.9-22a12.03,12.03,0,1,1,19.2-14.5l40.3,53a60.8,60.8,0,0,1,12.3,36.5V501a10,10,0,0,0,20,0V431.8a80.656,80.656,0,0,0-16.4-48.6Z" transform="translate(4132.069 1172.025)" fill="#070B53"/>
      <path id="Path_163" data-name="Path 163" d="M476.1,337.3,465.4,224.6a33.376,33.376,0,0,0-66.6,3.2v90a19.611,19.611,0,0,1-4,11.9l-2.9,3.8a30.919,30.919,0,0,0-7.7-8.9,32,32,0,0,0-45.4,5.7l-40.3,53a80.438,80.438,0,0,0-16.4,48.6V501a10,10,0,0,0,20,0V431.8a61.02,61.02,0,0,1,12.3-36.5l40.3-53a12.03,12.03,0,1,1,19.2,14.5L357,379a9.981,9.981,0,0,0,15.8,12.2l16.9-22,.1-.1,20.9-27.2a39.572,39.572,0,0,0,8.2-24v-90a13.381,13.381,0,0,1,26.7-1.3l10.7,112.7a19.421,19.421,0,0,1-3.8,13.6L365.6,466a10.228,10.228,0,0,0-2.1,6.1v29a10,10,0,0,0,20,0V475.5L468.4,365A40.87,40.87,0,0,0,476.1,337.3Z" transform="translate(4132.069 1172.025)" fill="#070B53"/>
      <path id="Path_164" data-name="Path 164" d="M160,111.9a10.077,10.077,0,0,0,11.6-.4,10.292,10.292,0,0,0,3.6-10.5A9.982,9.982,0,1,0,160,111.9Z" transform="translate(4132.069 1172.025)" fill="#070B53"/>
    </g>
  </g>
</svg>
