<svg height="512pt" viewBox="0 0 512 512.00014" width="512pt" xmlns="http://www.w3.org/2000/svg">
	<path d="m486.011719 179.46875c7.625.011719 14.308593 5.105469 16.34375 12.457031l-7.820313-50.914062c-3.554687-4.605469-9.210937-7.078125-15.003906-6.566407l-27.625 3.15625c-.054688 14.269532-2.535156 28.425782-7.335938 41.867188zm0 0" fill="#fff" />
	<path d="m341.058594 136.835938h-34.105469v13.46875l49.199219-4.347657c-2.957032-5.597656-8.761719-9.105469-15.09375-9.121093zm0 0" fill="#fff"/>
	<path d="m223.734375 157.554688c-1.375-6.820313-2.0625-13.761719-2.046875-20.71875 0-56.507813 45.8125-102.320313 102.320312-102.320313 56.507813 0 102.316407 45.8125 102.316407 102.320313 0 1.023437 0 1.960937-.085938 2.984374-.3125 13.699219-3.417969 27.1875-9.121093 39.648438h27.453124c4.800782-13.441406 7.28125-27.597656 7.335938-41.867188v-.765624c-.132812-70.636719-57.5-127.792969-128.132812-127.664063-70.636719.132813-127.792969 57.5-127.664063 128.132813.015625 7.5625.699219 15.109374 2.046875 22.550781 1.230469 6.671875 2.996094 13.230469 5.285156 19.613281h27.457032c-3.1875-7.019531-5.589844-14.367188-7.164063-21.914062zm0 0" fill="#fff"/>
	<g fill="#fff">
		<path d="m358.113281 153.886719c.019531-2.765625-.65625-5.492188-1.960937-7.929688l-49.199219 4.347657v29.164062h48.859375c1.5-2.59375 2.296875-5.535156 2.300781-8.527344zm0 0"/>
		<path d="m426.324219 136.835938c0-56.511719-45.808594-102.320313-102.316407-102.320313-56.511718 0-102.320312 45.808594-102.320312 102.320313-.015625 6.957031.671875 13.898437 2.046875 20.71875 1.574219 7.542968 3.976563 14.894531 7.164063 21.914062h76.054687v-93.792969h34.105469c9.417968 0 17.054687 7.632813 17.054687 17.054688v17.050781c0 9.417969-7.636719 17.054688-17.054687 17.054688 6.332031.015624 12.136718 3.523437 15.09375 9.121093 1.304687 2.4375 1.980468 5.164063 1.960937 7.929688v17.054687c-.007812 2.996094-.800781 5.9375-2.304687 8.527344h61.308594c5.703124-12.460938 8.804687-25.949219 9.121093-39.648438.085938-1.023437.085938-1.960937.085938-2.984374zm0 0"/>
		<path d="m358.113281 119.78125v-17.050781c0-9.417969-7.636719-17.054688-17.054687-17.054688h-34.105469v51.160157h34.105469c9.417968 0 17.054687-7.636719 17.054687-17.054688zm0 0"/>
	</g>
	<path d="m8.527344 486.421875c0 9.417969 7.632812 17.050781 17.050781 17.050781h460.433594c9.417969 0 17.050781-7.632812 17.050781-17.050781v-127.898437h-494.535156zm0 0" fill="#fff"/>
	<path d="m486.011719 179.46875h-460.433594c-9.417969 0-17.050781 7.632812-17.050781 17.050781v127.898438h494.535156v-127.898438l-.707031-4.59375c-2.035157-7.351562-8.71875-12.445312-16.34375-12.457031zm0 0" fill="#fff"/>
	<path d="m503.0625 196.519531c-.019531-1.558593-.257812-3.101562-.707031-4.59375zm0 0" fill="#fff"/>
	<path d="m8.527344 324.417969h494.535156v34.105469h-494.535156zm0 0" fill="#070B53"/>
	<path d="m511.488281 195.234375-.085937-.582031c-.097656-1.472656-.324219-2.9375-.675782-4.375l-7.765624-50.550782c-.039063-.136718-.089844-.265624-.144532-.394531-.136718-.589843-.34375-1.164062-.613281-1.703125-.1875-.503906-.421875-.984375-.699219-1.441406-.09375-.128906-.113281-.28125-.207031-.410156-5.378906-6.972656-13.964844-10.691406-22.730469-9.839844l-18.578125 2.113281c-4.570312-75.148437-69.195312-132.363281-144.34375-127.796875-75.152343 4.570313-132.367187 69.195313-127.796875 144.347656.152344 2.53125.378906 5.058594.671875 7.582032l-159.8125 13.929687c-6.757812.605469-12.996093 3.898438-17.308593 9.140625-7.113282 4.738282-11.3906255 12.71875-11.398438 21.265625v289.902344c0 14.125 11.453125 25.578125 25.578125 25.578125h460.433594c14.125 0 25.578125-11.453125 25.578125-25.578125v-289.902344c0-.429687-.035156-.859375-.101563-1.285156zm-319.546875-24.292969h-22.671875l22.226563-1.945312c.152344.640625.28125 1.320312.445312 1.945312zm-174.886718 25.578125c0-4.707031 3.816406-8.527343 8.523437-8.527343h460.433594c3.871093.035156 7.21875 2.710937 8.105469 6.480468l.417968 2.695313v118.722656h-477.480468zm215.035156-40.679687c-10.304688-50.761719 22.492187-100.269532 73.257812-110.578125 50.761719-10.304688 100.269532 22.492187 110.578125 73.257812 1.222657 6.027344 1.851563 12.164063 1.871094 18.316407 0 .785156 0 1.507812-.074219 2.769531-.28125 10.738281-2.441406 21.339843-6.378906 31.335937h-44.703125v-17.054687c.015625-4.101563-.980469-8.140625-2.898437-11.765625l-.121094-.257813c-.996094-1.8125-2.203125-3.5-3.597656-5.027343 4.246093-4.667969 6.605468-10.746094 6.617187-17.054688v-17.054688c-.046875-10.800781-6.871094-20.410156-17.054687-24.007812v-18.625h-17.054688v17.054688h-8.523438v-17.054688h-17.054687v17.054688h-25.578125v17.054687h17.050781v76.738281h-61.714843c-1.945313-4.902344-3.492188-9.949218-4.621094-15.101562zm108.96875-61.636719c4.710937 0 8.527344 3.816406 8.527344 8.527344v17.050781c0 4.710938-3.816407 8.527344-8.527344 8.527344h-25.578125v-34.105469zm-25.578125 63.949219 34.105469-3.019532v15.808594h-34.105469zm-298.425781 174.792968h477.480468v17.050782h-477.480468zm463.191406-190.003906c2.269531-.179687 4.519531.539063 6.265625 2.003906l4.070312 26.429688c-1.507812-.28125-3.039062-.429688-4.570312-.433594h-29.921875c2.140625-8.417968 3.464844-17.019531 3.957031-25.691406zm-156.238282-125.476562c66.082032.152344 119.527344 53.847656 119.371094 119.929687v.15625c-.074218 11.316407-1.78125 22.5625-5.074218 33.390625h-8.824219c3.210937-9.835937 4.984375-20.082031 5.261719-30.421875.109374-1.261719.109374-2.421875.109374-3.683593-.1875-61.21875-49.964843-110.695313-111.179687-110.507813-61.21875.183594-110.695313 49.960937-110.507813 111.179687.023438 7.324219.769532 14.625 2.230469 21.804688.835938 3.925781 1.875 7.808594 3.113281 11.628906h-8.824218c-1.265625-4.148437-2.3125-8.363281-3.136719-12.621094-11.761719-64.980468 31.382813-127.1875 96.363281-138.945312 6.960938-1.261719 14.023438-1.898438 21.097656-1.910156zm170.527344 468.957031c0 4.707031-3.816406 8.527344-8.523437 8.527344h-460.433594c-4.707031 0-8.523437-3.820313-8.523437-8.527344v-119.371094h477.480468zm0 0" fill="#070B53"/></svg>