<svg xmlns="http://www.w3.org/2000/svg" xmlns:xlink="http://www.w3.org/1999/xlink" width="534" height="541" viewBox="0 0 534 541">
  <defs>
    <clipPath id="clip-_13">
      <rect width="534" height="541"/>
    </clipPath>
  </defs>
  <g id="_13" data-name="13" clip-path="url(#clip-_13)">
    <g id="Group_28" data-name="Group 28" transform="translate(0 10)">
      <g id="Group_14" data-name="Group 14" transform="translate(-5280 -514)">
        <circle id="Ellipse_9" data-name="Ellipse 9" cx="179.812" cy="179.812" r="179.812" transform="translate(5367.39 602.562)" fill="#070B53"/>
        <path id="Path_219" data-name="Path 219" d="M330.021,94.169l-1.888-.254s19.068,45.632,0,57.213l-19.706,7.879a34.113,34.113,0,0,0-21.145,27.757c-.049.384-.09.761-.147,1.145-1.758,12.759-18.987,15.824-25.615,4.781L253.4,179.163a7.429,7.429,0,0,0-13.11.629c-6.4,13.666-15.824,36.167-17.973,54.215a21.677,21.677,0,0,0,2.166,12.269l9.424,18.848a32.8,32.8,0,0,0,11.884,13.086c7.282,4.594,18.235,12.325,25.615,21.243,7.691,9.285,18.742,15.145,30.8,15.145h0a1.276,1.276,0,0,1,1.307,1.349c-.556,8.64-2.738,55.865,16.445,55.865,0,0,40.867,7.83,40.867-57.213l13.6-61.21a5.046,5.046,0,0,1,9.253-1.5l8.476,14.132a16.72,16.72,0,0,0,24.365,4.773l17.867-13.4A179.793,179.793,0,0,0,330.021,94.169Z" transform="translate(5292.629 524.992)" fill="#fff"/>
        <path id="Path_220" data-name="Path 220" d="M133.925,324.1V311.8a14.774,14.774,0,0,0-19.968-13.838L74.709,312.686A180.042,180.042,0,0,0,213.15,442.307l2.991-10.479a47.582,47.582,0,0,0-12.1-46.72l-4.953-4.953a58.364,58.364,0,0,0-18.276-12.374L155.6,356.977A35.776,35.776,0,0,1,133.925,324.1Z" transform="translate(5298.849 516.425)" fill="#fff"/>
        <path id="Path_221" data-name="Path 221" d="M68.54,248.135,93.551,238.4l25.624-10.25a16.55,16.55,0,0,0,9.554-20.613,16.557,16.557,0,0,1,4-16.944l17.287-17.278,6.269-6.269a34.4,34.4,0,0,0,10.078-24.332V132.08a45.655,45.655,0,0,0-10.3-28.786A179.768,179.768,0,0,0,68.54,248.135Z" transform="translate(5299.109 524.596)" fill="#fff"/>
        <path id="Path_222" data-name="Path 222" d="M247.721,444.292c-103.655,0-187.988-84.333-187.988-187.988S144.066,68.316,247.721,68.316,435.71,152.649,435.71,256.3,351.377,444.292,247.721,444.292Zm0-359.63C153.082,84.662,76.08,161.656,76.08,256.3s77,171.641,171.641,171.641S419.363,350.951,419.363,256.3,342.369,84.662,247.721,84.662Z" transform="translate(5299.48 526.071)" fill="#070B53"/>
        <path id="Path_226" data-name="Path 226" d="M230.049,17.646a8.174,8.174,0,0,1-.826-16.306A249.163,249.163,0,0,1,254.561.049a8.173,8.173,0,0,1,0,16.346,235.368,235.368,0,0,0-23.671,1.2A7.075,7.075,0,0,1,230.049,17.646Z" transform="translate(5292.641 528.951)" fill="#070B53"/>
        <path id="Path_227" data-name="Path 227" d="M252.165,490.844a8.171,8.171,0,0,1-.229-16.339,229.351,229.351,0,0,0,46.335-6.089,8.174,8.174,0,1,1,3.776,15.906,245.924,245.924,0,0,1-49.637,6.514C252.321,490.844,252.239,490.844,252.165,490.844Zm-48.255-3.483a8.393,8.393,0,0,1-1.422-.123,243.9,243.9,0,0,1-48.157-13.682,8.173,8.173,0,1,1,6.064-15.179,228.058,228.058,0,0,0,44.929,12.767,8.17,8.17,0,0,1-1.414,16.217Zm-89.426-35.685a8.173,8.173,0,0,1-4.5-1.357,247.348,247.348,0,0,1-38.7-31.737,8.175,8.175,0,1,1,11.59-11.533A230.24,230.24,0,0,0,119,436.678a8.184,8.184,0,0,1-4.52,15ZM46.63,383.38a8.161,8.161,0,0,1-6.849-3.7,245.387,245.387,0,0,1-22.951-44.488,8.173,8.173,0,0,1,15.219-5.966A228.622,228.622,0,0,0,53.47,370.743,8.163,8.163,0,0,1,46.63,383.38ZM11.492,293.742a8.178,8.178,0,0,1-8.05-6.808A248.389,248.389,0,0,1,0,245.74Q0,241.351.155,237a8.174,8.174,0,0,1,16.338.563q-.147,4.083-.148,8.173a231.448,231.448,0,0,0,3.22,38.464,8.176,8.176,0,0,1-6.694,9.424A7.852,7.852,0,0,1,11.492,293.742Zm3.433-96.209a8.43,8.43,0,0,1-1.945-.229,8.17,8.17,0,0,1-6-9.882,243.758,243.758,0,0,1,16.813-47.169,8.173,8.173,0,0,1,14.753,7.037A227.588,227.588,0,0,0,22.862,191.3,8.193,8.193,0,0,1,14.925,197.533Zm41.431-86.892a8.174,8.174,0,0,1-6.5-13.118A247.479,247.479,0,0,1,84.03,60.947,8.174,8.174,0,0,1,94.779,73.265a230.308,230.308,0,0,0-31.91,34.149A8.185,8.185,0,0,1,56.355,110.642Zm72.563-63.311a8.174,8.174,0,0,1-4.03-15.293A244.368,244.368,0,0,1,170.8,12.029a8.174,8.174,0,0,1,4.953,15.579,227.464,227.464,0,0,0-42.829,18.668A8.167,8.167,0,0,1,128.919,47.331Z" transform="translate(5302 528.462)" fill="#070B53"/>
        <path id="Path_228" data-name="Path 228" d="M361.1,487.283a8.176,8.176,0,0,1-3.49-15.57,229.892,229.892,0,0,0,20.842-11.189,8.177,8.177,0,1,1,8.476,13.985,243.954,243.954,0,0,1-22.338,11.99A8.219,8.219,0,0,1,361.1,487.283Z" transform="translate(5287.114 509.578)" fill="#070B53"/>
        <path id="Path_229" data-name="Path 229" d="M426.307,473.6a8.176,8.176,0,0,1-8.173-8.173V440.9a8.2,8.2,0,0,1,3.155-6.457l73.561-57.213a8.172,8.172,0,0,1,10.028,12.906l-70.4,54.76v20.523A8.177,8.177,0,0,1,426.307,473.6Z" transform="translate(5284.363 513.114)" fill="#070B53"/>
        <path id="Path_230" data-name="Path 230" d="M425.227,451.236a8.176,8.176,0,0,1-2.583-.425l-24.52-8.173a8.173,8.173,0,0,1,5.174-15.505l24.52,8.173a8.176,8.176,0,0,1-2.591,15.93Z" transform="translate(5285.443 510.955)" fill="#070B53"/>
        <path id="Path_231" data-name="Path 231" d="M483.52,457.249a8.182,8.182,0,0,1-7.593-5.141L460.6,413.792,422.1,390.685a8.174,8.174,0,0,1,8.411-14.018l40.867,24.52a8.163,8.163,0,0,1,3.384,3.972l16.347,40.867a8.172,8.172,0,0,1-4.553,10.625A7.926,7.926,0,0,1,483.52,457.249Z" transform="translate(5284.363 513.114)" fill="#070B53"/>
      </g>
    </g>
  </g>
</svg>
