<svg xmlns="http://www.w3.org/2000/svg" xmlns:xlink="http://www.w3.org/1999/xlink" width="64" height="64" viewBox="0 0 64 64">
  <defs>
    <clipPath id="clip-path">
      <rect id="Rectangle_6483" data-name="Rectangle 6483" width="64" height="64"/>
    </clipPath>
  </defs>
  <g id="aadhar_otp" clip-path="url(#clip-path)">
    <rect width="64" height="64" fill="#fff"/>
    <g id="FaceID" clip-path="url(#clip-path)">
      <path id="Union_3" data-name="Union 3" d="M469.178-425a1.421,1.421,0,0,1-1.409-1.433,1.421,1.421,0,0,1,1.409-1.434h15V-443.12a1.421,1.421,0,0,1,1.409-1.433,1.422,1.422,0,0,1,1,.424,1.422,1.422,0,0,1,.409,1.01v16.686A1.421,1.421,0,0,1,485.59-425Zm-40.768,0a1.422,1.422,0,0,1-1.41-1.433v-16.686a1.422,1.422,0,0,1,1.41-1.433,1.421,1.421,0,0,1,1.409,1.433v15.253h15a1.421,1.421,0,0,1,1.409,1.434A1.421,1.421,0,0,1,444.822-425Zm55.772-42.881v-15.253h-15a1.422,1.422,0,0,1-1.409-1.434,1.421,1.421,0,0,1,1.4-1.432H485.59a1.421,1.421,0,0,1,1.41,1.433v16.686a1.422,1.422,0,0,1-1.409,1.434,1.422,1.422,0,0,1-1.41-1.434Zm-57.182,0v-16.686A1.422,1.422,0,0,1,428.41-486h16.413a1.421,1.421,0,0,1,1.409,1.433,1.422,1.422,0,0,1-1.409,1.434h-15v15.253a1.422,1.422,0,0,1-1.409,1.434,1.422,1.422,0,0,1-1-.424,1.422,1.422,0,0,1-.409-1.011Z" transform="translate(-425 488)"/>
    </g>
    <g id="Group_6143" data-name="Group 6143" transform="translate(317.123 -188.235)">
      <path id="Path_14122" data-name="Path 14122" d="M-204.44,205.97a1.052,1.052,0,0,0,0-.217,5.084,5.084,0,0,0-.578-1.494,8.436,8.436,0,0,0-2.075-2.176,2.881,2.881,0,0,1-.828-.952h-.04a2.786,2.786,0,0,1-.843.978,10.643,10.643,0,0,0-1.538,1.423,5.213,5.213,0,0,0-.968,1.738c-.07.224-.105.46-.159.7A20.67,20.67,0,0,1-204.44,205.97Z" transform="translate(-77.25)"/>
      <path id="Path_14124" data-name="Path 14124" d="M-97.423,303.621a11.167,11.167,0,0,1-.934-.908,9.967,9.967,0,0,0-1.386-1.442,4.568,4.568,0,0,0-2.295-1.034c.062.582.132,1.155.181,1.729s.077,1.172.116,1.774h4.493v-.04A.591.591,0,0,1-97.423,303.621Z" transform="translate(-162.725 -77.408)"/>
      <path id="Path_14125" data-name="Path 14125" d="M-309.463,302.917a2.618,2.618,0,0,1-.91.785v.04h4.43c.1-1.192.2-2.351.3-3.5a4.705,4.705,0,0,0-1.768.672A8.906,8.906,0,0,0-309.463,302.917Z" transform="translate(0 -77.412)"/>
      <path id="Path_14126" data-name="Path 14126" d="M-251.559,279.724c-.039-.827-.033-1.641-.127-2.443a15.5,15.5,0,0,0-.431-2.108,8.976,8.976,0,0,0-1.572-3.285,6.138,6.138,0,0,0-2.114-1.741,6.04,6.04,0,0,0-2.4-.614,9.262,9.262,0,0,0-2.278.119,12.681,12.681,0,0,0-3.2,1.076,16.8,16.8,0,0,0-3.373,2.145q-1.08.9-2.12,1.844c-.368.335-.7.711-1.041,1.075-.263.28-.527.559-.772.854q-.86,1.041-1.7,2.1c-.251.315-.484.645-.746,1,.85,0,1.663,0,2.475,0a.228.228,0,0,0,.148-.078c.09-.1.164-.221.252-.327.635-.756,1.257-1.524,1.913-2.261.366-.412.791-.77,1.186-1.157a22.021,22.021,0,0,1,2.425-2.025,13.256,13.256,0,0,1,4.145-2.176,4.8,4.8,0,0,1,1.133-.215,11.863,11.863,0,0,1,1.605.074,3.928,3.928,0,0,1,1.869.7,4.731,4.731,0,0,1,1.658,2.088,2.208,2.208,0,0,1,.188,1.018.586.586,0,0,1-.579.556,1.256,1.256,0,0,1-1.067-.567,6.216,6.216,0,0,0-1.051-1.151,3.864,3.864,0,0,0-2.309-.76,3.711,3.711,0,0,0-.934.121,9.979,9.979,0,0,0-2.893,1.272,18.883,18.883,0,0,0-3.354,2.753c-.269.266-.526.545-.784.823q-.412.444-.815.9c-.108.121-.2.252-.335.414.92,0,1.788,0,2.656,0a.18.18,0,0,0,.12-.038c.171-.184.329-.381.5-.559a21.251,21.251,0,0,1,1.516-1.5,13.475,13.475,0,0,1,1.79-1.236,4.769,4.769,0,0,1,2.528-.761,2,2,0,0,1,1.72.937,3.992,3.992,0,0,1,.6,2.108c.015.342,0,.685,0,1.033h1.881c0-.557-.009-1.1,0-1.645a1.522,1.522,0,0,1,.286-.922.633.633,0,0,1,.956-.033,1.41,1.41,0,0,1,.232.469,5.934,5.934,0,0,1,.206,1.639c0,.164,0,.328,0,.488Z" transform="translate(-28.855 -53.41)"/>
      <path id="Path_14127" data-name="Path 14127" d="M-245.435,260.569c-.073-.557-.174-1.112-.276-1.665a12.489,12.489,0,0,0-.883-2.853,11.118,11.118,0,0,0-1.986-2.962,11.025,11.025,0,0,0-1.9-1.641,9.927,9.927,0,0,0-2.841-1.346,11.638,11.638,0,0,0-2.968-.451,8.993,8.993,0,0,0-1.326.078,16.183,16.183,0,0,0-1.842.288,16.272,16.272,0,0,0-3.621,1.354,19.058,19.058,0,0,0-2.941,1.8c-.793.608-1.575,1.234-2.315,1.9A23.786,23.786,0,0,0-270,256.82a1.665,1.665,0,0,0-.513,1.177.5.5,0,0,0,.631.483,2.65,2.65,0,0,0,.6-.272,21.624,21.624,0,0,0,2.186-1.816c.447-.377.893-.757,1.368-1.1q.972-.7,1.987-1.332a14.263,14.263,0,0,1,2.793-1.358,21.239,21.239,0,0,1,2.038-.618,8.272,8.272,0,0,1,1.629-.249,11.225,11.225,0,0,1,2.44.1,8.89,8.89,0,0,1,2.186.66,7.818,7.818,0,0,1,2.979,2.4,10.223,10.223,0,0,1,1.8,3.842,22.151,22.151,0,0,1,.4,2.3c.089.673.118,1.353.165,2.031.025.37.032.742.048,1.113,0,.011.015.021.026.036h1.917a.761.761,0,0,0,.011-.091c-.013-.778-.019-1.557-.042-2.335A12.183,12.183,0,0,0-245.435,260.569Z" transform="translate(-31.131 -37.896)"/>
      <path id="Path_14128" data-name="Path 14128" d="M-262.558,237.5a18.407,18.407,0,0,1,3.023-1.773c.815-.368,1.632-.741,2.476-1.03a13.074,13.074,0,0,1,3.069-.7c.683-.061,1.367-.139,2.051-.151a12.392,12.392,0,0,1,1.658.115,17.472,17.472,0,0,1,1.861.293,10.813,10.813,0,0,1,3.026,1.16,10.3,10.3,0,0,1,1.973,1.46,9.974,9.974,0,0,1,.809.852c.4.481.79.966,1.139,1.481a14.673,14.673,0,0,1,1.288,2.4,17.279,17.279,0,0,1,1,2.964c.15.642.255,1.295.364,1.945a12.461,12.461,0,0,1,.157,1.27c.035.557.023,1.116.05,1.674a2.617,2.617,0,0,0,.12.633.713.713,0,0,0,.914.472.925.925,0,0,0,.671-.958,17.184,17.184,0,0,0-.035-1.854c-.044-.716-.105-1.432-.2-2.142a14.881,14.881,0,0,0-.35-1.807c-.2-.742-.438-1.474-.688-2.2a13.274,13.274,0,0,0-1.353-2.761,12.956,12.956,0,0,0-2.479-3,19.5,19.5,0,0,0-1.6-1.276,14.307,14.307,0,0,0-1.741-1.015,11.148,11.148,0,0,0-1.652-.659,16.175,16.175,0,0,0-1.882-.45,13.648,13.648,0,0,0-1.854-.232,12.463,12.463,0,0,0-2.931.153c-.736.143-1.476.281-2.2.482a14.836,14.836,0,0,0-3.631,1.6,17.627,17.627,0,0,0-3.218,2.457c-.552.534-1.055,1.119-1.573,1.687-.146.16-.267.343-.429.553a.54.54,0,0,0,.1-.034C-263.938,238.572-263.27,238.006-262.558,237.5Z" transform="translate(-35.653 -24.259)"/>
      <path id="Path_14129" data-name="Path 14129" d="M-157.974,251.753h3.764a18.957,18.957,0,0,0-3.634-11.119,19,19,0,0,0-9.4-6.944C-160.862,238.021-157.864,244.085-157.974,251.753Z" transform="translate(-111.797 -25.431)"/>
      <path id="Path_14130" data-name="Path 14130" d="M-156.313,221.279a5.471,5.471,0,0,0-.252-2.245c-.172-.492-.362-.979-.512-1.478-.1-.321-.134-.658-.2-.99-.049.028-.113.071-.183.105a5.389,5.389,0,0,1-1.569.4,6.61,6.61,0,0,0-2.485.849,4.313,4.313,0,0,0-1.206,1.072,21.028,21.028,0,0,1,6.145,3.556A10.222,10.222,0,0,0-156.313,221.279Z" transform="translate(-115.33 -12.056)"/>
      <path id="Path_14131" data-name="Path 14131" d="M-257,222.552a20.742,20.742,0,0,1,6.12-3.547,1.387,1.387,0,0,0-.133-.18c-.191-.184-.379-.372-.582-.542a5.727,5.727,0,0,0-2.668-1.154,6.34,6.34,0,0,1-2.068-.546,2.9,2.9,0,0,1-.058.525c-.147.486-.309.967-.477,1.446a6.269,6.269,0,0,0-.427,2.086,5.587,5.587,0,0,0,.045.872C-257.19,221.855-257.086,222.191-257,222.552Z" transform="translate(-41.462 -12.069)"/>
      <path id="Path_14132" data-name="Path 14132" d="M-290.5,256.274c.346-.531.752-1.024,1.141-1.526.093-.12.038-.159-.062-.2a4.567,4.567,0,0,0-2.147-.226,10.824,10.824,0,0,0-1.78.448,4.874,4.874,0,0,1-1.9.45,4.576,4.576,0,0,1,.53,1.8,6.779,6.779,0,0,0,.789,2.383,4.338,4.338,0,0,0,1.091,1.283c.357-.768.684-1.545,1.076-2.289C-291.375,257.67-290.947,256.963-290.5,256.274Z" transform="translate(-11.816 -41.518)"/>
      <path id="Path_14133" data-name="Path 14133" d="M-116.818,255.322a4.019,4.019,0,0,1-1.685-.39,7,7,0,0,0-2.022-.521,10.244,10.244,0,0,0-1.544.079,4.353,4.353,0,0,0-.734.211,20.663,20.663,0,0,1,3.558,6.14,10.828,10.828,0,0,0,.789-.844,6.506,6.506,0,0,0,1.142-3.01A4.158,4.158,0,0,1-116.818,255.322Z" transform="translate(-146.505 -41.611)"/>
      <path id="Path_14140" data-name="Path 14140" d="M-224.6,306.616a2.172,2.172,0,0,0-1.233.218,7.431,7.431,0,0,0-2.4,1.872c.681,0,1.32,0,1.959,0a.472.472,0,0,0,.148-.046c.152-.056.3-.121.457-.167.228-.069.343-.009.438.215.469,0,.942,0,1.415,0,.127,0,.159-.057.157-.171a8.2,8.2,0,0,0-.007-.824A1.138,1.138,0,0,0-224.6,306.616Z" transform="translate(-64.158 -82.376)"/>
      <path id="Path_14141" data-name="Path 14141" d="M-279.7,292.567a1.108,1.108,0,0,0-.627.473,2.92,2.92,0,0,0-.686,1.508.808.808,0,0,0,.139.469c.114.177.493.154.738,0a4.034,4.034,0,0,0,1.046-1.087.929.929,0,0,0,.219-.636c0-.02,0-.04,0-.06A.675.675,0,0,0-279.7,292.567Z" transform="translate(-22.932 -71.404)"/>
    </g>
    <circle id="Ellipse_1093" data-name="Ellipse 1093" cx="12" cy="12" r="12" transform="translate(20 31)" fill="#fff"/>
    <circle id="Ellipse_1094" data-name="Ellipse 1094" cx="10" cy="10" r="10" transform="translate(22 33)"/>
    <path id="Path_14142" data-name="Path 14142" d="M5.18-2.715a3.433,3.433,0,0,1-.3,1.473,2.236,2.236,0,0,1-.85.977A2.35,2.35,0,0,1,2.766.078,2.366,2.366,0,0,1,1.5-.262a2.258,2.258,0,0,1-.859-.971A3.335,3.335,0,0,1,.336-2.684v-.281a3.415,3.415,0,0,1,.3-1.479,2.254,2.254,0,0,1,.855-.98,2.353,2.353,0,0,1,1.264-.342,2.353,2.353,0,0,1,1.264.342,2.254,2.254,0,0,1,.855.98,3.406,3.406,0,0,1,.3,1.475ZM3.992-2.973a2.393,2.393,0,0,0-.32-1.359A1.044,1.044,0,0,0,2.758-4.8a1.044,1.044,0,0,0-.91.459,2.366,2.366,0,0,0-.324,1.346v.277a2.423,2.423,0,0,0,.32,1.352,1.041,1.041,0,0,0,.922.48,1.032,1.032,0,0,0,.906-.463,2.409,2.409,0,0,0,.32-1.35ZM9.98-4.738H8.238V0H7.066V-4.738H5.348v-.949H9.98ZM11.82-2V0H10.648V-5.687h2.219a2.567,2.567,0,0,1,1.127.234,1.727,1.727,0,0,1,.748.666A1.857,1.857,0,0,1,15-3.8a1.633,1.633,0,0,1-.572,1.318A2.383,2.383,0,0,1,12.848-2Zm0-.949h1.047a1.029,1.029,0,0,0,.709-.219A.8.8,0,0,0,13.82-3.8a.938.938,0,0,0-.246-.676.919.919,0,0,0-.68-.266H11.82Z" transform="translate(24 46)" fill="#fff"/>
  </g>
</svg>
