<?xml version="1.0" encoding="UTF-8" standalone="no"?>
<svg
   xmlns:dc="http://purl.org/dc/elements/1.1/"
   xmlns:cc="http://creativecommons.org/ns#"
   xmlns:rdf="http://www.w3.org/1999/02/22-rdf-syntax-ns#"
   xmlns:svg="http://www.w3.org/2000/svg"
   xmlns="http://www.w3.org/2000/svg"
   xml:space="preserve"
   style="enable-background:new 0 0 22 22;"
   viewBox="0 0 22 22"
   y="0px"
   x="0px"
   id="Layer_1"
   version="1.1"><metadata
     id="metadata17"><rdf:RDF><cc:Work
         rdf:about=""><dc:format>image/svg+xml</dc:format><dc:type
           rdf:resource="http://purl.org/dc/dcmitype/StillImage" /><dc:title></dc:title></cc:Work></rdf:RDF></metadata><defs
     id="defs15" /><style
     id="style3"
     type="text/css">
	.st0{fill:#4D4D4D;}
</style><g
     id="g5"><path
       id="path7"
       d="M11,12.5c-1.7,0-3.1,1.4-3.1,3.1c0,1.7,1.4,3.1,3.1,3.1c1.7,0,3.1-1.4,3.1-3.1c0,0,0,0,0,0   C14.1,13.9,12.7,12.5,11,12.5z M11.6,13.5c0.7,0.2,1.3,0.7,1.5,1.5h-1.5V13.5z M11,17.8c-1.2,0-2.2-1-2.2-2.2c0-1.1,0.8-2,1.9-2.2   v2c0,0.3,0.2,0.5,0.5,0.5h2.1C13.1,17,12.1,17.8,11,17.8z"
       class="st0" /><polygon
       id="polygon9"
       points="14.2,6.3 13.3,6.3 13.3,9.2 11.5,9.2 11.5,5.2 10.5,5.2 10.5,9.2 8.7,9.2 8.7,6.3 7.8,6.3 7.8,9.2    6.8,9.2 6.8,10.1 7.8,10.1 8.7,10.1 10.5,10.1 11.5,10.1 13.3,10.1 14.2,10.1 14.9,10.1 14.9,9.2 14.2,9.2  "
       class="st0" /><path
       id="path11"
       d="M18.5,2.5h-4.3V1.2c0-0.3-0.2-0.5-0.5-0.5H8.3C8,0.8,7.8,1,7.8,1.2v1.3H3.5C3.2,2.5,3,2.7,3,2.9v17.8   c0,0.3,0.2,0.5,0.5,0.5h15.1c0.3,0,0.5-0.2,0.5-0.5V2.9C19,2.7,18.8,2.5,18.5,2.5z M8.7,1.7h4.6v0.8H8.7V1.7z M18.1,20.3H3.9V3.4H6   l1.3,0h9.9l-1.3,0h2.2V20.3z"
       class="st0" /></g></svg>