<?xml version="1.0" encoding="UTF-8" standalone="no"?>
<svg
   xmlns:dc="http://purl.org/dc/elements/1.1/"
   xmlns:cc="http://creativecommons.org/ns#"
   xmlns:rdf="http://www.w3.org/1999/02/22-rdf-syntax-ns#"
   xmlns:svg="http://www.w3.org/2000/svg"
   xmlns="http://www.w3.org/2000/svg"
   xml:space="preserve"
   style="enable-background:new 0 0 30 30;"
   viewBox="0 0 30 30"
   y="0px"
   x="0px"
   id="Layer_1"
   version="1.1"><metadata
     id="metadata17"><rdf:RDF><cc:Work
         rdf:about=""><dc:format>image/svg+xml</dc:format><dc:type
           rdf:resource="http://purl.org/dc/dcmitype/StillImage" /><dc:title></dc:title></cc:Work></rdf:RDF></metadata><defs
     id="defs15" /><style
     id="style3"
     type="text/css">
	.st0{fill:#FF6400;}
</style><path
     id="path5"
     d="M15,0C6.7,0,0,6.7,0,15s6.7,15,15,15s15-6.7,15-15S23.3,0,15,0z M15,28.8C7.4,28.8,1.2,22.6,1.2,15  S7.4,1.2,15,1.2S28.8,7.4,28.8,15S22.6,28.8,15,28.8z"
     class="st0" /><g
     id="g7"><path
       id="path9"
       d="M21.4,11.9c-0.7-3.5-4.3-5.8-7.7-5C8.7,8,6.8,14,10.2,17.8c1.4,1.5,2.8,3.1,4.1,4.6c0.2,0.3,0.5,0.5,0.7,0.8   c0.1-0.1,0.1-0.1,0.2-0.2c1.5-1.7,2.9-3.3,4.4-5C21.3,16.3,21.9,14.2,21.4,11.9z M18.8,16.9c-1.2,1.3-2.3,2.6-3.5,3.9   c-0.1,0.1-0.1,0.2-0.2,0.3c-0.8-0.9-1.5-1.7-2.3-2.6c-0.5-0.6-1-1.2-1.5-1.7c-1.5-1.5-1.8-4.3-0.5-6.3C11.8,8.6,14,7.7,16,8.1   c2.1,0.4,3.8,2.1,4.1,4.2C20.4,14.1,19.9,15.6,18.8,16.9z"
       class="st0" /><path
       id="path11"
       d="M15,11.2c-1.2,0-2.2,1-2.2,2.2c0,1.2,1,2.2,2.2,2.2c1.2,0,2.2-1,2.2-2.2C17.2,12.2,16.2,11.2,15,11.2z"
       class="st0" /></g></svg>