<svg xmlns="http://www.w3.org/2000/svg" xmlns:xlink="http://www.w3.org/1999/xlink" width="534" height="541" viewBox="0 0 534 541">
  <defs>
    <clipPath id="clip-_15">
      <rect width="534" height="541"/>
    </clipPath>
  </defs>
  <g id="_15" data-name="15" clip-path="url(#clip-_15)">
    <g id="Group_15" data-name="Group 15" transform="translate(-1149 -969)">
      <path id="Path_1" data-name="Path 1" d="M408.5,3.973l-16.23,2A166.369,166.369,0,0,0,295.227,53.5L247.6,101.119h0L171.93,176.792c-5.36,5.352-10.537,10.886-15.6,16.538h0c-7.657,8.489-14.9,17.312-21.806,26.467L61.1,316.752l-6.325,8.323-27.05,35.539L13.41,379.59a16.821,16.821,0,0,0,1.415,21.89L29.64,416.295a16.821,16.821,0,0,0,21.889,1.415l17.894-13.483,34.54-26.218,8.323-6.242,99.044-75.157c9.239-6.991,18.311-14.482,26.883-22.306,5.393-4.669,10.545-9.6,15.631-14.657.15-.158.325-.3.474-.458l77.97-77.97h0l45.335-45.327a166.368,166.368,0,0,0,47.524-97.046l2-16.23A16.7,16.7,0,0,0,408.5,3.973Z" transform="translate(1223.087 1002.448)" fill="#fff"/>
      <path id="Path_2" data-name="Path 2" d="M27.6,107.742h0C32.66,102.09,37.837,96.555,43.2,91.2L118.87,15.531h0L43.247,91.179C37.837,96.589,32.677,102.082,27.6,107.742Z" transform="translate(1351.803 1088.028)" fill="#fff"/>
      <path id="Path_3" data-name="Path 3" d="M39.792,103.119c-.15.158-.325.3-.474.458.166-.175.35-.325.516-.491l77.928-77.928h0Z" transform="translate(1437.614 1158.519)" fill="#fff"/>
      <path id="Path_4" data-name="Path 4" d="M389.735,191.191,431.849,149.1A175.715,175.715,0,0,0,481.787,47.178l1.989-16.222A25.044,25.044,0,0,0,455.861,3.032L439.615,5.038A175.615,175.615,0,0,0,337.658,54.91L293.246,99.321,118.655,61.293a141.949,141.949,0,0,0-68,1.939L34.068,67.844a8.323,8.323,0,0,0-2.73,14.7L192.48,202c-5.56,6.467-11.045,13.125-16.28,20.092l-70.912,93.567-93.409-1.989H11.7a8.323,8.323,0,0,0-4.836,15.065l57.429,41-9.23,12.193a25.3,25.3,0,0,0,2.189,32.759l14.857,14.857a25.294,25.294,0,0,0,32.734,2.139l11.061-8.381,36.172,50.679a8.323,8.323,0,0,0,6.775,3.487,8.431,8.431,0,0,0,2.5-.375,8.323,8.323,0,0,0,5.826-7.782l1.665-86.126,95.823-72.618c7.191-5.435,14.016-11.095,20.566-16.788l124.9,167.559a8.323,8.323,0,0,0,14.682-2.688l4.245-14.89A141.915,141.915,0,0,0,431,373.739ZM151.014,443.844,129.208,413.3l22.738-17.27ZM55.092,79.254a125.386,125.386,0,0,1,60.017-1.665l164.146,35.789L214.394,178.24c-3.329,3.329-10.612,11.045-10.82,11.294L54.917,79.3ZM74.31,356.477,38.521,330.892l54.374,1.157-8.614,11.336ZM254.569,297.3l-98.961,75.132L94.851,418.375a8.5,8.5,0,0,1-11-.641L69.074,402.961a8.531,8.531,0,0,1-.7-11.028l29.963-39.5,17.745-23.3c.083-.108.117-.233.191-.35l73.242-96.638c6.825-9.055,13.991-17.753,21.29-25.851,0,0,9.988-10.82,14.648-15.531l124-124.054A158.8,158.8,0,0,1,441.6,21.559S458.533,19.5,458.882,19.5a8.381,8.381,0,0,1,8.323,9.43h0l-1.989,16.2a158.969,158.969,0,0,1-45.161,92.177s-125.061,125.02-125.96,125.9c-4.644,4.569-8.931,8.6-13.167,12.268C272.73,282.96,263.883,290.293,254.569,297.3Zm158.8,140.592L297.774,282.76c.533-.5,78.045-77.654,78.045-77.654l38.943,172.286a125.311,125.311,0,0,1-1.348,60.5Z" transform="translate(1174.772 995.124)" fill="#a9a9a9"/>
      <path id="Path_5" data-name="Path 5" d="M51.075,46.874,15.761,82.188a8.322,8.322,0,1,0,11.77,11.77L62.844,58.642a8.322,8.322,0,1,0-11.77-11.77Z" transform="translate(1247.245 1299.692)" fill="#a9a9a9"/>
      <path id="Path_6" data-name="Path 6" d="M9.357,108.073a8.323,8.323,0,0,0,11.769,0L92.171,37.036A8.322,8.322,0,1,0,80.4,25.267L9.357,96.3a8.323,8.323,0,0,0,0,11.769Z" transform="translate(1200.365 1141.471)" fill="#a9a9a9"/>
      <path id="Path_7" data-name="Path 7" d="M30.837,64.193a8.322,8.322,0,0,0,5.883-2.437L82.373,16.094A8.322,8.322,0,1,0,70.6,4.325L24.952,49.986a8.323,8.323,0,0,0,5.884,14.207Z" transform="translate(1314.567 988.113)" fill="#a9a9a9"/>
      <path id="Path_8" data-name="Path 8" d="M54.032,32.479a8.322,8.322,0,1,0-11.77-11.77L4.519,58.455a8.322,8.322,0,1,0,11.77,11.77Z" transform="translate(1164.92 1108.1)" fill="#a9a9a9"/>
      <path id="Path_9" data-name="Path 9" d="M88.341,56.895l-45.66,45.652a8.322,8.322,0,1,0,11.77,11.77l45.659-45.653a8.322,8.322,0,1,0-11.77-11.77Z" transform="translate(1444.38 1373.076)" fill="#a9a9a9"/>
      <path id="Path_10" data-name="Path 10" d="M139.572,50.135a8.323,8.323,0,0,0-11.769,0L30.782,147.156a8.322,8.322,0,1,0,11.77,11.77L139.572,61.9A8.323,8.323,0,0,0,139.572,50.135Z" transform="translate(1357.244 1323.589)" fill="#a9a9a9"/>
      <path id="Path_11" data-name="Path 11" d="M103.5,43.437a8.323,8.323,0,0,0-11.769,0L58.439,76.729A8.322,8.322,0,1,0,70.208,88.5L103.5,55.206A8.323,8.323,0,0,0,103.5,43.437Z" transform="translate(1559.776 1274.539)" fill="#a9a9a9"/>
    </g>
  </g>
</svg>
