<?xml version="1.0" encoding="utf-8"?>
<!-- Generator: Adobe Illustrator 21.1.0, SVG Export Plug-In . SVG Version: 6.00 Build 0)  -->
<svg version="1.1" id="Layer_1" xmlns="http://www.w3.org/2000/svg" xmlns:xlink="http://www.w3.org/1999/xlink" x="0px" y="0px"
	 viewBox="0 0 30 30" style="enable-background:new 0 0 30 30;" xml:space="preserve">
<style type="text/css">
	.st0{fill:#FF6400;}
</style>
<path class="st0" d="M-337-27.4c-19.5,0-35.3,15.8-35.3,35.3s15.8,35.3,35.3,35.3s35.3-15.8,35.3-35.3S-317.4-27.4-337-27.4z
	 M-337,40.4c-17.9,0-32.5-14.5-32.5-32.5s14.5-32.5,32.5-32.5s32.5,14.5,32.5,32.5S-319,40.4-337,40.4z"/>
<path class="st0" d="M-232.6-27.4c-19.5,0-35.3,15.8-35.3,35.3s15.8,35.3,35.3,35.3s35.3-15.8,35.3-35.3S-213.1-27.4-232.6-27.4z
	 M-232.6,40.4c-17.9,0-32.5-14.5-32.5-32.5s14.5-32.5,32.5-32.5s32.5,14.5,32.5,32.5S-214.7,40.4-232.6,40.4z"/>
<path class="st0" d="M-135.8-27.2c-19.5,0-35.3,15.8-35.3,35.3s15.8,35.3,35.3,35.3s35.3-15.8,35.3-35.3S-116.3-27.2-135.8-27.2z
	 M-135.8,40.7c-17.9,0-32.5-14.5-32.5-32.5s14.5-32.5,32.5-32.5s32.5,14.5,32.5,32.5S-117.8,40.7-135.8,40.7z"/>
<g>
	<path class="st0" d="M-330,23.8c0-0.6,0-1.1,0-1.7c0-1.7-0.9-3-2.4-3.8c-0.6-0.3-1.1-0.5-1.8,0c-1.9,1.6-3.6,1.6-5.5,0
		c-0.6-0.5-1.2-0.4-1.8-0.1c-1.5,0.8-2.4,2.2-2.4,3.9c0,0.9,0,1.8,0,2.7c0,2.1,0.7,3,2.7,3.6c2.5,0.7,5,0.8,7.5,0.2
		c3.7-0.8,3.9-2,3.7-4.6C-330,24-330,23.9-330,23.8z"/>
	<path class="st0" d="M-340.7,14.6c0.4,2.9,3.5,4.4,5.7,2.8c2.5-1.7,2.5-5.9,0-7.6c-1.5-1-3.3-0.8-4.5,0.5c-0.9,0.9-1.3,2-1.3,3.6
		C-340.8,14-340.8,14.3-340.7,14.6z"/>
	<path class="st0" d="M-334.9-13.3c-1,0-1.9,0-2.8,0c0,6.5,0,13,0,19.5c0.9,0.1,1.8,0.2,2.8,0.3C-334.9-0.1-334.9-6.7-334.9-13.3z"
		/>
	<path class="st0" d="M-318.4,20.9c-0.1-0.3,0-0.5,0-0.8c0-1,0-2,0-3c0-0.3-0.4-0.7-0.6-0.7c-0.7-0.1-1.5,0-2.4,0c0,1.7,0,3.3,0,4.9
		c-0.8,0-1.5,0-2.4,0c0-2.9,0-5.6,0-8.4c0-1.9,0-1.9-1.9-1.8c-0.2,0-0.4-0.1-0.5,0c-0.3,0.2-0.7,0.5-0.7,0.7
		c0.1,3.3,0.2,6.5,0.3,9.8c0,0.9,0.6,1.1,1.3,1.1c1.8,0,3.7,0,5.5,0C-318.1,22.5-318.1,22.5-318.4,20.9z"/>
	<path class="st0" d="M-346.5,10.9c-0.3-0.1-0.7,0-1,0c-1-0.1-1.2,0.3-1.2,1.2c0,2.6,0,5.2,0,7.8c0,0.4,0,0.8-0.1,1.2
		c-0.9,0-1.6,0-2.4,0c0-1.6,0-3.2,0-4.7c-1,0-1.9,0-2.9,0c0,1.6,0,3.1,0,4.4c-0.7,0.5-1.1,0.8-1.6,1.1c0.5,0.2,1,0.6,1.6,0.6
		c1.9,0.1,3.8,0,5.7,0c0.7,0,1-0.2,1.2-1.1c0.2-1.1,0.7-2.1,1.1-3.1c0.1-0.4,0.4-0.7,0.4-1.1c0-1.8,0.1-3.7,0-5.5
		C-345.7,11.4-346.2,11.1-346.5,10.9z"/>
	<path class="st0" d="M-331.2-2.6c-0.8,0-1.2,0.2-1.2,1.1c0,3.1,0,6.1,0,9.2c0,0.4,0.1,0.8,0.4,1.2c1.1,1.6,1.6,3.4,1.2,5.4
		c-0.2,1.1,0.1,1.7,1.4,2c0-0.6,0-1.1,0-1.6c0-5.1,0-10.3,0-15.4C-329.3-2.7-329.3-2.6-331.2-2.6z"/>
	<path class="st0" d="M-343.2,7.4c0,1.1,0,2.2,0,3.4c1-1.2,1.8-2.2,2.6-3.3c0.2-0.3,0.4-0.8,0.4-1.3c0-2.5,0-5,0-7.6
		c0-1-0.3-1.4-1.3-1.3c-0.9,0.1-1.8-0.2-1.7,1.3C-343.2,1.5-343.2,4.5-343.2,7.4z"/>
</g>
<g>
	<polygon class="st0" points="-236.2,5.1 -244.5,13.4 -243,14.9 -234.2,6 -234.1,6 -234.1,-4.7 -236.2,-4.7 	"/>
	<rect x="-226.1" y="10.4" class="st0" width="12.1" height="2.1"/>
	<path class="st0" d="M-251,5.5c0-8.7,7.1-15.8,15.8-15.8c8.4,0,15.2,6.6,15.7,14.8h2.2c-0.5-9.5-8.3-17-17.9-17c-9.9,0-18,8-18,18
		c0,9.9,8,18,18,18c0.1,0,0.1,0,0.2,0v-2.2c-0.1,0-0.1,0-0.2,0C-243.9,21.2-251,14.2-251,5.5z"/>
	<circle class="st0" cx="-230.4" cy="11.4" r="1.3"/>
	<rect x="-226.1" y="15.5" class="st0" width="12.1" height="2.1"/>
	<circle class="st0" cx="-230.4" cy="16.6" r="1.3"/>
	<rect x="-226.1" y="21" class="st0" width="12.1" height="2.1"/>
	<circle class="st0" cx="-230.4" cy="22" r="1.3"/>
</g>
<g>
	<path class="st0" d="M-135.9-9.8c6.9,0,12.8,4.2,15.4,10.2l-5.1,1.3l7.8,4.7l4.7-7.8l-5,1.2c-2.8-7-9.7-12-17.7-12
		c-9.5,0-17.5,7-18.9,16.2h2.4C-150.9-3.9-144.1-9.8-135.9-9.8z"/>
	<path class="st0" d="M-135.9,26.2c-7,0-12.9-4.3-15.4-10.3l5.3-1.5l-8-4.4l-4.4,8l4.7-1.4c2.8,7.1,9.7,12.1,17.7,12.1
		c9.5,0,17.5-7,18.9-16.2h-2.4C-120.8,20.2-127.7,26.2-135.9,26.2z"/>
	<g>
		<path class="st0" d="M-134.3,7.6c1.2,0.8,2.5,1,3.8,1c1.3,0,2.7-0.2,3.8-1c1.3-0.9,1.3-2.1,0-3c-1.9-1.3-5.8-1.3-7.6,0
			C-135.6,5.5-135.6,6.7-134.3,7.6z"/>
		<path class="st0" d="M-144.9,3.5c1.2,0.8,2.5,1,3.8,1c1.3,0,2.7-0.2,3.8-1c1.3-0.9,1.3-2.1,0-3c-1.9-1.3-5.8-1.3-7.6,0
			C-146.1,1.4-146.2,2.6-144.9,3.5z"/>
		<path class="st0" d="M-145.7,4.4c-0.5,2.2,0.1,3.2,2.1,3.9c1.6,0.5,3.2,0.6,4.9,0.1c2.2-0.6,2.7-1.5,2.4-3.9
			C-138.7,6.9-143.5,6.9-145.7,4.4z"/>
		<path class="st0" d="M-145.7,8.7c-0.4,2.4,0.2,3.4,2.5,4c1.5,0.4,3,0.4,4.5,0c2.2-0.6,2.7-1.5,2.4-3.9
			C-138.7,11.3-144.2,10.9-145.7,8.7z"/>
		<path class="st0" d="M-133.4,12.4c1.9,0.7,3.7,0.7,5.6,0.1c1.9-0.6,2.2-1.4,2-3.9c-1.8,2.5-7.5,2.5-9.4,0.2
			C-135.6,10.7-135.1,11.8-133.4,12.4z"/>
		<path class="st0" d="M-145.8,13c-0.3,2.6,0.4,3.6,2.8,4c1.3,0.2,2.7,0.2,4,0c2.3-0.4,2.8-1.3,2.6-4
			C-138.2,15.3-143.7,15.5-145.8,13z"/>
		<path class="st0" d="M-135.1,13.1c-0.5,2,0,3,1.7,3.6c1.7,0.7,3.4,0.7,5.1,0.2c2.2-0.6,2.7-1.4,2.5-4
			C-127.6,15.4-133.3,15.4-135.1,13.1z"/>
	</g>
</g>
<path class="st0" d="M-36.2-27.3c-19.5,0-35.3,15.8-35.3,35.3s15.8,35.3,35.3,35.3S-0.8,27.6-0.8,8.1S-16.6-27.3-36.2-27.3z
	 M-36.2,40.5c-17.9,0-32.5-14.5-32.5-32.5s14.5-32.5,32.5-32.5S-3.7-9.9-3.7,8.1S-18.2,40.5-36.2,40.5z"/>
<g>
	<path class="st0" d="M-49.6,1.5c0,4.2,0,8.4,0,12.7c0,0.7,0,0.7,0.7,0.7c3.1,0,6.1,0,9.2,0c0.1,0,0.2,0,0.5,0
		c-0.2-0.2-0.3-0.4-0.4-0.5c-2.3-2.8-2.3-7.4,0.1-10.1c1.7-2,4.3-2.2,6.2-0.3c2.6,2.6,2.8,7.6,0.4,10.5c-0.1,0.1-0.2,0.3-0.3,0.4
		c3.6,0,7.1,0,10.6,0c0-4.6,0-9.1,0-13.7c-9,0-17.9,0-26.8,0C-49.6,1.3-49.6,1.4-49.6,1.5z M-24.7,12.6c-1.6,0-3.3,0-5,0
		c0-0.3,0-0.5,0-0.8c1.3,0,2.6,0,4,0c0-0.7,0-1.3,0-2c0.4,0,0.7,0,1,0C-24.7,10.7-24.7,11.6-24.7,12.6z M-29,3.3c1.3,0,2.6,0,3.9,0
		c0.4,0,0.5,0.1,0.5,0.5c0,0.9,0,1.7,0,2.6c-0.3,0-0.6,0-1,0c0-0.7,0-1.4,0-2.2c-1.4,0-2.7,0-3.9,0c0-0.1-0.1-0.1-0.1-0.2
		C-29.8,3.3-29.8,3.3-29,3.3z M-42.6,12.6c-1.6,0-3.2,0-4.9,0c0-0.9,0-1.9,0-2.9c0.3,0,0.5,0,0.8,0c0,0.7,0,1.3,0,2
		c1.4,0,2.7,0,4.1,0C-42.6,12-42.6,12.3-42.6,12.6z M-47.5,3.3c0.1,0,0.3,0,0.4,0c1.3,0,2.5,0,3.8,0c0.7,0,0.8,0.1,0.6,0.9
		c-0.8,0-1.6,0-2.4,0c-0.4,0-0.7,0-1.1,0c-0.4,0-0.5,0.1-0.5,0.5c0,0.5,0,1.1,0,1.6c-0.3,0-0.5,0-0.8,0C-47.5,5.3-47.5,4.3-47.5,3.3
		z"/>
	<polygon class="st0" points="-13.6,-3.6 -19.6,-9.6 -19.6,-4.9 -43.4,-4.9 -43.4,-2.2 -19.6,-2.2 -19.6,2.4 	"/>
	<polygon class="st0" points="-52.8,13.7 -58.7,19.7 -52.8,25.7 -52.8,21.1 -28.9,21.1 -28.9,18.4 -52.8,18.4 	"/>
</g>
<path class="st0" d="M71.8-26.6c-19.5,0-35.3,15.8-35.3,35.3s15.8,35.3,35.3,35.3s35.3-15.8,35.3-35.3S91.3-26.6,71.8-26.6z
	 M71.8,41.3c-17.9,0-32.5-14.5-32.5-32.5s14.5-32.5,32.5-32.5s32.5,14.5,32.5,32.5S89.7,41.3,71.8,41.3z"/>
<path class="st0" d="M181.7-24c-19.5,0-35.3,15.8-35.3,35.3s15.8,35.3,35.3,35.3s35.3-15.8,35.3-35.3S201.2-24,181.7-24z
	 M181.7,43.8c-17.9,0-32.5-14.5-32.5-32.5s14.5-32.5,32.5-32.5s32.5,14.5,32.5,32.5S199.7,43.8,181.7,43.8z"/>
<path class="st0" d="M271.7-22.4c-19.5,0-35.3,15.8-35.3,35.3s15.8,35.3,35.3,35.3S307,32.4,307,12.9S291.2-22.4,271.7-22.4z
	 M271.7,45.4c-17.9,0-32.5-14.5-32.5-32.5s14.5-32.5,32.5-32.5S304.2-5,304.2,12.9S289.6,45.4,271.7,45.4z"/>
<path class="st0" d="M365.3-23C345.8-23,330-7.1,330,12.4s15.8,35.3,35.3,35.3s35.3-15.8,35.3-35.3S384.8-23,365.3-23z M365.3,44.9
	c-17.9,0-32.5-14.5-32.5-32.5s14.5-32.5,32.5-32.5s32.5,14.5,32.5,32.5S383.3,44.9,365.3,44.9z"/>
<g id="g3">
	<polygon id="polygon5" class="st0" points="73,12.3 70.6,12.3 70.6,18.5 67.7,18.5 71.8,22.6 75.9,18.5 73,18.5 	"/>
	<path id="path7" class="st0" d="M88.7-8.5H54.9c-0.7,0-1.3,0.6-1.3,1.3V16c0,0.7,0.6,1.3,1.3,1.3h8.2c0,0,0,0.1,0,0.1
		c0,4.8,3.9,8.6,8.6,8.6s8.6-3.9,8.6-8.6c0,0,0-0.1,0-0.1h8.2c0.7,0,1.3-0.6,1.3-1.3V-7.1C90-7.9,89.4-8.5,88.7-8.5z M55.4-5.5
		c0-0.6,0.5-1.2,1.2-1.2H87c0.6,0,1.2,0.5,1.2,1.2v2h0v0.8H55.5v-0.8h0V-5.5z M71.8,24.2c-3.7,0-6.8-3-6.8-6.8s3-6.8,6.8-6.8
		c3.7,0,6.8,3,6.8,6.8S75.5,24.2,71.8,24.2z M88.1,14.3c0,0.6-0.5,1.2-1.2,1.2h-6.8c-0.9-3.8-4.3-6.7-8.4-6.7s-7.5,2.8-8.4,6.7h-6.8
		c-0.6,0-1.2-0.5-1.2-1.2V0.9h0v-1.7h32.7v1.7h0V14.3z"/>
</g>
<g>
	<path class="st0" d="M200.1,18.3c0-6.5,0-13.1,0-19.6c0-1.9-1.6-3.6-3.5-3.6c-9.9,0-19.7,0-29.6,0c-1.9,0-3.5,1.7-3.5,3.6
		c0,7.3,0,14.5,0,21.8c0,1.7,1.3,3.3,2.9,3.5c1.6,0.2,3.3,0.1,4.9,0.1c0.4,0,0.6-0.4,0.6-0.7c0-0.4-0.3-0.7-0.8-0.7
		c-1.3,0-2.6,0-4,0c-1.5,0-2.3-0.8-2.3-2.3c0-5.2,0-10.4,0-15.6c0-0.2,0-0.3,0-0.5c11.3,0,22.6,0,33.9,0c0,0.1,0,0.2,0,0.3
		c0,5.3,0,10.7,0,16c0,1.2-0.9,2.1-2.1,2.1c-1.1,0-2.3,0-3.4,0c-0.5,0-0.8,0.3-0.8,0.7c0,0.4,0.3,0.7,0.9,0.7c1.1,0,2.2,0,3.3,0
		c1.7,0,3.2-1.3,3.5-2.9C200.1,20.2,200.1,19.3,200.1,18.3z M198.7,2.9c-11.3,0-22.6,0-33.9,0c0-1.5,0-3.1,0-4.6
		c0-1.1,0.9-1.8,2-1.8c3.1,0,6.2,0,9.4,0c6.7,0,13.4,0,20.1,0c0.2,0,0.5,0,0.7,0c0.9,0.2,1.6,0.8,1.6,1.7
		C198.7-0.2,198.7,1.3,198.7,2.9z"/>
	<path class="st0" d="M187.9,14.9c-3.9,0-7.8,0-11.6,0c-1.7,0-3,1.3-3,3c0,2.2,0,4.4,0,6.7c0,1.8,1.2,3,3,3c1.9,0,3.9,0,5.8,0
		c0,0,0,0,0,0c2,0,3.9,0,5.9,0c1.7,0,2.9-1.3,2.9-2.9c0-2.2,0-4.5,0-6.7C190.9,16.2,189.6,14.9,187.9,14.9z M176,16.3
		c2,0,3.9,0,5.9,0c2.1,0,4.1,0,6.2,0c0.9,0,1.4,0.5,1.4,1.4c-4.9,0-9.9,0-14.8,0C174.6,16.9,175.1,16.3,176,16.3z M174.7,19.2
		c4.9,0,9.9,0,14.8,0c0,0.2,0,0.4,0,0.7c-4.9,0-9.9,0-14.8,0C174.7,19.6,174.7,19.4,174.7,19.2z M189.5,25.1c0,0.7-0.6,1.1-1.4,1.1
		c-2.7,0-5.4,0-8.2,0c-1.3,0-2.5,0-3.8,0c-1,0-1.5-0.5-1.5-1.5c0-1.1,0-2.3,0-3.5c5,0,9.9,0,14.8,0
		C189.5,22.6,189.5,23.8,189.5,25.1z"/>
	<path class="st0" d="M182.3,13c1.6-1.6,3.1-3.2,4.7-4.8c0.1-0.1,0.2-0.3,0.2-0.4c0.1-0.3,0-0.6-0.3-0.7c-0.3-0.2-0.6-0.1-0.9,0.2
		c-1.1,1.1-2.2,2.3-3.3,3.4c-0.3,0.3-0.6,0.6-0.8,0.8c-0.9-0.8-1.7-1.6-2.6-2.4c-0.3-0.3-0.7-0.4-1-0.1c-0.3,0.3-0.3,0.7,0,1
		c1,1,1.9,2,2.9,3C181.5,13.4,181.9,13.4,182.3,13z"/>
	<path class="st0" d="M167.6-1.9c-0.7,0-1.4,0.7-1.4,1.4c0,0.7,0.7,1.4,1.4,1.4c0.7,0,1.4-0.7,1.4-1.4C169-1.2,168.3-1.9,167.6-1.9z
		"/>
	<path class="st0" d="M171.8-1.9c-0.7,0-1.4,0.7-1.4,1.4c0,0.7,0.7,1.4,1.4,1.4c0.7,0,1.4-0.7,1.4-1.4
		C173.2-1.2,172.5-1.9,171.8-1.9z"/>
	<path class="st0" d="M176.1-1.9c-0.7,0-1.4,0.7-1.4,1.4c0,0.7,0.7,1.4,1.4,1.4c0.7,0,1.4-0.7,1.4-1.4
		C177.5-1.2,176.7-1.9,176.1-1.9z"/>
</g>
<g>
	<path class="st0" d="M278,21.3c-0.3,0-0.6,0-0.9,0c0,1.2,0,2.5,0,3.7c-5.9,0-11.9,0-17.9,0c0-8.8,0-17.7,0-26.5
		c5.9,0,11.9,0,17.9,0c0,0.9,0,1.8,0,2.6c0.3,0,0.6,0,0.9,0c0.6,0,1.1,0.1,1.6,0.1c0-1.6,0-3.1,0-4.7c0-2.6-1.4-4-4-4
		c-5,0-9.9,0-14.9,0c-2.7,0-4,1.4-4,4.1c0,5.6,0,11.2,0,16.8c0,5.4,0,10.7,0.1,16.1c0,2.2,1.4,3.7,3.4,3.7c5.4,0,10.7,0,16.1-0.1
		c0.8,0,1.6-0.5,2.5-0.8c0.8-1,1-2.1,1-3.2c0-2.7,0-5.3,0-8C279.1,21.3,278.5,21.3,278,21.3z M269.8,30.6c-0.9,0.9-2.2,0.9-3.1,0
		c-0.9-0.8-0.9-2.2,0-3.1c0.9-0.9,2.2-0.9,3.1,0C270.6,28.4,270.6,29.8,269.8,30.6z"/>
	<path class="st0" d="M278.1,2.6c-4.8,0-8.6,3.9-8.6,8.6c0,4.8,3.9,8.6,8.6,8.6s8.6-3.9,8.6-8.6C286.7,6.5,282.8,2.6,278.1,2.6z
		 M273.1,6.6c1-0.8,3.1-0.8,4.1,0c0.7,0.5,0.7,1.2,0,1.8c-0.6,0.5-1.3,0.6-2.1,0.6c-0.7,0-1.4-0.1-2.1-0.6
		C272.4,7.9,272.5,7.1,273.1,6.6z M276.3,16.3c-0.7,0.1-1.5,0.1-2.2,0c-1.3-0.2-1.6-0.8-1.5-2.4c1.1,1.5,4.1,1.4,5.1,0
		C277.8,15.6,277.6,16.1,276.3,16.3z M276.5,13.8c-0.8,0.3-1.6,0.3-2.5,0c-1.2-0.4-1.5-0.9-1.3-2.3c0.8,1.3,3.8,1.6,5.1,0
		C277.9,12.9,277.6,13.4,276.5,13.8z M276.5,11.3c-0.9,0.3-1.8,0.3-2.6-0.1c-1.1-0.4-1.4-1-1.1-2.3c1.2,1.5,3.8,1.5,5.1,0
		C277.9,10.4,277.7,10.9,276.5,11.3z M278.8,9.1c1-0.8,3.1-0.8,4.1,0c0.7,0.5,0.7,1.2,0,1.8c-0.6,0.5-1.3,0.6-2.1,0.6
		c-0.7,0-1.4-0.1-2.1-0.6C278.2,10.3,278.2,9.6,278.8,9.1z M282.2,16.3c-0.8,0.3-1.6,0.3-2.5,0c-1.2-0.4-1.5-0.9-1.3-2.3
		c0.8,1.3,3.8,1.6,5.1,0C283.6,15.4,283.4,15.9,282.2,16.3z M282.2,13.7c-0.9,0.3-1.8,0.3-2.6-0.1c-1.1-0.4-1.4-1-1.1-2.3
		c1.2,1.5,3.8,1.5,5.1,0C283.7,12.8,283.4,13.3,282.2,13.7z"/>
</g>
<g>
	<path class="st0" d="M364,20c-5.1,0-10.2,0-15.2,0c-1.2,0-1.3-0.1-1.2-1.3c0-3.2,0.1-6.5,0.1-9.7c0-2.5,0-5-0.1-7.5
		c0-0.9,0.2-1.1,1.1-1.1c10,0,20,0,29.9,0c0.9,0,1.1,0.2,1.1,1.1c0,2.7,0,5.3,0,8c0,0.2,0.1,0.5,0.2,0.6c0.4,0.3,0.9,0.4,1.5,0.7
		c0-3.5,0-6.8,0-10.2c0-1.1-0.5-1.7-1.7-1.8c-0.3,0-0.5,0-0.8,0c-8.9,0-17.8,0-26.6,0c-0.2,0-0.5,0.1-0.7,0
		c-0.3-0.1-0.6-0.4-0.6-0.6c-0.2-0.7,0.2-1,0.9-1c10,0,20.1,0,30.1,0c0.1,0,0.1,0,0.2,0c0.5,0,0.7,0.2,0.8,0.7c0,0.2,0,0.5,0,0.7
		c0,4.3,0,8.6,0,12.9c0,0.2,0.1,0.6,0.2,0.7c0.5,0.5,1,0.9,1.5,1.3c0,0,0,0,0-0.1c0-5.3,0-10.7,0-16c0-1.5-0.7-2-2.2-2
		c-10.4,0-20.8,0-31.1,0c-1.6,0-2.2,0.6-2.2,2.2c0,1-0.1,1.2-1.1,1.2c-1.6,0-2.2,0.6-2.2,2.2c0,6.2,0,12.3,0,18.5
		c0,1.7,0.6,2.2,2.3,2.2c5.4,0,10.8,0,16.2,0c0.2,0,0.5,0,0.7,0c0-0.2,0-0.4,0-0.6C365,20,365,20,364,20z"/>
	<path class="st0" d="M375.8,11c-5,0-9.1,4.1-9.1,9c-0.1,5,3.8,9.3,9.1,9.3c5.1,0,9.1-4,9.1-9.1C384.9,15.1,380.8,11,375.8,11z
		 M375.8,27.7c-4.1,0-7.4-3.4-7.4-7.5c0-4.1,3.3-7.4,7.4-7.4c4.1,0,7.4,3.3,7.5,7.4C383.3,24.3,379.9,27.7,375.8,27.7z"/>
	<path class="st0" d="M377,3.2c-0.9,0-1.7,0-2.6,0c-0.9,0-1.8,0-2.7,0c-0.4,0-0.5,0.1-0.5,0.5c0,1.1,0,2.3,0,3.4
		c0,0.4,0.2,0.6,0.6,0.6c1.8,0,3.6,0,5.4,0c0.5,0,0.6-0.2,0.6-0.6c0-1.1,0-2.2,0-3.3C377.7,3.3,377.5,3.2,377,3.2z"/>
	<path class="st0" d="M350.4,10.6c-0.2,0.2-0.5,0.4-0.5,0.6c0,0.2,0.3,0.5,0.5,0.6c0.2,0.1,0.5,0,0.7,0c5.3,0,10.6,0,15.9,0
		c1.4,0,2.4-0.4,3.4-1.3c-6.7,0-13.2,0-19.8,0C350.6,10.6,350.5,10.6,350.4,10.6z"/>
	<path class="st0" d="M366.3,13.8c-5.1,0-10.2,0-15.4,0c-0.1,0-0.2,0-0.3,0c-0.4,0.1-0.7,0.2-0.7,0.7c0,0.5,0.3,0.6,0.7,0.6
		c0.7,0,1.4,0,2.1,0c4,0,8.1,0.1,12.1,0.1c1.1,0,1.7-0.4,2-1.3C366.6,13.8,366.4,13.8,366.3,13.8z"/>
	<path class="st0" d="M359.4,4.1c-0.2-0.5-0.7-0.6-1.2-0.6c-0.7,0-1.3,0-2,0c0,1.5,0,2.9,0,4.4c0.7,0,1.4,0,2,0
		c0.7,0,1.2-0.1,1.5-0.8c0.2-0.6,0-1.1-0.7-1.5C359.4,5.1,359.6,4.7,359.4,4.1z M356.9,4.2c0.4,0,0.8-0.1,1.2,0
		c0.2,0,0.4,0.4,0.5,0.5c-0.2,0.2-0.3,0.4-0.5,0.5c-0.1,0.1-0.3,0-0.5,0C356.8,5.3,356.7,5.2,356.9,4.2z M358.2,7.2
		c-0.2,0.1-0.4,0-0.7,0c-0.6,0.1-0.8-0.2-0.7-0.7c0-0.1,0-0.3,0-0.5c0.5,0,1-0.1,1.4,0c0.2,0.1,0.6,0.4,0.6,0.6
		C358.8,6.8,358.5,7.1,358.2,7.2z"/>
	<path class="st0" d="M366.6,3.6c0,1.4,0,2.8,0,4.2c1,0,2,0,2.9,0c0.2-0.4,0-0.6-0.4-0.6c-0.6,0-1.1,0-1.8,0c0-1.3,0-2.4,0-3.6
		C367,3.6,366.9,3.6,366.6,3.6z"/>
	<path class="st0" d="M362.7,3.6c0,1.4,0,2.8,0,4.2c1,0,2,0,3,0c0-0.2,0-0.4,0-0.6c-0.8,0-1.5,0-2.2,0c0-1.2,0-2.4,0-3.6
		C363.1,3.6,362.9,3.6,362.7,3.6z"/>
	<path class="st0" d="M360.8,3.5c0,1.5,0,2.9,0,4.3c0.3,0,0.5,0,0.7,0c0-1.5,0-2.9,0-4.3C361.2,3.5,361,3.5,360.8,3.5z"/>
	<path class="st0" d="M377.8,16.5c-0.7,0.9-1.3,1.9-2,2.8c-0.9,1.3-0.9,1.3-2,0.2c-1.1-1.1-1.2-1.1-2.3,0.1c0,0-0.1,0.1-0.1,0.1
		c-0.5,0.5-0.5,0.9,0,1.4c1,1.1,2.1,2.1,3.2,3.2c0.6,0.6,0.8,0.5,1.3-0.1c1.4-2,2.9-4.1,4.3-6.1c0.1-0.2,0.2-0.5,0.4-0.9
		c-0.4-0.3-0.7-0.7-1.1-1C378.7,15.6,378.4,15.7,377.8,16.5z"/>
</g>
</svg>
