<?xml version="1.0" encoding="utf-8"?>
<!-- Generator: Adobe Illustrator 21.1.0, SVG Export Plug-In . SVG Version: 6.00 Build 0)  -->
<svg version="1.1" id="Layer_1" xmlns="http://www.w3.org/2000/svg" xmlns:xlink="http://www.w3.org/1999/xlink" x="0px" y="0px"
	 viewBox="0 0 40 40" style="enable-background:new 0 0 40 40;" xml:space="preserve">
<style type="text/css">
	.st0{fill:#FF6400;}
	.st1{fill:#FFFFFF;}
</style>
<g>
	<circle class="st0" cx="20" cy="20" r="20"/>
	<g>
		<polygon class="st1" points="26.3,20.9 25.4,20.9 25.4,24.4 25.4,25.3 26.3,25.3 28.7,25.3 28.7,24.4 26.3,24.4 		"/>
		<path class="st1" d="M26,18.8c-2.9,0-5.3,2.4-5.3,5.3s2.4,5.3,5.3,5.3s5.3-2.4,5.3-5.3S28.9,18.8,26,18.8z M26,28.5
			c-2.4,0-4.4-2-4.4-4.4c0-2.4,2-4.4,4.4-4.4c2.4,0,4.4,2,4.4,4.4C30.4,26.5,28.4,28.5,26,28.5z"/>
		<path class="st1" d="M10.9,27.1c-0.5,0-0.9-0.4-0.9-0.9V14.4c0-0.5,0.4-0.9,0.9-0.9h16.4c0.5,0,0.9,0.4,0.9,0.9v3.6
			c0.5,0.2,0.9,0.4,1.3,0.7v-8.3c0-0.6-0.5-1.1-1.1-1.1H9.8c-0.6,0-1.1,0.5-1.1,1.1v16.7c0,0.6,0.5,1.1,1.1,1.1H21
			c-0.3-0.3-0.5-0.7-0.8-1.1H10.9z M17.8,10.5c0.5,0,0.9,0.4,0.9,0.9c0,0.5-0.4,0.9-0.9,0.9s-0.9-0.4-0.9-0.9
			C16.9,10.9,17.3,10.5,17.8,10.5z M14.5,10.5c0.5,0,0.9,0.4,0.9,0.9c0,0.5-0.4,0.9-0.9,0.9c-0.5,0-0.9-0.4-0.9-0.9
			C13.6,10.9,14,10.5,14.5,10.5z M11.3,10.5c0.5,0,0.9,0.4,0.9,0.9c0,0.5-0.4,0.9-0.9,0.9c-0.5,0-0.9-0.4-0.9-0.9
			C10.4,10.9,10.8,10.5,11.3,10.5z"/>
	</g>
</g>
</svg>
