<svg xmlns="http://www.w3.org/2000/svg" xmlns:xlink="http://www.w3.org/1999/xlink" width="534" height="541" viewBox="0 0 534 541">
  <defs>
    <clipPath id="clip-_1">
      <rect width="534" height="541"/>
    </clipPath>
  </defs>
  <g id="_1" data-name="1" clip-path="url(#clip-_1)">
    <g id="Group_16" data-name="Group 16" transform="translate(-5 21)">
      <g id="auto-loan" transform="translate(24 2)">
        <path id="Path_12" data-name="Path 12" d="M96,288h0a193.5,193.5,0,0,1,167.136-96h.568a193.489,193.489,0,0,1,168,97.5L440,304l21.264,3.544A32,32,0,0,1,488,339.112V448H8V344.056a47.994,47.994,0,0,1,39.416-47.224Z" fill="#fff"/>
        <rect id="Rectangle_1" data-name="Rectangle 1" width="480" height="24" transform="translate(8 424)" fill="#fff"/>
        <circle id="Ellipse_1" data-name="Ellipse 1" cx="56" cy="56" r="56" transform="translate(328 376)" fill="#fff"/>
        <path id="Path_13" data-name="Path 13" d="M384,464a56,56,0,0,1-54.68-44,56,56,0,1,0,109.36,0A56,56,0,0,1,384,464Z" fill="#fff"/>
        <circle id="Ellipse_2" data-name="Ellipse 2" cx="56" cy="56" r="56" transform="translate(56 376)" fill="#fff"/>
        <path id="Path_14" data-name="Path 14" d="M112,464a56,56,0,0,1-54.68-44,56,56,0,1,0,109.36,0A56,56,0,0,1,112,464Z" fill="#fff"/>
        <g id="Group_1" data-name="Group 1">
          <circle id="Ellipse_3" data-name="Ellipse 3" cx="24" cy="24" r="24" transform="translate(360 408)" fill="#fff"/>
          <circle id="Ellipse_4" data-name="Ellipse 4" cx="24" cy="24" r="24" transform="translate(88 408)" fill="#fff"/>
        </g>
        <path id="Path_15" data-name="Path 15" d="M24,328H10.768A96.989,96.989,0,0,0,8,351.016V368H24a16,16,0,0,0,16-16v-8A16,16,0,0,0,24,328Z" fill="#fff"/>
        <path id="Path_16" data-name="Path 16" d="M136,320H392V289.048A154.847,154.847,0,0,0,265.88,224h0A154.841,154.841,0,0,0,136,294.592Z" fill="#fff"/>
        <circle id="Ellipse_5" data-name="Ellipse 5" cx="96" cy="96" r="96" transform="translate(184 8)" fill="#fff"/>
        <path id="Path_17" data-name="Path 17" d="M280,176a95.952,95.952,0,0,1-95.168-84,96,96,0,1,0,190.336,0A95.952,95.952,0,0,1,280,176Z" fill="#fff"/>
        <path id="Path_18" data-name="Path 18" d="M144,288h24a16,16,0,0,1,16,16v16H136V296Z" fill="#fff"/>
        <path id="Path_19" data-name="Path 19" d="M112,400a32,32,0,1,0,32,32A32.032,32.032,0,0,0,112,400Zm0,48a16,16,0,1,1,16-16A16.016,16.016,0,0,1,112,448Z" fill="#a9a9a9"/>
        <path id="Path_20" data-name="Path 20" d="M384,400a32,32,0,1,0,32,32A32.032,32.032,0,0,0,384,400Zm0,48a16,16,0,1,1,16-16A16.016,16.016,0,0,1,384,448Z" fill="#a9a9a9"/>
        <path id="Path_21" data-name="Path 21" d="M280,64a16.016,16.016,0,0,1,16,16h16a31.964,31.964,0,0,0-24-30.864V32H272V49.136A31.933,31.933,0,0,0,280,112a16,16,0,1,1-16,16H248a31.964,31.964,0,0,0,24,30.864V176h16V158.864A31.933,31.933,0,0,0,280,96a16,16,0,0,1,0-32Z" fill="#a9a9a9"/>
        <path id="Path_22" data-name="Path 22" d="M496,339.112a39.879,39.879,0,0,0-33.432-39.456l-18.728-3.12A201.324,201.324,0,0,0,329.784,195.168a105.086,105.086,0,0,0,10.416-6.456l-9.28-13.032a88.207,88.207,0,1,1,20.752-20.752l13.032,9.28a104,104,0,1,0-144.5,24.744A200.61,200.61,0,0,0,92.936,280.424L45.984,288.96A55.8,55.8,0,0,0,5.648,320H4.488l-1.5,6.1c-.056.24-.072.488-.128.728A55.573,55.573,0,0,0,0,344.056V456H52.712a63.938,63.938,0,0,0,118.576,0H324.712a63.938,63.938,0,0,0,118.576,0H496ZM24,336a8.008,8.008,0,0,1,8,8v8a8.008,8.008,0,0,1-8,8H16v-8.992A89.924,89.924,0,0,1,17.272,336ZM16,440V408H52.712A63.562,63.562,0,0,0,48,432a64.375,64.375,0,0,0,.552,8Zm96,40a48,48,0,1,1,48-48A48.048,48.048,0,0,1,112,480Zm63.448-40a64.374,64.374,0,0,0,.552-8,63.562,63.562,0,0,0-4.712-24H280V392H161.88a63.834,63.834,0,0,0-99.76,0H16V376h8a24.029,24.029,0,0,0,24-24v-8a24.015,24.015,0,0,0-23.824-23.984A39.843,39.843,0,0,1,48.848,304.7l47.7-8.672,5.656.264,2.44-4.208A184.388,184.388,0,0,1,243.552,201.28a102.294,102.294,0,0,0,61.944,3.5A184.942,184.942,0,0,1,431.24,307.264l2.032,4.424,4.856.232,21.816,3.512A23.934,23.934,0,0,1,480,339.112V392H433.88a63.834,63.834,0,0,0-99.76,0H296v16h28.712A63.562,63.562,0,0,0,320,432a64.374,64.374,0,0,0,.552,8ZM384,480a48,48,0,1,1,48-48A48.048,48.048,0,0,1,384,480Zm63.448-40a64.374,64.374,0,0,0,.552-8,63.562,63.562,0,0,0-4.712-24H480v32Z" fill="#a9a9a9"/>
        <path id="Path_23" data-name="Path 23" d="M400,286.488l-1.488-2.08a162.783,162.783,0,0,0-269.224,5.824L128,292.224V328H400ZM265.872,232A145.423,145.423,0,0,1,288,233.752V312H192v-8a24.029,24.029,0,0,0-24-24H157.376A146.162,146.162,0,0,1,265.872,232ZM144,296.992c.232-.336.48-.656.712-.992H168a8.008,8.008,0,0,1,8,8v8H144ZM384,312H304V237.12a147.115,147.115,0,0,1,80,54.52Z" fill="#a9a9a9"/>
        <rect id="Rectangle_2" data-name="Rectangle 2" width="16" height="16" transform="translate(208 96)" fill="#a9a9a9"/>
        <rect id="Rectangle_3" data-name="Rectangle 3" width="16" height="16" transform="translate(336 96)" fill="#a9a9a9"/>
      </g>
    </g>
  </g>
</svg>
