<?xml version="1.0" encoding="UTF-8" standalone="no"?>
<svg
   xmlns:dc="http://purl.org/dc/elements/1.1/"
   xmlns:cc="http://creativecommons.org/ns#"
   xmlns:rdf="http://www.w3.org/1999/02/22-rdf-syntax-ns#"
   xmlns:svg="http://www.w3.org/2000/svg"
   xmlns="http://www.w3.org/2000/svg"
   xml:space="preserve"
   style="enable-background:new 0 0 30 30;"
   viewBox="0 0 30 30"
   y="0px"
   x="0px"
   id="Layer_1"
   version="1.1"><metadata
     id="metadata135"><rdf:RDF><cc:Work
         rdf:about=""><dc:format>image/svg+xml</dc:format><dc:type
           rdf:resource="http://purl.org/dc/dcmitype/StillImage" /><dc:title></dc:title></cc:Work></rdf:RDF></metadata><defs
     id="defs133" /><style
     id="style3"
     type="text/css">
	.st0{fill:#FF6400;}
</style><path
     id="path83"
     d="M 15 -0.021484375 C 6.713881 -0.021484375 0 6.7353649 0 15.021484 C 0 23.307603 6.713881 30.021484 15 30.021484 C 23.286119 30.021484 30 23.307603 30 15.021484 C 30 6.7353649 23.286119 -0.021484375 15 -0.021484375 z M 15 1.2109375 C 22.648725 1.2109375 28.810547 7.3727589 28.810547 15.021484 C 28.810547 22.670209 22.648725 28.832031 15 28.832031 C 7.393768 28.832031 1.1894531 22.670209 1.1894531 15.021484 C 1.1894531 7.3727589 7.351275 1.2109375 15 1.2109375 z M 9.0507812 7.796875 C 8.3708945 7.796875 8.1152344 8.0525352 8.1152344 8.7324219 C 8.1152344 9.157351 8.0733666 9.2421875 7.6484375 9.2421875 C 6.9685508 9.2421875 6.7148437 9.4978475 6.7148438 10.177734 L 6.7148438 18.039062 C 6.7148438 18.761442 6.9690266 18.972656 7.6914062 18.972656 L 14.574219 18.972656 L 14.873047 18.972656 L 14.873047 18.71875 C 14.830557 18.251328 14.829229 18.25 14.404297 18.25 L 7.9453125 18.25 C 7.4353975 18.25 7.393054 18.209137 7.4355469 17.699219 C 7.4355469 16.339446 7.4785156 14.935946 7.4785156 13.576172 C 7.4785156 12.513849 7.4780399 11.450995 7.4355469 10.388672 C 7.4355469 10.006236 7.5218608 9.921875 7.9042969 9.921875 L 20.609375 9.921875 C 20.991811 9.921875 21.076172 10.006236 21.076172 10.388672 L 21.076172 13.789062 C 21.076172 13.874052 21.119619 14.000476 21.162109 14.042969 C 21.332081 14.170448 21.543871 14.214318 21.798828 14.341797 L 21.798828 10.007812 C 21.798828 9.5403905 21.586087 9.2846804 21.076172 9.2421875 L 20.736328 9.2421875 L 9.4335938 9.2421875 C 9.3486077 9.2421875 9.2217046 9.2846805 9.1367188 9.2421875 C 9.0092449 9.1996946 8.8808594 9.0713139 8.8808594 8.9863281 C 8.7958735 8.6888777 8.9662215 8.5625 9.2636719 8.5625 L 22.054688 8.5625 L 22.138672 8.5625 C 22.351136 8.5625 22.436023 8.6469106 22.478516 8.859375 L 22.478516 9.15625 L 22.478516 14.638672 C 22.478516 14.723662 22.521953 14.893054 22.564453 14.935547 C 22.776917 15.148011 22.988707 15.318309 23.201172 15.488281 L 23.201172 15.445312 L 23.201172 8.6464844 C 23.201172 8.0090907 22.903019 7.796875 22.265625 7.796875 L 9.0507812 7.796875 z M 17.677734 11.111328 C 17.507763 11.111328 17.464844 11.154244 17.464844 11.324219 L 17.464844 12.769531 C 17.464844 12.939502 17.548773 13.023438 17.71875 13.023438 L 20.013672 13.023438 C 20.226136 13.023438 20.269531 12.939498 20.269531 12.769531 L 20.269531 11.367188 C 20.227041 11.154723 20.142152 11.111328 19.929688 11.111328 L 18.824219 11.111328 L 17.677734 11.111328 z M 11.089844 11.240234 L 11.089844 13.109375 L 11.941406 13.109375 C 12.238857 13.109375 12.450646 13.066984 12.578125 12.769531 C 12.663115 12.514573 12.5787 12.300831 12.28125 12.130859 C 12.451221 11.918394 12.536158 11.749099 12.451172 11.494141 C 12.366182 11.281677 12.153871 11.240234 11.941406 11.240234 L 11.089844 11.240234 z M 13.044922 11.240234 L 13.044922 13.066406 L 13.34375 13.066406 L 13.34375 11.240234 L 13.044922 11.240234 z M 13.853516 11.28125 L 13.853516 13.066406 L 15.126953 13.066406 L 15.126953 12.8125 L 14.193359 12.8125 L 14.193359 11.28125 L 13.853516 11.28125 z M 15.509766 11.28125 L 15.509766 13.066406 L 16.742188 13.066406 C 16.827178 12.896435 16.742238 12.8125 16.572266 12.8125 L 15.806641 12.8125 L 15.806641 11.28125 L 15.509766 11.28125 z M 11.642578 11.521484 C 11.727564 11.516173 11.813452 11.515864 11.898438 11.537109 C 11.983427 11.537109 12.068835 11.707507 12.111328 11.75 C 12.026338 11.83499 11.983423 11.918444 11.898438 11.960938 C 11.855947 12.003428 11.770533 11.960938 11.685547 11.960938 C 11.345603 12.003428 11.303687 11.962038 11.388672 11.537109 C 11.473658 11.537109 11.557592 11.526796 11.642578 11.521484 z M 11.658203 12.285156 C 11.759124 12.279845 11.856421 12.279536 11.941406 12.300781 C 12.026396 12.343271 12.195313 12.471655 12.195312 12.556641 C 12.195312 12.641631 12.068885 12.770007 11.941406 12.8125 C 11.856416 12.85499 11.770057 12.8125 11.642578 12.8125 C 11.38762 12.85499 11.303211 12.726133 11.345703 12.513672 L 11.345703 12.300781 C 11.451936 12.300781 11.557282 12.290468 11.658203 12.285156 z M 8.7109375 14.214844 C 8.7109375 14.257334 8.6694461 14.255859 8.6269531 14.255859 C 8.5419671 14.340849 8.4140625 14.426734 8.4140625 14.511719 C 8.4140625 14.596709 8.5419672 14.723132 8.6269531 14.765625 C 8.7119391 14.808115 8.8388423 14.765625 8.9238281 14.765625 L 15.679688 14.765625 C 16.274589 14.765625 16.700071 14.59728 17.125 14.214844 L 8.7109375 14.214844 z M 19.419922 14.425781 C 17.295276 14.425781 15.552734 16.167847 15.552734 18.25 C 15.510244 20.374646 17.167797 22.203125 19.419922 22.203125 C 21.587061 22.203125 23.285156 20.503076 23.285156 18.335938 C 23.285156 16.168799 21.544568 14.425781 19.419922 14.425781 z M 19.419922 15.191406 C 21.162131 15.191406 22.562976 16.593728 22.605469 18.335938 C 22.605469 20.078148 21.162131 21.523437 19.419922 21.523438 C 17.677712 21.523438 16.275391 20.078148 16.275391 18.335938 C 16.275391 16.593727 17.677712 15.191406 19.419922 15.191406 z M 8.7109375 15.615234 C 8.5409658 15.657724 8.4140625 15.701602 8.4140625 15.914062 C 8.4140625 16.126527 8.5409658 16.167969 8.7109375 16.167969 L 9.6035156 16.167969 C 11.303233 16.167969 13.044424 16.210938 14.744141 16.210938 C 15.211563 16.210938 15.468224 16.040639 15.595703 15.658203 C 15.510713 15.615713 15.425306 15.615234 15.382812 15.615234 L 8.8378906 15.615234 L 8.7109375 15.615234 z M 20.597656 16.476562 C 20.491424 16.497809 20.39701 16.5937 20.269531 16.763672 C 19.972081 17.146108 19.717372 17.570689 19.419922 17.953125 C 19.037486 18.505533 19.037735 18.506481 18.570312 18.039062 C 18.102891 17.571641 18.059219 17.570166 17.591797 18.080078 L 17.548828 18.123047 C 17.336364 18.335512 17.336364 18.506286 17.548828 18.71875 C 17.973758 19.186172 18.442734 19.610703 18.910156 20.078125 C 19.165113 20.333082 19.248473 20.29011 19.460938 20.035156 C 20.055839 19.185297 20.694161 18.293217 21.289062 17.443359 C 21.331553 17.358369 21.374002 17.230519 21.458984 17.060547 C 21.289012 16.933069 21.162158 16.764198 20.992188 16.636719 C 20.822215 16.50924 20.703889 16.455316 20.597656 16.476562 z "
     style="fill:#ff6400" /></svg>