<svg xmlns="http://www.w3.org/2000/svg" xmlns:xlink="http://www.w3.org/1999/xlink" width="64" height="64" viewBox="0 0 64 64">
  <defs>
    <clipPath id="clip-path">
      <rect id="Rectangle_6587" data-name="Rectangle 6587" width="64" height="64"/>
    </clipPath>
  </defs>
  <g id="camera" clip-path="url(#clip-path)">
    <g id="FaceID" clip-path="url(#clip-path)">
      <path id="Union_3" data-name="Union 3" d="M469.178-425a1.421,1.421,0,0,1-1.409-1.433,1.421,1.421,0,0,1,1.409-1.434h15V-443.12a1.421,1.421,0,0,1,1.409-1.433,1.422,1.422,0,0,1,1,.424,1.422,1.422,0,0,1,.409,1.01v16.686A1.421,1.421,0,0,1,485.59-425Zm-40.768,0a1.422,1.422,0,0,1-1.41-1.433v-16.686a1.422,1.422,0,0,1,1.41-1.433,1.421,1.421,0,0,1,1.409,1.433v15.253h15a1.421,1.421,0,0,1,1.409,1.434A1.421,1.421,0,0,1,444.822-425Zm55.772-42.881v-15.253h-15a1.422,1.422,0,0,1-1.409-1.434,1.421,1.421,0,0,1,1.4-1.432H485.59a1.421,1.421,0,0,1,1.41,1.433v16.686a1.422,1.422,0,0,1-1.409,1.434,1.422,1.422,0,0,1-1.41-1.434Zm-57.182,0v-16.686A1.422,1.422,0,0,1,428.41-486h16.413a1.421,1.421,0,0,1,1.409,1.433,1.422,1.422,0,0,1-1.409,1.434h-15v15.253a1.422,1.422,0,0,1-1.409,1.434,1.422,1.422,0,0,1-1-.424,1.422,1.422,0,0,1-.409-1.011Z" transform="translate(-425 488)"/>
    </g>
    <g id="Icon_feather-camera" data-name="Icon feather-camera" transform="translate(15.967 15.7)">
      <path id="Path_15009" data-name="Path 15009" d="M31.566,26.366A2.733,2.733,0,0,1,28.833,29.1H4.233A2.733,2.733,0,0,1,1.5,26.366V11.333A2.733,2.733,0,0,1,4.233,8.6H9.7l2.733-4.1h8.2l2.733,4.1h5.467a2.733,2.733,0,0,1,2.733,2.733Z" fill="none" stroke="#000" stroke-linecap="round" stroke-linejoin="round" stroke-width="3"/>
      <path id="Path_15010" data-name="Path 15010" d="M22.933,18.967A5.467,5.467,0,1,1,17.467,13.5,5.467,5.467,0,0,1,22.933,18.967Z" transform="translate(-0.933 -0.8)" fill="none" stroke="#000" stroke-linecap="round" stroke-linejoin="round" stroke-width="3"/>
    </g>
  </g>
</svg>
