<?xml version="1.0" encoding="UTF-8" standalone="no"?>
<svg
   xmlns:dc="http://purl.org/dc/elements/1.1/"
   xmlns:cc="http://creativecommons.org/ns#"
   xmlns:rdf="http://www.w3.org/1999/02/22-rdf-syntax-ns#"
   xmlns:svg="http://www.w3.org/2000/svg"
   xmlns="http://www.w3.org/2000/svg"
   height="30"
   width="30"
   xml:space="preserve"
   viewBox="0 0 30 30"
   y="0px"
   x="0px"
   id="Layer_1"
   version="1.1"><metadata
     id="metadata91"><rdf:RDF><cc:Work
         rdf:about=""><dc:format>image/svg+xml</dc:format><dc:type
           rdf:resource="http://purl.org/dc/dcmitype/StillImage" /><dc:title></dc:title></cc:Work></rdf:RDF></metadata><defs
     id="defs89" /><style
     id="style3"
     type="text/css">
	.st0{fill:#FF6400;}
	.st1{font-family:'MyriadPro-Regular';}
	.st2{font-size:10.3105px;}
</style><path
     id="path25"
     d="M 15.000415,0 C 6.7144812,0 4.1515e-4,6.714066 4.1515e-4,15 c 0,8.285937 6.71406605,15 14.99999985,15 8.285935,0 14.99917,-6.714063 14.99917,-15 0,-8.285934 -6.713235,-15 -14.99917,-15 z m 0,1.190107 c 7.648556,0 13.809892,6.203665 13.809892,13.852219 0,7.648557 -6.203828,13.767567 -13.809892,13.767567 C 7.3943532,28.809893 1.1905222,22.648557 1.1905222,15 c 0,-7.648554 6.161339,-13.809893 13.8098928,-13.809893 z m 7.350614,5.523957 0,0.01079 c 0.0023,-6.37e-4 0.0044,-0.0011 0.0066,-0.0017 -0.0032,-0.0058 -0.0027,-0.0013 -0.0066,-0.0091 z m 0.0066,0.0091 c 0.03175,0.05668 0.03568,0.02943 0.03568,-0.0091 -0.009,0 -0.02373,0.0061 -0.03568,0.0091 z m -0.0066,0.0017 c -0.04381,0.01196 -0.09512,0.03154 -0.126978,0.03154 -0.722364,0.254952 -1.402235,0.509738 -2.124599,0.679706 -0.339935,0.08498 -0.722364,0.127808 -1.062299,0.127808 -0.509904,0 -0.977316,-0.08532 -1.48722,-0.127808 -0.849839,-0.04249 -1.742834,-0.126812 -2.592674,-0.169304 -0.339936,0 -0.679374,0.04233 -0.976817,0.254786 -0.21246,0.127476 -0.46791,0.297444 -0.722862,0.42492 -1.699677,1.189775 -3.3562018,2.379718 -5.0558818,3.569492 -0.212459,0.127476 -0.382759,0.339438 -0.552727,0.551898 -0.169968,0.212459 -0.08482,0.425417 0.170134,0.510401 0.04249,0 0.08515,0.04233 0.170134,0.04233 0.382427,0.08498 0.764689,0.04216 1.104625,-0.127808 1.0622998,-0.509904 2.0822728,-1.061802 3.1445718,-1.614197 0.04249,-0.04249 0.127476,-0.04299 0.21246,-0.08548 -0.04249,0.849839 0.46708,1.402069 0.934492,1.954465 -0.764854,0.382427 -1.189775,0.977647 -1.274759,1.827487 -0.08498,0.849839 0.254622,1.487551 0.934491,2.039947 l -0.21246,0 -3.4840098,0 c -0.382428,0 -0.509572,0.127144 -0.509572,0.509571 l 0,5.60861 c 0,0.424919 0.126978,0.510401 0.551898,0.510401 l 9.8586358,0 c 0.382428,0 0.509572,-0.127974 0.509572,-0.510401 l 0,-5.650936 c 0,-0.382428 -0.127144,-0.510402 -0.509572,-0.510401 l -3.48484,0 -0.21246,0 c 1.147284,-0.84984 1.232268,-2.336561 0.42492,-3.313877 0,0 -1.66e-4,-0.04233 0.04233,-0.04233 0.764856,-0.42492 1.487551,-0.850171 2.252407,-1.190107 0.84984,-0.42492 1.742338,-0.764526 2.507193,-1.359412 0.509904,-0.382446 1.019641,-0.807698 1.529545,-1.190126 0.04249,-0.04249 0.04233,-0.127642 0.04233,-0.170134 l 0,-2.581056 z m -6.628583,3.218435 c 0.21246,0.04249 0.42492,0.04282 0.63738,0.127808 0.297444,0.127476 0.425252,0.382098 0.340268,0.722032 -0.08498,0.339936 -0.340102,0.595054 -0.595054,0.807514 -0.382427,0.297443 -0.807845,0.595053 -1.147781,1.019973 -0.08498,0.08498 -0.339272,0.042 -0.381764,-0.08548 -0.169968,-0.382428 -0.340599,-0.764524 -0.468076,-1.146951 -0.212459,-0.594888 0.04299,-1.0623 0.722862,-1.27476 0.297444,-0.08498 0.594722,-0.127642 0.892165,-0.170134 z m -1.275589,3.27404 c 0.08548,0.0059 0.170632,0.01942 0.255616,0.04067 0.08498,0.297444 0.212792,0.382594 0.552728,0.382594 0.127476,0 0.212127,0.042 0.297111,0.126978 0.552396,0.63738 0.510402,1.700011 -0.126977,2.252407 -0.722364,0.637379 -1.742172,0.552064 -2.337059,-0.127808 -0.46741,-0.552396 -0.510234,-1.274759 -0.127808,-1.912139 0.297444,-0.483346 0.888016,-0.803945 1.486389,-0.762698 z m -1.826657,4.374516 0.84984,0 0.892995,0 1.614197,0 c 0.254952,0 0.42492,0.170134 0.42492,0.382594 0,0.169968 -0.127144,0.340102 -0.297112,0.382594 l -0.08548,0 -3.399358,0 c -0.169967,0 -0.29678,-0.04249 -0.381764,-0.21246 -0.127476,-0.254952 0.04183,-0.510236 0.381764,-0.552728 z"
     style="fill:#ff6400" /></svg>