<?xml version="1.0" encoding="UTF-8" standalone="no"?>
<svg
   xmlns:dc="http://purl.org/dc/elements/1.1/"
   xmlns:cc="http://creativecommons.org/ns#"
   xmlns:rdf="http://www.w3.org/1999/02/22-rdf-syntax-ns#"
   xmlns:svg="http://www.w3.org/2000/svg"
   xmlns="http://www.w3.org/2000/svg"
   xml:space="preserve"
   style="enable-background:new 0 0 30 30;"
   viewBox="0 0 30 30"
   y="0px"
   x="0px"
   id="Layer_1"
   version="1.1"><metadata
     id="metadata135"><rdf:RDF><cc:Work
         rdf:about=""><dc:format>image/svg+xml</dc:format><dc:type
           rdf:resource="http://purl.org/dc/dcmitype/StillImage" /><dc:title></dc:title></cc:Work></rdf:RDF></metadata><defs
     id="defs133" /><style
     id="style3"
     type="text/css">
	.st0{fill:#FF6400;}
</style><path
     id="path67"
     d="M 14.978516 0.021484375 C 6.7041156 0.021484375 0 6.7256015 0 15 C 0 23.274399 6.7041156 29.978516 14.978516 29.978516 C 23.252916 29.978516 30 23.317367 30 15.042969 C 30 6.7685692 23.295356 0.021484375 14.978516 0.021484375 z M 14.978516 1.2089844 C 22.616426 1.2089844 28.769531 7.4050623 28.769531 15.042969 C 28.769531 22.680876 22.616426 28.791016 14.978516 28.791016 C 7.3830456 28.791016 1.1875 22.637907 1.1875 15 C 1.1875 7.3620935 7.3406156 1.2089844 14.978516 1.2089844 z M 22.023438 7.5097656 L 22.023438 9.5058594 L 11.923828 9.5058594 L 11.923828 10.650391 L 22.023438 10.650391 L 22.023438 12.603516 L 24.568359 10.056641 L 22.023438 7.5097656 z M 9.3769531 12.09375 C 9.2920871 12.13618 9.2929687 12.178275 9.2929688 12.220703 L 9.2929688 17.609375 C 9.2929688 17.906404 9.292814 17.90625 9.5898438 17.90625 L 13.494141 17.90625 L 13.705078 17.90625 C 13.620208 17.82138 13.577589 17.737746 13.535156 17.695312 C 12.559202 16.507195 12.559741 14.553889 13.578125 13.408203 C 14.299483 12.559547 15.40276 12.475026 16.208984 13.28125 C 17.312237 14.384503 17.397293 16.505777 16.378906 17.736328 C 16.336476 17.778758 16.294382 17.863818 16.251953 17.90625 L 20.75 17.90625 L 20.75 12.09375 L 9.3769531 12.09375 z M 10.183594 12.984375 L 10.353516 12.984375 L 11.966797 12.984375 C 12.263827 12.984375 12.305569 13.027722 12.220703 13.367188 L 11.203125 13.367188 L 10.736328 13.367188 C 10.566597 13.367188 10.523438 13.408391 10.523438 13.578125 L 10.523438 14.257812 L 10.183594 14.257812 L 10.183594 12.984375 z M 18.033203 12.984375 L 19.689453 12.984375 C 19.859185 12.984375 19.900391 13.027532 19.900391 13.197266 L 19.900391 14.300781 L 19.476562 14.300781 L 19.476562 13.367188 L 17.822266 13.367188 C 17.822266 13.324758 17.779297 13.32369 17.779297 13.28125 C 17.694427 12.98422 17.693736 12.984375 18.033203 12.984375 z M 10.183594 15.699219 L 10.523438 15.699219 L 10.523438 16.548828 L 12.263672 16.548828 L 12.263672 16.931641 L 10.183594 16.931641 L 10.183594 15.699219 z M 19.433594 15.742188 L 19.859375 15.742188 L 19.859375 16.931641 L 17.736328 16.931641 L 17.736328 16.591797 L 19.433594 16.591797 L 19.433594 15.742188 z M 7.9355469 17.396484 L 5.4316406 19.943359 L 7.9355469 22.490234 L 7.9355469 20.537109 L 18.076172 20.537109 L 18.076172 19.392578 L 7.9355469 19.392578 L 7.9355469 17.396484 z "
     style="fill:#ff6400" /></svg>