<?xml version="1.0" encoding="UTF-8" standalone="no"?>
<svg
   xmlns:dc="http://purl.org/dc/elements/1.1/"
   xmlns:cc="http://creativecommons.org/ns#"
   xmlns:rdf="http://www.w3.org/1999/02/22-rdf-syntax-ns#"
   xmlns:svg="http://www.w3.org/2000/svg"
   xmlns="http://www.w3.org/2000/svg"
   xml:space="preserve"
   style="enable-background:new 0 0 51 51;"
   viewBox="0 0 51 51"
   y="0px"
   x="0px"
   id="Layer_1"
   version="1.1"><metadata
     id="metadata31"><rdf:RDF><cc:Work
         rdf:about=""><dc:format>image/svg+xml</dc:format><dc:type
           rdf:resource="http://purl.org/dc/dcmitype/StillImage" /><dc:title></dc:title></cc:Work></rdf:RDF></metadata><defs
     id="defs29" /><style
     id="style3"
     type="text/css">
	.st0{fill:#666666;}
</style><g
     id="g5"><path
       id="path7"
       d="M25.5,0.5c-13.8,0-25,11.2-25,25s11.2,25,25,25c13.8,0,25-11.2,25-25S39.3,0.5,25.5,0.5z M25.5,48.8   c-12.9,0-23.3-10.5-23.3-23.3S12.6,2.2,25.5,2.2c12.9,0,23.3,10.5,23.3,23.3S38.4,48.8,25.5,48.8z"
       class="st0" /><g
       id="g9"><path
         id="path11"
         d="M33.5,29.3c-1,0.5-2.1,0.6-3.2,0.6c-1.1,0-2.2-0.1-3.2-0.6c-1.1-0.5-1.1-1.3,0-1.8c1.6-0.8,4.8-0.8,6.4,0    C34.6,28,34.6,28.8,33.5,29.3z"
         class="st0" /><path
         id="path13"
         d="M23.9,25.9c-1,0.5-2.1,0.6-3.2,0.6c-1.1,0-2.2-0.1-3.2-0.6c-1.1-0.5-1.1-1.3,0-1.8c1.6-0.8,4.8-0.8,6.4,0    C24.9,24.6,25,25.3,23.9,25.9z"
         class="st0" /><path
         id="path15"
         d="M24.7,27.4c0.3,1.5-0.2,2-2,2.4c-1.4,0.3-2.7,0.3-4.1-0.1c-1.7-0.4-2.1-1.1-1.7-2.4    C18.6,28.9,22.7,28.9,24.7,27.4z"
         class="st0" /><path
         id="path17"
         d="M22.6,33.3c-1.3,0.3-2.5,0.3-3.8,0c-1.9-0.4-2.4-1-2.1-2.4c1.3,1.4,5.9,1.6,7.9,0    C24.9,32.4,24.5,32.9,22.6,33.3z"
         class="st0" /><path
         id="path19"
         d="M32.6,33.3c-1.6,0.4-3.1,0.4-4.7,0c-1.5-0.4-1.9-1-1.5-2.2c1.6,1.4,6.3,1.4,7.9-0.1    C34.4,32.4,34.2,32.9,32.6,33.3z"
         class="st0" /><path
         id="path21"
         d="M24.7,34.4c0.1,1.7-0.3,2.2-2.2,2.5c-1.1,0.1-2.3,0.1-3.4,0c-2-0.2-2.5-0.9-2.3-2.5    C18.4,36,23.1,35.9,24.7,34.4z"
         class="st0" /><path
         id="path23"
         d="M34.3,34.4c0.2,1.6-0.2,2.1-2.1,2.5c-1.4,0.3-2.9,0.3-4.3-0.1c-1.5-0.4-1.9-1-1.5-2.2    C28,35.9,32.7,35.9,34.3,34.4z"
         class="st0" /><polygon
         id="polygon25"
         points="26.2,20.7 26.2,13.9 24.7,13.9 24.7,20.7 23.3,19.3 21.2,19.3 25.4,23.1 29.7,19.3 27.5,19.3   "
         class="st0" /></g></g></svg>