<svg xmlns="http://www.w3.org/2000/svg" xmlns:xlink="http://www.w3.org/1999/xlink" width="191" height="215" viewBox="0 0 191 215">
  <defs>
    <clipPath id="clip-ic">
      <rect width="191" height="215"/>
    </clipPath>
  </defs>
  <g id="ic" clip-path="url(#clip-ic)">
    <g id="Group_1007" data-name="Group 1007" transform="translate(-521 -111)">
      <ellipse id="Ellipse_294" data-name="Ellipse 294" cx="85" cy="2.5" rx="85" ry="2.5" transform="translate(532 308)"/>
      <g id="_411" data-name="411" transform="translate(404.655 -27.8)">
        <g id="Group_1005" data-name="Group 1005" transform="translate(154.345 143.8)">
          <path id="Path_1501" data-name="Path 1501" d="M1295.021,3879.343a6.224,6.224,0,0,0-.559,2.546,4.874,4.874,0,0,0,2.84,3.658,18.88,18.88,0,0,0,5.306,1.647c5.23,1.036,10.72,1.784,15.827.256a3.463,3.463,0,0,0,1.505-.772,2.334,2.334,0,0,0,.35-2.508,4.026,4.026,0,0,0-1.874-1.855,17.256,17.256,0,0,0-2.509-.966,26.941,26.941,0,0,1-11.369-7.605,2.727,2.727,0,0,0-1-.833,2.65,2.65,0,0,0-1.235-.052l-3.076.369c-.648.081-1.789-.042-2.158.592a16.852,16.852,0,0,0-.937,2.546Q1295.572,3877.849,1295.021,3879.343Z" transform="translate(-1240.495 -3696.32)" fill="#fff"/>
          <path id="Path_1502" data-name="Path 1502" d="M652.639,3879.343a6.22,6.22,0,0,1,.558,2.546,4.873,4.873,0,0,1-2.84,3.658,18.88,18.88,0,0,1-5.306,1.647c-5.23,1.036-10.72,1.784-15.827.256a3.463,3.463,0,0,1-1.505-.772,2.334,2.334,0,0,1-.35-2.508,4.023,4.023,0,0,1,1.874-1.855,17.25,17.25,0,0,1,2.509-.966,26.94,26.94,0,0,0,11.368-7.605,2.728,2.728,0,0,1,1-.833,2.651,2.651,0,0,1,1.235-.052l3.076.369c.648.081,1.789-.042,2.158.592a16.872,16.872,0,0,1,.937,2.546Q652.087,3877.849,652.639,3879.343Z" transform="translate(-604.781 -3696.32)" fill="#fff"/>
          <path id="Path_1503" data-name="Path 1503" d="M722.4,2973.8s6.678,30.958,9.911,40.912H743.49s-1.439-24.976-.828-33.533a19.185,19.185,0,0,0,4.5.066v-7.4Z" transform="translate(-695.514 -2839.858)" fill="#6211b3"/>
          <path id="Path_1504" data-name="Path 1504" d="M922.383,3822.728h-9.816a1.566,1.566,0,0,1-1.567-1.566v-1.695a1.565,1.565,0,0,1,1.567-1.566h9.816a1.565,1.565,0,0,1,1.567,1.566v1.695A1.565,1.565,0,0,1,922.383,3822.728Z" transform="translate(-875.188 -3644.007)" fill="#171516"/>
          <path id="Path_1505" data-name="Path 1505" d="M1259.092,2973.8s-6.745,30.958-9.977,40.912h-11.179s1.505-24.976.894-33.533a18.6,18.6,0,0,1-4.43.066v-7.4Z" transform="translate(-1183.282 -2839.858)" fill="#6211b3"/>
          <path id="Path_1506" data-name="Path 1506" d="M1294.067,3822.728h9.816a1.566,1.566,0,0,0,1.567-1.566v-1.695a1.565,1.565,0,0,0-1.567-1.566h-9.816a1.565,1.565,0,0,0-1.567,1.566v1.695A1.566,1.566,0,0,0,1294.067,3822.728Z" transform="translate(-1238.632 -3644.007)" fill="#171516"/>
          <path id="Path_1507" data-name="Path 1507" d="M238.043,1869.4a25.688,25.688,0,0,1,8.922-11.544,12.432,12.432,0,0,0-3.99-4.463c-2.613-1.775-3.791.27-5.291,2.149a48.152,48.152,0,0,0-9.783,21.492,46.756,46.756,0,0,0-.757,8.865,88.886,88.886,0,0,0,1.533,13.773s-1.2,5.509-.53,7.2c0,0,.345,4.634,3.479,6.29,0,0,2.759,1.789,3.039.042,0,0,3.985,1.278,3.687-1.855,0,0,4.307,1.349,3.517-2.849,0,0,3.289.3,1.562-3.062a8.093,8.093,0,0,1-.53-3.138,4.354,4.354,0,0,0-3.218-3.592,31.89,31.89,0,0,0-2.319-3.46,11.318,11.318,0,0,1-1.32-2.532,22.127,22.127,0,0,1-.928-8.884A44.051,44.051,0,0,1,238.043,1869.4Z" transform="translate(-223.695 -1771.835)" fill="#ffddac"/>
          <path id="Path_1508" data-name="Path 1508" d="M472.6,1659.23l-8.652,9.068-5.717-2.167-4.16,31.45s-5.684,3.171-21.667,2.873c-14.667.076-23.163-2.873-23.163-2.873l-3.375-31.45-5.717,2.167-8.652-9.068,20.6-13.3.563-.365h.043l17.507-.047v-.014l1.841,0,1.846,0v.014l17.507.047h.038l.3.194Z" transform="translate(-380.276 -1574.425)" fill="#fff"/>
          <path id="Path_1509" data-name="Path 1509" d="M497.17,1599.337l-4.681,15.273-6.243-2.74-4.539,39.719s-6.2,4-23.641,3.625c-16.007.095-25.279-3.625-25.279-3.625l-3.682-39.719-6.243,2.74-4.463-15.477,17.5-12.774.615-.459h.043l9.537,5.391,11.449,35.814,11.52-36.136,9.731-5.069h.038l.322.246Z" transform="translate(-405.902 -1517.646)" fill="#9630fb"/>
          <path id="Path_1510" data-name="Path 1510" d="M785.6,1493.4l-6.4,5.149.147,12.736,5.026,2.442-3.28,2.826,20.262,22.41Z" transform="translate(-749.626 -1429.524)" opacity="0.2"/>
          <path id="Path_1511" data-name="Path 1511" d="M1262.261,1492.9l6.394,5.145-.142,12.736-5.026,2.447,3.275,2.826-20.262,22.411Z" transform="translate(-1194.809 -1429.048)" opacity="0.2"/>
          <path id="Path_1512" data-name="Path 1512" d="M1106.639,1783.167l6.74-8.392-4.359-16.229,2.433-5.268-4.813-3.5v-.076l-.047.038-.052-.038v.076l-4.813,3.5,2.433,5.268-4.359,16.229,6.74,8.392v.123l.052-.062.047.062Z" transform="translate(-1055.052 -1673.693)" fill="#ed755c"/>
          <path id="Path_1513" data-name="Path 1513" d="M1257.612,1588.6l-3.289,18.657L1244,1597.228Z" transform="translate(-1192.427 -1520.218)" fill="#e8e6e7"/>
          <path id="Path_1514" data-name="Path 1514" d="M954.9,1588.6l3.555,18.4,10.057-9.773Z" transform="translate(-917.01 -1520.218)" fill="#e8e6e7"/>
          <path id="Path_1515" data-name="Path 1515" d="M799.74,1487l-6.513,5-.128,12.736,4.97,2.556-3.341,2.755L814.5,1532.9Z" transform="translate(-762.868 -1423.427)" fill="#6211b3"/>
          <path id="Path_1516" data-name="Path 1516" d="M1259.986,1487l6.508,5,.133,12.736-4.974,2.556,3.342,2.755L1245.2,1532.9Z" transform="translate(-1193.57 -1423.427)" fill="#6211b3"/>
          <g id="Group_1004" data-name="Group 1004" transform="translate(20.353)">
            <path id="Path_1517" data-name="Path 1517" d="M754.653,507.094v22.9a17.234,17.234,0,0,1-.426,3.815,17.811,17.811,0,0,1-4.009,7.1h.038l.322.246a19.367,19.367,0,0,1-14.942,6.938,10.264,10.264,0,0,1-13.555,0,19.38,19.38,0,0,1-14.762-6.721l.615-.459h.043a17.5,17.5,0,0,1-4.676-11.851v-22.9a17.152,17.152,0,0,1,.412-3.744A18.958,18.958,0,0,1,722.081,489h13.55C746.091,489,754.653,497.141,754.653,507.094Z" transform="translate(-697.671 -472.662)" opacity="0.2"/>
            <path id="Path_1518" data-name="Path 1518" d="M754.794,487.394v22.9a17.169,17.169,0,0,1-.667,4.747,17.811,17.811,0,0,1-4.009,7.1,19.4,19.4,0,0,1-14.346,6.243,10.25,10.25,0,0,1-13.555,0,19.411,19.411,0,0,1-14.341-6.243A17.5,17.5,0,0,1,703.2,510.3v-22.9a17.155,17.155,0,0,1,.412-3.744c1.827-8.174,9.494-14.35,18.605-14.35h13.55C746.237,469.3,754.794,477.441,754.794,487.394Z" transform="translate(-697.576 -453.894)" fill="#ffddac"/>
            <path id="Path_1519" data-name="Path 1519" d="M1033.25,1364.627c-.932,2.518-3.3,5.533-9.163,7.038,0,0-8.6,2.617-12.632-6.517a12.032,12.032,0,0,1-.454-1.122s10.02,4.851,22.751-3.526A8.54,8.54,0,0,1,1033.25,1364.627Z" transform="translate(-990.808 -1302.914)" fill="#fff"/>
            <path id="Path_1520" data-name="Path 1520" d="M1014.292,1365.531c-2.93,0-7.464-1.065-10.067-6.972-.156-.341-.308-.71-.459-1.136l-.166-.459.44.213c.1.047,10.072,4.7,22.557-3.512l.255-.166.052.3a8.775,8.775,0,0,1-.516,4.231h0c-.89,2.4-3.223,5.6-9.3,7.161A10.726,10.726,0,0,1,1014.292,1365.531Zm-9.991-7.81c.095.241.189.464.289.677,3.91,8.865,12.05,6.517,12.391,6.413,5.916-1.519,8.174-4.6,9.031-6.915h0a8.846,8.846,0,0,0,.53-3.711C1015.466,1361.319,1006.359,1358.512,1004.3,1357.722Z" transform="translate(-983.758 -1296.246)" fill="#f5d0b8"/>
            <path id="Path_1521" data-name="Path 1521" d="M1042.4,1447.7c-.932,2.518-3.3,5.533-9.163,7.038,0,0-8.6,2.617-12.632-6.517C1024.812,1450.545,1033.848,1454.042,1042.4,1447.7Z" transform="translate(-999.953 -1385.987)" fill="#c73b2a"/>
            <path id="Path_1522" data-name="Path 1522" d="M642.392,200.037l-.653.734s-.237-11.832-1.008-14.8c0,0-1.751-6.678-4.468-7.989,0,0,2.39-8.226-3.853-10.957a29.647,29.647,0,0,1-19.94,7.592,28.147,28.147,0,0,1-16.414-4.7,8.518,8.518,0,0,0-.345,7.043s-5.026,5.3-5.665,11.794c0,0-.256,8.5.137,10.687a11.259,11.259,0,0,1-2.2-2.082,11.7,11.7,0,0,1-2.461-5.419c-1.5-6.058-1.505-15.316-.2-20.262,0,0,1.926-8.3,3.621-8.955,0,0-3.853-11.795-3.043-14.814,0,0,2.272,5.751,9.863,5.06,0,0-3.237-4.44-2.5-9.172,0,0,5.779,4.26,11.908,3.128a31.859,31.859,0,0,0,6.418-1.377,17.711,17.711,0,0,1,3.3-.932c4.312-.753,13.531-1.576,17.99,3.947,0,0,3.526,3.659,4.1,7.346,0,0,9.48,6.636,9.939,18.208a75.339,75.339,0,0,1-.26,15.8,23.722,23.722,0,0,1-2.409,7.426h0A13.15,13.15,0,0,1,642.392,200.037Z" transform="translate(-584.369 -143.8)"/>
            <path id="Path_1523" data-name="Path 1523" d="M659.4,334.5s7.63,26.788,35.45,17.181C694.85,351.681,667.418,353.427,659.4,334.5Z" transform="translate(-655.849 -325.474)" fill="#3b3b3b"/>
            <path id="Path_1524" data-name="Path 1524" d="M819.4,228.5s8.685,23.452,32.861,13.139C852.261,241.639,827.877,244.909,819.4,228.5Z" transform="translate(-808.276 -224.491)" fill="#3b3b3b"/>
            <path id="Path_1525" data-name="Path 1525" d="M970.987,1060.245a2.305,2.305,0,0,0-.53,2.333,2.372,2.372,0,0,0,1.235,1.264,3.716,3.716,0,0,0,1.77.3,3.641,3.641,0,0,0,1.983-.648,2.108,2.108,0,0,0-.066-3.578,3.805,3.805,0,0,0-3.569-.26A2.852,2.852,0,0,0,970.987,1060.245Z" transform="translate(-952.064 -1015.996)" fill="#3e2c38"/>
            <path id="Path_1526" data-name="Path 1526" d="M1028.781,1070.873a.738.738,0,0,0-.681.312.911.911,0,0,0,.033.819,2.468,2.468,0,0,0,.97,1.1,1.065,1.065,0,0,0,.98.147.817.817,0,0,0,.44-.729,1.316,1.316,0,0,0-.317-.823A2.055,2.055,0,0,0,1028.781,1070.873Z" transform="translate(-1007.018 -1026.994)" fill="#fff"/>
            <path id="Path_1527" data-name="Path 1527" d="M1410.187,1060.245a2.305,2.305,0,0,0-.53,2.333,2.372,2.372,0,0,0,1.235,1.264,3.716,3.716,0,0,0,1.77.3,3.641,3.641,0,0,0,1.983-.648,2.108,2.108,0,0,0-.066-3.578,3.805,3.805,0,0,0-3.569-.26A2.918,2.918,0,0,0,1410.187,1060.245Z" transform="translate(-1370.476 -1015.996)" fill="#3e2c38"/>
            <path id="Path_1528" data-name="Path 1528" d="M1468.081,1070.873a.738.738,0,0,0-.682.312.911.911,0,0,0,.033.819,2.466,2.466,0,0,0,.97,1.1,1.065,1.065,0,0,0,.98.147.817.817,0,0,0,.44-.729,1.315,1.315,0,0,0-.317-.823A2.055,2.055,0,0,0,1468.081,1070.873Z" transform="translate(-1425.526 -1026.994)" fill="#fff"/>
            <g id="Group_1003" data-name="Group 1003" transform="translate(6.055 36.425)">
              <path id="Path_1529" data-name="Path 1529" d="M763.965,918a1.146,1.146,0,0,0-1.074-1.018,6.235,6.235,0,0,1-2.6-1.06,15.2,15.2,0,0,0-6.162-2.39,16.678,16.678,0,0,0-5.968.355,11.737,11.737,0,0,0-5.4,3.058c-.341.308-.667.629-1,.947a1.156,1.156,0,0,1-1.69.156,3.965,3.965,0,0,0-1.855-.658,4.018,4.018,0,0,0-1.855.658,1.156,1.156,0,0,1-1.69-.156c-.331-.317-.658-.639-1-.947a11.737,11.737,0,0,0-5.4-3.058,16.678,16.678,0,0,0-5.968-.355,15.271,15.271,0,0,0-6.162,2.39,6.235,6.235,0,0,1-2.6,1.06A1.154,1.154,0,0,0,712.461,918c-.066.293-.1.6-.161.895v1.136a2.587,2.587,0,0,0,.483.549,2.871,2.871,0,0,1,1.363,2.012,24.28,24.28,0,0,0,.6,2.433,9.462,9.462,0,0,0,3.933,5.457,10.179,10.179,0,0,0,8.349,1.59,11.483,11.483,0,0,0,5.67-3.166,12.132,12.132,0,0,0,2.655-4.766c.175-.539.312-1.088.487-1.628a1.706,1.706,0,0,1,1.467-1.268c.3-.033.606-.052.913-.062.3.01.611.028.913.062a1.7,1.7,0,0,1,1.467,1.268c.175.54.312,1.089.487,1.628a12.134,12.134,0,0,0,2.655,4.766,11.482,11.482,0,0,0,5.67,3.166,10.2,10.2,0,0,0,8.349-1.59,9.463,9.463,0,0,0,3.933-5.457,24.988,24.988,0,0,0,.6-2.433,2.871,2.871,0,0,1,1.363-2.012,2.477,2.477,0,0,0,.483-.549V918.9C764.069,918.6,764.027,918.3,763.965,918ZM729.879,929.32a9.194,9.194,0,0,1-5.41,1.661,8.7,8.7,0,0,1-6.522-2.972,7.633,7.633,0,0,1,.3-10.517,9.063,9.063,0,0,1,12.807.014A7.707,7.707,0,0,1,729.879,929.32Zm28.592-1.311a8.676,8.676,0,0,1-6.522,2.972,9.128,9.128,0,0,1-5.41-1.661,7.707,7.707,0,0,1-1.174-11.814,9.058,9.058,0,0,1,12.807-.014A7.633,7.633,0,0,1,758.47,928.009Z" transform="translate(-712.3 -913.403)" fill="#333"/>
              <path id="Path_1530" data-name="Path 1530" d="M804.17,958.433a9.192,9.192,0,0,1-5.41,1.661,8.7,8.7,0,0,1-6.522-2.972,7.633,7.633,0,0,1,.3-10.517,9.063,9.063,0,0,1,12.807.014A7.707,7.707,0,0,1,804.17,958.433Z" transform="translate(-786.592 -942.516)" fill="#fff" opacity="0.5"/>
              <path id="Path_1531" data-name="Path 1531" d="M1379.088,957.086a8.675,8.675,0,0,1-6.522,2.972,9.127,9.127,0,0,1-5.41-1.661,7.707,7.707,0,0,1-1.174-11.813,9.058,9.058,0,0,1,12.807-.014A7.633,7.633,0,0,1,1379.088,957.086Z" transform="translate(-1332.918 -942.48)" fill="#fff" opacity="0.5"/>
            </g>
            <path id="Path_1532" data-name="Path 1532" d="M837.2,810.463s.876-2.324,5.059-2.679c0,0,8.406-.625,9.892,2.144l-6.588-.549a11.778,11.778,0,0,0-1.529-.028A27.593,27.593,0,0,0,837.2,810.463Z" transform="translate(-825.234 -776.301)" fill="#3d3736"/>
            <path id="Path_1533" data-name="Path 1533" d="M1361.751,810.463s-.875-2.324-5.059-2.679c0,0-8.406-.625-9.892,2.144l6.588-.549a11.779,11.779,0,0,1,1.529-.028A27.593,27.593,0,0,1,1361.751,810.463Z" transform="translate(-1310.714 -776.301)" fill="#3d3736"/>
          </g>
          <path id="Path_1534" data-name="Path 1534" d="M170.245,1838.737c4.047-4.582,5.131-4.127,9.2-6.92-.942-1.784-5-9.579-5.817-11.421-1.614-3.64-2.433-2.328-5.8-.682-2.338,1.145-7.128,5.774-8.429,8.112a37.561,37.561,0,0,0-4.5,13.125,46.983,46.983,0,0,0-.364,11.293,50.439,50.439,0,0,0,3.73,13.792s9.182-2,12.377-2.617c0,0-2.859-7.677-3.2-10.9C166.928,1847.625,166.98,1842.433,170.245,1838.737Z" transform="translate(-154.345 -1738.824)" fill="#9630fb"/>
          <path id="Path_1535" data-name="Path 1535" d="M2079.606,1796.712c-5.9-1.595-6.555-.625-11.487-.719-.2-2.007-1.1-10.749-1.434-12.736-.653-3.928.748-3.28,4.464-3.758,2.579-.331,9.13.9,11.5,2.135a37.548,37.548,0,0,1,10.98,8.486,46.892,46.892,0,0,1,6.522,9.229,50.644,50.644,0,0,1,4.478,13.569s-8.771,3.38-11.771,4.629c0,0-1.841-7.985-3.327-10.857C2087.269,1802.307,2084.368,1798,2079.606,1796.712Z" transform="translate(-1976.028 -1702.03)" fill="#9630fb"/>
          <path id="Path_1536" data-name="Path 1536" d="M1511.7,1803h-55.115a2.183,2.183,0,0,1-2.182-2.182v-73.138a2.183,2.183,0,0,1,2.182-2.182H1511.7a2.182,2.182,0,0,1,2.182,2.182v73.138A2.179,2.179,0,0,1,1511.7,1803Z" transform="translate(-1392.869 -1650.639)" fill="#35302f"/>
          <rect id="Rectangle_205" data-name="Rectangle 205" width="48.759" height="65.012" transform="translate(67.277 80.498)" fill="#fff"/>
          <rect id="Rectangle_206" data-name="Rectangle 206" width="7.582" height="7.582" transform="translate(71.148 98.299)" fill="#54667a"/>
          <rect id="Rectangle_207" data-name="Rectangle 207" width="7.582" height="7.582" transform="translate(71.148 112.512)" fill="#54667a"/>
          <rect id="Rectangle_208" data-name="Rectangle 208" width="7.582" height="7.582" transform="translate(71.148 126.725)" fill="#54667a"/>
          <path id="Path_1537" data-name="Path 1537" d="M1889.27,1788h-16.66a2.307,2.307,0,0,0-2.31,2.31v4.454h21.279v-4.454A2.313,2.313,0,0,0,1889.27,1788Z" transform="translate(-1789.085 -1710.181)" fill="#ed755c"/>
          <path id="Path_1538" data-name="Path 1538" d="M2016.758,1630.63h-3.464a1.9,1.9,0,0,1-1.893-1.893v-3.611a3.638,3.638,0,0,1,3.625-3.625h0a3.638,3.638,0,0,1,3.625,3.625v3.611A1.9,1.9,0,0,1,2016.758,1630.63Z" transform="translate(-1923.507 -1551.561)" fill="#ed755c"/>
          <circle id="Ellipse_293" data-name="Ellipse 293" cx="1.713" cy="1.713" r="1.713" transform="translate(89.815 71.515)" fill="#fff"/>
          <path id="Path_1539" data-name="Path 1539" d="M1772.963,1829.6h-25.851a3.511,3.511,0,0,0-3.512,3.512v1.283h32.875v-1.283A3.511,3.511,0,0,0,1772.963,1829.6Z" transform="translate(-1668.381 -1749.812)" fill="#ed755c"/>
          <rect id="Rectangle_209" data-name="Rectangle 209" width="28.814" height="0.473" transform="translate(82.294 98.299)" fill="#54667a"/>
          <rect id="Rectangle_210" data-name="Rectangle 210" width="28.814" height="0.473" transform="translate(82.294 101.853)" fill="#54667a"/>
          <rect id="Rectangle_211" data-name="Rectangle 211" width="28.814" height="0.473" transform="translate(82.294 105.403)" fill="#54667a"/>
          <rect id="Rectangle_212" data-name="Rectangle 212" width="28.814" height="0.473" transform="translate(82.294 108.957)" fill="#54667a"/>
          <rect id="Rectangle_213" data-name="Rectangle 213" width="28.814" height="0.473" transform="translate(82.294 112.512)" fill="#54667a"/>
          <rect id="Rectangle_214" data-name="Rectangle 214" width="28.814" height="0.473" transform="translate(82.294 116.066)" fill="#54667a"/>
          <rect id="Rectangle_215" data-name="Rectangle 215" width="28.814" height="0.473" transform="translate(82.294 119.616)" fill="#54667a"/>
          <rect id="Rectangle_216" data-name="Rectangle 216" width="28.814" height="0.473" transform="translate(82.294 123.17)" fill="#54667a"/>
          <rect id="Rectangle_217" data-name="Rectangle 217" width="28.814" height="0.473" transform="translate(82.294 126.725)" fill="#54667a"/>
          <rect id="Rectangle_218" data-name="Rectangle 218" width="28.814" height="0.473" transform="translate(82.294 130.274)" fill="#54667a"/>
          <rect id="Rectangle_219" data-name="Rectangle 219" width="28.814" height="0.473" transform="translate(82.294 133.829)" fill="#54667a"/>
          <path id="Path_1540" data-name="Path 1540" d="M2534.443,2392.627s.156,5.632-.809,7.17c0,0-1.2,4.487-4.582,5.538,0,0-3.043,1.245-3-.521,0,0-4.156.516-3.28-2.509,0,0-4.482.53-2.929-3.45,0,0-3.285-.312-.97-3.3a8.008,8.008,0,0,0,1.1-2.986,4.364,4.364,0,0,1,3.829-2.935,31.222,31.222,0,0,1,2.92-2.968C2527.414,2386,2536.038,2388.282,2534.443,2392.627Z" transform="translate(-2406.177 -2280.404)" fill="#ffddac"/>
          <path id="Path_1541" data-name="Path 1541" d="M1664.3,2086.308a14.9,14.9,0,0,1,5.348,5.926s3.928-9.026,8.515-13.934l-8.718,9.617A31.042,31.042,0,0,1,1664.3,2086.308Z" transform="translate(-1592.835 -1986.741)" fill="#ed755c"/>
          <path id="Path_1542" data-name="Path 1542" d="M1664.3,2382.308a14.9,14.9,0,0,1,5.348,5.926s3.928-9.026,8.515-13.934l-8.718,9.617A31.042,31.042,0,0,1,1664.3,2382.308Z" transform="translate(-1592.835 -2268.731)" fill="#ed755c"/>
          <path id="Path_1543" data-name="Path 1543" d="M1664.3,2678.308a14.9,14.9,0,0,1,5.348,5.926s3.928-9.025,8.515-13.934l-8.718,9.617A31.017,31.017,0,0,1,1664.3,2678.308Z" transform="translate(-1592.835 -2550.722)" fill="#ed755c"/>
        </g>
      </g>
    </g>
  </g>
</svg>
