<?xml version="1.0" encoding="UTF-8" standalone="no"?>
<svg
   xmlns:dc="http://purl.org/dc/elements/1.1/"
   xmlns:cc="http://creativecommons.org/ns#"
   xmlns:rdf="http://www.w3.org/1999/02/22-rdf-syntax-ns#"
   xmlns:svg="http://www.w3.org/2000/svg"
   xmlns="http://www.w3.org/2000/svg"
   xml:space="preserve"
   style="enable-background:new 0 0 30 30;"
   viewBox="0 0 30 30"
   y="0px"
   x="0px"
   id="Layer_1"
   version="1.1"><metadata
     id="metadata17"><rdf:RDF><cc:Work
         rdf:about=""><dc:format>image/svg+xml</dc:format><dc:type
           rdf:resource="http://purl.org/dc/dcmitype/StillImage" /><dc:title></dc:title></cc:Work></rdf:RDF></metadata><defs
     id="defs15" /><style
     id="style3"
     type="text/css">
	.st0{fill:#FF6400;}
</style><g
     id="g5"><path
       id="path7"
       d="M17.1,20.6c-0.3-0.3-0.5-0.6-0.8-0.9c-0.2-0.2-0.4-0.4-0.7-0.7c-0.1-0.1-0.2-0.2-0.4-0.3c-0.1,0-0.2,0-0.2,0   c-0.2,0.1-0.4,0.2-0.6,0.3c-0.2,0.1-0.4,0.2-0.6,0.3c-0.1,0.1-0.2,0.1-0.3,0c-0.2-0.1-0.4-0.3-0.5-0.4c-0.5-0.5-0.9-1-1.3-1.6   c-0.3-0.4-0.6-0.9-0.9-1.3c-0.2-0.4-0.5-0.8-0.7-1.1c-0.2-0.3-0.4-0.7-0.5-1c-0.2-0.4-0.3-0.7-0.4-1.1c0-0.1,0-0.3,0.1-0.4   c0.2-0.1,0.4-0.3,0.5-0.4c0.3-0.2,0.5-0.4,0.8-0.6c0.1-0.1,0.3-0.2,0.2-0.4c0-0.1,0-0.1,0-0.2c-0.1-0.3-0.2-0.6-0.3-0.8   c-0.2-0.3-0.3-0.6-0.5-1C10,8.9,9.8,8.7,9.7,8.5C9.5,8.3,9.4,8.1,9.2,8c0,0-0.1,0-0.1,0C9,7.9,8.9,8,8.8,8C8.5,8.1,8.2,8.3,8,8.5   C7.8,8.7,7.5,8.9,7.4,9.2C7.2,9.4,7,9.7,6.8,10c-0.1,0.2-0.2,0.4-0.2,0.6c-0.1,0.2-0.1,0.4-0.1,0.6c0,0.3,0,0.6,0.1,0.9   c0,0.2,0.1,0.4,0.1,0.6c0.1,0.2,0.1,0.4,0.2,0.7c0.1,0.3,0.2,0.6,0.3,0.9c0.2,0.4,0.3,0.7,0.5,1c0.2,0.3,0.3,0.6,0.5,0.9   C8.5,16.6,8.7,17,9,17.4c0.2,0.4,0.5,0.7,0.7,1.1c0.3,0.4,0.6,0.8,0.9,1.1c0.3,0.3,0.6,0.7,0.8,1c0.1,0.1,0.2,0.3,0.4,0.4   c0.1,0.1,0.3,0.3,0.4,0.4c0.2,0.2,0.5,0.4,0.8,0.6c0.2,0.2,0.5,0.4,0.8,0.4c0.4,0.1,0.8,0.2,1.3,0.2c0.3,0,0.5,0,0.8-0.1   c0.2,0,0.3-0.1,0.5-0.1c0.2-0.1,0.3-0.2,0.5-0.2c0.3-0.1,0.5-0.3,0.6-0.5c0.2-0.2,0.3-0.4,0.1-0.6C17.4,21,17.3,20.8,17.1,20.6z"
       class="st0" /><path
       id="path9"
       d="M23.6,10.2c-3.5,0-7,0-10.5,0c-0.2,0-0.3,0.1-0.3,0.3c0,1.9,0,3.8,0,5.7c0,0.1,0,0.1,0,0.2   c0,0.2,0.1,0.3,0.3,0.3c1.8,0,3.5,0,5.3,0c0,0,0,0,0,0c1.8,0,3.5,0,5.3,0c0.2,0,0.3-0.1,0.3-0.3c0-2,0-4,0-5.9   C23.8,10.2,23.7,10.2,23.6,10.2z M14.3,10.7c0.2,0,0.4,0,0.7,0c2.3,0,4.6,0,7,0c0.1,0,0.2,0,0.4,0c0,0.1,0,0.2-0.1,0.2   c-0.4,0.2-0.7,0.4-1.1,0.6c-0.3,0.2-0.6,0.3-0.9,0.5c-0.3,0.2-0.6,0.3-0.8,0.5c-0.4,0.2-0.7,0.4-1.1,0.6c-0.1,0-0.2,0-0.2,0   c-0.3-0.2-0.6-0.3-0.9-0.5c-0.3-0.2-0.7-0.4-1-0.6c-0.2-0.1-0.5-0.3-0.7-0.4c-0.2-0.1-0.5-0.3-0.7-0.4c-0.2-0.1-0.4-0.2-0.5-0.3   c0,0-0.1-0.1-0.1-0.1C14.2,10.7,14.3,10.7,14.3,10.7z M23.3,15.9c0,0.2,0,0.2-0.2,0.2c-0.4,0-0.9,0-1.3,0c-2.8,0-5.5,0-8.3,0   c-0.2,0-0.2,0-0.2-0.2c0-0.2,0-0.4,0-0.6c0-0.8,0-1.6,0-2.4c0-0.6,0-1.1,0-1.7c0-0.1,0-0.2,0-0.3c0.5,0.3,1,0.6,1.5,0.9   c0.5,0.3,1.1,0.6,1.6,0.9c0.3,0.2,0.7,0.4,1.1,0.6c0.2,0.1,0.5,0.3,0.7,0.4c0.1,0,0.2,0,0.2,0c0.2-0.1,0.3-0.2,0.5-0.3   c0.5-0.3,1-0.6,1.6-0.9c0.4-0.3,0.9-0.5,1.3-0.8c0.3-0.2,0.6-0.3,0.9-0.5c0.2-0.1,0.3-0.2,0.5-0.3c0.1-0.1,0.1,0,0.1,0.1   c0,0,0,0.1,0,0.1C23.3,12.7,23.3,14.3,23.3,15.9z"
       class="st0" /><path
       id="path11"
       d="M15,0C6.7,0,0,6.7,0,15c0,8.3,6.7,15,15,15s15-6.7,15-15C30,6.7,23.3,0,15,0z M15,28.8   C7.4,28.8,1.2,22.6,1.2,15C1.2,7.4,7.4,1.2,15,1.2S28.8,7.4,28.8,15C28.8,22.6,22.6,28.8,15,28.8z"
       class="st0" /></g></svg>