<?xml version="1.0" encoding="UTF-8" standalone="no"?>
<svg
   xmlns:dc="http://purl.org/dc/elements/1.1/"
   xmlns:cc="http://creativecommons.org/ns#"
   xmlns:rdf="http://www.w3.org/1999/02/22-rdf-syntax-ns#"
   xmlns:svg="http://www.w3.org/2000/svg"
   xmlns="http://www.w3.org/2000/svg"
   xml:space="preserve"
   style="enable-background:new 0 0 30 30;"
   viewBox="0 0 30 30"
   y="0px"
   x="0px"
   id="Layer_1"
   version="1.1"><metadata
     id="metadata135"><rdf:RDF><cc:Work
         rdf:about=""><dc:format>image/svg+xml</dc:format><dc:type
           rdf:resource="http://purl.org/dc/dcmitype/StillImage" /><dc:title></dc:title></cc:Work></rdf:RDF></metadata><defs
     id="defs133" /><style
     id="style3"
     type="text/css">
	.st0{fill:#FF6400;}
</style><path
     id="path77"
     d="M 15 0 C 6.713881 0 0 6.7138815 0 15 C 0 23.286118 6.713881 30 15 30 C 23.286119 30 30 23.286118 30 15 C 30 6.7138815 23.286119 -1.1842379e-015 15 0 z M 15 1.2324219 C 22.648725 1.2324219 28.810547 7.3942442 28.810547 15.042969 C 28.810547 22.691693 22.606232 28.853516 15 28.853516 C 7.393767 28.853516 1.1894531 22.691693 1.1894531 15.042969 C 1.1894531 7.3942442 7.351275 1.2324219 15 1.2324219 z M 7.8535156 7.6699219 C 7.5560652 7.6699219 7.3007812 7.9252059 7.3007812 8.2226562 L 7.3007812 18.080078 C 7.3007812 18.377528 7.5560652 18.632812 7.8535156 18.632812 L 11.337891 18.632812 L 11.337891 18.675781 C 11.337891 20.715441 12.995021 22.330078 14.992188 22.330078 C 16.989355 22.330078 18.646484 20.672948 18.646484 18.675781 L 18.646484 18.632812 L 22.130859 18.632812 C 22.428309 18.632812 22.683594 18.377528 22.683594 18.080078 L 22.683594 8.265625 C 22.76858 7.9256817 22.512295 7.6699219 22.214844 7.6699219 L 7.8535156 7.6699219 z M 8.5761719 8.4355469 L 21.492188 8.4355469 C 21.747145 8.4355469 22.003906 8.647862 22.003906 8.9453125 L 22.003906 9.7949219 L 22.003906 10.134766 L 8.1074219 10.134766 L 8.1074219 9.7949219 L 8.1074219 8.9453125 L 8.0644531 8.9453125 C 8.0644531 8.690355 8.2787215 8.4355469 8.5761719 8.4355469 z M 8.0234375 10.941406 L 21.917969 10.941406 L 21.917969 11.664062 L 21.917969 17.357422 L 21.960938 17.357422 C 21.960938 17.61238 21.748622 17.869141 21.451172 17.869141 L 18.560547 17.869141 C 18.17811 16.25441 16.734398 15.021484 14.992188 15.021484 C 13.249979 15.021484 11.804312 16.211917 11.421875 17.869141 L 8.5332031 17.869141 C 8.2782456 17.869141 8.0234375 17.654873 8.0234375 17.357422 L 8.0234375 11.664062 L 8.0234375 10.941406 z M 15.035156 15.785156 C 16.607394 15.785156 17.923828 17.06105 17.923828 18.675781 C 17.923828 20.290511 16.607394 21.564453 15.035156 21.564453 C 13.462918 21.564453 12.144531 20.290511 12.144531 18.675781 C 12.144531 17.06105 13.420426 15.785156 15.035156 15.785156 z M 14.523438 16.507812 L 14.523438 19.142578 L 13.292969 19.142578 L 15.035156 20.884766 L 16.777344 19.142578 L 15.544922 19.142578 L 15.544922 16.507812 L 14.523438 16.507812 z "
     style="fill:#ff6400" /></svg>