<?xml version="1.0" encoding="UTF-8" standalone="no"?>
<svg
   xmlns:dc="http://purl.org/dc/elements/1.1/"
   xmlns:cc="http://creativecommons.org/ns#"
   xmlns:rdf="http://www.w3.org/1999/02/22-rdf-syntax-ns#"
   xmlns:svg="http://www.w3.org/2000/svg"
   xmlns="http://www.w3.org/2000/svg"
   xml:space="preserve"
   style="enable-background:new 0 0 51 51;"
   viewBox="0 0 51 51"
   y="0px"
   x="0px"
   id="Layer_1"
   version="1.1"><metadata
     id="metadata16"><rdf:RDF><cc:Work
         rdf:about=""><dc:format>image/svg+xml</dc:format><dc:type
           rdf:resource="http://purl.org/dc/dcmitype/StillImage" /><dc:title></dc:title></cc:Work></rdf:RDF></metadata><defs
     id="defs14" /><style
     id="style3"
     type="text/css">
	.st0{fill:#666666;}
</style><g
     id="g5"><path
       id="path7"
       d="M25.5,0.5c-13.8,0-25,11.2-25,25s11.2,25,25,25c13.8,0,25-11.2,25-25S39.3,0.5,25.5,0.5z M25.5,48.8   c-12.9,0-23.3-10.5-23.3-23.3S12.6,2.2,25.5,2.2c12.9,0,23.3,10.5,23.3,23.3S38.4,48.8,25.5,48.8z"
       class="st0" /><g
       id="g3_4_"><polygon
         points="26.3,27.8 24.7,27.8 24.7,32 22.8,32 25.5,34.8 28.2,32 26.3,32   "
         class="st0"
         id="polygon5_1_" /><path
         d="M36.8,13.9H14.2c-0.5,0-0.9,0.4-0.9,0.9v15.5c0,0.5,0.4,0.9,0.9,0.9h5.5c0,0,0,0,0,0.1    c0,3.2,2.6,5.8,5.8,5.8s5.8-2.6,5.8-5.8c0,0,0,0,0-0.1h5.5c0.5,0,0.9-0.4,0.9-0.9V14.8C37.7,14.3,37.3,13.9,36.8,13.9z M14.5,15.9    c0-0.4,0.4-0.8,0.8-0.8h20.4c0.4,0,0.8,0.4,0.8,0.8v1.3h0v0.6H14.5v-0.6h0V15.9z M25.5,35.9c-2.5,0-4.6-2-4.6-4.6s2-4.6,4.6-4.6    s4.6,2,4.6,4.6S28,35.9,25.5,35.9z M36.5,29.2c0,0.4-0.4,0.8-0.8,0.8h-4.5c-0.6-2.6-2.9-4.5-5.6-4.5s-5,1.9-5.6,4.5h-4.5    c-0.4,0-0.8-0.4-0.8-0.8v-9h0V19h21.9v1.1h0V29.2z"
         class="st0"
         id="path7_4_" /></g></g></svg>