<?xml version="1.0" encoding="UTF-8" standalone="no"?>
<svg
   xmlns:dc="http://purl.org/dc/elements/1.1/"
   xmlns:cc="http://creativecommons.org/ns#"
   xmlns:rdf="http://www.w3.org/1999/02/22-rdf-syntax-ns#"
   xmlns:svg="http://www.w3.org/2000/svg"
   xmlns="http://www.w3.org/2000/svg"
   xml:space="preserve"
   style="enable-background:new 0 0 135 135;"
   viewBox="0 0 135 135"
   y="0px"
   x="0px"
   id="Layer_1"
   version="1.1"><metadata
     id="metadata133"><rdf:RDF><cc:Work
         rdf:about=""><dc:format>image/svg+xml</dc:format><dc:type
           rdf:resource="http://purl.org/dc/dcmitype/StillImage" /><dc:title></dc:title></cc:Work></rdf:RDF></metadata><defs
     id="defs131" /><style
     id="style3"
     type="text/css">
	.st0{fill:#FFFFFF;stroke:#B3B3B3;stroke-width:0.4643;stroke-miterlimit:10;}
	.st1{fill:#F2F2F2;stroke:#B3B3B3;stroke-width:0.4643;stroke-miterlimit:10;}
	.st2{fill:#FF6400;}
	.st3{fill:#FFFFFF;stroke:#B3B3B3;stroke-width:0.4676;stroke-miterlimit:10;}
	.st4{fill:#F2F2F2;stroke:#B3B3B3;stroke-width:0.4676;stroke-miterlimit:10;}
	.st5{fill:#333333;}
</style><path
     id="path5"
     d="M433-116.4H308.6c-2.1,0-3.8-1.7-3.8-3.8v-126.4c0-2.1,1.7-3.8,3.8-3.8H433c2.1,0,3.8,1.7,3.8,3.8v126.4  C436.8-118.1,435.1-116.4,433-116.4z"
     class="st0" /><path
     id="path7"
     d="M588.5-116.4H464.1c-2.1,0-3.8-1.7-3.8-3.8v-126.4c0-2.1,1.7-3.8,3.8-3.8h124.5c2.1,0,3.8,1.7,3.8,3.8v126.4  C592.3-118.1,590.6-116.4,588.5-116.4z"
     class="st0" /><path
     id="path9"
     d="M286.5-113.4H162.1c-2.1,0-3.8-1.7-3.8-3.8v-126.4c0-2.1,1.7-3.8,3.8-3.8h124.5c2.1,0,3.8,1.7,3.8,3.8v126.4  C290.3-115.1,288.6-113.4,286.5-113.4z"
     class="st0" /><path
     id="path11"
     d="M286.7-113.6H161.9c-1.9,0-3.4-1.5-3.4-3.4v-30.9h131.6v30.9C290.1-115.1,288.6-113.6,286.7-113.6z"
     class="st1" /><g
     id="g13"><path
       id="path15"
       d="M211.4-210.1c2.6-2.6,5.7-4.2,9.3-4.9c0-1.5,0-2.8,0-4.3c-4.3,0-8.5,0-12.8,0c-0.1-1.6-0.2-3-0.2-4.5   c-0.1,0-0.2,0-0.3,0c-3,3-6,6-9.1,9.1c0,0.1,0,0.2,0,0.3c3.1,3,6.1,6.1,9.2,9.1c0.1-0.1,0.2-0.1,0.4-0.2c0-1.3,0-2.7,0-4.2   c0.7,0,1.3,0.1,1.8,0C210.2-209.8,211-209.8,211.4-210.1z"
       class="st2" /><path
       id="path17"
       d="M238.8-192.7c0,1.5,0,2.5,0,3.5c0.1,1-0.3,1.3-1.3,1.3c-0.8,0-1.9,0-2.3,0.4c-2.7,2.6-5.8,4.2-9.3,4.9   c0,1.5,0,2.8,0,4.3c4.3,0,8.5,0,12.8,0c0.1,1.6,0.2,3,0.2,4.4c0.1,0,0.2,0,0.3,0c3-3,6-6,9.1-9.1c0-0.1,0-0.2,0-0.3   C245.2-186.3,242.2-189.3,238.8-192.7z"
       class="st2" /><path
       id="path19"
       d="M230.5-201.7c-1.1-0.4-2.3-0.5-3.5-0.4c-0.6,0-1.1,0.1-1.7,0.2c0,0.8,0,1.5,0,2.3c0,0.1,0.1,0.2,0.2,0.2   c1.5,0.3,3,0.3,4.5-0.1c0.6-0.2,1.2-0.4,1.6-1c0-0.1,0-0.2,0-0.4C231.4-201.4,231-201.6,230.5-201.7z"
       class="st2" /><path
       id="path21"
       d="M230.6-198.6c-0.3,0.1-0.6,0.2-0.9,0.3c-1.4,0.3-2.9,0.3-4.3,0c0,0.5,0,1,0,1.6c0,0.1,0.1,0.2,0.2,0.2   c1.6,0.3,3.2,0.3,4.8-0.2c0.5-0.2,0.9-0.4,1.2-0.8c0-0.6,0-1.1,0-1.7C231.4-199,231-198.8,230.6-198.6z"
       class="st2" /><path
       id="path23"
       d="M230.6-195.8c-0.3,0.1-0.6,0.2-0.9,0.3c-1.4,0.3-2.9,0.3-4.3,0c0,0.5,0,1,0,1.6c0,0.1,0.1,0.2,0.2,0.2   c1.6,0.3,3.2,0.3,4.8-0.2c0.5-0.2,0.9-0.4,1.2-0.8c0-0.6,0-1.1,0-1.7C231.4-196.1,231-195.9,230.6-195.8z"
       class="st2" /><path
       id="path25"
       d="M216.5-204.4c0.2,0.2,0.5,0.4,0.8,0.5c1,0.4,2,0.4,3.3,0.5c0.4,0,1-0.1,1.7-0.2c0.6-0.1,1.3-0.3,1.8-0.7   c0.5-0.4,0.5-0.8,0-1.2c-0.3-0.2-0.7-0.4-1-0.5c-1.8-0.5-3.6-0.5-5.4,0c-0.4,0.1-0.8,0.3-1.2,0.6   C216.1-205.1,216.1-204.7,216.5-204.4z"
       class="st2" /><path
       id="path27"
       d="M223.1-194c-1.8,0.5-3.7,0.5-5.5,0c-0.5-0.1-1-0.4-1.3-0.9c0,0.5,0,1,0,1.5c0,0.2,0.1,0.4,0.2,0.5   c0.3,0.2,0.6,0.4,1,0.6c1.5,0.5,3,0.5,4.6,0.3c0.6-0.1,1.3-0.3,1.8-0.6c0.2-0.2,0.5-0.4,0.5-0.6c0.1-0.5,0-1,0-1.6   C224.1-194.3,223.6-194.1,223.1-194z"
       class="st2" /><path
       id="path29"
       d="M216.7-201.3c0.3,0.2,0.6,0.3,1,0.4c1.4,0.4,2.9,0.5,4.3,0.2c0.6-0.1,1.2-0.4,1.8-0.6c0.3-0.1,0.5-0.3,0.5-0.7   c0-0.5,0-1,0-1.5c-0.4,0.4-0.7,0.6-1.3,0.8c-1.4,0.4-2.9,0.5-4.4,0.3c-0.9-0.1-1.8-0.3-2.5-1.1c0,0.5,0,0.9,0,1.3   C216.2-201.8,216.4-201.5,216.7-201.3z"
       class="st2" /><path
       id="path31"
       d="M217.1-198.2c0.1,0.1,0.3,0.1,0.4,0.2c1.5,0.5,3,0.5,4.5,0.2c0.6-0.1,1.2-0.4,1.8-0.6c0.3-0.1,0.5-0.3,0.5-0.6   c0-0.5,0-1,0-1.6c-0.3,0.5-0.8,0.7-1.3,0.9c-1.8,0.5-3.7,0.5-5.5,0c-0.5-0.1-1-0.4-1.3-0.9c0,0.4,0,0.7,0,1.1   C216.1-198.9,216.5-198.5,217.1-198.2z"
       class="st2" /><path
       id="path33"
       d="M217.1-195.3c0.1,0,0.2,0.1,0.4,0.1c1.5,0.5,3,0.5,4.5,0.3c0.7-0.1,1.3-0.3,1.9-0.6c0.3-0.2,0.5-0.4,0.5-0.7   c0-0.5,0-0.9,0-1.5c-0.3,0.5-0.8,0.7-1.3,0.9c-1.8,0.5-3.7,0.5-5.5,0c-0.5-0.1-1-0.4-1.3-0.9c0,0.4,0,0.7,0,1   C216.1-195.9,216.5-195.6,217.1-195.3z"
       class="st2" /><path
       id="path35"
       d="M237-198.8c0-7.7-6.1-13.8-13.7-13.8c-7.6,0-13.7,6-13.8,13.6c-0.1,7.7,6,13.8,13.6,13.9   C230.8-185,237-191.1,237-198.8z M223.2-187.6c-6.3-0.1-11.2-5.1-11.2-11.4c0.1-6.2,5.1-11.1,11.3-11.1c6.3,0,11.3,5,11.2,11.3   C234.5-192.5,229.5-187.5,223.2-187.6z"
       class="st2" /></g><text
     id="text37"
     style="font-family:'Roboto-Regular'; font-size:12px;"
     class="st5"
     transform="matrix(1 0 0 1 182.7075 -127.6676)">Transaction</text>
<g
     id="g39"><path
       id="path41"
       d="M378.9-199.6c-3.1-3.1-6.2-6.2-9.3-9.3c-0.3-0.3-0.5-0.5-0.4-0.9c0.3-1.9,0.1-3.7-0.5-5.6   c-1.8-5.2-7-8.3-12.5-7.7c-1,0.1-2,0.5-3.1,0.7c0.3,0.3,0.4,0.4,0.6,0.6c2.1,2.1,4.1,4.1,6.2,6.2c1.3,1.3,1.3,2.8,0,4.1   c-0.8,0.8-1.7,1.7-2.5,2.5c-1.3,1.3-2.8,1.3-4.1,0c-2-2-4-4-6-6c-0.1-0.1-0.2-0.3-0.3-0.5c-0.9,2.2-1.1,4.3-0.6,6.4   c1.1,5.4,6.1,9.6,12.1,9.2c0.7,0,1.2,0.2,1.7,0.7c8,8,16,16,24,24c3,3,7.9,2.6,10.4-0.9c2-2.7,1.6-6.4-0.8-8.9   C388.7-189.8,383.8-194.7,378.9-199.6z"
       class="st2" /><path
       id="path43"
       d="M375.5-207.3c4.2-4.2,8.4-8.4,12.5-12.5c0.1-0.1,0.3-0.3,0.4-0.4c0.4-0.3,0.8-0.2,1.1,0.1   c0.3,0.3,0.3,0.7,0.1,1c-0.1,0.2-0.3,0.3-0.5,0.5c-4.2,4.2-8.3,8.3-12.5,12.5c-0.2,0.2-0.3,0.3-0.4,0.4c0.7,0.7,1.3,1.4,2.1,2.2   c0.1-0.2,0.3-0.4,0.4-0.6c4.1-4.1,8.3-8.3,12.4-12.4c0.2-0.2,0.3-0.4,0.6-0.5c0.4-0.2,0.8-0.1,1,0.2c0.1,0.3,0.1,0.7,0,1   c0,0.2-0.3,0.3-0.5,0.5c-4.1,4.1-8.3,8.3-12.4,12.4c-0.2,0.2-0.4,0.2-0.5,0.3c0.7,0.7,1.3,1.3,1.9,2c0,0,0.1,0,0.1-0.1   c4.2-4.2,8.5-8.4,12.7-12.7c1.5-1.5,1.9-3.4,1.3-5.4c-1.2-4.3-6.4-5.7-9.6-2.5c-4.1,4.1-8.3,8.2-12.4,12.4   c-0.1,0.1-0.2,0.2-0.4,0.4c0.6,0.6,1.2,1.1,2,1.8C375.2-206.9,375.3-207.1,375.5-207.3z"
       class="st2" /><path
       id="path45"
       d="M356.1-186.2c-0.6,0.6-1.2,1-2.1,1.1c-0.6,0.1-1.1,0.2-1.7,0.4c-0.3,0.1-0.6,0.3-0.8,0.5   c-1.7,2.6-3.4,5.2-5.1,7.7c-0.2,0.3-0.4,0.7-0.6,1c0.8,0.8,1.5,1.5,2.2,2.3c0.1,0,0.2-0.1,0.2-0.1c2.9-1.9,5.8-3.8,8.7-5.7   c0.2-0.1,0.3-0.4,0.4-0.6c0.2-0.8,0.3-1.7,0.6-2.5c0.1-0.3,0.2-0.6,0.5-0.9c2.2-2.3,4.5-4.5,6.7-6.7c0.2-0.2,0.3-0.3,0.4-0.4   c-0.9-0.9-1.9-1.8-2.8-2.7C360.5-190.7,358.3-188.4,356.1-186.2z"
       class="st2" /></g><g
     id="g47"><path
       id="path49"
       d="M533.3-197.7c3.1,2.5,7.5,2.9,10.5,0.8c-1.3-2-2.5-4.1-3.9-6.1c-0.9-1.3-1.2-2.6-1.2-4.2c0.1-2.3,0-4.7,0-7   c-3.1-0.3-6.7,2.2-8.1,5.6C529.1-204.6,530.2-200.2,533.3-197.7z"
       class="st2" /><path
       id="path51"
       d="M545-197.4c0.1,0.2,0.3,0.4,0.4,0.5c4.1-2.5,5.5-9.1,2.6-13c-2.5,1.9-5,3.7-7.5,5.6   C542.1-201.9,543.5-199.6,545-197.4z"
       class="st2" /><path
       id="path53"
       d="M522.3-207.2c-0.3,0-0.6,0-0.9,0c-1.1-0.1-1.4,0.3-1.4,1.4c0.1,2.6,0,5.1,0,7.7c0,2.7,0,2.6,2.6,2.6   c1,0,1.2-0.4,1.2-1.3c0-1.5,0-3.1,0-4.6c0-1.4-0.1-2.9,0-4.3C523.9-206.9,523.5-207.3,522.3-207.2z"
       class="st2" /><path
       id="path55"
       d="M510.6-210.3c1.2,0.9,2.2,1.8,3.3,2.6c2.5,2,2.5,2,4.6-0.4c1.3-1.5,2.6-2.9,4.1-4.6c0,0.9-0.1,1.4,0,1.9   c0.1,0.4,0.4,0.7,0.6,1c0.2-0.3,0.5-0.6,0.5-0.9c0.4-4.2,0.4-4.2-3.8-4.2c-0.1,0-0.3,0-0.4,0c-0.3,0.2-0.6,0.4-0.8,0.6   c0.3,0.2,0.6,0.5,0.9,0.5c0.6,0.1,1.2,0,2.2,0c-1.1,1.3-2,2.3-2.9,3.3c-0.9,1-1.8,2-2.7,3.1c-1.6-1.3-3.2-2.5-4.7-3.8   c-0.7-0.6-1.2-0.5-1.8,0.1c-1.9,1.9-4,3.7-5.9,5.6c-0.3,0.3-0.4,0.9-0.5,1.4c0.5-0.1,1-0.2,1.3-0.4   C506.6-206.5,508.6-208.3,510.6-210.3z"
       class="st2" /><path
       id="path57"
       d="M512.6-202.6c0-2.7,0-2.7-2.7-2.6c-0.9,0-1.2,0.4-1.2,1.2c0,1.2,0,2.4,0,3.6c0,1.1,0.1,2.2,0,3.4   c-0.1,1.1,0.3,1.7,1.5,1.6c0.3,0,0.5,0,0.8,0c1.3,0.2,1.6-0.5,1.6-1.6C512.5-199,512.6-200.8,512.6-202.6z"
       class="st2" /><path
       id="path59"
       d="M540.2-205.7c2.5-1.9,4.8-3.6,7.2-5.4c-1.9-2.3-4.2-3.6-7.3-4c0,2.8,0,5.4,0,8   C540.1-206.7,540.2-206.3,540.2-205.7z"
       class="st2" /><path
       id="path61"
       d="M516.7-203.3c-0.4,0-0.8,0-1.2,0c-0.8,0-1.2,0.4-1.2,1.2c0,1.5,0,3.1,0,4.6c0,2,0,2,2,2c1.9,0,1.9,0,1.9-1.9   c0-0.6,0-1.3,0-1.9c0-0.9,0-1.7,0-2.6C518.3-203,517.8-203.4,516.7-203.3z"
       class="st2" /><path
       id="path63"
       d="M503.8-195.5c2.6,0.5,3.1,0.1,3.1-2.5c0-0.1,0-0.3,0-0.4c0-3.1,0-3.1-2.8-2.9c0,0-0.1,0-0.1,0   c-0.3,0.3-0.9,0.6-0.9,0.9c-0.1,1.3-0.1,2.7,0,4C503.1-196.1,503.5-195.6,503.8-195.5z"
       class="st2" /><path
       id="path65"
       d="M553.1-223.1c-18,0-35.9,0-53.9,0c-2.2,0-2.7,0.5-2.7,2.7c0,11.4,0,22.9,0,34.3c0,2.2,0.5,2.7,2.7,2.7   c6.7,0,13.3,0,20,0c0.5,0,1,0,1.5,0c-0.1,1.3-0.2,2.4-0.2,3.5c0,2.1-0.8,3.6-2.8,4.6c-0.4,0.2-0.9,0.5-1.3,0.8   c-0.3,0.3-0.6,0.6-0.8,1c0.4,0.2,0.8,0.4,1.3,0.4c6.3,0,12.5,0,18.8,0c0.2,0,0.4,0,0.5,0c0.2-0.1,0.7-0.2,0.7-0.3   c0-0.3-0.1-0.6-0.3-0.8c-0.7-0.5-1.4-0.9-2.1-1.3c-1.2-0.7-2.1-1.6-2.3-3c-0.2-1.5-0.2-3.1-0.4-4.8c0.6,0,1.1,0,1.5,0   c6.6,0,13.1,0,19.7,0c2.4,0,3-0.5,3-2.9c0-11.3,0-22.6,0-33.9C556.1-222.5,555.5-223.1,553.1-223.1z M554.1-187.2h-55.6v-34.2h55.6   V-187.2z"
       class="st2" /></g><path
     id="path67"
     d="M433.4-116.4H308.1c-1.9,0-3.4-1.5-3.4-3.4v-31.1h132.1v31.1C436.8-117.9,435.3-116.4,433.4-116.4z"
     class="st1" /><path
     id="path69"
     d="M588.9-116.4H463.6c-1.9,0-3.4-1.5-3.4-3.4v-31.1h132.1v31.1C592.3-117.9,590.8-116.4,588.9-116.4z"
     class="st1" /><text
     id="text71"
     style="font-family:'Roboto-Regular'; font-size:12px;"
     class="st5"
     transform="matrix(1 0 0 1 340.2678 -127.8649)">Servicing</text>
<g
     id="g3488"><path
       style="fill:#ffffff;stroke:#b3b3b3;stroke-width:0.46759999;stroke-miterlimit:10"
       id="path75"
       d="m 130.7,134.5 -126.4,0 c -2.1,0 -3.8,-1.7 -3.8,-3.8 L 0.5,4.3 C 0.5,2.2 2.2,0.5 4.3,0.5 l 126.3,0 c 2.1,0 3.8,1.7 3.8,3.8 l 0,126.3 c 0.1,2.2 -1.6,3.9 -3.7,3.9 z"
       class="st3" /><g
       id="g77"><path
         style="fill:#ff6400"
         id="path79"
         d="m 74.6,53.2 c 3.1,2.5 7.6,2.9 10.6,0.8 -1.3,-2 -2.6,-4.1 -4,-6.1 -0.9,-1.3 -1.3,-2.6 -1.2,-4.2 0.1,-2.3 0,-4.7 0,-7 -3.2,-0.3 -6.8,2.2 -8.2,5.6 -1.5,3.9 -0.3,8.3 2.8,10.9 z"
         class="st2" /><path
         style="fill:#ff6400"
         id="path81"
         d="m 86.5,53.5 c 0.1,0.2 0.3,0.4 0.4,0.5 4.2,-2.5 5.5,-9.1 2.7,-13 -2.5,1.9 -5,3.7 -7.6,5.6 1.5,2.4 3,4.6 4.5,6.9 z"
         class="st2" /><path
         style="fill:#ff6400"
         id="path83"
         d="m 63.4,43.6 c -0.3,0 -0.6,0 -1,0 -1.1,-0.1 -1.4,0.3 -1.4,1.4 0.1,2.6 0,5.1 0,7.7 0,2.7 0,2.6 2.7,2.6 1,0 1.3,-0.4 1.2,-1.3 0,-1.5 0,-3.1 0,-4.6 0,-1.4 -0.1,-2.9 0,-4.3 0.2,-1.1 -0.3,-1.6 -1.5,-1.5 z"
         class="st2" /><path
         style="fill:#ff6400"
         id="path85"
         d="m 51.6,40.6 c 1.2,0.9 2.2,1.8 3.3,2.6 2.5,2 2.5,2 4.7,-0.4 1.3,-1.5 2.6,-2.9 4.2,-4.6 0,0.9 -0.1,1.4 0,1.9 0.1,0.4 0.4,0.7 0.6,1 0.2,-0.3 0.5,-0.6 0.5,-0.9 0.4,-4.2 0.4,-4.2 -3.8,-4.2 -0.1,0 -0.3,0 -0.4,0 -0.3,0.2 -0.6,0.4 -0.9,0.6 0.3,0.2 0.6,0.5 0.9,0.5 0.6,0.1 1.2,0 2.2,0 -1.1,1.3 -2,2.3 -2.9,3.3 -0.9,1 -1.8,2 -2.8,3.1 -1.7,-1.3 -3.3,-2.5 -4.8,-3.8 -0.7,-0.6 -1.2,-0.5 -1.9,0.1 -2,1.9 -4,3.7 -6,5.6 -0.3,0.3 -0.4,0.9 -0.5,1.4 0.5,-0.1 1,-0.2 1.4,-0.4 2.1,-2 4.1,-3.9 6.2,-5.8 z"
         class="st2" /><path
         style="fill:#ff6400"
         id="path87"
         d="m 53.6,48.2 c 0,-2.7 0,-2.7 -2.8,-2.6 -0.9,0 -1.2,0.4 -1.2,1.2 0,1.2 0,2.4 0,3.6 0,1.1 0.1,2.2 0,3.4 -0.1,1.1 0.3,1.7 1.5,1.6 0.3,0 0.6,0 0.8,0 1.3,0.2 1.7,-0.5 1.6,-1.6 0,-1.9 0.1,-3.7 0.1,-5.6 z"
         class="st2" /><path
         style="fill:#ff6400"
         id="path89"
         d="m 81.6,45.2 c 2.5,-1.9 4.9,-3.6 7.3,-5.4 -1.9,-2.3 -4.3,-3.6 -7.4,-4 0,2.8 0,5.4 0,8 0,0.4 0.1,0.8 0.1,1.4 z"
         class="st2" /><path
         style="fill:#ff6400"
         id="path91"
         d="m 57.8,47.5 c -0.4,0 -0.8,0 -1.2,0 -0.9,0 -1.2,0.4 -1.2,1.2 0,1.5 0,3.1 0,4.6 0,2 0,2 2,2 1.9,0 1.9,0 1.9,-1.9 0,-0.6 0,-1.3 0,-1.9 0,-0.9 0,-1.7 0,-2.6 0.1,-1.1 -0.4,-1.5 -1.5,-1.4 z"
         class="st2" /><path
         style="fill:#ff6400"
         id="path93"
         d="m 44.7,55.3 c 2.6,0.5 3.2,0.1 3.2,-2.5 0,-0.1 0,-0.3 0,-0.4 0,-3.1 0,-3.1 -2.9,-2.9 0,0 -0.1,0 -0.1,0 -0.3,0.3 -0.9,0.6 -0.9,0.9 -0.1,1.3 -0.1,2.7 0,4 0,0.4 0.4,0.9 0.7,0.9 z"
         class="st2" /><path
         style="fill:#ff6400"
         id="path95"
         d="m 94.7,27.7 c -18.2,0 -36.4,0 -54.7,0 -2.2,0 -2.8,0.5 -2.8,2.7 0,11.4 0,22.9 0,34.3 0,2.2 0.5,2.7 2.7,2.7 6.8,0 13.5,0 20.3,0 0.5,0 1,0 1.5,0 -0.1,1.3 -0.2,2.4 -0.2,3.5 0,2.1 -0.9,3.6 -2.8,4.6 -0.4,0.2 -0.9,0.5 -1.3,0.8 -0.3,0.3 -0.6,0.6 -0.8,1 0.4,0.2 0.8,0.4 1.3,0.4 6.3,0 12.7,0 19,0 0.2,0 0.4,0 0.5,0 0.2,-0.1 0.7,-0.2 0.7,-0.3 0,-0.3 -0.1,-0.6 -0.3,-0.8 -0.7,-0.5 -1.4,-0.9 -2.1,-1.3 -1.2,-0.7 -2.1,-1.6 -2.3,-3 -0.2,-1.5 -0.2,-3.1 -0.4,-4.8 0.6,0 1.1,0 1.6,0 6.7,0 13.3,0 20,0 2.5,0 3,-0.5 3,-2.9 0,-11.3 0,-22.6 0,-33.9 0.1,-2.4 -0.5,-3 -2.9,-3 z m 1,36 -56.4,0 0,-34.3 56.4,0 0,34.3 z"
         class="st2" /></g><path
       style="fill:#f2f2f2;stroke:#b3b3b3;stroke-width:0.46759999;stroke-miterlimit:10"
       id="path97"
       d="m 131.1,134.5 -127.2,0 C 2,134.5 0.5,133 0.5,131.1 l 0,-31.1 134,0 0,31.1 c 0,1.9 -1.5,3.4 -3.4,3.4 z"
       class="st4" /><g
       id="g99"><path
         style="fill:#333333"
         id="path101"
         d="m 16.3,119.5 -3.6,0 -0.8,2.2 -1.2,0 3.3,-8.5 1,0 3.3,8.5 -1.2,0 -0.8,-2.2 z m -3.3,-1 2.9,0 -1.4,-3.9 0,0 -1.5,3.9 z"
         class="st5" /><path
         style="fill:#333333"
         id="path103"
         d="m 25.8,120.5 c -0.2,0.3 -0.6,0.6 -1.1,0.9 -0.5,0.3 -1.2,0.4 -2,0.4 -1,0 -1.9,-0.3 -2.6,-1 -0.7,-0.7 -1,-1.5 -1,-2.5 l 0,-1.8 c 0,-1 0.3,-1.9 0.9,-2.5 0.6,-0.7 1.4,-1 2.4,-1 1,0 1.8,0.2 2.3,0.7 0.6,0.5 0.9,1.1 0.9,1.9 l 0,0 -1.1,0 c 0,-0.5 -0.2,-0.9 -0.6,-1.2 -0.4,-0.3 -0.8,-0.5 -1.5,-0.5 -0.7,0 -1.2,0.2 -1.6,0.7 -0.4,0.5 -0.6,1.1 -0.6,1.9 l 0,1.8 c 0,0.8 0.2,1.4 0.7,1.9 0.5,0.5 1,0.7 1.7,0.7 0.5,0 0.9,-0.1 1.2,-0.2 0.3,-0.1 0.5,-0.3 0.7,-0.4 l 0,-1.9 -1.9,0 0,-0.9 3.1,0 0,3 z"
         class="st5" /><path
         style="fill:#333333"
         id="path105"
         d="m 32.9,117.7 -4,0 0,3 4.6,0 0,0.9 -5.7,0 0,-8.5 5.7,0 0,0.9 -4.5,0 0,2.8 4,0 0,0.9 z"
         class="st5" /><path
         style="fill:#333333"
         id="path107"
         d="m 41.4,121.7 -1.2,0 -4.2,-6.6 0,0 0,6.6 -1.2,0 0,-8.5 1.2,0 4.2,6.6 0,0 0,-6.6 1.2,0 0,8.5 z"
         class="st5" /><path
         style="fill:#333333"
         id="path109"
         d="m 49.3,114 -2.8,0 0,7.6 -1.2,0 0,-7.6 -2.8,0 0,-0.9 6.7,0 0,0.9 z"
         class="st5" /><path
         style="fill:#333333"
         id="path111"
         d="m 53.6,121.7 0,-8.5 2.7,0 c 1.1,0 2,0.3 2.7,1 0.7,0.7 1,1.6 1,2.7 l 0,1.2 c 0,1.1 -0.3,2 -1,2.7 -0.7,0.7 -1.6,1 -2.7,1 l -2.7,0 z m 1.1,-7.7 0,6.7 1.5,0 c 0.8,0 1.4,-0.3 1.9,-0.8 0.5,-0.5 0.7,-1.2 0.7,-2 l 0,-1.2 c 0,-0.8 -0.2,-1.5 -0.7,-2 -0.5,-0.5 -1.1,-0.8 -1.9,-0.8 l -1.5,0 z"
         class="st5" /><path
         style="fill:#333333"
         id="path113"
         d="m 66.2,119.5 -3.6,0 -0.8,2.2 -1.2,0 3.3,-8.5 1,0 3.3,8.5 -1.2,0 -0.8,-2.2 z m -3.3,-1 2.9,0 -1.4,-3.9 0,0 -1.5,3.9 z"
         class="st5" /><path
         style="fill:#333333"
         id="path115"
         d="m 74.1,119.5 c 0,-0.4 -0.1,-0.7 -0.4,-1 -0.3,-0.3 -0.8,-0.5 -1.6,-0.7 -0.9,-0.2 -1.6,-0.5 -2.1,-1 -0.5,-0.4 -0.8,-0.9 -0.8,-1.6 0,-0.7 0.3,-1.2 0.8,-1.7 0.5,-0.5 1.3,-0.7 2.1,-0.7 0.9,0 1.7,0.3 2.3,0.8 0.6,0.5 0.8,1.1 0.8,1.8 l 0,0 -1.2,0 c 0,-0.5 -0.2,-0.9 -0.5,-1.2 -0.3,-0.3 -0.8,-0.5 -1.4,-0.5 -0.6,0 -1,0.1 -1.3,0.4 -0.3,0.3 -0.5,0.6 -0.5,1 0,0.4 0.2,0.7 0.5,0.9 0.3,0.2 0.9,0.5 1.6,0.7 0.9,0.2 1.6,0.6 2.1,1 0.5,0.4 0.7,1 0.7,1.6 0,0.7 -0.3,1.2 -0.9,1.7 -0.6,0.4 -1.3,0.6 -2.2,0.6 -0.9,0 -1.6,-0.2 -2.3,-0.7 -0.7,-0.5 -1,-1.1 -1,-1.9 l 0,0 1.2,0 c 0,0.5 0.2,1 0.6,1.2 0.4,0.2 0.9,0.4 1.5,0.4 0.6,0 1.1,-0.1 1.4,-0.4 0.4,0.1 0.6,-0.3 0.6,-0.7 z"
         class="st5" /><path
         style="fill:#333333"
         id="path117"
         d="m 83.5,121.7 -1.2,0 0,-3.8 -4.2,0 0,3.8 -1.2,0 0,-8.5 1.2,0 0,3.9 4.2,0 0,-3.9 1.2,0 0,8.5 z"
         class="st5" /><path
         style="fill:#333333"
         id="path119"
         d="m 85.6,121.7 0,-8.5 2.8,0 c 0.9,0 1.6,0.2 2.1,0.6 0.5,0.4 0.8,1 0.8,1.7 0,0.4 -0.1,0.7 -0.4,1 -0.2,0.3 -0.6,0.5 -1,0.7 0.5,0.1 0.9,0.4 1.2,0.8 0.3,0.4 0.4,0.9 0.4,1.4 0,0.8 -0.3,1.4 -0.8,1.8 -0.5,0.4 -1.2,0.6 -2.1,0.6 l -3,0 z m 1.2,-5 1.9,0 c 0.4,0 0.8,-0.1 1.1,-0.4 0.3,-0.3 0.4,-0.6 0.4,-1 0,-0.5 -0.1,-0.8 -0.4,-1 C 89.5,114.1 89,114 88.4,114 l -1.7,0 0,2.7 z m 0,1 0,3.1 2,0 c 0.5,0 0.9,-0.1 1.2,-0.4 0.3,-0.3 0.4,-0.6 0.4,-1.1 0,-0.5 -0.1,-0.9 -0.4,-1.2 -0.2,-0.3 -0.6,-0.4 -1.1,-0.4 l -2.1,0 z"
         class="st5" /><path
         style="fill:#333333"
         id="path121"
         d="m 99.9,118.1 c 0,1 -0.3,1.9 -1,2.6 -0.7,0.7 -1.5,1 -2.6,1 -1,0 -1.8,-0.3 -2.5,-1 -0.6,-0.7 -0.9,-1.6 -0.9,-2.6 l 0,-1.5 c 0,-1 0.3,-1.9 0.9,-2.6 0.6,-0.7 1.5,-1 2.5,-1 1,0 1.9,0.3 2.6,1 0.7,0.7 1,1.6 1,2.6 l 0,1.5 z m -1.1,-1.5 c 0,-0.8 -0.2,-1.4 -0.6,-1.9 -0.4,-0.5 -1,-0.8 -1.7,-0.8 -0.7,0 -1.2,0.3 -1.6,0.8 -0.4,0.5 -0.6,1.1 -0.6,1.9 l 0,1.5 c 0,0.8 0.2,1.4 0.6,1.9 0.4,0.5 0.9,0.8 1.6,0.8 0.7,0 1.3,-0.2 1.7,-0.7 0.4,-0.5 0.6,-1.1 0.6,-1.9 l 0,-1.6 z"
         class="st5" /><path
         style="fill:#333333"
         id="path123"
         d="m 106.3,119.5 -3.6,0 -0.8,2.2 -1.2,0 3.3,-8.5 1,0 3.3,8.5 -1.2,0 -0.8,-2.2 z m -3.3,-1 2.9,0 -1.4,-3.9 0,0 -1.5,3.9 z"
         class="st5" /><path
         style="fill:#333333"
         id="path125"
         d="m 110.6,118 0,3.7 -1.2,0 0,-8.5 3.1,0 c 0.9,0 1.7,0.2 2.2,0.6 0.5,0.4 0.7,1 0.7,1.8 0,0.4 -0.1,0.8 -0.3,1.1 -0.2,0.3 -0.6,0.6 -1,0.8 0.5,0.2 0.8,0.4 1,0.7 0.2,0.3 0.3,0.8 0.3,1.3 l 0,0.8 c 0,0.3 0,0.5 0.1,0.7 0.1,0.2 0.2,0.4 0.3,0.5 l 0,0.1 -1.2,0 c -0.2,-0.1 -0.3,-0.3 -0.3,-0.6 0,-0.3 -0.1,-0.5 -0.1,-0.8 l 0,-0.8 c 0,-0.5 -0.1,-0.8 -0.4,-1.1 -0.3,-0.3 -0.6,-0.4 -1.1,-0.4 l -2.1,0 z m 0,-1 1.8,0 c 0.7,0 1.1,-0.1 1.4,-0.4 0.3,-0.2 0.4,-0.6 0.4,-1.1 0,-0.5 -0.1,-0.9 -0.4,-1.1 -0.3,-0.3 -0.7,-0.4 -1.3,-0.4 l -2,0 0,3 z"
         class="st5" /><path
         style="fill:#333333"
         id="path127"
         d="m 117.5,121.7 0,-8.5 2.7,0 c 1.1,0 2,0.3 2.7,1 0.7,0.7 1,1.6 1,2.7 l 0,1.2 c 0,1.1 -0.3,2 -1,2.7 -0.7,0.7 -1.6,1 -2.7,1 l -2.7,0 z m 1.2,-7.7 0,6.7 1.5,0 c 0.8,0 1.4,-0.3 1.9,-0.8 0.5,-0.5 0.7,-1.2 0.7,-2 l 0,-1.2 c 0,-0.8 -0.2,-1.5 -0.7,-2 -0.5,-0.5 -1.1,-0.8 -1.9,-0.8 l -1.5,0 z"
         class="st5" /></g></g></svg>