<?xml version="1.0" encoding="UTF-8" standalone="no"?>
<svg
   xmlns:dc="http://purl.org/dc/elements/1.1/"
   xmlns:cc="http://creativecommons.org/ns#"
   xmlns:rdf="http://www.w3.org/1999/02/22-rdf-syntax-ns#"
   xmlns:svg="http://www.w3.org/2000/svg"
   xmlns="http://www.w3.org/2000/svg"
   xml:space="preserve"
   style="enable-background:new 0 0 51 51;"
   viewBox="0 0 51 51"
   y="0px"
   x="0px"
   id="Layer_1"
   version="1.1"><metadata
     id="metadata15"><rdf:RDF><cc:Work
         rdf:about=""><dc:format>image/svg+xml</dc:format><dc:type
           rdf:resource="http://purl.org/dc/dcmitype/StillImage" /><dc:title></dc:title></cc:Work></rdf:RDF></metadata><defs
     id="defs13" /><style
     id="style3"
     type="text/css">
	.st0{fill:#666666;}
</style><g
     id="g5"><path
       id="path7"
       d="M25.5,0.5c-13.8,0-25,11.2-25,25s11.2,25,25,25c13.8,0,25-11.2,25-25S39.3,0.5,25.5,0.5z M25.5,48.8   c-12.9,0-23.3-10.5-23.3-23.3S12.6,2.2,25.5,2.2c12.9,0,23.3,10.5,23.3,23.3S38.4,48.8,25.5,48.8z"
       class="st0" /><path
       id="path9"
       d="M34.9,16.2H16.1c-1.2,0-2.2,1-2.2,2.2v10.6c0,1.2,1,2.2,2.2,2.2h5.1c0.4,2.1,2.2,3.7,4.4,3.7s4-1.6,4.4-3.7   h5.1c1.2,0,2.2-1,2.2-2.2V18.4C37.1,17.2,36.1,16.2,34.9,16.2z M25.5,33.4c-0.4,0-0.7-0.3-0.7-0.7c0-0.4,0.3-0.7,0.7-0.7   c0.4,0,0.7,0.3,0.7,0.7C26.2,33.1,25.9,33.4,25.5,33.4z M26.1,31.6h-1.1l-0.3-4.2h1.6L26.1,31.6z M35.8,28.9c0,0.5-0.4,0.9-0.9,0.9   h-5c-0.3-2.2-2.1-3.9-4.4-3.9s-4.1,1.7-4.4,3.9h-5c-0.5,0-0.9-0.4-0.9-0.9v-6.1h20.7V28.9z M35.8,19.9H15.2v-1.5   c0-0.5,0.4-0.9,0.9-0.9h18.9c0.5,0,0.9,0.4,0.9,0.9V19.9z"
       class="st0" /></g></svg>