<?xml version="1.0" encoding="UTF-8" standalone="no"?>
<svg
   xmlns:dc="http://purl.org/dc/elements/1.1/"
   xmlns:cc="http://creativecommons.org/ns#"
   xmlns:rdf="http://www.w3.org/1999/02/22-rdf-syntax-ns#"
   xmlns:svg="http://www.w3.org/2000/svg"
   xmlns="http://www.w3.org/2000/svg"
   xml:space="preserve"
   style="enable-background:new 0 0 30 30;"
   viewBox="0 0 30 30"
   y="0px"
   x="0px"
   id="Layer_1"
   version="1.1"><metadata
     id="metadata11"><rdf:RDF><cc:Work
         rdf:about=""><dc:format>image/svg+xml</dc:format><dc:type
           rdf:resource="http://purl.org/dc/dcmitype/StillImage" /><dc:title></dc:title></cc:Work></rdf:RDF></metadata><defs
     id="defs9" /><path
     style="fill:#333333"
     id="path3"
     d="M 15 -0.025390625 C 14.525 -0.025390625 14.049219 0.15 13.699219 0.5 L 0.5 13.699219 C -0.2 14.399219 -0.2 15.600781 0.5 16.300781 L 13.699219 29.5 C 14.399219 30.2 15.600781 30.2 16.300781 29.5 L 29.5 16.300781 C 30.2 15.600781 30.2 14.399219 29.5 13.699219 L 16.300781 0.5 C 15.950781 0.15 15.475 -0.025390625 15 -0.025390625 z M 15.050781 1.75 C 15.475781 1.75 15.899219 1.8992187 16.199219 2.1992188 L 27.800781 13.800781 C 28.400781 14.500781 28.400781 15.499609 27.800781 16.099609 L 16.099609 27.800781 C 15.499609 28.400781 14.400781 28.400781 13.800781 27.800781 L 2.1992188 16.099609 C 1.5992187 15.499609 1.5992187 14.400781 2.1992188 13.800781 L 13.900391 2.1992188 C 14.200391 1.8992187 14.625781 1.75 15.050781 1.75 z M 15 7.9003906 C 11.1 7.9003906 7.9003906 11.1 7.9003906 15 C 7.9003906 18.9 11.1 22.099609 15 22.099609 C 18.9 22.099609 22.099609 18.9 22.099609 15 C 22.099609 11.1 18.9 7.9003906 15 7.9003906 z M 14.900391 10.199219 C 15.800391 10.199219 16.499609 10.5 17.099609 11 C 17.599609 11.5 17.900391 12.100781 17.900391 12.800781 C 18.000391 13.300781 17.899219 13.6 17.699219 14 C 17.499219 14.3 17.100391 14.800391 16.400391 15.400391 C 16.100391 15.700391 15.900781 15.899609 15.800781 16.099609 C 15.700781 16.299609 15.699219 16.599609 15.699219 17.099609 L 14.300781 17.099609 L 14.300781 16.699219 C 14.300781 16.199219 14.4 15.8 14.5 15.5 C 14.7 15.2 15.000391 14.800391 15.400391 14.400391 C 15.900391 14.000391 16.099219 13.699609 16.199219 13.599609 C 16.299219 13.399609 16.400391 13.200391 16.400391 12.900391 C 16.400391 12.600391 16.3 12.3 16 12 C 15.8 11.8 15.4 11.599609 15 11.599609 C 14.6 11.599609 14.3 11.7 14 12 C 13.7 12.2 13.500391 12.599609 13.400391 13.099609 L 11.900391 12.900391 C 11.900391 12.200391 12.200781 11.6 12.800781 11 C 13.300781 10.5 14.000391 10.199219 14.900391 10.199219 z M 15 18.099609 C 15.5 18.099609 15.900391 18.5 15.900391 19 C 15.900391 19.5 15.5 19.900391 15 19.900391 C 14.5 19.900391 14.099609 19.5 14.099609 19 C 14.099609 18.5 14.5 18.099609 15 18.099609 z " /></svg>