<svg xmlns="http://www.w3.org/2000/svg" xmlns:xlink="http://www.w3.org/1999/xlink" width="64" height="64" viewBox="0 0 64 64">
  <defs>
    <clipPath id="clip-path">
      <rect id="Rectangle_6587" data-name="Rectangle 6587" width="64" height="64"/>
    </clipPath>
  </defs>
  <g id="fileBrowser" clip-path="url(#clip-path)">
    <g id="FaceID" clip-path="url(#clip-path)">
      <path id="Union_3" data-name="Union 3" d="M469.178-425a1.421,1.421,0,0,1-1.409-1.433,1.421,1.421,0,0,1,1.409-1.434h15V-443.12a1.421,1.421,0,0,1,1.409-1.433,1.422,1.422,0,0,1,1,.424,1.422,1.422,0,0,1,.409,1.01v16.686A1.421,1.421,0,0,1,485.59-425Zm-40.768,0a1.422,1.422,0,0,1-1.41-1.433v-16.686a1.422,1.422,0,0,1,1.41-1.433,1.421,1.421,0,0,1,1.409,1.433v15.253h15a1.421,1.421,0,0,1,1.409,1.434A1.421,1.421,0,0,1,444.822-425Zm55.772-42.881v-15.253h-15a1.422,1.422,0,0,1-1.409-1.434,1.421,1.421,0,0,1,1.4-1.432H485.59a1.421,1.421,0,0,1,1.41,1.433v16.686a1.422,1.422,0,0,1-1.409,1.434,1.422,1.422,0,0,1-1.41-1.434Zm-57.182,0v-16.686A1.422,1.422,0,0,1,428.41-486h16.413a1.421,1.421,0,0,1,1.409,1.433,1.422,1.422,0,0,1-1.409,1.434h-15v15.253a1.422,1.422,0,0,1-1.409,1.434,1.422,1.422,0,0,1-1-.424,1.422,1.422,0,0,1-.409-1.011Z" transform="translate(-425 488)"/>
    </g>
    <path id="Icon_open-browser" data-name="Icon open-browser" d="M1.272,0A1.807,1.807,0,0,0,0,1.8V27.059a1.838,1.838,0,0,0,1.871,1.8H28.06a1.838,1.838,0,0,0,1.871-1.8V1.8A1.838,1.838,0,0,0,28.06,0H1.87a1.94,1.94,0,0,0-.337,0,1.94,1.94,0,0,0-.224,0Zm4.34,3.608a1.805,1.805,0,1,1,0,3.608,1.805,1.805,0,1,1,0-3.608Zm7.483,0H24.318a1.805,1.805,0,1,1,0,3.608H13.094a1.805,1.805,0,1,1,0-3.608ZM3.227,10.217H26.639V25.729H3.227Z" transform="translate(17.003 18.009)"/>
  </g>
</svg>
