<svg xmlns="http://www.w3.org/2000/svg" xmlns:xlink="http://www.w3.org/1999/xlink" width="42" height="130.02" viewBox="0 0 42 130.02">
  <defs>
    <clipPath id="clip-FixPromo_1">
      <rect width="42" height="130.02"/>
    </clipPath>
  </defs>
  <g id="FixPromo_1" data-name="FixPromo – 1" clip-path="url(#clip-FixPromo_1)">
    <g id="FixPromo" transform="translate(-372.001 -186)">
      <path id="Path_238" data-name="Path 238" d="M117,563.488h0V433.466a87.418,87.418,0,0,0,4.535,15.519c3.019,7.644,8.425,17.827,17.033,22.934a31.9,31.9,0,0,1,14.08,9.535,26.559,26.559,0,0,1,6.274,15.034,16.362,16.362,0,0,1,.079,2,18.4,18.4,0,0,1-.1,2.306,25.746,25.746,0,0,1-1.652,7.039,27.411,27.411,0,0,1-5.275,8.723,31.254,31.254,0,0,1-11.013,7.728c-9.753,4.215-15.748,14.655-19.06,22.67a84.806,84.806,0,0,0-4.9,16.534Z" transform="translate(531.006 749.488) rotate(180)" fill="#0c42cd"/>
      <g id="Group_206" data-name="Group 206" transform="matrix(0.94, 0.342, -0.342, 0.94, 714.651, -676.372)">
        <path id="Path_239" data-name="Path 239" d="M11.175,973.369a.669.669,0,0,1,.114.034l15.087,4.978a.8.8,0,0,1,.525.776V982.7a.8.8,0,0,1-.525.776l-2.091.692-1.057,4.261a.747.747,0,0,1-.707.6H20.087a.707.707,0,0,1-.581-.316.881.881,0,0,1-.126-.7l.6-2.422-8.692,2.869a.673.673,0,0,1-.643-.129.843.843,0,0,1-.293-.648v-13.5a.852.852,0,0,1,.245-.612.683.683,0,0,1,.576-.2Zm-5.133,1.612a.685.685,0,0,1,.319.127l1.947,1.35a.865.865,0,0,1,.232,1.118.69.69,0,0,1-1.008.257l-1.947-1.35a.853.853,0,0,1-.32-.956.73.73,0,0,1,.776-.546Zm5.772.287v11.323L25.44,982.1v-2.346l-13.627-4.489ZM8,980.119a.784.784,0,0,1,.692.852.764.764,0,0,1-.768.768H5.73a.814.814,0,0,1,0-1.62H7.92a.672.672,0,0,1,.076,0Zm-.046,3.772a.75.75,0,0,1,.684.6.851.851,0,0,1-.327.9l-1.947,1.35a.69.69,0,0,1-1.008-.257.865.865,0,0,1,.232-1.118l1.947-1.35a.678.678,0,0,1,.418-.127Zm14.676.827-.989.321-.593,2.371h.912Z" fill="#fff"/>
      </g>
    </g>
  </g>
</svg>
