<svg xmlns="http://www.w3.org/2000/svg" width="42.006" height="130.022" viewBox="0 0 42.006 130.022"><defs><style>.a{fill:#ff91f8;opacity:0.34;}.b,.c{fill:#fff;}.c{stroke:#fff;}</style></defs><g transform="translate(0 -186)"><path class="a" d="M117,563.488h0V433.466a87.415,87.415,0,0,0,4.535,15.519c3.019,7.644,8.425,17.827,17.033,22.934a31.9,31.9,0,0,1,14.08,9.535,26.559,26.559,0,0,1,6.274,15.034,16.36,16.36,0,0,1,.079,2,18.4,18.4,0,0,1-.1,2.306,25.745,25.745,0,0,1-1.652,7.039,27.411,27.411,0,0,1-5.275,8.723,31.254,31.254,0,0,1-11.013,7.728c-9.753,4.215-15.748,14.655-19.06,22.67A84.809,84.809,0,0,0,117,563.488Z" transform="translate(-117 -247.466)"/><g transform="translate(-311.201 446.183) rotate(-45)"><path class="b" d="M65,414a7,7,0,1,1,7-7A7.008,7.008,0,0,1,65,414Zm0-12.444A5.445,5.445,0,1,0,70.444,407,5.45,5.45,0,0,0,65,401.556Z" transform="translate(308 -313)"/><path class="c" d="M1825.316,2509.265a.289.289,0,0,0,.29-.29v-6.622a.29.29,0,1,0-.58,0v6.622A.29.29,0,0,0,1825.316,2509.265Z" transform="translate(-1452.526 -2401.631)"/></g></g></svg>