<?xml version="1.0" encoding="UTF-8" standalone="no"?>
<svg
   xmlns:dc="http://purl.org/dc/elements/1.1/"
   xmlns:cc="http://creativecommons.org/ns#"
   xmlns:rdf="http://www.w3.org/1999/02/22-rdf-syntax-ns#"
   xmlns:svg="http://www.w3.org/2000/svg"
   xmlns="http://www.w3.org/2000/svg"
   version="1.1"
   id="Layer_1"
   x="0px"
   y="0px"
   viewBox="0 0 50 50"
   style="enable-background:new 0 0 50 50;"
   xml:space="preserve"><metadata
     id="metadata37"><rdf:RDF><cc:Work
         rdf:about=""><dc:format>image/svg+xml</dc:format><dc:type
           rdf:resource="http://purl.org/dc/dcmitype/StillImage" /><dc:title></dc:title></cc:Work></rdf:RDF></metadata><defs
     id="defs35" /><style
     type="text/css"
     id="style3">
	.st0{fill:#666666;}
</style><g
     id="g5"><path
       class="st0"
       d="M25,0C11.2,0,0,11.2,0,25s11.2,25,25,25c13.8,0,25-11.2,25-25S38.8,0,25,0z M25,48.3   C12.1,48.3,1.7,37.9,1.7,25S12.1,1.7,25,1.7c12.9,0,23.3,10.5,23.3,23.3S37.9,48.3,25,48.3z"
       id="path7" /><path
       class="st0"
       d="M19.8,23.2c-2,0-3.6,1.6-3.6,3.6s1.6,3.6,3.6,3.6s3.6-1.6,3.6-3.6S21.7,23.2,19.8,23.2z M19.8,29.3   c-1.3,0-2.4-1.1-2.4-2.4c0-1.3,1.1-2.4,2.4-2.4c1.3,0,2.4,1.1,2.4,2.4C22.2,28.2,21.1,29.3,19.8,29.3z"
       id="path9" /><path
       class="st0"
       d="M21.8,31.1h-4.1c-1.6,0-2.9,1.3-2.9,2.9v1.9c0,0.3,0.3,0.6,0.6,0.6c0.3,0,0.6-0.3,0.6-0.6V34   c0-1,0.8-1.7,1.7-1.7h4.1c1,0,1.7,0.8,1.7,1.7c0,0.3,0.3,0.6,0.6,0.6c0.3,0,0.6-0.3,0.6-0.6C24.7,32.4,23.4,31.1,21.8,31.1z"
       id="path11" /><path
       class="st0"
       d="M31,23.3c-2,0-3.6,1.6-3.6,3.6s1.6,3.6,3.6,3.6c2,0,3.6-1.6,3.6-3.6S33,23.3,31,23.3z M31,29.3   c-1.3,0-2.4-1.1-2.4-2.4c0-1.3,1.1-2.4,2.4-2.4c1.3,0,2.4,1.1,2.4,2.4C33.4,28.3,32.3,29.3,31,29.3z"
       id="path13" /><path
       class="st0"
       d="M33.1,31.2h-4.1c-1.6,0-2.9,1.3-2.9,2.9c0,0.3,0.3,0.6,0.6,0.6c0.3,0,0.6-0.3,0.6-0.6c0-1,0.8-1.7,1.7-1.7h4.1   c1,0,1.7,0.8,1.7,1.7V36c0,0.3,0.3,0.6,0.6,0.6c0.3,0,0.6-0.3,0.6-0.6v-1.9C35.9,32.5,34.7,31.2,33.1,31.2z"
       id="path15" /><circle
       class="st0"
       cx="16.8"
       cy="17.5"
       r="0.8"
       id="circle17" /><circle
       class="st0"
       cx="19.1"
       cy="17.5"
       r="0.8"
       id="circle19" /><circle
       class="st0"
       cx="21.3"
       cy="17.5"
       r="0.8"
       id="circle21" /><path
       class="st0"
       d="M16,21.2l-0.4,0.5c-0.3,0.3-0.3,0.8,0,1.1c0.2,0.2,0.4,0.3,0.7,0.3c0.1,0,0.3,0,0.4-0.1l3.1-1.5   c0.2-0.1,0.3-0.1,0.5-0.1h0.5c1.8,0,3.2-1.4,3.2-3.2v-1.6c0-1.8-1.4-3.2-3.2-3.2h-3.6c-1.8,0-3.2,1.4-3.2,3.2v1.6   C14.1,19.5,14.8,20.7,16,21.2z M15.2,16.6L15.2,16.6c0-1.1,0.9-2.1,2.1-2.1h3.6c1.1,0,2.1,0.9,2.1,2.1v1.6c0,1.1-0.9,2.1-2.1,2.1   h-0.5c-0.3,0-0.7,0.1-1,0.2l-2.2,1.1c0.1-0.2,0.1-0.5,0.1-0.7c-0.1-0.3-0.3-0.6-0.6-0.7c-0.8-0.3-1.4-1.1-1.4-1.9V16.6z"
       id="path23" /><ellipse
       class="st0"
       cx="32.7"
       cy="17.5"
       rx="0.8"
       ry="0.8"
       id="ellipse25" /><ellipse
       class="st0"
       cx="30.5"
       cy="17.5"
       rx="0.8"
       ry="0.8"
       id="ellipse27" /><ellipse
       class="st0"
       cx="28.4"
       cy="17.5"
       rx="0.8"
       ry="0.8"
       id="ellipse29" /><path
       class="st0"
       d="M28.8,21.4h0.5c0.2,0,0.3,0,0.5,0.1l3,1.5c0.1,0.1,0.3,0.1,0.4,0.1c0.3,0,0.5-0.1,0.7-0.3   c0.3-0.3,0.3-0.8,0-1.1l-0.4-0.5c1.1-0.5,1.9-1.7,1.9-3v-1.6c0-1.8-1.4-3.2-3.2-3.2h-3.5c-1.7,0-3.2,1.4-3.2,3.2v1.6   C25.6,20,27.1,21.4,28.8,21.4z M26.8,16.6c0-1.1,0.9-2.1,2-2.1h3.5c1.1,0,2,0.9,2,2.1h0v1.6c0,0.9-0.5,1.7-1.3,1.9   c-0.3,0.1-0.5,0.4-0.6,0.7c-0.1,0.3,0,0.5,0.1,0.7l-2.1-1.1c-0.3-0.2-0.6-0.2-1-0.2h-0.5c-1.1,0-2-0.9-2-2.1V16.6z"
       id="path31" /></g></svg>