<?xml version="1.0" encoding="utf-8"?>
<!-- Generator: Adobe Illustrator 21.1.0, SVG Export Plug-In . SVG Version: 6.00 Build 0)  -->
<svg version="1.1" id="Layer_1" xmlns="http://www.w3.org/2000/svg" xmlns:xlink="http://www.w3.org/1999/xlink" x="0px" y="0px"
	 viewBox="0 0 51 51" style="enable-background:new 0 0 51 51;" xml:space="preserve">
<style type="text/css">
	.st0{fill:#666666;}
</style>
<path class="st0" d="M25.5,0.5c-13.8,0-25,11.2-25,25s11.2,25,25,25c13.8,0,25-11.2,25-25S39.3,0.5,25.5,0.5z M25.5,48.8
	c-12.9,0-23.3-10.5-23.3-23.3S12.6,2.2,25.5,2.2c12.9,0,23.3,10.5,23.3,23.3S38.4,48.8,25.5,48.8z"/>
<g>
	<path class="st0" d="M21.2,33.4c-0.3,0-0.5-0.2-0.5-0.5v-6c0,0,0-0.1,0-0.1l0-0.1v-3c0-0.3,0.2-0.5,0.5-0.5h8.6
		c0.3,0,0.5,0.2,0.5,0.5v6.3c0,0,0,0.1,0,0.1l0,0.1v2.8c0,0.3-0.2,0.5-0.5,0.5H21.2z M29.3,32.4v-1.9H26v1.9H29.3z M25,32.4v-1.9
		h-3.3v1.9H25z M29.3,29.4v-2H26v2H29.3z M25,29.4v-2h-3.3v2H25z M29.3,26.4v-2.2H26v2.2H29.3z M25,26.4v-2.2h-3.3v2.2H25z"/>
	<path class="st0" d="M20.9,23.7v3H21c0,0-0.1,0.1-0.1,0.2v3c0,0.1,0,0.1,0.1,0.2h-0.1v2.8c0,0.1,0.1,0.3,0.3,0.3h8.6
		c0.1,0,0.3-0.1,0.3-0.3v-2.8H30c0,0,0.1-0.1,0.1-0.2v-3c0-0.1,0-0.1-0.1-0.2h0.1v-3c0-0.1-0.1-0.3-0.3-0.3h-8.6
		C21,23.4,20.9,23.6,20.9,23.7z M25.8,23.9h3.8v2.7h-3.8V23.9z M25.8,27.2h3.8v2.5h-3.8V27.2z M25.8,30.2h3.8v2.4h-3.8V30.2z
		 M21.4,23.9h3.8v2.7h-3.8V23.9z M21.4,27.2h3.8v2.5h-3.8V27.2z M21.4,30.2h3.8v2.4h-3.8V30.2z"/>
	<path class="st0" d="M17.2,37.1c-0.3,0-0.5-0.2-0.5-0.5V14.4c0-0.3,0.2-0.5,0.5-0.5H28c0.1,0,0.3,0.1,0.4,0.2l5.8,5.9
		c0.1,0.1,0.1,0.2,0.1,0.4v16.2c0,0.3-0.2,0.5-0.5,0.5H17.2z M17.7,36.1l15.6,0v-15h-5.4c-0.3,0-0.5-0.2-0.5-0.5v-5.7h-9.7V36.1z
		 M32.8,20.1l-4.4-4.5v4.5H32.8z"/>
	<path class="st0" d="M34,20.2l-5.8-5.9c0,0-0.1-0.1-0.2-0.1H17.2c-0.1,0-0.3,0.1-0.3,0.3v22.2c0,0.1,0.1,0.3,0.3,0.3h16.6
		c0.1,0,0.3-0.1,0.3-0.3V20.4C34.1,20.3,34,20.2,34,20.2z M28.2,15l5.2,5.4h-5.2V15z M33.6,36.3l-16.1,0V14.7h10.2v5.9
		c0,0.1,0.1,0.3,0.3,0.3h5.6V36.3z"/>
</g>
</svg>
