<?xml version="1.0" encoding="UTF-8" standalone="no"?>
<svg
   xmlns:dc="http://purl.org/dc/elements/1.1/"
   xmlns:cc="http://creativecommons.org/ns#"
   xmlns:rdf="http://www.w3.org/1999/02/22-rdf-syntax-ns#"
   xmlns:svg="http://www.w3.org/2000/svg"
   xmlns="http://www.w3.org/2000/svg"
   xml:space="preserve"
   style="enable-background:new 0 0 30 30;"
   viewBox="0 0 30 30"
   y="0px"
   x="0px"
   id="Layer_1"
   version="1.1"><metadata
     id="metadata135"><rdf:RDF><cc:Work
         rdf:about=""><dc:format>image/svg+xml</dc:format><dc:type
           rdf:resource="http://purl.org/dc/dcmitype/StillImage" /><dc:title></dc:title></cc:Work></rdf:RDF></metadata><defs
     id="defs133" /><style
     id="style3"
     type="text/css">
	.st0{fill:#FF6400;}
</style><path
     style="fill:#ff6400"
     id="path9"
     d="M 15,0 C 6.713881,0 0,6.713881 0,15 0,23.286119 6.713881,30 15,30 23.286119,30 30,23.286119 30,15 30,6.713881 23.286119,0 15,0 Z m 0,28.852691 C 7.393768,28.852691 1.189802,22.691218 1.189802,15.042493 1.189802,7.393768 7.351275,1.232295 15,1.232295 c 7.648725,0 13.810198,6.161473 13.810198,13.810198 0,7.648725 -6.161473,13.810198 -13.810198,13.810198 z"
     class="st0" /><path
     class="st0"
     d="m 14.93626,7.330028 c 2.932012,0 5.439094,1.7847026 6.54391,4.334278 l -2.167139,0.552408 3.314448,1.997167 1.997167,-3.314448 L 22.5,11.409348 c -1.189802,-2.9745041 -4.121813,-5.09915 -7.521247,-5.09915 -4.036827,0 -7.4362603,2.9745043 -8.0311611,6.883853 l 1.01983,0 C 8.5623227,9.8371102 11.451841,7.330028 14.93626,7.330028 Z"
     id="path47"
     style="fill:#ff6400" /><path
     class="st0"
     d="m 14.93626,22.627479 c -2.974504,0 -5.481586,-1.827196 -6.5439089,-4.376771 L 10.644476,17.613314 7.2450423,15.743626 5.3753539,19.143059 7.372521,18.548158 c 1.1898017,3.016998 4.121813,5.141643 7.521247,5.141643 4.036827,0 7.43626,-2.974504 8.031161,-6.883852 l -1.01983,0 c -0.552408,3.271954 -3.484419,5.82153 -6.968839,5.82153 z"
     id="path49"
     style="fill:#ff6400" /><g
     transform="matrix(0.42492918,0,0,0.42492918,72.684136,11.494334)"
     id="g51"><path
       class="st0"
       d="m -134.3,7.6 c 1.2,0.8 2.5,1 3.8,1 1.3,0 2.7,-0.2 3.8,-1 1.3,-0.9 1.3,-2.1 0,-3 -1.9,-1.3 -5.8,-1.3 -7.6,0 -1.3,0.9 -1.3,2.1 0,3 z"
       id="path53"
       style="fill:#ff6400" /><path
       class="st0"
       d="m -144.9,3.5 c 1.2,0.8 2.5,1 3.8,1 1.3,0 2.7,-0.2 3.8,-1 1.3,-0.9 1.3,-2.1 0,-3 -1.9,-1.3 -5.8,-1.3 -7.6,0 -1.2,0.9 -1.3,2.1 0,3 z"
       id="path55"
       style="fill:#ff6400" /><path
       class="st0"
       d="m -145.7,4.4 c -0.5,2.2 0.1,3.2 2.1,3.9 1.6,0.5 3.2,0.6 4.9,0.1 2.2,-0.6 2.7,-1.5 2.4,-3.9 -2.4,2.4 -7.2,2.4 -9.4,-0.1 z"
       id="path57"
       style="fill:#ff6400" /><path
       class="st0"
       d="m -145.7,8.7 c -0.4,2.4 0.2,3.4 2.5,4 1.5,0.4 3,0.4 4.5,0 2.2,-0.6 2.7,-1.5 2.4,-3.9 -2.4,2.5 -7.9,2.1 -9.4,-0.1 z"
       id="path59"
       style="fill:#ff6400" /><path
       class="st0"
       d="m -133.4,12.4 c 1.9,0.7 3.7,0.7 5.6,0.1 1.9,-0.6 2.2,-1.4 2,-3.9 -1.8,2.5 -7.5,2.5 -9.4,0.2 -0.4,1.9 0.1,3 1.8,3.6 z"
       id="path61"
       style="fill:#ff6400" /><path
       class="st0"
       d="m -145.8,13 c -0.3,2.6 0.4,3.6 2.8,4 1.3,0.2 2.7,0.2 4,0 2.3,-0.4 2.8,-1.3 2.6,-4 -1.8,2.3 -7.3,2.5 -9.4,0 z"
       id="path63"
       style="fill:#ff6400" /><path
       class="st0"
       d="m -135.1,13.1 c -0.5,2 0,3 1.7,3.6 1.7,0.7 3.4,0.7 5.1,0.2 2.2,-0.6 2.7,-1.4 2.5,-4 -1.8,2.5 -7.5,2.5 -9.3,0.2 z"
       id="path65"
       style="fill:#ff6400" /></g></svg>