<?xml version="1.0" encoding="utf-8"?>
<!-- Generator: Adobe Illustrator 22.0.1, SVG Export Plug-In . SVG Version: 6.00 Build 0)  -->
<svg version="1.1" id="Layer_1" xmlns="http://www.w3.org/2000/svg" xmlns:xlink="http://www.w3.org/1999/xlink" x="0px" y="0px"
	 viewBox="0 0 48 48" enable-background="new 0 0 48 48" xml:space="preserve">
<path d="M39,16.9c0-4.3-2.9-7.7-7.1-8.7c-0.6-0.1-1.2-0.2-1.9-0.3c0-0.6,0-1.1,0-1.7c0-2.1-0.1-4.2-0.1-6.3H18.1c0,2.6,0,5.3,0,7.9
	C17.7,8,17.6,8,17.5,8.1c-5.4,0.5-8.8,4.5-8.4,10c0,4.7,0,9.4,0,14.1c-0.1,1.7,0.2,3.2,0.8,4.5c0.1,0.1,0.1,0.2,0.2,0.4
	c0.1,0.2,0.2,0.3,0.3,0.5c0.1,0.2,0.2,0.3,0.3,0.4c0.1,0.2,0.2,0.3,0.3,0.5c0.1,0.1,0.2,0.2,0.2,0.3c0.4,0.4,0.8,0.9,1.2,1.3
	c0.3,0.3,0.6,0.8,0.6,1.1c0.1,2.3,0,4.5,0,6.8h22c0-2.2,0-4.4,0-6.6c0-0.6,0.2-1,0.7-1.4c2.1-1.7,3.3-4.2,3.3-6.9
	C39,27.6,39,22.3,39,16.9z M20,2h7.9V8H25V5.1h-2V8h-3V2z M17.3,10c4.4-0.1,8.9-0.1,13.3,0c3,0,5.9,2.8,6.2,5.9H11.2
	c0-1.1,0.5-2.2,1.2-3.2C13.6,11.2,15.4,10.1,17.3,10z M32.9,46H15v-4.4l3,0.5v1.8h1.9l0.1-1.8h3v1.8h1.9l0.1-1.8h2.9l0.1,1.8h1.9
	l0.1-1.8l2.9-0.5V46z M31.2,39.9c-2.8,0.2-5.6,0.2-8.4,0.2c-2,0-4.1,0-6.1-0.2c-1.7-0.2-3.3-1.2-4.3-2.6v0c-0.3-0.5-0.6-1-0.8-1.5
	c0,0,0,0,0,0c-0.2-0.5-0.4-1.1-0.4-1.6h1.3v0h24.4C36.7,36.7,34.1,39.6,31.2,39.9z M36.9,32H11.1V18h1.4v0h24.5V32z"/>
</svg>
