<?xml version="1.0" encoding="UTF-8" standalone="no"?>
<svg
   xmlns:dc="http://purl.org/dc/elements/1.1/"
   xmlns:cc="http://creativecommons.org/ns#"
   xmlns:rdf="http://www.w3.org/1999/02/22-rdf-syntax-ns#"
   xmlns:svg="http://www.w3.org/2000/svg"
   xmlns="http://www.w3.org/2000/svg"
   xml:space="preserve"
   style="enable-background:new 0 0 30 30;"
   viewBox="0 0 30 30"
   y="0px"
   x="0px"
   id="Layer_1"
   version="1.1"><metadata
     id="metadata135"><rdf:RDF><cc:Work
         rdf:about=""><dc:format>image/svg+xml</dc:format><dc:type
           rdf:resource="http://purl.org/dc/dcmitype/StillImage" /><dc:title></dc:title></cc:Work></rdf:RDF></metadata><defs
     id="defs133" /><style
     id="style3"
     type="text/css">
	.st0{fill:#FF6400;}
</style><path
     id="path79"
     d="M 15 0 C 6.713881 0 0 6.713881 0 15 C 0 23.286119 6.713881 30 15 30 C 23.286119 30 30 23.286119 30 15 C 30 6.713881 23.286119 0 15 0 z M 15 1.1894531 C 22.648725 1.1894531 28.810547 7.351275 28.810547 15 C 28.810547 22.648725 22.648725 28.810547 15 28.810547 C 7.393768 28.810547 1.1894531 22.648725 1.1894531 15 C 1.1894531 7.351275 7.351275 1.1894531 15 1.1894531 z M 8.7109375 8.0957031 C 7.903572 8.0957031 7.2246094 8.8176345 7.2246094 9.625 L 7.2246094 18.888672 C 7.2246094 19.611052 7.7771445 20.290014 8.4570312 20.375 C 9.1369178 20.45999 9.8591753 20.417969 10.539062 20.417969 C 10.709034 20.417969 10.792969 20.248573 10.792969 20.121094 C 10.792969 19.951122 10.665589 19.822266 10.453125 19.822266 L 8.7539062 19.822266 C 8.1165125 19.822266 7.7753906 19.483097 7.7753906 18.845703 L 7.7753906 12.216797 L 7.7753906 12.003906 L 22.181641 12.003906 L 22.181641 12.130859 L 22.181641 18.929688 C 22.181641 19.439602 21.798978 19.822266 21.289062 19.822266 L 19.84375 19.822266 C 19.631285 19.822266 19.503906 19.951122 19.503906 20.121094 C 19.503906 20.291065 19.631762 20.417969 19.886719 20.417969 L 21.289062 20.417969 C 22.011442 20.417969 22.647912 19.865433 22.775391 19.185547 L 22.775391 17.953125 L 22.775391 9.625 C 22.775391 8.8176345 22.096428 8.0957031 21.289062 8.0957031 L 8.7109375 8.0957031 z M 8.6269531 8.6894531 L 12.621094 8.6894531 L 21.162109 8.6894531 L 21.458984 8.6894531 C 21.841421 8.7744391 22.138672 9.0296731 22.138672 9.4121094 C 22.181162 10.091996 22.181641 10.730269 22.181641 11.410156 L 7.7753906 11.410156 L 7.7753906 9.4550781 C 7.7753906 8.987656 8.159531 8.6894531 8.6269531 8.6894531 z M 8.9667969 9.3691406 C 8.6693464 9.3691406 8.3710937 9.6673934 8.3710938 9.9648438 C 8.3710938 10.262294 8.6693464 10.558594 8.9667969 10.558594 C 9.2642473 10.558594 9.5605469 10.262294 9.5605469 9.9648438 C 9.5605469 9.6673933 9.2642473 9.3691406 8.9667969 9.3691406 z M 10.75 9.3691406 C 10.45255 9.3691406 10.15625 9.6673934 10.15625 9.9648438 C 10.15625 10.262294 10.45255 10.558594 10.75 10.558594 C 11.047451 10.558594 11.345703 10.262294 11.345703 9.9648438 C 11.345703 9.6673933 11.047451 9.3691406 10.75 9.3691406 z M 12.578125 9.3691406 C 12.280674 9.3691406 11.982422 9.6673934 11.982422 9.9648438 C 11.982422 10.262294 12.280674 10.558594 12.578125 10.558594 C 12.875575 10.558594 13.171875 10.262294 13.171875 9.9648438 C 13.171875 9.6673933 12.833082 9.3691406 12.578125 9.3691406 z M 16.976562 13.15625 C 16.912823 13.172186 16.848896 13.215557 16.785156 13.279297 C 16.317734 13.746719 15.850234 14.257187 15.382812 14.724609 L 15.042969 15.064453 C 14.660533 14.724509 14.319936 14.382912 13.9375 14.042969 C 13.810021 13.91549 13.641151 13.874471 13.513672 14.001953 C 13.386193 14.129431 13.386193 14.298302 13.513672 14.425781 C 13.938601 14.85071 14.319212 15.276243 14.744141 15.701172 C 14.87162 15.871144 15.042919 15.871144 15.212891 15.701172 C 15.892777 15.021286 16.529097 14.341996 17.208984 13.662109 C 17.251474 13.619619 17.294922 13.53468 17.294922 13.492188 C 17.337412 13.364709 17.295447 13.235852 17.167969 13.193359 C 17.104229 13.150864 17.040302 13.140314 16.976562 13.15625 z M 12.662109 16.507812 C 11.93973 16.507812 11.388672 17.060824 11.388672 17.783203 L 11.388672 20.630859 C 11.388672 21.395731 11.897237 21.904297 12.662109 21.904297 L 15.126953 21.904297 L 17.634766 21.904297 C 18.357145 21.904297 18.867188 21.351761 18.867188 20.671875 L 18.867188 17.826172 C 18.867188 17.0613 18.314177 16.507813 17.591797 16.507812 L 12.662109 16.507812 z M 12.535156 17.103516 L 15.042969 17.103516 L 17.677734 17.103516 C 18.06017 17.103516 18.271484 17.316783 18.271484 17.699219 L 11.982422 17.699219 C 11.939932 17.359276 12.152719 17.103516 12.535156 17.103516 z M 11.982422 18.335938 L 18.271484 18.335938 L 18.271484 18.632812 L 11.982422 18.632812 L 11.982422 18.335938 z M 11.941406 19.185547 L 18.228516 19.185547 C 18.271006 19.780447 18.271484 20.291342 18.271484 20.84375 C 18.271484 21.141201 18.017677 21.310547 17.677734 21.310547 L 14.193359 21.310547 L 12.578125 21.310547 C 12.153195 21.310547 11.941406 21.096804 11.941406 20.671875 L 11.941406 19.185547 z "
     style="fill:#ff6400" /></svg>