<?xml version="1.0" encoding="UTF-8" standalone="no"?>
<svg
   xmlns:dc="http://purl.org/dc/elements/1.1/"
   xmlns:cc="http://creativecommons.org/ns#"
   xmlns:rdf="http://www.w3.org/1999/02/22-rdf-syntax-ns#"
   xmlns:svg="http://www.w3.org/2000/svg"
   xmlns="http://www.w3.org/2000/svg"
   version="1.1"
   id="Layer_1"
   x="0px"
   y="0px"
   viewBox="0 0 30 30"
   style="enable-background:new 0 0 30 30;"
   xml:space="preserve"><metadata
     id="metadata25"><rdf:RDF><cc:Work
         rdf:about=""><dc:format>image/svg+xml</dc:format><dc:type
           rdf:resource="http://purl.org/dc/dcmitype/StillImage" /><dc:title></dc:title></cc:Work></rdf:RDF></metadata><defs
     id="defs23" /><g
     style="fill:#333333"
     id="g3"><path
       style="fill:#333333"
       d="M23.1,22.6c0.9,0.6,2,0.7,3,0.7c1.1,0,2.1-0.1,3-0.7c1-0.7,1-1.6,0-2.3c-1.5-1-4.6-1-6.1,0C22.1,21,22,22,23.1,22.6z"
       id="path5" /><path
       style="fill:#333333"
       d="M23.8,26.3c1.5,0.5,3,0.5,4.4,0c1.5-0.5,1.7-1,1.6-2.9c-1.4,1.9-5.9,1.9-7.4,0.1C22,25,22.4,25.8,23.8,26.3z"
       id="path7" /><path
       style="fill:#333333"
       d="M13.9,19.5c0.9,0.6,2,0.7,3,0.7c1.1,0,2.1-0.1,3-0.7c1-0.7,1-1.6,0-2.3c-1.5-1-4.6-1-6.1,0C12.9,17.9,12.9,18.9,13.9,19.5z   "
       id="path9" /><path
       style="fill:#333333"
       d="M13.3,20.2c-0.4,1.6,0.1,2.4,1.6,2.9c1.3,0.4,2.6,0.4,3.9,0.1c1.8-0.5,2.2-1.1,1.9-3C18.8,22.1,15,22.1,13.3,20.2z"
       id="path11" /><path
       style="fill:#333333"
       d="M13.2,23.5c-0.3,1.8,0.2,2.6,1.9,3c1.2,0.3,2.4,0.3,3.6,0c1.7-0.5,2.1-1.1,1.9-2.9C18.8,25.5,14.4,25.2,13.2,23.5z"
       id="path13" /><path
       style="fill:#333333"
       d="M13.2,26.8c-0.2,2,0.3,2.7,2.2,3c1,0.2,2.2,0.2,3.2,0c1.8-0.3,2.2-1,2.1-3C19.2,28.5,14.8,28.7,13.2,26.8z"
       id="path15" /><path
       style="fill:#333333"
       d="M22.4,26.8c-0.4,1.5,0,2.2,1.4,2.8c1.3,0.5,2.7,0.5,4,0.2c1.8-0.4,2.1-1,2-3.1C28.3,28.6,23.9,28.6,22.4,26.8z"
       id="path17" /><polygon
       style="fill:#333333"
       points="10.8,0 10.8,0 10.8,0 10.8,0 10.8,0 0.1,11.1 0.1,11.1 0.1,11.1 0.2,12.7 4.3,12.7 4.4,28.6 4.4,28.6 4.4,28.8    10.8,28.8 11.1,28.8 11.1,27.3 10.8,27.3 10.8,27.3 10.8,27.3 5.8,27.3 5.8,12.6 5.8,12.6 5.7,10.9 2.6,10.9 10.8,2.3 19,10.9    15.9,10.9 15.9,12.6 15.9,12.6 15.9,14.7 17.3,14.7 17.4,12.7 21.5,12.7 21.5,11.1 21.5,11.1 21.5,11.1  "
       id="polygon19" /></g></svg>