<?xml version="1.0" encoding="utf-8"?>
<!-- Generator: Adobe Illustrator 21.1.0, SVG Export Plug-In . SVG Version: 6.00 Build 0)  -->
<svg version="1.1" id="Layer_1" xmlns="http://www.w3.org/2000/svg" xmlns:xlink="http://www.w3.org/1999/xlink" x="0px" y="0px"
	 viewBox="0 0 464 110" style="enable-background:new 0 0 464 110;" xml:space="preserve">
<style type="text/css">
	.st0{fill:#FF6400;}
	.st1{font-family:'MyriadPro-Regular';}
	.st2{font-size:10.3105px;}
</style>
<g>
	<path class="st0" d="M60.6,34.9l-9.3-10.8v0h0l0,0v0H27.6v40h33L60.6,34.9L60.6,34.9z M29.6,62.2V26h21.6v9l7.4-0.1v27.3H29.6z"/>
	<rect x="32.7" y="31.7" class="st0" width="13.2" height="1.6"/>
	<rect x="32.7" y="37.7" class="st0" width="17.4" height="1.6"/>
	<rect x="32.7" y="43.7" class="st0" width="22.4" height="1.6"/>
	<rect x="32.7" y="49.6" class="st0" width="22.4" height="1.6"/>
	<rect x="32.7" y="55.6" class="st0" width="22.4" height="1.6"/>
</g>
<path class="st0" d="M44.1,8.8C24.6,8.8,8.8,24.6,8.8,44.1s15.8,35.3,35.3,35.3s35.3-15.8,35.3-35.3S63.6,8.8,44.1,8.8z M44.1,76.6
	c-17.9,0-32.5-14.5-32.5-32.5s14.5-32.5,32.5-32.5s32.5,14.5,32.5,32.5S62,76.6,44.1,76.6z"/>
<path class="st0" d="M127.7,8.8c-19.5,0-35.3,15.8-35.3,35.3s15.8,35.3,35.3,35.3S163,63.6,163,44.1S147.2,8.8,127.7,8.8z
	 M127.7,76.6c-17.9,0-32.5-14.5-32.5-32.5s14.5-32.5,32.5-32.5s32.5,14.5,32.5,32.5S145.6,76.6,127.7,76.6z"/>
<path class="st0" d="M214,8.8c-19.5,0-35.3,15.8-35.3,35.3s15.8,35.3,35.3,35.3s35.3-15.8,35.3-35.3S233.5,8.8,214,8.8z M214,76.6
	c-17.9,0-32.5-14.5-32.5-32.5S196,11.6,214,11.6s32.5,14.5,32.5,32.5S231.9,76.6,214,76.6z"/>
<path class="st0" d="M311.5,7.8c-19.5,0-35.3,15.8-35.3,35.3s15.8,35.3,35.3,35.3s35.3-15.8,35.3-35.3S331,7.8,311.5,7.8z
	 M311.5,75.6c-17.9,0-32.5-14.5-32.5-32.5s14.5-32.5,32.5-32.5S344,25.2,344,43.2S329.4,75.6,311.5,75.6z"/>
<path class="st0" d="M407.7,9c-19.5,0-35.3,15.8-35.3,35.3s15.8,35.3,35.3,35.3S443,63.9,443,44.4S427.2,9,407.7,9z M407.7,76.8
	c-17.9,0-32.5-14.5-32.5-32.5s14.5-32.5,32.5-32.5c17.9,0,32.5,14.5,32.5,32.5S425.6,76.8,407.7,76.8z"/>
<text transform="matrix(1 0 0 1 24.2061 92.0479)" class="st1 st2">document</text>
<text transform="matrix(1 0 0 1 97.541 92.0479)" class="st1 st2">account details</text>
<text transform="matrix(1 0 0 1 182.543 92.0479)" class="st1 st2">nominee details</text>
<text transform="matrix(1 0 0 1 285.2109 92.0479)" class="st1 st2">cash deposit</text>
<text transform="matrix(1 0 0 1 372.8359 92.0479)" class="st1 st2">cash withdrawal</text>
<g>
	<path class="st0" d="M137.9,29.2l10.8,9.3h0v0l0,0h0v18.3h-40V29.2L137.9,29.2L137.9,29.2z M110.6,54.9h36.2V38.6h-9l0.1-7.4h-27.3
		V54.9z"/>
	<rect x="127.4" y="43.1" class="st0" width="14.8" height="1.6"/>
	<rect x="127.4" y="48.6" class="st0" width="14.8" height="1.6"/>
	<rect x="127.4" y="37.6" class="st0" width="7.4" height="1.6"/>
	<g>
		<path class="st0" d="M125.2,46.5c0-1.7-0.7-2.5-2.4-2.4c-1.1,0-2.2,0-3.3,0c0,0,0,0,0,0c-1.3,0-2.7,0-4.1,0c-1.3,0-2,0.8-1.9,2
			c0.2,1.8-1.1,4,1.3,5.3c0.3,0.2,0.7,0.1,1.1,0.1c1.5,0,3.1,0,4.6,0C125.3,51.4,125.3,51.4,125.2,46.5z"/>
		<path class="st0" d="M119,42.6c2.1,0.1,3.8-1.4,3.9-3.5c0.1-2.1-1.6-3.8-3.6-3.8c-2,0-3.6,1.5-3.7,3.5
			C115.6,40.8,117.1,42.5,119,42.6z"/>
	</g>
</g>
<g>
	<path class="st0" d="M218.1,26.2h-3.9c0.1-0.3,0.1-0.5,0.1-0.8c0-1.7-1.3-3-3-3s-3,1.3-3,3c0,0.3,0,0.5,0.1,0.8h-3.9v4.1h13.6V26.2
		z M211.3,26.8c-0.8,0-1.4-0.6-1.4-1.4s0.6-1.4,1.4-1.4s1.4,0.6,1.4,1.4S212.1,26.8,211.3,26.8z"/>
	<circle class="st0" cx="205.5" cy="37.5" r="1.8"/>
	<rect x="209.6" y="36.6" class="st0" width="8.6" height="1.7"/>
	<circle class="st0" cx="205.5" cy="44" r="1.8"/>
	<rect x="209.6" y="43.1" class="st0" width="8.6" height="1.7"/>
	<circle class="st0" cx="205.5" cy="49.6" r="1.8"/>
	<rect x="209.6" y="48.7" class="st0" width="8.6" height="1.7"/>
	<path class="st0" d="M223.4,40.8c0.5-0.2,1.1-0.3,1.7-0.3V27.7h-5.9v1.5h4.2V40.8z"/>
	<path class="st0" d="M199.1,29.2h4.2v-1.5h-5.9v33.2h17.3c0.1-0.5,0.2-1,0.4-1.5h-16V29.2z"/>
	<path class="st0" d="M228.7,52.5c1.4-1,2.3-2.6,2.3-4.4c0-3-2.4-5.4-5.4-5.4c-3,0-5.4,2.4-5.4,5.4c0,1.8,0.9,3.5,2.3,4.4
		c-3.3,1.2-5.6,4.3-5.7,7.9h17.5C234.3,56.8,232,53.7,228.7,52.5z"/>
</g>
<path class="st0" d="M328.9,23.6c-0.1,0-0.3,0.1-0.4,0.1c-1.7,0.6-3.3,1.2-5,1.6c-0.8,0.2-1.7,0.3-2.5,0.3c-1.2,0-2.3-0.2-3.5-0.3
	c-2-0.1-4.1-0.3-6.1-0.4c-0.8,0-1.6,0.1-2.3,0.6c-0.5,0.3-1.1,0.7-1.7,1c-4,2.8-7.9,5.6-11.9,8.4c-0.5,0.3-0.9,0.8-1.3,1.3
	c-0.4,0.5-0.2,1,0.4,1.2c0.1,0,0.2,0.1,0.4,0.1c0.9,0.2,1.8,0.1,2.6-0.3c2.5-1.2,4.9-2.5,7.4-3.8c0.1-0.1,0.3-0.1,0.5-0.2
	c-0.1,2,1.1,3.3,2.2,4.6c-1.8,0.9-2.8,2.3-3,4.3c-0.2,2,0.6,3.5,2.2,4.8c-0.2,0-0.4,0-0.5,0c-2.7,0-5.4,0-8.2,0
	c-0.9,0-1.2,0.3-1.2,1.2c0,4.4,0,8.8,0,13.2c0,1,0.3,1.2,1.3,1.2c7.7,0,15.5,0,23.2,0c0.9,0,1.2-0.3,1.2-1.2c0-4.4,0-8.9,0-13.3
	c0-0.9-0.3-1.2-1.2-1.2c-2.7,0-5.5,0-8.2,0c-0.1,0-0.3,0-0.5,0c2.7-2,2.9-5.5,1-7.8c0,0,0-0.1,0.1-0.1c1.8-1,3.5-2,5.3-2.8
	c2-1,4.1-1.8,5.9-3.2c1.2-0.9,2.4-1.9,3.6-2.8c0.1-0.1,0.1-0.3,0.1-0.4c0-2,0-4,0-6.1C328.9,23.8,328.9,23.7,328.9,23.6z
	 M313.8,49.2c0.6,0,1,0.4,1,0.9c0,0.4-0.3,0.8-0.7,0.9c-0.1,0-0.2,0-0.2,0c-2.7,0-5.3,0-8,0c-0.4,0-0.7-0.1-0.9-0.5
	c-0.3-0.6,0.1-1.2,0.9-1.3c0.7,0,1.3,0,2,0c0.7,0,1.4,0,2.1,0C311.2,49.2,312.5,49.2,313.8,49.2z M312.5,45.5
	c-1.7,1.5-4.1,1.3-5.5-0.3c-1.1-1.3-1.2-3-0.3-4.5c0.8-1.3,2.5-2.1,4.1-1.7c0.2,0.7,0.5,0.9,1.3,0.9c0.3,0,0.5,0.1,0.7,0.3
	C314.1,41.7,314,44.2,312.5,45.5z M315.5,33.2c-0.2,0.8-0.8,1.4-1.4,1.9c-0.9,0.7-1.9,1.4-2.7,2.4c-0.2,0.2-0.8,0.1-0.9-0.2
	c-0.4-0.9-0.8-1.8-1.1-2.7c-0.5-1.4,0.1-2.5,1.7-3c0.7-0.2,1.4-0.3,2.1-0.4c0.5,0.1,1,0.1,1.5,0.3C315.4,31.8,315.7,32.4,315.5,33.2
	z"/>
<g>
	<path class="st0" d="M426.1,25.2c-0.1-1.1-1-2-2.1-2c-2.8,0-5.6,0-8.4,0c-8,0-16,0-24,0c-1.3,0-2.3,0.9-2.3,2.1
		c0,1.2,0.9,2.2,2.2,2.2c0.1,0,0.3,0,0.5,0.1c0,0.3,0,0.5,0,0.7c0,2.8,0,5.5,0,8.3c0,0.9,0.2,1.1,1.1,1.1c2.7,0,5.3,0,8,0
		c0.2,0,0.4,0,0.6,0c0,0.1,0,0.2,0,0.2c0,0.2-0.1,0.5-0.1,0.7c-0.3,2.3-0.8,4.5-0.7,6.8c0,0.8,0.1,0.9,0.9,1.3
		c0.1,0,0.2,0.1,0.2,0.1c-1.1,2.4-1.2,2.9-1.2,5.6c0,1.5,0.5,2.8,1.6,3.8c1.6,1.4,2.8,3.1,3.7,5c0.1,0.2,0.2,0.4,0.3,0.5
		c0.6,1.2,1.3,2.3,1.9,3.5c0.5-0.3,0.9-0.5,1.3-0.7c-0.6-1.2-1.3-2.3-1.9-3.5c-1.1-2.3-2.5-4.4-4.4-6c-0.6-0.5-0.9-1.3-1-2.1
		c-0.2-2.5,0.2-4.8,2-6.8c1.4-1.6,2-3.5,1.9-5.7c0-1.5,0-3.1,0-4.6c0-0.7,0.3-1.2,0.9-1.5c1-0.4,1.9,0.3,1.9,1.5c0,1.8,0,3.6,0,5.4
		c-0.1,2.4,1,4.5,1.8,6.7c0.5-0.2,0.8-0.3,1.2-0.5c0,0,0.1-0.1,0.2-0.2c-1.6-3-2-6.3-1.6-9.7c1.8,0,3.6,0,5.4,0
		c0.1,0,0.3,0.2,0.4,0.3c0.3,0.6,0.6,1.2,0.9,1.9c0.3,0.6,0.4,1.3,0.3,2c-0.5,3.5-1,7-1.5,10.4c-0.1,1.1-0.5,2.2-0.2,3.2
		c0.5,1.7,1.4,3.2,2.2,4.9c0.5-0.3,1-0.5,1.4-0.7c-0.7-1.3-1.3-2.5-1.9-3.7c-0.2-0.4-0.3-0.9-0.3-1.3c0.5-4,1.1-8,1.7-12
		c0.2-1.4,0.1-2.7-0.6-3.9c-0.2-0.3-0.3-0.6-0.5-1c1.4,0,2.7,0,4.1,0c0.9,0,1.1-0.2,1.1-1.2c0-2.8,0-5.6,0-8.4c0-0.2,0-0.4,0-0.6
		c0.4,0,0.7,0,1-0.1C425.5,27.3,426.2,26.3,426.1,25.2z M391.9,26.3c-0.4-0.2-0.7-0.3-1-0.5c-0.1-0.1-0.1-0.5,0-0.6
		c0.2-0.2,0.6-0.3,1-0.5C391.9,25.3,391.9,25.7,391.9,26.3z M403.5,45c-0.3,0.4-0.4,0.5-1.1,0.4c-0.2-2.5,0.5-5,0.8-7.5
		c0.6,0,1.1,0,1.6,0C404.8,40.4,405.2,42.9,403.5,45z M407.6,33c-1.6,0-2.9-1.3-2.9-3c0-1.6,1.3-2.8,2.9-2.8c1.6,0,2.9,1.3,2.9,2.9
		C410.5,31.7,409.2,33,407.6,33z M421.8,36.3c-3.7,0-7.3,0-10.9,0c-0.3-0.8-0.6-1.6-0.9-2.4c1.2-0.9,2-2.1,1.9-3.8
		c0-1.3-0.5-2.3-1.5-3.2c-1.9-1.7-4.8-1.4-6.4,0.5c-1.4,1.7-1.6,4.9,1.3,6.7c-0.2,0.7-0.5,1.5-0.7,2.2c-3.6,0-7.4,0-11.1,0
		c0-3.8,0-7.6,0-11.5c9.4,0,18.8,0,28.3,0C421.8,28.6,421.8,32.4,421.8,36.3z M424.4,25.8c-0.2,0.2-0.6,0.3-1,0.5c0-0.6,0-1,0-1.6
		c0.4,0.2,0.8,0.2,1,0.4C424.6,25.2,424.6,25.6,424.4,25.8z"/>
	<path class="st0" d="M418.6,32.7c0,0.1-0.3,0.3-0.4,0.3c-0.6,0-1.3,0-1.9,0c-0.8,0-1.7,0-2.5,0c0,0.5,0,1,0,1.5c1.8,0,3.5,0,5.3,0
		c0.8,0,1-0.2,1-1c0-2.3,0-4.5,0-6.8c0-0.8-0.2-1-1-1c-1.6,0-3.2,0-4.9,0c-0.1,0-0.3,0-0.4,0c0,0.5,0,1,0,1.5c1.6,0,3.2,0,4.8,0
		C418.6,29.1,418.6,30.9,418.6,32.7z"/>
	<path class="st0" d="M396.2,34.5c1.1,0,2.2,0,3.2,0c0.7,0,1.4,0,2.2,0c0-0.5,0-1,0-1.5c-1.5,0-2.9,0-4.3,0c-0.4,0-0.5-0.1-0.5-0.5
		c0-1.6,0-3.2,0-4.8c0-0.1,0-0.3,0.1-0.5c1.6,0,3.2,0,4.7,0c0-0.5,0-1,0-1.5c-1.9,0-3.7,0-5.5,0c-0.5,0-0.8,0.3-0.8,0.9
		c0,2.3,0,4.6,0,7C395.3,34.3,395.5,34.5,396.2,34.5z"/>
</g>
</svg>
