<?xml version="1.0" encoding="UTF-8" standalone="no"?>
<svg
   xmlns:dc="http://purl.org/dc/elements/1.1/"
   xmlns:cc="http://creativecommons.org/ns#"
   xmlns:rdf="http://www.w3.org/1999/02/22-rdf-syntax-ns#"
   xmlns:svg="http://www.w3.org/2000/svg"
   xmlns="http://www.w3.org/2000/svg"
   height="30"
   width="30"
   xml:space="preserve"
   viewBox="0 0 30 30"
   y="0px"
   x="0px"
   id="Layer_1"
   version="1.1"><metadata
     id="metadata91"><rdf:RDF><cc:Work
         rdf:about=""><dc:format>image/svg+xml</dc:format><dc:type
           rdf:resource="http://purl.org/dc/dcmitype/StillImage" /><dc:title></dc:title></cc:Work></rdf:RDF></metadata><defs
     id="defs89" /><style
     id="style3"
     type="text/css">
	.st0{fill:#FF6400;}
	.st1{font-family:'MyriadPro-Regular';}
	.st2{font-size:10.3105px;}
</style><path
     id="path27"
     d="M 15.000414,0 C 6.7142482,0 2e-7,6.71342 2e-7,14.999585 2e-7,23.28575 6.7142482,30 15.000414,30 23.286579,30 30,23.328907 30,15.042742 30,6.756577 23.286579,0 15.000414,0 Z m 0,1.18931 c 7.606274,0 13.810275,6.161508 13.810275,13.810275 0,7.648767 -6.204001,13.810274 -13.810275,13.810274 -7.6062748,0 -13.8102738,-6.161507 -13.8102738,-13.810274 0,-7.648767 6.161506,-13.810275 13.8102738,-13.810275 z M 8.1583532,6.033696 c -0.552411,0 -0.976844,0.382272 -0.976844,0.89219 0,0.509918 0.382106,0.935347 0.934517,0.935347 0.04249,0 0.12748,-1.66e-4 0.212466,0.04233 l 0,0.29712 0,3.527264 c 0,0.382438 0.08482,0.467259 0.467259,0.467259 l 3.3994518,0 0.255623,0 0,0.08548 c 0,0.08499 -0.04316,0.212134 -0.04316,0.297121 -0.12748,0.977342 -0.339613,1.912524 -0.29712,2.889866 0,0.339945 0.04266,0.38194 0.382604,0.551913 0.04249,0 0.08465,0.04233 0.08465,0.04233 -0.467424,1.019835 -0.509586,1.232965 -0.509586,2.38028 0,0.637397 0.2123,1.18931 0.679725,1.614242 0.67989,0.594904 1.189477,1.317288 1.571915,2.124658 0.04249,0.08499 0.08532,0.169972 0.127811,0.212465 0.254958,0.509918 0.552576,0.977343 0.807535,1.487261 0.212466,-0.12748 0.381941,-0.212134 0.551914,-0.29712 -0.254959,-0.509918 -0.551748,-0.977343 -0.806707,-1.487261 -0.467425,-0.977342 -1.062495,-1.869699 -1.869865,-2.549589 -0.254958,-0.212466 -0.382438,-0.552245 -0.424931,-0.89219 -0.08499,-1.062329 0.08499,-2.040004 0.849863,-2.889867 0.594904,-0.67989 0.850029,-1.486928 0.807536,-2.421778 l 0,-1.955348 c 0,-0.297452 0.126816,-0.509918 0.381775,-0.637397 0.424932,-0.169973 0.807536,0.127479 0.807536,0.637397 l 0,2.294796 c -0.04249,1.019836 0.425263,1.91269 0.765208,2.847539 0.212466,-0.08499 0.339614,-0.127479 0.509586,-0.212466 l 0.08548,-0.08548 c -0.67989,-1.274794 -0.850526,-2.676736 -0.680553,-4.121503 l 2.294796,0 c 0.04249,0 0.127645,0.08449 0.170138,0.126981 0.12748,0.254959 0.255125,0.510084 0.382604,0.807536 0.12748,0.254959 0.169476,0.552411 0.126983,0.849863 -0.212466,1.48726 -0.424932,2.974686 -0.637398,4.419453 -0.04249,0.467425 -0.212134,0.934518 -0.08466,1.359449 0.212466,0.722384 0.594573,1.359948 0.934518,2.082331 0.212466,-0.127479 0.425098,-0.212134 0.59507,-0.29712 -0.297452,-0.552411 -0.552576,-1.062827 -0.807535,-1.572745 -0.08499,-0.169972 -0.126983,-0.38194 -0.126983,-0.551913 0.212466,-1.699726 0.467094,-3.399452 0.722053,-5.099178 0.08499,-0.594904 0.04266,-1.147481 -0.254794,-1.657399 -0.08499,-0.127479 -0.127479,-0.254959 -0.212465,-0.424931 l 1.742053,0 c 0.382438,0 0.467259,-0.08466 0.467259,-0.509586 l 0,-3.569591 0,-0.254793 c 0.169973,0 0.297452,-6.8e-4 0.424932,-0.04316 0.594904,0 0.892356,-0.424765 0.849863,-0.89219 -0.04249,-0.467427 -0.424766,-0.849865 -0.89219,-0.849865 l -3.569591,0 -10.1983568,0 z m 0.127812,0.637397 0,0.679725 c -0.169973,-0.08499 -0.297452,-0.12748 -0.424932,-0.212466 -0.04249,-0.04249 -0.04249,-0.2123 0,-0.254793 0.08499,-0.08499 0.254959,-0.127479 0.424932,-0.212466 z m 13.3853428,0 c 0.169972,0.08499 0.339945,0.08515 0.424931,0.170139 0.08499,0.04249 0.08499,0.212133 0,0.29712 -0.08499,0.08499 -0.254959,0.127479 -0.424931,0.212466 l 0,-0.679725 z m -12.7056188,0.04233 12.0258938,0 0,4.886712 -4.63192,0 -0.382604,-1.019172 c 0.509918,-0.382438 0.850029,-0.892688 0.807536,-1.615071 0,-0.552411 -0.212466,-0.977011 -0.637397,-1.359449 -0.80737,-0.722384 -2.039837,-0.594905 -2.719728,0.212465 -0.594904,0.722384 -0.679559,2.081833 0.552743,2.84671 -0.08499,0.297452 -0.212963,0.637065 -0.29795,0.934517 l -4.7165738,0 0,-4.886712 z m 1.1046558,0.382604 c -0.2124658,0 -0.3394468,0.127645 -0.3394468,0.382604 l 0,2.974521 c 0,0.297452 0.08515,0.382605 0.3826038,0.382605 l 1.35945,0 0.934517,0 0,-0.637398 -1.826708,0 c -0.169973,0 -0.212466,-0.04249 -0.212466,-0.212466 l 0,-2.040003 c 0,-0.04249 -1.65e-4,-0.127479 0.04233,-0.212466 l 1.996846,0 0,-0.637397 -2.337123,0 z m 7.521786,0 0,0.637397 2.039174,0 0,2.337124 c 0,0.04249 -0.126817,0.127811 -0.16931,0.127811 l -0.807536,0 -1.062328,0 0,0.637398 2.25164,0 c 0.339945,0 0.424931,-0.08499 0.424931,-0.424932 l 0,-2.889866 c 0,-0.339945 -0.08499,-0.424932 -0.424931,-0.424932 l -2.081502,0 -0.170138,0 z m -2.635073,0.637397 c 0.67989,0 1.232467,0.552577 1.232467,1.232468 0,0.67989 -0.552577,1.232467 -1.232467,1.232467 -0.67989,0 -1.231639,-0.552411 -1.231639,-1.274794 0,-0.679891 0.551749,-1.190141 1.231639,-1.190141 z m -1.869036,4.547265 0.679725,0 c 0,1.062329 0.169641,2.124492 -0.552743,3.016848 -0.127479,0.169973 -0.169806,0.212632 -0.467258,0.170139 -0.08499,-1.062329 0.212797,-2.124658 0.340276,-3.186987 z"
     style="fill:#ff6400" /><text
     style="font-size:10.31050014px;font-family:MyriadPro-Regular"
     y="15.623774"
     x="70.773796"
     id="text37"
     class="st1 st2" />
</svg>