<?xml version="1.0" encoding="UTF-8" standalone="no"?>
<svg
   xmlns:dc="http://purl.org/dc/elements/1.1/"
   xmlns:cc="http://creativecommons.org/ns#"
   xmlns:rdf="http://www.w3.org/1999/02/22-rdf-syntax-ns#"
   xmlns:svg="http://www.w3.org/2000/svg"
   xmlns="http://www.w3.org/2000/svg"
   height="30"
   width="30"
   xml:space="preserve"
   viewBox="0 0 30 30"
   y="0px"
   x="0px"
   id="Layer_1"
   version="1.1"><metadata
     id="metadata91"><rdf:RDF><cc:Work
         rdf:about=""><dc:format>image/svg+xml</dc:format><dc:type
           rdf:resource="http://purl.org/dc/dcmitype/StillImage" /><dc:title></dc:title></cc:Work></rdf:RDF></metadata><defs
     id="defs89" /><style
     id="style3"
     type="text/css">
	.st0{fill:#FF6400;}
	.st1{font-family:'MyriadPro-Regular';}
	.st2{font-size:10.3105px;}
</style><g
     transform="matrix(0.42492915,0,0,0.42492915,-3.7393755,-3.7393755)"
     id="g5"><path
       style="fill:#ff6400"
       id="path7"
       d="m 60.6,34.9 -9.3,-10.8 0,0 0,0 0,0 0,0 -23.7,0 0,40 33,0 0,-29.2 0,0 z m -31,27.3 0,-36.2 21.6,0 0,9 7.4,-0.1 0,27.3 -29,0 z"
       class="st0" /><rect
       style="fill:#ff6400"
       id="rect9"
       height="1.6"
       width="13.2"
       class="st0"
       y="31.700001"
       x="32.700001" /><rect
       style="fill:#ff6400"
       id="rect11"
       height="1.6"
       width="17.4"
       class="st0"
       y="37.700001"
       x="32.700001" /><rect
       style="fill:#ff6400"
       id="rect13"
       height="1.6"
       width="22.4"
       class="st0"
       y="43.700001"
       x="32.700001" /><rect
       style="fill:#ff6400"
       id="rect15"
       height="1.6"
       width="22.4"
       class="st0"
       y="49.599998"
       x="32.700001" /><rect
       style="fill:#ff6400"
       id="rect17"
       height="1.6"
       width="22.4"
       class="st0"
       y="55.599998"
       x="32.700001" /></g><path
     style="fill:#ff6400"
     id="path19"
     d="M 15,1.5e-6 C 6.71388,1.5e-6 0,6.7138825 0,15 0,23.286118 6.71388,29.999999 15,29.999999 23.28612,29.999999 30,23.286118 30,15 30,6.7138825 23.28612,1.5e-6 15,1.5e-6 Z M 15,28.810196 C 7.39377,28.810196 1.1898,22.648724 1.1898,15 1.1898,7.3512765 7.35127,1.1898035 15,1.1898035 c 7.64873,0 13.8102,6.161473 13.8102,13.8101965 0,7.648724 -6.20397,13.810197 -13.8102,13.810197 z"
     class="st0" /></svg>