<?xml version="1.0" encoding="UTF-8" standalone="no"?>
<svg
   xmlns:dc="http://purl.org/dc/elements/1.1/"
   xmlns:cc="http://creativecommons.org/ns#"
   xmlns:rdf="http://www.w3.org/1999/02/22-rdf-syntax-ns#"
   xmlns:svg="http://www.w3.org/2000/svg"
   xmlns="http://www.w3.org/2000/svg"
   xml:space="preserve"
   style="enable-background:new 0 0 30 30;"
   viewBox="0 0 30 30"
   y="0px"
   x="0px"
   id="Layer_1"
   version="1.1"><metadata
     id="metadata23"><rdf:RDF><cc:Work
         rdf:about=""><dc:format>image/svg+xml</dc:format><dc:type
           rdf:resource="http://purl.org/dc/dcmitype/StillImage" /><dc:title></dc:title></cc:Work></rdf:RDF></metadata><defs
     id="defs21" /><style
     id="style3"
     type="text/css">
	.st0{fill:#FF6400;}
</style><g
     id="g5"><path
       id="path7"
       d="M22,11.1l-4-4.6v0h0l0,0v0H8v17h14L22,11.1L22,11.1z M8.8,22.7V7.3H18v3.8l3.1,0v11.6H8.8z"
       class="st0" /><rect
       id="rect9"
       height="0.7"
       width="8.8"
       class="st0"
       y="15.6"
       x="10.3" /><rect
       id="rect11"
       height="0.7"
       width="7.4"
       class="st0"
       y="17.6"
       x="10.3" /><rect
       id="rect13"
       height="0.7"
       width="5.8"
       class="st0"
       y="19.8"
       x="10.3" /><path
       id="path15"
       d="M10.2,13.4H15c0-1-0.6-1.8-1.5-2.2c0.4-0.3,0.6-0.7,0.6-1.2c0-0.8-0.7-1.5-1.5-1.5s-1.5,0.7-1.5,1.5   c0,0.5,0.2,0.9,0.6,1.2C10.8,11.5,10.2,12.4,10.2,13.4z"
       class="st0" /></g><path
     id="path17"
     d="M15,0C6.7,0,0,6.7,0,15s6.7,15,15,15s15-6.7,15-15S23.3,0,15,0z M15,28.8C7.4,28.8,1.2,22.6,1.2,15  S7.4,1.2,15,1.2S28.8,7.4,28.8,15S22.6,28.8,15,28.8z"
     class="st0" /></svg>