<?xml version="1.0" encoding="UTF-8" standalone="no"?>
<svg
   xmlns:dc="http://purl.org/dc/elements/1.1/"
   xmlns:cc="http://creativecommons.org/ns#"
   xmlns:rdf="http://www.w3.org/1999/02/22-rdf-syntax-ns#"
   xmlns:svg="http://www.w3.org/2000/svg"
   xmlns="http://www.w3.org/2000/svg"
   xml:space="preserve"
   style="enable-background:new 0 0 30 30;"
   viewBox="0 0 30 30"
   y="0px"
   x="0px"
   id="Layer_1"
   version="1.1"><metadata
     id="metadata23"><rdf:RDF><cc:Work
         rdf:about=""><dc:format>image/svg+xml</dc:format><dc:type
           rdf:resource="http://purl.org/dc/dcmitype/StillImage" /><dc:title></dc:title></cc:Work></rdf:RDF></metadata><defs
     id="defs21" /><style
     id="style3"
     type="text/css">
	.st0{fill:#FF6400;}
</style><g
     id="g5"><rect
       id="rect7"
       height="0.7"
       width="8.4"
       class="st0"
       y="14"
       x="9.4" /><rect
       id="rect9"
       height="0.7"
       width="7"
       class="st0"
       y="11.9"
       x="9.4" /><rect
       id="rect11"
       height="0.7"
       width="5.5"
       class="st0"
       y="9.7"
       x="9.4" /><path
       id="path13"
       d="M8.4,22.4V7h9.2v3.8l3.1,0v5.6c0.3,0.1,0.6,0.3,0.8,0.5v-6.1h0l-4-4.6v0h0l0,0v0h-10v17H16   c-0.2-0.2-0.4-0.5-0.6-0.8H8.4z"
       class="st0" /><path
       id="path15"
       d="M19.1,16.9c-1.9,0-3.4,1.5-3.4,3.4c0,1.9,1.5,3.4,3.4,3.4c1.9,0,3.4-1.5,3.4-3.4C22.5,18.4,21,16.9,19.1,16.9z    M18.3,22.1L18.3,22.1L18.3,22.1l-1.7-1.7l0.5-0.5l1.3,1.2l2.6-2.6l0.4,0.5L18.3,22.1z"
       class="st0" /><path
       id="path17"
       d="M15,0C6.7,0,0,6.7,0,15s6.7,15,15,15c8.3,0,15-6.7,15-15S23.3,0,15,0z M15,28.8C7.4,28.8,1.2,22.6,1.2,15   C1.2,7.4,7.4,1.2,15,1.2c7.6,0,13.8,6.2,13.8,13.8C28.8,22.6,22.6,28.8,15,28.8z"
       class="st0" /></g></svg>