<?xml version="1.0" encoding="utf-8"?>
<!-- Generator: Adobe Illustrator 21.1.0, SVG Export Plug-In . SVG Version: 6.00 Build 0)  -->
<svg version="1.1" id="Layer_1" xmlns="http://www.w3.org/2000/svg" xmlns:xlink="http://www.w3.org/1999/xlink" x="0px" y="0px"
	 viewBox="0 0 100 100" style="enable-background:new 0 0 100 100;" xml:space="preserve">
<style type="text/css">
	.st0{fill:#30D6A6;}
	.st1{fill:#FFFFFF;}
</style>
<g>
	<g>
		<path class="st0" d="M50,75.5c20.8,0,37.7-16.9,37.7-37.7C87.7,16.9,70.8,0,50,0C29.2,0,12.3,16.9,12.3,37.7
			C12.3,58.6,29.2,75.5,50,75.5z M50,3.9c18.7,0,33.8,15.1,33.8,33.8c0,18.7-15.1,33.8-33.8,33.8S16.2,56.4,16.2,37.7
			C16.2,19,31.3,3.9,50,3.9z"/>
		<path class="st0" d="M82.2,82H17.8c-5,0-9,4-9,9v0c0,5,4,9,9,9h64.4c5,0,9-4,9-9v0C91.2,86,87.2,82,82.2,82z"/>
		<path class="st0" d="M40,36.4c0.6,0,0.9,0.1,1.3,0.5c6.4,6.4,12.8,12.9,19.3,19.3c2.4,2.4,6.4,2.1,8.4-0.7
			c1.6-2.2,1.3-5.2-0.7-7.1c-3.9-3.9-7.8-7.8-11.7-11.8c-2.5-2.5-5-5-7.5-7.5c-0.2-0.2-0.4-0.4-0.3-0.7c0.2-1.5,0.1-3-0.4-4.5
			c-1.5-4.1-5.6-6.7-10-6.2c-0.8,0.1-1.6,0.4-2.5,0.6c0.2,0.2,0.3,0.4,0.4,0.5c1.7,1.7,3.3,3.3,5,5c1,1,1,2.2,0,3.3
			c-0.7,0.7-1.4,1.4-2,2c-1,1-2.2,1-3.3,0c-1.6-1.6-3.2-3.2-4.8-4.8c-0.1-0.1-0.2-0.3-0.3-0.4c-0.7,1.8-0.8,3.4-0.5,5.1
			C31.2,33.3,35.2,36.7,40,36.4z"/>
		<path class="st0" d="M53.8,30.4c3.4-3.4,6.7-6.7,10.1-10.1c0.1-0.1,0.2-0.2,0.3-0.3c0.3-0.2,0.6-0.2,0.9,0.1
			c0.2,0.3,0.3,0.5,0.1,0.8c-0.1,0.1-0.2,0.3-0.4,0.4c-3.3,3.3-6.7,6.7-10,10c-0.1,0.1-0.2,0.3-0.3,0.3c0.6,0.6,1.1,1.1,1.7,1.8
			c0.1-0.2,0.2-0.4,0.3-0.5c3.3-3.3,6.6-6.7,10-10c0.1-0.1,0.3-0.3,0.4-0.4c0.3-0.2,0.6-0.1,0.8,0.2c0.1,0.2,0.1,0.5,0,0.8
			c0,0.2-0.2,0.3-0.4,0.4c-3.3,3.3-6.6,6.6-10,10C57.2,34,57,34.1,57,34.2c0.6,0.6,1.1,1.1,1.5,1.6c0,0,0.1,0,0.1-0.1
			c3.4-3.4,6.8-6.8,10.2-10.2c1.2-1.2,1.5-2.7,1.1-4.4c-0.9-3.5-5.2-4.6-7.7-2c-3.3,3.3-6.6,6.6-9.9,9.9c-0.1,0.1-0.2,0.2-0.3,0.3
			c0.5,0.5,1,0.9,1.6,1.5C53.6,30.7,53.7,30.5,53.8,30.4z"/>
		<path class="st0" d="M31.9,57.7c2.3-1.5,4.7-3.1,7-4.6c0.1-0.1,0.3-0.3,0.3-0.5c0.2-0.7,0.3-1.3,0.5-2c0.1-0.2,0.2-0.5,0.4-0.7
			c1.8-1.8,3.6-3.6,5.4-5.4c0.1-0.1,0.2-0.3,0.3-0.3c-0.8-0.7-1.5-1.5-2.2-2.2c-1.7,1.7-3.5,3.5-5.3,5.3c-0.5,0.5-1,0.8-1.7,0.9
			c-0.4,0.1-0.9,0.2-1.3,0.3c-0.2,0.1-0.5,0.2-0.6,0.4c-1.4,2.1-2.7,4.1-4.1,6.2c-0.2,0.3-0.4,0.6-0.5,0.8c0.6,0.6,1.2,1.2,1.8,1.8
			C31.8,57.8,31.9,57.7,31.9,57.7z"/>
	</g>
	<g>
		<g>
			<path class="st1" d="M35.9,91.9c0-0.2-0.1-0.4-0.2-0.6c-0.2-0.1-0.5-0.3-0.9-0.4c-0.5-0.1-0.9-0.3-1.2-0.5
				c-0.3-0.2-0.4-0.5-0.4-0.9c0-0.4,0.2-0.7,0.5-0.9s0.7-0.4,1.2-0.4c0.5,0,1,0.1,1.3,0.4s0.5,0.6,0.5,1l0,0h-0.6
				c0-0.3-0.1-0.5-0.3-0.7c-0.2-0.2-0.5-0.3-0.8-0.3c-0.3,0-0.6,0.1-0.8,0.2c-0.2,0.1-0.3,0.3-0.3,0.6c0,0.2,0.1,0.4,0.3,0.5
				c0.2,0.1,0.5,0.3,0.9,0.4c0.5,0.1,0.9,0.3,1.2,0.6c0.3,0.2,0.4,0.6,0.4,0.9c0,0.4-0.2,0.7-0.5,0.9c-0.3,0.2-0.7,0.4-1.3,0.4
				c-0.5,0-0.9-0.1-1.3-0.4c-0.4-0.3-0.6-0.6-0.5-1.1l0,0h0.6c0,0.3,0.1,0.5,0.3,0.7c0.2,0.2,0.5,0.2,0.8,0.2c0.3,0,0.6-0.1,0.8-0.2
				S35.9,92.2,35.9,91.9z"/>
			<path class="st1" d="M40.4,90.9h-2.2v1.7h2.6v0.5h-3.2v-4.8h3.2v0.5h-2.5v1.6h2.2V90.9z"/>
			<path class="st1" d="M42.2,91v2.1h-0.7v-4.8h1.8c0.5,0,0.9,0.1,1.2,0.4c0.3,0.2,0.4,0.6,0.4,1c0,0.2-0.1,0.5-0.2,0.6
				c-0.1,0.2-0.3,0.3-0.6,0.4c0.3,0.1,0.5,0.2,0.6,0.4c0.1,0.2,0.2,0.4,0.2,0.7v0.5c0,0.2,0,0.3,0,0.4c0,0.1,0.1,0.2,0.2,0.3v0.1
				h-0.7c-0.1-0.1-0.1-0.2-0.2-0.3s0-0.3,0-0.5v-0.4c0-0.3-0.1-0.5-0.2-0.6c-0.2-0.2-0.4-0.2-0.6-0.2H42.2z M42.2,90.5h1
				c0.4,0,0.6-0.1,0.8-0.2s0.2-0.4,0.2-0.6c0-0.3-0.1-0.5-0.2-0.6c-0.2-0.1-0.4-0.2-0.7-0.2h-1.1V90.5z"/>
			<path class="st1" d="M47.4,91.9l0.1,0.4h0l0.1-0.4l1.3-3.6h0.7l-1.8,4.8h-0.6l-1.8-4.8h0.7L47.4,91.9z"/>
			<path class="st1" d="M50.9,93.1h-0.7v-4.8h0.7V93.1z"/>
			<path class="st1" d="M55.6,91.6L55.6,91.6c0,0.5-0.1,0.9-0.5,1.2c-0.3,0.3-0.8,0.5-1.3,0.5c-0.5,0-1-0.2-1.3-0.6
				c-0.3-0.4-0.5-0.9-0.5-1.5v-0.9c0-0.6,0.2-1.1,0.5-1.5c0.3-0.4,0.8-0.6,1.3-0.6s1,0.1,1.3,0.4c0.3,0.3,0.5,0.7,0.5,1.2l0,0H55
				c0-0.3-0.1-0.6-0.3-0.8c-0.2-0.2-0.5-0.3-0.8-0.3c-0.4,0-0.7,0.1-0.9,0.4c-0.2,0.3-0.3,0.7-0.3,1.1v0.9c0,0.4,0.1,0.8,0.3,1.1
				c0.2,0.3,0.5,0.4,0.9,0.4c0.4,0,0.6-0.1,0.8-0.3c0.2-0.2,0.3-0.5,0.3-0.8H55.6z"/>
			<path class="st1" d="M57.2,93.1h-0.7v-4.8h0.7V93.1z"/>
			<path class="st1" d="M62.1,93.1h-0.7l-2.3-3.7l0,0v3.7h-0.7v-4.8h0.7l2.3,3.7l0,0v-3.7h0.7V93.1z"/>
			<path class="st1" d="M66.8,92.5c-0.1,0.2-0.3,0.3-0.6,0.5s-0.7,0.2-1.1,0.2c-0.6,0-1.1-0.2-1.4-0.6c-0.4-0.4-0.6-0.8-0.6-1.4v-1
				c0-0.6,0.2-1.1,0.5-1.4c0.4-0.4,0.8-0.6,1.4-0.6c0.6,0,1,0.1,1.3,0.4c0.3,0.3,0.5,0.6,0.5,1.1l0,0h-0.6c0-0.3-0.1-0.5-0.3-0.7
				c-0.2-0.2-0.5-0.3-0.8-0.3c-0.4,0-0.7,0.1-0.9,0.4c-0.2,0.3-0.3,0.6-0.3,1.1v1c0,0.4,0.1,0.8,0.4,1.1s0.6,0.4,1,0.4
				c0.3,0,0.5,0,0.7-0.1c0.2-0.1,0.3-0.2,0.4-0.2v-1.1h-1.1v-0.5h1.7V92.5z"/>
		</g>
	</g>
</g>
</svg>
