<?xml version="1.0" encoding="utf-8"?>
<!-- Generator: Adobe Illustrator 21.1.0, SVG Export Plug-In . SVG Version: 6.00 Build 0)  -->
<svg version="1.1" id="Layer_1" xmlns="http://www.w3.org/2000/svg" xmlns:xlink="http://www.w3.org/1999/xlink" x="0px" y="0px"
	 viewBox="0 0 100 100" style="enable-background:new 0 0 100 100;" xml:space="preserve">
<style type="text/css">
	.st0{fill:#F4BA53;}
	.st1{fill:#FFFFFF;}
</style>
<g>
	<g>
		<path class="st0" d="M50,75.9c21,0,38-17,38-38C88,17,71,0,50,0S12,17,12,38C12,58.9,29,75.9,50,75.9z M50,3.9
			c18.8,0,34,15.2,34,34c0,18.8-15.2,34-34,34S16,56.8,16,38C16,19.2,31.2,3.9,50,3.9z"/>
		<path class="st0" d="M82.4,81.9H17.6c-5,0-9.1,4.1-9.1,9.1v0c0,5,4.1,9.1,9.1,9.1h64.8c5,0,9.1-4.1,9.1-9.1v0
			C91.5,85.9,87.4,81.9,82.4,81.9z"/>
		<path class="st0" d="M59.7,33.7c0.1-1.8,0-3.5,0-5.3c-2.4-0.2-5.1,1.7-6.1,4.3c-1.2,2.9-0.3,6.3,2.1,8.2c2.4,1.9,5.7,2.2,8,0.6
			c-1-1.6-1.9-3.1-3-4.6C60,35.9,59.7,34.9,59.7,33.7z"/>
		<path class="st0" d="M61.2,35.8c1.2,1.8,2.3,3.5,3.4,5.3c0.1,0.1,0.2,0.3,0.3,0.4c3.1-1.9,4.2-6.9,2-9.9
			C65,33,63.1,34.4,61.2,35.8z"/>
		<path class="st0" d="M47.2,33.6c-0.2,0-0.5,0-0.7,0c-0.8-0.1-1.1,0.3-1.1,1.1c0,2,0,3.9,0,5.9c0,2,0,2,2,2c0.8,0,0.9-0.3,0.9-1
			c0-1.2,0-2.3,0-3.5c0-1.1-0.1-2.2,0-3.3C48.5,33.8,48.1,33.5,47.2,33.6z"/>
		<path class="st0" d="M45.5,27.7c-0.1,0-0.2,0-0.3,0c-0.2,0.1-0.4,0.3-0.6,0.5c0.2,0.1,0.4,0.4,0.7,0.4c0.5,0.1,0.9,0,1.6,0
			c-0.9,1-1.5,1.7-2.2,2.5c-0.7,0.8-1.3,1.5-2.1,2.3c-1.3-1-2.5-1.9-3.6-2.9c-0.5-0.5-0.9-0.4-1.4,0.1c-1.5,1.4-3,2.8-4.5,4.3
			c-0.2,0.2-0.3,0.7-0.4,1c0.3-0.1,0.8-0.1,1-0.3c1.5-1.4,3-2.8,4.6-4.3c0.9,0.7,1.7,1.4,2.5,2c1.9,1.5,1.9,1.5,3.5-0.3
			c1-1.1,2-2.2,3.1-3.5c0,0.7-0.1,1.1,0,1.4c0.1,0.3,0.3,0.5,0.5,0.8c0.1-0.2,0.4-0.5,0.4-0.7C48.7,27.6,48.7,27.6,45.5,27.7z"/>
		<path class="st0" d="M39.8,37.1c0-2.1,0-2.1-2.1-2c-0.7,0-0.9,0.3-0.9,0.9c0,0.9,0,1.8,0,2.8c0,0.9,0,1.7,0,2.6
			c-0.1,0.9,0.2,1.3,1.2,1.2c0.2,0,0.4,0,0.6,0c1,0.1,1.2-0.4,1.2-1.2C39.8,39.9,39.8,38.5,39.8,37.1z"/>
		<path class="st0" d="M60.9,34.8c1.9-1.4,3.7-2.7,5.5-4.1c-1.5-1.8-3.2-2.8-5.6-3c0,2.1,0,4.1,0,6.1C60.8,34,60.9,34.3,60.9,34.8z"
			/>
		<path class="st0" d="M43,36.6c-0.3,0-0.6,0-0.9,0c-0.6,0-0.9,0.3-0.9,0.9c0,1.2,0,2.3,0,3.5c0,1.5,0,1.5,1.5,1.5
			c1.5,0,1.5,0,1.5-1.5c0-0.5,0-1,0-1.4c0-0.7,0-1.3,0-2C44.2,36.8,43.8,36.5,43,36.6z"/>
		<path class="st0" d="M33.4,38.1c0,0-0.1,0-0.1,0c-0.2,0.2-0.7,0.4-0.7,0.7c-0.1,1-0.1,2.1,0,3.1c0,0.2,0.3,0.6,0.6,0.7
			c2,0.4,2.4,0.1,2.4-1.9c0-0.1,0-0.2,0-0.3C35.5,37.9,35.5,37.9,33.4,38.1z"/>
		<path class="st0" d="M29.6,51.7c5.1,0,10.2,0,15.2,0c0.4,0,0.7,0,1.2,0c-0.1,1-0.2,1.8-0.2,2.7c0,1.6-0.6,2.8-2.1,3.5
			c-0.3,0.2-0.7,0.4-1,0.6c-0.2,0.2-0.4,0.5-0.6,0.7c0.3,0.1,0.6,0.3,1,0.3c4.8,0,9.5,0,14.3,0c0.1,0,0.3,0,0.4,0
			c0.2-0.1,0.5-0.2,0.5-0.3c0-0.2-0.1-0.5-0.2-0.6c-0.5-0.4-1-0.7-1.6-1c-0.9-0.5-1.6-1.3-1.7-2.3c-0.2-1.2-0.2-2.4-0.3-3.7
			c0.4,0,0.8,0,1.2,0c5,0,10,0,15,0c1.9,0,2.3-0.4,2.3-2.2c0-8.6,0-17.2,0-25.9c0-1.8-0.4-2.2-2.2-2.2c-13.7,0-27.4,0-41.1,0
			c-1.7,0-2.1,0.4-2.1,2.1c0,8.7,0,17.4,0,26.2C27.6,51.4,28,51.7,29.6,51.7z M29.1,22.8h42.4v26.1H29.1V22.8z"/>
	</g>
	<g>
		<g>
			<path class="st1" d="M21.2,91.7h-2l-0.5,1.3H18l1.9-4.9h0.6l1.9,4.9h-0.7L21.2,91.7z M19.3,91.1H21l-0.8-2.2h0L19.3,91.1z"/>
			<path class="st1" d="M26.5,92.3c-0.1,0.2-0.3,0.3-0.6,0.5S25.2,93,24.8,93c-0.6,0-1.1-0.2-1.4-0.6c-0.4-0.4-0.6-0.9-0.6-1.4v-1
				c0-0.6,0.2-1.1,0.5-1.4s0.8-0.6,1.4-0.6c0.6,0,1,0.1,1.3,0.4c0.3,0.3,0.5,0.6,0.5,1.1l0,0h-0.6c0-0.3-0.1-0.5-0.3-0.7
				s-0.5-0.3-0.8-0.3c-0.4,0-0.7,0.1-0.9,0.4c-0.2,0.3-0.3,0.6-0.3,1.1v1c0,0.4,0.1,0.8,0.4,1.1c0.3,0.3,0.6,0.4,1,0.4
				c0.3,0,0.5,0,0.7-0.1s0.3-0.2,0.4-0.3V91h-1.1v-0.5h1.7V92.3z"/>
			<path class="st1" d="M30.5,90.7h-2.2v1.7h2.6v0.5h-3.2v-4.9h3.2v0.5h-2.5v1.6h2.2V90.7z"/>
			<path class="st1" d="M35.3,92.9h-0.7l-2.3-3.8l0,0v3.8h-0.7v-4.9h0.7l2.3,3.8l0,0v-3.8h0.7V92.9z"/>
			<path class="st1" d="M39.7,88.6h-1.6v4.4h-0.7v-4.4h-1.6v-0.5h3.8V88.6z"/>
			<path class="st1" d="M42.2,92.9v-4.9h1.5c0.6,0,1.2,0.2,1.5,0.6s0.6,0.9,0.6,1.5v0.7c0,0.6-0.2,1.1-0.6,1.5s-0.9,0.6-1.5,0.6
				H42.2z M42.8,88.6v3.8h0.8c0.5,0,0.8-0.1,1.1-0.4c0.3-0.3,0.4-0.7,0.4-1.1v-0.7c0-0.5-0.1-0.8-0.4-1.1c-0.3-0.3-0.6-0.4-1.1-0.4
				H42.8z"/>
			<path class="st1" d="M49.2,91.7h-2l-0.5,1.3h-0.7l1.9-4.9h0.6l1.9,4.9h-0.7L49.2,91.7z M47.4,91.1H49l-0.8-2.2h0L47.4,91.1z"/>
			<path class="st1" d="M53.7,91.7c0-0.2-0.1-0.4-0.3-0.6c-0.2-0.1-0.5-0.3-0.9-0.4c-0.5-0.1-0.9-0.3-1.2-0.5s-0.4-0.5-0.4-0.9
				c0-0.4,0.2-0.7,0.5-1c0.3-0.3,0.7-0.4,1.2-0.4c0.5,0,1,0.1,1.3,0.4c0.3,0.3,0.5,0.6,0.5,1l0,0h-0.6c0-0.3-0.1-0.5-0.3-0.7
				c-0.2-0.2-0.5-0.3-0.8-0.3c-0.3,0-0.6,0.1-0.8,0.2c-0.2,0.1-0.3,0.3-0.3,0.6c0,0.2,0.1,0.4,0.3,0.5c0.2,0.1,0.5,0.3,0.9,0.4
				c0.5,0.1,0.9,0.3,1.2,0.6c0.3,0.2,0.4,0.6,0.4,0.9c0,0.4-0.2,0.7-0.5,0.9c-0.3,0.2-0.7,0.4-1.3,0.4c-0.5,0-0.9-0.1-1.3-0.4
				s-0.6-0.6-0.5-1.1l0,0h0.6c0,0.3,0.1,0.6,0.3,0.7c0.2,0.2,0.5,0.2,0.9,0.2c0.3,0,0.6-0.1,0.8-0.2C53.6,92.1,53.7,92,53.7,91.7z"
				/>
			<path class="st1" d="M59,92.9h-0.7v-2.2H56v2.2h-0.7v-4.9H56v2.2h2.4v-2.2H59V92.9z"/>
			<path class="st1" d="M60.2,92.9v-4.9h1.6c0.5,0,0.9,0.1,1.2,0.3s0.4,0.5,0.4,1c0,0.2-0.1,0.4-0.2,0.6s-0.3,0.3-0.5,0.4
				c0.3,0.1,0.5,0.2,0.7,0.4c0.2,0.2,0.3,0.5,0.3,0.8c0,0.4-0.1,0.8-0.4,1s-0.7,0.4-1.2,0.4H60.2z M60.9,90.1h1.1
				c0.2,0,0.4-0.1,0.6-0.2c0.2-0.1,0.2-0.3,0.2-0.6c0-0.3-0.1-0.5-0.2-0.6c-0.2-0.1-0.4-0.2-0.7-0.2h-0.9V90.1z M60.9,90.7v1.8H62
				c0.3,0,0.5-0.1,0.7-0.2c0.2-0.1,0.3-0.4,0.3-0.6c0-0.3-0.1-0.5-0.2-0.7c-0.1-0.2-0.4-0.2-0.6-0.2H60.9z"/>
			<path class="st1" d="M68.3,90.9c0,0.6-0.2,1.1-0.6,1.5c-0.4,0.4-0.8,0.6-1.4,0.6c-0.6,0-1-0.2-1.4-0.6c-0.4-0.4-0.5-0.9-0.5-1.5
				v-0.9c0-0.6,0.2-1.1,0.5-1.5c0.4-0.4,0.8-0.6,1.4-0.6c0.6,0,1.1,0.2,1.4,0.6c0.4,0.4,0.6,0.9,0.6,1.5V90.9z M67.6,90.1
				c0-0.4-0.1-0.8-0.4-1.1c-0.2-0.3-0.6-0.4-1-0.4c-0.4,0-0.7,0.1-0.9,0.4c-0.2,0.3-0.3,0.7-0.3,1.1v0.9c0,0.5,0.1,0.8,0.3,1.1
				c0.2,0.3,0.5,0.4,0.9,0.4c0.4,0,0.7-0.1,1-0.4s0.4-0.7,0.4-1.1V90.1z"/>
			<path class="st1" d="M71.8,91.7h-2l-0.5,1.3h-0.7l1.9-4.9h0.6l1.9,4.9h-0.7L71.8,91.7z M70,91.1h1.6l-0.8-2.2h0L70,91.1z"/>
			<path class="st1" d="M74.3,90.8v2.1h-0.7v-4.9h1.8c0.5,0,0.9,0.1,1.2,0.4c0.3,0.2,0.4,0.6,0.4,1c0,0.3-0.1,0.5-0.2,0.7
				c-0.1,0.2-0.3,0.3-0.6,0.4c0.3,0.1,0.5,0.2,0.6,0.4s0.2,0.4,0.2,0.7v0.5c0,0.2,0,0.3,0.1,0.4c0,0.1,0.1,0.2,0.2,0.3v0.1h-0.7
				c-0.1-0.1-0.1-0.2-0.2-0.3c0-0.1,0-0.3,0-0.5v-0.4c0-0.3-0.1-0.5-0.2-0.6c-0.2-0.2-0.4-0.2-0.6-0.2H74.3z M74.3,90.3h1
				c0.4,0,0.6-0.1,0.8-0.2s0.2-0.4,0.2-0.6c0-0.3-0.1-0.5-0.2-0.6c-0.2-0.2-0.4-0.2-0.7-0.2h-1.1V90.3z"/>
			<path class="st1" d="M78.2,92.9v-4.9h1.5c0.6,0,1.2,0.2,1.5,0.6s0.6,0.9,0.6,1.5v0.7c0,0.6-0.2,1.1-0.6,1.5s-0.9,0.6-1.5,0.6
				H78.2z M78.8,88.6v3.8h0.8c0.5,0,0.8-0.1,1.1-0.4c0.3-0.3,0.4-0.7,0.4-1.1v-0.7c0-0.5-0.1-0.8-0.4-1.1c-0.3-0.3-0.6-0.4-1.1-0.4
				H78.8z"/>
		</g>
	</g>
</g>
</svg>
