<?xml version="1.0" encoding="UTF-8" standalone="no"?>
<svg
   xmlns:dc="http://purl.org/dc/elements/1.1/"
   xmlns:cc="http://creativecommons.org/ns#"
   xmlns:rdf="http://www.w3.org/1999/02/22-rdf-syntax-ns#"
   xmlns:svg="http://www.w3.org/2000/svg"
   xmlns="http://www.w3.org/2000/svg"
   xmlns:xlink="http://www.w3.org/1999/xlink"
   xml:space="preserve"
   style="enable-background:new 0 0 400 400;"
   viewBox="0 0 400 400"
   y="0px"
   x="0px"
   id="Layer_1"
   version="1.1"><metadata
     id="metadata515"><rdf:RDF><cc:Work
         rdf:about=""><dc:format>image/svg+xml</dc:format><dc:type
           rdf:resource="http://purl.org/dc/dcmitype/StillImage" /><dc:title></dc:title></cc:Work></rdf:RDF></metadata><defs
     id="defs513"><defs
       id="defs7"><rect
         id="SVGID_1_"
         width="400"
         height="400" /></defs><clipPath
       id="SVGID_2_"><use
         xlink:href="#SVGID_1_"
         style="overflow:visible;"
         id="use11" /></clipPath></defs><style
     id="style3"
     type="text/css">
	.st0{opacity:0.45;clip-path:url(#SVGID_2_);}
	.st1{fill:#F2F2F2;}
</style><g
     class="st0"
     id="g13"
     clip-path="url(#SVGID_2_)"
     style="opacity:0.45"><polygon
       class="st1"
       points="14.4,160.6 9.7,145.2 9.6,145.2 28.7,124.3 12.6,120.8 -6.5,141.6 -18.7,139 -14,154.4 "
       id="polygon15"
       style="fill:#f2f2f2" /><polygon
       class="st1"
       points="38.1,176.1 49.3,164.3 40.3,137.3 48.3,128.8 32.2,125.3 13,145.8 29.1,149.2 29.1,149.2 "
       id="polygon17"
       style="fill:#f2f2f2" /><polygon
       class="st1"
       points="36.3,178.7 27.4,151.7 16.1,163.5 -12.7,157.6 -8,173 21.3,179.1 25.1,190.5 "
       id="polygon19"
       style="fill:#f2f2f2" /><polygon
       class="st1"
       points="80.9,157.9 76.2,142.5 76.2,142.5 95.3,121.7 79.2,118.2 60.1,139 47.8,136.3 52.5,151.7 "
       id="polygon21"
       style="fill:#f2f2f2" /><polygon
       class="st1"
       points="95.7,146.6 95.7,146.6 104.7,173.5 115.9,161.7 106.9,134.7 114.9,126.1 98.8,122.7 79.5,143.1 "
       id="polygon23"
       style="fill:#f2f2f2" /><polygon
       class="st1"
       points="102.9,176 93.9,149.1 82.7,160.9 53.9,154.9 58.6,170.3 87.9,176.4 91.7,187.8 "
       id="polygon25"
       style="fill:#f2f2f2" /><polygon
       class="st1"
       points="50.4,215.5 45.7,200.1 45.6,200.1 64.8,179.3 48.6,175.8 29.5,196.6 17.3,193.9 22,209.3 "
       id="polygon27"
       style="fill:#f2f2f2" /><polygon
       class="st1"
       points="74.1,231.1 85.3,219.3 76.3,192.3 84.4,183.7 68.2,180.2 49,200.7 65.1,204.2 65.1,204.2 "
       id="polygon29"
       style="fill:#f2f2f2" /><polygon
       class="st1"
       points="72.4,233.6 63.4,206.7 52.2,218.5 23.3,212.5 28,227.9 57.3,234 61.1,245.4 "
       id="polygon31"
       style="fill:#f2f2f2" /><polygon
       class="st1"
       points="112.2,197.5 131.3,176.6 115.2,173.2 96.1,194 83.8,191.3 88.6,206.7 117,212.9 112.2,197.5 "
       id="polygon33"
       style="fill:#f2f2f2" /><polygon
       class="st1"
       points="140.7,228.4 151.9,216.6 142.9,189.6 150.9,181.1 134.8,177.6 115.6,198.1 131.7,201.5 131.7,201.5 "
       id="polygon35"
       style="fill:#f2f2f2" /><polygon
       class="st1"
       points="138.9,231 129.9,204.1 118.7,215.9 89.9,209.9 94.6,225.3 123.9,231.4 127.7,242.8 "
       id="polygon37"
       style="fill:#f2f2f2" /><polygon
       class="st1"
       points="183.5,210.3 178.8,194.9 178.8,194.8 197.9,174 181.8,170.5 162.7,191.3 150.4,188.6 155.1,204 "
       id="polygon39"
       style="fill:#f2f2f2" /><polygon
       class="st1"
       points="198.3,198.9 198.3,198.9 207.3,225.8 218.5,214 209.5,187 217.5,178.4 201.4,175 182.1,195.4 "
       id="polygon41"
       style="fill:#f2f2f2" /><polygon
       class="st1"
       points="194.3,240.2 205.5,228.4 196.5,201.4 185.3,213.2 156.4,207.2 161.1,222.6 190.5,228.8 "
       id="polygon43"
       style="fill:#f2f2f2" /><polygon
       class="st1"
       points="142.8,142 161.9,121.2 145.8,117.7 126.7,138.5 114.4,135.8 119.2,151.2 147.6,157.4 142.9,142 "
       id="polygon45"
       style="fill:#f2f2f2" /><polygon
       class="st1"
       points="162.3,146.1 162.3,146.1 171.3,173 182.5,161.2 173.5,134.2 181.5,125.6 165.4,122.2 146.2,142.6 "
       id="polygon47"
       style="fill:#f2f2f2" /><polygon
       class="st1"
       points="169.5,175.5 160.5,148.6 149.3,160.4 120.5,154.4 125.2,169.8 154.5,175.9 158.3,187.3 "
       id="polygon49"
       style="fill:#f2f2f2" /><polygon
       class="st1"
       points="102.4,231.9 86.3,228.4 67.2,249.2 54.9,246.5 59.6,262 88,268.2 83.3,252.8 83.3,252.8 "
       id="polygon51"
       style="fill:#f2f2f2" /><polygon
       class="st1"
       points="111.8,283.7 123,271.9 114,244.9 122,236.4 105.8,232.9 86.6,253.3 102.8,256.8 102.8,256.8 "
       id="polygon53"
       style="fill:#f2f2f2" /><polygon
       class="st1"
       points="110,286.3 101,259.3 89.8,271.1 60.9,265.1 65.6,280.5 95,286.7 98.8,298.1 "
       id="polygon55"
       style="fill:#f2f2f2" /><polygon
       class="st1"
       points="153,267.8 148.3,252.4 148.2,252.4 167.3,231.6 151.2,228.1 132.1,248.9 119.8,246.2 124.6,261.6 "
       id="polygon57"
       style="fill:#f2f2f2" /><polygon
       class="st1"
       points="176.7,283.4 187.9,271.6 178.9,244.6 186.9,236 170.8,232.6 151.6,253 167.7,256.5 167.7,256.5 "
       id="polygon59"
       style="fill:#f2f2f2" /><polygon
       class="st1"
       points="174.9,285.9 166,259 154.7,270.8 125.9,264.8 130.6,280.2 159.9,286.3 163.7,297.7 "
       id="polygon61"
       style="fill:#f2f2f2" /><polygon
       class="st1"
       points="-11.7,-40.3 -27.9,-43.8 -47,-23 -59.2,-25.7 -54.5,-10.2 -26.1,-4 -30.8,-19.4 -30.9,-19.4 "
       id="polygon63"
       style="fill:#f2f2f2" /><polygon
       class="st1"
       points="-2.4,11.5 8.8,-0.3 -0.2,-27.3 7.8,-35.8 -8.3,-39.3 -27.5,-18.9 -11.4,-15.4 -11.4,-15.4 "
       id="polygon65"
       style="fill:#f2f2f2" /><polygon
       class="st1"
       points="-13.1,-12.9 -24.4,-1.1 -53.2,-7.1 -48.5,8.3 -19.2,14.5 -15.4,25.9 -4.1,14.1 "
       id="polygon67"
       style="fill:#f2f2f2" /><polygon
       class="st1"
       points="35.7,-22.1 54.8,-42.9 38.7,-46.4 19.6,-25.6 7.3,-28.3 12,-12.9 40.4,-6.7 35.7,-22.1 "
       id="polygon69"
       style="fill:#f2f2f2" /><polygon
       class="st1"
       points="64.2,8.9 75.4,-2.9 66.4,-29.9 74.4,-38.5 58.3,-42 39,-21.5 55.2,-18 55.2,-18 "
       id="polygon71"
       style="fill:#f2f2f2" /><polygon
       class="st1"
       points="18.1,5.7 47.4,11.8 51.2,23.2 62.4,11.4 53.4,-15.5 42.2,-3.7 13.4,-9.7 "
       id="polygon73"
       style="fill:#f2f2f2" /><polygon
       class="st1"
       points="-18.5,44.7 9.9,50.9 5.2,35.5 5.1,35.5 24.3,14.7 8.1,11.2 -11,32 -23.2,29.3 "
       id="polygon75"
       style="fill:#f2f2f2" /><polygon
       class="st1"
       points="24.6,39.6 24.6,39.5 33.6,66.5 44.8,54.7 35.8,27.6 43.9,19.1 27.7,15.6 8.5,36.1 "
       id="polygon77"
       style="fill:#f2f2f2" /><polygon
       class="st1"
       points="31.9,69 22.9,42.1 11.7,53.9 -17.2,47.9 -12.5,63.3 16.8,69.4 20.7,80.8 "
       id="polygon79"
       style="fill:#f2f2f2" /><polygon
       class="st1"
       points="48.1,42.1 76.5,48.3 71.7,32.9 71.7,32.9 90.8,12 74.7,8.5 55.6,29.3 43.3,26.7 "
       id="polygon81"
       style="fill:#f2f2f2" /><polygon
       class="st1"
       points="91.2,36.9 91.2,36.9 100.2,63.8 111.4,52 102.4,25 110.4,16.5 94.3,13 75.1,33.5 "
       id="polygon83"
       style="fill:#f2f2f2" /><polygon
       class="st1"
       points="87.2,78.2 98.4,66.4 89.4,39.4 78.2,51.2 49.4,45.3 54.1,60.7 83.4,66.8 "
       id="polygon85"
       style="fill:#f2f2f2" /><polygon
       class="st1"
       points="143,45.6 138.3,30.2 138.3,30.2 157.4,9.4 141.3,5.9 122.2,26.7 109.9,24 114.6,39.4 "
       id="polygon87"
       style="fill:#f2f2f2" /><polygon
       class="st1"
       points="141.6,30.8 157.8,34.3 157.8,34.3 166.8,61.2 178,49.4 169,22.4 177,13.8 160.9,10.4 "
       id="polygon89"
       style="fill:#f2f2f2" /><polygon
       class="st1"
       points="153.8,75.5 165,63.7 156,36.8 144.8,48.6 115.9,42.6 120.7,58 150,64.1 "
       id="polygon91"
       style="fill:#f2f2f2" /><polygon
       class="st1"
       points="178.6,36.9 207,43.2 202.3,27.8 202.3,27.7 221.4,6.9 205.2,3.4 186.2,24.2 173.9,21.5 "
       id="polygon93"
       style="fill:#f2f2f2" /><polygon
       class="st1"
       points="221.7,31.8 221.8,31.8 230.7,58.7 242,46.9 233,19.9 241,11.3 224.8,7.9 205.6,28.3 "
       id="polygon95"
       style="fill:#f2f2f2" /><polygon
       class="st1"
       points="217.8,73.1 229,61.3 220,34.3 208.8,46.1 179.9,40.1 184.6,55.5 214,61.7 "
       id="polygon97"
       style="fill:#f2f2f2" /><polygon
       class="st1"
       points="245.2,34.3 273.6,40.5 268.9,25.1 268.8,25.1 288,4.3 271.8,0.8 252.7,21.6 240.5,18.9 "
       id="polygon99"
       style="fill:#f2f2f2" /><polygon
       class="st1"
       points="288.3,29.2 288.3,29.2 297.3,56.1 308.5,44.3 299.5,17.2 307.5,8.7 291.4,5.2 272.2,25.7 "
       id="polygon101"
       style="fill:#f2f2f2" /><polygon
       class="st1"
       points="284.3,70.4 295.6,58.6 286.6,31.7 275.3,43.5 246.5,37.5 251.2,52.9 280.5,59 "
       id="polygon103"
       style="fill:#f2f2f2" /><polygon
       class="st1"
       points="102.3,-22.6 121.4,-43.4 105.3,-46.9 86.2,-26.1 74,-28.8 78.7,-13.4 107.1,-7.2 102.4,-22.6 "
       id="polygon105"
       style="fill:#f2f2f2" /><polygon
       class="st1"
       points="130.8,8.4 142,-3.4 133,-30.4 141,-39 124.9,-42.5 105.7,-22 121.8,-18.5 121.8,-18.5 "
       id="polygon107"
       style="fill:#f2f2f2" /><polygon
       class="st1"
       points="84.7,5.2 114,11.3 117.8,22.7 129,10.9 120.1,-16 108.8,-4.2 80,-10.2 "
       id="polygon109"
       style="fill:#f2f2f2" /><polygon
       class="st1"
       points="167.3,-27 167.3,-27 186.4,-47.8 170.3,-51.3 151.2,-30.5 138.9,-33.2 143.6,-17.8 172,-11.6 "
       id="polygon111"
       style="fill:#f2f2f2" /><polygon
       class="st1"
       points="195.8,4 207,-7.8 198,-34.8 206,-43.4 189.9,-46.9 170.6,-26.4 186.8,-22.9 186.8,-22.9 "
       id="polygon113"
       style="fill:#f2f2f2" /><polygon
       class="st1"
       points="149.7,0.8 179,6.9 182.8,18.3 194,6.5 185,-20.4 173.8,-8.6 144.9,-14.6 "
       id="polygon115"
       style="fill:#f2f2f2" /><polygon
       class="st1"
       points="233,-31.2 232.9,-31.2 252.1,-52.1 235.9,-55.5 216.9,-34.7 204.6,-37.4 209.3,-22 237.7,-15.8 "
       id="polygon117"
       style="fill:#f2f2f2" /><polygon
       class="st1"
       points="261.4,-0.3 272.7,-12.1 263.6,-39.1 271.7,-47.6 255.5,-51.1 236.3,-30.6 252.4,-27.2 252.4,-27.2 "
       id="polygon119"
       style="fill:#f2f2f2" /><polygon
       class="st1"
       points="215.3,-3.4 244.6,2.7 248.5,14.1 259.7,2.3 250.7,-24.6 239.5,-12.8 210.6,-18.8 "
       id="polygon121"
       style="fill:#f2f2f2" /><polygon
       class="st1"
       points="47.5,103.6 42.8,88.2 42.8,88.1 61.9,67.3 45.8,63.8 26.7,84.6 14.4,81.9 19.1,97.3 "
       id="polygon123"
       style="fill:#f2f2f2" /><polygon
       class="st1"
       points="62.3,92.2 62.3,92.2 71.3,119.1 82.5,107.3 73.5,80.3 81.5,71.7 65.4,68.3 46.1,88.7 "
       id="polygon125"
       style="fill:#f2f2f2" /><polygon
       class="st1"
       points="69.5,121.7 60.5,94.7 49.3,106.5 20.4,100.5 25.2,115.9 54.5,122.1 58.3,133.5 "
       id="polygon127"
       style="fill:#f2f2f2" /><polygon
       class="st1"
       points="84.1,97 112.5,103.2 107.8,87.8 107.7,87.8 126.8,67 110.7,63.5 91.6,84.3 79.4,81.6 "
       id="polygon129"
       style="fill:#f2f2f2" /><polygon
       class="st1"
       points="127.2,91.9 136.2,118.8 147.4,107 138.4,79.9 146.4,71.4 130.3,67.9 111.1,88.4 127.2,91.9 "
       id="polygon131"
       style="fill:#f2f2f2" /><polygon
       class="st1"
       points="123.2,133.1 134.5,121.3 125.5,94.4 114.2,106.2 85.4,100.2 90.1,115.6 119.4,121.7 "
       id="polygon133"
       style="fill:#f2f2f2" /><polygon
       class="st1"
       points="189.3,257.5 217.7,263.7 213,248.3 212.9,248.3 232.1,227.5 215.9,224 196.8,244.8 184.6,242.1 "
       id="polygon135"
       style="fill:#f2f2f2" /><polygon
       class="st1"
       points="251.7,231.9 235.5,228.5 216.3,248.9 232.4,252.4 232.4,252.4 241.4,279.3 252.6,267.5 243.6,240.5 "
       id="polygon137"
       style="fill:#f2f2f2" /><polygon
       class="st1"
       points="195.3,276.1 224.6,282.2 228.4,293.6 239.7,281.8 230.7,254.9 219.5,266.7 190.6,260.7 "
       id="polygon139"
       style="fill:#f2f2f2" /><polygon
       class="st1"
       points="255.8,254.9 284.3,261.1 279.5,245.7 279.5,245.7 298.6,224.8 282.5,221.4 263.4,242.2 251.1,239.5 "
       id="polygon141"
       style="fill:#f2f2f2" /><polygon
       class="st1"
       points="299,249.8 299,249.7 308,276.7 319.2,264.9 310.2,237.8 318.2,229.3 302.1,225.8 282.8,246.3 "
       id="polygon143"
       style="fill:#f2f2f2" /><polygon
       class="st1"
       points="261.9,273.5 291.2,279.6 295,291 306.2,279.2 297.2,252.3 286,264.1 257.2,258.1 "
       id="polygon145"
       style="fill:#f2f2f2" /><polygon
       class="st1"
       points="268.1,282.4 251.9,279 232.9,299.8 220.6,297.1 225.3,312.5 253.7,318.7 249,303.3 248.9,303.3 "
       id="polygon147"
       style="fill:#f2f2f2" /><polygon
       class="st1"
       points="287.7,286.9 271.5,283.4 252.3,303.9 268.4,307.3 268.5,307.3 277.4,334.2 288.7,322.4 279.6,295.4 "
       id="polygon149"
       style="fill:#f2f2f2" /><polygon
       class="st1"
       points="275.7,336.8 266.7,309.9 255.5,321.7 226.6,315.7 231.3,331.1 260.6,337.2 264.5,348.6 "
       id="polygon151"
       style="fill:#f2f2f2" /><polygon
       class="st1"
       points="287.1,294.4 291.9,309.8 320.3,316.1 315.6,300.7 315.5,300.6 334.6,279.8 318.5,276.3 299.4,297.1 "
       id="polygon153"
       style="fill:#f2f2f2" /><polygon
       class="st1"
       points="354.2,284.2 338.1,280.8 318.9,301.2 335,304.7 335,304.7 344,331.6 355.2,319.8 346.2,292.8 "
       id="polygon155"
       style="fill:#f2f2f2" /><polygon
       class="st1"
       points="333.2,307.2 322,319 293.2,313 297.9,328.4 327.2,334.5 331,346 342.2,334.2 "
       id="polygon157"
       style="fill:#f2f2f2" /><polygon
       class="st1"
       points="353.7,291.8 358.4,307.2 386.8,313.4 382.1,298 382.1,298 401.2,277.2 385.1,273.7 366,294.5 "
       id="polygon159"
       style="fill:#f2f2f2" /><polygon
       class="st1"
       points="420.8,281.6 404.7,278.1 385.4,298.6 401.6,302.1 401.6,302.1 410.6,329 421.8,317.2 412.8,290.1 "
       id="polygon161"
       style="fill:#f2f2f2" /><polygon
       class="st1"
       points="399.8,304.6 388.6,316.4 359.7,310.4 364.5,325.8 393.8,331.9 397.6,343.3 408.8,331.5 "
       id="polygon163"
       style="fill:#f2f2f2" /><polygon
       class="st1"
       points="317.8,239 322.5,254.4 350.9,260.6 346.2,245.2 346.1,245.2 365.2,224.3 349.1,220.9 330,241.7 "
       id="polygon165"
       style="fill:#f2f2f2" /><polygon
       class="st1"
       points="349.5,245.8 365.6,249.3 365.6,249.2 374.6,276.2 385.8,264.3 376.8,237.3 384.8,228.8 368.7,225.3 "
       id="polygon167"
       style="fill:#f2f2f2" /><polygon
       class="st1"
       points="363.9,251.8 352.6,263.6 323.8,257.6 328.5,273 357.8,279.1 361.6,290.5 372.9,278.7 "
       id="polygon169"
       style="fill:#f2f2f2" /><polygon
       class="st1"
       points="286.6,355.9 305.7,335.1 289.6,331.6 270.5,352.4 258.2,349.7 262.9,365.1 291.3,371.3 286.6,355.9 "
       id="polygon171"
       style="fill:#f2f2f2" /><polygon
       class="st1"
       points="306.1,360 306.1,360 315.1,386.9 326.3,375.1 317.3,348.1 325.3,339.5 309.2,336 289.9,356.5 "
       id="polygon173"
       style="fill:#f2f2f2" /><polygon
       class="st1"
       points="313.3,389.4 304.3,362.5 293.1,374.3 264.2,368.3 269,383.7 298.3,389.8 302.1,401.2 "
       id="polygon175"
       style="fill:#f2f2f2" /><polygon
       class="st1"
       points="323.2,349.4 327.9,364.8 356.3,371 351.6,355.6 351.5,355.6 370.7,334.7 354.5,331.3 335.4,352.1 "
       id="polygon177"
       style="fill:#f2f2f2" /><polygon
       class="st1"
       points="333.9,383.4 363.2,389.5 367,400.9 378.3,389.1 369.3,362.2 358,374 329.2,368 "
       id="polygon179"
       style="fill:#f2f2f2" /><polygon
       class="st1"
       points="79.4,341.8 90.7,330 81.7,303 89.7,294.4 73.5,291 54.3,311.4 70.4,314.9 70.5,314.9 "
       id="polygon181"
       style="fill:#f2f2f2" /><polygon
       class="st1"
       points="66.5,356.2 77.7,344.4 68.7,317.4 57.5,329.2 28.6,323.2 33.3,338.6 62.7,344.8 "
       id="polygon183"
       style="fill:#f2f2f2" /><polygon
       class="st1"
       points="23.2,271.2 18.5,255.8 18.4,255.8 37.6,234.9 21.4,231.4 2.3,252.2 -9.9,249.6 -5.2,265 "
       id="polygon185"
       style="fill:#f2f2f2" /><polygon
       class="st1"
       points="46.9,286.7 58.1,274.9 49.1,247.9 57.2,239.4 41,235.9 21.8,256.4 37.9,259.8 37.9,259.8 "
       id="polygon187"
       style="fill:#f2f2f2" /><polygon
       class="st1"
       points="45.2,289.3 36.2,262.3 24.9,274.1 -3.9,268.2 0.8,283.6 30.1,289.7 33.9,301.1 "
       id="polygon189"
       style="fill:#f2f2f2" /><polygon
       class="st1"
       points="-0.1,183 -16.2,179.5 -35.3,200.3 -47.5,197.6 -42.8,213 -14.4,219.2 -19.1,203.8 -19.2,203.8 "
       id="polygon191"
       style="fill:#f2f2f2" /><polygon
       class="st1"
       points="9.3,234.8 20.5,223 11.5,196 19.5,187.4 3.4,184 -15.8,204.4 0.3,207.9 0.3,207.9 "
       id="polygon193"
       style="fill:#f2f2f2" /><polygon
       class="st1"
       points="-1.4,210.4 -12.7,222.2 -41.5,216.2 -36.8,231.6 -7.5,237.7 -3.7,249.1 7.6,237.3 "
       id="polygon195"
       style="fill:#f2f2f2" /><polygon
       class="st1"
       points="-3.7,71.2 -19.8,67.7 -38.9,88.5 -51.2,85.8 -46.5,101.2 -18.1,107.5 -22.8,92.1 -22.8,92.1 "
       id="polygon197"
       style="fill:#f2f2f2" /><polygon
       class="st1"
       points="5.7,123 16.9,111.2 7.9,84.2 15.9,75.7 -0.2,72.2 -19.5,92.6 -3.3,96.1 -3.3,96.1 "
       id="polygon199"
       style="fill:#f2f2f2" /><polygon
       class="st1"
       points="-5.1,98.6 -16.3,110.4 -45.1,104.4 -40.4,119.8 -11.1,126 -7.3,137.4 3.9,125.6 "
       id="polygon201"
       style="fill:#f2f2f2" /><polygon
       class="st1"
       points="122.3,323.6 117.6,308.2 117.5,308.2 136.7,287.4 120.5,283.9 101.4,304.7 89.2,302 93.9,317.4 "
       id="polygon203"
       style="fill:#f2f2f2" /><polygon
       class="st1"
       points="146,339.2 157.2,327.4 148.2,300.3 156.2,291.8 140.1,288.3 120.9,308.8 137,312.3 137,312.3 "
       id="polygon205"
       style="fill:#f2f2f2" /><polygon
       class="st1"
       points="144.3,341.7 135.3,314.8 124,326.6 95.2,320.6 99.9,336 129.2,342.1 133,353.5 "
       id="polygon207"
       style="fill:#f2f2f2" /><polygon
       class="st1"
       points="188.8,321 184.1,305.6 184.1,305.6 203.2,284.7 187.1,281.3 168,302.1 155.7,299.4 160.4,314.8 "
       id="polygon209"
       style="fill:#f2f2f2" /><polygon
       class="st1"
       points="222.8,289.2 206.7,285.7 187.4,306.2 203.6,309.6 203.6,309.6 212.6,336.5 223.8,324.7 214.8,297.7 "
       id="polygon211"
       style="fill:#f2f2f2" /><polygon
       class="st1"
       points="210.8,339.1 201.8,312.2 190.6,324 161.8,318 166.5,333.4 195.8,339.5 199.6,350.9 "
       id="polygon213"
       style="fill:#f2f2f2" /><polygon
       class="st1"
       points="117.1,394.4 128.3,382.6 119.3,355.6 127.3,347.1 111.2,343.6 91.9,364.1 108.1,367.6 108.1,367.5 "
       id="polygon215"
       style="fill:#f2f2f2" /><polygon
       class="st1"
       points="104.1,408.8 115.3,397 106.3,370.1 95.1,381.9 66.3,375.9 71,391.3 100.3,397.4 "
       id="polygon217"
       style="fill:#f2f2f2" /><polygon
       class="st1"
       points="158.3,378.6 153.6,363.2 153.5,363.2 172.7,342.3 156.5,338.8 137.4,359.6 125.2,356.9 129.9,372.4 "
       id="polygon219"
       style="fill:#f2f2f2" /><polygon
       class="st1"
       points="192.3,346.8 176.1,343.3 156.9,363.7 173,367.2 173,367.2 182,394.1 193.2,382.3 184.2,355.3 "
       id="polygon221"
       style="fill:#f2f2f2" /><polygon
       class="st1"
       points="180.3,396.7 171.3,369.7 160.1,381.5 131.2,375.5 135.9,390.9 165.2,397.1 169.1,408.5 "
       id="polygon223"
       style="fill:#f2f2f2" /><polygon
       class="st1"
       points="238,339.4 221.9,335.9 202.8,356.7 190.5,354.1 195.2,369.5 223.7,375.7 218.9,360.3 218.9,360.3 "
       id="polygon225"
       style="fill:#f2f2f2" /><polygon
       class="st1"
       points="257.6,343.9 241.5,340.4 222.2,360.9 238.4,364.3 238.4,364.3 247.4,391.2 258.6,379.4 249.6,352.4 "
       id="polygon227"
       style="fill:#f2f2f2" /><polygon
       class="st1"
       points="245.6,393.8 236.6,366.8 225.4,378.6 196.6,372.6 201.3,388.1 230.6,394.2 234.4,405.6 "
       id="polygon229"
       style="fill:#f2f2f2" /><polygon
       class="st1"
       points="148.8,92.9 177.2,99.1 172.5,83.7 172.4,83.7 191.6,62.9 175.4,59.4 156.3,80.2 144.1,77.5 "
       id="polygon231"
       style="fill:#f2f2f2" /><polygon
       class="st1"
       points="191.9,87.8 191.9,87.8 200.9,114.7 212.1,102.9 203.1,75.9 211.2,67.3 195,63.8 175.8,84.3 "
       id="polygon233"
       style="fill:#f2f2f2" /><polygon
       class="st1"
       points="190.2,90.3 179,102.1 150.1,96.1 154.8,111.5 184.1,117.6 188,129 199.2,117.2 "
       id="polygon235"
       style="fill:#f2f2f2" /><polygon
       class="st1"
       points="215.4,90.3 243.8,96.5 239,81.1 239,81.1 258.1,60.2 242,56.8 222.9,77.6 210.6,74.9 "
       id="polygon237"
       style="fill:#f2f2f2" /><polygon
       class="st1"
       points="258.5,85.1 258.5,85.1 267.5,112 278.7,100.2 269.7,73.2 277.7,64.7 261.6,61.2 242.4,81.7 "
       id="polygon239"
       style="fill:#f2f2f2" /><polygon
       class="st1"
       points="254.5,126.4 265.7,114.6 256.7,87.7 245.5,99.5 216.7,93.5 221.4,108.9 250.7,115 "
       id="polygon241"
       style="fill:#f2f2f2" /><polygon
       class="st1"
       points="184.8,147.9 213.2,154.1 208.5,138.7 208.5,138.7 227.6,117.8 211.4,114.3 192.4,135.1 180.1,132.5 "
       id="polygon243"
       style="fill:#f2f2f2" /><polygon
       class="st1"
       points="227.9,142.7 228,142.7 236.9,169.6 248.2,157.8 239.2,130.8 247.2,122.3 231,118.8 211.8,139.3 "
       id="polygon245"
       style="fill:#f2f2f2" /><polygon
       class="st1"
       points="224,184 235.2,172.2 226.2,145.2 215,157 186.1,151.1 190.8,166.5 220.2,172.6 "
       id="polygon247"
       style="fill:#f2f2f2" /><polygon
       class="st1"
       points="251.4,145.2 279.8,151.4 275.1,136 275,136 294.1,115.2 278,111.7 258.9,132.5 246.7,129.8 "
       id="polygon249"
       style="fill:#f2f2f2" /><polygon
       class="st1"
       points="294.5,140.1 294.5,140.1 303.5,167 314.7,155.2 305.7,128.2 313.7,119.6 297.6,116.2 278.4,136.6 "
       id="polygon251"
       style="fill:#f2f2f2" /><polygon
       class="st1"
       points="290.5,181.3 301.7,169.5 292.8,142.6 281.5,154.4 252.7,148.4 257.4,163.8 286.7,169.9 "
       id="polygon253"
       style="fill:#f2f2f2" /><polygon
       class="st1"
       points="317.9,142.6 346.3,148.8 341.6,133.4 341.6,133.4 360.7,112.5 344.6,109.1 325.5,129.9 313.2,127.2 "
       id="polygon255"
       style="fill:#f2f2f2" /><polygon
       class="st1"
       points="344.9,134 361.1,137.5 361.1,137.4 370.1,164.4 381.3,152.5 372.3,125.5 380.3,117 364.2,113.5 "
       id="polygon257"
       style="fill:#f2f2f2" /><polygon
       class="st1"
       points="359.3,140 348.1,151.8 319.2,145.8 324,161.2 353.3,167.3 357.1,178.7 368.3,166.9 "
       id="polygon259"
       style="fill:#f2f2f2" /><polygon
       class="st1"
       points="282,89.8 310.4,96 305.7,80.6 305.6,80.6 324.8,59.7 308.6,56.3 289.5,77.1 277.3,74.4 "
       id="polygon261"
       style="fill:#f2f2f2" /><polygon
       class="st1"
       points="325.1,84.6 325.1,84.6 334.1,111.5 345.3,99.7 336.3,72.7 344.4,64.2 328.2,60.7 309,81.2 "
       id="polygon263"
       style="fill:#f2f2f2" /><polygon
       class="st1"
       points="321.1,125.9 332.4,114.1 323.4,87.2 312.1,99 283.3,93 288,108.4 317.3,114.5 "
       id="polygon265"
       style="fill:#f2f2f2" /><polygon
       class="st1"
       points="250.8,206.7 246.1,191.3 246.1,191.3 265.2,170.5 249.1,167 230,187.8 217.7,185.1 222.4,200.5 "
       id="polygon267"
       style="fill:#f2f2f2" /><polygon
       class="st1"
       points="265.6,195.4 265.6,195.4 274.6,222.3 285.8,210.5 276.8,183.4 284.8,174.9 268.7,171.4 249.4,191.9 "
       id="polygon269"
       style="fill:#f2f2f2" /><polygon
       class="st1"
       points="261.6,236.6 272.8,224.8 263.8,197.9 252.6,209.7 223.7,203.7 228.5,219.1 257.8,225.2 "
       id="polygon271"
       style="fill:#f2f2f2" /><polygon
       class="st1"
       points="287.4,200.2 315.8,206.4 311.1,191 311,191 330.2,170.1 314,166.7 294.9,187.5 282.7,184.8 "
       id="polygon273"
       style="fill:#f2f2f2" /><polygon
       class="st1"
       points="330.5,195 330.5,195 339.5,221.9 350.7,210.1 341.7,183.1 349.8,174.6 333.6,171.1 314.4,191.6 "
       id="polygon275"
       style="fill:#f2f2f2" /><polygon
       class="st1"
       points="328.8,197.6 317.6,209.4 288.7,203.4 293.4,218.8 322.7,224.9 326.5,236.3 337.8,224.5 "
       id="polygon277"
       style="fill:#f2f2f2" /><polygon
       class="st1"
       points="381.6,140.6 410,146.8 405.3,131.4 405.3,131.4 424.4,110.5 408.3,107.1 389.2,127.9 376.9,125.2 "
       id="polygon279"
       style="fill:#f2f2f2" /><polygon
       class="st1"
       points="444,115 427.9,111.5 408.6,132 424.8,135.4 424.8,135.4 433.8,162.3 445,150.5 436,123.5 "
       id="polygon281"
       style="fill:#f2f2f2" /><polygon
       class="st1"
       points="411.8,149.8 382.9,143.8 387.7,159.2 417,165.3 420.8,176.7 432,164.9 423,138 "
       id="polygon283"
       style="fill:#f2f2f2" /><polygon
       class="st1"
       points="412.9,180.1 417.6,195.5 446.1,201.7 441.3,186.3 441.3,186.3 460.4,165.5 444.3,162 425.2,182.8 "
       id="polygon285"
       style="fill:#f2f2f2" /><polygon
       class="st1"
       points="460.8,190.4 460.8,190.4 469.8,217.3 481,205.5 472,178.5 480,169.9 463.9,166.5 444.6,186.9 "
       id="polygon287"
       style="fill:#f2f2f2" /><polygon
       class="st1"
       points="419,198.7 423.7,214.1 453,220.2 456.8,231.6 468,219.8 459,192.9 447.8,204.7 "
       id="polygon289"
       style="fill:#f2f2f2" /><polygon
       class="st1"
       points="364.8,-33.2 364.8,-33.2 383.9,-54.1 367.8,-57.6 348.7,-36.8 336.4,-39.4 341.1,-24 369.5,-17.8 "
       id="polygon291"
       style="fill:#f2f2f2" /><polygon
       class="st1"
       points="393.3,-2.3 404.5,-14.1 395.5,-41.1 403.5,-49.6 387.4,-53.1 368.1,-32.6 384.3,-29.2 384.3,-29.2 "
       id="polygon293"
       style="fill:#f2f2f2" /><polygon
       class="st1"
       points="347.2,-5.4 376.5,0.7 380.3,12.1 391.5,0.3 382.5,-26.7 371.3,-14.9 342.5,-20.8 "
       id="polygon295"
       style="fill:#f2f2f2" /><polygon
       class="st1"
       points="300.6,-32.2 319.7,-53.1 303.6,-56.5 284.5,-35.7 272.2,-38.4 276.9,-23 305.3,-16.8 300.6,-32.2 "
       id="polygon297"
       style="fill:#f2f2f2" /><polygon
       class="st1"
       points="329.1,-1.3 340.3,-13.1 331.3,-40.1 339.3,-48.6 323.2,-52.1 303.9,-31.6 320.1,-28.1 320.1,-28.2 "
       id="polygon299"
       style="fill:#f2f2f2" /><polygon
       class="st1"
       points="283,-4.4 312.3,1.7 316.1,13.1 327.3,1.3 318.3,-25.6 307.1,-13.8 278.3,-19.8 "
       id="polygon301"
       style="fill:#f2f2f2" /><polygon
       class="st1"
       points="340.5,39.6 335.8,24.1 335.7,24.1 354.9,3.3 338.7,-0.2 319.6,20.6 307.4,17.9 312.1,33.3 "
       id="polygon303"
       style="fill:#f2f2f2" /><polygon
       class="st1"
       points="339.1,24.7 355.2,28.2 355.2,28.2 364.2,55.1 375.4,43.3 366.4,16.3 374.5,7.7 358.3,4.3 "
       id="polygon305"
       style="fill:#f2f2f2" /><polygon
       class="st1"
       points="351.3,69.5 362.5,57.7 353.5,30.7 342.3,42.5 313.4,36.5 318.1,51.9 347.4,58 "
       id="polygon307"
       style="fill:#f2f2f2" /><polygon
       class="st1"
       points="431.4,-35.9 450.5,-56.7 434.3,-60.2 415.3,-39.4 403,-42.1 407.7,-26.7 436.1,-20.5 431.4,-35.9 "
       id="polygon309"
       style="fill:#f2f2f2" /><polygon
       class="st1"
       points="459.8,-4.9 471.1,-16.7 462.1,-43.7 470.1,-52.3 453.9,-55.7 434.7,-35.3 450.8,-31.8 450.9,-31.8 "
       id="polygon311"
       style="fill:#f2f2f2" /><polygon
       class="st1"
       points="449.1,-29.3 437.9,-17.5 409,-23.5 413.7,-8.1 443.1,-2 446.9,9.4 458.1,-2.4 "
       id="polygon313"
       style="fill:#f2f2f2" /><polygon
       class="st1"
       points="377.2,30.9 405.6,37.1 400.8,21.7 400.8,21.7 419.9,0.9 403.8,-2.6 384.7,18.2 372.4,15.5 "
       id="polygon315"
       style="fill:#f2f2f2" /><polygon
       class="st1"
       points="420.3,25.8 420.3,25.8 429.3,52.7 440.5,40.9 431.5,13.9 439.5,5.3 423.4,1.8 404.2,22.3 "
       id="polygon317"
       style="fill:#f2f2f2" /><polygon
       class="st1"
       points="407.3,40.1 378.5,34.1 383.2,49.5 412.5,55.6 416.3,67 427.5,55.2 418.5,28.3 "
       id="polygon319"
       style="fill:#f2f2f2" /><polygon
       class="st1"
       points="472.1,34.5 467.4,19.1 467.4,19.1 486.5,-1.8 470.4,-5.2 451.3,15.6 439,12.9 443.7,28.3 "
       id="polygon321"
       style="fill:#f2f2f2" /><polygon
       class="st1"
       points="495.9,50 507.1,38.2 498.1,11.2 506.1,2.7 490,-0.8 470.7,19.7 486.9,23.1 486.9,23.1 "
       id="polygon323"
       style="fill:#f2f2f2" /><polygon
       class="st1"
       points="445,31.5 449.8,46.9 479.1,53 482.9,64.4 494.1,52.6 485.1,25.7 473.9,37.5 "
       id="polygon325"
       style="fill:#f2f2f2" /><polygon
       class="st1"
       points="30.5,386.9 25.7,371.5 25.7,371.5 44.8,350.7 28.7,347.2 9.6,368 -2.7,365.3 2.1,380.7 "
       id="polygon327"
       style="fill:#f2f2f2" /><polygon
       class="st1"
       points="54.2,402.5 65.4,390.7 56.4,363.6 60.8,359 64.9,372.7 93.3,378.9 88.6,363.5 88.6,363.5 107.7,342.6 91.6,339.2 72.5,360 62,357.7 64.4,355.1 48.3,351.6 29.1,372.1 45.2,375.6 45.2,375.6 "
       id="polygon329"
       style="fill:#f2f2f2" /><polygon
       class="st1"
       points="41.2,416.8 52.4,405 43.4,378.1 32.2,389.9 3.4,383.9 8.1,399.3 37.4,405.4 "
       id="polygon331"
       style="fill:#f2f2f2" /><polygon
       class="st1"
       points="8.9,294.3 -7.2,290.9 -26.3,311.7 -38.5,309 -33.8,324.4 -5.4,330.6 -10.1,315.2 -10.2,315.2 "
       id="polygon333"
       style="fill:#f2f2f2" /><polygon
       class="st1"
       points="18.3,346.1 29.5,334.3 20.5,307.3 22.7,305 27.3,320 55.7,326.3 51,310.9 51,310.8 70.1,290 53.9,286.5 34.9,307.3 23,304.7 28.5,298.8 12.4,295.3 -6.8,315.8 9.3,319.2 9.3,319.2 "
       id="polygon335"
       style="fill:#f2f2f2" /><polygon
       class="st1"
       points="16.6,348.7 7.6,321.8 -3.7,333.6 -32.5,327.6 -27.8,343 1.5,349.1 5.3,360.5 "
       id="polygon337"
       style="fill:#f2f2f2" /><polygon
       class="st1"
       points="443.2,89.8 438.5,74.4 438.4,74.4 457.6,53.5 441.4,50 422.3,70.8 410.1,68.1 414.8,83.6 "
       id="polygon339"
       style="fill:#f2f2f2" /><polygon
       class="st1"
       points="461,54.5 441.8,74.9 457.9,78.4 457.9,78.4 466.9,105.3 478.1,93.5 469.1,66.5 477.2,58 "
       id="polygon341"
       style="fill:#f2f2f2" /><polygon
       class="st1"
       points="445,92.7 416.1,86.7 420.8,102.1 450.1,108.3 453.9,119.7 465.2,107.9 456.2,80.9 "
       id="polygon343"
       style="fill:#f2f2f2" /><polygon
       class="st1"
       points="238.2,517.4 242.9,532.8 271.3,539 266.6,523.6 266.6,523.6 285.7,502.7 269.6,499.3 250.5,520.1 "
       id="polygon345"
       style="fill:#f2f2f2" /><polygon
       class="st1"
       points="269.9,524.2 286.1,527.7 286.1,527.6 295.1,554.6 306.3,542.7 297.3,515.7 305.3,507.2 289.2,503.7 "
       id="polygon347"
       style="fill:#f2f2f2" /><polygon
       class="st1"
       points="249,551.4 278.3,557.5 282.1,568.9 293.3,557.1 284.3,530.2 273.1,542 244.2,536 "
       id="polygon349"
       style="fill:#f2f2f2" /><polygon
       class="st1"
       points="173.1,521.7 177.8,537.1 206.2,543.4 201.5,528 201.4,528 220.6,507.1 204.4,503.6 185.3,524.4 "
       id="polygon351"
       style="fill:#f2f2f2" /><polygon
       class="st1"
       points="204.8,528.5 220.9,532 220.9,532 229.9,558.9 241.2,547.1 232.1,520.1 240.2,511.6 224,508.1 "
       id="polygon353"
       style="fill:#f2f2f2" /><polygon
       class="st1"
       points="183.8,555.7 213.1,561.9 217,573.3 228.2,561.5 219.2,534.5 208,546.3 179.1,540.3 "
       id="polygon355"
       style="fill:#f2f2f2" /><polygon
       class="st1"
       points="366.8,513.8 371.5,529.2 399.9,535.4 395.2,520 395.2,520 414.3,499.1 398.1,495.7 379.1,516.5 "
       id="polygon357"
       style="fill:#f2f2f2" /><polygon
       class="st1"
       points="398.5,520.6 414.6,524.1 414.7,524 423.6,551 434.9,539.1 425.9,512.1 433.9,503.6 417.7,500.1 "
       id="polygon359"
       style="fill:#f2f2f2" /><polygon
       class="st1"
       points="377.5,547.8 406.9,553.9 410.7,565.3 421.9,553.5 412.9,526.6 401.7,538.4 372.8,532.4 "
       id="polygon361"
       style="fill:#f2f2f2" /><polygon
       class="st1"
       points="480.8,496.5 464.7,493 445.6,513.8 433.4,511.2 438.1,526.6 466.5,532.8 461.8,517.4 461.7,517.4 "
       id="polygon363"
       style="fill:#f2f2f2" /><polygon
       class="st1"
       points="484.3,497.5 465.1,518 481.2,521.4 481.2,521.4 490.2,548.3 501.4,536.5 492.4,509.5 500.4,501 "
       id="polygon365"
       style="fill:#f2f2f2" /><polygon
       class="st1"
       points="444.1,545.2 473.4,551.3 477.2,562.7 488.5,550.9 479.5,523.9 468.2,535.7 439.4,529.7 "
       id="polygon367"
       style="fill:#f2f2f2" /><polygon
       class="st1"
       points="154.6,511.3 138.4,507.8 119.3,528.6 107.1,525.9 111.8,541.3 140.2,547.5 135.5,532.1 135.4,532.1 "
       id="polygon369"
       style="fill:#f2f2f2" /><polygon
       class="st1"
       points="138.8,532.7 154.9,536.2 154.9,536.2 163.9,563.1 175.1,551.3 166.1,524.3 174.2,515.7 158,512.2 "
       id="polygon371"
       style="fill:#f2f2f2" /><polygon
       class="st1"
       points="117.8,559.9 147.1,566 150.9,577.4 162.2,565.6 153.2,538.7 142,550.5 113.1,544.5 "
       id="polygon373"
       style="fill:#f2f2f2" /><polygon
       class="st1"
       points="385.7,235.8 390.4,251.2 418.8,257.4 414.1,242 414.1,242 433.2,221.1 417.1,217.7 398,238.5 "
       id="polygon375"
       style="fill:#f2f2f2" /><polygon
       class="st1"
       points="436.7,222.1 417.4,242.6 433.6,246 433.6,246 442.6,272.9 453.8,261.1 444.8,234.1 452.8,225.6 "
       id="polygon377"
       style="fill:#f2f2f2" /><polygon
       class="st1"
       points="420.6,260.4 391.8,254.4 396.5,269.8 425.8,275.9 429.6,287.3 440.8,275.5 431.8,248.6 "
       id="polygon379"
       style="fill:#f2f2f2" /><polygon
       class="st1"
       points="348.1,183.8 352.8,199.2 381.2,205.5 376.5,190.1 376.5,190 395.6,169.2 379.5,165.7 360.4,186.5 "
       id="polygon381"
       style="fill:#f2f2f2" /><polygon
       class="st1"
       points="379.8,190.6 396,194.1 396,194.1 405,221 416.2,209.2 407.2,182.2 415.2,173.6 399.1,170.2 "
       id="polygon383"
       style="fill:#f2f2f2" /><polygon
       class="st1"
       points="383,208.4 354.1,202.4 358.9,217.8 388.2,224 392,235.4 403.2,223.6 394.2,196.6 "
       id="polygon385"
       style="fill:#f2f2f2" /><polygon
       class="st1"
       points="377.6,93.7 372.9,78.3 372.8,78.3 392,57.4 375.8,53.9 356.8,74.7 344.5,72.1 349.2,87.5 "
       id="polygon387"
       style="fill:#f2f2f2" /><polygon
       class="st1"
       points="376.2,78.9 392.3,82.3 392.4,82.3 401.3,109.2 412.6,97.4 403.5,70.4 411.6,61.9 395.4,58.4 "
       id="polygon389"
       style="fill:#f2f2f2" /><polygon
       class="st1"
       points="390.6,84.8 379.4,96.6 350.5,90.6 355.2,106.1 384.6,112.2 388.4,123.6 399.6,111.8 "
       id="polygon391"
       style="fill:#f2f2f2" /><polygon
       class="st1"
       points="301.9,516.1 306.7,531.5 335.1,537.7 330.3,522.3 330.3,522.3 349.4,501.4 333.3,498 314.2,518.8 "
       id="polygon393"
       style="fill:#f2f2f2" /><polygon
       class="st1"
       points="333.7,522.9 349.8,526.4 349.8,526.3 358.8,553.2 370,541.4 361,514.4 369,505.9 352.9,502.4 "
       id="polygon395"
       style="fill:#f2f2f2" /><polygon
       class="st1"
       points="312.7,550.1 342,556.2 345.8,567.6 357,555.8 348,528.9 336.8,540.7 308,534.7 "
       id="polygon397"
       style="fill:#f2f2f2" /><polygon
       class="st1"
       points="0.6,442.9 -4.1,427.5 -4.1,427.5 15,406.6 -1.1,403.2 -20.2,424 -32.5,421.3 -27.8,436.7 "
       id="polygon399"
       style="fill:#f2f2f2" /><polygon
       class="st1"
       points="24.4,458.4 35.6,446.6 26.6,419.6 34.6,411.1 18.5,407.6 -0.8,428.1 15.4,431.6 15.4,431.5 "
       id="polygon401"
       style="fill:#f2f2f2" /><polygon
       class="st1"
       points="22.6,461 13.6,434.1 2.4,445.9 -26.5,439.9 -21.7,455.3 7.6,461.4 11.4,472.8 "
       id="polygon403"
       style="fill:#f2f2f2" /><polygon
       class="st1"
       points="-15.5,464.2 -31.7,460.7 -50.8,481.5 -63,478.9 -58.3,494.3 -29.9,500.5 -34.6,485.1 -34.7,485.1 "
       id="polygon405"
       style="fill:#f2f2f2" /><polygon
       class="st1"
       points="-6.2,516 5,504.2 -4,477.2 4.1,468.7 -12.1,465.2 -31.3,485.7 -15.2,489.1 -15.2,489.1 "
       id="polygon407"
       style="fill:#f2f2f2" /><polygon
       class="st1"
       points="-28.2,503.4 -57,497.5 -52.3,512.9 -23,519 -19.2,530.4 -7.9,518.6 -16.9,491.6 "
       id="polygon409"
       style="fill:#f2f2f2" /><polygon
       class="st1"
       points="31.9,482.4 51,461.6 34.9,458.1 15.8,478.9 3.5,476.2 8.2,491.6 36.7,497.8 31.9,482.4 "
       id="polygon411"
       style="fill:#f2f2f2" /><polygon
       class="st1"
       points="60.4,513.4 71.6,501.6 62.6,474.6 70.6,466 54.5,462.6 35.2,483 51.4,486.5 51.4,486.5 "
       id="polygon413"
       style="fill:#f2f2f2" /><polygon
       class="st1"
       points="58.6,515.9 49.6,489 38.4,500.8 9.6,494.8 14.3,510.2 43.6,516.3 47.4,527.7 "
       id="polygon415"
       style="fill:#f2f2f2" /><polygon
       class="st1"
       points="70.1,473.6 74.8,489 103.2,495.2 98.5,479.8 98.5,479.8 117.6,458.9 101.5,455.5 82.4,476.3 "
       id="polygon417"
       style="fill:#f2f2f2" /><polygon
       class="st1"
       points="137.2,463.4 121,459.9 101.8,480.4 118,483.9 118,483.8 127,510.8 138.2,498.9 129.2,471.9 "
       id="polygon419"
       style="fill:#f2f2f2" /><polygon
       class="st1"
       points="116.2,486.4 105,498.2 76.1,492.2 80.8,507.6 110.2,513.7 114,525.1 125.2,513.3 "
       id="polygon421"
       style="fill:#f2f2f2" /><polygon
       class="st1"
       points="162,473.7 162,473.7 181.1,452.8 165,449.4 145.9,470.2 133.6,467.5 138.4,482.9 166.8,489.1 "
       id="polygon423"
       style="fill:#f2f2f2" /><polygon
       class="st1"
       points="201.7,492.8 192.7,465.8 200.7,457.3 184.6,453.8 165.4,474.3 181.5,477.7 181.5,477.7 190.5,504.6 "
       id="polygon425"
       style="fill:#f2f2f2" /><polygon
       class="st1"
       points="188.7,507.2 179.7,480.3 168.5,492.1 139.7,486.1 144.4,501.5 173.7,507.6 177.5,519 "
       id="polygon427"
       style="fill:#f2f2f2" /><polygon
       class="st1"
       points="247.6,447.4 231.5,443.9 212.4,464.7 205.4,463.2 216.2,451.8 207.3,424.8 196,436.7 167.2,430.7 171.9,446.1 201.2,452.2 204.8,463 200.1,462 204.8,477.4 233.2,483.6 228.5,468.2 228.5,468.2 "
       id="polygon429"
       style="fill:#f2f2f2" /><polygon
       class="st1"
       points="268.2,487.4 259.2,460.3 267.2,451.8 251.1,448.3 231.8,468.8 248,472.3 248,472.2 257,499.2 "
       id="polygon431"
       style="fill:#f2f2f2" /><polygon
       class="st1"
       points="246.2,474.8 235,486.6 206.2,480.6 210.9,496 240.2,502.1 244,513.5 255.2,501.7 "
       id="polygon433"
       style="fill:#f2f2f2" /><polygon
       class="st1"
       points="312.8,444.4 296.7,440.9 277.6,461.7 265.3,459.1 270,474.5 298.4,480.7 293.7,465.3 293.7,465.3 "
       id="polygon435"
       style="fill:#f2f2f2" /><polygon
       class="st1"
       points="333.4,484.4 324.4,457.4 332.4,448.9 316.3,445.4 297,465.9 313.2,469.3 313.2,469.3 322.2,496.2 "
       id="polygon437"
       style="fill:#f2f2f2" /><polygon
       class="st1"
       points="311.4,471.8 300.2,483.6 271.3,477.7 276.1,493.1 305.4,499.2 309.2,510.6 320.4,498.8 "
       id="polygon439"
       style="fill:#f2f2f2" /><polygon
       class="st1"
       points="377,443.4 360.9,439.9 341.8,460.7 329.5,458 334.2,473.4 362.6,479.7 357.9,464.3 357.9,464.2 "
       id="polygon441"
       style="fill:#f2f2f2" /><polygon
       class="st1"
       points="397.6,483.4 388.6,456.4 396.6,447.8 380.5,444.4 361.2,464.8 377.4,468.3 377.4,468.3 386.4,495.2 "
       id="polygon443"
       style="fill:#f2f2f2" /><polygon
       class="st1"
       points="375.6,470.8 364.4,482.6 335.5,476.6 340.3,492 369.6,498.2 373.4,509.6 384.6,497.8 "
       id="polygon445"
       style="fill:#f2f2f2" /><polygon
       class="st1"
       points="393.5,454.8 398.2,470.2 426.6,476.5 421.9,461.1 421.8,461 441,440.2 424.8,436.7 405.7,457.5 "
       id="polygon447"
       style="fill:#f2f2f2" /><polygon
       class="st1"
       points="460.6,444.6 444.4,441.2 425.2,461.6 441.3,465.1 441.3,465.1 450.3,492 461.5,480.2 452.5,453.2 "
       id="polygon449"
       style="fill:#f2f2f2" /><polygon
       class="st1"
       points="439.6,467.6 428.4,479.4 399.5,473.4 404.2,488.8 433.5,495 437.3,506.4 448.6,494.6 "
       id="polygon451"
       style="fill:#f2f2f2" /><polygon
       class="st1"
       points="62.5,427 81.6,406.1 65.5,402.7 46.4,423.5 34.1,420.8 38.9,436.2 67.3,442.4 62.5,427 "
       id="polygon453"
       style="fill:#f2f2f2" /><polygon
       class="st1"
       points="91,457.9 102.2,446.1 93.2,419.1 101.2,410.6 85.1,407.1 65.9,427.6 82,431 82,431 "
       id="polygon455"
       style="fill:#f2f2f2" /><polygon
       class="st1"
       points="89.2,460.5 80.2,433.6 69,445.4 40.2,439.4 44.9,454.8 74.2,460.9 78,472.3 "
       id="polygon457"
       style="fill:#f2f2f2" /><polygon
       class="st1"
       points="146.4,401 130.3,397.5 111.2,418.3 98.9,415.6 103.6,431 132,437.3 127.3,421.8 127.3,421.8 "
       id="polygon459"
       style="fill:#f2f2f2" /><polygon
       class="st1"
       points="167,441 158,414 166,405.4 149.9,402 130.6,422.4 146.8,425.9 146.8,425.9 155.8,452.8 "
       id="polygon461"
       style="fill:#f2f2f2" /><polygon
       class="st1"
       points="145,428.4 133.8,440.2 104.9,434.2 109.7,449.6 139,455.7 142.8,467.2 154,455.4 "
       id="polygon463"
       style="fill:#f2f2f2" /><polygon
       class="st1"
       points="208.6,397.4 192.5,393.9 173.4,414.8 161.2,412.1 165.9,427.5 194.3,433.7 189.6,418.3 189.5,418.3 "
       id="polygon465"
       style="fill:#f2f2f2" /><polygon
       class="st1"
       points="229.2,437.4 220.2,410.4 228.2,401.9 212.1,398.4 192.9,418.9 209,422.3 209,422.3 218,449.2 "
       id="polygon467"
       style="fill:#f2f2f2" /><polygon
       class="st1"
       points="274.4,391.1 258.3,387.6 239.2,408.4 226.9,405.7 231.6,421.1 260,427.3 255.3,411.9 255.3,411.9 "
       id="polygon469"
       style="fill:#f2f2f2" /><polygon
       class="st1"
       points="294,395.5 277.9,392.1 258.6,412.5 274.8,416 274.8,416 283.8,442.9 295,431.1 286,404.1 "
       id="polygon471"
       style="fill:#f2f2f2" /><polygon
       class="st1"
       points="282,445.4 273,418.5 261.8,430.3 233,424.3 237.7,439.7 267,445.8 270.8,457.2 "
       id="polygon473"
       style="fill:#f2f2f2" /><polygon
       class="st1"
       points="321.9,411.4 341,390.6 324.9,387.1 305.8,407.9 293.5,405.2 298.3,420.6 326.7,426.8 322,411.4 "
       id="polygon475"
       style="fill:#f2f2f2" /><polygon
       class="st1"
       points="360.6,395 344.5,391.6 325.3,412 341.4,415.5 341.4,415.5 350.4,442.4 361.6,430.6 352.6,403.6 "
       id="polygon477"
       style="fill:#f2f2f2" /><polygon
       class="st1"
       points="348.6,444.9 339.7,418 328.4,429.8 299.6,423.8 304.3,439.2 333.6,445.3 337.4,456.7 "
       id="polygon479"
       style="fill:#f2f2f2" /><polygon
       class="st1"
       points="358.3,400.1 363,415.5 391.4,421.7 386.7,406.3 386.7,406.3 405.8,385.4 389.7,382 370.6,402.8 "
       id="polygon481"
       style="fill:#f2f2f2" /><polygon
       class="st1"
       points="390,406.9 406.2,410.4 406.2,410.3 415.2,437.2 426.4,425.4 417.4,398.4 425.4,389.9 409.3,386.4 "
       id="polygon483"
       style="fill:#f2f2f2" /><polygon
       class="st1"
       points="413.4,439.8 404.4,412.9 393.2,424.7 364.4,418.7 369.1,434.1 398.4,440.2 402.2,451.6 "
       id="polygon485"
       style="fill:#f2f2f2" /><polygon
       class="st1"
       points="425.3,411.9 453.7,418.1 449,402.7 448.9,402.7 468,381.9 451.9,378.4 432.8,399.2 420.6,396.5 "
       id="polygon487"
       style="fill:#f2f2f2" /><polygon
       class="st1"
       points="477.4,433.7 488.6,421.9 479.6,394.9 487.6,386.3 471.5,382.8 452.3,403.3 468.4,406.8 468.4,406.8 "
       id="polygon489"
       style="fill:#f2f2f2" /><polygon
       class="st1"
       points="426.6,415.1 431.3,430.5 460.6,436.6 464.4,448 475.7,436.2 466.7,409.3 455.4,421.1 "
       id="polygon491"
       style="fill:#f2f2f2" /><polygon
       class="st1"
       points="386.5,343.2 390.2,339.2 374.1,335.7 354.9,356.2 371,359.7 371,359.6 380,386.5 391.2,374.7 382.2,347.7 386.3,343.4 390.9,358.6 419.3,364.8 414.6,349.4 414.5,349.4 433.7,328.5 417.5,325 398.5,345.8 "
       id="polygon493"
       style="fill:#f2f2f2" /><polygon
       class="st1"
       points="434,353.4 434.1,353.4 443,380.3 454.3,368.5 445.2,341.5 453.3,333 437.1,329.5 417.9,350 "
       id="polygon495"
       style="fill:#f2f2f2" /><polygon
       class="st1"
       points="421.1,367.7 392.2,361.7 396.9,377.2 426.3,383.3 430.1,394.7 441.3,382.9 432.3,355.9 "
       id="polygon497"
       style="fill:#f2f2f2" /><polygon
       class="st1"
       points="22.1,516.9 5.9,513.4 -13.1,534.2 -25.4,531.5 -20.7,546.9 7.7,553.1 3,537.7 3,537.7 "
       id="polygon499"
       style="fill:#f2f2f2" /><polygon
       class="st1"
       points="6.3,538.3 22.4,541.8 22.5,541.8 31.4,568.7 42.7,556.9 33.7,529.8 41.7,521.3 25.5,517.8 "
       id="polygon501"
       style="fill:#f2f2f2" /><polygon
       class="st1"
       points="-14.7,565.5 14.7,571.6 18.5,583 29.7,571.2 20.7,544.3 9.5,556.1 -19.4,550.1 "
       id="polygon503"
       style="fill:#f2f2f2" /><polygon
       class="st1"
       points="39.5,531.2 44.3,546.6 72.7,552.8 68,537.4 67.9,537.4 87,516.5 70.9,513.1 51.8,533.9 "
       id="polygon505"
       style="fill:#f2f2f2" /><polygon
       class="st1"
       points="71.3,538 87.4,541.4 87.4,541.4 96.4,568.3 107.6,556.5 98.6,529.5 106.6,521 90.5,517.5 "
       id="polygon507"
       style="fill:#f2f2f2" /><polygon
       class="st1"
       points="50.3,565.2 79.6,571.3 83.4,582.7 94.6,570.9 85.6,544 74.4,555.8 45.6,549.8 "
       id="polygon509"
       style="fill:#f2f2f2" /></g></svg>