<?xml version="1.0" encoding="utf-8"?>
<!-- Generator: Adobe Illustrator 21.1.0, SVG Export Plug-In . SVG Version: 6.00 Build 0)  -->
<svg version="1.1" id="Layer_1" xmlns="http://www.w3.org/2000/svg" xmlns:xlink="http://www.w3.org/1999/xlink" x="0px" y="0px"
	 viewBox="0 0 100 100" style="enable-background:new 0 0 100 100;" xml:space="preserve">
<style type="text/css">
	.st0{fill:#29ABE2;}
	.st1{fill:#FFFFFF;}
</style>
<g>
	<path class="st0" d="M36.5,30.6c0-1.2,0-2.5,0-3.9c0.7,0,1.2,0,1.7,0c0.6-0.1,1.3-0.1,1.6-0.4c2.4-2.5,5.4-4,8.7-4.6
		c0-1.4,0-2.6,0-4c-4,0-8,0-12,0c-0.1-1.5-0.1-2.8-0.2-4.2c-0.1,0-0.2,0-0.3,0c-2.8,2.8-5.7,5.7-8.5,8.5c0,0.1,0,0.2,0,0.3
		c2.9,2.8,5.7,5.7,8.6,8.5C36.2,30.7,36.3,30.7,36.5,30.6z"/>
	<path class="st0" d="M53.3,52c0,1.4,0,2.6,0,4c4,0,8,0,12,0c0.1,1.5,0.1,2.8,0.2,4.2c0.1,0,0.2,0,0.3,0c2.8-2.8,5.7-5.7,8.5-8.5
		c0-0.1,0-0.2,0-0.3c-2.9-2.8-5.7-5.7-8.9-8.9c0,1.4,0,2.3,0,3.3c0.1,0.9-0.3,1.2-1.2,1.2c-0.7,0-1.7,0-2.2,0.4
		C59.6,49.9,56.7,51.4,53.3,52z"/>
	<path class="st0" d="M53.1,36.2c1.4,0.3,2.8,0.2,4.2-0.1c0.6-0.2,1.1-0.3,1.5-0.9c0-0.1,0-0.2,0-0.3c-0.3-0.4-0.6-0.6-1-0.7
		c-1.1-0.4-2.2-0.5-3.3-0.4c-0.5,0-1,0.1-1.6,0.2c0,0.8,0,1.4,0,2.1C52.9,36.1,53,36.2,53.1,36.2z"/>
	<path class="st0" d="M57.8,37c-0.3,0.1-0.6,0.2-0.9,0.3c-1.3,0.3-2.7,0.3-4,0c0,0.5,0,1,0,1.5c0,0.1,0.1,0.1,0.2,0.2
		c1.5,0.3,3,0.3,4.5-0.2c0.5-0.1,0.9-0.4,1.1-0.8c0-0.5,0-1,0-1.6C58.5,36.7,58.1,36.9,57.8,37z"/>
	<path class="st0" d="M57.8,39.7c-0.3,0.1-0.6,0.2-0.9,0.3c-1.3,0.3-2.7,0.3-4,0c0,0.5,0,1,0,1.5c0,0.1,0.1,0.1,0.2,0.2
		c1.5,0.3,3,0.3,4.5-0.2c0.5-0.1,0.9-0.4,1.1-0.8c0-0.5,0-1,0-1.6C58.5,39.4,58.1,39.6,57.8,39.7z"/>
	<path class="st0" d="M45.3,32.1c0.9,0.4,1.8,0.4,3.1,0.4c0.3,0,1-0.1,1.6-0.2c0.6-0.1,1.2-0.3,1.7-0.6c0.4-0.3,0.5-0.8,0-1.1
		c-0.3-0.2-0.6-0.4-1-0.5c-1.7-0.5-3.3-0.5-5,0c-0.4,0.1-0.8,0.3-1.1,0.6c-0.3,0.2-0.3,0.6,0,0.9C44.8,31.8,45.1,32,45.3,32.1z"/>
	<path class="st0" d="M50.7,41.4c-1.7,0.5-3.5,0.5-5.2,0c-0.5-0.1-0.9-0.3-1.2-0.8c0,0.5,0,0.9,0,1.4c0,0.2,0.1,0.4,0.2,0.5
		c0.3,0.2,0.6,0.4,0.9,0.5c1.4,0.5,2.8,0.5,4.3,0.3c0.6-0.1,1.2-0.2,1.7-0.6c0.2-0.1,0.4-0.4,0.5-0.6c0.1-0.5,0-0.9,0-1.5
		C51.6,41.1,51.2,41.3,50.7,41.4z"/>
	<path class="st0" d="M44.7,34.5c0.3,0.2,0.6,0.3,0.9,0.4c1.3,0.4,2.7,0.4,4.1,0.2c0.6-0.1,1.2-0.3,1.7-0.5c0.3-0.1,0.5-0.3,0.5-0.6
		c0-0.5,0-0.9,0-1.4c-0.4,0.4-0.6,0.6-1.2,0.8c-1.3,0.4-2.7,0.4-4.1,0.2c-0.9-0.1-1.7-0.3-2.3-1c0,0.4,0,0.8,0,1.2
		C44.3,34.1,44.4,34.3,44.7,34.5z"/>
	<path class="st0" d="M45.1,37.4c0.1,0.1,0.3,0.1,0.4,0.2c1.4,0.4,2.8,0.5,4.2,0.2c0.6-0.1,1.2-0.3,1.7-0.6c0.3-0.1,0.5-0.3,0.5-0.6
		c0-0.5,0-0.9,0-1.5c-0.3,0.5-0.8,0.7-1.2,0.8c-1.7,0.5-3.5,0.5-5.2,0c-0.5-0.1-0.9-0.3-1.2-0.8c0,0.4,0,0.7,0,1
		C44.2,36.8,44.6,37.2,45.1,37.4z"/>
	<path class="st0" d="M45.2,40.1c0.1,0,0.2,0.1,0.3,0.1c1.4,0.4,2.8,0.5,4.2,0.2c0.6-0.1,1.2-0.2,1.7-0.6c0.3-0.2,0.5-0.3,0.5-0.7
		c0-0.4,0-0.9,0-1.4c-0.3,0.5-0.8,0.7-1.2,0.8c-1.7,0.5-3.5,0.5-5.2,0c-0.5-0.1-0.9-0.3-1.2-0.8c0,0.4,0,0.7,0,1
		C44.2,39.6,44.6,39.9,45.2,40.1z"/>
	<path class="st0" d="M38.1,36.7c-0.1,7.2,5.6,12.9,12.7,13c7.2,0.1,12.9-5.6,13-12.8C63.8,29.8,58.1,24,51,24
		C43.8,24,38.1,29.6,38.1,36.7z M50.9,26.3c5.9,0,10.5,4.7,10.5,10.6c0,5.9-4.7,10.5-10.6,10.5c-5.9,0-10.5-4.8-10.4-10.6
		C40.4,30.9,45.1,26.3,50.9,26.3z"/>
	<path class="st0" d="M50,76.2c21,0,38.1-17.1,38.1-38.1S71,0,50,0S11.9,17.1,11.9,38.1S29,76.2,50,76.2z M50,3.9
		c18.9,0,34.2,15.3,34.2,34.2S68.9,72.3,50,72.3S15.8,57,15.8,38.1S31.1,3.9,50,3.9z"/>
	<path class="st0" d="M82.5,81.8H17.5c-5,0-9.1,4.1-9.1,9.1v0c0,5,4.1,9.1,9.1,9.1h65.1c5,0,9.1-4.1,9.1-9.1v0
		C91.6,85.9,87.6,81.8,82.5,81.8z"/>
</g>
<g>
	<g>
		<path class="st1" d="M30.6,88.5h-1.6v4.4h-0.7v-4.4h-1.6V88h3.8V88.5z"/>
		<path class="st1" d="M32,90.8v2.1h-0.7V88h1.8c0.5,0,0.9,0.1,1.2,0.4c0.3,0.2,0.4,0.6,0.4,1c0,0.3-0.1,0.5-0.2,0.7
			c-0.1,0.2-0.3,0.3-0.6,0.4c0.3,0.1,0.5,0.2,0.6,0.4c0.1,0.2,0.2,0.4,0.2,0.7v0.5c0,0.2,0,0.3,0.1,0.4c0,0.1,0.1,0.2,0.2,0.3v0.1
			h-0.7c-0.1-0.1-0.1-0.2-0.2-0.3c0-0.1,0-0.3,0-0.5v-0.4c0-0.3-0.1-0.5-0.2-0.6c-0.2-0.2-0.4-0.2-0.6-0.2H32z M32,90.3h1
			c0.4,0,0.6-0.1,0.8-0.2c0.2-0.1,0.2-0.4,0.2-0.6c0-0.3-0.1-0.5-0.2-0.6c-0.2-0.2-0.4-0.2-0.7-0.2H32V90.3z"/>
		<path class="st1" d="M38.6,91.7h-2.1l-0.5,1.3h-0.7l1.9-4.9h0.6l1.9,4.9H39L38.6,91.7z M36.7,91.1h1.6l-0.8-2.2h0L36.7,91.1z"/>
		<path class="st1" d="M44.1,92.9h-0.7l-2.4-3.8l0,0v3.8h-0.7V88H41l2.4,3.8l0,0V88h0.7V92.9z"/>
		<path class="st1" d="M48,91.7c0-0.2-0.1-0.4-0.3-0.6c-0.2-0.2-0.5-0.3-0.9-0.4c-0.5-0.1-0.9-0.3-1.2-0.5c-0.3-0.2-0.4-0.5-0.4-0.9
			c0-0.4,0.2-0.7,0.5-1s0.7-0.4,1.2-0.4c0.5,0,1,0.1,1.3,0.4c0.3,0.3,0.5,0.6,0.5,1l0,0h-0.6c0-0.3-0.1-0.5-0.3-0.7
			c-0.2-0.2-0.5-0.3-0.8-0.3c-0.3,0-0.6,0.1-0.8,0.2c-0.2,0.1-0.3,0.3-0.3,0.6c0,0.2,0.1,0.4,0.3,0.5s0.5,0.3,0.9,0.4
			c0.5,0.1,0.9,0.3,1.2,0.6s0.4,0.6,0.4,0.9c0,0.4-0.2,0.7-0.5,1S47.4,93,46.9,93c-0.5,0-0.9-0.1-1.3-0.4S45,92,45,91.5l0,0h0.6
			c0,0.3,0.1,0.6,0.3,0.7c0.2,0.2,0.5,0.2,0.9,0.2c0.3,0,0.6-0.1,0.8-0.2S48,91.9,48,91.7z"/>
		<path class="st1" d="M52.2,91.7h-2.1l-0.5,1.3H49l1.9-4.9h0.6l1.9,4.9h-0.7L52.2,91.7z M50.4,91.1H52l-0.8-2.2h0L50.4,91.1z"/>
		<path class="st1" d="M57.5,91.3L57.5,91.3c0,0.5-0.1,0.9-0.5,1.2c-0.3,0.3-0.8,0.5-1.3,0.5c-0.6,0-1-0.2-1.4-0.6
			c-0.3-0.4-0.5-0.9-0.5-1.5V90c0-0.6,0.2-1.1,0.5-1.5c0.3-0.4,0.8-0.6,1.4-0.6s1,0.1,1.3,0.4c0.3,0.3,0.5,0.7,0.5,1.2l0,0h-0.6
			c0-0.3-0.1-0.6-0.3-0.8c-0.2-0.2-0.5-0.3-0.9-0.3c-0.4,0-0.7,0.1-0.9,0.4s-0.3,0.7-0.3,1.1v0.9c0,0.4,0.1,0.8,0.3,1.1
			s0.5,0.4,0.9,0.4c0.4,0,0.7-0.1,0.9-0.3c0.2-0.2,0.3-0.5,0.3-0.8H57.5z"/>
		<path class="st1" d="M61.6,88.5H60v4.4h-0.7v-4.4h-1.6V88h3.8V88.5z"/>
		<path class="st1" d="M63,92.9h-0.7V88H63V92.9z"/>
		<path class="st1" d="M68,90.9c0,0.6-0.2,1.1-0.6,1.5C67.1,92.8,66.6,93,66,93c-0.6,0-1-0.2-1.4-0.6c-0.4-0.4-0.5-0.9-0.5-1.5V90
			c0-0.6,0.2-1.1,0.5-1.5s0.8-0.6,1.4-0.6c0.6,0,1.1,0.2,1.4,0.6c0.4,0.4,0.6,0.9,0.6,1.5V90.9z M67.3,90c0-0.4-0.1-0.8-0.4-1.1
			s-0.6-0.4-1-0.4c-0.4,0-0.7,0.1-0.9,0.4s-0.3,0.7-0.3,1.1v0.9c0,0.5,0.1,0.8,0.3,1.1c0.2,0.3,0.5,0.4,0.9,0.4c0.4,0,0.7-0.1,1-0.4
			c0.2-0.3,0.4-0.7,0.4-1.1V90z"/>
		<path class="st1" d="M72.7,92.9H72l-2.4-3.8l0,0v3.8H69V88h0.7l2.4,3.8l0,0V88h0.7V92.9z"/>
	</g>
</g>
</svg>
