<?xml version="1.0" encoding="utf-8"?>
<!-- Generator: Adobe Illustrator 21.1.0, SVG Export Plug-In . SVG Version: 6.00 Build 0)  -->
<svg version="1.1" id="Layer_1" xmlns="http://www.w3.org/2000/svg" xmlns:xlink="http://www.w3.org/1999/xlink" x="0px" y="0px"
	 viewBox="0 0 100 100" style="enable-background:new 0 0 100 100;" xml:space="preserve">
<style type="text/css">
	.st0{fill:#FF8A8A;}
	.st1{fill:#FFFFFF;}
</style>
<g>
	<g>
		<path class="st0" d="M29,55c1.4,0.5,2.8,1,4.3,1.3c3.9,0.9,7.8,1.2,11.8,1.4c6.4,0.3,12.7,0.1,19-0.9c2.3-0.4,4.5-0.9,6.6-1.8
			c0.6-0.2,0.7-0.4,0.7-1.1c-0.1-0.9-0.2-1.8-0.3-2.7c-0.8-4.2-3-7.5-6.9-9.6c-1.6-0.8-3.3-1.5-4.9-2.2c-0.6-0.3-1.3-0.5-2-0.7
			c-0.2,0.7-0.3,1.3-0.5,1.8c-1.3,5.3-3.3,10.3-6.2,15c-0.6,1-0.9,1-1.5,0c-2.7-4.5-4.7-9.2-6-14.3c-0.2-0.8-0.4-1.6-0.6-2.5
			c-0.1,0-0.2,0-0.2,0c-2.5,0.9-5,1.8-7.3,3.2c-2.3,1.4-4.1,3.3-5.2,5.8c-0.8,2-1.3,4-1.4,6.1C28.3,54.6,28.4,54.8,29,55z"/>
		<path class="st0" d="M41.8,33.1c0.2,0.1,0.4,0.3,0.4,0.5c0.7,1.9,1.8,3.5,3.5,4.6c1.7,1.1,3.5,1.7,5.5,1.2c3.1-0.8,5-2.8,6.2-5.6
			c0.1-0.2,0.2-0.5,0.4-0.6c2.5-1.4,3.3-3.6,3.1-6.3c0-0.7-0.3-1.4-0.9-1.6c-0.8-0.4-0.8-1-0.7-1.6c0-0.1,0-0.2,0-0.3c0,0,0,0,0.1,0
			c-0.1-0.9-0.1-1.8-0.3-2.7c-0.5-3.2-2.1-5.6-5.2-6.8c-2-0.8-4.1-0.9-6.2-0.6c-3.5,0.5-6.2,2.9-7,6.3c-0.4,1.6-0.5,3.3-0.4,4.9
			c0,0.2,0,0.4-0.3,0.5c-0.8,0.3-1.2,1-1.3,1.7C38.5,29.1,39.1,31.6,41.8,33.1z"/>
		<path class="st0" d="M47.8,50.6c0.6,1.2,1.2,2.4,1.9,3.6c0.1,0,0.1,0,0.2,0c0.6-1.2,1.3-2.4,1.9-3.7c0.1-0.1,0-0.3,0-0.4
			c-0.2-0.8-0.4-1.5-0.5-2.3c-0.1-0.3-0.2-0.5-0.5-0.4c-0.6,0-1.2,0-1.9,0c-0.3,0-0.5,0.1-0.6,0.5c-0.2,0.8-0.4,1.5-0.5,2.3
			C47.8,50.3,47.8,50.5,47.8,50.6z"/>
		<path class="st0" d="M48.3,43.4c-0.4,0-0.5,0.1-0.5,0.5c0.2,0.7,0.3,1.5,0.4,2.2c0.1,0.3,0.2,0.5,0.6,0.5c0.6,0,1.3,0,1.9,0
			c0.4,0,0.5-0.1,0.6-0.5c0.1-0.8,0.3-1.5,0.4-2.3c0.1-0.4-0.1-0.5-0.4-0.5c-0.5,0-1.1,0-1.6,0c0,0,0,0,0,0
			C49.3,43.4,48.8,43.5,48.3,43.4z"/>
		<path class="st0" d="M50,75.9c21,0,38-17,38-38C88,17,71,0,50,0C29,0,12,17,12,38C12,58.9,29,75.9,50,75.9z M50,3.9
			c18.8,0,34,15.2,34,34c0,18.8-15.2,34-34,34S16,56.8,16,38C16,19.2,31.2,3.9,50,3.9z"/>
		<path class="st0" d="M82.4,81.9H17.6c-5,0-9.1,4.1-9.1,9.1v0c0,5,4.1,9.1,9.1,9.1h64.8c5,0,9.1-4.1,9.1-9.1v0
			C91.5,85.9,87.4,81.9,82.4,81.9z"/>
	</g>
	<g>
		<g>
			<path class="st1" d="M35.8,91.4L35.8,91.4c0,0.5-0.1,0.9-0.5,1.2C35,92.9,34.6,93,34.1,93c-0.6,0-1-0.2-1.3-0.6s-0.5-0.9-0.5-1.5
				v-0.9c0-0.6,0.2-1.1,0.5-1.5s0.8-0.6,1.3-0.6s1,0.1,1.3,0.4c0.3,0.3,0.5,0.7,0.5,1.2l0,0h-0.6c0-0.3-0.1-0.6-0.3-0.8
				c-0.2-0.2-0.5-0.3-0.9-0.3c-0.4,0-0.7,0.1-0.9,0.4c-0.2,0.3-0.3,0.7-0.3,1.1v0.9c0,0.4,0.1,0.8,0.3,1.1s0.5,0.4,0.9,0.4
				c0.4,0,0.6-0.1,0.9-0.3c0.2-0.2,0.3-0.5,0.3-0.8H35.8z"/>
			<path class="st1" d="M40.3,88.1v3.3c0,0.5-0.2,0.9-0.5,1.2S39,93,38.4,93c-0.5,0-1-0.1-1.3-0.4s-0.5-0.7-0.5-1.2v-3.3h0.7v3.3
				c0,0.4,0.1,0.6,0.3,0.8c0.2,0.2,0.5,0.3,0.8,0.3c0.4,0,0.7-0.1,0.9-0.3c0.2-0.2,0.3-0.5,0.3-0.8v-3.3H40.3z"/>
			<path class="st1" d="M44,91.7c0-0.2-0.1-0.4-0.3-0.6c-0.2-0.1-0.5-0.3-0.9-0.4c-0.5-0.1-0.9-0.3-1.2-0.5
				c-0.3-0.2-0.4-0.5-0.4-0.9c0-0.4,0.2-0.7,0.5-1c0.3-0.3,0.7-0.4,1.2-0.4c0.5,0,1,0.1,1.3,0.4c0.3,0.3,0.5,0.6,0.5,1l0,0H44
				c0-0.3-0.1-0.5-0.3-0.7c-0.2-0.2-0.5-0.3-0.8-0.3c-0.3,0-0.6,0.1-0.8,0.2c-0.2,0.1-0.3,0.3-0.3,0.6c0,0.2,0.1,0.4,0.3,0.5
				c0.2,0.1,0.5,0.3,0.9,0.4c0.5,0.1,0.9,0.3,1.2,0.6c0.3,0.2,0.4,0.6,0.4,0.9c0,0.4-0.2,0.7-0.5,0.9c-0.3,0.2-0.7,0.4-1.3,0.4
				c-0.5,0-0.9-0.1-1.3-0.4c-0.4-0.3-0.6-0.6-0.5-1.1l0,0h0.6c0,0.3,0.1,0.6,0.3,0.7c0.2,0.2,0.5,0.2,0.9,0.2c0.3,0,0.6-0.1,0.8-0.2
				C43.9,92.1,44,92,44,91.7z"/>
			<path class="st1" d="M48.9,88.6h-1.6v4.4h-0.7v-4.4h-1.6v-0.5h3.8V88.6z"/>
			<path class="st1" d="M53.3,90.9c0,0.6-0.2,1.1-0.6,1.5c-0.4,0.4-0.8,0.6-1.4,0.6c-0.6,0-1-0.2-1.4-0.6c-0.4-0.4-0.5-0.9-0.5-1.5
				v-0.9c0-0.6,0.2-1.1,0.5-1.5c0.4-0.4,0.8-0.6,1.4-0.6c0.6,0,1.1,0.2,1.4,0.6c0.4,0.4,0.6,0.9,0.6,1.5V90.9z M52.6,90.1
				c0-0.4-0.1-0.8-0.4-1.1c-0.2-0.3-0.6-0.4-1-0.4c-0.4,0-0.7,0.1-0.9,0.4c-0.2,0.3-0.3,0.7-0.3,1.1v0.9c0,0.5,0.1,0.8,0.3,1.1
				c0.2,0.3,0.5,0.4,0.9,0.4c0.4,0,0.7-0.1,1-0.4s0.4-0.7,0.4-1.1V90.1z"/>
			<path class="st1" d="M55.1,88.1l1.6,4h0l1.6-4h0.8v4.9h-0.7V91l0.1-2l0,0l-1.6,3.9h-0.4L54.9,89l0,0l0.1,2v1.9h-0.7v-4.9H55.1z"
				/>
			<path class="st1" d="M63.2,90.7h-2.2v1.7h2.6v0.5h-3.2v-4.9h3.2v0.5h-2.5v1.6h2.2V90.7z"/>
			<path class="st1" d="M64.9,90.8v2.1h-0.7v-4.9H66c0.5,0,0.9,0.1,1.2,0.4c0.3,0.2,0.4,0.6,0.4,1c0,0.3-0.1,0.5-0.2,0.7
				c-0.1,0.2-0.3,0.3-0.6,0.4c0.3,0.1,0.5,0.2,0.6,0.4s0.2,0.4,0.2,0.7v0.5c0,0.2,0,0.3,0.1,0.4c0,0.1,0.1,0.2,0.2,0.3v0.1h-0.7
				c-0.1-0.1-0.1-0.2-0.2-0.3c0-0.1,0-0.3,0-0.5v-0.4c0-0.3-0.1-0.5-0.2-0.6c-0.2-0.2-0.4-0.2-0.6-0.2H64.9z M64.9,90.3h1
				c0.4,0,0.6-0.1,0.8-0.2s0.2-0.4,0.2-0.6c0-0.3-0.1-0.5-0.2-0.6c-0.2-0.2-0.4-0.2-0.7-0.2h-1.1V90.3z"/>
		</g>
	</g>
</g>
</svg>
