<svg xmlns="http://www.w3.org/2000/svg" xmlns:xlink="http://www.w3.org/1999/xlink" width="72" height="87" viewBox="0 0 72 87">
  <defs>
    <clipPath id="clip-Middle_Finger">
      <rect width="72" height="87"/>
    </clipPath>
  </defs>
  <g id="Middle_Finger" data-name="Middle Finger" clip-path="url(#clip-Middle_Finger)">
    <g id="Group_2569" data-name="Group 2569" transform="translate(2820.048 -15230)">
      <g id="Group_2561" data-name="Group 2561" transform="translate(-2818.048 15233)">
        <g id="Group_2553" data-name="Group 2553" transform="translate(0)">
          <path id="Path_3074" data-name="Path 3074" d="M50.947,87.832c18.729,0,21.241-18.948,22.59-29.126.171-1.293.328-2.473.5-3.491a115.2,115.2,0,0,1,3.905-14.574c1.516-4.819,2.713-8.627,2.713-10.825,0-3.114-2.476-5.44-4.691-5.44-2.757,0-5.041,1.8-6.266,4.939l-3.833,9.822c.722-7.984,1.658-18.22,1.833-19.64a6.773,6.773,0,0,0-1.435-5.415,5.285,5.285,0,0,0-4.028-1.762c-3.45,0-5.911,2.322-6.585,6.209-.169.971-.594,3.455-1.1,6.439V12.321a6.3,6.3,0,0,0-6.286-6.446A6.414,6.414,0,0,0,41.9,12.321l-.5,18.795c-1.03-5.589-2.034-11.265-2.192-12.938-.553-5.9-4.275-6.778-6.443-6.778-3.677,0-6.45,2.97-6.45,6.906a1.318,1.318,0,0,0,.008.148l4.153,38.331-4.92-5.126A7.557,7.557,0,0,0,14.848,62.327h0s4.795,5.356,11.647,12.209l1.126,1.13C34.113,82.194,39.719,87.832,50.947,87.832ZM75.961,27.139a2.668,2.668,0,0,1,1.928,2.678c0,1.775-1.256,5.768-2.586,10a117.142,117.142,0,0,0-3.995,14.947c-.174,1.045-.335,2.257-.511,3.583-1.411,10.644-3.543,26.727-19.851,26.727-10.078,0-15.06-5.01-21.367-11.352l-1.132-1.135c-6.8-6.8-11.548-12.1-11.595-12.153a4.82,4.82,0,0,1-.024-6.837,4.759,4.759,0,0,1,6.751,0l7.708,8.031a1.381,1.381,0,0,0,2.369-1.106L29.075,18.236c.029-2.4,1.537-4.073,3.687-4.073,1.628,0,3.34.508,3.694,4.273C36.8,22.143,40.9,43.447,41.08,44.353a1.381,1.381,0,0,0,2.737-.225l.841-31.77a3.616,3.616,0,0,1,3.6-3.72,3.567,3.567,0,0,1,3.523,3.683V41.329a1.381,1.381,0,0,0,2.742.231S57.82,22.176,58.37,19c.31-1.788,1.233-3.92,3.864-3.92a2.5,2.5,0,0,1,1.958.828,4.138,4.138,0,0,1,.763,3.245c-.3,2.405-2.617,28.314-2.716,29.414A1.381,1.381,0,0,0,64.9,49.2L72.268,30.32C72.733,29.131,73.828,27.139,75.961,27.139Z" transform="translate(-12.652 -5.875)" fill="#aeaeae"/>
        </g>
        <circle id="Ellipse_393" data-name="Ellipse 393" cx="5.5" cy="5.5" r="5.5" transform="translate(29.52 0.278)" fill="#0726ff"/>
      </g>
    </g>
  </g>
</svg>
