<svg xmlns="http://www.w3.org/2000/svg" xmlns:xlink="http://www.w3.org/1999/xlink" width="72" height="87" viewBox="0 0 72 87">
  <defs>
    <clipPath id="clip-Little_Finger_">
      <rect width="72" height="87"/>
    </clipPath>
  </defs>
  <g id="Little_Finger_" data-name="Little Finger " clip-path="url(#clip-Little_Finger_)">
    <g id="Group_2571" data-name="Group 2571" transform="translate(2974 -15230.001)">
      <g id="Group_2562" data-name="Group 2562" transform="translate(-2972 15233.001)">
        <g id="Group_2555" data-name="Group 2555">
          <path id="Path_3074" data-name="Path 3074" d="M50.9,87.739c18.706,0,21.215-18.926,22.563-29.093.171-1.291.327-2.471.5-3.487a115.072,115.072,0,0,1,3.9-14.557c1.514-4.813,2.71-8.617,2.71-10.812,0-3.111-2.473-5.434-4.685-5.434-2.754,0-5.035,1.8-6.258,4.933L65.8,39.1c.721-7.975,1.656-18.2,1.831-19.618A6.766,6.766,0,0,0,66.2,14.072a5.279,5.279,0,0,0-4.023-1.76c-3.445,0-5.9,2.319-6.577,6.2-.169.969-.593,3.451-1.1,6.431V12.314a6.292,6.292,0,0,0-6.278-6.439,6.407,6.407,0,0,0-6.358,6.439l-.5,18.774c-1.028-5.582-2.032-11.252-2.189-12.923-.552-5.891-4.27-6.77-6.436-6.77-3.673,0-6.442,2.966-6.442,6.9a1.318,1.318,0,0,0,.008.148l4.148,38.288-4.914-5.12A7.548,7.548,0,0,0,14.845,62.263h0s4.789,5.35,11.633,12.195L27.6,75.586C34.088,82.107,39.687,87.739,50.9,87.739ZM75.886,27.115a2.665,2.665,0,0,1,1.926,2.675c0,1.772-1.255,5.762-2.583,9.984A117.013,117.013,0,0,0,71.239,54.7c-.174,1.044-.335,2.254-.51,3.579C69.32,68.915,67.19,84.98,50.9,84.98c-10.066,0-15.042-5-21.341-11.34l-1.13-1.133C21.637,65.714,16.9,60.419,16.848,60.368a4.815,4.815,0,0,1-.024-6.829,4.753,4.753,0,0,1,6.743,0l7.7,8.022a1.38,1.38,0,0,0,2.367-1.1L29.056,18.222c.029-2.4,1.535-4.068,3.683-4.068,1.626,0,3.336.508,3.689,4.268.347,3.7,4.443,24.983,4.618,25.888a1.379,1.379,0,0,0,2.734-.224l.84-31.734a3.612,3.612,0,0,1,3.6-3.716,3.563,3.563,0,0,1,3.519,3.679V41.289a1.379,1.379,0,0,0,2.739.231s3.289-19.362,3.838-22.53c.31-1.786,1.232-3.916,3.859-3.916a2.492,2.492,0,0,1,1.955.827,4.133,4.133,0,0,1,.762,3.241c-.3,2.4-2.614,28.282-2.712,29.381a1.38,1.38,0,0,0,2.659.625L72.2,30.293C72.662,29.105,73.756,27.115,75.886,27.115Z" transform="translate(-12.652 -5.875)" fill="#aeaeae"/>
        </g>
        <circle id="Ellipse_395" data-name="Ellipse 395" cx="5.5" cy="5.5" r="5.5" transform="translate(57 18.324)" fill="#0726ff"/>
      </g>
    </g>
  </g>
</svg>
