<?xml version="1.0" encoding="UTF-8" standalone="no"?>
<svg
   xmlns:dc="http://purl.org/dc/elements/1.1/"
   xmlns:cc="http://creativecommons.org/ns#"
   xmlns:rdf="http://www.w3.org/1999/02/22-rdf-syntax-ns#"
   xmlns:svg="http://www.w3.org/2000/svg"
   xmlns="http://www.w3.org/2000/svg"
   xml:space="preserve"
   style="enable-background:new 0 0 152 78;"
   viewBox="0 0 152 78"
   y="0px"
   x="0px"
   id="Layer_1"
   version="1.1"><metadata
     id="metadata51"><rdf:RDF><cc:Work
         rdf:about=""><dc:format>image/svg+xml</dc:format><dc:type
           rdf:resource="http://purl.org/dc/dcmitype/StillImage" /><dc:title></dc:title></cc:Work></rdf:RDF></metadata><defs
     id="defs49" /><style
     id="style3"
     type="text/css">
	.st0{fill:#FFFFFF;}
	.st1{opacity:0.1;fill:#FFFFFF;}
</style><g
     id="g5"><path
       id="path7"
       d="M11.4,65.3H6.2l-1.3,4.4H2.3l5.3-17.6H10l5.2,17.6h-2.5L11.4,65.3z M6.7,63.3h4.2l-2-7.2H8.8L6.7,63.3z"
       class="st0" /><path
       id="path9"
       d="M26.8,63.6c0,1.9-0.4,3.5-1.2,4.6c-0.8,1.2-1.8,1.7-3.2,1.7c-0.6,0-1.2-0.1-1.7-0.4c-0.5-0.3-0.9-0.6-1.3-1.1   v6.3H17V56.7h2.1l0.2,1.6c0.4-0.6,0.8-1,1.3-1.3c0.5-0.3,1.1-0.5,1.8-0.5c1.4,0,2.5,0.6,3.2,1.9c0.8,1.3,1.2,2.9,1.2,5V63.6z    M24.3,63.3c0-1.5-0.2-2.7-0.6-3.6c-0.4-0.9-1.1-1.4-1.9-1.4c-0.5,0-1,0.2-1.4,0.5s-0.7,0.7-0.9,1.2v6.6c0.2,0.5,0.5,0.9,0.9,1.1   c0.4,0.3,0.8,0.4,1.4,0.4c0.9,0,1.5-0.4,1.9-1.2s0.6-1.9,0.6-3.3V63.3z"
       class="st0" /><path
       id="path11"
       d="M39,63.6c0,1.9-0.4,3.5-1.2,4.6C37,69.4,36,70,34.6,70c-0.6,0-1.2-0.1-1.7-0.4c-0.5-0.3-0.9-0.6-1.3-1.1v6.3   h-2.5V56.7h2.1l0.2,1.6c0.4-0.6,0.8-1,1.3-1.3c0.5-0.3,1.1-0.5,1.8-0.5c1.4,0,2.5,0.6,3.2,1.9c0.8,1.3,1.2,2.9,1.2,5V63.6z    M36.5,63.3c0-1.5-0.2-2.7-0.6-3.6c-0.4-0.9-1.1-1.4-1.9-1.4c-0.5,0-1,0.2-1.4,0.5s-0.7,0.7-0.9,1.2v6.6c0.2,0.5,0.5,0.9,0.9,1.1   c0.4,0.3,0.8,0.4,1.4,0.4c0.9,0,1.5-0.4,1.9-1.2s0.6-1.9,0.6-3.3V63.3z"
       class="st0" /><path
       id="path13"
       d="M43.4,67.9h6.4v1.9h-9.1v-1.5l6-9.6h-5.9v-1.9h8.7v1.5L43.4,67.9z"
       class="st0" /><path
       id="path15"
       d="M54.7,53.2h-2.5v-2.3h2.5V53.2z M54.7,69.7h-2.5V56.7h2.5V69.7z"
       class="st0" /><path
       id="path17"
       d="M60.3,69.7h-2.5V50.9h2.5V69.7z"
       class="st0" /><path
       id="path19"
       d="M65.9,69.7h-2.5V50.9h2.5V69.7z"
       class="st0" /><path
       id="path21"
       d="M68.4,63c0-1.9,0.5-3.5,1.4-4.8s2.2-1.9,3.8-1.9s2.9,0.6,3.8,1.9c0.9,1.2,1.4,2.8,1.4,4.8v0.3   c0,1.9-0.5,3.5-1.4,4.8c-0.9,1.2-2.2,1.8-3.8,1.8c-1.6,0-2.9-0.6-3.8-1.8c-0.9-1.2-1.4-2.8-1.4-4.8V63z M70.9,63.4   c0,1.4,0.2,2.5,0.7,3.4c0.4,0.9,1.1,1.3,2,1.3c0.9,0,1.6-0.4,2-1.3s0.7-2,0.7-3.4V63c0-1.4-0.2-2.5-0.7-3.4c-0.5-0.9-1.1-1.3-2-1.3   s-1.6,0.4-2,1.3c-0.4,0.9-0.7,2-0.7,3.4V63.4z"
       class="st0" /><path
       id="path23"
       d="M83.3,56.7l0.1,1.9c0.4-0.7,0.8-1.2,1.4-1.6c0.6-0.4,1.2-0.6,1.9-0.6c1.2,0,2.1,0.4,2.7,1.3c0.6,0.9,1,2.2,1,4   v8H88v-8c0-1.2-0.2-2.1-0.5-2.6c-0.3-0.5-0.9-0.8-1.6-0.8c-0.6,0-1,0.1-1.4,0.4s-0.7,0.7-1,1.2v9.7h-2.5V56.7H83.3z"
       class="st0" /><path
       id="path25"
       d="M93.2,69.7V52.1h5c1.8,0,3.3,0.4,4.3,1.2c1,0.8,1.5,2,1.5,3.6c0,0.8-0.2,1.6-0.6,2.2c-0.4,0.6-0.9,1.1-1.7,1.4   c1,0.2,1.7,0.7,2.2,1.4s0.7,1.6,0.7,2.6c0,1.7-0.5,3-1.5,3.8c-1,0.9-2.4,1.3-4.2,1.3H93.2z M96.6,59.6h1.8c0.7,0,1.3-0.2,1.7-0.6   s0.6-1,0.6-1.7c0-0.8-0.2-1.5-0.6-1.8c-0.4-0.4-1-0.6-1.8-0.6h-1.6V59.6z M96.6,61.9v5.1h2.5c0.7,0,1.3-0.2,1.7-0.6   c0.4-0.4,0.6-1,0.6-1.8c0-0.8-0.2-1.5-0.5-1.9s-0.9-0.7-1.6-0.7h-0.1H96.6z"
       class="st0" /><path
       id="path27"
       d="M114.8,65.9h-4.4l-1,3.8h-3.6l5-17.6h3.5l5,17.6h-3.6L114.8,65.9z M111.1,63.2h3l-1.5-5.6h-0.1L111.1,63.2z"
       class="st0" /><path
       id="path29"
       d="M133.2,69.7h-3.4l-5.6-11.2l-0.1,0v11.2h-3.4V52.1h3.4l5.6,11.2l0.1,0V52.1h3.4V69.7z"
       class="st0" /><path
       id="path31"
       d="M140.3,62.3h-0.9v7.4H136V52.1h3.4v7.2h0.7l3.7-7.2h4.2l-5.1,8l5.4,9.6H144L140.3,62.3z"
       class="st0" /></g><g
     id="g33"><polygon
       id="polygon35"
       points="99.6,6 96.1,7.7 94.1,4.5 97.5,2.8  "
       class="st0" /><polygon
       id="polygon37"
       points="98.7,13.7 94.8,15.6 92.6,12 96.4,10.1  "
       class="st0" /><path
       id="path39"
       d="M88.1,18.3l4.2-2.1l2.5,3.9l-4.3,2.1L88.1,18.3L88.1,18.3C88.1,18.3,88.1,18.3,88.1,18.3z"
       class="st0" /><polygon
       id="polygon41"
       points="81.8,7.4 88.4,4.2 92.3,10.2 85.7,13.4  "
       class="st0" /><path
       id="path43"
       d="M85.9,38.5h13.7L89.3,22.9l-1.9,0.9L85,19.9l0,0c0,0,0,0,0,0l1.8-0.9l-3.1-4.7L80,16.1l-3.9-6l3.7-1.8   l-4.4-6.6L50.7,38.5h28.9l-3.5-7.2l-9.9-0.1c0.5-0.8,7.6-11.1,7.6-11.1C75.1,21.9,84.3,36.1,85.9,38.5z"
       class="st0" /><path
       id="path45"
       d="M74,19.7c0.5,0.9,2.8,4.3,5.2,8c2.7-1.5,5.4-3.2,7.8-5.1l-1.9-3l0,0c0,0,0,0,0,0l1.8-0.9l-3.1-4.7l-3.7,1.8   l-3.9-6l3.6-1.8l-4.4-6.6L51.7,37.1c6.3-1.3,12.6-3,18.4-5.2l-2.4-3.8C68.1,27.3,74,19.7,74,19.7z"
       class="st1" /></g></svg>