<?xml version="1.0" encoding="UTF-8" standalone="no"?>
<svg
   xmlns:dc="http://purl.org/dc/elements/1.1/"
   xmlns:cc="http://creativecommons.org/ns#"
   xmlns:rdf="http://www.w3.org/1999/02/22-rdf-syntax-ns#"
   xmlns:svg="http://www.w3.org/2000/svg"
   xmlns="http://www.w3.org/2000/svg"
   xml:space="preserve"
   style="enable-background:new 0 0 30 30;"
   viewBox="0 0 30 30"
   y="0px"
   x="0px"
   id="Layer_1"
   version="1.1"><metadata
     id="metadata135"><rdf:RDF><cc:Work
         rdf:about=""><dc:format>image/svg+xml</dc:format><dc:type
           rdf:resource="http://purl.org/dc/dcmitype/StillImage" /><dc:title></dc:title></cc:Work></rdf:RDF></metadata><defs
     id="defs133" /><style
     id="style3"
     type="text/css">
	.st0{fill:#FF6400;}
</style><path
     id="path81"
     d="M 15 0 C 6.713881 0 0 6.713881 0 15 C 0 23.286119 6.713881 30 15 30 C 23.286119 30 30 23.286119 30 15 C 30 6.713881 23.286119 0 15 0 z M 15 1.1894531 C 22.648725 1.1894531 28.810547 7.393768 28.810547 15 C 28.810547 22.606232 22.606232 28.810547 15 28.810547 C 7.393768 28.810547 1.1894531 22.648725 1.1894531 15 C 1.1894531 7.351275 7.351275 1.1894531 15 1.1894531 z M 10.326172 6.3535156 C 9.1788633 6.3535156 8.6269531 6.9483943 8.6269531 8.0957031 L 8.6269531 15.234375 C 8.6269531 17.528993 8.6254757 19.779601 8.6679688 22.074219 C 8.6679688 23.009063 9.2634225 23.646484 10.113281 23.646484 C 12.407898 23.646484 14.660461 23.647959 16.955078 23.605469 C 17.295022 23.605469 17.635142 23.393103 18.017578 23.265625 C 18.357522 22.840695 18.441406 22.371719 18.441406 21.904297 L 18.441406 18.505859 C 18.143955 18.590849 17.890199 18.589844 17.677734 18.589844 L 17.294922 18.589844 L 17.294922 20.162109 L 9.6875 20.162109 L 9.6875 8.9023438 L 17.294922 8.9023438 L 17.294922 10.007812 L 17.677734 10.007812 C 17.932692 10.007812 18.144957 10.048828 18.357422 10.048828 L 18.357422 8.0527344 C 18.357422 6.9479185 17.761066 6.3535156 16.65625 6.3535156 L 10.326172 6.3535156 z M 17.71875 10.644531 C 15.67909 10.644531 14.064453 12.301661 14.064453 14.298828 C 14.064453 16.338488 15.721583 17.953125 17.71875 17.953125 C 19.715917 17.953125 21.373047 16.295995 21.373047 14.298828 C 21.373047 12.301661 19.715917 10.644531 17.71875 10.644531 z M 16.466797 12.089844 C 16.796117 12.089844 17.125426 12.173778 17.337891 12.34375 C 17.635341 12.556214 17.635341 12.854418 17.337891 13.109375 C 17.082933 13.32184 16.785258 13.363281 16.445312 13.363281 C 16.147862 13.363281 15.850185 13.321843 15.552734 13.109375 C 15.297777 12.896911 15.340749 12.556214 15.595703 12.34375 C 15.808168 12.173778 16.137477 12.089844 16.466797 12.089844 z M 18.888672 13.152344 C 19.217992 13.152344 19.547301 13.236278 19.759766 13.40625 C 20.057216 13.618714 20.057216 13.916918 19.759766 14.171875 C 19.504809 14.38434 19.207131 14.425781 18.867188 14.425781 C 18.569737 14.425781 18.27206 14.384343 17.974609 14.171875 C 17.762145 13.916918 17.762624 13.618714 18.017578 13.40625 C 18.230043 13.236278 18.559352 13.152344 18.888672 13.152344 z M 15.466797 13.322266 C 15.976712 13.959659 17.082358 13.959659 17.634766 13.322266 C 17.634766 13.959659 17.548973 14.171825 17.039062 14.341797 C 16.656627 14.469275 16.275491 14.468796 15.935547 14.298828 C 15.468125 14.128856 15.339319 13.874674 15.466797 13.322266 z M 17.888672 14.341797 C 18.398587 14.979191 19.504234 14.979191 20.056641 14.341797 C 20.099131 14.979191 19.970858 15.191356 19.460938 15.361328 C 19.078501 15.488807 18.697365 15.488328 18.357422 15.318359 C 17.89 15.148387 17.761193 14.894205 17.888672 14.341797 z M 15.425781 14.425781 C 15.765725 14.978189 17.039389 15.105667 17.591797 14.425781 C 17.634287 15.020681 17.506481 15.234325 17.039062 15.404297 C 16.699119 15.531775 16.359001 15.531775 15.976562 15.404297 C 15.466648 15.234325 15.340796 15.020681 15.425781 14.425781 z M 15.382812 15.445312 C 15.850238 16.082707 17.123899 16.040213 17.548828 15.445312 C 17.591318 16.167693 17.507489 16.381811 16.955078 16.466797 C 16.657628 16.509287 16.316982 16.509287 16.019531 16.466797 C 15.467123 16.381807 15.34032 16.1252 15.382812 15.445312 z M 17.847656 15.488281 C 18.187599 16.040688 19.461264 16.168167 20.013672 15.488281 C 20.056162 16.083181 19.970855 16.296825 19.460938 16.466797 C 19.120994 16.594275 18.782827 16.594275 18.400391 16.466797 C 17.890476 16.296825 17.76267 16.083181 17.847656 15.488281 z M 13.533203 20.9375 C 13.766914 20.9375 14.002141 21.033391 14.193359 21.224609 C 14.533302 21.607046 14.533302 22.203026 14.193359 22.542969 C 13.810923 22.925405 13.257437 22.925405 12.875 22.542969 C 12.492564 22.203026 12.492564 21.607046 12.875 21.224609 C 13.066218 21.033391 13.299492 20.9375 13.533203 20.9375 z "
     style="fill:#ff6400" /></svg>