<?xml version="1.0" encoding="UTF-8" standalone="no"?>
<svg
   xmlns:dc="http://purl.org/dc/elements/1.1/"
   xmlns:cc="http://creativecommons.org/ns#"
   xmlns:rdf="http://www.w3.org/1999/02/22-rdf-syntax-ns#"
   xmlns:svg="http://www.w3.org/2000/svg"
   xmlns="http://www.w3.org/2000/svg"
   xml:space="preserve"
   style="enable-background:new 0 0 30 30;"
   viewBox="0 0 30 30"
   y="0px"
   x="0px"
   id="Layer_1"
   version="1.1"><metadata
     id="metadata135"><rdf:RDF><cc:Work
         rdf:about=""><dc:format>image/svg+xml</dc:format><dc:type
           rdf:resource="http://purl.org/dc/dcmitype/StillImage" /><dc:title></dc:title></cc:Work></rdf:RDF></metadata><defs
     id="defs133" /><style
     id="style3"
     type="text/css">
	.st0{fill:#FF6400;}
</style><path
     id="path5"
     d="M 15 0 C 6.71388 0 0 6.71388 0 15 C 0 23.28612 6.71388 30 15 30 C 23.28612 30 30 23.28612 30 15 C 30 6.71388 23.32861 -3.5527137e-015 15 0 z M 15 1.1894531 C 22.64873 1.1894531 28.810547 7.35127 28.810547 15 C 28.810547 22.64873 22.64873 28.810547 15 28.810547 C 7.39377 28.810547 1.1894531 22.64873 1.1894531 15 C 1.1894531 7.35127 7.35127 1.1894531 15 1.1894531 z M 14.691406 6.0136719 L 14.691406 14.300781 C 15.073842 14.343271 15.455929 14.385245 15.880859 14.427734 L 15.880859 6.0136719 L 14.691406 6.0136719 z M 13.076172 10.517578 C 12.693736 10.560068 12.312977 10.432915 12.355469 11.070312 L 12.355469 14.810547 L 12.355469 16.253906 C 12.780399 15.743991 13.119041 15.320938 13.458984 14.853516 C 13.543974 14.726037 13.628906 14.513246 13.628906 14.300781 L 13.628906 11.070312 C 13.628906 10.645383 13.501101 10.475085 13.076172 10.517578 z M 17.453125 10.560547 C 17.113181 10.560547 16.943359 10.644912 16.943359 11.027344 L 16.943359 14.9375 C 16.943359 15.107471 16.9858 15.277294 17.113281 15.447266 C 17.580703 16.127152 17.793019 16.892329 17.623047 17.742188 C 17.538057 18.209609 17.666339 18.464318 18.21875 18.591797 L 18.21875 17.912109 L 18.21875 11.367188 C 18.26124 10.517328 18.260487 10.560547 17.453125 10.560547 z M 14.835938 15.570312 C 14.501306 15.607494 14.182692 15.766765 13.927734 16.042969 C 13.545298 16.425405 13.375 16.892379 13.375 17.572266 C 13.375 17.614756 13.373526 17.741662 13.416016 17.869141 C 13.585988 19.101436 14.905 19.73848 15.839844 19.058594 C 16.902167 18.336214 16.902167 16.552458 15.839844 15.830078 C 15.521147 15.617614 15.170569 15.533131 14.835938 15.570312 z M 10.740234 16.28125 C 10.665872 16.286561 10.591083 16.296875 10.527344 16.296875 C 10.102415 16.254385 10.017578 16.424205 10.017578 16.806641 L 10.017578 20.121094 C 10.017578 20.291065 10.017102 20.460887 9.9746094 20.630859 L 8.9550781 20.630859 L 8.9550781 18.634766 L 7.7226562 18.634766 L 7.7226562 20.503906 C 7.4252057 20.716371 7.2554334 20.843224 7.0429688 20.970703 C 7.2554333 21.055693 7.4676988 21.226562 7.7226562 21.226562 C 8.5300217 21.269053 9.3371655 21.226562 10.144531 21.226562 C 10.441981 21.226562 10.569311 21.142199 10.654297 20.759766 C 10.739287 20.292344 10.953075 19.866335 11.123047 19.441406 C 11.165537 19.271434 11.292969 19.144581 11.292969 18.974609 C 11.292969 18.209736 11.335459 17.401592 11.292969 16.636719 C 11.292969 16.509241 11.080604 16.381861 10.953125 16.296875 C 10.889385 16.27563 10.814597 16.275939 10.740234 16.28125 z M 19.667969 16.367188 C 19.630788 16.361876 19.599372 16.361567 19.578125 16.382812 C 19.450647 16.467803 19.28125 16.594701 19.28125 16.679688 C 19.32374 18.081954 19.365714 19.441484 19.408203 20.84375 C 19.408203 21.226187 19.663487 21.310547 19.960938 21.310547 L 22.298828 21.310547 C 23.021208 21.225567 23.020057 21.226767 22.892578 20.546875 C 22.850088 20.419396 22.892578 20.334509 22.892578 20.207031 L 22.892578 18.931641 C 22.892578 18.804162 22.723657 18.634766 22.638672 18.634766 C 22.341221 18.592276 21.999623 18.634766 21.617188 18.634766 L 21.617188 20.716797 L 20.597656 20.716797 L 20.597656 17.146484 C 20.597656 16.339119 20.598382 16.34032 19.791016 16.382812 C 19.748521 16.382812 19.70515 16.372499 19.667969 16.367188 z M 13.458984 19.292969 C 13.331506 19.292969 13.203651 19.334696 13.076172 19.398438 C 12.438778 19.738381 12.056641 20.334261 12.056641 21.056641 L 12.056641 22.203125 C 12.056641 23.095476 12.355219 23.479417 13.205078 23.734375 C 14.267401 24.031825 15.328302 24.073312 16.390625 23.818359 C 17.962863 23.478415 18.047876 22.968097 17.962891 21.863281 L 17.962891 21.779297 L 17.962891 21.056641 C 17.962891 20.334261 17.580752 19.781349 16.943359 19.441406 C 16.688401 19.313927 16.477137 19.228941 16.179688 19.441406 C 15.372322 20.121293 14.649162 20.121293 13.841797 19.441406 C 13.714318 19.335174 13.586463 19.292968 13.458984 19.292969 z "
     style="fill:#ff6400" /></svg>