<?xml version="1.0" encoding="UTF-8" standalone="no"?>
<svg
   xmlns:dc="http://purl.org/dc/elements/1.1/"
   xmlns:cc="http://creativecommons.org/ns#"
   xmlns:rdf="http://www.w3.org/1999/02/22-rdf-syntax-ns#"
   xmlns:svg="http://www.w3.org/2000/svg"
   xmlns="http://www.w3.org/2000/svg"
   xml:space="preserve"
   style="enable-background:new 0 0 30 30;"
   viewBox="0 0 30 30"
   y="0px"
   x="0px"
   id="Layer_1"
   version="1.1"><metadata
     id="metadata135"><rdf:RDF><cc:Work
         rdf:about=""><dc:format>image/svg+xml</dc:format><dc:type
           rdf:resource="http://purl.org/dc/dcmitype/StillImage" /><dc:title></dc:title></cc:Work></rdf:RDF></metadata><defs
     id="defs133" /><style
     id="style3"
     type="text/css">
	.st0{fill:#FF6400;}
</style><path
     id="path7"
     d="M 15 0 C 6.71388 0 0 6.713881 0 15 C 0 23.286119 6.71388 30 15 30 C 23.28612 30 30 23.286119 30 15 C 30 6.713881 23.28612 0 15 0 z M 15 1.1894531 C 22.64873 1.1894531 28.810547 7.3512748 28.810547 15 C 28.810547 22.648725 22.60623 28.810547 15 28.810547 C 7.39377 28.810547 1.1894531 22.648725 1.1894531 15 C 1.1894531 7.3512748 7.35127 1.1894531 15 1.1894531 z M 14.320312 7.3515625 C 10.113513 7.3515625 6.671875 10.750709 6.671875 15 C 6.671875 19.206799 10.07102 22.648437 14.320312 22.648438 L 14.404297 22.648438 L 14.404297 21.714844 L 14.320312 21.714844 C 10.623429 21.672351 7.6054688 18.696884 7.6054688 15 C 7.6054688 11.303117 10.623428 8.2851563 14.320312 8.2851562 C 17.889717 8.2851562 20.779723 11.0898 20.992188 14.574219 L 21.925781 14.574219 C 21.713317 10.537392 18.399632 7.3515625 14.320312 7.3515625 z M 13.894531 10.666016 L 13.894531 14.830078 L 10.369141 18.357422 L 11.005859 18.994141 L 14.744141 15.212891 L 14.787109 15.212891 L 14.787109 10.666016 L 13.894531 10.666016 z M 16.359375 16.955078 A 0.55240792 0.55240792 0 0 0 15.806641 17.507812 A 0.55240792 0.55240792 0 0 0 16.359375 18.058594 A 0.55240792 0.55240792 0 0 0 16.912109 17.507812 A 0.55240792 0.55240792 0 0 0 16.359375 16.955078 z M 18.1875 17.082031 L 18.1875 17.974609 L 23.328125 17.974609 L 23.328125 17.082031 L 18.1875 17.082031 z M 16.359375 19.164062 A 0.55240792 0.55240792 0 0 0 15.806641 19.716797 A 0.55240792 0.55240792 0 0 0 16.359375 20.269531 A 0.55240792 0.55240792 0 0 0 16.912109 19.716797 A 0.55240792 0.55240792 0 0 0 16.359375 19.164062 z M 18.1875 19.25 L 18.1875 20.142578 L 23.328125 20.142578 L 23.328125 19.25 L 18.1875 19.25 z M 16.359375 21.458984 A 0.55240792 0.55240792 0 0 0 15.806641 22.011719 A 0.55240792 0.55240792 0 0 0 16.359375 22.564453 A 0.55240792 0.55240792 0 0 0 16.912109 22.011719 A 0.55240792 0.55240792 0 0 0 16.359375 21.458984 z M 18.1875 21.585938 L 18.1875 22.478516 L 23.328125 22.478516 L 23.328125 21.585938 L 18.1875 21.585938 z "
     style="fill:#ff6400" /></svg>