<?xml version="1.0" encoding="UTF-8" standalone="no"?>
<svg
   xmlns:dc="http://purl.org/dc/elements/1.1/"
   xmlns:cc="http://creativecommons.org/ns#"
   xmlns:rdf="http://www.w3.org/1999/02/22-rdf-syntax-ns#"
   xmlns:svg="http://www.w3.org/2000/svg"
   xmlns="http://www.w3.org/2000/svg"
   xml:space="preserve"
   style="enable-background:new 0 0 51 51;"
   viewBox="0 0 51 51"
   y="0px"
   x="0px"
   id="Layer_1"
   version="1.1"><metadata
     id="metadata17"><rdf:RDF><cc:Work
         rdf:about=""><dc:format>image/svg+xml</dc:format><dc:type
           rdf:resource="http://purl.org/dc/dcmitype/StillImage" /><dc:title></dc:title></cc:Work></rdf:RDF></metadata><defs
     id="defs15" /><style
     id="style3"
     type="text/css">
	.st0{fill:#666666;}
</style><path
     id="path5"
     d="M25.5,0.5c-13.8,0-25,11.2-25,25s11.2,25,25,25c13.8,0,25-11.2,25-25S39.3,0.5,25.5,0.5z M25.5,48.8  c-12.9,0-23.3-10.5-23.3-23.3S12.6,2.2,25.5,2.2c12.9,0,23.3,10.5,23.3,23.3S38.4,48.8,25.5,48.8z"
     class="st0" /><g
     id="g7"><polygon
       id="polygon9"
       points="21.2,26.5 19.9,26.5 19.9,31.1 15.2,31.1 15.2,32.5 19.9,32.5 19.9,37.1 21.2,37.1 21.2,32.5    25.8,32.5 25.8,31.1 21.2,31.1  "
       class="st0" /><path
       id="path11"
       d="M35.5,24.6L33,23c0.9-1,1.4-2.3,1.4-3.8c0-2.9-2.1-5.3-4.6-5.3s-4.6,2.4-4.6,5.3c0,1.4,0.5,2.8,1.4,3.8   l-2.4,1.6c-0.2,0.1-0.3,0.3-0.3,0.6v2.6c0,0.4,0.3,0.7,0.7,0.7h10.6c0.4,0,0.7-0.3,0.7-0.7v-2.6C35.8,24.9,35.7,24.7,35.5,24.6z    M34.4,27.2L34.4,27.2h-9.3v-1.6l2.8-1.9c0.2-0.1,0.3-0.3,0.3-0.5c0-0.2-0.1-0.4-0.3-0.5c-1-0.7-1.5-2-1.5-3.4c0-2.2,1.5-4,3.3-4   s3.3,1.8,3.3,4c0,1.4-0.6,2.6-1.5,3.4c-0.2,0.1-0.3,0.3-0.3,0.5c0,0.2,0.1,0.4,0.3,0.5l2.8,1.9V27.2z"
       class="st0" /></g></svg>