<?xml version="1.0" encoding="UTF-8" standalone="no"?>
<svg
   xmlns:dc="http://purl.org/dc/elements/1.1/"
   xmlns:cc="http://creativecommons.org/ns#"
   xmlns:rdf="http://www.w3.org/1999/02/22-rdf-syntax-ns#"
   xmlns:svg="http://www.w3.org/2000/svg"
   xmlns="http://www.w3.org/2000/svg"
   height="30"
   width="30"
   xml:space="preserve"
   viewBox="0 0 30 30"
   y="0px"
   x="0px"
   id="Layer_1"
   version="1.1"><metadata
     id="metadata91"><rdf:RDF><cc:Work
         rdf:about=""><dc:format>image/svg+xml</dc:format><dc:type
           rdf:resource="http://purl.org/dc/dcmitype/StillImage" /><dc:title></dc:title></cc:Work></rdf:RDF></metadata><defs
     id="defs89" /><style
     id="style3"
     type="text/css">
	.st0{fill:#FF6400;}
	.st1{font-family:'MyriadPro-Regular';}
	.st2{font-size:10.3105px;}
</style><path
     id="path23"
     d="M 14.999585,0 C 6.713422,0 0,6.714252 0,15.000415 0,23.28658 6.713422,30 14.999585,30 23.28575,30 30,23.28658 30,15.000415 30,6.714252 23.28575,0 14.999585,0 Z m 0,1.19014 c 7.648768,0 13.810275,6.161509 13.810275,13.810275 0,7.648768 -6.204,13.810274 -13.810275,13.810274 -7.606273,0 -13.810274,-6.161506 -13.810274,-13.810274 0,-7.648766 6.161508,-13.810275 13.810274,-13.810275 z m -1.146983,4.588763 c -0.722384,0 -1.274795,0.552411 -1.274795,1.274794 0,0.12748 -1.66e-4,0.212798 0.04233,0.340277 l -1.657399,0 0,1.742054 5.778903,0 0,-1.742054 -1.656569,0 c 0.04249,-0.127479 0.04233,-0.212797 0.04233,-0.340277 0,-0.722383 -0.552411,-1.274794 -1.274794,-1.274794 z m 0,0.679724 c 0.339945,0 0.59507,0.255125 0.59507,0.59507 0,0.339946 -0.255125,0.595071 -0.59507,0.595071 -0.339945,0 -0.59507,-0.255125 -0.59507,-0.595071 0,-0.339945 0.255125,-0.59507 0.59507,-0.59507 z m -5.906714,1.572745 0,14.107394 7.351647,0 c 0.04249,-0.212465 0.08432,-0.424931 0.169309,-0.637397 l -6.798905,0 0,-12.8326 1.785211,0 0,-0.637397 -2.507262,0 z m 9.263839,0 0,0.637397 1.78438,0 0,4.92904 c 0.212466,-0.08499 0.467093,-0.127812 0.722052,-0.127812 l 0,-5.438625 -2.506432,0 z m -5.82206,3.399452 a 0.76487675,0.76487675 0 0 0 -0.764379,0.764379 0.76487675,0.76487675 0 0 0 0.764379,0.765209 0.76487675,0.76487675 0 0 0 0.765209,-0.765209 0.76487675,0.76487675 0 0 0 -0.765209,-0.764379 z m 1.742053,0.382604 0,0.722052 3.655075,0 0,-0.722052 -3.655075,0 z m -1.742053,2.379451 a 0.76487675,0.76487675 0 0 0 -0.764379,0.764379 0.76487675,0.76487675 0 0 0 0.764379,0.765208 0.76487675,0.76487675 0 0 0 0.765209,-0.765208 0.76487675,0.76487675 0 0 0 -0.765209,-0.764379 z m 8.540958,0.212465 c -1.274795,0 -2.293967,1.020002 -2.293967,2.294797 0,0.764877 0.381941,1.486596 0.976845,1.869035 -1.402274,0.509918 -2.379284,1.827371 -2.421778,3.357125 l 7.436302,0 c 0,-1.529754 -0.977177,-2.847207 -2.379451,-3.357125 0.594904,-0.424932 0.976845,-1.104158 0.976845,-1.869035 0,-1.274795 -1.020002,-2.294797 -2.294796,-2.294797 z m -6.798905,0.170139 0,0.722052 3.655075,0 0,-0.722052 -3.655075,0 z m -1.742053,1.996847 a 0.76487675,0.76487675 0 0 0 -0.764379,0.765208 0.76487675,0.76487675 0 0 0 0.764379,0.764379 0.76487675,0.76487675 0 0 0 0.765209,-0.764379 0.76487675,0.76487675 0 0 0 -0.765209,-0.765208 z m 1.742053,0.382604 0,0.722051 3.655075,0 0,-0.722051 -3.655075,0 z"
     style="fill:#ff6400" /></svg>