<?xml version="1.0" encoding="utf-8"?>
<!-- Generator: Adobe Illustrator 22.0.1, SVG Export Plug-In . SVG Version: 6.00 Build 0)  -->
<svg version="1.1" id="Layer_1" xmlns="http://www.w3.org/2000/svg" xmlns:xlink="http://www.w3.org/1999/xlink" x="0px" y="0px"
	 viewBox="0 0 48 48" enable-background="new 0 0 48 48" xml:space="preserve">
<g>
	<path d="M45.5,10H2.5c-1.3,0-2.4,1.1-2.4,2.4v23.3c0,1.3,1.1,2.4,2.4,2.4h42.9c1.3,0,2.4-1.1,2.4-2.4V12.4
		C47.8,11.1,46.8,10,45.5,10z M45.5,33.6c0,1.1-0.9,2-2,2H4.5c-1.1,0-2-0.9-2-2V14.4c0-1.1,0.9-2,2-2h38.9c1.1,0,2,0.9,2,2V33.6z"/>
	<circle cx="11.8" cy="24" r="3"/>
	<circle cx="23.8" cy="24" r="3"/>
	<circle cx="36.4" cy="24" r="3"/>
</g>
</svg>
