<?xml version="1.0" encoding="utf-8"?>
<!-- Generator: Adobe Illustrator 21.1.0, SVG Export Plug-In . SVG Version: 6.00 Build 0)  -->
<svg version="1.1" id="Layer_1" xmlns="http://www.w3.org/2000/svg" xmlns:xlink="http://www.w3.org/1999/xlink" x="0px" y="0px"
	 viewBox="0 0 51 51" style="enable-background:new 0 0 51 51;" xml:space="preserve">
<style type="text/css">
	.st0{fill:#666666;}
</style>
<g>
	<path class="st0" d="M25.5,0.5c-13.8,0-25,11.2-25,25s11.2,25,25,25c13.8,0,25-11.2,25-25S39.3,0.5,25.5,0.5z M25.5,48.8
		c-12.9,0-23.3-10.5-23.3-23.3S12.6,2.2,25.5,2.2c12.9,0,23.3,10.5,23.3,23.3S38.4,48.8,25.5,48.8z"/>
	<g>
		<path class="st0" d="M22.3,22.5c2.4,0,4.3-1.9,4.3-4.3c0-2.4-1.9-4.3-4.3-4.3c-2.4,0-4.3,1.9-4.3,4.3c0,0,0,0,0,0
			C18,20.6,19.9,22.5,22.3,22.5z M22.3,15.4C22.3,15.4,22.3,15.4,22.3,15.4c1.5,0,2.8,1.3,2.8,2.8h0c0,1.5-1.2,2.8-2.8,2.8
			c-1.5,0-2.8-1.2-2.8-2.8C19.5,16.7,20.8,15.4,22.3,15.4z"/>
		<polygon class="st0" points="31.2,21.9 31.9,23.2 34.4,24.2 28.5,27.1 28.9,28.1 34.9,25.2 34.1,27.8 34.8,29.2 36.4,23.9 		"/>
		<polygon class="st0" points="32,30.9 26,33.8 26.8,31.2 26.2,29.8 24.5,35.1 29.7,37.1 29,35.7 26.5,34.7 32.4,31.8 		"/>
		<path class="st0" d="M16.1,29.3c0-2.5,2-4.5,4.5-4.5h3.3c1.4,0,2.6,0.6,3.5,1.7l1.1-1.1c-1.1-1.3-2.7-2.1-4.5-2.1h-3.3
			c-3.3,0-6,2.7-6,6v1.3c0,0.4,0.3,0.7,0.7,0.7h7.1l1.5-1.5h-7.9V29.3z"/>
	</g>
</g>
</svg>
