<svg xmlns="http://www.w3.org/2000/svg" xmlns:xlink="http://www.w3.org/1999/xlink" width="534" height="541" viewBox="0 0 534 541">
  <defs>
    <clipPath id="clip-_12">
      <rect width="534" height="541"/>
    </clipPath>
  </defs>
  <g id="_12" data-name="12" clip-path="url(#clip-_12)">
    <g id="Group_27" data-name="Group 27" transform="translate(-11 -15)">
      <g id="Group_10" data-name="Group 10" transform="translate(-4889 -1189)">
        <path id="Path_69" data-name="Path 69" d="M370.9,182.3,364,261.2a126.88,126.88,0,0,1-55.2,94L256,390.9l-52.8-35.7a126.7,126.7,0,0,1-55.2-94l-6.9-78.9L256,119.1Z" transform="translate(4910.926 1220.025)" fill="#fff"/>
        <circle id="Ellipse_6" data-name="Ellipse 6" cx="72" cy="72" r="72" transform="translate(5094.926 1404.025)" fill="none"/>
        <path id="Path_70" data-name="Path 70" d="M255.5,7.7l10.1,20.4L288,31.3,271.8,47.1l3.8,22.4L255.5,58.9l-20,10.6,3.8-22.4L223.1,31.3l22.4-3.2Z" transform="translate(4910.926 1220.025)" fill="#fff"/>
        <path id="Path_71" data-name="Path 71" d="M275.6,77.5a7.786,7.786,0,0,1-3.7-.9L255.5,68l-16.3,8.6a7.994,7.994,0,0,1-11.6-8.4L230.7,50,217.5,37a7.818,7.818,0,0,1-2-8.2,7.9,7.9,0,0,1,6.5-5.4l18.3-2.7,8.2-16.6c2.7-5.5,11.6-5.5,14.3,0L271,20.7l18.3,2.7a8.205,8.205,0,0,1,6.5,5.4,7.865,7.865,0,0,1-2,8.2L280.6,49.9l3.1,18.2a7.939,7.939,0,0,1-3.2,7.8A8.418,8.418,0,0,1,275.6,77.5ZM255.5,50.9a7.786,7.786,0,0,1,3.7.9l5.7,3-1.1-6.4a8.175,8.175,0,0,1,2.3-7.1l4.6-4.5-6.4-.9a7.85,7.85,0,0,1-6-4.4l-2.9-5.8-2.9,5.8a8.018,8.018,0,0,1-6,4.4l-6.4.9,4.6,4.5a8.083,8.083,0,0,1,2.3,7.1l-1.1,6.4,5.7-3A9.959,9.959,0,0,1,255.5,50.9Z" transform="translate(4910.926 1220.025)" fill="#a9a9a9"/>
        <path id="Path_72" data-name="Path 72" d="M103.5,71.7l10.1,20.4L136,95.3l-16.2,15.8,3.8,22.4-20.1-10.6-20,10.6,3.8-22.4L71.1,95.3l22.4-3.2Z" transform="translate(4910.926 1220.025)" fill="#fff"/>
        <path id="Path_73" data-name="Path 73" d="M123.6,141.5a7.786,7.786,0,0,1-3.7-.9L103.6,132l-16.3,8.6a7.994,7.994,0,0,1-11.6-8.4L78.8,114,65.5,101A7.97,7.97,0,0,1,70,87.4l18.3-2.7,8.2-16.6c2.7-5.5,11.6-5.5,14.3,0L119,84.7l18.3,2.7a8.205,8.205,0,0,1,6.5,5.4,7.865,7.865,0,0,1-2,8.2l-13.2,12.9,3.1,18.2a7.939,7.939,0,0,1-3.2,7.8A8.418,8.418,0,0,1,123.6,141.5Zm-20.1-26.6a7.786,7.786,0,0,1,3.7.9l5.7,3-1.1-6.4a8.175,8.175,0,0,1,2.3-7.1l4.6-4.5-6.4-.9a7.85,7.85,0,0,1-6-4.4l-2.9-5.8-2.9,5.8a8.018,8.018,0,0,1-6,4.4l-6.4.9,4.6,4.5a8.082,8.082,0,0,1,2.3,7.1l-1.1,6.4,5.7-3A9.959,9.959,0,0,1,103.5,114.9Z" transform="translate(4910.926 1220.025)" fill="#a9a9a9"/>
        <path id="Path_74" data-name="Path 74" d="M407.5,71.7l10.1,20.4L440,95.3l-16.2,15.8,3.8,22.4-20.1-10.6-20,10.6,3.8-22.4L375.1,95.3l22.4-3.2Z" transform="translate(4910.926 1220.025)" fill="#fff"/>
        <path id="Path_75" data-name="Path 75" d="M427.6,141.5a7.786,7.786,0,0,1-3.7-.9L407.6,132l-16.3,8.6a7.994,7.994,0,0,1-11.6-8.4l3.1-18.2-13.3-13A7.97,7.97,0,0,1,374,87.4l18.3-2.7,8.2-16.6c2.7-5.5,11.6-5.5,14.3,0L423,84.7l18.3,2.7a8.205,8.205,0,0,1,6.5,5.4,7.865,7.865,0,0,1-2,8.2l-13.2,12.9,3.1,18.2a7.939,7.939,0,0,1-3.2,7.8A8.418,8.418,0,0,1,427.6,141.5Zm-20.1-26.6a7.786,7.786,0,0,1,3.7.9l5.7,3-1.1-6.4a8.175,8.175,0,0,1,2.3-7.1l4.6-4.5-6.4-.9a7.85,7.85,0,0,1-6-4.4l-2.9-5.8-2.9,5.8a8.018,8.018,0,0,1-6,4.4l-6.4.9,4.6,4.5a8.082,8.082,0,0,1,2.3,7.1l-1.1,6.4,5.7-3A9.959,9.959,0,0,1,407.5,114.9Z" transform="translate(4910.926 1220.025)" fill="#a9a9a9"/>
        <path id="Path_76" data-name="Path 76" d="M103.5,375.7l10.1,20.4,22.4,3.2-16.2,15.8,3.8,22.4-20.1-10.6-20,10.6,3.8-22.4L71.1,399.3l22.4-3.2Z" transform="translate(4910.926 1220.025)" fill="#fff"/>
        <path id="Path_77" data-name="Path 77" d="M123.6,445.5a7.786,7.786,0,0,1-3.7-.9L103.6,436l-16.3,8.6a7.994,7.994,0,0,1-11.6-8.4L78.8,418,65.5,405A7.97,7.97,0,0,1,70,391.4l18.3-2.7,8.2-16.6c2.7-5.5,11.6-5.5,14.3,0l8.2,16.6,18.3,2.7a8.205,8.205,0,0,1,6.5,5.4,7.865,7.865,0,0,1-2,8.2l-13.2,12.9,3.1,18.2a7.939,7.939,0,0,1-3.2,7.8A8.418,8.418,0,0,1,123.6,445.5Zm-20.1-26.6a7.786,7.786,0,0,1,3.7.9l5.7,3-1.1-6.4a8.175,8.175,0,0,1,2.3-7.1l4.6-4.5-6.4-.9a7.85,7.85,0,0,1-6-4.4l-2.9-5.8-2.9,5.8a8.018,8.018,0,0,1-6,4.4l-6.4.9,4.6,4.5a8.082,8.082,0,0,1,2.3,7.1l-1.1,6.4,5.7-3A9.96,9.96,0,0,1,103.5,418.9Z" transform="translate(4910.926 1220.025)" fill="#a9a9a9"/>
        <path id="Path_78" data-name="Path 78" d="M407.5,375.7l10.1,20.4,22.4,3.2-16.2,15.8,3.8,22.4-20.1-10.6-20,10.6,3.8-22.4-16.2-15.8,22.4-3.2Z" transform="translate(4910.926 1220.025)" fill="#fff"/>
        <path id="Path_79" data-name="Path 79" d="M427.6,445.5a7.786,7.786,0,0,1-3.7-.9L407.6,436l-16.3,8.6a7.994,7.994,0,0,1-11.6-8.4l3.1-18.2-13.3-13a7.97,7.97,0,0,1,4.5-13.6l18.3-2.7,8.2-16.6c2.7-5.5,11.6-5.5,14.3,0l8.2,16.6,18.3,2.7a8.205,8.205,0,0,1,6.5,5.4,7.865,7.865,0,0,1-2,8.2l-13.2,12.9,3.1,18.2a7.939,7.939,0,0,1-3.2,7.8A8.418,8.418,0,0,1,427.6,445.5Zm-20.1-26.6a7.786,7.786,0,0,1,3.7.9l5.7,3-1.1-6.4a8.175,8.175,0,0,1,2.3-7.1l4.6-4.5-6.4-.9a7.85,7.85,0,0,1-6-4.4l-2.9-5.8-2.9,5.8a8.018,8.018,0,0,1-6,4.4l-6.4.9,4.6,4.5a8.082,8.082,0,0,1,2.3,7.1l-1.1,6.4,5.7-3A9.959,9.959,0,0,1,407.5,418.9Z" transform="translate(4910.926 1220.025)" fill="#a9a9a9"/>
        <path id="Path_80" data-name="Path 80" d="M471.5,223.7l10.1,20.4,22.4,3.2-16.2,15.8,3.8,22.4-20.1-10.6-20,10.6,3.8-22.4-16.2-15.8,22.4-3.2Z" transform="translate(4910.926 1220.025)" fill="#fff"/>
        <path id="Path_81" data-name="Path 81" d="M491.6,293.5a7.786,7.786,0,0,1-3.7-.9L471.6,284l-16.3,8.6a7.994,7.994,0,0,1-11.6-8.4l3.1-18.2-13.3-13a7.818,7.818,0,0,1-2-8.2,7.9,7.9,0,0,1,6.5-5.4l18.3-2.7,8.2-16.6c2.7-5.5,11.6-5.5,14.3,0l8.2,16.6,18.3,2.7a8.205,8.205,0,0,1,6.5,5.4,7.865,7.865,0,0,1-2,8.2l-13.2,12.9,3.1,18.2a7.939,7.939,0,0,1-3.2,7.8A8.418,8.418,0,0,1,491.6,293.5Zm-20.1-26.6a7.786,7.786,0,0,1,3.7.9l5.7,3-1.1-6.4a8.175,8.175,0,0,1,2.3-7.1l4.6-4.5-6.4-.9a7.85,7.85,0,0,1-6-4.4l-2.9-5.8-2.9,5.8a8.018,8.018,0,0,1-6,4.4l-6.4.9,4.6,4.5a8.082,8.082,0,0,1,2.3,7.1l-1.1,6.4,5.7-3A9.959,9.959,0,0,1,471.5,266.9Z" transform="translate(4910.926 1220.025)" fill="#a9a9a9"/>
        <path id="Path_82" data-name="Path 82" d="M39.5,223.7l10.1,20.4L72,247.3,55.8,263.1l3.8,22.4L39.5,274.9l-20,10.6,3.8-22.4L7.1,247.3l22.4-3.2Z" transform="translate(4910.926 1220.025)" fill="#fff"/>
        <path id="Path_83" data-name="Path 83" d="M59.6,293.5a7.786,7.786,0,0,1-3.7-.9L39.5,284l-16.3,8.6a7.994,7.994,0,0,1-11.6-8.4L14.7,266,1.5,253a7.818,7.818,0,0,1-2-8.2A7.9,7.9,0,0,1,6,239.4l18.3-2.7,8.2-16.6c2.7-5.5,11.6-5.5,14.3,0L55,236.7l18.3,2.7a8.205,8.205,0,0,1,6.5,5.4,7.865,7.865,0,0,1-2,8.2L64.6,265.9l3.1,18.2a7.939,7.939,0,0,1-3.2,7.8A8.418,8.418,0,0,1,59.6,293.5ZM39.5,266.9a7.786,7.786,0,0,1,3.7.9l5.7,3-1.1-6.4a8.175,8.175,0,0,1,2.3-7.1l4.6-4.5-6.4-.9a7.85,7.85,0,0,1-6-4.4l-2.9-5.8-2.9,5.8a8.018,8.018,0,0,1-6,4.4l-6.4.9,4.6,4.5a8.082,8.082,0,0,1,2.3,7.1l-1.1,6.4,5.7-3A9.96,9.96,0,0,1,39.5,266.9Z" transform="translate(4910.926 1220.025)" fill="#a9a9a9"/>
        <path id="Path_84" data-name="Path 84" d="M255.5,439.7l10.1,20.4,22.4,3.2-16.2,15.8,3.8,22.4-20.1-10.6-20,10.6,3.8-22.4-16.2-15.8,22.4-3.2Z" transform="translate(4910.926 1220.025)" fill="#fff"/>
        <path id="Path_85" data-name="Path 85" d="M275.6,509.5a7.786,7.786,0,0,1-3.7-.9L255.6,500l-16.3,8.6a7.994,7.994,0,0,1-11.6-8.4l3.1-18.2-13.3-13a7.97,7.97,0,0,1,4.5-13.6l18.3-2.7,8.2-16.6c2.7-5.5,11.6-5.5,14.3,0l8.2,16.6,18.3,2.7a8.205,8.205,0,0,1,6.5,5.4,7.865,7.865,0,0,1-2,8.2l-13.2,12.9,3.1,18.2a7.939,7.939,0,0,1-3.2,7.8A8.417,8.417,0,0,1,275.6,509.5Zm-20.1-26.6a7.786,7.786,0,0,1,3.7.9l5.7,3-1.1-6.4a8.175,8.175,0,0,1,2.3-7.1l4.6-4.5-6.4-.9a7.85,7.85,0,0,1-6-4.4l-2.9-5.8-2.9,5.8a8.018,8.018,0,0,1-6,4.4l-6.4.9,4.6,4.5a8.083,8.083,0,0,1,2.3,7.1l-1.1,6.4,5.7-3A9.959,9.959,0,0,1,255.5,482.9Z" transform="translate(4910.926 1220.025)" fill="#a9a9a9"/>
        <path id="Path_86" data-name="Path 86" d="M256,398.9a8.229,8.229,0,0,1-4.5-1.4l-52.8-35.7A134.112,134.112,0,0,1,140,261.9L133.1,183a7.838,7.838,0,0,1,4.1-7.7l114.9-63.2a8.089,8.089,0,0,1,7.7,0l114.9,63.2a7.926,7.926,0,0,1,4.1,7.7l-6.9,78.9a133.938,133.938,0,0,1-58.7,99.9l-52.8,35.7A7.67,7.67,0,0,1,256,398.9ZM149.5,186.8l6.4,73.7a118.023,118.023,0,0,0,51.8,88L256,381.2l48.3-32.7a118.32,118.32,0,0,0,51.8-88l6.4-73.7L256,128.2Z" transform="translate(4910.926 1220.025)" fill="#a9a9a9"/>
        <path id="Path_87" data-name="Path 87" d="M248,288a8.1,8.1,0,0,1-5.7-2.3l-24-24,11.3-11.3,17.8,17.8,34.4-41.3,12.3,10.2-40,48a7.987,7.987,0,0,1-5.8,2.9Z" transform="translate(4910.926 1220.025)" fill="#a9a9a9"/>
        <path id="Path_88" data-name="Path 88" d="M256,336a80,80,0,1,1,80-80A80.106,80.106,0,0,1,256,336Zm0-144a64,64,0,1,0,64,64A64.059,64.059,0,0,0,256,192Z" transform="translate(4910.926 1220.025)" fill="#a9a9a9"/>
      </g>
    </g>
  </g>
</svg>
