<?xml version="1.0" encoding="utf-8"?>
<!-- Generator: Adobe Illustrator 21.1.0, SVG Export Plug-In . SVG Version: 6.00 Build 0)  -->
<svg version="1.1" id="Layer_1" xmlns="http://www.w3.org/2000/svg" xmlns:xlink="http://www.w3.org/1999/xlink" x="0px" y="0px"
	 viewBox="0 0 30 30" style="enable-background:new 0 0 30 30;" xml:space="preserve">
<style type="text/css">
	.st0{fill:#FF6400;}
</style>
<path class="st0" d="M15,0C6.7,0,0,6.7,0,15s6.7,15,15,15s15-6.7,15-15S23.3,0,15,0z M15,28.8C7.4,28.8,1.2,22.6,1.2,15
	S7.4,1.2,15,1.2S28.8,7.4,28.8,15S22.6,28.8,15,28.8z"/>
<g>
	<path class="st0" d="M17.9,20.1c-1.3-1.3-2.5-2.5-3.8-3.8c-0.4-0.4-0.7-0.7-1.1-1.1c0,0.1,0,0.1,0,0.1c-0.2,0.7-0.3,1.4-0.5,2.1
		c0,0.2,0,0.3,0.1,0.4c1.4,1.4,2.8,2.7,4.1,4.1c0.1,0.1,0.3,0.3,0.4,0.5c0.4-0.5,0.7-0.9,1.1-1.3c0,0,0-0.1,0-0.1
		C18.2,20.7,18.2,20.4,17.9,20.1z"/>
	<path class="st0" d="M13.1,7.8c0.1,0.5,0.6,0.8,1,0.8c0.5,0,1.1,0,1.6,0c0.6,0,1-0.3,1.2-0.9c0.2-0.6,0.4-1.2,0.5-1.8
		C17.6,5.4,17.4,5,16.9,5c-0.6,0-1.3,0-1.9,0c-0.6,0-1.3,0-1.9,0c-0.5,0-0.7,0.3-0.6,0.8C12.7,6.5,12.9,7.1,13.1,7.8z"/>
	<path class="st0" d="M12.3,18.5c-0.2,0.8-0.4,1.6-0.5,2.4c0,0.1,0,0.2,0.1,0.2c0.3,0.3,0.5,0.6,0.8,1c0.8,0.9,1.6,1.9,2.4,2.8
		c0.6-0.7,1.2-1.4,1.7-2C15.2,21.5,13.7,20,12.3,18.5C12.3,18.5,12.3,18.5,12.3,18.5z"/>
	<path class="st0" d="M16.9,15.1c-0.9-0.9-1.7-1.7-2.6-2.6c-0.2-0.2-0.3-0.4-0.5-0.6c0,0.1,0,0.1-0.1,0.2c-0.2,0.7-0.3,1.4-0.5,2.1
		c0,0.1,0,0.2,0.1,0.3c1.5,1.5,2.9,2.9,4.4,4.4c0,0,0.1,0.1,0.1,0.1c0-0.1,0-0.1,0-0.1c-0.3-1.2-0.5-2.3-0.8-3.5
		C17,15.3,16.9,15.1,16.9,15.1z"/>
	<path class="st0" d="M16.6,13.9C16.7,13.9,16.7,13.9,16.6,13.9c-0.3-1.5-0.6-3-0.9-4.5c0-0.1-0.1-0.1-0.2-0.1c-0.4,0-0.7,0-1.1,0
		c-0.1,0-0.2,0.1-0.2,0.2c-0.1,0.5-0.2,1-0.3,1.6c0,0.1,0,0.2,0.1,0.3c0.7,0.7,1.3,1.3,2,2C16.2,13.5,16.4,13.7,16.6,13.9z"/>
</g>
</svg>
