<?xml version="1.0" encoding="UTF-8" standalone="no"?>
<svg
   xmlns:dc="http://purl.org/dc/elements/1.1/"
   xmlns:cc="http://creativecommons.org/ns#"
   xmlns:rdf="http://www.w3.org/1999/02/22-rdf-syntax-ns#"
   xmlns:svg="http://www.w3.org/2000/svg"
   xmlns="http://www.w3.org/2000/svg"
   xml:space="preserve"
   style="enable-background:new 0 0 51 51;"
   viewBox="0 0 51 51"
   y="0px"
   x="0px"
   id="Layer_1"
   version="1.1"><metadata
     id="metadata23"><rdf:RDF><cc:Work
         rdf:about=""><dc:format>image/svg+xml</dc:format><dc:type
           rdf:resource="http://purl.org/dc/dcmitype/StillImage" /><dc:title></dc:title></cc:Work></rdf:RDF></metadata><defs
     id="defs21" /><style
     id="style3"
     type="text/css">
	.st0{fill:#666666;}
</style><path
     id="path5"
     d="M25.5,0.5c-13.8,0-25,11.2-25,25s11.2,25,25,25c13.8,0,25-11.2,25-25S39.3,0.5,25.5,0.5z M25.5,48.8  c-12.9,0-23.3-10.5-23.3-23.3S12.6,2.2,25.5,2.2c12.9,0,23.3,10.5,23.3,23.3S38.4,48.8,25.5,48.8z"
     class="st0" /><g
     id="g7"><path
       id="path9"
       d="M17.2,37.1c-0.3,0-0.5-0.2-0.5-0.5V14.4c0-0.3,0.2-0.5,0.5-0.5H28c0.1,0,0.3,0.1,0.4,0.2l5.8,5.9   c0.1,0.1,0.1,0.2,0.1,0.4v16.2c0,0.3-0.2,0.5-0.5,0.5H17.2z M17.7,36.1l15.6,0v-15h-5.4c-0.3,0-0.5-0.2-0.5-0.5v-5.7h-9.7V36.1z    M32.8,20.1l-4.4-4.5v4.5H32.8z"
       class="st0" /><path
       id="path11"
       d="M34,20.2l-5.8-5.9c0,0-0.1-0.1-0.2-0.1H17.2c-0.1,0-0.3,0.1-0.3,0.3v22.2c0,0.1,0.1,0.3,0.3,0.3h16.6   c0.1,0,0.3-0.1,0.3-0.3V20.4C34.1,20.3,34,20.2,34,20.2z M28.2,15l5.2,5.4h-5.2V15z M33.6,36.3l-16.1,0V14.7h10.2v5.9   c0,0.1,0.1,0.3,0.3,0.3h5.6V36.3z"
       class="st0" /><g
       id="g13"><path
         id="path15"
         d="M21.5,28.8v2.6h-1.1v-6.3h2.3c0.7,0,1.3,0.2,1.6,0.5c0.4,0.3,0.6,0.8,0.6,1.4c0,0.3-0.1,0.6-0.3,0.8    c-0.2,0.2-0.4,0.4-0.7,0.6c0.4,0.1,0.6,0.3,0.8,0.6c0.2,0.3,0.2,0.6,0.2,0.9v0.5c0,0.2,0,0.4,0.1,0.5c0,0.2,0.1,0.3,0.2,0.4v0.1    h-1.1c-0.1-0.1-0.2-0.2-0.2-0.5c0-0.2,0-0.4,0-0.6v-0.5c0-0.3-0.1-0.6-0.3-0.8c-0.2-0.2-0.4-0.3-0.8-0.3H21.5z M21.5,27.9h1.2    c0.4,0,0.7-0.1,0.9-0.2c0.2-0.2,0.3-0.4,0.3-0.7c0-0.3-0.1-0.6-0.3-0.8c-0.2-0.2-0.5-0.3-0.9-0.3h-1.3V27.9z"
         class="st0" /><path
         id="path17"
         d="M26.3,31.4v-6.3h2.1c0.8,0,1.5,0.3,2,0.8c0.5,0.5,0.8,1.1,0.8,1.9v1c0,0.8-0.3,1.4-0.8,1.9    c-0.5,0.5-1.2,0.7-2,0.7H26.3z M27.4,25.9v4.6h1c0.5,0,0.9-0.2,1.2-0.5c0.3-0.3,0.4-0.8,0.4-1.3v-1c0-0.5-0.2-1-0.4-1.3    c-0.3-0.3-0.7-0.5-1.2-0.5H27.4z"
         class="st0" /></g></g></svg>