<?xml version="1.0" encoding="UTF-8" standalone="no"?>
<svg
   xmlns:dc="http://purl.org/dc/elements/1.1/"
   xmlns:cc="http://creativecommons.org/ns#"
   xmlns:rdf="http://www.w3.org/1999/02/22-rdf-syntax-ns#"
   xmlns:svg="http://www.w3.org/2000/svg"
   xmlns="http://www.w3.org/2000/svg"
   version="1.1"
   id="Layer_1"
   x="0px"
   y="0px"
   viewBox="0 0 30 30"
   style="enable-background:new 0 0 30 30;"
   xml:space="preserve"><metadata
     id="metadata23"><rdf:RDF><cc:Work
         rdf:about=""><dc:format>image/svg+xml</dc:format><dc:type
           rdf:resource="http://purl.org/dc/dcmitype/StillImage" /><dc:title></dc:title></cc:Work></rdf:RDF></metadata><defs
     id="defs21" /><g
     style="fill:#333333"
     id="g3"><path
       style="fill:#333333"
       d="M30,27.7c0.1-0.7-0.2-1.4-0.8-1.9c-1-1-2.1-2-3.1-3c-1.2-1.1-2.4-2.3-3.6-3.4c4-6.4,1.6-13.3-2.7-16.6   C15.1-0.7,8.5-0.5,4.2,3.4c-4.5,4-5.5,10.4-2.4,15.6c1.4,2.4,3.5,4.1,6,5c4.2,1.6,8.1,1,11.8-1.5c0.2,0.2,0.4,0.4,0.6,0.6   c1.4,1.3,2.7,2.6,4.1,3.9c0.7,0.7,1.4,1.3,2.1,2c0.7,0.6,1.4,0.8,2.2,0.4C29.4,29.2,29.9,28.6,30,27.7z M9.4,22.4   c-5.3-1.6-8.4-7-6.9-12.6c1.5-5.3,7.3-8.5,12.7-7c5.3,1.6,8.5,7.1,6.9,12.6C20.6,20.8,14.9,23.9,9.4,22.4z"
       id="path5" /><path
       style="fill:#333333"
       d="M12.8,18.2c0.6,0.2,1.2,0.4,1.9,0.6c0.9-3,1.8-5.9,2.7-8.9c-0.6-0.2-1.2-0.4-1.9-0.6C14.6,12.3,13.7,15.2,12.8,18.2z"
       id="path7" /><path
       style="fill:#333333"
       d="M6.6,16.3c0.6,0.2,1.3,0.4,1.9,0.6c0.8-2.7,1.6-5.4,2.4-8C10.3,8.7,9.7,8.5,9,8.3C8.2,11,7.4,13.7,6.6,16.3z"
       id="path9" /><path
       style="fill:#333333"
       d="M9.7,17.2c0.6,0.2,1.2,0.4,1.9,0.6c0.7-2.2,1.3-4.4,2-6.7c-0.6-0.2-1.2-0.4-1.9-0.6C11,12.8,10.4,15,9.7,17.2z"
       id="path11" /><path
       style="fill:#333333"
       d="M18.4,10.8c0,0.2,0,0.4,0.1,0.6c0.2,0.3,0.4,0.3,0.8,0.3c0.3-0.1,0.4-0.3,0.5-0.6c0-0.3-0.1-0.5-0.3-0.7   c-0.1-0.1-0.3-0.2-0.3-0.3c-0.4-0.8-0.7-1.7-1.1-2.5C18,7.5,18,7.3,18,7.1c0.1-0.4,0-0.7-0.3-0.8c-0.3-0.1-0.7,0-0.9,0.3   c-0.1,0.2-0.3,0.3-0.4,0.4c-0.2,0.1-0.4,0.2-0.7,0.3c-0.8,0.2-1.5,1-2.5,0.7c-0.1,0-0.3-0.1-0.4-0.1c-0.7-0.5-1.4-1-2.1-1.5   c-0.2-0.1-0.3-0.3-0.4-0.5c-0.1-0.3-0.4-0.5-0.7-0.5C9.3,5.3,9.1,5.5,9,5.9C9,6,8.9,6.1,8.8,6.2C8,6.7,7.3,7.2,6.5,7.7   C6.4,7.8,6.2,7.8,6.1,7.8C5.6,7.8,5.4,8,5.3,8.4C5.2,8.7,5.5,9.1,5.8,9.2c0.4,0.1,0.7-0.1,0.8-0.5c0.1-0.1,0.2-0.3,0.3-0.4   c0.8-0.5,1.5-1,2.3-1.6c0.2-0.1,0.8-0.1,1,0c0.7,0.6,1.5,1.1,2.2,1.7c0.1,0.1,0.2,0.2,0.2,0.3c0.1,0.3,0.2,0.5,0.5,0.6   c0.3,0.1,0.6-0.1,0.8-0.4c0.1-0.1,0.2-0.3,0.4-0.3c0.8-0.4,1.6-0.7,2.4-1c0.4-0.2,0.6-0.1,0.8,0.3c0.3,0.8,0.7,1.6,1,2.5   c0.1,0.1,0,0.3,0.1,0.5C18.5,10.8,18.4,10.8,18.4,10.8z M5.8,9C5.5,8.9,5.4,8.6,5.5,8.3C5.6,8.1,5.9,7.9,6.1,8   c0.2,0.1,0.4,0.4,0.3,0.6C6.4,8.9,6.1,9.1,5.8,9z M9.5,6.5C9.3,6.4,9.1,6.1,9.2,5.9c0.1-0.3,0.4-0.4,0.6-0.4   c0.3,0.1,0.4,0.3,0.3,0.6C10.1,6.4,9.8,6.5,9.5,6.5z M13.1,9.1c-0.3-0.1-0.4-0.4-0.4-0.6c0.1-0.3,0.4-0.4,0.7-0.3   c0.3,0.1,0.4,0.4,0.3,0.6C13.7,9.1,13.4,9.2,13.1,9.1z M17.3,7.4C17,7.3,16.8,7,16.9,6.8c0.1-0.3,0.4-0.4,0.7-0.4   C17.8,6.5,18,6.8,17.9,7C17.9,7.3,17.6,7.5,17.3,7.4z M19.2,10.6c0.3,0.1,0.4,0.4,0.4,0.6c-0.1,0.3-0.4,0.4-0.7,0.4   c-0.3-0.1-0.4-0.4-0.3-0.6C18.7,10.7,19,10.5,19.2,10.6z"
       id="path13" /><path
       style="fill:#333333"
       d="M15.9,19.1c0.6,0.2,1.2,0.4,1.9,0.6c0.6-2.1,1.2-4.2,1.9-6.2c-0.6-0.2-1.2-0.4-1.9-0.6C17.1,15,16.5,17,15.9,19.1z"
       id="path15" /><path
       style="fill:#333333"
       d="M5.8,11.5c-0.3-0.1-0.7-0.3-0.9-0.2c-0.2,0.1-0.3,0.5-0.3,0.8c-0.3,1-0.6,2-0.9,2.9c0,0.1-0.1,0.3,0.1,0.3   c0.6,0.2,1.1,0.3,1.7,0.5c0.4-1.4,0.8-2.8,1.3-4.2C6.4,11.7,6.1,11.6,5.8,11.5z"
       id="path17" /></g></svg>