<svg xmlns="http://www.w3.org/2000/svg" xmlns:xlink="http://www.w3.org/1999/xlink" width="72" height="87" viewBox="0 0 72 87">
  <defs>
    <clipPath id="clip-Little_Finger">
      <rect width="72" height="87"/>
    </clipPath>
  </defs>
  <g id="Little_Finger" data-name="Little Finger" clip-path="url(#clip-Little_Finger)">
    <g id="Group_2562" data-name="Group 2562" transform="translate(-627 -447.721)">
      <g id="Group_2555" data-name="Group 2555" transform="translate(629.081 450.722)">
        <path id="Path_3074" data-name="Path 3074" d="M42.322,87.739c-18.706,0-21.215-18.926-22.563-29.093-.171-1.291-.327-2.471-.5-3.487a115.072,115.072,0,0,0-3.9-14.557c-1.514-4.813-2.71-8.617-2.71-10.812,0-3.111,2.473-5.434,4.685-5.434,2.754,0,5.035,1.8,6.258,4.933L27.424,39.1c-.721-7.975-1.656-18.2-1.831-19.618a6.766,6.766,0,0,1,1.433-5.409,5.279,5.279,0,0,1,4.023-1.76c3.445,0,5.9,2.319,6.577,6.2.169.969.593,3.451,1.1,6.431V12.314A6.292,6.292,0,0,1,45,5.875a6.407,6.407,0,0,1,6.358,6.439l.5,18.774c1.028-5.582,2.032-11.252,2.189-12.923.552-5.891,4.27-6.77,6.436-6.77,3.673,0,6.442,2.966,6.442,6.9a1.318,1.318,0,0,1-.008.148L62.769,56.728l4.914-5.12A7.548,7.548,0,0,1,78.378,62.263h0s-4.789,5.35-11.633,12.195L65.62,75.586C59.135,82.107,53.536,87.739,42.322,87.739ZM17.337,27.115a2.665,2.665,0,0,0-1.926,2.675c0,1.772,1.255,5.762,2.583,9.984A117.013,117.013,0,0,1,21.984,54.7c.174,1.044.335,2.254.51,3.579,1.409,10.632,3.538,26.7,19.828,26.7,10.066,0,15.042-5,21.341-11.34l1.13-1.133c6.793-6.793,11.534-12.087,11.581-12.139a4.815,4.815,0,0,0,.024-6.829,4.753,4.753,0,0,0-6.743,0l-7.7,8.022a1.38,1.38,0,0,1-2.367-1.1l4.577-42.234c-.029-2.4-1.535-4.068-3.683-4.068-1.626,0-3.336.508-3.689,4.268-.347,3.7-4.443,24.983-4.618,25.888a1.379,1.379,0,0,1-2.734-.224L48.6,12.351A3.612,3.612,0,0,0,45,8.635a3.563,3.563,0,0,0-3.519,3.679V41.289a1.379,1.379,0,0,1-2.739.231s-3.289-19.362-3.838-22.53c-.31-1.786-1.232-3.916-3.859-3.916a2.492,2.492,0,0,0-1.955.827,4.133,4.133,0,0,0-.762,3.241c.3,2.4,2.614,28.282,2.712,29.381a1.38,1.38,0,0,1-2.659.625L21.026,30.293C20.561,29.105,19.468,27.115,17.337,27.115Z" transform="translate(-12.652 -5.875)" fill="#aeaeae"/>
      </g>
      <circle id="Ellipse_395" data-name="Ellipse 395" cx="5.5" cy="5.5" r="5.5" transform="translate(629 469.045)" fill="#0726ff"/>
    </g>
  </g>
</svg>
