<svg xmlns="http://www.w3.org/2000/svg" xmlns:xlink="http://www.w3.org/1999/xlink" width="72" height="87" viewBox="0 0 72 87">
  <defs>
    <clipPath id="clip-Index_Finger">
      <rect width="72" height="87"/>
    </clipPath>
  </defs>
  <g id="Index_Finger" data-name="Index Finger" clip-path="url(#clip-Index_Finger)">
    <g id="Group_2563" data-name="Group 2563" transform="translate(-540.081 -268.722)">
      <g id="Group_2552" data-name="Group 2552" transform="translate(542.081 271.722)">
        <path id="Path_3074" data-name="Path 3074" d="M42.357,87.832c-18.729,0-21.241-18.948-22.59-29.126-.171-1.293-.328-2.473-.5-3.491a115.2,115.2,0,0,0-3.905-14.574c-1.516-4.819-2.713-8.627-2.713-10.825,0-3.114,2.476-5.44,4.691-5.44,2.757,0,5.041,1.8,6.266,4.939l3.833,9.822c-.722-7.984-1.658-18.22-1.833-19.64a6.773,6.773,0,0,1,1.435-5.415A5.285,5.285,0,0,1,31.07,12.32c3.45,0,5.911,2.322,6.585,6.209.169.971.594,3.455,1.1,6.439V12.321a6.3,6.3,0,0,1,6.286-6.446,6.414,6.414,0,0,1,6.366,6.446l.5,18.795c1.03-5.589,2.034-11.265,2.192-12.938.553-5.9,4.275-6.778,6.443-6.778,3.677,0,6.45,2.97,6.45,6.906a1.318,1.318,0,0,1-.008.148L62.829,56.786l4.92-5.126A7.557,7.557,0,0,1,78.456,62.327h0s-4.795,5.356-11.647,12.209l-1.126,1.13C59.191,82.194,53.584,87.832,42.357,87.832ZM17.343,27.139a2.668,2.668,0,0,0-1.928,2.678c0,1.775,1.256,5.768,2.586,10A117.141,117.141,0,0,1,22,54.759c.174,1.045.335,2.257.511,3.583,1.411,10.644,3.543,26.727,19.851,26.727,10.078,0,15.06-5.01,21.367-11.352l1.132-1.135c6.8-6.8,11.548-12.1,11.595-12.153a4.82,4.82,0,0,0,.024-6.837,4.759,4.759,0,0,0-6.751,0l-7.708,8.031a1.381,1.381,0,0,1-2.369-1.106l4.582-42.282c-.029-2.4-1.537-4.073-3.687-4.073-1.628,0-3.34.508-3.694,4.273C56.5,22.143,52.4,43.447,52.224,44.353a1.381,1.381,0,0,1-2.737-.225l-.841-31.77a3.616,3.616,0,0,0-3.6-3.72,3.567,3.567,0,0,0-3.523,3.683V41.329a1.381,1.381,0,0,1-2.742.231S35.484,22.176,34.934,19c-.31-1.788-1.233-3.92-3.864-3.92a2.5,2.5,0,0,0-1.958.828,4.138,4.138,0,0,0-.763,3.245c.3,2.405,2.617,28.314,2.716,29.414A1.381,1.381,0,0,1,28.4,49.2L21.036,30.32C20.571,29.131,19.476,27.139,17.343,27.139Z" transform="translate(-12.652 -5.875)" fill="#aeaeae"/>
      </g>
      <circle id="Ellipse_392" data-name="Ellipse 392" cx="5.5" cy="5.5" r="5.5" transform="translate(584.764 279)" fill="#0726ff"/>
    </g>
  </g>
</svg>
