<svg xmlns="http://www.w3.org/2000/svg" xmlns:xlink="http://www.w3.org/1999/xlink" width="534" height="541" viewBox="0 0 534 541">
  <defs>
    <clipPath id="clip-_9">
      <rect width="534" height="541"/>
    </clipPath>
  </defs>
  <g id="_9" data-name="9" clip-path="url(#clip-_9)">
    <g id="Group_24" data-name="Group 24" transform="translate(-3780 -223)">
      <g id="Group_12" data-name="Group 12">
        <path id="Path_105" data-name="Path 105" d="M58.383,55.539,75.2,45.828V9.957L10.5,47.309,41.566,65.246Zm0,0" transform="translate(3856.5 238)" fill="#fff" fill-rule="evenodd"/>
        <path id="Path_106" data-name="Path 106" d="M41.566,84.664V65.246L10.5,47.309l0,74.707,31.063-17.937Zm0,0" transform="translate(3856.5 238)" fill="#fff" fill-rule="evenodd"/>
        <path id="Path_107" data-name="Path 107" d="M58.383,113.789l-16.816-9.711L10.5,122.016l64.7,37.352V123.5Zm0,0" transform="translate(3856.5 238)" fill="#fff" fill-rule="evenodd"/>
        <path id="Path_108" data-name="Path 108" d="M92.012,113.789,75.2,123.5v35.871l64.7-37.352-31.066-17.937Zm0,0" transform="translate(3856.5 238)" fill="#fff" fill-rule="evenodd"/>
        <path id="Path_109" data-name="Path 109" d="M108.828,84.664v19.414l31.066,17.938V47.309L108.828,65.246Zm0,0" transform="translate(3856.5 238)" fill="#fff" fill-rule="evenodd"/>
        <path id="Path_110" data-name="Path 110" d="M92.012,55.539l16.816,9.707,31.066-17.937L75.2,9.957V45.828Zm0,0" transform="translate(3856.5 238)" fill="#fff" fill-rule="evenodd"/>
        <path id="Path_111" data-name="Path 111" d="M108.828,65.246,92.012,55.539,75.2,45.828,58.383,55.539,41.566,65.246v38.832l16.816,9.711L75.2,123.5l16.813-9.707,16.816-9.711Zm0,0" transform="translate(3856.5 238)" fill="#fff" fill-rule="evenodd"/>
        <path id="Path_112" data-name="Path 112" d="M267.414,138.219,288.73,125.91V80.434l-82.02,47.355,39.383,22.738Zm0,0" transform="translate(3856.5 238)" fill="none" fill-rule="evenodd"/>
        <path id="Path_113" data-name="Path 113" d="M246.094,175.141V150.528l-39.383-22.738V222.5l39.383-22.738Zm0,0" transform="translate(3856.5 238)" fill="none" fill-rule="evenodd"/>
        <path id="Path_114" data-name="Path 114" d="M267.414,212.063l-21.32-12.3L206.711,222.5l82.02,47.352V224.372Zm0,0" transform="translate(3856.5 238)" fill="none" fill-rule="evenodd"/>
        <path id="Path_115" data-name="Path 115" d="M310.047,212.063l-21.316,12.309v45.477L370.746,222.5l-39.383-22.738Zm0,0" transform="translate(3856.5 238)" fill="none" fill-rule="evenodd"/>
        <path id="Path_116" data-name="Path 116" d="M331.363,175.141v24.617L370.746,222.5V127.79l-39.383,22.738Zm0,0" transform="translate(3856.5 238)" fill="none" fill-rule="evenodd"/>
        <path id="Path_117" data-name="Path 117" d="M310.047,138.219l21.316,12.309,39.383-22.738L288.731,80.434V125.91Zm0,0" transform="translate(3856.5 238)" fill="none" fill-rule="evenodd"/>
        <path id="Path_118" data-name="Path 118" d="M331.363,150.527,288.73,125.91l-21.316,12.309-21.32,12.309v49.23l21.32,12.3,21.316,12.309,21.316-12.309,21.316-12.3Zm0,0" transform="translate(3856.5 238)" fill="none" fill-rule="evenodd"/>
        <path id="Path_125" data-name="Path 125" d="M206.637,363.41l-24.762-14.3-24.766-14.3L107.586,363.41V420.6l49.523,28.594,24.766-14.3,24.762-14.3Zm0,0" transform="translate(3856.5 238)" fill="#fff" fill-rule="evenodd"/>
        <path id="Path_126" data-name="Path 126" d="M262.3,335.7a10.121,10.121,0,0,0-4.918-7.359L162.11,273.328a10.111,10.111,0,0,0-10,0l-15.242,8.8a10,10,0,0,0,10,17.324l.242-.137v29.73l-39.523,22.816L81.836,337l5.3-3.059a10,10,0,0,0-10-17.324l-20.3,11.723a10.117,10.117,0,0,0-5,8.66V447.008a10.1,10.1,0,0,0,5.086,8.711l95.188,54.957a10.1,10.1,0,0,0,10,0l95.2-54.961a10.255,10.255,0,0,0,5.078-8.707V337a10.294,10.294,0,0,0-.086-1.3ZM71.84,354.32l25.746,14.863V414.82L71.84,429.687Zm35.746,77.824,39.523,22.82V484.7L81.84,447.011Zm59.527,22.82,39.523-22.82,25.746,14.863-65.27,37.684Zm0-155.652L232.383,337l-25.746,14.863-39.523-22.816Zm49.523,115.508V369.184l25.746-14.867v75.371Zm-99.051-45.637,39.523-22.82,39.523,22.82v45.637l-39.523,22.82-39.523-22.82Zm0,0" transform="translate(3856.5 238)" fill="#a9a9a9"/>
        <path id="Path_127" data-name="Path 127" d="M380.75,127.789a10.124,10.124,0,0,0-5-8.664L293.73,71.773a10.128,10.128,0,0,0-10,0l-82.016,47.352a10.129,10.129,0,0,0-5,8.664V222.5A10.1,10.1,0,0,0,201.8,231.2l81.93,47.3a10.109,10.109,0,0,0,10,0l81.934-47.3a10.144,10.144,0,0,0,5.082-8.707V127.789Zm-164.039,17.32L236.094,156.3v37.68l-19.383,11.191Zm114.652-6.133-32.633-18.84V97.758l52.016,30.031ZM288.73,212.824,256.1,193.98V156.3l32.633-18.84,32.633,18.84v37.68Zm-10-92.687-32.633,18.84-19.379-11.187,52.012-30.031ZM246.093,211.3l32.633,18.84v22.379L226.711,222.5Zm52.637,18.84,32.633-18.84L350.746,222.5,298.73,252.527Zm42.633-36.164V156.3l19.383-11.191v60.063Zm0,0" transform="translate(3856.5 238)" fill="#a9a9a9"/>
        <path id="Path_128" data-name="Path 128" d="M40.359,40.082a9.965,9.965,0,0,0,4.992-1.344l.23-.133a10,10,0,0,0-10-17.324l-.234.137a10,10,0,0,0,5.012,18.664Zm0,0" transform="translate(3856.5 238)" fill="#a9a9a9"/>
        <path id="Path_129" data-name="Path 129" d="M5.25,130.508c.113.07,64.945,37.52,64.945,37.52a10.1,10.1,0,0,0,10,0l64.605-37.3a10.136,10.136,0,0,0,5.09-8.711V47.309a10.122,10.122,0,0,0-5-8.66L80.2,1.3a10.118,10.118,0,0,0-15,8.66v30.1L41.566,53.7,25.457,44.4a10.079,10.079,0,0,0-14.992-8.613L5.5,38.649a10.127,10.127,0,0,0-5,8.66v74.707a10.07,10.07,0,0,0,4.75,8.492ZM31.566,71.02V98.3L20.5,104.692V64.633Zm98.328,33.672L118.828,98.3V71.02l11.066-6.387Zm-21.066,10.938,11.066,6.387L85.2,142.047V129.27ZM65.2,142.047,30.5,122.016l11.066-6.387L65.2,129.27v12.777Zm54.7-94.738L108.828,53.7,85.2,40.055V27.282ZM51.57,71.02,75.2,57.379,98.828,71.02V98.3L75.2,111.949,51.57,98.3Zm0,0" transform="translate(3856.5 238)" fill="#a9a9a9"/>
        <path id="Path_130" data-name="Path 130" d="M102.246,302.117l-.234.137a10,10,0,0,0,10.02,17.313l.234-.137a10,10,0,0,0-10.02-17.313Zm0,0" transform="translate(3856.5 238)" fill="#a9a9a9"/>
      </g>
    </g>
  </g>
</svg>
