<svg xmlns="http://www.w3.org/2000/svg" xmlns:xlink="http://www.w3.org/1999/xlink" width="534" height="541" viewBox="0 0 534 541">
  <defs>
    <clipPath id="clip-_7">
      <rect width="534" height="541"/>
    </clipPath>
  </defs>
  <g id="_7" data-name="7" clip-path="url(#clip-_7)">
    <g id="Group_22" data-name="Group 22">
      <path id="Path_131" data-name="Path 131" d="M320,136h96L320,40Z" transform="translate(27 31)" fill="#fff"/>
      <path id="Path_132" data-name="Path 132" d="M256,368a72,72,0,1,1-72-72A71.955,71.955,0,0,1,256,368Z" transform="translate(27 31)" fill="#fff"/>
      <path id="Path_133" data-name="Path 133" d="M24,264H200a16.047,16.047,0,0,0,16-16V24A16.047,16.047,0,0,0,200,8H24A16.047,16.047,0,0,0,8,24V248A16.047,16.047,0,0,0,24,264Zm48-32a8.024,8.024,0,0,1-8,8H48a8.024,8.024,0,0,1-8-8V216a8.024,8.024,0,0,1,8-8H64a8.024,8.024,0,0,1,8,8Zm0-56a8.024,8.024,0,0,1-8,8H48a8.024,8.024,0,0,1-8-8V160a8.024,8.024,0,0,1,8-8H64a8.024,8.024,0,0,1,8,8Zm0-56a8.024,8.024,0,0,1-8,8H48a8.024,8.024,0,0,1-8-8V104a8.024,8.024,0,0,1,8-8H64a8.024,8.024,0,0,1,8,8Zm56,112a8.024,8.024,0,0,1-8,8H104a8.024,8.024,0,0,1-8-8V216a8.024,8.024,0,0,1,8-8h16a8.024,8.024,0,0,1,8,8Zm0-56a8.024,8.024,0,0,1-8,8H104a8.024,8.024,0,0,1-8-8V160a8.024,8.024,0,0,1,8-8h16a8.024,8.024,0,0,1,8,8Zm0-56a8.024,8.024,0,0,1-8,8H104a8.024,8.024,0,0,1-8-8V104a8.024,8.024,0,0,1,8-8h16a8.024,8.024,0,0,1,8,8Zm56,112a8.024,8.024,0,0,1-8,8H160a8.024,8.024,0,0,1-8-8V216a8.024,8.024,0,0,1,8-8h16a8.024,8.024,0,0,1,8,8Zm0-56a8.024,8.024,0,0,1-8,8H160a8.024,8.024,0,0,1-8-8V160a8.024,8.024,0,0,1,8-8h16a8.024,8.024,0,0,1,8,8Zm0-56a8.024,8.024,0,0,1-8,8H160a8.024,8.024,0,0,1-8-8V104a8.024,8.024,0,0,1,8-8h16a8.024,8.024,0,0,1,8,8ZM32,32H192V72H32Z" transform="translate(27 31)" fill="#fff"/>
      <path id="Path_134" data-name="Path 134" d="M467.1,283.6A15.981,15.981,0,0,0,444.5,261l-11.3,11.3,22.6,22.6Z" transform="translate(27 31)" fill="#fff"/>
      <path id="Path_135" data-name="Path 135" d="M329.9,420.7,455.7,294.9l-22.6-22.6L307.3,398.1,288,440Zm109-108.9-22.6-22.6Z" transform="translate(27 31)" fill="#fff"/>
      <path id="Path_136" data-name="Path 136" d="M184,288a80,80,0,1,0,80,80A79.978,79.978,0,0,0,184,288Zm0,144a64,64,0,1,1,64-64A64.059,64.059,0,0,1,184,432Z" transform="translate(27 31)" fill="#a9a9a9"/>
      <path id="Path_137" data-name="Path 137" d="M184,344c9.8,0,16,4.7,16,8h16c0-11.4-10.1-20.6-24-23.2V320H176v8.8c-13.9,2.6-24,11.8-24,23.2,0,13.5,14.1,24,32,24,9.8,0,16,4.7,16,8s-6.2,8-16,8-16-4.7-16-8H152c0,11.4,10.1,20.6,24,23.2V416h16v-8.8c13.9-2.6,24-11.8,24-23.2,0-13.5-14.1-24-32-24-9.8,0-16-4.7-16-8S174.2,344,184,344Z" transform="translate(27 31)" fill="#a9a9a9"/>
      <path id="Path_138" data-name="Path 138" d="M408,464H72V272H200a23.942,23.942,0,0,0,24-24V48h88v96h96V256h16V132.7L323.3,32H224V24A23.942,23.942,0,0,0,200,0H24A23.942,23.942,0,0,0,0,24V248a23.942,23.942,0,0,0,24,24H56V480H424V368H408ZM328,59.3,396.7,128H328ZM16,248V24a8.024,8.024,0,0,1,8-8H200a8.024,8.024,0,0,1,8,8V248a8.024,8.024,0,0,1-8,8H24A8.024,8.024,0,0,1,16,248Z" transform="translate(27 31)" fill="#a9a9a9"/>
      <path id="Path_139" data-name="Path 139" d="M256,200h16v16H256Z" transform="translate(27 31)" fill="#a9a9a9"/>
      <path id="Path_140" data-name="Path 140" d="M288,200h96v16H288Z" transform="translate(27 31)" fill="#a9a9a9"/>
      <path id="Path_141" data-name="Path 141" d="M256,168h16v16H256Z" transform="translate(27 31)" fill="#a9a9a9"/>
      <path id="Path_142" data-name="Path 142" d="M288,168h96v16H288Z" transform="translate(27 31)" fill="#a9a9a9"/>
      <path id="Path_143" data-name="Path 143" d="M256,232h16v16H256Z" transform="translate(27 31)" fill="#a9a9a9"/>
      <path id="Path_144" data-name="Path 144" d="M288,232h96v16H288Z" transform="translate(27 31)" fill="#a9a9a9"/>
      <path id="Path_145" data-name="Path 145" d="M256,264h16v16H256Z" transform="translate(27 31)" fill="#a9a9a9"/>
      <path id="Path_146" data-name="Path 146" d="M288,264h96v16H288Z" transform="translate(27 31)" fill="#a9a9a9"/>
      <path id="Path_147" data-name="Path 147" d="M200,24H24V80H200ZM184,64H40V40H184Z" transform="translate(27 31)" fill="#a9a9a9"/>
      <path id="Path_148" data-name="Path 148" d="M64,88H48a16.047,16.047,0,0,0-16,16v16a16.047,16.047,0,0,0,16,16H64a16.047,16.047,0,0,0,16-16V104A16.047,16.047,0,0,0,64,88ZM48,120V104H64v16Z" transform="translate(27 31)" fill="#a9a9a9"/>
      <path id="Path_149" data-name="Path 149" d="M120,88H104a16.047,16.047,0,0,0-16,16v16a16.047,16.047,0,0,0,16,16h16a16.047,16.047,0,0,0,16-16V104A16.047,16.047,0,0,0,120,88Zm-16,32V104h16v16Z" transform="translate(27 31)" fill="#a9a9a9"/>
      <path id="Path_150" data-name="Path 150" d="M176,88H160a16.047,16.047,0,0,0-16,16v16a16.047,16.047,0,0,0,16,16h16a16.047,16.047,0,0,0,16-16V104A16.047,16.047,0,0,0,176,88Zm-16,32V104h16v16Z" transform="translate(27 31)" fill="#a9a9a9"/>
      <path id="Path_151" data-name="Path 151" d="M64,144H48a16.047,16.047,0,0,0-16,16v16a16.047,16.047,0,0,0,16,16H64a16.047,16.047,0,0,0,16-16V160A16.047,16.047,0,0,0,64,144ZM48,176V160H64v16Z" transform="translate(27 31)" fill="#a9a9a9"/>
      <path id="Path_152" data-name="Path 152" d="M120,144H104a16.047,16.047,0,0,0-16,16v16a16.047,16.047,0,0,0,16,16h16a16.047,16.047,0,0,0,16-16V160A16.047,16.047,0,0,0,120,144Zm-16,32V160h16v16Z" transform="translate(27 31)" fill="#a9a9a9"/>
      <path id="Path_153" data-name="Path 153" d="M176,144H160a16.047,16.047,0,0,0-16,16v16a16.047,16.047,0,0,0,16,16h16a16.047,16.047,0,0,0,16-16V160A16.047,16.047,0,0,0,176,144Zm-16,32V160h16v16Z" transform="translate(27 31)" fill="#a9a9a9"/>
      <path id="Path_154" data-name="Path 154" d="M64,200H48a16.047,16.047,0,0,0-16,16v16a16.047,16.047,0,0,0,16,16H64a16.047,16.047,0,0,0,16-16V216A16.047,16.047,0,0,0,64,200ZM48,232V216H64v16Z" transform="translate(27 31)" fill="#a9a9a9"/>
      <path id="Path_155" data-name="Path 155" d="M120,200H104a16.047,16.047,0,0,0-16,16v16a16.047,16.047,0,0,0,16,16h16a16.047,16.047,0,0,0,16-16V216A16.047,16.047,0,0,0,120,200Zm-16,32V216h16v16Z" transform="translate(27 31)" fill="#a9a9a9"/>
      <path id="Path_156" data-name="Path 156" d="M176,200H160a16.047,16.047,0,0,0-16,16v16a16.047,16.047,0,0,0,16,16h16a16.047,16.047,0,0,0,16-16V216A16.047,16.047,0,0,0,176,200Zm-16,32V216h16v16Z" transform="translate(27 31)" fill="#a9a9a9"/>
      <path id="Path_157" data-name="Path 157" d="M472.7,255.3a24.46,24.46,0,0,0-33.9,0L301.7,392.4a8.677,8.677,0,0,0-1.6,2.3l-19.3,41.9a7.985,7.985,0,0,0,10.6,10.6l41.9-19.3a7.326,7.326,0,0,0,2.3-1.6L472.7,289.2A23.9,23.9,0,0,0,472.7,255.3ZM325.3,414l-21,9.7,9.7-21L416.3,300.4l11.3,11.3ZM438.9,300.4l-11.3-11.3,5.6-5.6,11.3,11.3Zm22.5-22.5-5.7,5.7-11.3-11.3,5.7-5.7a8.219,8.219,0,0,1,11.3,0A7.85,7.85,0,0,1,461.4,277.9Z" transform="translate(27 31)" fill="#a9a9a9"/>
    </g>
  </g>
</svg>
