<svg xmlns="http://www.w3.org/2000/svg" xmlns:xlink="http://www.w3.org/1999/xlink" width="62" height="63" viewBox="0 0 62 63">
  <defs>
    <clipPath id="clip-scanPassport">
      <rect width="62" height="63"/>
    </clipPath>
  </defs>
  <g id="scanPassport" clip-path="url(#clip-scanPassport)">
    <path id="Union_14" data-name="Union 14" d="M1348.177-99a1.421,1.421,0,0,1-1.408-1.433,1.421,1.421,0,0,1,1.408-1.435h15V-117.12a1.423,1.423,0,0,1,1.409-1.434,1.424,1.424,0,0,1,1,.425,1.419,1.419,0,0,1,.409,1.01v16.686A1.42,1.42,0,0,1,1364.59-99Zm-40.767,0a1.422,1.422,0,0,1-1.41-1.433v-16.686a1.422,1.422,0,0,1,1.41-1.433,1.42,1.42,0,0,1,1.408,1.433v15.253h15a1.421,1.421,0,0,1,1.409,1.434A1.422,1.422,0,0,1,1323.822-99Zm50.872-18h-44.3v-6.588h2.531v4.118h39.657v-4.118h2.531V-117Zm-10.126-4.941v-2.471h5.063v2.471Zm-10.968,0v-2.471h8.438v2.471Zm-17.719,0v-2.471h12.657v2.471Zm-12.968-4.118v-2.471h13.517a6.21,6.21,0,0,1,3.333-4.266,4.487,4.487,0,0,1-1.772-3.558,4.591,4.591,0,0,1,4.64-4.53,4.591,4.591,0,0,1,4.641,4.53,4.486,4.486,0,0,1-1.772,3.558,6.208,6.208,0,0,1,3.333,4.265h33.08v2.471Zm15.895-2.471h7.647a4.015,4.015,0,0,0-3.824-2.7A4.015,4.015,0,0,0,1322.4-128.529Zm.87-7.824a2.921,2.921,0,0,0,2.953,2.882,2.921,2.921,0,0,0,2.954-2.882,2.922,2.922,0,0,0-2.954-2.883A2.922,2.922,0,0,0,1323.266-136.353Zm24.89,5.353v-2.471h5.907V-131Zm-10.968,0v-2.471h4.218V-131Zm18.985-.824v-10.706h-39.657v10.706h-2.531V-145H1358.7v13.177Zm-18.985-4.118v-2.47h16.875v2.47Zm-30.774-4.928a1.421,1.421,0,0,1-.409-1.012H1306v-16.686a1.423,1.423,0,0,1,1.41-1.433h16.412a1.422,1.422,0,0,1,1.409,1.433,1.422,1.422,0,0,1-1.409,1.435h-15v15.253a1.423,1.423,0,0,1-1.409,1.434A1.423,1.423,0,0,1,1306.414-140.87Zm56.767-1.012h0v-15.252h-15a1.423,1.423,0,0,1-1.409-1.435,1.422,1.422,0,0,1,1.4-1.432h16.417a1.421,1.421,0,0,1,1.41,1.433v16.686a1.423,1.423,0,0,1-1.409,1.435A1.422,1.422,0,0,1,1363.181-141.881Z" transform="translate(-1305 161)"/>
  </g>
</svg>
