<?xml version="1.0" encoding="UTF-8" standalone="no"?>
<svg
   xmlns:dc="http://purl.org/dc/elements/1.1/"
   xmlns:cc="http://creativecommons.org/ns#"
   xmlns:rdf="http://www.w3.org/1999/02/22-rdf-syntax-ns#"
   xmlns:svg="http://www.w3.org/2000/svg"
   xmlns="http://www.w3.org/2000/svg"
   xml:space="preserve"
   style="enable-background:new 0 0 22 22;"
   viewBox="0 0 22 22"
   y="0px"
   x="0px"
   id="Layer_1"
   version="1.1"><metadata
     id="metadata14"><rdf:RDF><cc:Work
         rdf:about=""><dc:format>image/svg+xml</dc:format><dc:type
           rdf:resource="http://purl.org/dc/dcmitype/StillImage" /><dc:title></dc:title></cc:Work></rdf:RDF></metadata><defs
     id="defs12" /><style
     id="style3"
     type="text/css">
	.st0{fill:#666666;}
</style><g
     id="g3_2_"><path
       d="M20.2,1.1c-6.2,0-12.3,0-18.5,0C1.2,1.1,1,1.2,1,1.8c0,4.6,0,9.3,0,13.9c0,0.6,0.2,0.7,0.8,0.7   c2.3,0,4.6,0,7,0c0.2,0,0.4,0,0.5,0.2c1.3,1.3,2.6,2.6,3.9,3.8c0.1,0.1,0.2,0.2,0.3,0.3c0.3,0.2,0.5,0.2,0.8,0   c0.3-0.2,0.3-0.4,0.3-0.7c0-0.7,0-1.4,0-2.2c0-0.5,0-1,0-1.5c1.9,0,3.8,0,5.7,0c0.6,0,0.8-0.2,0.8-0.7c0-4.6,0-9.3,0-13.9   C21,1.2,20.8,1.1,20.2,1.1z M20,15.4c-0.2,0-0.4,0-0.5,0c-1.8,0-3.5,0-5.2,0c-0.6,0-0.8,0.2-0.8,0.8c0,1,0,1.9,0.1,2.9   c0,0.1,0,0.2,0,0.4c-0.1-0.1-0.2-0.2-0.3-0.3c-1.2-1.1-2.3-2.3-3.5-3.4c-0.3-0.3-0.5-0.3-0.8-0.3c-2.2,0-4.3,0-6.5,0   c-0.1,0-0.3,0-0.4,0c0-4.4,0-8.8,0-13.3c6,0,11.9,0,17.9,0C20,6.5,20,10.9,20,15.4z"
       class="st0"
       id="path5_2_" /><path
       d="M7,13.2c0.3,0,0.5-0.2,0.7-0.3c1.6-1.6,3.2-3.3,4.9-4.9c0.1-0.1,0.2-0.2,0.4-0.1   c1,0.3,1.8,0,2.5-0.8C15.9,6.5,16,5.5,15.5,5c-0.4,0.4-0.7,0.8-1.2,1.2c-0.1,0.1-0.3,0.3-0.5,0.3c-0.3,0-0.6-0.1-0.8-0.4   c-0.2-0.3-0.1-0.6,0.2-0.9c0.4-0.4,0.8-0.8,1.2-1.2c-0.8-0.3-1.7-0.2-2.3,0.4c-0.7,0.6-0.9,1.4-0.6,2.3c0.1,0.2,0,0.3-0.1,0.5   c-1.6,1.6-3.2,3.2-4.8,4.8c-0.1,0.1-0.2,0.2-0.2,0.3c-0.2,0.3-0.3,0.5-0.1,0.8C6.4,13.1,6.7,13.3,7,13.2z"
       class="st0"
       id="path7_2_" /><path
       d="M12.8,9.1C12.7,9,12.6,9,12.5,8.9c-0.4,0.5-0.9,0.9-1.3,1.3c0.1,0,0.2,0.1,0.3,0.2   c0.8,0.8,1.5,1.5,2.3,2.3c0.7,0.7,0.8,0.7,1.5,0c0.4-0.4,0.4-0.7,0-1.1C14.4,10.8,13.6,9.9,12.8,9.1z"
       class="st0"
       id="path9_2_" /><path
       d="M7.4,5.7C7.7,5.7,7.8,5.9,8,6c0.6,0.6,1.1,1.1,1.7,1.7C9.8,7.6,9.9,7.5,10,7.4c0,0,0-0.1,0-0.1   C9.4,6.5,8.4,6,8,5C7.7,4.5,7.2,4.2,6.7,3.9C6.5,4.1,6.4,4.2,6.2,4.4c0.4,0.4,0.7,0.8,1,1.2C7.3,5.7,7.4,5.7,7.4,5.7z"
       class="st0"
       id="path11_2_" /></g></svg>