<svg xmlns="http://www.w3.org/2000/svg" xmlns:xlink="http://www.w3.org/1999/xlink" width="64" height="64" viewBox="0 0 64 64">
  <defs>
    <clipPath id="clip-FaceID">
      <rect width="64" height="64"/>
    </clipPath>
  </defs>
  <g id="FaceID" clip-path="url(#clip-FaceID)">
    <g id="Group_3" data-name="Group 3" transform="translate(49.5 -238.281)">
      <g id="Group_2" data-name="Group 2" transform="translate(-36.281 246.001)">
        <g id="Group_1" data-name="Group 1" transform="translate(0 0)">
          <path id="Path_21" data-name="Path 21" d="M45.19,66.789A24.157,24.157,0,0,1,37,66.911a1.353,1.353,0,0,0-.466,2.667,28.245,28.245,0,0,0,4.47.346,21.565,21.565,0,0,0,4.8-.5,1.354,1.354,0,1,0-.614-2.637Z" transform="translate(-21.926 -31.009)"/>
          <path id="Path_22" data-name="Path 22" d="M48.556,20.254c0-.179,0-.357,0-.533.005-.323.01-.646-.006-.97A18.67,18.67,0,0,0,45.659,9.7a19.994,19.994,0,0,0-6.623-6.566A18.218,18.218,0,0,0,21.2,2.392a19.635,19.635,0,0,0-8.354,8,18.273,18.273,0,0,0-2.452,8.642,49.379,49.379,0,0,0,.273,6.313A40.75,40.75,0,0,0,12.8,34.994a26.4,26.4,0,0,0,7.875,10.777,12.659,12.659,0,0,0,6.839,3.222,11.556,11.556,0,0,0,1.874.16,11.382,11.382,0,0,0,6.425-1.784,25.7,25.7,0,0,0,9.99-11.9A40.341,40.341,0,0,0,48.556,20.254Zm-14.2,24.837a7.586,7.586,0,0,1-6.4,1.231A10,10,0,0,1,22.422,43.7a23.7,23.7,0,0,1-7.076-9.633,38.045,38.045,0,0,1-1.988-9.009A46.8,46.8,0,0,1,13.1,19.1a15.6,15.6,0,0,1,2.1-7.369,16.978,16.978,0,0,1,7.218-6.919A15.437,15.437,0,0,1,29.444,3.12c.177,0,.353,0,.532.009a15.493,15.493,0,0,1,7.648,2.316,17.32,17.32,0,0,1,5.736,5.684,16,16,0,0,1,2.489,7.753c.013.266.009.53,0,.795,0,.2-.008.405-.005.592a37.661,37.661,0,0,1-2.556,14.192A22.964,22.964,0,0,1,34.355,45.091Z" transform="translate(-10.384 -0.412)"/>
          <path id="Path_23" data-name="Path 23" d="M42.172,59.019a1.354,1.354,0,0,0,1.834.549c1.413-.763,2.634-1.512,2.685-1.544a1.354,1.354,0,0,0-1.42-2.306c-.011.008-1.2.74-2.551,1.468A1.352,1.352,0,0,0,42.172,59.019Z" transform="translate(-24.97 -25.827)"/>
          <path id="Path_24" data-name="Path 24" d="M31.531,39.919a1.355,1.355,0,0,0,.923-2.345,9.728,9.728,0,0,0-11.488-1.3,1.354,1.354,0,1,0,1.39,2.323,7.1,7.1,0,0,1,8.252.956A1.348,1.348,0,0,0,31.531,39.919Z" transform="translate(-14.96 -16.351)"/>
          <path id="Path_25" data-name="Path 25" d="M58.851,36.253c-.2-.1-4.9-2.455-9-.39-3.467,1.744-3.757,5.39-3.672,7.982a1.353,1.353,0,0,0,1.351,1.31h.045a1.354,1.354,0,0,0,1.31-1.4c-.1-3.059.535-4.646,2.184-5.476,2.866-1.443,6.521.364,6.557.383a1.353,1.353,0,0,0,1.227-2.412Z" transform="translate(-26.886 -16.372)"/>
        </g>
      </g>
    </g>
    <path id="Union_3" data-name="Union 3" d="M469.178-425a1.421,1.421,0,0,1-1.409-1.433,1.421,1.421,0,0,1,1.409-1.434h15v-15.253a1.421,1.421,0,0,1,1.409-1.433A1.422,1.422,0,0,1,487-443.119v16.686A1.421,1.421,0,0,1,485.59-425Zm-40.768,0a1.422,1.422,0,0,1-1.41-1.433v-16.686a1.422,1.422,0,0,1,1.41-1.433,1.421,1.421,0,0,1,1.409,1.433v15.253h15a1.421,1.421,0,0,1,1.409,1.434A1.421,1.421,0,0,1,444.822-425Zm55.772-42.881v-15.253h-15a1.422,1.422,0,0,1-1.409-1.434A1.421,1.421,0,0,1,469.178-486H485.59A1.421,1.421,0,0,1,487-484.567v16.686a1.422,1.422,0,0,1-1.409,1.434A1.422,1.422,0,0,1,484.181-467.881Zm-57.182,0v-16.686A1.422,1.422,0,0,1,428.41-486h16.413a1.421,1.421,0,0,1,1.409,1.433,1.422,1.422,0,0,1-1.409,1.434h-15v15.253a1.422,1.422,0,0,1-1.409,1.434A1.422,1.422,0,0,1,427-467.881Z" transform="translate(-425 488)"/>
  </g>
</svg>
