<svg xmlns="http://www.w3.org/2000/svg" xmlns:xlink="http://www.w3.org/1999/xlink" width="64" height="64" viewBox="0 0 64 64">
  <defs>
    <clipPath id="clip-QR_Scan">
      <rect width="64" height="64"/>
    </clipPath>
  </defs>
  <g id="QR_Scan" clip-path="url(#clip-QR_Scan)">
    <path id="Union_2" data-name="Union 2" d="M41.475,59a1.386,1.386,0,1,1,0-2.772H56.228V41.475a1.386,1.386,0,1,1,2.772,0V57.614A1.386,1.386,0,0,1,57.614,59ZM1.386,59A1.386,1.386,0,0,1,0,57.614V41.475a1.386,1.386,0,0,1,2.772,0V56.228H17.525a1.386,1.386,0,0,1,0,2.772ZM11.874,48.51a1.387,1.387,0,0,1-1.386-1.386V31.975H13.26V45.739H45.738V31.975H48.51v15.15a1.385,1.385,0,0,1-1.386,1.386Zm25.114-5a.99.99,0,0,1-.99-.99V37.241a.99.99,0,0,1,.99-.99h5.275a.99.99,0,0,1,.99.99v5.275a.99.99,0,0,1-.99.99Zm.99-1.98h3.3v-3.3h-3.3Zm-13.332,1.98a.99.99,0,1,1,0-1.98H32.3a.99.99,0,0,1,0,1.98Zm-4.868-.99V37.882a.99.99,0,0,1,.99-.99h2.86a.99.99,0,0,1,0,1.98h-1.87v3.644a.99.99,0,1,1-1.98,0Zm-4.635,0V33.247a.99.99,0,0,1,1.98,0v9.269a.99.99,0,0,1-1.98,0Zm12.33-3.644a.99.99,0,1,1,0-1.98h3.842V33.247a.99.99,0,1,1,1.98,0h0v4.635a.99.99,0,0,1-.99.99Zm9.516-4.561a.99.99,0,0,1,0-1.98h5.275a.99.99,0,0,1,0,1.98Zm-16.517-.074a.99.99,0,0,1,0-1.98h7.495a.99.99,0,0,1,0,1.98Zm25.267-3.252H4.99a1.386,1.386,0,1,1,0-2.772h5.5V11.875a1.388,1.388,0,0,1,1.386-1.386H47.124a1.385,1.385,0,0,1,1.386,1.386V28.213h5.5a1.386,1.386,0,1,1,0,2.772H45.738ZM13.26,28.213H45.738V13.261H13.26Zm28.617-2.46V16.483a.99.99,0,0,1,1.98,0v9.269a.99.99,0,0,1-1.98,0Zm-10.843.99a.99.99,0,0,1,0-1.98h7.494a.99.99,0,1,1,0,1.98Zm-5.329-.99V21.118a.99.99,0,0,1,.99-.99h4.832a.99.99,0,0,1,0,1.98H27.685v3.645a.99.99,0,0,1-1.98,0Zm-8.97.916a.99.99,0,1,1,0-1.98h5.276a.99.99,0,0,1,0,1.98Zm0-3.92a.99.99,0,0,1-.99-.99V16.483a.99.99,0,0,1,.99-.99h5.276a.989.989,0,0,1,.989.99v5.276a.99.99,0,0,1-.99.99Zm.99-1.98h3.3v-3.3h-3.3Zm17.647,1.339a.99.99,0,0,1,0-1.98h1.87V16.483a.99.99,0,0,1,1.98,0v4.635a.99.99,0,0,1-.99.99Zm20.855-4.583V2.772H41.475a1.386,1.386,0,0,1,0-2.772H57.614A1.386,1.386,0,0,1,59,1.386V17.525a1.386,1.386,0,0,1-2.772,0ZM0,17.525V1.386A1.386,1.386,0,0,1,1.386,0H17.525a1.386,1.386,0,0,1,0,2.772H2.772V17.525a1.386,1.386,0,0,1-2.772,0Zm26.7-.052a.99.99,0,1,1,0-1.98h7.659a.99.99,0,1,1,0,1.98Z" transform="translate(3 3)"/>
  </g>
</svg>
