<svg xmlns="http://www.w3.org/2000/svg" xmlns:xlink="http://www.w3.org/1999/xlink" width="32" height="32" viewBox="0 0 32 32">
  <defs>
    <clipPath id="clip-sv">
      <rect width="32" height="32"/>
    </clipPath>
  </defs>
  <g id="sv" clip-path="url(#clip-sv)">
    <g id="Group_2843" data-name="Group 2843" transform="translate(-59.488 -253.382)">
      <g id="Group_2661" data-name="Group 2661" transform="translate(60.488 254.382)">
        <g id="Path_7489" data-name="Path 7489" transform="translate(-2.9 -9.263)" fill="#fff">
          <path d="M 25.97278594970703 39.054931640625 L 5.223196029663086 39.054931640625 C 3.859465837478638 39.054931640625 2.749995708465576 37.79566192626953 2.749995708465576 36.24781036376953 L 2.749995708465576 16.91995239257813 C 2.749995708465576 15.37209224700928 3.859465837478638 14.11281204223633 5.223196029663086 14.11281204223633 L 6.72943639755249 14.11281204223633 L 23.89421653747559 9.132091522216797 L 23.9009952545166 9.130131721496582 L 23.90792655944824 9.128802299499512 C 23.96467590332031 9.11799144744873 24.02548599243164 9.112502098083496 24.08867645263672 9.112502098083496 C 24.29172515869141 9.112502098083496 24.4874153137207 9.166872024536133 24.62555503845215 9.261672019958496 C 24.80266571044922 9.383201599121094 24.95564651489258 9.617861747741699 25.03476524353027 9.889362335205078 L 25.03642654418945 9.895061492919922 L 25.03762626647949 9.900861740112305 L 25.90391731262207 14.07641220092773 L 25.94096565246582 14.07641220092773 C 28.58570671081543 14.07641220092773 30.73735618591309 16.52767181396484 30.73735618591309 19.54067230224609 L 30.73735618591309 22.02011871337891 C 32.05139923095703 22.1400203704834 33.0605354309082 23.37087249755859 33.0605354309082 24.89133262634277 L 33.0605354309082 28.27643203735352 C 33.0605354309082 29.79577445983887 32.06538009643555 31.02617835998535 30.7691650390625 31.14742088317871 L 30.7691650390625 33.59069061279297 C 30.7691650390625 36.60368347167969 28.61751556396484 39.054931640625 25.97278594970703 39.054931640625 Z M 5.191365718841553 16.23277282714844 C 4.859595775604248 16.23277282714844 4.609405994415283 16.5281925201416 4.609405994415283 16.91995239257813 L 4.609405994415283 36.28421020507813 C 4.609405994415283 36.67597198486328 4.859595775604248 36.97139358520508 5.191365718841553 36.97139358520508 L 25.97278594970703 36.97139358520508 C 27.55715560913086 36.97139358520508 28.84612655639648 35.48747253417969 28.84612655639648 33.66348266601563 L 28.84612655639648 31.19275283813477 L 23.20405578613281 31.19275283813477 C 21.27878570556641 31.19275283813477 19.71246528625488 29.41097259521484 19.71246528625488 27.22086143493652 L 19.71246528625488 26.01969146728516 C 19.71246528625488 23.82958221435547 21.27878570556641 22.04779243469238 23.20405578613281 22.04779243469238 L 28.84612655639648 22.04779243469238 L 28.84612655639648 19.57706260681152 C 28.84612655639648 17.73301124572754 27.54287528991699 16.23277282714844 25.94096565246582 16.23277282714844 L 6.81441593170166 16.23277282714844 L 5.191365718841553 16.23277282714844 Z M 23.20405578613281 24.1313419342041 C 22.33657646179199 24.1313419342041 21.60370635986328 24.97942161560059 21.60370635986328 25.9832820892334 L 21.60370635986328 27.18445205688477 C 21.60370635986328 28.18831253051758 22.33657646179199 29.03639221191406 23.20405578613281 29.03639221191406 L 30.52370643615723 29.03639221191406 C 30.8857250213623 29.03639221191406 31.1693058013916 28.70258140563965 31.1693058013916 28.27643203735352 L 31.1693058013916 24.89133262634277 C 31.1693058013916 24.46517181396484 30.8857250213623 24.1313419342041 30.52370643615723 24.1313419342041 L 23.20405578613281 24.1313419342041 Z M 14.29750347137451 14.11281204223633 L 23.97342872619629 14.11281204223633 L 23.40924453735352 11.46712589263916 L 14.29750347137451 14.11281204223633 Z" stroke="none"/>
          <path d="M 24.08868026733398 9.262500762939453 C 24.03545951843262 9.262500762939453 23.98376655578613 9.267047882080078 23.9360179901123 9.276153564453125 L 6.750768661499023 14.26281356811523 L 5.223188400268555 14.26281356811523 C 3.95020866394043 14.26281356811523 2.899997711181641 15.46398162841797 2.899997711181641 16.91994285583496 L 2.899997711181641 36.24781036376953 C 2.899997711181641 37.70376205444336 3.95020866394043 38.90493011474609 5.223188400268555 38.90493011474609 L 25.97278785705566 38.90493011474609 C 28.51874732971191 38.90493011474609 30.61916732788086 36.53900146484375 30.61916732788086 33.59068298339844 L 30.61916732788086 31.00636100769043 C 31.89214706420898 30.96996116638184 32.91053771972656 29.76879119873047 32.91053771972656 28.27643203735352 L 32.91053771972656 24.89132118225098 C 32.91053771972656 23.39896202087402 31.89214706420898 22.19779205322266 30.58734703063965 22.16139221191406 L 30.58734703063965 19.54067230224609 C 30.58734703063965 16.62875175476074 28.51874732971191 14.22642135620117 25.94096755981445 14.22642135620117 L 25.78183746337891 14.22642135620117 L 24.8907470703125 9.931331634521484 C 24.82710647583008 9.712940216064453 24.69980812072754 9.494541168212891 24.54067802429199 9.385341644287109 C 24.42134857177734 9.303455352783203 24.24828720092773 9.262508392333984 24.08868026733398 9.262500762939453 M 24.15878677368164 14.26281356811523 L 13.24296760559082 14.26281356811523 L 23.52229690551758 11.27810287475586 L 24.15878677368164 14.26281356811523 M 28.99611663818359 22.19779205322266 L 23.20404815673828 22.19779205322266 C 21.35822677612305 22.19779205322266 19.86246871948242 23.9085521697998 19.86246871948242 26.01969146728516 L 19.86246871948242 27.22086143493652 C 19.86246871948242 29.33200263977051 21.35822677612305 31.04275131225586 23.20404815673828 31.04275131225586 L 28.99611663818359 31.04275131225586 L 28.99611663818359 33.66348266601563 C 28.99611663818359 35.55623245239258 27.62766647338867 37.12138366699219 25.97278785705566 37.12138366699219 L 5.191368103027344 37.12138366699219 C 4.777647018432617 37.12138366699219 4.45939826965332 36.75739288330078 4.45939826965332 36.28420257568359 L 4.45939826965332 16.91994285583496 C 4.45939826965332 16.44675254821777 4.777647018432617 16.08277130126953 5.191368103027344 16.08277130126953 L 6.814416885375977 16.08277130126953 L 25.94096755981445 16.08277130126953 C 27.62766647338867 16.08277130126953 28.99611663818359 17.64792251586914 28.99611663818359 19.57706260681152 L 28.99611663818359 22.19779205322266 M 30.52369689941406 29.18639183044434 L 23.20404815673828 29.18639183044434 C 22.24931716918945 29.18639183044434 21.45369720458984 28.27643203735352 21.45369720458984 27.18445205688477 L 21.45369720458984 25.9832820892334 C 21.45369720458984 24.89132118225098 22.24931716918945 23.98134231567383 23.20404815673828 23.98134231567383 L 30.52369689941406 23.98134231567383 C 30.96924781799316 23.98134231567383 31.31930732727051 24.3817310333252 31.31930732727051 24.89132118225098 L 31.31930732727051 28.27643203735352 C 31.31930732727051 28.78601264953613 30.96924781799316 29.18639183044434 30.52369689941406 29.18639183044434 M 24.08867645263672 8.962501525878906 L 24.08869743347168 8.962501525878906 C 24.32132720947266 8.962512969970703 24.54793739318848 9.026481628417969 24.71042633056641 9.137981414794922 C 24.91518783569336 9.27850341796875 25.09026718139648 9.543701171875 25.17876815795898 9.847400665283203 L 25.18208694458008 9.858783721923828 L 25.18448638916016 9.870391845703125 L 26.02614974975586 13.92724227905273 C 28.71443557739258 13.97905731201172 30.88734817504883 16.47727203369141 30.88734817504883 19.54067230224609 L 30.88734817504883 21.88702774047852 C 32.21147918701172 22.08309555053711 33.21053695678711 23.34488487243652 33.21053695678711 24.89132118225098 L 33.21053695678711 28.27643203735352 C 33.21053695678711 29.82106781005859 32.22542953491211 31.08198738098145 30.91916656494141 31.28011894226074 L 30.91916656494141 33.59068298339844 C 30.91916656494141 36.68639373779297 28.70022773742676 39.20493316650391 25.97278785705566 39.20493316650391 L 5.223188400268555 39.20493316650391 C 3.776756286621094 39.20493316650391 2.599998474121094 37.87837219238281 2.599998474121094 36.24781036376953 L 2.599998474121094 16.91994285583496 C 2.599998474121094 15.28937149047852 3.776756286621094 13.96281051635742 5.223188400268555 13.96281051635742 L 6.708108901977539 13.96281051635742 L 23.8524169921875 8.988033294677734 L 23.8659782409668 8.984100341796875 L 23.87985801696777 8.981452941894531 C 23.94584655761719 8.968883514404297 24.0161075592041 8.962501525878906 24.08867645263672 8.962501525878906 Z M 23.78807067871094 13.96281051635742 L 23.29617309570313 11.65614700317383 L 15.35203170776367 13.96281051635742 L 23.78807067871094 13.96281051635742 Z M 28.69611740112305 21.89779281616211 L 28.69611740112305 19.57706260681152 C 28.69611740112305 17.81572151184082 27.46015739440918 16.38277244567871 25.94096755981445 16.38277244567871 L 6.814416885375977 16.38277244567871 L 5.191368103027344 16.38277244567871 C 4.945108413696289 16.38277244567871 4.759397506713867 16.61370277404785 4.759397506713867 16.91994285583496 L 4.759397506713867 36.28420257568359 C 4.759397506713867 36.5904426574707 4.945108413696289 36.82138061523438 5.191368103027344 36.82138061523438 L 25.97278785705566 36.82138061523438 C 27.44898796081543 36.82138061523438 28.69611740112305 35.375244140625 28.69611740112305 33.66348266601563 L 28.69611740112305 31.34275245666504 L 23.20404815673828 31.34275245666504 C 21.19607734680176 31.34275245666504 19.56246757507324 29.49368286132813 19.56246757507324 27.22086143493652 L 19.56246757507324 26.01969146728516 C 19.56246757507324 23.74687194824219 21.19607734680176 21.89779281616211 23.20404815673828 21.89779281616211 L 28.69611740112305 21.89779281616211 Z M 30.52369689941406 28.88639259338379 C 30.80160713195801 28.88639259338379 31.01930809020996 28.61846160888672 31.01930809020996 28.27643203735352 L 31.01930809020996 24.89132118225098 C 31.01930809020996 24.54928207397461 30.80160713195801 24.28134155273438 30.52369689941406 24.28134155273438 L 23.20404815673828 24.28134155273438 C 22.41787719726563 24.28134155273438 21.75369644165039 25.06073188781738 21.75369644165039 25.9832820892334 L 21.75369644165039 27.18445205688477 C 21.75369644165039 28.10700225830078 22.41787719726563 28.88639259338379 23.20404815673828 28.88639259338379 L 30.52369689941406 28.88639259338379 Z" stroke="none" fill="#fff"/>
        </g>
      </g>
    </g>
  </g>
</svg>
