<?xml version="1.0" encoding="UTF-8" standalone="no"?>
<svg
   xmlns:dc="http://purl.org/dc/elements/1.1/"
   xmlns:cc="http://creativecommons.org/ns#"
   xmlns:rdf="http://www.w3.org/1999/02/22-rdf-syntax-ns#"
   xmlns:svg="http://www.w3.org/2000/svg"
   xmlns="http://www.w3.org/2000/svg"
   xml:space="preserve"
   style="enable-background:new 0 0 51 51;"
   viewBox="0 0 51 51"
   y="0px"
   x="0px"
   id="Layer_1"
   version="1.1"><metadata
     id="metadata27"><rdf:RDF><cc:Work
         rdf:about=""><dc:format>image/svg+xml</dc:format><dc:type
           rdf:resource="http://purl.org/dc/dcmitype/StillImage" /><dc:title></dc:title></cc:Work></rdf:RDF></metadata><defs
     id="defs25" /><style
     id="style3"
     type="text/css">
	.st0{fill:#666666;}
</style><g
     id="g5"><path
       id="path7"
       d="M25.5,0.5c-13.8,0-25,11.2-25,25s11.2,25,25,25c13.8,0,25-11.2,25-25S39.3,0.5,25.5,0.5z M25.5,48.8   c-12.9,0-23.3-10.5-23.3-23.3S12.6,2.2,25.5,2.2c12.9,0,23.3,10.5,23.3,23.3S38.4,48.8,25.5,48.8z"
       class="st0" /><g
       id="g9"><path
         id="path11"
         d="M20.4,21.9c1.8,0,3.2-1.4,3.2-3.2c0-1.8-1.4-3.2-3.2-3.2c0,0,0,0,0,0c-1.8,0-3.2,1.4-3.2,3.2    C17.2,20.5,18.7,21.9,20.4,21.9z M20.4,16.6c1.2,0,2.1,0.9,2.1,2.1c0,0,0,0,0,0h0c0,1.2-0.9,2.1-2.1,2.1s-2.1-0.9-2.1-2.1    C18.3,17.5,19.3,16.6,20.4,16.6z"
         class="st0" /><path
         id="path13"
         d="M26.2,28v-1c0-2.5-2-4.5-4.5-4.5h-2.4c-2.5,0-4.5,2-4.5,4.5v1c0,0.3,0.3,0.6,0.6,0.6h10.4    C25.9,28.5,26.2,28.3,26.2,28z M25.1,27.4h-9.3V27c0-1.9,1.5-3.4,3.4-3.4h2.4c1.9,0,3.4,1.5,3.4,3.4V27.4z"
         class="st0" /><path
         id="path15"
         d="M27.4,25.3C27.4,25.3,27.4,25.3,27.4,25.3c0,1.8,1.4,3.2,3.2,3.2c1.8,0,3.2-1.4,3.2-3.2    c0-1.8-1.4-3.2-3.2-3.2C28.8,22.1,27.4,23.5,27.4,25.3z M32.7,25.3L32.7,25.3c0,1.2-0.9,2.1-2.1,2.1c-1.2,0-2.1-0.9-2.1-2.1    c0-1.2,0.9-2.1,2.1-2.1c0,0,0,0,0,0C31.7,23.2,32.7,24.2,32.7,25.3z"
         class="st0" /><path
         id="path17"
         d="M31.8,29.1h-2.4c-2.5,0-4.5,2-4.5,4.5v1c0,0.3,0.3,0.6,0.6,0.6h10.4c0.3,0,0.6-0.3,0.6-0.6v-1    C36.3,31.1,34.3,29.1,31.8,29.1z M35.2,34h-9.3v-0.4c0-1.9,1.5-3.4,3.4-3.4h2.4c1.9,0,3.4,1.5,3.4,3.4V34z"
         class="st0" /><polygon
         id="polygon19"
         points="26.1,19.6 26.2,20.6 32,19.7 31.6,13.9 30.6,14 30.9,18.2 25.9,14.2 25.3,15 30.3,19   "
         class="st0" /><polygon
         id="polygon21"
         points="22.7,31.4 22.5,30.4 16.7,31.3 17.2,37.1 18.2,37 17.9,32.8 22.9,36.8 23.5,36 18.5,32   "
         class="st0" /></g></g></svg>