<?xml version="1.0" encoding="UTF-8" standalone="no"?>
<svg
   xmlns:dc="http://purl.org/dc/elements/1.1/"
   xmlns:cc="http://creativecommons.org/ns#"
   xmlns:rdf="http://www.w3.org/1999/02/22-rdf-syntax-ns#"
   xmlns:svg="http://www.w3.org/2000/svg"
   xmlns="http://www.w3.org/2000/svg"
   xml:space="preserve"
   style="enable-background:new 0 0 74 68;"
   viewBox="0 0 74 68"
   y="0px"
   x="0px"
   id="Layer_1"
   version="1.1"><metadata
     id="metadata27"><rdf:RDF><cc:Work
         rdf:about=""><dc:format>image/svg+xml</dc:format><dc:type
           rdf:resource="http://purl.org/dc/dcmitype/StillImage" /><dc:title></dc:title></cc:Work></rdf:RDF></metadata><defs
     id="defs25" /><style
     id="style3"
     type="text/css">
	.st0{fill:#FFFFFF;}
	.st1{fill:#29ABE2;}
</style><circle
     id="circle5"
     r="32.5"
     cy="34"
     cx="37"
     class="st0" /><g
     id="g7"><path
       id="path9"
       d="M49.8,34.9c0.2-2.5,0.8-5,0.7-7.4c-0.1-4.7-2.4-8.3-6.6-10.4c-4.3-2.1-8.6-2-12.7,0.7   c-3.2,2.2-5.1,5.2-5.9,9.1c-0.7,3.2-2.2,6-4.4,8.3c-0.3,0.3-0.6,0.6-0.9,0.9c-0.5,0.4-1.1,0.9-0.5,1.6c0.6,0.6,1.2,0,1.6-0.4   c2.7-2.5,4.6-5.5,5.6-9.1c0.3-1.2,0.6-2.5,1.1-3.6c2.3-5.4,7.7-8.2,13.1-6.7c5.4,1.4,8.5,6.4,7.8,12.4c-0.3,2.5-0.6,5-0.9,7.4   c0.1,0,0.1,0,0.2,0c0,0.7-0.1,1.5,0,2.2c0.4,1.8,0.9,3.5,1.5,5.2c0.1,0.3,0.8,0.3,1.2,0.5c0.1-0.4,0.4-0.9,0.2-1.1   C49.5,41.3,49.5,38.1,49.8,34.9z"
       class="st1" /><path
       id="path11"
       d="M54.6,28.6c-0.1-0.7-0.1-1.5-0.2-2.2c-1.1-10.1-9.9-15.9-18.9-14.4c-7.3,1.2-11.5,6-13.6,12.8   c-0.6,2-1.1,4.1-2.3,5.9c-0.2,0.3,0.1,0.8,0.2,1.2c0.4-0.1,0.8-0.2,1.1-0.4c0.2-0.1,0.4-0.5,0.5-0.7c0.7-1.8,1.5-3.6,2-5.5   c2.2-8.4,10.1-13.5,18.3-11.5C49.3,15.5,54,23,52.7,31.2c-0.4,2.6-0.5,5.3-0.7,8c0,0.3,0.6,0.7,0.9,1c0.2-0.4,0.7-0.8,0.7-1.2   c0.1-1.5,0-3.1,0.2-4.6c0.2-2,0.6-3.9,0.9-5.9C54.6,28.6,54.6,28.6,54.6,28.6z"
       class="st1" /><path
       id="path13"
       d="M45.8,39.7c-0.3-3.4,0.3-6.7,0.8-10c0.9-6.6-4.8-11.7-10.9-9.8c-3.7,1.1-5.7,4-6.5,7.6   c-1.2,5.3-4,9.5-8.4,12.8c-0.2,0.2-0.6,0.3-0.7,0.6c-0.1,0.3-0.2,0.7,0,1c0.1,0.2,0.6,0.3,0.9,0.2c0.3-0.1,0.6-0.3,0.9-0.5   c4.6-3.5,7.7-7.9,8.9-13.6c0.4-1.8,1.1-3.4,2.4-4.7c2-2,4.4-2.6,7-1.8c2.6,0.7,4.2,2.5,4.6,5.1c0.2,1.3,0.1,2.8,0,4.1   c-0.2,2.3-0.6,4.5-0.9,6.8c0.1,0,0.1,0,0.2,0c0,0.3,0,0.6,0,0.9c0.2,3.6,0.8,7.1,3.2,10.1c0.4,0.5,0.9,0.9,1.4,0.4   c0.2-0.2,0.1-1-0.1-1.3C46.8,45.2,46.1,42.6,45.8,39.7z"
       class="st1" /><path
       id="path15"
       d="M42.7,29.6c0.1-3.6-1.1-5.4-3.3-5.9C37.1,23,35,24,33.8,26.4c-0.3,0.6-0.5,1.2-0.7,1.8   c-1.4,6.6-5,11.8-10.5,15.7c-0.5,0.3-1,0.7-0.6,1.3c0.5,0.7,1,0.3,1.5,0c5.4-3.9,9.2-9,10.8-15.6c0.2-0.8,0.4-1.7,0.8-2.4   c0.8-1.7,2.2-2.3,3.8-1.9c1.5,0.4,2.3,1.5,2.1,3.4c-0.2,1.9-0.6,3.8-1.1,5.6c-1.9,6.2-4.9,11.6-10.5,15.2c-0.8,0.5-1.7,0.9-2.5,1.4   c-0.3,0.2-0.5,0.8-0.3,1c0.1,0.2,0.7,0.4,1,0.4c0.5-0.1,1-0.4,1.5-0.7C37.9,46.4,41.3,38.1,42.7,29.6z"
       class="st1" /><path
       id="path17"
       d="M43.2,45.4c-0.4-1.1-0.4-2.4-0.7-3.6c-0.1-0.3-0.4-0.6-0.6-1c-0.3,0.2-0.7,0.4-1,0.7c-0.2,0.2-0.3,0.5-0.4,0.8   c-2.2,4.9-5.5,8.8-10.4,11.2c-0.2,0.1-0.4,0.2-0.5,0.3c-0.1,0.3-0.3,0.7-0.2,1c0.1,0.2,0.6,0.4,0.8,0.3c0.3,0,0.6-0.2,0.9-0.4   c3.9-2.1,7-5.1,9.2-9c0.2-0.3,0.4-0.7,0.8-1.2c0.6,2.7,1.5,5,3.1,7c0.4,0.5,0.8,0.9,1.4,0.4c0.6-0.5,0.2-0.9-0.1-1.5   C44.8,48.9,43.9,47.2,43.2,45.4z"
       class="st1" /><path
       id="path19"
       d="M38.4,30.5c0.1-0.5,0.2-0.9,0.4-1.6c-0.2-0.2-0.4-0.7-0.6-0.7c-0.3,0-0.7,0.3-1,0.5c-0.1,0.1-0.1,0.4-0.2,0.6   c-2.1,7.7-5.6,14.4-13.2,18.2c-0.3,0.1-0.4,0.7-0.6,1.1c0.4,0.1,1,0.4,1.3,0.3c1.3-0.7,2.7-1.4,3.9-2.3   C33.8,42.5,36.7,36.9,38.4,30.5z"
       class="st1" /><path
       id="path21"
       d="M41.3,51.2c-0.6-0.9-1-0.9-1.8-0.2c-1.2,1.2-2.5,2.4-3.8,3.5c-0.4,0.4-1,0.7-0.5,1.4c0.5,0.7,1.1,0.3,1.5-0.1   c1.2-1,2.3-2,3.5-3.1c0.4,0.5,0.6,1,1.1,1.3c0.3,0.2,0.8,0.1,1.2,0.2c0-0.4,0.2-0.9,0-1.2C42.3,52.4,41.8,51.8,41.3,51.2z"
       class="st1" /></g></svg>