<?xml version="1.0" encoding="utf-8"?>
<!-- Generator: Adobe Illustrator 22.1.0, SVG Export Plug-In . SVG Version: 6.00 Build 0)  -->
<svg version="1.1"
	 id="svg8" xmlns:cc="http://creativecommons.org/ns#" xmlns:dc="http://purl.org/dc/elements/1.1/" xmlns:rdf="http://www.w3.org/1999/02/22-rdf-syntax-ns#" xmlns:svg="http://www.w3.org/2000/svg"
	 xmlns="http://www.w3.org/2000/svg" xmlns:xlink="http://www.w3.org/1999/xlink" x="0px" y="0px" viewBox="0 0 30 30"
	 style="enable-background:new 0 0 30 30;" xml:space="preserve">
<style type="text/css">
	.st0{fill:#FFFFFF;}
	.st1{fill:#00C764;}
</style>
<g>
	<circle class="st0" cx="15" cy="15" r="13.2"/>
	<g id="layer1" transform="translate(0,-289.06248)">
		<g id="g5176" transform="matrix(0.09203437,0,0,0.09203437,80.064948,125.37323)">
			<path id="path5172" class="st1" d="M-706.9,1784.4c-86.7,0-157.2,70.4-157.2,157.1c0,86.7,70.5,157.1,157.2,157.1
				s157.1-70.5,157.1-157.1C-549.8,1854.9-620.3,1784.4-706.9,1784.4z M-706.9,1802c77.2,0,139.5,62.4,139.5,139.5
				s-62.3,139.6-139.5,139.6c-77.2,0-139.6-62.4-139.6-139.6C-846.5,1864.4-784.1,1802-706.9,1802z M-633.7,1878.6
				c-1.9-0.3-3.9,0.2-5.5,1.5l-86.7,92.5l-44.9-47.9c-16.1-3-17,9.2-12.4,17.3l50.2,53.5c2.8,3,7.6,3,10.4,0l92-98.1
				C-622.5,1887.1-627.9,1879.4-633.7,1878.6L-633.7,1878.6z"/>
		</g>
	</g>
</g>
</svg>
