<?xml version="1.0" encoding="UTF-8" standalone="no"?>
<svg
   xmlns:dc="http://purl.org/dc/elements/1.1/"
   xmlns:cc="http://creativecommons.org/ns#"
   xmlns:rdf="http://www.w3.org/1999/02/22-rdf-syntax-ns#"
   xmlns:svg="http://www.w3.org/2000/svg"
   xmlns="http://www.w3.org/2000/svg"
   version="1.1"
   id="Layer_1"
   x="0px"
   y="0px"
   viewBox="0 0 30 30"
   style="enable-background:new 0 0 30 30;"
   xml:space="preserve"><metadata
     id="metadata25"><rdf:RDF><cc:Work
         rdf:about=""><dc:format>image/svg+xml</dc:format><dc:type
           rdf:resource="http://purl.org/dc/dcmitype/StillImage" /><dc:title></dc:title></cc:Work></rdf:RDF></metadata><defs
     id="defs23" /><g
     style="fill:#333333"
     id="g3"><path
       style="fill:#333333"
       d="M29.3,5.9c-0.1-0.2-0.3-0.3-0.5-0.5c-1.8-1.8-3.5-3.6-5.3-5.4c-0.2,0-0.4,0-0.6,0c-1.9,1.9-3.8,3.8-5.7,5.7   c-0.2,0.2-0.4,0.7-0.3,0.9c0,0.2,0.6,0.3,0.9,0.4c0.7,0.1,1.4,0,2.1,0c0,0.7,0,1.3,0,2c-3.3-2.3-6.5-2.3-9.6-0.1   C9.8,8.8,9.4,8.7,9,8.7c-1.5,0-2.9,0-4.4,0c-1,0-1.1,0.1-1.1,1.1c0,4.1,0,8.1,0,12.2c0,0.3,0,0.6,0,1c-0.8,0-1.5,0-2.2,0   c-0.3,0-0.7,0.2-0.8,0.4c-0.1,0.3,0.1,0.7,0.3,0.9c1.1,1.1,2.2,2.2,3.3,3.3c0.8,0.8,1.6,1.6,2.4,2.5c0.2,0,0.4,0,0.6,0   c1.9-1.9,3.8-3.8,5.7-5.7c0.2-0.2,0.4-0.7,0.3-0.9c0-0.2-0.5-0.3-0.9-0.4c-0.7-0.1-1.4,0-2.2,0c0-0.4,0-0.7,0-1c0-0.3,0-0.6,0-1   c3.4,2.4,6.6,2.3,9.7,0.1c0.5,0.1,0.8,0.2,1.1,0.3c1.5,0,2.9,0,4.4,0c1.1,0,1.1-0.1,1.1-1.2c0-4,0-8.1,0-12.1c0-0.3,0-0.6,0-1   c0.9,0,1.6,0,2.4,0c0.2,0,0.6-0.2,0.7-0.4C29.6,6.4,29.4,6.1,29.3,5.9z M10.9,24.2c-1.4,1.4-2.8,2.7-4.1,4.1   c-1.3-1.3-2.6-2.6-4-4.1c0.3,0,0.6,0,0.9,0c1,0,1.1-0.1,1.1-1.1c0-4.1,0-8.2,0-12.3c0-0.3,0-0.5,0-0.8c1.4,0,2.7,0,4.1,0   c-0.1,0.3-0.2,0.6-0.3,0.8c-1.7,2.8-1.7,5.6,0,8.5c0.1,0.2,0.2,0.6,0.2,0.8c0,1.1,0,2.1,0,3.2c0,0.6,0.2,0.9,0.9,0.9   C10.1,24.2,10.5,24.2,10.9,24.2z M15,21.4c-3.6,0-6.5-2.8-6.5-6.5c0-3.6,2.8-6.4,6.5-6.4c3.6,0,6.4,2.8,6.4,6.5   C21.4,18.7,18.6,21.4,15,21.4z M26.2,5.8c-0.9,0-1,0.1-1,1c0,4.1,0,8.2,0,12.4c0,0.3,0,0.5,0,0.9c-1.4,0-2.7,0-4.1,0   c0.1-0.3,0.2-0.6,0.3-0.8c1.8-2.8,1.8-5.6,0-8.5c-0.1-0.2-0.2-0.6-0.2-0.8c0-1,0-2.1,0-3.1c0-0.9-0.1-1-1-1c-0.3,0-0.7,0-1.1,0   c1.5-1.5,2.8-2.8,4.1-4.2c1.3,1.3,2.7,2.7,4.2,4.2C26.9,5.8,26.5,5.8,26.2,5.8z"
       id="path5" /><path
       style="fill:#333333"
       d="M15.7,14.4c0.5,0.3,1,0.4,1.5,0.4c0.5,0,1-0.1,1.5-0.4c0.5-0.4,0.5-0.9,0-1.3c-0.7-0.6-2.3-0.6-3,0   C15.3,13.5,15.3,14.1,15.7,14.4z"
       id="path7" /><path
       style="fill:#333333"
       d="M15.4,15c-0.2,0.8,0,1.3,0.7,1.6c0.7,0.3,1.5,0.3,2.2,0c0.7-0.3,0.9-0.6,0.8-1.7C18.4,16,16.2,16,15.4,15z"
       id="path9" /><path
       style="fill:#333333"
       d="M11.2,12.7c0.5,0.3,1,0.4,1.5,0.4c0.5,0,1-0.1,1.5-0.4c0.5-0.4,0.5-0.9,0-1.3c-0.7-0.6-2.3-0.6-3,0   C10.7,11.8,10.7,12.3,11.2,12.7z"
       id="path11" /><path
       style="fill:#333333"
       d="M10.9,13.1c-0.2,0.9,0,1.4,0.8,1.7c0.6,0.2,1.3,0.2,1.9,0c0.9-0.3,1.1-0.6,1-1.7C13.6,14.2,11.7,14.2,10.9,13.1z"
       id="path13" /><path
       style="fill:#333333"
       d="M10.9,14.9c-0.1,1,0.1,1.4,1,1.7c0.6,0.2,1.2,0.2,1.8,0c0.9-0.3,1.1-0.6,0.9-1.7C13.6,16.1,11.5,15.9,10.9,14.9z"
       id="path15" /><path
       style="fill:#333333"
       d="M10.9,16.8c-0.1,1.1,0.1,1.6,1.1,1.7c0.5,0.1,1.1,0.1,1.6,0c0.9-0.2,1.1-0.6,1-1.7C13.8,17.8,11.7,17.9,10.9,16.8z"
       id="path17" /><path
       style="fill:#333333"
       d="M15.4,16.8c-0.2,0.8,0,1.3,0.7,1.6c0.7,0.3,1.3,0.3,2,0.1c0.9-0.3,1.1-0.6,1-1.7C18.4,17.8,16.1,17.8,15.4,16.8z"
       id="path19" /></g></svg>