<?xml version="1.0" encoding="UTF-8" standalone="no"?>
<svg
   xmlns:dc="http://purl.org/dc/elements/1.1/"
   xmlns:cc="http://creativecommons.org/ns#"
   xmlns:rdf="http://www.w3.org/1999/02/22-rdf-syntax-ns#"
   xmlns:svg="http://www.w3.org/2000/svg"
   xmlns="http://www.w3.org/2000/svg"
   version="1.1"
   id="Layer_1"
   x="0px"
   y="0px"
   viewBox="0 0 30 30"
   style="enable-background:new 0 0 30 30;"
   xml:space="preserve"><metadata
     id="metadata19"><rdf:RDF><cc:Work
         rdf:about=""><dc:format>image/svg+xml</dc:format><dc:type
           rdf:resource="http://purl.org/dc/dcmitype/StillImage" /><dc:title></dc:title></cc:Work></rdf:RDF></metadata><defs
     id="defs17" /><g
     style="fill:#1a1a1a"
     id="g3"><path
       style="fill:#1a1a1a"
       d="M21.4,14.8c-0.2,0.1-0.5,0.2-0.7,0.2c-1.8-0.4-1.8-0.4-2.3-2.2c0,0,0,0,0-0.1c0.1-0.3,0.1-0.6,0.2-0.7   c0.6-0.6,1.2-1.2,1.9-1.9c-3-0.8-5.6,1.4-5.4,4.4c0,0.5-0.1,0.8-0.4,1.1c-2,2-4,4-6,5.9c-0.3,0.3-0.3,0.5-0.2,0.9   c0.2,0.7,0.2,1.5,0.6,1.9c0.4,0.4,1.3,0.4,1.9,0.6c0.4,0.1,0.6,0,0.9-0.3c2-2,4-4,6-6c0.3-0.3,0.5-0.4,0.9-0.4   c1.3,0.2,2.4-0.2,3.3-1.1c1.2-1.1,1.7-3,1.1-4.3C22.6,13.6,22,14.2,21.4,14.8z M9.3,24.1c-0.2,0-0.5-0.3-0.5-0.6   c0-0.2,0.3-0.5,0.5-0.5c0.2,0,0.5,0.3,0.7,0.4c0,0.1,0,0.2,0,0.3C9.8,23.8,9.5,24.1,9.3,24.1z"
       id="path5" /><path
       style="fill:#1a1a1a"
       d="M19.7,20.9c-0.6-0.8-1.3-0.6-2.2-0.4c0.7,0.7,1.5,1.4,2.2,2.1c-0.2,0.2-0.3,0.3-0.6,0.5c-0.8-0.8-1.5-1.5-2.2-2.3   c-0.2,0.2-0.4,0.3-0.6,0.6c0.8,0.8,1.6,1.5,2.4,2.2c-0.2,0.3-0.4,0.4-0.6,0.6c-0.8-0.8-1.5-1.6-2.2-2.4c-0.3,0.3-0.6,0.5-0.8,0.8   c0.9,0.9,1.8,1.8,2.7,2.7c0.9,0.9,2.3,0.9,3.2,0c0.9-0.9,0.9-2.2,0-3.2C20.5,21.8,20,21.4,19.7,20.9z"
       id="path7" /><path
       style="fill:#1a1a1a"
       d="M12.8,16.1c-2-1.5-3.2-3.9-5.5-5.2c-0.3,0.3-0.5,0.6-0.8,0.9c0.4,0.5,0.7,1.1,1.2,1.6c1.3,1.3,2.8,2.5,4.1,3.7   C12.1,16.9,12.4,16.6,12.8,16.1z"
       id="path9" /><path
       style="fill:#1a1a1a"
       d="M29.1,6.1H0.9C0.4,6.1,0,6.7,0,7.3l1.4,21.3c0,0.6,0.4,1.1,0.9,1.1h25.5c0.5,0,0.9-0.5,0.9-1.1L30,7.3   C30,6.7,29.6,6.1,29.1,6.1z M29.2,8.3l-1.3,19.3c0,0.6-0.4,1-0.8,1h-24c-0.4,0-0.8-0.4-0.8-1L1,8.3c0-0.6,0.3-1.2,0.8-1.2h26.5   C28.8,7.2,29.2,7.7,29.2,8.3z"
       id="path11" /><path
       style="fill:#1a1a1a"
       d="M0.9,6h28.4l0.1-1.8c0-0.4-0.2-0.7-0.5-0.7H12.4c-0.3,0-0.5-0.3-0.5-0.7V0.9c0-0.4-0.2-0.7-0.5-0.7h-9   c-0.3,0-0.5,0.3-0.5,0.7v1.8c0,0.4-0.2,0.7-0.5,0.7C1,3.5,0.7,3.8,0.8,4.2L0.9,6z"
       id="path13" /></g></svg>