<?xml version="1.0" encoding="UTF-8" standalone="no"?>
<svg
   xmlns:dc="http://purl.org/dc/elements/1.1/"
   xmlns:cc="http://creativecommons.org/ns#"
   xmlns:rdf="http://www.w3.org/1999/02/22-rdf-syntax-ns#"
   xmlns:svg="http://www.w3.org/2000/svg"
   xmlns="http://www.w3.org/2000/svg"
   xml:space="preserve"
   style="enable-background:new 0 0 24 24;"
   viewBox="0 0 24 24"
   y="0px"
   x="0px"
   id="Layer_1"
   version="1.1"><metadata
     id="metadata17"><rdf:RDF><cc:Work
         rdf:about=""><dc:format>image/svg+xml</dc:format><dc:type
           rdf:resource="http://purl.org/dc/dcmitype/StillImage" /><dc:title></dc:title></cc:Work></rdf:RDF></metadata><defs
     id="defs15" /><style
     id="style3"
     type="text/css">
	.st0{fill:#FF6400;}
</style><path
     id="path7"
     d="M 13.457031 3.75 C 13.188281 3.75 12.899609 3.8003906 12.599609 3.9003906 C 10.599609 4.6003906 8.6 5.3996094 6.5 6.0996094 C 4.8 6.7996094 2.9992187 7.4 1.1992188 8 C 0.39921875 8.4 -0.1 9.1 0 10 C 0 10.3 0.20078125 10.600391 0.30078125 10.900391 C 1.0007812 12.900391 1.8 15 2.5 17 C 2.8 17.9 3.6992187 18.499219 4.6992188 18.199219 C 5.4992187 17.999219 6.2003906 17.700391 6.9003906 17.400391 C 7.0003906 17.400391 7 17.199219 7 17.199219 L 7 14.800781 L 7 14.599609 C 6.9 14.599609 6.7992188 14.699219 6.6992188 14.699219 C 6.0992187 14.899219 5.4007813 15.200391 4.8007812 15.400391 C 4.4007813 15.500391 4.1996094 15.499219 4.0996094 15.199219 C 3.9996094 14.899219 4.1 14.699609 4.5 14.599609 C 5.3 14.299609 6.0007812 14.000781 6.8007812 13.800781 C 7.0007813 13.600781 7 13.500781 7 13.300781 L 7 11.400391 C 7 9.7003906 8.2 8.5 10 8.5 L 13.5 8.5 L 16.400391 8.5 C 16.400391 8.4 16.300781 8.2992188 16.300781 8.1992188 C 15.900781 7.1992188 15.599219 6.1996094 15.199219 5.0996094 C 14.899219 4.1996094 14.263281 3.75 13.457031 3.75 z M 10 9.5 C 9.1 9.5 8.2992188 10.100391 8.1992188 10.900391 C 7.9992188 11.200391 8 11.600391 8 11.900391 L 8 18.199219 C 8 19.399219 8.9 20.300781 10 20.300781 L 16 20.300781 L 22 20.300781 C 23.1 20.300781 24 19.400781 24 18.300781 L 24 11.400391 C 24 10.200391 23.199609 9.5 22.099609 9.5 L 17.199219 9.5 L 10 9.5 z M 4.8242188 9.9472656 C 5.0445313 9.9191406 5.2503906 9.9742187 5.4003906 10.199219 C 5.6003906 10.599219 5.8003906 11.1 5.9003906 11.5 C 5.9003906 12 5.7003906 12.200781 5.4003906 12.300781 C 5.0003906 12.500781 4.4996094 12.600781 4.0996094 12.800781 C 3.6996094 12.900781 3.2996094 12.800781 3.0996094 12.300781 L 2.8007812 11.400391 C 2.7007813 11.000391 2.7992187 10.6 3.1992188 10.5 C 3.6992188 10.3 4.0996094 10.2 4.5996094 10 C 4.6746094 9.975 4.7507813 9.9566406 4.8242188 9.9472656 z M 9.9003906 10.699219 L 15.300781 10.699219 L 21.900391 10.699219 C 22.500391 10.699219 22.699219 10.9 22.699219 11.5 L 22.699219 12.099609 L 9.1992188 12.099609 L 9.1992188 11.199219 C 9.1992188 10.899219 9.5003906 10.699219 9.9003906 10.699219 z M 9.3007812 14.400391 L 22.800781 14.400391 C 22.700781 14.600391 22.699219 14.800391 22.699219 14.900391 L 22.699219 18.300781 C 22.699219 18.800781 22.5 19 22 19 L 10.099609 19 C 9.4996094 19 9.3007812 18.799219 9.3007812 18.199219 L 9.3007812 14.699219 L 9.3007812 14.400391 z M 11 15.599609 C 10.6 15.599609 10.400391 15.8 10.400391 16 C 10.400391 16.3 10.7 16.5 11 16.5 L 14.099609 16.5 L 15.900391 16.5 L 17.300781 16.5 C 17.600781 16.5 17.699219 16.299609 17.699219 16.099609 C 17.699219 15.899609 17.500781 15.699609 17.300781 15.599609 L 17.099609 15.599609 L 11 15.599609 z "
     style="fill:#ff6400" /></svg>