<svg height="496pt" viewBox="0 0 496 496" width="496pt" xmlns="http://www.w3.org/2000/svg">
	<path fill="#a9a9a9" d="m352 264v40h-64c-26.472656 0-48 21.527344-48 48s21.527344 48 48 48h64v48h-336v-176h320v-16h-320v-8c0-4.40625 3.59375-8 8-8h250.984375v-16h-250.984375c-13.230469 0-24 10.769531-24 24v224c0 13.230469 10.769531 24 24 24h320c13.230469 0 24-10.769531 24-24v-208zm0 208c0 4.414062-3.59375 8-8 8h-320c-4.40625 0-8-3.585938-8-8v-8h336zm-64-88c-17.648438 0-32-14.351562-32-32s14.351562-32 32-32h64v64zm0 0"/>
	<path fill="#a9a9a9"  d="m32 288h16v16h-16zm0 0"/>
	<path d="m389.769531 272h-59.53125l-7.328125-21.945312c-6.023437-1.949219-11.839844-4.34375-17.367187-7.160157l-20.664063 10.304688-42.09375-42.078125 10.320313-20.664063c-2.816407-5.519531-5.210938-11.34375-7.160157-17.367187l-21.945312-7.320313v-59.53125l21.945312-7.328125c1.941407-6.023437 4.34375-11.839844 7.160157-17.367187l-10.320313-20.65625 42.101563-42.101563 20.65625 10.320313c5.519531-2.816407 11.34375-5.210938 17.367187-7.160157l7.320313-21.945312h59.53125l7.328125 21.945312c6.023437 1.941407 11.839844 4.34375 17.367187 7.160157l20.65625-10.320313 42.101563 42.101563-10.320313 20.65625c2.816407 5.519531 5.210938 11.34375 7.160157 17.367187l21.945312 7.320313v59.53125l-21.945312 7.328125c-1.941407 6.023437-4.34375 11.839844-7.160157 17.367187l10.320313 20.664063-42.09375 42.078125-20.664063-10.304688c-5.519531 2.816407-11.34375 5.203125-17.367187 7.160157zm0 0" fill="#a9a9a9"/>
	<path fill="#fff" d="m360 128c-4.40625 0-8-3.59375-8-8s3.59375-8 8-8 8 3.59375 8 8h16c0-10.414062-6.710938-19.214844-16-22.527344v-17.472656h-16v17.472656c-9.289062 3.3125-16 12.113282-16 22.527344 0 13.230469 10.769531 24 24 24 4.40625 0 8 3.59375 8 8s-3.59375 8-8 8-8-3.59375-8-8h-16c0 10.414062 6.710938 19.214844 16 22.527344v17.472656h16v-17.472656c9.289062-3.3125 16-12.113282 16-22.527344 0-13.230469-10.769531-24-24-24zm0 0"/>
	<path fill="#fff" d="m360 224c-48.519531 0-88-39.480469-88-88s39.480469-88 88-88 88 39.480469 88 88-39.480469 88-88 88zm0-160c-39.695312 0-72 32.304688-72 72s32.304688 72 72 72 72-32.304688 72-72-32.304688-72-72-72zm0 0"/>
	<path fill="#a9a9a9"  d="m32 320h16v16h-16zm0 0"/>
	<path fill="#fff" d="m32 352h16v16h-16zm0 0"/>
	<path fill="#a9a9a9" d="m32 384h16v16h-16zm0 0"/>
	<path fill="#a9a9a9" d="m32 416h16v16h-16zm0 0"/>
	<path fill="#a9a9a9"  d="m72 80h16v24h-16zm0 0"/>
	<path fill="#a9a9a9"  d="m40.402344 99.714844 11.3125-11.3125 16.96875 16.972656-11.3125 11.3125zm0 0"/>
	<path fill="#a9a9a9" d="m32 120h24v16h-24zm0 0"/>
	<path fill="#a9a9a9" d="m40.402344 156.285156 16.96875-16.972656 11.3125 11.316406-16.96875 16.96875zm0 0"/>
	<path fill="#a9a9a9" d="m72 152h16v24h-16zm0 0"/>
	<path fill="#a9a9a9" d="m91.3125 150.625 11.3125-11.3125 16.972656 16.96875-11.316406 11.316406zm0 0"/>
	<path fill="#a9a9a9" d="m104 120h24v16h-24zm0 0"/>
	<path fill="#a9a9a9" d="m91.3125 105.371094 16.96875-16.96875 11.3125 11.3125-16.96875 16.96875zm0 0"/>
	<path fill="#a9a9a9" d="m176 56h16v16h-16zm0 0"/>
	<path fill="#a9a9a9" d="m176 88h16v16h-16zm0 0"/>
	<path fill="#a9a9a9" d="m192 72h16v16h-16zm0 0"/>
	<path fill="#a9a9a9" d="m160 72h16v16h-16zm0 0"/>
	<path fill="#a9a9a9" d="m424 360h16v24h-16zm0 0"/>
	<path fill="#a9a9a9" d="m392.394531 379.703125 11.3125-11.3125 16.972657 16.964844-11.3125 11.316406zm0 0"/>
	<path fill="#a9a9a9" d="m384 400h24v16h-24zm0 0"/>
	<path fill="#a9a9a9" d="m392.398438 436.285156 16.972656-16.972656 11.3125 11.316406-16.972656 16.96875zm0 0"/>
	<path fill="#a9a9a9" d="m424 432h16v24h-16zm0 0"/>
	<path fill="#a9a9a9" d="m443.308594 430.613281 11.3125-11.316406 16.972656 16.96875-11.3125 11.3125zm0 0"/>
	<path fill="#a9a9a9" d="m456 400h24v16h-24zm0 0"/>
	<path fill="#a9a9a9" d="m443.304688 385.375 16.972656-16.972656 11.3125 11.3125-16.96875 16.972656zm0 0"/>
	<path fill="#a9a9a9" d="m432 280h16v16h-16zm0 0"/><path fill="#a9a9a9" d="m432 312h16v16h-16zm0 0"/>
	<path fill="#a9a9a9" d="m448 296h16v16h-16zm0 0"/>
	<path fill="#a9a9a9" d="m416 296h16v16h-16zm0 0"/>
	<path fill="#a9a9a9" d="m288 376c-13.230469 0-24-10.769531-24-24s10.769531-24 24-24 24 10.769531 24 24-10.769531 24-24 24zm0-32c-4.40625 0-8 3.585938-8 8s3.59375 8 8 8 8-3.585938 8-8-3.59375-8-8-8zm0 0"/></svg> 