<?xml version="1.0" encoding="utf-8"?>
<!-- Generator: Adobe Illustrator 21.1.0, SVG Export Plug-In . SVG Version: 6.00 Build 0)  -->
<svg version="1.1"
	 id="svg2" xmlns:cc="http://creativecommons.org/ns#" xmlns:dc="http://purl.org/dc/elements/1.1/" xmlns:rdf="http://www.w3.org/1999/02/22-rdf-syntax-ns#" xmlns:svg="http://www.w3.org/2000/svg"
	 xmlns="http://www.w3.org/2000/svg" xmlns:xlink="http://www.w3.org/1999/xlink" x="0px" y="0px" viewBox="0 0 500 330"
	 style="enable-background:new 0 0 500 330;" xml:space="preserve">
<style type="text/css">
	.st0{fill:#D52736;}
	.st1{fill:#FAB60F;}
</style>
<path id="path3390" class="st0" d="M237.5,73.9c-9.1,0-18.9,0.4-24.3,1.2c-33.3,5.2-63.3,20.7-89.3,46c-5.8,5.7-11,11.4-15.7,17.4
	l-1.9,2.4l3.9-3.2c28.5-23.5,60-39.3,90.4-45.4c30.2-6.1,64.2-2.4,88.6,9.6c10,4.9,17.5,10.3,26.2,18.7c20.5,20,35,48.4,41.6,81.9
	c2.3,11.4,3.1,18.6,3.7,31.8c0.3,6.2,0.7,12,1,13c0.8,2.5,2.3,4.4,4,5.2c1.9,0.8,3,0.8,5.3,0c2.4-0.8,3.6-2,4.9-4.4
	c1.3-2.6,1.7-11.3,0.9-23.8c-2.9-47.2-18.8-85.2-47.3-112.9c-20.7-20.1-44.5-31.8-74.5-36.5C251.3,74.3,244.6,74,237.5,73.9
	L237.5,73.9z M230.7,111.2c-6.1,0-12.3,0.3-16.4,0.9c-28,4.1-56.7,17.3-83.5,38.2c-14.4,11.2-31.8,28.6-35.5,35.5
	c-2.6,4.8-2,9.5,1.3,10.8c4.1,1.5,9.7-1.9,24.7-15.4c9.1-8.1,17.2-14.6,25.1-20.1c40.1-27.7,80.1-36.8,113-25.9
	c20.5,6.8,36.3,20.9,46.7,41.5c9.1,18.1,12.6,35.6,14.3,70.3l0.3,6.2h9.2h9.2V242c0-25.4-3.7-47.2-11.1-65.3
	c-10.9-26.6-33.9-49.2-60.3-59.2c-4.6-1.7-15-4.4-21.3-5.4C242.8,111.5,236.8,111.2,230.7,111.2L230.7,111.2z M227.9,153.7
	c-4.9,0-9.5,0.2-11.9,0.7c-21.8,3.9-41.9,13.3-63.8,29.7c-20.6,15.4-40.8,36.9-63.5,67.3l-1.4,1.8h12.2h12.2l3.4-4.5
	c13.2-17.5,32.7-37,50.3-50.3c17.2-13,35.3-22.3,49-25.1c11.2-2.3,24.8-0.9,34.7,3.7c12.8,5.9,24.1,21.7,23.4,32.8
	c-0.2,3.2-0.3,3.5-1.8,4.9c-1.5,1.4-1.8,1.5-5,1.3c-4.2-0.2-6.3-1.6-10.6-7c-8-10-14.1-14.1-24-16.1c-14.8-3-35.2,4.7-57.2,21.6
	c-9.1,7-23.2,20.7-35.3,34.4l-3.7,4.2l13,0.1l13,0.1l3.4-3.8c9.5-10.7,19.1-19.2,28.8-25.5c19.3-12.5,35.4-14.4,44.5-5.2
	c3.1,3.2,4.7,5.9,6.7,11.6c1.5,4.4,1.6,5,1.8,13.7l0.2,9.2l8.9-0.1l8.9-0.1l0.3-9.3c0.3-9.5,0.7-12,2.4-14.8c2-3.3,6-4.4,8.8-2.5
	c3.4,2.3,5.2,8.4,5.7,19.9l0.3,6.9h9.3h9.3l-0.3-10.9c-0.5-20.5-4.3-37-12.1-52.7c-9.6-19.3-24.4-31.1-44-35.1
	C240.9,154,234.2,153.7,227.9,153.7L227.9,153.7z M85.3,202.6c-0.6,0-1.2,0.1-1.8,0.2c-4.8,1.3-12.2,13.1-12.2,19.3
	c0,2.5,1.1,4.9,2.3,5.2c3.8,1,7.9-1.5,13.5-8.4c4.3-5.2,5.5-8.7,4.2-12.1C90.3,204.2,88,202.6,85.3,202.6z M217.3,232.7
	c-4.7-0.1-10.7,2-17.3,6.4c-4.8,3.2-15.8,12.7-15.8,13.7c0,0.3,3.3,0.4,9.7,0.3c8.6-0.2,9.9-0.4,12-1.3c3.1-1.4,6.3-1.3,7,0.3
	c0.5,1.1,0.7,1.1,7.9,1.1h7.5v-5.4c0-4.2-0.2-5.9-1-8C225.5,235.2,222,232.9,217.3,232.7z M417.4,274.3c-1,0-2.1,0-3.2,0.1
	c-4.3,0.2-8.4,0.4-9.2,0.6l-1.3,0.3v24.4v24.4h5.4h5.4v-9.8v-9.8l3.9,0.2c3.3,0.2,4.1,0.4,5.2,1.4c1.8,1.7,2,2.1,3.7,8.4
	c0.8,3.1,1.8,6.5,2.3,7.6l0.8,2.1h5.6c3.1,0,5.6-0.1,5.6-0.3c0-0.2-1.1-4.2-2.5-8.8c-2.7-9-4-11.6-6.8-13.3l-1.5-0.9l1.9-1
	c2.3-1.2,5.4-4.4,6.3-6.7c1.1-2.6,0.9-7.9-0.5-10.7c-1.4-3-2.7-4.2-6.2-5.8C428.5,274.8,424.4,274.2,417.4,274.3L417.4,274.3z
	 M191.3,274.4c-3.7,0-7.2,0.1-9.1,0.4l-2.8,0.4v24.1v24.1l1.6,0.3c0.9,0.1,2.8,0.4,4.3,0.5c4.7,0.3,15.3-0.2,18.6-0.9
	c12.6-2.7,19.5-10.1,20.5-22c1.1-13.7-5-22.9-17.4-26C204.6,274.7,197.5,274.4,191.3,274.4L191.3,274.4z M89.6,274.7
	c-6.7,0-7.5,0.1-7.7,0.9c-0.1,0.5-3.6,11.3-7.6,24.2c-4,12.8-7.4,23.5-7.4,23.8c0,0.3,2,0.5,5.6,0.5c4.9,0,5.6-0.1,5.8-0.9
	c0.1-0.5,1-3.4,1.8-6.6l1.6-5.7h7.6H97l2,6.5l2,6.5l6,0.1c5.6,0.1,6,0.1,5.8-0.7c-0.1-0.5-3.7-11.6-8-24.7L97,274.7H89.6L89.6,274.7
	z M136.9,274.7l-0.7,2.3c-0.4,1.3-3.5,11.1-6.9,21.9c-3.4,10.8-6.6,20.8-7.1,22.4l-0.9,2.8h5.8h5.8l1.8-6.6l1.8-6.6l7.6,0.1l7.6,0.1
	l2,6.4l2,6.4l6,0.1c4.7,0.1,6,0,5.8-0.5c-0.1-0.3-3.7-11.5-8-24.7l-7.8-24.1l-7.4,0L136.9,274.7L136.9,274.7z M237,274.7v24.7v24.7
	h5.6h5.6v-10.5V303h10h10v10.5v10.5h5.4h5.4v-24.7v-24.7h-5.4h-5.4v9.5v9.5h-10h-10v-9.5v-9.5h-5.6H237z M306.2,274.7l-7.5,23.8
	c-4.1,13.1-7.6,24.2-7.7,24.7c-0.2,0.8,0.3,0.9,5.4,0.9h5.7l1-3.3c0.5-1.8,1.4-4.7,1.9-6.5l0.9-3.2l7.6-0.1l7.6-0.1l2.1,6.6l2.1,6.6
	h5.9c3.2,0,5.9-0.2,5.9-0.4c0-0.2-3.2-10.3-7.1-22.4c-3.9-12.1-7.4-23-7.9-24.3l-0.8-2.3h-7.4L306.2,274.7L306.2,274.7z
	 M360.9,274.7l-7.7,24.3c-4.2,13.4-7.7,24.5-7.7,24.7c0,0.2,2.5,0.4,5.6,0.4h5.6l0.7-2.6c0.4-1.4,1.2-4.4,1.9-6.6l1.1-4h7.6h7.6
	l2,6.5l2,6.5l5.9,0.1c3.3,0.1,5.9,0,5.9-0.2c0-0.2-3.6-11.3-7.9-24.7l-7.9-24.4h-7.4L360.9,274.7L360.9,274.7z M419,282.1
	c2.4,0,5,0.5,6.4,1.2c4.7,2.5,4.3,9.7-0.8,12.1c-1.3,0.6-3.3,1-6,1.2l-4,0.2v-7.1v-7.1l2.2-0.3C417.4,282.1,418.2,282.1,419,282.1
	L419,282.1z M195.6,282.5c5,0.1,10.9,1.9,13.2,4.4c3.2,3.4,4.7,9.1,3.8,14.9c-1,6.2-3.8,10.2-8.8,12.5c-2.3,1-3.6,1.3-8,1.5
	l-5.3,0.2v-16.4V283l1.8-0.3C193.4,282.5,194.5,282.4,195.6,282.5L195.6,282.5z M143.9,282.6c0.1,0.1,1.4,4.4,2.9,9.5
	c1.5,5.1,2.9,9.7,3,10.1c0.3,0.7-0.3,0.8-5.6,0.8c-3.3,0-5.9-0.2-5.9-0.4c0-0.2,1-3.9,2.2-8.2c1.2-4.3,2.4-8.8,2.7-9.9
	C143.5,283.4,143.8,282.5,143.9,282.6L143.9,282.6z M367.9,282.6c0.1,0.1,4,12.9,5.9,19.6c0.2,0.8-0.3,0.9-5.7,0.9
	c-3.3,0-5.9-0.1-5.9-0.2c0-0.1,1-3.6,2.1-7.7c1.2-4.1,2.4-8.6,2.7-10C367.4,283.6,367.8,282.5,367.9,282.6z M89.2,282.6
	c0.2,0.1,0.5,0.9,0.7,1.9c0.3,1.2,1.5,5.4,2.8,9.5c1.2,4,2.3,7.7,2.4,8.2c0.2,0.8-0.3,0.9-5.7,0.9c-3.2,0-5.9-0.2-5.9-0.4
	s0.5-1.9,1-3.7c0.6-1.8,1.8-6.2,2.7-9.6C88.1,285.7,89,282.8,89.2,282.6C89.1,282.6,89.1,282.6,89.2,282.6L89.2,282.6z M313.3,282.8
	C313.3,282.8,313.3,282.8,313.3,282.8c0.3,0.2,0.5,0.6,0.5,0.9c0,0.4,1.2,4.7,2.7,9.7c1.5,5,2.7,9.2,2.7,9.3c0,0.2-2.7,0.3-5.9,0.3
	c-5.4,0-5.9-0.1-5.6-0.9c1.4-4.9,3.8-13.3,4.4-16.1C312.5,284.2,313,282.8,313.3,282.8L313.3,282.8z"/>
<path class="st1" d="M250,4.2c-0.1,0-1.2,1.2-2.3,2.8c-1.1,1.5-3.8,4.2-5.8,6c-12.5,10.5-17.3,15.8-21.3,23.3
	c-2.3,4.4-4.8,11.5-4.8,13.7c0,0.9,0.2,1.2,0.9,1c0.5-0.1,3.4-0.6,6.5-1c17.9-2.4,37.8-2.3,55,0.2c3.2,0.5,6,0.8,6.1,0.7
	c0.4-0.3-1.6-7.4-3.1-10.9c-3.5-8.4-8.7-14.7-19.2-23.6c-4.6-3.9-8.4-7.5-9.6-9.2C251.1,5.5,250.1,4.2,250,4.2L250,4.2z"/>
<path class="st1" d="M127.2,37.1c-0.2,0.1-0.4,1.4-0.6,3c-0.2,1.8-1.1,5.5-2.1,8.2c-4.2,12.1-5.6,16.7-6.3,21
	c-1.3,7.9-0.9,15,1.2,22.1c0.5,1.8,1.1,3.3,1.2,3.3c0.1,0,2.3-1.6,4.9-3.6c14.4-11.3,33.4-22.3,49.1-28.4c2.6-1,4.8-2,5-2.2
	c0.7-0.6-8.1-8.5-12.1-10.8c-7.6-4.3-12.1-5.7-29.1-9C133.5,39.7,130,38.6,127.2,37.1C127.2,37.1,127.2,37.1,127.2,37.1L127.2,37.1z
	"/>
<path class="st1" d="M372.5,37.1C372.5,37.1,372.5,37.1,372.5,37.1c-4.6,2-8.1,3.1-14.7,4.3c-16.2,3-24,6.1-32.3,13
	c-2.8,2.3-6.1,5.9-5.6,6.2c0.1,0.1,2.6,1.1,5.5,2.2c15.9,6.2,33.5,16.4,47.7,27.4c3.1,2.4,5.8,4.4,5.9,4.4c0.5,0.1,2.4-6.9,2.9-11
	c0.7-4.7,0.3-11.6-1-17.3c-0.5-2.3-2.4-8.4-4.2-13.5c-2.2-6.4-3.3-10.3-3.5-12.6C373.1,38.2,372.9,37.1,372.5,37.1L372.5,37.1z"/>
<path class="st1" d="M310.4,73.7C310.3,73.7,310.3,73.7,310.4,73.7c-0.2,0.1,1.3,1.3,3.3,2.6c27.2,18,50.9,44.7,65.6,74
	c13.5,27,20.2,55,21.1,88.6l0.3,11.1H419h18.3l-0.3-6.2c-1.5-28.7-7.6-52.5-19.8-76.9c-9.4-18.8-19.7-32.9-35.2-48.4
	c-16.1-16.1-29.9-26-50.1-35.9C323.6,78.6,311.5,73.6,310.4,73.7L310.4,73.7z"/>
<path class="st1" d="M422.8,117.7c-2.3,0-4.5,0.1-6.8,0.4c-4.3,0.6-10.6,2.3-10.6,2.8c0,0.2,1.2,1.7,2.6,3.5
	c12.7,15.8,21.8,31.7,31.2,54.8c0.5,1.2,0.5,1.1,3.7-2c5.8-5.7,10.5-13.8,13-22.4c0.5-1.7,1.6-6.8,2.4-11.2c1.5-8.5,2.4-11.7,4-14.8
	l0.9-1.8l-1.8,0c-2.8,0-7-1.1-14.6-3.9C437.2,119.5,429.7,117.8,422.8,117.7L422.8,117.7z"/>
<path class="st1" d="M77.4,117.7c-0.8,0-1.5,0-2.2,0.1c-7.6,0.4-11.4,1.4-26.2,6.6c-3.2,1.1-7.1,2.2-8.9,2.3
	c-1.8,0.2-3.2,0.3-3.2,0.4c0,0,0.5,1.2,1.2,2.5c1.3,2.7,2.1,6,4,16c2.7,14.5,7,23.6,14.7,31.4c1.8,1.8,3.3,3.1,3.5,3
	c0.1-0.1,1.3-2.8,2.6-6c6.6-16.3,17.3-34.7,28-48.2c2.1-2.6,3.8-4.9,3.8-5c0-0.5-6.7-2.2-10.5-2.8C82.4,117.8,79.7,117.7,77.4,117.7
	L77.4,117.7z"/>
<path class="st1" d="M449.1,215.8l0.8,5.8c1.1,7.9,1.9,17.3,1.9,23.4v5.1h22.1H496l-1.9-1.3c-2.8-1.9-4.2-3.3-9.7-9.7
	c-6-7.1-9.9-11-14.3-14.4c-5.2-3.9-13.7-7.8-19.1-8.6L449.1,215.8L449.1,215.8z"/>
<path class="st1" d="M49.9,215.9c-1.5,0.1-6.8,1.6-10.1,3c-8.2,3.4-15.8,9.7-25.2,21.1c-2.7,3.2-6.1,6.8-7.7,7.9L4,250.1h21.8
	c20.4,0,21.8-0.1,21.8-0.9c0-4.5,1.2-19.4,2-25.4c0.5-4.2,0.9-7.7,0.7-7.8C50.2,215.9,50.1,215.9,49.9,215.9z"/>
</svg>
