<svg xmlns="http://www.w3.org/2000/svg" viewBox="3132 -1022 351.4 266.2">
  <defs>
    <style>
      .cls-1 {
        fill: #f9c2d2;
      }

      .cls-2 {
        fill: #ef97ac;
      }

      .cls-3 {
        fill: #e84f65;
      }

      .cls-4 {
        fill: #ef758d;
      }

      .cls-5 {
        fill: #fff;
        opacity: 0.1;
      }
    </style>
  </defs>
  <g id="Group_69" data-name="Group 69" transform="translate(3132 -1022)">
    <path id="Path_10" data-name="Path 10" class="cls-1" d="M351.4,32.5,326.2,44.7l-14.8-23L336.6,9.5Z"/>
    <path id="Path_11" data-name="Path 11" class="cls-2" d="M344.9,87.9l-27.8,13.5L300.9,76l27.7-13.5Z"/>
    <path id="Path_12" data-name="Path 12" class="cls-3" d="M268.9,121.4l30.5-14.8,18,28-30.6,14.9-17.9-27.9.1-.1Z"/>
    <path id="Path_13" data-name="Path 13" class="cls-4" d="M223.5,42.4l47.2-23,27.8,43.3-47.2,23Z"/>
    <path id="Path_14" data-name="Path 14" class="cls-3" d="M252.9,266.2h98.5L277.6,154,264,160.7l-18-28,.2-.1-.1-.1,13.1-6.4L237.1,92.5l-26.7,13L182.6,62.3,209,49.5,177.5,1.7,0,266.2H207.7l-24.8-52-71.1-1.1c3.5-6.1,54.9-80,54.9-80C175.3,147,241.6,248.8,252.9,266.2Z"/>
    <path id="Path_15" data-name="Path 15" class="cls-5" d="M167.6,131.5c4,6.3,20,31,37.3,57.6A426.9,426.9,0,0,0,261,152.8l-13.9-21.7.1-.1-.1-.1,13.1-6.4-22-33.6-26.7,13L183.7,60.6l26.2-12.8L178.6,0,6.7,256.1c45.5-9.4,90.3-21.2,132.4-37.2l-17.5-27.1C125,185.8,167.6,131.5,167.6,131.5Z"/>
  </g>
</svg>
