<?xml version="1.0" encoding="utf-8"?>
<!-- Generator: Adobe Illustrator 22.0.1, SVG Export Plug-In . SVG Version: 6.00 Build 0)  -->
<svg version="1.1"
	 id="svg2" xmlns:cc="http://creativecommons.org/ns#" xmlns:dc="http://purl.org/dc/elements/1.1/" xmlns:rdf="http://www.w3.org/1999/02/22-rdf-syntax-ns#" xmlns:svg="http://www.w3.org/2000/svg"
	 xmlns="http://www.w3.org/2000/svg" xmlns:xlink="http://www.w3.org/1999/xlink" x="0px" y="0px" viewBox="0 0 2315.5 266.2"
	 style="enable-background:new 0 0 2315.5 266.2;" xml:space="preserve">
<style type="text/css">
	.st0{fill:#FFFFFF;}
	.st1{opacity:0.1;fill:#FFFFFF;enable-background:new    ;}
</style>
<g id="Group_69" transform="translate(3132 -1022)">
	<path id="Path_10" class="st0" d="M-2780.6,1054.5l-25.2,12.2l-14.8-23l25.2-12.2L-2780.6,1054.5z"/>
	<path id="Path_11" class="st0" d="M-2787.1,1109.9l-27.8,13.5l-16.2-25.4l27.7-13.5L-2787.1,1109.9z"/>
	<path id="Path_12" class="st0" d="M-2863.1,1143.4l30.5-14.8l18,28l-30.6,14.9l-17.9-27.9l0.1-0.1L-2863.1,1143.4z"/>
	<path id="Path_13" class="st0" d="M-2908.5,1064.4l47.2-23l27.8,43.3l-47.2,23L-2908.5,1064.4z"/>
	<path id="Path_14" class="st0" d="M-2879.1,1288.2h98.5l-73.8-112.2l-13.6,6.7l-18-28l0.2-0.1l-0.1-0.1l13.1-6.4l-22.1-33.6
		l-26.7,13l-27.8-43.2l26.4-12.8l-31.5-47.8l-177.5,264.5h207.7l-24.8-52l-71.1-1.1c3.5-6.1,54.9-80,54.9-80
		C-2956.7,1169-2890.4,1270.8-2879.1,1288.2z"/>
	<path id="Path_15" class="st1" d="M-2964.4,1153.5c4,6.3,20,31,37.3,57.6c19.6-10.6,38.4-22.8,56.1-36.3l-13.9-21.7l0.1-0.1
		l-0.1-0.1l13.1-6.4l-22-33.6l-26.7,13l-27.8-43.3l26.2-12.8l-31.3-47.8l-171.9,256.1c45.5-9.4,90.3-21.2,132.4-37.2l-17.5-27.1
		C-3007,1207.8-2964.4,1153.5-2964.4,1153.5z"/>
</g>
<g>
	<path class="st0" d="M500.6,218.8h-72.5l-16.3,45.3h-23.5l66.1-173h20l66.2,173h-23.4L500.6,218.8z M435,200.1h58.8l-29.5-80.9
		L435,200.1z"/>
	<path class="st0" d="M586.6,196.3v67.7h-22.8v-173h63.8c18.9,0,33.8,4.8,44.5,14.5c10.7,9.7,16.1,22.5,16.1,38.4
		c0,16.8-5.2,29.7-15.7,38.8c-10.5,9.1-25.5,13.6-45.1,13.6H586.6z M586.6,177.7h41c12.2,0,21.5-2.9,28-8.6
		c6.5-5.8,9.7-14.1,9.7-24.9c0-10.3-3.2-18.6-9.7-24.8c-6.5-6.2-15.4-9.4-26.7-9.6h-42.3V177.7z"/>
	<path class="st0" d="M740.1,196.3v67.7h-22.8v-173h63.8c18.9,0,33.8,4.8,44.5,14.5c10.7,9.7,16.1,22.5,16.1,38.4
		c0,16.8-5.2,29.7-15.7,38.8c-10.5,9.1-25.5,13.6-45.1,13.6H740.1z M740.1,177.7h41c12.2,0,21.5-2.9,28-8.6
		c6.5-5.8,9.7-14.1,9.7-24.9c0-10.3-3.2-18.6-9.7-24.8c-6.5-6.2-15.4-9.4-26.7-9.6h-42.3V177.7z"/>
	<path class="st0" d="M884.8,245.4h99v18.7H857.9v-17.1l94.8-137.2h-93.3V91.1H980v16.6L884.8,245.4z"/>
	<path class="st0" d="M1037.9,264.1h-22.8v-173h22.8V264.1z"/>
	<path class="st0" d="M1102.5,245.4h82v18.7h-104.9v-173h22.9V245.4z"/>
	<path class="st0" d="M1233.4,245.4h82v18.7h-104.9v-173h22.9V245.4z"/>
	<path class="st0" d="M1466.8,183.1c0,17-2.9,31.7-8.6,44.4c-5.7,12.6-13.8,22.3-24.2,28.9c-10.5,6.7-22.7,10-36.6,10
		c-13.6,0-25.7-3.3-36.2-10c-10.5-6.7-18.7-16.2-24.5-28.6c-5.8-12.4-8.8-26.8-9-43.1v-12.5c0-16.6,2.9-31.3,8.7-44.1
		c5.8-12.8,14-22.5,24.5-29.3c10.6-6.8,22.7-10.2,36.3-10.2c13.9,0,26.1,3.3,36.7,10c10.6,6.7,18.7,16.4,24.4,29.1
		s8.6,27.5,8.6,44.4V183.1z M1444.1,172c0-20.5-4.1-36.3-12.4-47.2c-8.2-11-19.8-16.5-34.6-16.5c-14.4,0-25.8,5.5-34,16.5
		c-8.3,11-12.5,26.2-12.8,45.7v12.7c0,19.9,4.2,35.5,12.5,46.9c8.4,11.4,19.9,17,34.5,17c14.7,0,26.1-5.4,34.2-16.1
		c8.1-10.7,12.2-26.1,12.5-46.2V172z"/>
	<path class="st0" d="M1634,264.1H1611l-87.1-133.3v133.3H1501v-173h22.9l87.3,133.9V91.1h22.7V264.1z"/>
	<path class="st0" d="M1669.8,264.1v-173h60.6c21,0,36.9,4,47.8,12.1c10.9,8,16.3,19.8,16.3,35.3c0,8.5-2.2,15.9-6.5,22.4
		c-4.4,6.5-10.4,11.2-18.2,14.2c8.9,2.2,15.9,6.7,21,13.4c5.1,6.7,7.7,15,7.7,24.7c0,16.6-5.3,29.2-15.9,37.8
		c-10.6,8.6-25.7,12.9-45.4,13.1H1669.8z M1705.5,163.5h26.4c18-0.3,27-7.5,27-21.5c0-7.8-2.3-13.5-6.8-16.9
		c-4.6-3.4-11.7-5.2-21.6-5.2h-25V163.5z M1705.5,188.7v46.7h30.5c8.4,0,15-2,19.7-6c4.7-4,7.1-9.5,7.1-16.6
		c0-15.8-8.2-23.9-24.6-24.1H1705.5z"/>
	<path class="st0" d="M1922.8,228.4h-62.5l-11.9,35.6h-37.9l64.4-173h33l64.8,173h-37.9L1922.8,228.4z M1869.9,199.5h43.2
		l-21.7-64.8L1869.9,199.5z"/>
	<path class="st0" d="M2129.5,264.1h-35.6l-69.4-113.8v113.8h-35.6v-173h35.6l69.5,114.1V91.1h35.5V264.1z"/>
	<path class="st0" d="M2214.8,194.7l-18.5,20v49.4h-35.6v-173h35.6v78.4L2212,148l44.1-56.9h43.8l-61.4,76.9l63.2,96.1h-42.4
		L2214.8,194.7z"/>
</g>
</svg>
