<?xml version="1.0" encoding="utf-8"?>
<!-- Generator: Adobe Illustrator 22.0.1, SVG Export Plug-In . SVG Version: 6.00 Build 0)  -->
<svg version="1.1" id="Layer_1" xmlns="http://www.w3.org/2000/svg" xmlns:xlink="http://www.w3.org/1999/xlink" x="0px" y="0px"
	 viewBox="0 0 48 48" enable-background="new 0 0 48 48" xml:space="preserve">
<g>
	<path d="M44,6.8c-4-4.1-13-5.6-20-5.6c-7,0-16,1.5-20,5.6c-1.9,2-3.7,4.5-3.5,8.8l0,0.1c0,0.2,0,0.6,0,0.7c0.2,1.8,2.3,2.9,5.5,2.9
		c0.4,0,0.8,0,1.2-0.1c3.7-0.4,6.2-2.1,6-4.1c0-0.1,0-0.2-0.1-0.4c-0.5-1.6-0.2-2-0.2-2C14.6,11,19,9.9,24,9.9c5,0,9.4,1.2,11.1,2.9
		c0,0,0.3,0.4-0.3,2c-0.1,0.2-0.1,0.3-0.1,0.4c-0.2,2,2.4,3.7,6,4.1c0.4,0,0.8,0.1,1.2,0.1c3.1,0,5.3-1.2,5.5-2.9l0.1-0.7
		C47.7,11.3,45.9,8.8,44,6.8z M45.5,16.3c0,0.4-1.3,1.1-3.5,1.1c-0.3,0-0.7,0-1-0.1c-2.8-0.3-4.2-1.4-4.3-1.8l0,0
		c0.2-0.7,1-2.8-0.1-4C34,8.9,28.4,7.9,24,7.9c-4.4,0-10,0.9-12.5,3.5c-1.1,1.2-0.5,3.2-0.2,4l0,0c-0.1,0.5-1.5,1.6-4.3,1.9
		c-0.3,0-0.7,0-1,0c-2.4,0-3.5-0.8-3.5-1.2c0-0.1,0-0.2,0-0.4l0-0.2c-0.2-3.9,1.4-5.9,2.9-7.5c3-3.1,10.1-5,18.6-5
		c8.5,0,15.6,1.9,18.6,5c1.5,1.6,3.1,3.6,2.9,7.4L45.5,16.3z"/>
	<path d="M35.4,19.9c-0.8-1.4-2.3-2.3-3.9-2.3h-1.6v-3.8c0-0.5-0.4-1-1-1c-0.5,0-1,0.4-1,1v3.8h-7.7v-3.8c0-0.5-0.4-1-1-1
		s-1,0.4-1,1v3.8h-1.6c-1.6,0-3.2,0.9-3.9,2.3L4.5,35.1c-0.1,0.1-0.1,0.3-0.1,0.5v9c0,1.3,1,2.3,2.3,2.3h34.7c1.3,0,2.3-1,2.3-2.3
		v-9c0-0.2,0-0.3-0.1-0.5L35.4,19.9z M41.7,44.5c0,0.2-0.2,0.3-0.3,0.3H6.7c-0.2,0-0.3-0.2-0.3-0.3v-8.7l8.1-14.9
		c0.4-0.8,1.3-1.3,2.2-1.3h14.8c0.9,0,1.8,0.5,2.2,1.3l8.1,14.8V44.5z"/>
	<path d="M24,23.2c-4.9,0-9,4-9,9c0,4.9,4,9,9,9s9-4,9-9C33,27.3,29,23.2,24,23.2z M24,39.5c-4,0-7.3-3.3-7.3-7.3s3.3-7.3,7.3-7.3
		c4,0,7.3,3.3,7.3,7.3S28,39.5,24,39.5z"/>
</g>
</svg>
