<?xml version="1.0" encoding="UTF-8" standalone="no"?>
<svg
   xmlns:dc="http://purl.org/dc/elements/1.1/"
   xmlns:cc="http://creativecommons.org/ns#"
   xmlns:rdf="http://www.w3.org/1999/02/22-rdf-syntax-ns#"
   xmlns:svg="http://www.w3.org/2000/svg"
   xmlns="http://www.w3.org/2000/svg"
   height="32"
   width="32"
   xml:space="preserve"
   viewBox="0 0 32 32"
   y="0px"
   x="0px"
   id="Layer_1"
   version="1.1"><metadata
     id="metadata4496"><rdf:RDF><cc:Work
         rdf:about=""><dc:format>image/svg+xml</dc:format><dc:type
           rdf:resource="http://purl.org/dc/dcmitype/StillImage" /><dc:title></dc:title></cc:Work></rdf:RDF></metadata><defs
     id="defs4494" /><g
     style="fill:#00c764;fill-opacity:1"
     id="g5176"
     transform="matrix(0.34784644,0,0,0.34784644,-1.3401479,-332.85725)"><g
       id="g5207"><circle
         style="fill:#ffffff;fill-opacity:1;stroke-width:2.79899716;stroke-miterlimit:4;stroke-dasharray:none"
         id="path5202"
         cx="49.440426"
         cy="1001.9459"
         r="39.718063" /><path
         style="color:#000000;text-indent:0;text-transform:none;direction:ltr;baseline-shift:baseline;display:inline;overflow:visible;visibility:visible;fill:#00c764;fill-opacity:1;fill-rule:evenodd;stroke:none;enable-background:accumulate"
         d="m 50.0049,958.36215 c -24.2733,0 -44.0048999,19.72939 -44.0048999,44.00005 0,24.2706 19.7315999,44 44.0048999,44 24.2733,0 43.9951,-19.7301 43.9951,-44 0,-24.26995 -19.7218,-44.00005 -43.9951,-44.00005 z m 0,4.9228 c 21.6124,0 39.0717,17.4666 39.0717,39.07725 0,21.6106 -17.4593,39.0772 -39.0717,39.0772 -21.6123,0 -39.0815,-17.4673 -39.0815,-39.0773 0,-21.60985 17.4692,-39.07715 39.0815,-39.07715 z"
         marker="none"
         visibility="visible"
         display="inline"
         overflow="visible"
         id="path5172" /><path
         style="color:#000000;text-indent:0;text-transform:none;direction:ltr;baseline-shift:baseline;display:inline;overflow:visible;visibility:visible;fill:#00c764;fill-opacity:1;fill-rule:evenodd;stroke:none;enable-background:accumulate"
         d="m 74.542,983.01123 a 2.4619223,2.4616468 0 0 0 -1.9134,0.80211 L 42.8162,1015.619 27.3707,999.15218 a 2.4619223,2.4616468 0 1 0 -3.5909,3.36782 l 17.2416,18.3818 a 2.4619223,2.4616468 0 0 0 3.5916,-7e-4 l 31.6079,-33.72117 a 2.4619223,2.4616468 0 0 0 -1.6789,-4.16869 z"
         marker="none"
         visibility="visible"
         display="inline"
         overflow="visible"
         id="path5174" /></g></g></svg>