<?xml version="1.0" encoding="utf-8"?>
<!-- Generator: Adobe Illustrator 24.3.0, SVG Export Plug-In . SVG Version: 6.00 Build 0)  -->
<svg version="1.1" id="Слой_1" xmlns="http://www.w3.org/2000/svg" xmlns:xlink="http://www.w3.org/1999/xlink" x="0px" y="0px"
	 viewBox="0 0 2817.7 2000" style="enable-background:new 0 0 2817.7 2000;" xml:space="preserve">
<style type="text/css">
	.st0{fill:#FCFCFC;}
	.st1{fill:url(#SVGID_1_);}
	.st2{fill:url(#SVGID_2_);}
	.st3{fill:url(#SVGID_3_);}
	.st4{fill:url(#SVGID_4_);}
	.st5{fill:#252E3B;}
	.st6{fill:#6B7ADB;}
	.st7{fill:url(#SVGID_5_);}
	.st8{fill:#EDDAD3;}
	.st9{fill:#3D414A;}
	.st10{fill:url(#SVGID_6_);}
	.st11{fill:url(#SVGID_7_);}
	.st12{fill:#FFFFFF;}
	.st13{fill:url(#SVGID_8_);}
	.st14{fill:#454A54;}
	.st15{fill:#B8B8B8;}
	.st16{fill:url(#SVGID_9_);}
	.st17{fill:#ADA9A2;}
	.st18{fill:#26292E;}
	.st19{fill:url(#SVGID_10_);}
	.st20{fill:#CF7923;}
	.st21{fill:#A8A59C;}
	.st22{fill:url(#SVGID_11_);}
	.st23{fill:#508CF9;}
	.st24{fill:url(#SVGID_12_);}
	.st25{fill:#547BFE;}
	.st26{fill:#547EFD;}
	.st27{fill:url(#SVGID_13_);}
	.st28{fill:#4163C7;}
	.st29{fill:url(#SVGID_14_);}
	.st30{fill:#323657;}
	.st31{opacity:0.95;fill:url(#SVGID_15_);}
	.st32{fill:#4BADCC;}
	.st33{opacity:0.95;fill:url(#SVGID_16_);}
	.st34{fill:#3F8BC0;}
	.st35{opacity:0.95;fill:url(#SVGID_17_);}
	.st36{fill:#6069A8;}
	.st37{fill:#202338;}
	.st38{fill:#464240;}
	.st39{fill:#EB4747;}
	.st40{fill:#325BB3;}
	.st41{fill:#EEA886;}
	.st42{fill:#A77860;}
	.st43{fill:#FF7E55;}
	.st44{fill:#5E5853;}
	.st45{fill:#91887F;}
	.st46{fill:#6E6760;}
	.st47{fill:#807066;}
	.st48{fill:#78C2FF;}
	.st49{fill:#5380FD;}
	.st50{fill:#E64646;}
	.st51{fill:#E8734D;}
	.st52{fill:#4754CC;}
	.st53{fill:#163342;}
	.st54{fill:#2F6B8C;}
	.st55{fill:#3B45A8;}
	.st56{fill:#D88A51;}
	.st57{fill:#FFA35F;}
	.st58{fill:#E6D3CD;}
	.st59{fill:#E34658;}
	.st60{fill:#504D59;}
	.st61{fill:#A89494;}
	.st62{fill:#FFC455;}
	.st63{fill:url(#SVGID_18_);}
	.st64{fill:#EFAA88;}
	.st65{fill:#0E2D3D;}
	.st66{fill:#1D3B54;}
	.st67{fill:#141954;}
	.st68{fill:#D6C5BE;}
	.st69{fill:#FAE6DE;}
	.st70{fill:#EEA987;}
</style>
<g>
	<rect class="st0" width="2817.7" height="2000"/>
	<g>
		<linearGradient id="SVGID_1_" gradientUnits="userSpaceOnUse" x1="1105.7051" y1="467.3682" x2="1179.4943" y2="467.3682">
			<stop  offset="0" style="stop-color:#FF9F55"/>
			<stop  offset="1" style="stop-color:#FFD255"/>
		</linearGradient>
		<path class="st1" d="M1119.7,452.2c0,0-14,2.4-14,11.7c0,9.3,4.7,25.6,4.7,25.6l4.7,17.5l13.6,11.7l5-6.9c0,0,5.5-4.9,10.5-5.5
			c17.4-2.1,17.5-7.2,17.5-7.2l15.2-8.4c0,0,5.8-11.7,0-15.2c-5.8-3.5-22.7-14-24.2-14c-1.5,0-9.7-22.2-9.7-22.2l-17.1-23.3
			c0,0-12.1,9.7-9.7,15.9c2.3,6.2,5.8,8.6,4.7,14.4C1119.7,452.2,1119.7,452.2,1119.7,452.2z"/>
		<g>
			<linearGradient id="SVGID_2_" gradientUnits="userSpaceOnUse" x1="1049.3154" y1="923.8291" x2="1471.2754" y2="923.8291">
				<stop  offset="0" style="stop-color:#FF9F55"/>
				<stop  offset="1" style="stop-color:#FFD255"/>
			</linearGradient>
			<path class="st2" d="M1467.6,712.4c-7.9,4.7-15.3,7.8-28.7,12c-35.2,10.8-45,14.7-84.1,21.5c-39.1,6.9-82.1-10.8-116.4,10.8
				c-34.2,21.5-40.4,22.2-40.4,22.2l-16.6,3.3c0,0-44.8-7.1-52.1-0.3c-6.4,5.9,1.6,0.3-27.7,35.5c-29.3,35.2-19.4,20.6-29.3,35.2
				c-21.7,31.9-27.4,17.6-19.6,46.9c7.8,29.3,41.1,56.7,41.1,56.7s50.8,3.9,60.6,7.8c9.8,3.9,82.1,8.8,82.1,8.8s51.8,74.3,61.6,90
				c9.8,15.6,10.5,32.2,17.6,60.6c1.2,4.7,2.1,8.6,2.9,11.9c94.2-91.6,152.7-219.8,152.7-361.6
				C1471.3,752.9,1470,732.5,1467.6,712.4z"/>
			<linearGradient id="SVGID_3_" gradientUnits="userSpaceOnUse" x1="1002.8379" y1="512.1933" x2="1441.1987" y2="512.1933">
				<stop  offset="0" style="stop-color:#FF9F55"/>
				<stop  offset="1" style="stop-color:#FFD255"/>
			</linearGradient>
			<path class="st3" d="M1345.6,708.9c4.7,10.5,8.2-25.7,22.2-26.9c14-1.2,1.2-10.5-14-19.1c-15.2-8.6-25.7-44.1-35.1-55.8
				c-9.4-11.7,14-37.4,37.4-47.5c23.4-10.1,18.7,12.5,29.2,23c10.5,10.5-2.3,19.9,7,38c9.4,18.1,10.5,21.6,20.9,15.8
				c10.4-5.8-4.5-12.4-6.1-32.7c-0.8-9.8-0.8-19.9,14.4-7.3c14.9,12.3,21.9,55.6,18.9,3.4c-66.9-182.2-235.9-315.1-437.7-329.4
				l76,38.3l41.8,17c0,0,61.4,7.8,67.9,13.1c6.5,5.2,6.5,20.9,13.1,24.3c6.5,3.4,32.6,27.9,67.9,37.1c20.7,5.4,28.3,27.4,31.1,44.6
				c-6.9,3.5-10.1,13.7-10.1,17.5c0,4.7,5.8,10.5,4.7,16.7c-1.2,6.1-16.4,4.4-26.9,1.4c-10.5-2.9-4.7-0.5-10.5,0
				c-5.8,0.6-15.2,7.6-23.4,18.4c-8.2,10.7-25.7,10.3-39.8,12.7c-14,2.4-10.5-5.9-29.2,0c-18.7,5.9-26.9,46.7-19.9,64.2
				c7,17.6,3.5,28.1-1.2,45c-4.7,17-11.2,24.3-12.8,75.5c-2.7,85.3,35.1,50.2,58.5,53.8c23.4,3.5,19.9-8.2,24.5-17.6
				c4.7-9.4-10.5-33.9-11.7-56.1c-1.2-22.2-2.4-26.9,0-32.9c2.3-6,12.9-17.4,22.2-27.9c9.4-10.5,33.9-11.7,42.1-11.7
				s56.1,46.8,71.3,67.8C1353.8,692.5,1340.9,698.4,1345.6,708.9z"/>
			<linearGradient id="SVGID_4_" gradientUnits="userSpaceOnUse" x1="462.1475" y1="813.332" x2="849.245" y2="813.332">
				<stop  offset="0" style="stop-color:#FF9F55"/>
				<stop  offset="1" style="stop-color:#FFD255"/>
			</linearGradient>
			<path class="st4" d="M515.9,546.9c-0.1,0.5-0.2,1.1-0.3,1.7c-1.2,17.8-8.7,37.3-18.8,59c-8.3,17.8-10,23.5-15.2,29.5
				c-0.5,0.6-0.9,1.2-1.3,1.9c-11.8,42.9-18.2,88-18.2,134.7c0,10,0.3,19.9,0.9,29.8c0.4,1.4,1,2.6,1.9,3.7l5.5,6.7
				c1.8,2.2,4.4,3.5,7.2,3.6c5.7,0.1,15.1,1.7,13.9,10.9c-1.6,13.1,7.4,27,7,32.7c-0.4,5.6,13.8,7.1,12.9,29.3
				c-0.7,17.6,1.7,28.9,2.7,32.8c0.3,1.1,0.4,2.1,0.3,3.2c-0.4,5.3-1.6,21.9-2.7,35.9c-1.3,16.9,5.5,26.9,10.6,34.8
				c4.8,7.4,6.6,9.7,6.8,26.4c0,0.7,0.1,1.4,0.3,2c66.8,115.8,178.4,202.6,311,236.9c1.7-3.4,2.9-7,3.1-9.5v-0.1
				c0.4-4.9,3.4-27.9,4-32.6c0.1-0.6,0.1-1.1,0.1-1.7c-0.2-4.9-1.2-29.9,1.1-38.3c2.6-9.2-4.6-13.5-21.4-43.1
				c-16.7-29.6,0.1-26.4,3.4-45.1c3.3-18.6,1.9-24.4,6.5-35.4c4.6-11,0,0-3.1-9.7c-3.1-9.7-49.3-55.4-60.5-74.4
				c-11.2-19.1-20.4-5.3-37.2-8.5c-16.8-3.1,0,0-37.9-5.3c-19-2.6-19.8,2.6-26.1,1.5c-8.3-1.5-15.3,1.6-28.4-2.1
				c-13.2-3.8-31.6,15.9-42.5,9.7c-10.9-6.1-12.3-9.6-17.2-14.2c-5-4.6-21.1-6-27.6-25.1c-6.5-19.1,0.4-16.1-4.6-32.9
				c-4.9-16.9-3.2-19.6-5-21.6c-1.7-2-13.8-11.4-6.5-33.1c3.4-10.1-3-4.5-1.3-27c1.7-22.5,18-6.8,26.3-16.5
				c8.3-9.7,19.3-5.2,29.8-19.5c10.5-14.3,31.2-12.8,49.1-30.2c17.9-17.4,35-18.6,36.6-22.3l55.7-41.6c0.3-0.2,0.5-0.4,0.8-0.6
				c2.6-2.5,16.3-16.6,2.1-33.1c-15.6-18.2,7.1-19.3-15.6-18.2c-12.3,0.6-22.2,5.5-28.7,10c-4.7,3.2-11.2,1.8-14.1-3.2
				c-2.2-3.9-4.8-8.2-7.2-11.5c-4.7-6.5-15.6-21.4-19.7-26.9c-1-1.4-2.4-2.4-3.9-3.1c-4-1.8-12.1-5.3-17-6.9c-2.9-1-5.2-3.2-6.2-6
				c-1.4-4-2.8-8-4-11.9c-1.4-4.5,0.5-9.4,4.7-11.6l44.5-23.7c4.7-2.5,10.4-0.9,13.1,3.7c3.7,6.5,9.7,15.2,17.4,20.6
				c11,7.8,30.6,11,37.3,12c1.5,0.2,2.9,0,4.4-0.4c3.6-1.2,10.9-2.9,12.1,1.8c4.4,16.5,15.9,28.2,24.8,35.1c5.5,4.2,13.4,1.6,15.4-5
				l14.9-50.6c0.3-1.1,0.8-2.1,1.5-3.1l30.7-41.6c5.7-7.7,6.8-17.9,2.9-26.6l-5.5-12.2c-3.2-7-9.9-11.7-17.6-12.3l-15.7-1.2l-60-1.4
				c-2.9-0.1-5.7-1.5-7.5-3.8c-3-3.8-8.9-7.9-17.3,2.2l-9.2,11.1c-2,2.5-5.2,3.8-8.4,3.5l-41.6-3.6c-0.7-0.1-1.5-0.2-2.2-0.4
				c-2.9-1-11.5-3.7-17.1-5.1c-2.5-0.6-4.6-2.3-6-4.6c-1.7-2.8-4.7-6-4.8-9.1c-0.7-39,29.2-72.7,37.4-81.2
				C606.1,411.7,552.5,474.3,515.9,546.9z"/>
		</g>
	</g>
	<g>
		<g>
			<g>
				<path class="st5" d="M720.3,1373.4c-12.7,0-23-12-23-26.7c0-14.7,10.3-26.7,23-26.7c12.7,0,23,12,23,26.7
					C743.2,1361.4,732.9,1373.4,720.3,1373.4z M720.3,1322.1c-11.5,0-20.8,11-20.8,24.6s9.4,24.6,20.8,24.6
					c11.5,0,20.8-11,20.8-24.6S731.8,1322.1,720.3,1322.1z"/>
			</g>
		</g>
		<g>
			<rect x="662.6" y="1346.7" class="st6" width="115.3" height="167.2"/>
		</g>
		<g>
			<g>
				<path class="st5" d="M606.3,1344.5c-15.3,0-27.7-14.5-27.7-32.2c0-17.8,12.4-32.2,27.7-32.2s27.7,14.5,27.7,32.2
					C634,1330,621.5,1344.5,606.3,1344.5z M606.3,1282.6c-13.9,0-25.1,13.3-25.1,29.7s11.3,29.7,25.1,29.7
					c13.9,0,25.1-13.3,25.1-29.7S620.1,1282.6,606.3,1282.6z"/>
			</g>
		</g>
		<g>
			<g>
				<path class="st5" d="M455.4,1391.4c-19,0-34.5-18-34.5-40.2s15.5-40.2,34.5-40.2c19,0,34.5,18,34.5,40.2
					S474.4,1391.4,455.4,1391.4z M455.4,1313.5c-17.6,0-32,16.9-32,37.7c0,20.8,14.3,37.7,32,37.7c17.6,0,32-16.9,32-37.7
					C487.3,1330.4,473,1313.5,455.4,1313.5z"/>
			</g>
		</g>
		<g>
			<linearGradient id="SVGID_5_" gradientUnits="userSpaceOnUse" x1="374.0244" y1="1432.501" x2="536.7705" y2="1432.501">
				<stop  offset="0" style="stop-color:#FF9F55"/>
				<stop  offset="1" style="stop-color:#FFD255"/>
			</linearGradient>
			<rect x="374" y="1351.1" class="st7" width="162.7" height="162.7"/>
		</g>
		<g>
			<rect x="536.8" y="1312.3" class="st8" width="139" height="201.6"/>
		</g>
	</g>
	<rect x="1894.4" y="1234.5" class="st9" width="82.8" height="21.2"/>
	<linearGradient id="SVGID_6_" gradientUnits="userSpaceOnUse" x1="1616.0679" y1="1182.7489" x2="1616.0679" y2="650.1373">
		<stop  offset="0" style="stop-color:#A1A1A1"/>
		<stop  offset="1" style="stop-color:#F5F2E4"/>
	</linearGradient>
	<rect x="1118.3" y="872.4" class="st10" width="995.5" height="367.3"/>
	<linearGradient id="SVGID_7_" gradientUnits="userSpaceOnUse" x1="1458.1382" y1="937.8599" x2="2076.6514" y2="1400.599">
		<stop  offset="0" style="stop-color:#FF9F55"/>
		<stop  offset="1" style="stop-color:#FFD255"/>
	</linearGradient>
	<rect x="1129.5" y="884.9" class="st11" width="973.2" height="342.3"/>
	<polygon class="st12" points="2102.7,916.6 1775.2,916.6 1794.6,946.8 2102.7,946.8 	"/>
	<linearGradient id="SVGID_8_" gradientUnits="userSpaceOnUse" x1="2113.8074" y1="1446.1204" x2="2113.8074" y2="1009.6592">
		<stop  offset="0" style="stop-color:#A1A1A1"/>
		<stop  offset="1" style="stop-color:#F5F2E4"/>
	</linearGradient>
	<path class="st13" d="M2345.2,1344.5c0,0,64.4,0,78.4,0c14,0,16.3-21.4,15.5-37.5c-0.8-16.1-10.1-17.6-10.1-17.6l-36.8-12.3V1258
		l38.3,3.8c0,0,8.7,0,8.7-15.3s-3.1-115.9-5.6-119.1c-2.5-3.2-7.5-4.3-7.5-4.3l-11.5-103.6c0,0,2.7-4.6,1.9-8.8
		c-0.8-4.2-3.9-32.2-18.6-38.3c-14.7-6.1-246.7-22.2-252.9-6.9c-6.2,15.3,0,284.8,0,284.8l10.1,5.4h-217.2c0,0-9.6-9.2-15.3-10.7
		s-91,0-91,0s-27.4,1-36.2,25.5c-8.8,24.5-7.2,54.6-5.7,58.7s11.9,15.3,11.9,15.3H2345.2z"/>
	<path class="st14" d="M2426.1,1123.1l-176.4-16.2c-14.8-1.4-27.7-10.9-32.8-24.7c-1.6-4.2-2.7-9-3.2-14.5c-2.3-27.2,7-54,25.6-54
		c7,0,175.3,5.7,175.3,5.7L2426.1,1123.1z"/>
	<path class="st15" d="M2251.9,1107.2c0,0-18.5-48.2,2.5-71.6c9.5-10.6,161.7-2.9,161.7-2.9l10,90.4L2251.9,1107.2z"/>
	<linearGradient id="SVGID_9_" gradientUnits="userSpaceOnUse" x1="2109.426" y1="1336.8823" x2="2109.426" y2="1202.8799">
		<stop  offset="1.036270e-02" style="stop-color:#8A8A8A"/>
		<stop  offset="1" style="stop-color:#F5F2E4"/>
	</linearGradient>
	<path class="st16" d="M2443.3,1315.9c-1.9,12.5-2.3,28.6-15.9,28.6h-203.1c-182.8,0-422.7,0-422.7,0s-26.3,0.4-26.3-3.1
		s-2-26.9,13.2-25.5c9.8,0.9,255.5,0.6,429.5,0.4c57.8-0.1,107.8-0.2,138.4-0.3c19.3,0,31-0.1,32.2-0.1c8.9,0,9-22.5,49.7-14.8
		C2438.3,1301.2,2445.3,1303.4,2443.3,1315.9z"/>
	<path class="st9" d="M2343.5,1316c0,30.7-25.2,55.6-56.4,55.6c-31.1,0-56.4-24.9-56.4-55.6c0-30.7,25.2-55.6,56.4-55.6
		C2318.3,1260.3,2343.5,1285.2,2343.5,1316z"/>
	<path class="st17" d="M2296.3,1316c0,5-4.1,9-9.1,9c-5,0-9.1-4-9.1-9s4.1-9,9.1-9C2292.2,1306.9,2296.3,1311,2296.3,1316z"/>
	<g>
		<path class="st17" d="M2287.2,1356.7c-22.7,0-41.2-18.3-41.2-40.7s18.5-40.7,41.2-40.7c22.7,0,41.2,18.3,41.2,40.7
			S2309.9,1356.7,2287.2,1356.7z M2287.2,1276.1c-22.3,0-40.4,17.9-40.4,39.8c0,22,18.1,39.8,40.4,39.8c22.3,0,40.4-17.9,40.4-39.8
			C2327.5,1294,2309.4,1276.1,2287.2,1276.1z"/>
	</g>
	<path class="st9" d="M2293.6,1316c0,3.5-2.9,6.3-6.4,6.3c-3.5,0-6.4-2.8-6.4-6.3s2.9-6.3,6.4-6.3
		C2290.7,1309.6,2293.6,1312.4,2293.6,1316z"/>
	<path class="st18" d="M2356.4,1315.9L2356.4,1315.9c0,10.3-2.3,19.9-6.3,28.6h-125.7c-4-8.6-6.3-18.2-6.3-28.2v-0.4
		c0-37.7,31-68.3,69.2-68.3C2325.4,1247.6,2356.4,1278.2,2356.4,1315.9z"/>
	<path class="st18" d="M1933.1,1315.9L1933.1,1315.9c0,10.3-2.3,19.9-6.3,28.6H1801c-4-8.6-6.3-18.2-6.3-28.2v-0.4
		c0-37.7,31-68.3,69.2-68.3C1902.1,1247.6,1933.1,1278.2,1933.1,1315.9z"/>
	<path class="st9" d="M2343.5,1316c0,30.7-25.2,55.6-56.4,55.6c-31.1,0-56.4-24.9-56.4-55.6c0-30.7,25.2-55.6,56.4-55.6
		C2318.3,1260.3,2343.5,1285.2,2343.5,1316z"/>
	<path class="st17" d="M2296.3,1316c0,5-4.1,9-9.1,9c-5,0-9.1-4-9.1-9s4.1-9,9.1-9C2292.2,1306.9,2296.3,1311,2296.3,1316z"/>
	<g>
		<path class="st17" d="M2287.2,1356.7c-22.7,0-41.2-18.3-41.2-40.7s18.5-40.7,41.2-40.7c22.7,0,41.2,18.3,41.2,40.7
			S2309.9,1356.7,2287.2,1356.7z M2287.2,1276.1c-22.3,0-40.4,17.9-40.4,39.8c0,22,18.1,39.8,40.4,39.8c22.3,0,40.4-17.9,40.4-39.8
			C2327.5,1294,2309.4,1276.1,2287.2,1276.1z"/>
	</g>
	<path class="st9" d="M2293.6,1316c0,3.5-2.9,6.3-6.4,6.3c-3.5,0-6.4-2.8-6.4-6.3s2.9-6.3,6.4-6.3
		C2290.7,1309.6,2293.6,1312.4,2293.6,1316z"/>
	<ellipse class="st9" cx="1863.9" cy="1316" rx="56.4" ry="55.6"/>
	<path class="st17" d="M1873,1316c0,5-4.1,9-9.1,9s-9.1-4-9.1-9s4.1-9,9.1-9S1873,1311,1873,1316z"/>
	<g>
		<path class="st17" d="M1863.9,1356.7c-22.7,0-41.2-18.3-41.2-40.7s18.5-40.7,41.2-40.7s41.2,18.3,41.2,40.7
			S1886.6,1356.7,1863.9,1356.7z M1863.9,1276.1c-22.3,0-40.4,17.9-40.4,39.8c0,22,18.1,39.8,40.4,39.8s40.4-17.9,40.4-39.8
			C1904.2,1294,1886.1,1276.1,1863.9,1276.1z"/>
	</g>
	<path class="st9" d="M1870.3,1316c0,3.5-2.9,6.3-6.4,6.3s-6.4-2.8-6.4-6.3s2.9-6.3,6.4-6.3S1870.3,1312.4,1870.3,1316z"/>
	<linearGradient id="SVGID_10_" gradientUnits="userSpaceOnUse" x1="2436.3752" y1="1263.9092" x2="2386.4199" y2="1282.8844">
		<stop  offset="0" style="stop-color:#FFFAED"/>
		<stop  offset="0.4623" style="stop-color:#D9D5CA"/>
		<stop  offset="1" style="stop-color:#ADA9A2"/>
	</linearGradient>
	<path class="st19" d="M2392.2,1258v19.1l36.8,12.3c0,0,4.9-14.3,1.6-27.6L2392.2,1258z"/>
	<path class="st9" d="M1800,1298.7l-18.2,7.8l-2.5,38.8l10.9,6.2C1790.1,1351.5,1789.1,1321.2,1800,1298.7z"/>
	<rect x="1778.5" y="1311.3" class="st20" width="9.8" height="9.7"/>
	<path class="st21" d="M2388.6,1274.5l-37.9-2.8l-0.1-0.6c-8.3-50.4-69.3-50.3-69.9-50.3l-0.7,0l-11.7-206.4l1.6,0l11.6,204.9
		c7.1,0.1,62.2,2.9,70.6,51l35,2.6v-20.6l14.5,0.4c-0.1-10.4-0.7-119.3-4.7-129.2c-4.3-10.6-15.5-101.3-16-105.1l1.6,0.1
		c0.1,0.9,11.7,94.1,15.9,104.5c4.3,10.6,4.8,125.7,4.8,130.6l0,0.8l-14.5-0.4V1274.5z"/>
	
		<rect x="2284.2" y="875.4" transform="matrix(5.078772e-02 -0.9987 0.9987 5.078772e-02 1175.9449 3225.7466)" class="st21" width="1.5" height="237.7"/>
	<path class="st21" d="M2247,1251.9l-89.7-5.8l0.1-1.5l89.1,5.7c3-2.2,33.5-22.8,73.6-5.7l-0.6,1.4c-41.2-17.6-71.9,5.4-72.2,5.6
		L2247,1251.9z"/>
	<path class="st9" d="M2400,1121.1c0-0.7-4.9-66.7-6.7-84.1c-0.9-9-3.5-12-5-13c-1.2-0.8-2.9-0.6-5.3-0.6l-0.6-4.4
		c2.7-0.1,5.5-0.6,8.5,1.4c3.8,2.5,6.1,8,7,16.2c1.8,17.5,6.7,83.6,6.7,84.2L2400,1121.1z"/>
	<polygon class="st9" points="2399.7,1088 2379.6,1089.4 2375.9,1038.7 2395.8,1036.6 	"/>
	<rect x="2281.9" y="1121.1" class="st21" width="13.4" height="22.2"/>
	<linearGradient id="SVGID_11_" gradientUnits="userSpaceOnUse" x1="2389.3672" y1="1272.1312" x2="2436.0078" y2="1251.7019">
		<stop  offset="0" style="stop-color:#F27B1F"/>
		<stop  offset="1" style="stop-color:#E8E3D8"/>
	</linearGradient>
	<polygon class="st22" points="2392.2,1258 2392.2,1277.2 2400.8,1280 2400.8,1258.9 	"/>
	<path class="st23" d="M707.6,434.2c0-25.3-20.5-45.8-45.8-45.8c-25.3,0-45.8,20.5-45.8,45.8c0,0.9,0,1.7,0.1,2.6h-0.1
		c0,34.9,45.8,89.5,45.8,89.5s45.8-54.7,45.8-89.5h-0.1C707.5,435.9,707.6,435.1,707.6,434.2z M661.7,463.9
		c-16.4,0-29.7-13.3-29.7-29.7s13.3-29.7,29.7-29.7c16.4,0,29.7,13.3,29.7,29.7S678.1,463.9,661.7,463.9z"/>
	<g>
		<linearGradient id="SVGID_12_" gradientUnits="userSpaceOnUse" x1="892.6953" y1="1593.2432" x2="1661.8623" y2="1593.2432">
			<stop  offset="0" style="stop-color:#40D5E6"/>
			<stop  offset="1" style="stop-color:#5577FF"/>
		</linearGradient>
		<polygon class="st24" points="1613.7,1503.3 1277.3,1503.3 940.8,1503.3 892.7,1683.2 1277.3,1683.2 1661.9,1683.2 		"/>
		<path class="st12" d="M946.1,1551.1h44c1.8,0,3.2,1.4,2.9,3l-4.3,19.2c-0.3,1.2-1.5,2-2.9,2h-44.8c-1.9,0-3.3-1.5-2.9-3.1l5-19.2
			C943.6,1551.9,944.7,1551.1,946.1,1551.1z"/>
		<polygon class="st12" points="1010.3,1551.1 1043.6,1551.1 1039.2,1575.2 1005.3,1575.2 		"/>
		<polygon class="st12" points="1060.3,1551.1 1093.6,1551.1 1090.1,1575.2 1056.1,1575.3 		"/>
		<polygon class="st12" points="1110.2,1551.1 1143.5,1551.1 1141,1575.2 1107,1575.2 		"/>
		<polygon class="st12" points="1160.1,1551.1 1193.4,1551.1 1191.8,1575.2 1157.9,1575.2 		"/>
		<polygon class="st12" points="1210.1,1551.1 1243.3,1551.1 1242.7,1575.2 1208.8,1575.3 		"/>
		<polygon class="st12" points="1609.6,1551.1 1559.7,1551.1 1565,1575.2 1615.9,1575.2 		"/>
		<polygon class="st12" points="1543,1551.1 1509.7,1551.1 1514.2,1575.2 1548.1,1575.2 		"/>
		<polygon class="st12" points="1493.1,1551.1 1459.8,1551.1 1463.3,1575.2 1497.2,1575.3 		"/>
		<polygon class="st12" points="1443.2,1551.1 1409.9,1551.1 1412.4,1575.2 1446.3,1575.2 		"/>
		<polygon class="st12" points="1393.2,1551.1 1359.9,1551.1 1361.5,1575.2 1395.4,1575.2 		"/>
		<polygon class="st12" points="1343.3,1551.1 1310,1551.1 1310.7,1575.2 1344.6,1575.3 		"/>
		<polygon class="st12" points="1260,1551.1 1293.3,1551.1 1293.8,1575.2 1260,1575.2 		"/>
		<polygon class="st12" points="931.5,1593.2 1001,1593.2 997.1,1618.2 926.2,1618.2 		"/>
		<polygon class="st12" points="1620.4,1593.2 1534.5,1593.2 1539.4,1618.2 1627,1618.2 		"/>
		<polygon class="st12" points="1517.3,1593.2 1482.9,1593.2 1486.8,1618.2 1521.8,1618.2 		"/>
		<polygon class="st12" points="1465.7,1593.2 1431.3,1593.2 1434.2,1618.2 1469.3,1618.2 		"/>
		<polygon class="st12" points="1414.1,1593.2 1379.7,1593.2 1381.7,1618.2 1416.7,1618.2 		"/>
		<polygon class="st12" points="1362.5,1593.2 1328.1,1593.2 1329.1,1618.2 1364.2,1618.2 		"/>
		<polygon class="st12" points="921.1,1637.7 992.2,1637.7 987,1662.4 914.6,1662.4 		"/>
		<polygon class="st12" points="1010,1637.7 1045.5,1637.7 1041.3,1662.4 1005.1,1662.4 		"/>
		<polygon class="st12" points="1063.3,1637.7 1098.9,1637.7 1329.9,1637.7 1330.9,1662.4 1059.4,1662.4 		"/>
		<polygon class="st12" points="1347.7,1637.7 1383.3,1637.7 1385.2,1662.4 1349,1662.4 		"/>
		<polygon class="st12" points="1401.1,1637.7 1436.6,1637.7 1439.5,1662.4 1403.3,1662.4 		"/>
		<polygon class="st12" points="1454.4,1637.7 1489.9,1637.7 1493.8,1662.4 1457.6,1662.4 		"/>
		<polygon class="st12" points="1507.7,1637.7 1543.3,1637.7 1548.1,1662.4 1511.9,1662.4 		"/>
		<polygon class="st12" points="1561.1,1637.7 1632.2,1637.7 1638.6,1662.4 1566.2,1662.4 		"/>
		<polygon class="st12" points="1311,1593.2 1276.9,1593.2 1276.9,1618.2 1311.7,1618.2 		"/>
		<polygon class="st12" points="1259.4,1593.2 1225,1593.2 1224.1,1618.2 1259.1,1618.2 		"/>
		<polygon class="st12" points="1207.8,1593.2 1173.5,1593.2 1171.5,1618.2 1206.5,1618.2 		"/>
		<polygon class="st12" points="1156.3,1593.2 1121.9,1593.2 1118.9,1618.2 1154,1618.2 		"/>
		<polygon class="st12" points="1104.7,1593.2 1070.3,1593.2 1066.4,1618.2 1101.4,1618.2 		"/>
		<polygon class="st12" points="1053.1,1593.2 1018.7,1593.2 1013.8,1618.2 1048.8,1618.2 		"/>
		<polygon class="st12" points="947.7,1535.9 953.4,1514.3 969.6,1514.3 964.3,1535.9 		"/>
		<polygon class="st12" points="985.7,1514.3 1018,1514.3 1013.5,1535.9 980.6,1535.9 		"/>
		<polygon class="st12" points="1034.2,1514.3 1066.5,1514.3 1062.9,1535.9 1030,1535.9 		"/>
		<polygon class="st12" points="1082.7,1514.3 1115,1514.3 1112.2,1535.9 1079.3,1535.9 		"/>
		<polygon class="st12" points="1131.2,1514.3 1163.5,1514.3 1161.5,1535.9 1128.6,1535.9 		"/>
		<polygon class="st12" points="1179.7,1514.3 1212,1514.3 1210.8,1535.9 1178,1535.9 		"/>
		<polygon class="st12" points="1228.1,1514.3 1260.5,1514.3 1260.2,1535.9 1227.3,1535.9 		"/>
		<polygon class="st12" points="1276.6,1514.3 1308.9,1514.3 1309.5,1535.9 1276.6,1535.9 		"/>
		<polygon class="st12" points="1325.1,1514.3 1357.4,1514.3 1358.8,1535.9 1326,1535.9 		"/>
		<polygon class="st12" points="1373.6,1514.3 1405.9,1514.3 1408.2,1535.9 1375.3,1535.9 		"/>
		<polygon class="st12" points="1422.1,1514.3 1454.4,1514.3 1457.5,1535.9 1424.6,1535.9 		"/>
		<polygon class="st12" points="1470.6,1514.3 1502.9,1514.3 1506.8,1535.9 1473.9,1535.9 		"/>
		<polygon class="st12" points="1519,1514.3 1551.4,1514.3 1556.2,1535.9 1523.3,1535.9 		"/>
		<polygon class="st12" points="1567.5,1514.3 1599.8,1514.3 1605.5,1535.9 1572.6,1535.9 		"/>
		<rect x="892.7" y="1683.2" class="st25" width="769.2" height="10.6"/>
	</g>
	<g>
		
			<rect x="1226.7" y="1122.3" transform="matrix(-1 -1.224647e-16 1.224647e-16 -1 2559.1641 2566.209)" class="st26" width="105.9" height="321.5"/>
	</g>
	<g>
		<linearGradient id="SVGID_13_" gradientUnits="userSpaceOnUse" x1="1027.83" y1="320.2277" x2="1443.6094" y2="1368.2659">
			<stop  offset="0" style="stop-color:#40D5E6"/>
			<stop  offset="1" style="stop-color:#5577FF"/>
		</linearGradient>
		<path class="st27" d="M854.7,1277.2h849.7c17.8,0,32.2-14.4,32.2-32.2V664.6c0-17.8-14.4-32.2-32.2-32.2H854.7
			c-17.8,0-32.2,14.4-32.2,32.2v580.5C822.5,1262.8,836.9,1277.2,854.7,1277.2z"/>
	</g>
	<g>
		
			<rect x="854.9" y="664" transform="matrix(-1 -1.224647e-16 1.224647e-16 -1 2557.543 1823.9912)" class="st12" width="847.8" height="496"/>
	</g>
	<g>
		<path class="st28" d="M1605.9,1222.4c0,16.3,14.9,29.5,33.2,29.5s33.2-13.2,33.2-29.5s-14.9-29.5-33.2-29.5
			S1605.9,1206.1,1605.9,1222.4z"/>
	</g>
	<linearGradient id="SVGID_14_" gradientUnits="userSpaceOnUse" x1="1279.582" y1="1352.8367" x2="1279.582" y2="1515.5055">
		<stop  offset="0" style="stop-color:#40D5E6"/>
		<stop  offset="1" style="stop-color:#5577FF"/>
	</linearGradient>
	<rect x="1041.5" y="1431.7" class="st29" width="476.2" height="24.3"/>
	<g>
		<g>
			<g>
				<path class="st30" d="M891.6,1107C891.5,1107,891.5,1107,891.6,1107C891.7,1107.1,891.7,1107.1,891.6,1107z"/>
			</g>
		</g>
	</g>
	<g>
		<linearGradient id="SVGID_15_" gradientUnits="userSpaceOnUse" x1="1935.5881" y1="910.124" x2="1363.423" y2="910.124">
			<stop  offset="0" style="stop-color:#EDF4FF"/>
			<stop  offset="1" style="stop-color:#EDFFFE"/>
		</linearGradient>
		<path class="st31" d="M1824.3,1071.4h-250.7c-19.8,0-35.9-16.1-35.9-35.9V784.8c0-19.8,16.1-35.9,35.9-35.9h250.7
			c19.8,0,35.9,16.1,35.9,35.9v250.7C1860.1,1055.3,1844.1,1071.4,1824.3,1071.4z"/>
		<g>
			<path class="st32" d="M1670.5,855.7c-3.9,0-7.5-0.7-10.8-2c-3.3-1.3-6.2-3.1-8.6-5.4c-2.4-2.3-4.4-4.9-5.8-8
				c-1.4-3-2.2-6.3-2.2-9.9c0-3.4,0.7-6.7,2.2-9.8c1.4-3.1,3.4-5.7,5.8-8c2.4-2.2,5.3-4,8.6-5.3c3.3-1.3,6.9-2,10.8-2
				c3.8,0,7.3,0.7,10.7,2c3.4,1.3,6.3,3.1,8.7,5.3c2.4,2.2,4.4,4.9,5.8,8c1.4,3.1,2.2,6.4,2.2,9.8c0,3.5-0.7,6.8-2.2,9.9
				c-1.4,3-3.4,5.7-5.8,8c-2.4,2.3-5.3,4.1-8.7,5.4C1677.8,855,1674.2,855.7,1670.5,855.7z M1652.4,917l46.8-54.6l43.1-56.7l10.1,9
				l-45.3,53.6l-44.6,57.7L1652.4,917z M1670.5,844.6c1.7,0,3.2-0.4,4.6-1.2c1.4-0.8,2.6-1.8,3.7-3.1c1.1-1.3,2-2.8,2.6-4.5
				c0.6-1.7,0.9-3.5,0.9-5.4c0-3.9-1.2-7.2-3.5-9.9c-2.3-2.7-5.1-4.1-8.3-4.1c-1.7,0-3.2,0.4-4.6,1.2c-1.4,0.8-2.6,1.8-3.7,3.1
				c-1.1,1.3-2,2.7-2.6,4.4c-0.6,1.7-0.9,3.4-0.9,5.3c0,3.9,1.2,7.2,3.5,10C1664.5,843.2,1667.2,844.6,1670.5,844.6z M1734.5,926.5
				c-3.9,0-7.5-0.7-10.8-2c-3.3-1.3-6.2-3.1-8.6-5.3c-2.4-2.2-4.4-4.8-5.8-7.9c-1.4-3-2.2-6.3-2.2-9.9c0-3.5,0.7-6.8,2.2-9.9
				c1.4-3,3.4-5.7,5.8-8c2.4-2.3,5.3-4.1,8.6-5.4c3.3-1.3,6.9-2,10.8-2c3.9,0,7.5,0.7,10.8,2c3.3,1.3,6.2,3.1,8.7,5.4
				c2.5,2.3,4.4,4.9,5.8,8c1.4,3,2.1,6.3,2.1,9.9c0,3.5-0.7,6.8-2.1,9.9c-1.4,3-3.3,5.7-5.8,7.9c-2.5,2.2-5.4,4-8.7,5.3
				C1741.9,925.8,1738.3,926.5,1734.5,926.5z M1734.5,915.4c1.7,0,3.2-0.4,4.6-1.2c1.4-0.8,2.6-1.8,3.7-3.1c1.1-1.3,2-2.7,2.6-4.4
				c0.6-1.7,0.9-3.4,0.9-5.3c0-2-0.3-3.8-1-5.6c-0.7-1.7-1.5-3.2-2.6-4.5c-1.1-1.3-2.3-2.3-3.7-3c-1.4-0.7-2.9-1.1-4.5-1.1
				c-1.7,0-3.2,0.4-4.6,1.2c-1.4,0.8-2.6,1.8-3.7,3.1c-1.1,1.3-2,2.8-2.6,4.5c-0.6,1.7-0.9,3.5-0.9,5.4c0,3.9,1.2,7.2,3.5,9.9
				C1728.5,914,1731.3,915.4,1734.5,915.4z"/>
		</g>
		<g>
			<g>
				<polygon class="st32" points="1630.3,962.5 1601.2,962.5 1601.2,933.4 1606.6,933.4 1606.6,957.1 1630.3,957.1 				"/>
			</g>
			<g>
				<polygon class="st32" points="1803.7,962.5 1774.6,962.5 1774.6,957.1 1798.4,957.1 1798.4,933.4 1803.7,933.4 				"/>
			</g>
			<g>
				<polygon class="st32" points="1606.6,812.5 1601.2,812.5 1601.2,783.4 1630.3,783.4 1630.3,788.7 1606.6,788.7 				"/>
			</g>
			<g>
				<polygon class="st32" points="1803.7,812.5 1798.4,812.5 1798.4,788.7 1774.6,788.7 1774.6,783.4 1803.7,783.4 				"/>
			</g>
		</g>
		<linearGradient id="SVGID_16_" gradientUnits="userSpaceOnUse" x1="1105.0002" y1="910.124" x2="540.0298" y2="910.124">
			<stop  offset="0" style="stop-color:#EDF4FF"/>
			<stop  offset="1" style="stop-color:#EDFFFE"/>
		</linearGradient>
		<path class="st33" d="M732.2,748.9H983c19.8,0,35.9,16.1,35.9,35.9v250.7c0,19.8-16.1,35.9-35.9,35.9H732.2
			c-19.8,0-35.9-16.1-35.9-35.9V784.8C696.3,764.9,712.4,748.9,732.2,748.9z"/>
		<rect x="1614.7" y="996.4" class="st34" width="149.3" height="10.4"/>
		<rect x="1614.7" y="1021.4" class="st34" width="102.2" height="10.4"/>
		<rect x="768.4" y="993" class="st34" width="75.3" height="10.4"/>
		<rect x="768.4" y="1017.9" class="st34" width="111.5" height="10.4"/>
		<g>
			<path class="st32" d="M811.8,851.3c-0.4-0.4-1.1-0.9-2.1-1.6c-1-0.7-2.3-1.3-3.7-1.9c-1.5-0.6-3-1.2-4.7-1.6
				c-1.7-0.4-3.4-0.7-5.2-0.7c-3.1,0-5.5,0.6-7,1.7c-1.5,1.2-2.3,2.8-2.3,4.9c0,1.2,0.3,2.2,0.9,3c0.6,0.8,1.4,1.5,2.5,2.1
				c1.1,0.6,2.5,1.2,4.2,1.7c1.7,0.5,3.6,1,5.8,1.6c2.9,0.8,5.5,1.6,7.8,2.5c2.3,0.9,4.3,2,5.9,3.3c1.6,1.3,2.9,2.9,3.8,4.7
				c0.9,1.8,1.3,4.1,1.3,6.8c0,3.1-0.6,5.8-1.8,8.1c-1.2,2.2-2.8,4-4.8,5.4c-2,1.4-4.3,2.4-6.9,3c-2.6,0.6-5.4,1-8.2,1
				c-4.4,0-8.8-0.7-13.1-2c-4.3-1.3-8.2-3.2-11.6-5.6l5-9.8c0.5,0.5,1.4,1.1,2.7,1.9c1.3,0.8,2.8,1.6,4.6,2.4c1.8,0.8,3.7,1.5,5.9,2
				c2.1,0.6,4.3,0.8,6.6,0.8c6.3,0,9.4-2,9.4-6c0-1.3-0.4-2.3-1.1-3.2c-0.7-0.9-1.7-1.7-3.1-2.3c-1.3-0.7-2.9-1.3-4.8-1.8
				c-1.9-0.5-4-1.2-6.3-1.8c-2.8-0.8-5.2-1.6-7.3-2.5c-2.1-0.9-3.8-2-5.2-3.2c-1.4-1.2-2.4-2.7-3.1-4.3c-0.7-1.6-1-3.6-1-5.8
				c0-3,0.5-5.6,1.7-7.9c1.1-2.3,2.6-4.2,4.6-5.8c2-1.5,4.2-2.7,6.8-3.5c2.6-0.8,5.4-1.2,8.3-1.2c4.1,0,7.9,0.6,11.4,1.9
				c3.5,1.3,6.5,2.8,9.1,4.6L811.8,851.3z"/>
			<path class="st32" d="M838.2,895.4c-2.1,0-4-0.3-5.9-1c-1.8-0.7-3.4-1.7-4.7-2.9c-1.3-1.2-2.4-2.7-3.1-4.3
				c-0.7-1.7-1.1-3.5-1.1-5.5c0-2,0.5-3.9,1.4-5.7c0.9-1.7,2.2-3.2,3.8-4.4c1.6-1.2,3.6-2.2,5.8-2.8c2.3-0.7,4.7-1,7.4-1
				c1.9,0,3.8,0.2,5.7,0.5c1.8,0.3,3.5,0.8,4.9,1.4v-2.5c0-2.9-0.8-5.1-2.4-6.6c-1.6-1.5-4-2.3-7.2-2.3c-2.3,0-4.6,0.4-6.8,1.2
				c-2.2,0.8-4.5,2-6.8,3.6l-3.4-7c5.6-3.7,11.6-5.5,18-5.5c6.2,0,11.1,1.5,14.5,4.6c3.4,3.1,5.2,7.5,5.2,13.3v13.5
				c0,1.2,0.2,2,0.6,2.5c0.4,0.5,1.1,0.8,2,0.8v9.4c-1.9,0.4-3.5,0.6-4.9,0.6c-2.1,0-3.7-0.5-4.8-1.4c-1.1-0.9-1.8-2.2-2.1-3.7
				l-0.2-2.4c-1.9,2.5-4.3,4.5-7,5.8C844.3,894.8,841.4,895.4,838.2,895.4z M841.4,887.4c1.9,0,3.6-0.3,5.3-1c1.7-0.7,3-1.5,3.9-2.6
				c1.2-0.9,1.8-2,1.8-3.1v-5c-1.3-0.5-2.8-0.9-4.3-1.2c-1.5-0.3-3-0.5-4.5-0.5c-2.9,0-5.2,0.6-7,1.9c-1.8,1.3-2.7,2.9-2.7,4.9
				c0,1.9,0.7,3.4,2.1,4.7C837.5,886.7,839.3,887.4,841.4,887.4z"/>
			<path class="st32" d="M873.7,834.3h11.1v46.4c0,1.6,0.4,2.8,1.2,3.7c0.8,0.9,1.9,1.3,3.3,1.3c0.7,0,1.4-0.1,2.2-0.3
				c0.8-0.2,1.6-0.5,2.3-0.8l1.5,8.4c-1.5,0.7-3.2,1.3-5.2,1.7c-2,0.4-3.8,0.6-5.4,0.6c-3.5,0-6.2-0.9-8.1-2.8
				c-1.9-1.8-2.9-4.5-2.9-7.9V834.3z"/>
			<path class="st32" d="M920.1,895.4c-3.5,0-6.6-0.6-9.4-1.8c-2.8-1.2-5.2-2.8-7.2-4.8c-2-2-3.5-4.4-4.6-7.1
				c-1.1-2.7-1.6-5.5-1.6-8.5c0-3.1,0.5-6,1.6-8.7c1-2.7,2.6-5.1,4.5-7.2c2-2.1,4.4-3.7,7.2-4.9c2.8-1.2,6-1.8,9.5-1.8
				c3.5,0,6.7,0.6,9.5,1.8c2.8,1.2,5.1,2.8,7.1,4.9c2,2,3.4,4.4,4.5,7.1c1,2.7,1.5,5.5,1.5,8.4c0,0.7,0,1.4,0,2.1
				c0,0.7-0.1,1.2-0.2,1.7H909c0.2,1.7,0.6,3.2,1.2,4.5c0.7,1.3,1.5,2.5,2.6,3.4c1,0.9,2.2,1.7,3.6,2.1c1.3,0.5,2.7,0.7,4.1,0.7
				c2.2,0,4.3-0.5,6.2-1.6c2-1.1,3.3-2.5,4-4.3l9.5,2.6c-1.6,3.3-4.1,6-7.6,8.1C929.1,894.4,924.9,895.4,920.1,895.4z M931.3,869.3
				c-0.3-3.2-1.5-5.9-3.6-7.8c-2.1-2-4.7-2.9-7.7-2.9c-1.5,0-2.9,0.3-4.2,0.8c-1.3,0.5-2.4,1.3-3.4,2.2c-1,0.9-1.8,2.1-2.4,3.4
				c-0.6,1.3-1,2.8-1.1,4.4H931.3z"/>
		</g>
		<linearGradient id="SVGID_17_" gradientUnits="userSpaceOnUse" x1="1677.3323" y1="910.124" x2="915.7308" y2="910.124">
			<stop  offset="0" style="stop-color:#EDF4FF"/>
			<stop  offset="1" style="stop-color:#EDFFFE"/>
		</linearGradient>
		<path class="st35" d="M1457.2,1124.4h-356.8c-19.8,0-35.9-16.1-35.9-35.9V731.7c0-19.8,16.1-35.9,35.9-35.9h356.8
			c19.8,0,35.9,16.1,35.9,35.9v356.8C1493,1108.3,1477,1124.4,1457.2,1124.4z"/>
		<g>
			<g>
				<polygon class="st32" points="1206.6,932.1 1177.5,932.1 1177.5,903 1182.9,903 1182.9,926.7 1206.6,926.7 				"/>
			</g>
			<g>
				<polygon class="st32" points="1380,932.1 1350.9,932.1 1350.9,926.7 1374.7,926.7 1374.7,903 1380,903 				"/>
			</g>
			<g>
				<polygon class="st32" points="1182.9,758.7 1177.5,758.7 1177.5,729.6 1206.6,729.6 1206.6,734.9 1182.9,734.9 				"/>
			</g>
			<g>
				<polygon class="st32" points="1380,758.7 1374.7,758.7 1374.7,734.9 1350.9,734.9 1350.9,729.6 1380,729.6 				"/>
			</g>
		</g>
		<g>
			<path class="st32" d="M1352.6,904.6h-147.7V757h147.7V904.6z M1218.7,890.9h120.2V770.7h-120.2V890.9z"/>
		</g>
		<g>
			<rect x="1222.1" y="789.5" class="st32" width="113.3" height="17.2"/>
		</g>
		<g>
			<path class="st32" d="M1382.6,1073.2c-26,0-47.2-21.2-47.2-47.2c0-26,21.2-47.2,47.2-47.2s47.2,21.2,47.2,47.2
				C1429.8,1052,1408.6,1073.2,1382.6,1073.2z M1382.6,987.9c-21,0-38.1,17.1-38.1,38.1c0,21,17.1,38.1,38.1,38.1
				c21,0,38.1-17.1,38.1-38.1C1420.7,1005,1403.6,987.9,1382.6,987.9z"/>
		</g>
		<g>
			<polygon class="st32" points="1379.6,1044.6 1358.1,1023.1 1364.6,1016.7 1379.6,1031.6 1400.6,1010.6 1407.1,1017.1 			"/>
		</g>
		<g>
			<rect x="1264.2" y="948.7" class="st32" width="29" height="5.4"/>
		</g>
		<rect x="1127.6" y="1008.3" class="st34" width="168.5" height="10.4"/>
		<rect x="1127.6" y="1033.3" class="st34" width="79.9" height="10.4"/>
	</g>
	<g>
		<g>
			<g>
				<g>
					<path class="st36" d="M1718.4,795.9c0,0,13.9,23.6,19.8,27.4c8,5.2,3,10.5-0.8,10.5c-3.8,0-23.1,1.4-27.4-3.4
						c-4.3-4.8-6.4-19.3-10.3-23.1c-4-3.8-8.1-18.9,1.9-22.5C1710.4,781.5,1718.4,795.9,1718.4,795.9z"/>
				</g>
			</g>
		</g>
		<g>
			<g>
				<g>
					<path class="st37" d="M1712.4,785.5c0,0,15.9,27.6,18.7,31.7c2.7,4.1-5.2,4.1-10.1,2.1c-4.9-1.9-17.2-21.8-19-25.4
						c-2.1-4.3-0.4-9.2-0.4-9.2L1712.4,785.5z"/>
				</g>
			</g>
		</g>
		<g>
			<g>
				<g>
					<polygon class="st36" points="1696.2,800.4 1699.9,828.7 1701.9,828.8 1701.3,808.4 					"/>
				</g>
			</g>
		</g>
		<g>
			<g>
				<g>
					<path class="st36" d="M1580.4,795.9c0,0,13.9,23.6,19.8,27.4c8,5.2,3,10.5-0.8,10.5c-3.8,0-23.1,1.4-27.4-3.4
						c-4.3-4.8-6.4-19.3-10.3-23.1c-4-3.8-8.2-19.2,1.9-22.5C1572.5,781.9,1580.4,795.9,1580.4,795.9z"/>
				</g>
			</g>
		</g>
		<g>
			<g>
				<g>
					<path class="st37" d="M1575.2,785.6c0,0,15.1,27.6,17.8,31.6c2.7,4.1-5.2,4.1-10.1,2.1c-4.9-1.9-17.2-21.8-19-25.4
						c-2.1-4.3-0.4-9.2-0.4-9.2L1575.2,785.6z"/>
				</g>
			</g>
		</g>
		<g>
			<g>
				<g>
					<polygon class="st36" points="1558.3,800.4 1561.9,828.7 1563.9,828.8 1563.3,808.4 					"/>
				</g>
			</g>
		</g>
		<g>
			<g>
				<g>
					<path class="st37" d="M1518.7,581.2l125.9,57.4c0,0,14.1,4.6,15.6,20.2c4.9,48.7,41.3,126,41.3,126c11.7,5.7,10.8,0.8,10.8,0.8
						c-7.4-23.6-16.3-121.1-19.5-160.3c-0.7-8.3-1.1-14-1.2-15.8c-0.1-1.2-1.4-2.9-3.7-4.7c-17.3-14-88.4-43-88.4-43
						C1546.2,560.3,1518.7,581.2,1518.7,581.2z"/>
				</g>
			</g>
		</g>
		<g>
			<g>
				<g>
					<path class="st37" d="M1495,605.9c3.9,34,52.5,30.1,52.5,30.1h58.9c0,0-15.5,34.4-21.4,63.4c-6.3,30.8-21.3,85.3-21.3,85.3
						s1,1.9,11.6,0.8c0,0,46.2-92.1,63.9-115.3c3.8-5,14.7-32,16.6-48.2c0.6-5.4,0.2-9.6-1.8-11.3c-2-1.7-6.7-4.9-13-8.9
						c-18.4-11.6-50.5-29.5-68.3-33.5c-23.9-5.4-61.7-15.4-61.7-15.4S1491.1,571.8,1495,605.9z"/>
				</g>
			</g>
		</g>
		<g>
			<path class="st38" d="M1535,343.7c0,0-8.8-16.7-4.5-34.5c4.3-17.8,20.8-35.6,45-27.4c24.2,8.2,43.8,27,29.3,48.7
				c-14.5,21.7,13.1,31.6,6.1,41.9c-7,10.3-4.4,21.1-1.4,23.6c3,2.4,12.6,11,11.5,21.1c-1.1,10.2-47-29.6-47-29.6
				S1549.1,337.2,1535,343.7z"/>
		</g>
		<g>
			<path class="st39" d="M1608.8,557.6c0,0-3.6,17.7-97.7-4.7C1511.1,552.9,1542.7,542.4,1608.8,557.6z"/>
		</g>
		<g>
			<g>
				<path class="st40" d="M1510.1,557.9c-1.5,2.8-2.9,5.6-4.4,8.4c34.4,1,68.8,2,103.1,3c-5.4-18.2-3.7-42.9-2.7-61.6
					c1.2-22.9,13.8-38.8,12.4-61.9c6.8,1.1,8,1.3,14.8,2.3c-10.4-29.7-14-44.4-46.3-55.8c-10.5-3.7-17.5-4.5-28.9-3.5
					c-37.5,3.1-48.8,3.5-67.2,37.5c28.8,4.6,24.1,14.9,32.8,43.6c4.3,14,8.7,29.6,6.4,44.3C1527.9,528.7,1510.1,544.6,1510.1,557.9z
					"/>
			</g>
		</g>
		<g>
			<g>
				<path class="st41" d="M1569.9,399.5c-15.3-2.9-12.1-11.4-12.1-11.4s0.7-4.8,1-10.9c0.1-1.6,0.1-3.2,0.1-4.9
					c0-2.5-0.1-5.1-0.4-7.5c-1.3-10.3,27.8-4.2,27.8-4.2s-1.7,20.8,2.3,27.1C1592.7,393.9,1585.2,402.4,1569.9,399.5z"/>
			</g>
		</g>
		<g>
			<g>
				<path class="st41" d="M1540.6,388c0,0,30.9,35.7,42.4,44c0,0,13.1-11.9,5-43.2C1588,388.8,1573.1,381.3,1540.6,388z"/>
			</g>
		</g>
		<g>
			<path class="st41" d="M1541.5,302.1c0,0-16.1,31-0.1,60.3c15.9,29.3,47.2-12.8,49.3-17.7c2-4.9,12.8-32.9-8.6-41.4
				C1560.6,294.8,1546,293.7,1541.5,302.1z"/>
		</g>
		<g>
			<path class="st38" d="M1546.8,313.1c0,0-11.1,14.5-12.4,25.3c0,0-4.4-20.3,8-39.8c12.4-19.5,44.1-0.9,48.3,6.9
				s16.7,14.7-4.2,48.1C1586.6,353.5,1549.1,327.4,1546.8,313.1z"/>
		</g>
		<g>
			<path class="st42" d="M1572.5,365.4c0,0-2.8,6.1-13.7,11.8c0.1-1.6,0.1-3.2,0.1-4.9C1558.9,372.3,1566.3,371.4,1572.5,365.4z"/>
		</g>
		<g>
			<path class="st41" d="M1410.1,530c0,0-7.6,3.4-11.3,1.9c-3.6-1.5-9.2-1.8-11-1.8c-2.4,0-9.8-2.6-9.6,0.2c0.1,2.9,12,4.9,14.4,5.8
				s-7.3,6.2-8.2,8.6c-0.9,2.4,10,17.9,16.2,13.5c6.2-4.4,9.5-13.3,10.8-13.9c1.3-0.6,4.6-3,4.6-3L1410.1,530z"/>
		</g>
		<g>
			<path class="st41" d="M1385.7,543.3c0,0-17.9,14.9-18.2,16.9c-0.3,2,0.7,2.9,2.4,1.6c1.7-1.3,17.8-13.8,17.8-13.8
				s-17.9,21.2-18.6,22.8c-0.4,0.9,1.4,2.8,2.4,2.2c1-0.6,20.1-20.6,20.1-20.6s-16.7,19.8-16.8,21.3c-0.1,1.3,1.9,2.7,3.3,1.3
				c1.3-1.4,18-18.9,18-18.9s-11.2,15.2-10.5,16.6c0.4,0.8,1.8,2.5,4.6-1.5c2.8-4,10.3-12.8,10.3-12.8L1385.7,543.3z"/>
		</g>
		<g>
			<g>
				<path class="st43" d="M1600.2,636h-52.7c0,0-48.6,3.9-52.5-30.1c-3.9-34,16-52.9,16-52.9s25.7,6.8,48.1,12.2
					c11.2-2.4,24.7-3.9,40.5-3.5c0,0,95,31.4,92.1,47.9C1691.7,609.6,1651.9,588.3,1600.2,636z"/>
			</g>
		</g>
		<g>
			<polygon class="st44" points="1565.9,577.1 1666.4,575.6 1615.6,601.4 			"/>
		</g>
		<g>
			<path class="st40" d="M1597.1,564.2c0,0-22.6,8.8-50.3,0.8l-1.3-10.4l57.1,3.2L1597.1,564.2z"/>
		</g>
		<g>
			<polygon class="st45" points="1615.6,601.4 1565.9,582.1 1565.9,577.1 1619.6,596.4 			"/>
		</g>
		<g>
			<g>
				<path class="st8" d="M1596.7,569c-0.3,3.7,3.5,6.4,6.9,4.9l5.8-2.5c1.8-0.7,2.8-2.6,2.5-4.5c-2.4-15.2-7.6-74.4,0-84.6
					c2.8-3.8,4.6-7,5.6-9.9c5,13,11.3,29.7,13.8,38.7l47.5,63.2l15.9,4c-19.9-47.9-35.8-73.3-35.8-73.3c-3.1-8.3-12-33.6-19.9-56.1
					c-5-14.2-9.6-27.3-12-34.4c-1.2-3.6-3.7-6.6-6.9-8.5c-7.4-4.4-19.6-11.3-30.7-16.7c0,0-0.1,0-0.1-0.1c-0.4-0.2-0.7-0.3-1.1-0.5
					c0,0,0,0,0,0c0,0,0,0,0,0c21.1,32,12.9,122.3,8.7,180.1C1596.7,568.9,1596.7,569,1596.7,569z"/>
			</g>
			<g>
				<path class="st8" d="M1518.3,391.5c-6.8,1-23.6,17.3-32.5,33.8c-10.2,18.8-20.5,40.2-28.3,47.2c-14.3,12.9-54.2,58.7-56.1,57.5
					c-0.7-0.4,11,13.7,12.4,14.3c0.7,0.3,65.7-55.9,71.9-64.5c5.9-8.1,21.7-42.2,26.5-41.5c0,0,0,0,0,0c0,0,0,0,0,0
					c0.4,0.8,6.1,13.2,11.6,31.5c0.1,0.3,0.2,0.6,0.3,0.9c3.8,12.7,3.4,26.5,1.4,42c-1.5,11.7-10.3,30.9-15.5,40.2
					c-0.6,1.1-0.5,3.3,0.2,4.9c0,0,0,0,0,0c0.4,1,1,1.8,1.7,2l19.1,7.1l4.5,1.7c3.2,1.2,6.6,0.6,9.1-1.3c2.1-1.5,3.6-3.8,3.9-6.6
					c4.2-32.6,9.6-65.9,13.9-78.5c18.8-55.1-7.3-96.4-7.3-96.4S1524.2,389.3,1518.3,391.5z"/>
			</g>
		</g>
		<g>
			<polygon class="st46" points="1615.6,601.4 1645.5,519.7 1742,521.3 1713.4,596.5 			"/>
		</g>
		<g>
			<path class="st47" d="M1676.4,555.8c-2.9,5.9-2.1,12.3,2,14.3c4,2,9.7-1.1,12.6-7c2.9-5.9,2.1-12.3-2-14.3
				C1685,546.8,1679.3,549.9,1676.4,555.8z"/>
		</g>
		<g>
			<path class="st38" d="M1574.8,332.9c0,0,6.2,9.6,0.5,17.9c-5.7,8.3,1.4,16.4,2.7,25.2c1.2,8.8-23.8,32.1,4,43.8
				c27.9,11.7,36.7-7.7,29.6-18.3c-7.1-10.7-12.2-19.3-12.8-34.6C1598.2,351.7,1593.2,328,1574.8,332.9z"/>
		</g>
		<g>
			<polygon class="st48" points="1372.9,217.6 1491.7,217.6 1491.7,303.7 1491.7,321.8 1473.5,303.7 1372.9,303.7 			"/>
		</g>
	</g>
	<g>
		<g>
			<polygon class="st49" points="2183.4,789 1984.6,789 1984.6,933.1 1984.6,963.5 2014.9,933.1 2183.4,933.1 			"/>
		</g>
	</g>
	<g>
		<path class="st50" d="M628.9,1151.1c-6.2-21.4,13.1-45.9,13.1-45.9c-11.9-11.1-27.2-15.4-33.8-16.5c-6.6-1.1-25-5.1-25-5.1h-14.9
			h-14.9c0,0-19.1,3.7-25.5,4.8c-6.6,1.1-21.4,6.7-31.6,15.9c0,0,17.2,28.9,11,50.3c0,0,5,34.8,8,47.8c1.6,6.7,0,27.9-0.1,33.4
			c-0.2,7.9-1.4,30.5-3,49.8c0,0,17.8,10.6,56,11.5c37.8-2.5,57-11.5,57-11.5c-2.4-23.1-3.9-42.5-4.9-50c-0.7-5.5,0.2-26.3,0.9-33.2
			C622.2,1193,628.9,1151.1,628.9,1151.1z"/>
		<path class="st41" d="M586.1,1061.8c0,0-2.1,13.4,2.3,22.5c0,0,4.7,21.2-17,22.6c-21.8,1.4-22.7-22.4-22.7-22.4s5.1-2.8,1.2-21.7
			C545.9,1043.8,586.1,1061.8,586.1,1061.8z"/>
		<g>
			<path class="st41" d="M571.2,984.8c0,0,28,3.9,24.7,48.6c-3.3,44.8-27.9,41.6-29.6,41.6c-1.6,0-24.7,1.4-27.7-53.1
				C538.6,1021.9,536.9,981.6,571.2,984.8z"/>
		</g>
		<g>
			<path class="st41" d="M596.1,1020.8c0,0,3-3.4,4.2-0.1c1.2,3.4-3.6,18-3.9,19.3c0,0-0.5,1.3-1.3,0.6
				C594.3,1039.9,596.1,1020.8,596.1,1020.8z"/>
		</g>
		<g>
			<path class="st41" d="M539.3,1021.5c0,0-3.1-3.3-4.2,0.1c-1.1,3.4,4.2,18.6,4.4,19.2c0,0,0.6,1.3,1.3,0.6
				C541.6,1040.6,539.3,1021.5,539.3,1021.5z"/>
		</g>
		<g>
			<path class="st51" d="M596.2,1027.6l-3.9,5.6c0,0-0.2-12-0.8-13.8c-0.7-1.9,0.6-8.4,0-9.8c-0.6-1.3-19,4.1-49.5,1.7
				c0,0,3.6,10.7,1.7,11.5c-2,0.8-0.7,14.1-0.7,14.1l-3.4-3.7c0,0-4.2-22.6-3.9-26.4c0.4-5-1.9-28.5,41-25.4c4.9,0.4,9.6,2,13.6,5
				c4.5,3.3,9.1,8.6,8.9,16C598.9,1012,596.2,1027.6,596.2,1027.6z"/>
		</g>
		<path class="st42" d="M554.1,1068c0,0,11.6,12.9,29.2-0.6c0,0-4.8,10.1-15.3,10.6C557.5,1078.4,554.1,1068,554.1,1068z"/>
		<path class="st52" d="M569.5,1345.7l60.5-11.2c0,0-3.8-42.5-4.3-48.6c-0.4-5.3-5.7-56.2-4.5-83.5c0,0-13.3-16.2-14.9-33.3
			l-37.2-0.5h-0.4l-37.3,0.9c-1.6,17.1-16,32.9-16,32.9c0.4,28.9-2.9,78.2-3.4,83.5c-0.5,6.1-7.5,47-7.5,47l63.6,12.8v0.3l0.7-0.2
			l0.7,0.2L569.5,1345.7z"/>
		<g>
			<path class="st53" d="M495,1629.7c0,0-3.9,9.3-7.1,13c-3.2,3.7-15.7,10.3-15.7,21.2c-0.1,11.8,21,8.6,29.2,8.1
				c8.2-0.4,8.8-6.8,12.3-13.5c3.5-6.7,7-5.6,7.6-11c0.6-5.4-2.7-17.5-2.7-17.5L495,1629.7z"/>
		</g>
		<g>
			<path class="st54" d="M494.6,1626.3l0.6,6.1c0,0,11.1,4.2,23.3,0l-0.1-7.7L494.6,1626.3z"/>
		</g>
		<g>
			<path class="st53" d="M619,1629.7c0,0,3.9,9.3,7.1,13c3.2,3.7,15.7,10.3,15.7,21.2c0.1,11.8-21,8.6-29.2,8.1
				c-8.2-0.4-8.8-6.8-12.3-13.5c-3.5-6.7-7-5.6-7.6-11c-0.6-5.4,2.7-17.5,2.7-17.5L619,1629.7z"/>
		</g>
		<g>
			<path class="st54" d="M619.4,1626.3l-0.6,6.1c0,0-11.1,4.2-23.3,0l0.1-7.7L619.4,1626.3z"/>
		</g>
		<g>
			<path class="st52" d="M636.8,1474.4c0,14.6-13.4,153.6-13.4,153.6c-1.5,4.9-26.7,4.6-31.6,2.1s4.1-147.5,3.2-162.2
				c-0.9-14.7-26.9-117.7-31.1-117.2c-4.3,0.5-26.4,127.6-29.8,138.8c-3.4,11.2-12.8,140-12.8,140c-10.7,6.3-30.8,0.2-30.8,0.2
				s1.6-144.1,3-148c1.5-3.9,1.1-15.1,1.6-51.6c0.4-27.3,10.5-106.8,15.5-145.2c0.2-1.4,0.4-2.7,0.5-3.9c1-7.5,1.7-13,2.1-15.6
				c0.2-1.1,0.2-1.7,0.2-1.7c1.4-0.6,2.8-1.2,4.3-1.7c35.7-12.8,104.4,0.8,104.4,0.8s0,0.3,0.1,1c0.1,0.8,0.2,2,0.4,3.6
				c0.4,3.4,1,8.4,1.7,14.3c0,0,0,0.1,0,0.1c0,0.2,0,0.4,0.1,0.5c2.4,20.8,5.8,51.4,5.5,54.5
				C629.5,1341.5,636.8,1459.8,636.8,1474.4z"/>
		</g>
		<polygon class="st55" points="586.2,1206.4 568.8,1206.4 551.4,1206.4 535.2,1222.6 535.2,1271.9 568.8,1271.9 602.4,1271.9 
			602.4,1222.6 		"/>
		<path class="st50" d="M633.4,1167.6c0,0,7.6,45.5,6.5,53.3c-1.2,7.8-17.8,90.6-17.8,90.6l18.7,8.8c0,0,25.2-85.8,25.6-98.8
			c0.4-13-2.5-57.6-7.2-77.2s-10.4-33-20.5-42.6c-10.1-9.6-27.7-12.5-27.7-12.5L633.4,1167.6z"/>
		<path class="st50" d="M504.2,1167.6c0,0-7.6,45.5-6.5,53.3c1.2,7.8,16.8,84.5,16.8,84.5l-17.7,14.9c0,0-25.2-85.8-25.6-98.8
			c-0.4-13,2.5-57.6,7.2-77.2s10.4-33,20.5-42.6c10.1-9.6,27.7-12.5,27.7-12.5L504.2,1167.6z"/>
		<path class="st52" d="M606.2,1169.1c0,0,1.7-45.1,19.4-75.6c0,0-3.1-3.1-9.9-3.3c0,0-17,40.8-18.1,78.8
			C596.6,1207,606.2,1169.1,606.2,1169.1z"/>
		<path class="st52" d="M531.4,1169.5c0,0-1.7-49.8-18.4-76.4c0,0,4.1-4.2,8.6-3.1c0,0,17.3,41.2,18.3,79.2
			C540.9,1207.3,531.4,1169.5,531.4,1169.5z"/>
		<path class="st41" d="M636.9,1325.6c0,0-7,9.5-20.2,8.8c-15-0.8-19.4-7.4-18.4-10.4C599.3,1321.1,634.8,1318.6,636.9,1325.6z"/>
		<path class="st41" d="M632.3,1329.8c0,0,11.2-3.7,9.3-6.7c-1.9-3-8.4,1.5-8.4,1.5L632.3,1329.8z"/>
		<path class="st41" d="M501,1325.6c0,0,7,9.5,20.2,8.8c15-0.8,19.4-7.4,18.4-10.4C538.6,1321.1,503.1,1318.6,501,1325.6z"/>
		<path class="st41" d="M505.5,1329.8c0,0-11.1-4-9.2-6.9c1.9-3,8.3,1.8,8.3,1.8L505.5,1329.8z"/>
		<rect x="482.4" y="1219.2" class="st56" width="172.2" height="104.9"/>
		<rect x="556.6" y="1219.2" class="st57" width="21.3" height="10.6"/>
	</g>
	<g>
		<path class="st58" d="M817.7,1740.2c0,0-3.8,9.1-7,12.7c-3.2,3.6-15.4,10.1-15.4,20.8c-0.1,11.6,20.6,8.4,28.6,8
			c8.1-0.4,8.7-6.6,12.1-13.2c3.4-6.6,6.8-5.5,7.5-10.8c0.6-5.3-2.6-17.2-2.6-17.2L817.7,1740.2z"/>
		<g>
			<path class="st58" d="M1007.9,1742.3c0,0,11.2,11.8,22.6,14.3c11.4,2.5,19.4,5.6,19.5,12.4c0.1,6.8-32.8,11.2-45.9,4.4
				c-19.5-10.2-21.5-7.1-23.6-12.2c-2.2-5.1,2.6-18.7,2.5-20.3C982.8,1738.8,1007.9,1742.3,1007.9,1742.3z"/>
		</g>
		<g>
			<path class="st52" d="M977.9,1401.5c0,0,11.8,85.7,16.6,114.7c5.6,33.9,7.5,61.9,9.1,79.4c2,22.1,5.8,138.1,7.2,144.5
				s-30.9,3.2-30.9,3.2s-23.4-150.4-29.3-173.9c-5.5-21.9-20.6-112.1-25.6-106.1c-5,6-36.4,111.5-40.1,128.8
				c-3.7,17.3-39.4,152.4-39.4,152.4s-26.7,5.7-33.5,0.3c0,0,23.3-124.1,25.7-156.5c0.9-12.3,8.2-147,29.1-201.5
				C877.7,1358,977.9,1401.5,977.9,1401.5z"/>
		</g>
		<path class="st59" d="M943.3,1195.9c0,0,31.2,6.5,34.9,9.7c4,3.5,11.1,37.7,11.5,47.2c0.4,9.5-3.8,49.3-7.8,64.2
			c-4,14.8-3.1,92.2-1.3,104.4c0,0-62.7,12.3-124.5,4.2c0,0,10.7-67.2,8.2-87.5c-3.2-26-10.8-86-10.8-86s8.3-40.4,13.8-45
			c5.5-4.7,43.8-12.2,43.8-12.2L943.3,1195.9z"/>
		<path class="st41" d="M930.4,1099.3c0,0,37.6-13.9,35.2,36c-2.3,49.9-11.2,55-35.9,48c-24.7-7-26.8-38.5-30-53.6
			C896.5,1114.5,918.1,1101.4,930.4,1099.3z"/>
		<path class="st41" d="M949.5,1203.8c0,0-19.5,15.8-38.3-8.9c0,0,0.8-20.1-4.9-38.9c-5.8-18.8,39.3,25,39.3,25
			c-0.5,0.3-0.6,2.2-0.3,4.8c0.2,2.2,0.7,5,1.4,7.8C948.4,1199.8,948,1198.7,949.5,1203.8z"/>
		<path class="st53" d="M904.9,1154.4c0,0-0.1-13.3,5.4-14.6c5.5-1.2,8.4,6.5,8.4,6.5l4.5-0.2c0,0-4-13.5,1.3-16.6
			c5.3-3.1,36.9-0.4,40.9-4.9c4-4.6-1.8-31.6-10.4-34.2c-8.6-2.7-32.2-8-47.2,5.3c0,0-13.4,0.1-13.4,16.2
			C894.5,1122.4,900.4,1147.2,904.9,1154.4z"/>
		<path class="st42" d="M946.7,1193.6c-29.1-4.9-33.5-21.5-33.5-21.7c11.3,14.6,32.1,14,32.1,14C945.5,1188,946,1190.8,946.7,1193.6
			z"/>
		<path class="st41" d="M916.6,1134.2c-1.7-4.4-11-3.8-10.1,3.1c1,7,8.7,17.7,11.8,15.7C921.5,1151,918.9,1140.3,916.6,1134.2z"/>
		<path class="st41" d="M901,1197c0,0,17.6,35.6,43.5,32.7c25.9-2.9,10.9-27.7,8.4-31.7C953,1198,937.4,1188,901,1197z"/>
		<g>
			<path class="st59" d="M1033.2,1304.1c14.5,6.7,70.2,20.6,70.2,20.6l3.8-23c0,0-28.2-11-47.6-16c-9.4-2.4-18.8-5.8-20.3-6.6
				c-1.5-0.8-32.5-38.4-34.8-42.5c-2.3-4.1-7.9-17.7-16.1-25.1c-8.2-7.4-18.5-9.2-18.5-9.2c-20.5,17.3,7.2,50.1,7.2,50.1
				S1012.8,1294.7,1033.2,1304.1z"/>
		</g>
		<path class="st60" d="M1256.2,1273.9H810.7c-11.5,0-20.9,9.3-20.9,20.9v318.5c0,11.5,9.3,20.9,20.9,20.9h445.5
			c11.5,0,20.9-9.3,20.9-20.9v-318.5C1277.1,1283.3,1267.7,1273.9,1256.2,1273.9z"/>
		<g>
			<path class="st61" d="M1242.1,1623.8h-2v-0.5h2V1623.8z M1238.1,1623.8h-2v-0.5h2V1623.8z M1234.1,1623.8h-2v-0.5h2V1623.8z
				 M1230.1,1623.8h-2v-0.5h2V1623.8z M1226.1,1623.8h-2v-0.5h2V1623.8z M1222.1,1623.8h-2v-0.5h2V1623.8z M1218.1,1623.8h-2v-0.5h2
				V1623.8z M1214.1,1623.8h-2v-0.5h2V1623.8z M1210.1,1623.8h-2v-0.5h2V1623.8z M1206.1,1623.8h-2v-0.5h2V1623.8z M1202.1,1623.8
				h-2v-0.5h2V1623.8z M1198.1,1623.8h-2v-0.5h2V1623.8z M1194,1623.8h-2v-0.5h2V1623.8z M1190,1623.8h-2v-0.5h2V1623.8z
				 M1186,1623.8h-2v-0.5h2V1623.8z M1182,1623.8h-2v-0.5h2V1623.8z M1178,1623.8h-2v-0.5h2V1623.8z M1174,1623.8h-2v-0.5h2V1623.8z
				 M1170,1623.8h-2v-0.5h2V1623.8z M1166,1623.8h-2v-0.5h2V1623.8z M1162,1623.8h-2v-0.5h2V1623.8z M1158,1623.8h-2v-0.5h2V1623.8z
				 M1154,1623.8h-2v-0.5h2V1623.8z M1150,1623.8h-2v-0.5h2V1623.8z M1146,1623.8h-2v-0.5h2V1623.8z M1142,1623.8h-2v-0.5h2V1623.8z
				 M1138,1623.8h-2v-0.5h2V1623.8z M1134,1623.8h-2v-0.5h2V1623.8z M1130,1623.8h-2v-0.5h2V1623.8z M1126,1623.8h-2v-0.5h2V1623.8z
				 M1122,1623.8h-2v-0.5h2V1623.8z M1118,1623.8h-2v-0.5h2V1623.8z M1114,1623.8h-2v-0.5h2V1623.8z M1110,1623.8h-2v-0.5h2V1623.8z
				 M1106,1623.8h-2v-0.5h2V1623.8z M1102,1623.8h-2v-0.5h2V1623.8z M1098,1623.8h-2v-0.5h2V1623.8z M1094,1623.8h-2v-0.5h2V1623.8z
				 M1090,1623.8h-2v-0.5h2V1623.8z M1086,1623.8h-2v-0.5h2V1623.8z M1082,1623.8h-2v-0.5h2V1623.8z M1078,1623.8h-2v-0.5h2V1623.8z
				 M1074,1623.8h-2v-0.5h2V1623.8z M1070,1623.8h-2v-0.5h2V1623.8z M1066,1623.8h-2v-0.5h2V1623.8z M1062,1623.8h-2v-0.5h2V1623.8z
				 M1058,1623.8h-2v-0.5h2V1623.8z M1054,1623.8h-2v-0.5h2V1623.8z M1050,1623.8h-2v-0.5h2V1623.8z M1046,1623.8h-2v-0.5h2V1623.8z
				 M1042,1623.8h-2v-0.5h2V1623.8z M1038,1623.8h-2v-0.5h2V1623.8z M1034,1623.8h-2v-0.5h2V1623.8z M1029.9,1623.8h-2v-0.5h2
				V1623.8z M1025.9,1623.8h-2v-0.5h2V1623.8z M1021.9,1623.8h-2v-0.5h2V1623.8z M1017.9,1623.8h-2v-0.5h2V1623.8z M1013.9,1623.8
				h-2v-0.5h2V1623.8z M1009.9,1623.8h-2v-0.5h2V1623.8z M1005.9,1623.8h-2v-0.5h2V1623.8z M1001.9,1623.8h-2v-0.5h2V1623.8z
				 M997.9,1623.8h-2v-0.5h2V1623.8z M993.9,1623.8h-2v-0.5h2V1623.8z M989.9,1623.8h-2v-0.5h2V1623.8z M985.9,1623.8h-2v-0.5h2
				V1623.8z M981.9,1623.8h-2v-0.5h2V1623.8z M977.9,1623.8h-2v-0.5h2V1623.8z M973.9,1623.8h-2v-0.5h2V1623.8z M969.9,1623.8h-2
				v-0.5h2V1623.8z M965.9,1623.8h-2v-0.5h2V1623.8z M961.9,1623.8h-2v-0.5h2V1623.8z M957.9,1623.8h-2v-0.5h2V1623.8z
				 M953.9,1623.8h-2v-0.5h2V1623.8z M949.9,1623.8h-2v-0.5h2V1623.8z M945.9,1623.8h-2v-0.5h2V1623.8z M941.9,1623.8h-2v-0.5h2
				V1623.8z M937.9,1623.8h-2v-0.5h2V1623.8z M933.9,1623.8h-2v-0.5h2V1623.8z M929.9,1623.8h-2v-0.5h2V1623.8z M925.9,1623.8h-2
				v-0.5h2V1623.8z M921.9,1623.8h-2v-0.5h2V1623.8z M917.9,1623.8h-2v-0.5h2V1623.8z M913.9,1623.8h-2v-0.5h2V1623.8z
				 M909.9,1623.8h-2v-0.5h2V1623.8z M905.9,1623.8h-2v-0.5h2V1623.8z M901.9,1623.8h-2v-0.5h2V1623.8z M897.9,1623.8h-2v-0.5h2
				V1623.8z M893.9,1623.8h-2v-0.5h2V1623.8z M889.9,1623.8h-2v-0.5h2V1623.8z M885.9,1623.8h-2v-0.5h2V1623.8z M881.9,1623.8h-2
				v-0.5h2V1623.8z M877.9,1623.8h-2v-0.5h2V1623.8z M873.9,1623.8h-2v-0.5h2V1623.8z M869.9,1623.8h-2v-0.5h2V1623.8z
				 M865.8,1623.8h-2v-0.5h2V1623.8z M861.8,1623.8h-2v-0.5h2V1623.8z M857.8,1623.8h-2v-0.5h2V1623.8z M853.8,1623.8h-2v-0.5h2
				V1623.8z M849.8,1623.8h-2v-0.5h2V1623.8z M845.8,1623.8h-2v-0.5h2V1623.8z M841.8,1623.8h-2v-0.5h2V1623.8z M837.8,1623.8h-2
				v-0.5h2V1623.8z M833.8,1623.8h-2v-0.5h2V1623.8z M829.8,1623.8h-2v-0.5h2V1623.8z M825.8,1623.8h-2l0-0.5h2V1623.8z
				 M1244.1,1623.7l0-0.5c0.7,0,1.3-0.1,2-0.2l0.1,0.5C1245.4,1623.6,1244.8,1623.7,1244.1,1623.7z M821.8,1623.7
				c-0.7-0.1-1.3-0.2-2-0.3l0.1-0.5c0.6,0.1,1.3,0.2,2,0.3L821.8,1623.7z M1248.1,1623.1l-0.1-0.5c0.6-0.2,1.3-0.4,1.9-0.6l0.2,0.5
				C1249.4,1622.7,1248.7,1623,1248.1,1623.1z M817.8,1622.8c-0.6-0.2-1.3-0.4-1.9-0.7l0.2-0.5c0.6,0.3,1.2,0.5,1.8,0.7
				L817.8,1622.8z M1251.9,1621.7l-0.2-0.4c0.6-0.3,1.2-0.6,1.7-1l0.3,0.4C1253.1,1621.1,1252.5,1621.4,1251.9,1621.7z
				 M814.1,1621.2c-0.6-0.3-1.2-0.7-1.7-1.1l0.3-0.4c0.5,0.4,1.1,0.7,1.7,1.1L814.1,1621.2z M1255.3,1619.5l-0.3-0.4
				c0.5-0.4,1-0.8,1.5-1.3l0.3,0.4C1256.3,1618.7,1255.8,1619.1,1255.3,1619.5z M810.8,1618.9c-0.5-0.4-1-0.9-1.5-1.4l0.4-0.3
				c0.4,0.5,0.9,0.9,1.4,1.4L810.8,1618.9z M1258.2,1616.7l-0.4-0.3c0.4-0.5,0.8-1,1.2-1.6l0.4,0.3
				C1259.1,1615.7,1258.6,1616.2,1258.2,1616.7z M808.1,1615.9c-0.4-0.5-0.8-1.1-1.1-1.7l0.4-0.3c0.3,0.6,0.7,1.1,1.1,1.6
				L808.1,1615.9z M1260.5,1613.4l-0.4-0.2c0.3-0.6,0.6-1.2,0.9-1.8l0.5,0.2C1261.1,1612.2,1260.8,1612.8,1260.5,1613.4z
				 M805.9,1612.5c-0.3-0.6-0.6-1.2-0.8-1.9l0.5-0.2c0.2,0.6,0.5,1.2,0.8,1.8L805.9,1612.5z M1262.1,1609.7l-0.5-0.1
				c0.2-0.6,0.3-1.3,0.5-1.9l0.5,0.1C1262.4,1608.4,1262.2,1609,1262.1,1609.7z M804.6,1608.7c-0.2-0.7-0.3-1.3-0.4-2l0.5-0.1
				c0.1,0.7,0.2,1.3,0.4,1.9L804.6,1608.7z M1262.8,1605.7l-0.5,0c0.1-0.6,0.1-1.2,0.1-1.7v-0.2h0.5v0.2
				C1262.9,1604.5,1262.9,1605.1,1262.8,1605.7z M804,1604.7c0-0.3,0-0.5,0-0.8v-1.2h0.5v1.2c0,0.3,0,0.5,0,0.8L804,1604.7z
				 M1262.9,1601.7h-0.5v-2h0.5V1601.7z M804.5,1600.7H804v-2h0.5V1600.7z M1262.9,1597.7h-0.5v-2h0.5V1597.7z M804.5,1596.7H804v-2
				h0.5V1596.7z M1262.9,1593.7h-0.5v-2h0.5V1593.7z M804.5,1592.7H804v-2h0.5V1592.7z M1262.9,1589.7h-0.5v-2h0.5V1589.7z
				 M804.5,1588.7H804v-2h0.5V1588.7z M1262.9,1585.7h-0.5v-2h0.5V1585.7z M804.5,1584.7H804v-2h0.5V1584.7z M1262.9,1581.7h-0.5v-2
				h0.5V1581.7z M804.5,1580.7H804v-2h0.5V1580.7z M1262.9,1577.7h-0.5v-2h0.5V1577.7z M804.5,1576.7H804v-2h0.5V1576.7z
				 M1262.9,1573.6h-0.5v-2h0.5V1573.6z M804.5,1572.7H804v-2h0.5V1572.7z M1262.9,1569.6h-0.5v-2h0.5V1569.6z M804.5,1568.7H804v-2
				h0.5V1568.7z M1262.9,1565.6h-0.5v-2h0.5V1565.6z M804.5,1564.7H804v-2h0.5V1564.7z M1262.9,1561.6h-0.5v-2h0.5V1561.6z
				 M804.5,1560.7H804v-2h0.5V1560.7z M1262.9,1557.6h-0.5v-2h0.5V1557.6z M804.5,1556.6H804v-2h0.5V1556.6z M1262.9,1553.6h-0.5v-2
				h0.5V1553.6z M804.5,1552.6H804v-2h0.5V1552.6z M1262.9,1549.6h-0.5v-2h0.5V1549.6z M804.5,1548.6H804v-2h0.5V1548.6z
				 M1262.9,1545.6h-0.5v-2h0.5V1545.6z M804.5,1544.6H804v-2h0.5V1544.6z M1262.9,1541.6h-0.5v-2h0.5V1541.6z M804.5,1540.6H804v-2
				h0.5V1540.6z M1262.9,1537.6h-0.5v-2h0.5V1537.6z M804.5,1536.6H804v-2h0.5V1536.6z M1262.9,1533.6h-0.5v-2h0.5V1533.6z
				 M804.5,1532.6H804v-2h0.5V1532.6z M1262.9,1529.6h-0.5v-2h0.5V1529.6z M804.5,1528.6H804v-2h0.5V1528.6z M1262.9,1525.6h-0.5v-2
				h0.5V1525.6z M804.5,1524.6H804v-2h0.5V1524.6z M1262.9,1521.6h-0.5v-2h0.5V1521.6z M804.5,1520.6H804v-2h0.5V1520.6z
				 M1262.9,1517.6h-0.5v-2h0.5V1517.6z M804.5,1516.6H804v-2h0.5V1516.6z M1262.9,1513.6h-0.5v-2h0.5V1513.6z M804.5,1512.6H804v-2
				h0.5V1512.6z M1262.9,1509.6h-0.5v-2h0.5V1509.6z M804.5,1508.6H804v-2h0.5V1508.6z M1262.9,1505.6h-0.5v-2h0.5V1505.6z
				 M804.5,1504.6H804v-2h0.5V1504.6z M1262.9,1501.6h-0.5v-2h0.5V1501.6z M804.5,1500.6H804v-2h0.5V1500.6z M1262.9,1497.6h-0.5v-2
				h0.5V1497.6z M804.5,1496.6H804v-2h0.5V1496.6z M1262.9,1493.6h-0.5v-2h0.5V1493.6z M804.5,1492.6H804v-2h0.5V1492.6z
				 M1262.9,1489.6h-0.5v-2h0.5V1489.6z M804.5,1488.6H804v-2h0.5V1488.6z M1262.9,1485.6h-0.5v-2h0.5V1485.6z M804.5,1484.6H804v-2
				h0.5V1484.6z M1262.9,1481.6h-0.5v-2h0.5V1481.6z M804.5,1480.6H804v-2h0.5V1480.6z M1262.9,1477.6h-0.5v-2h0.5V1477.6z
				 M804.5,1476.6H804v-2h0.5V1476.6z M1262.9,1473.6h-0.5v-2h0.5V1473.6z M804.5,1472.6H804v-2h0.5V1472.6z M1262.9,1469.6h-0.5v-2
				h0.5V1469.6z M804.5,1468.6H804v-2h0.5V1468.6z M1262.9,1465.6h-0.5v-2h0.5V1465.6z M804.5,1464.6H804v-2h0.5V1464.6z
				 M1262.9,1461.6h-0.5v-2h0.5V1461.6z M804.5,1460.6H804v-2h0.5V1460.6z M1262.9,1457.6h-0.5v-2h0.5V1457.6z M804.5,1456.6H804v-2
				h0.5V1456.6z M1262.9,1453.6h-0.5v-2h0.5V1453.6z M804.5,1452.6H804v-2h0.5V1452.6z M1262.9,1449.6h-0.5v-2h0.5V1449.6z
				 M804.5,1448.6H804v-2h0.5V1448.6z M1262.9,1445.6h-0.5v-2h0.5V1445.6z M804.5,1444.6H804v-2h0.5V1444.6z M1262.9,1441.6h-0.5v-2
				h0.5V1441.6z M804.5,1440.6H804v-2h0.5V1440.6z M1262.9,1437.6h-0.5v-2h0.5V1437.6z M804.5,1436.6H804v-2h0.5V1436.6z
				 M1262.9,1433.6h-0.5v-2h0.5V1433.6z M804.5,1432.6H804v-2h0.5V1432.6z M1262.9,1429.6h-0.5v-2h0.5V1429.6z M804.5,1428.6H804v-2
				h0.5V1428.6z M1262.9,1425.6h-0.5v-2h0.5V1425.6z M804.5,1424.6H804v-2h0.5V1424.6z M1262.9,1421.6h-0.5v-2h0.5V1421.6z
				 M804.5,1420.6H804v-2h0.5V1420.6z M1262.9,1417.6h-0.5v-2h0.5V1417.6z M804.5,1416.6H804v-2h0.5V1416.6z M1262.9,1413.6h-0.5v-2
				h0.5V1413.6z M804.5,1412.6H804v-2h0.5V1412.6z M1262.9,1409.5h-0.5v-2h0.5V1409.5z M804.5,1408.6H804v-2h0.5V1408.6z
				 M1262.9,1405.5h-0.5v-2h0.5V1405.5z M804.5,1404.6H804v-2h0.5V1404.6z M1262.9,1401.5h-0.5v-2h0.5V1401.5z M804.5,1400.6H804v-2
				h0.5V1400.6z M1262.9,1397.5h-0.5v-2h0.5V1397.5z M804.5,1396.6H804v-2h0.5V1396.6z M1262.9,1393.5h-0.5v-2h0.5V1393.5z
				 M804.5,1392.5H804v-2h0.5V1392.5z M1262.9,1389.5h-0.5v-2h0.5V1389.5z M804.5,1388.5H804v-2h0.5V1388.5z M1262.9,1385.5h-0.5v-2
				h0.5V1385.5z M804.5,1384.5H804v-2h0.5V1384.5z M1262.9,1381.5h-0.5v-2h0.5V1381.5z M804.5,1380.5H804v-2h0.5V1380.5z
				 M1262.9,1377.5h-0.5v-2h0.5V1377.5z M804.5,1376.5H804v-2h0.5V1376.5z M1262.9,1373.5h-0.5v-2h0.5V1373.5z M804.5,1372.5H804v-2
				h0.5V1372.5z M1262.9,1369.5h-0.5v-2h0.5V1369.5z M804.5,1368.5H804v-2h0.5V1368.5z M1262.9,1365.5h-0.5v-2h0.5V1365.5z
				 M804.5,1364.5H804v-2h0.5V1364.5z M1262.9,1361.5h-0.5v-2h0.5V1361.5z M804.5,1360.5H804v-2h0.5V1360.5z M1262.9,1357.5h-0.5v-2
				h0.5V1357.5z M804.5,1356.5H804v-2h0.5V1356.5z M1262.9,1353.5h-0.5v-2h0.5V1353.5z M804.5,1352.5H804v-2h0.5V1352.5z
				 M1262.9,1349.5h-0.5v-2h0.5V1349.5z M804.5,1348.5H804v-2h0.5V1348.5z M1262.9,1345.5h-0.5v-2h0.5V1345.5z M804.5,1344.5H804v-2
				h0.5V1344.5z M1262.9,1341.5h-0.5v-2h0.5V1341.5z M804.5,1340.5H804v-2h0.5V1340.5z M1262.9,1337.5h-0.5v-2h0.5V1337.5z
				 M804.5,1336.5H804v-2h0.5V1336.5z M1262.9,1333.5h-0.5v-2h0.5V1333.5z M804.5,1332.5H804v-2h0.5V1332.5z M1262.9,1329.5h-0.5v-2
				h0.5V1329.5z M804.5,1328.5H804v-2h0.5V1328.5z M1262.9,1325.5h-0.5v-2h0.5V1325.5z M804.5,1324.5H804v-2h0.5V1324.5z
				 M1262.9,1321.5h-0.5v-2h0.5V1321.5z M804.5,1320.5H804v-2h0.5V1320.5z M1262.9,1317.5h-0.5v-2h0.5V1317.5z M804.5,1316.5H804v-2
				h0.5V1316.5z M1262.9,1313.5h-0.5v-2h0.5V1313.5z M804.5,1312.5H804v-2h0.5V1312.5z M1262.9,1309.5h-0.5v-2h0.5V1309.5z
				 M804.5,1308.5H804v-2h0.5V1308.5z M1262.9,1305.5h-0.5v-1.3c0-0.2,0-0.5,0-0.7l0.5,0c0,0.2,0,0.5,0,0.7V1305.5z M804.5,1304.5
				H804v-0.3c0-0.6,0-1.2,0.1-1.7l0.5,0c0,0.6-0.1,1.1-0.1,1.7V1304.5z M1262.2,1301.5c-0.1-0.6-0.2-1.3-0.4-1.9l0.5-0.1
				c0.2,0.7,0.3,1.3,0.4,2L1262.2,1301.5z M804.8,1300.6l-0.5-0.1c0.1-0.7,0.3-1.3,0.5-2l0.5,0.1
				C805.1,1299.3,805,1299.9,804.8,1300.6z M1261.3,1297.7c-0.2-0.6-0.5-1.2-0.8-1.8l0.5-0.2c0.3,0.6,0.6,1.2,0.8,1.9L1261.3,1297.7
				z M806,1296.8l-0.5-0.2c0.3-0.6,0.5-1.2,0.9-1.8l0.4,0.2C806.5,1295.6,806.2,1296.2,806,1296.8z M1259.6,1294.1
				c-0.3-0.6-0.7-1.1-1.1-1.6l0.4-0.3c0.4,0.5,0.8,1.1,1.1,1.7L1259.6,1294.1z M807.8,1293.3l-0.4-0.3c0.4-0.6,0.8-1.1,1.2-1.6
				l0.4,0.3C808.6,1292.2,808.2,1292.8,807.8,1293.3z M1257.2,1291c-0.4-0.5-0.9-0.9-1.4-1.4l0.3-0.4c0.5,0.4,1,0.9,1.5,1.4
				L1257.2,1291z M810.4,1290.3l-0.3-0.4c0.5-0.5,1-0.9,1.5-1.3l0.3,0.4C811.4,1289.4,810.9,1289.8,810.4,1290.3z M1254.2,1288.4
				c-0.5-0.4-1.1-0.7-1.7-1.1l0.2-0.4c0.6,0.3,1.2,0.7,1.7,1.1L1254.2,1288.4z M813.5,1287.9l-0.3-0.4c0.6-0.4,1.2-0.7,1.8-1
				l0.2,0.4C814.6,1287.2,814,1287.5,813.5,1287.9z M1250.8,1286.5c-0.6-0.3-1.2-0.5-1.8-0.7l0.2-0.5c0.6,0.2,1.3,0.4,1.9,0.7
				L1250.8,1286.5z M817,1286.1l-0.2-0.5c0.6-0.2,1.3-0.4,1.9-0.6l0.1,0.5C818.3,1285.7,817.6,1285.9,817,1286.1z M1247,1285.3
				c-0.6-0.1-1.3-0.2-1.9-0.3l0.1-0.5c0.7,0.1,1.3,0.2,2,0.3L1247,1285.3z M820.8,1285.1l-0.1-0.5c0.7-0.1,1.3-0.2,2-0.2l0,0.5
				C822.1,1284.9,821.5,1285,820.8,1285.1z M1243.1,1284.8l-2.1,0v-0.5l2.1,0V1284.8z M1239,1284.8h-2v-0.5h2V1284.8z M1235,1284.8
				h-2v-0.5h2V1284.8z M1231,1284.8h-2v-0.5h2V1284.8z M1227,1284.8h-2v-0.5h2V1284.8z M1223,1284.8h-2v-0.5h2V1284.8z M1219,1284.8
				h-2v-0.5h2V1284.8z M1215,1284.8h-2v-0.5h2V1284.8z M1211,1284.8h-2v-0.5h2V1284.8z M1207,1284.8h-2v-0.5h2V1284.8z M1203,1284.8
				h-2v-0.5h2V1284.8z M1199,1284.8h-2v-0.5h2V1284.8z M1195,1284.8h-2v-0.5h2V1284.8z M1191,1284.8h-2v-0.5h2V1284.8z M1187,1284.8
				h-2v-0.5h2V1284.8z M1183,1284.8h-2v-0.5h2V1284.8z M1179,1284.8h-2v-0.5h2V1284.8z M1175,1284.8h-2v-0.5h2V1284.8z M1171,1284.8
				h-2v-0.5h2V1284.8z M1167,1284.8h-2v-0.5h2V1284.8z M1163,1284.8h-2v-0.5h2V1284.8z M1159,1284.8h-2v-0.5h2V1284.8z M1155,1284.8
				h-2v-0.5h2V1284.8z M1151,1284.8h-2v-0.5h2V1284.8z M1147,1284.8h-2v-0.5h2V1284.8z M1143,1284.8h-2v-0.5h2V1284.8z M1139,1284.8
				h-2v-0.5h2V1284.8z M1135,1284.8h-2v-0.5h2V1284.8z M1131,1284.8h-2v-0.5h2V1284.8z M1127,1284.8h-2v-0.5h2V1284.8z M1123,1284.8
				h-2v-0.5h2V1284.8z M1119,1284.8h-2v-0.5h2V1284.8z M1115,1284.8h-2v-0.5h2V1284.8z M1110.9,1284.8h-2v-0.5h2V1284.8z
				 M1106.9,1284.8h-2v-0.5h2V1284.8z M1102.9,1284.8h-2v-0.5h2V1284.8z M1098.9,1284.8h-2v-0.5h2V1284.8z M1094.9,1284.8h-2v-0.5h2
				V1284.8z M1090.9,1284.8h-2v-0.5h2V1284.8z M1086.9,1284.8h-2v-0.5h2V1284.8z M1082.9,1284.8h-2v-0.5h2V1284.8z M1078.9,1284.8
				h-2v-0.5h2V1284.8z M1074.9,1284.8h-2v-0.5h2V1284.8z M1070.9,1284.8h-2v-0.5h2V1284.8z M1066.9,1284.8h-2v-0.5h2V1284.8z
				 M1062.9,1284.8h-2v-0.5h2V1284.8z M1058.9,1284.8h-2v-0.5h2V1284.8z M1054.9,1284.8h-2v-0.5h2V1284.8z M1050.9,1284.8h-2v-0.5h2
				V1284.8z M1046.9,1284.8h-2v-0.5h2V1284.8z M1042.9,1284.8h-2v-0.5h2V1284.8z M1038.9,1284.8h-2v-0.5h2V1284.8z M1034.9,1284.8
				h-2v-0.5h2V1284.8z M1030.9,1284.8h-2v-0.5h2V1284.8z M1026.9,1284.8h-2v-0.5h2V1284.8z M1022.9,1284.8h-2v-0.5h2V1284.8z
				 M1018.9,1284.8h-2v-0.5h2V1284.8z M1014.9,1284.8h-2v-0.5h2V1284.8z M1010.9,1284.8h-2v-0.5h2V1284.8z M1006.9,1284.8h-2v-0.5h2
				V1284.8z M1002.9,1284.8h-2v-0.5h2V1284.8z M998.9,1284.8h-2v-0.5h2V1284.8z M994.9,1284.8h-2v-0.5h2V1284.8z M990.9,1284.8h-2
				v-0.5h2V1284.8z M986.9,1284.8h-2v-0.5h2V1284.8z M982.9,1284.8h-2v-0.5h2V1284.8z M978.9,1284.8h-2v-0.5h2V1284.8z
				 M974.9,1284.8h-2v-0.5h2V1284.8z M970.9,1284.8h-2v-0.5h2V1284.8z M966.9,1284.8h-2v-0.5h2V1284.8z M962.9,1284.8h-2v-0.5h2
				V1284.8z M958.9,1284.8h-2v-0.5h2V1284.8z M954.9,1284.8h-2v-0.5h2V1284.8z M950.8,1284.8h-2v-0.5h2V1284.8z M946.8,1284.8h-2
				v-0.5h2V1284.8z M942.8,1284.8h-2v-0.5h2V1284.8z M938.8,1284.8h-2v-0.5h2V1284.8z M934.8,1284.8h-2v-0.5h2V1284.8z
				 M930.8,1284.8h-2v-0.5h2V1284.8z M926.8,1284.8h-2v-0.5h2V1284.8z M922.8,1284.8h-2v-0.5h2V1284.8z M918.8,1284.8h-2v-0.5h2
				V1284.8z M914.8,1284.8h-2v-0.5h2V1284.8z M910.8,1284.8h-2v-0.5h2V1284.8z M906.8,1284.8h-2v-0.5h2V1284.8z M902.8,1284.8h-2
				v-0.5h2V1284.8z M898.8,1284.8h-2v-0.5h2V1284.8z M894.8,1284.8h-2v-0.5h2V1284.8z M890.8,1284.8h-2v-0.5h2V1284.8z
				 M886.8,1284.8h-2v-0.5h2V1284.8z M882.8,1284.8h-2v-0.5h2V1284.8z M878.8,1284.8h-2v-0.5h2V1284.8z M874.8,1284.8h-2v-0.5h2
				V1284.8z M870.8,1284.8h-2v-0.5h2V1284.8z M866.8,1284.8h-2v-0.5h2V1284.8z M862.8,1284.8h-2v-0.5h2V1284.8z M858.8,1284.8h-2
				v-0.5h2V1284.8z M854.8,1284.8h-2v-0.5h2V1284.8z M850.8,1284.8h-2v-0.5h2V1284.8z M846.8,1284.8h-2v-0.5h2V1284.8z
				 M842.8,1284.8h-2v-0.5h2V1284.8z M838.8,1284.8h-2v-0.5h2V1284.8z M834.8,1284.8h-2v-0.5h2V1284.8z M830.8,1284.8h-2v-0.5h2
				V1284.8z M826.8,1284.8h-2v-0.5h2V1284.8z"/>
		</g>
		<path class="st62" d="M1206.3,1554.8H840.2c-11.5,0-20.7-9.3-20.7-20.7v-211.6c0-11.5,9.3-20.7,20.7-20.7h366.1
			c11.5,0,20.7,9.3,20.7,20.7v211.6C1227.1,1545.5,1217.8,1554.8,1206.3,1554.8z"/>
		<rect x="803.9" y="1351" class="st60" width="452.1" height="223.9"/>
		<linearGradient id="SVGID_18_" gradientUnits="userSpaceOnUse" x1="819.4414" y1="1484.5205" x2="1227.0664" y2="1484.5205">
			<stop  offset="0" style="stop-color:#40D5E6"/>
			<stop  offset="1" style="stop-color:#5577FF"/>
		</linearGradient>
		<path class="st63" d="M1207.9,1592.1H838.6c-10.6,0-19.1-8.6-19.1-19.1v-176.8c0-10.6,8.6-19.1,19.1-19.1h369.4
			c10.6,0,19.1,8.6,19.1,19.1v176.8C1227.1,1583.5,1218.5,1592.1,1207.9,1592.1z"/>
		<rect x="808.9" y="1426.2" class="st60" width="447.1" height="185.3"/>
		<path class="st64" d="M831.7,1452.1c0,0-1.3-3.1-1.2-4.7c0,0,0.4-3,0.6-5.1c0.1-0.7,0.1-1.3,0.1-1.6c-0.1-1.6-0.7-5.1,0.1-9
			c0.9-3.9,5.4-17.3,5.4-17.3l12.1,1.8l10.5-1.4c0,0,7.8,22.9,7.4,26.6c0,0.4-0.1,0.7-0.2,1.1c-0.6,3.1-2.4,5.2-2.9,6.7
			c-0.2,0.6-2.5,6.3-4.3,6.8c-2.4,0.8-4.4,0.3-5.8-0.8c0,0-4.8,1.3-7.9-0.1c0,0-4.4,1.3-7.7-1.5
			C838,1453.5,833.3,1454.4,831.7,1452.1z"/>
		<path class="st59" d="M884.6,1206.2c4.1,1.6,8.4,11.5,5.2,30.9c-3.5,20.9-10.3,29.8-13.1,34.6c-2.8,4.9-19.9,37.4-19.8,42.2
			c0.2,12.5-0.1,45.6,0.3,48.1c0.7,4.3,3.5,54.1,3.5,54.1l-26.9,6.4c0,0-4.8-56.1-7.1-73.1c-0.9-6.8-3-25.5-0.6-44.1
			c2.3-18,15.3-57.6,17-60.8C844.7,1241.4,857.5,1195.7,884.6,1206.2z"/>
	</g>
	<g>
		<g>
			<g>
				<g>
					<path class="st65" d="M1924.7,975.9c0,0-23.3,11.4-17.5,42.4c5.8,31,8.3,35.2,1.9,47.3c-6.4,12.1-14,63.8-8.2,73.6
						c5.8,9.8,71.8-43,80.9-87.3c9.1-44.3-5.8-64-11.1-71.4C1965.3,973,1945.2,965.4,1924.7,975.9z"/>
				</g>
			</g>
		</g>
		<g>
			<path class="st52" d="M1918.2,1087.8c0,0-11.9,2.4-18.5,12.2c-4.6,6.8-5,22-5.7,24.8c-0.7,2.9-9.5,35.1-9.5,35.1l24.7,16.5
				L1918.2,1087.8z"/>
		</g>
		<g>
			<path class="st66" d="M1827,1639.6c0,0-16.1,21.7-13.9,25.1c2.2,3.4,19.2,3.9,29.5,0s10.6-29.4,15.2-40.3
				c2-4.6-2.2-18.1-8.1-19.1c-5.9-1-12.3,1.9-12.3,1.9S1843.5,1622.7,1827,1639.6z"/>
		</g>
		<g>
			<g>
				<path class="st41" d="M1837.3,1607.2c0,0-3.4,9.2-4.6,18.1c-1,7.3-11.5,22.8-11,24.8c0.5,2,13.8,3.7,19.2-1.3
					c5.4-5.1,8.9-19.8,10.1-28.6c1.1-8.2,2.5-12.3,2.5-12.3S1842.4,1601.8,1837.3,1607.2z"/>
			</g>
		</g>
		<g>
			<path class="st66" d="M1967.2,1640c0,0-15.5,21.3-13.3,24.8s19.2,3.9,29.5,0c10.3-3.9,10.6-29.4,15.2-40.3
				c2-4.6-2.2-18.1-8.1-19.1c-5.9-1-12.8,2.1-12.8,2.1S1983.8,1623.1,1967.2,1640z"/>
		</g>
		<g>
			<g>
				<path class="st41" d="M1977.7,1607.5c0,0-1.2,10.1-3.2,17.2c-2,7.1-12.5,23.3-12,25.3c0.5,2,13.8,3.7,19.2-1.3
					c5.4-5.1,9.6-19.7,10.1-28.6c0.5-8.9-1.2-14.7-1.2-14.7S1982.9,1602.1,1977.7,1607.5z"/>
			</g>
		</g>
		<g>
			<g>
				<path class="st41" d="M1900.1,1254.4c0,0-13.8,64.3-17,80.5s-12.1,94.6-13,108c-1,13.3-14.4,63.6-13.8,68.4s-20,100.5-20,100.5
					s7,5.7,14.5,0.5c3.8-2.7,45.2-89.6,45.2-113.4c0-32.9,24.3-75.9,27.5-83.3c29.2-68.4,23.4-89.3,27.2-93.8s4.1,2.7,6.4,12.6
					c2.2,9.8,7,95,9.8,105.8c2.9,10.8,0.6,47.3,2.2,65.7s8.6,101.7,8.6,101.7s5.4,8.5,13,0.2c1.6-1.8,13.1-92.8,13.4-114.7
					c0.3-21.9,0.7-52.1,1.3-61.6c5.9-90.8,20.3-103.8-2.4-168C1960.3,1143.1,1900.1,1254.4,1900.1,1254.4z"/>
			</g>
		</g>
		<g>
			<path class="st67" d="M1993,1236.4c0,0,39.4,55.1,22.4,172.4c0,0-93.4,12.7-143.5-14.7c0,0,20.7-120.9,28.2-139.7
				C1907.6,1235.5,1993,1236.4,1993,1236.4z"/>
		</g>
		<g>
			<polygon class="st66" points="1858.2,1622.6 1858.2,1645.3 1855.3,1645.3 1855.3,1627.7 			"/>
		</g>
		<g>
			<polygon class="st66" points="1999,1622.6 1999,1645.3 1996.1,1645.3 1996.1,1627.7 			"/>
		</g>
		<g>
			<path class="st8" d="M1940.1,1079.7c0,0-14.5,6.9-19.6,7.9s-24.6,26.4-28,35.7s0,23.2,7.1,39.5c7.1,16.3,0.4,21.8,3.6,38.1
				c3.2,16.3,6,50.9,5.4,60c-0.6,9.1,81.5,10.8,100.3-5.7c0,0-18.8-28.2-21.3-32.3c-2.4-4-0.4-26,1.8-31.6c2.2-5.6,17-53.6,17-53.6
				s12.1-36.9,1.2-45.3c-9.5-7.4-35.3-10-39.9-11.6C1963.1,1079,1949.6,1078.3,1940.1,1079.7z"/>
		</g>
		<g>
			<path class="st68" d="M1935.5,1112.1l-8.8-10.3l7.7-27.2C1934.3,1074.6,1936.9,1089.7,1935.5,1112.1z"/>
		</g>
		<g>
			<path class="st41" d="M1933.2,1063c0,0,0.4,3.6,0.9,8.7c0.2,2.2,0.4,4.7,0.6,7.3c0.6,7.3,1.1,15.3,0.8,19.3
				c0,0,15.1,15.1,32.2-17.6c0,0-7.2-13.5-1.8-31.9C1971.4,1030.3,1933.2,1063,1933.2,1063z"/>
		</g>
		<g>
			<polygon class="st41" points="1935.5,1098.3 1935.5,1112.1 1952.8,1099.1 			"/>
		</g>
		<g>
			<polygon class="st68" points="1935.5,1112.1 1942.7,1103.2 1967,1079 1974.8,1086.5 			"/>
		</g>
		<g>
			<path class="st52" d="M1970.3,1081.3c0,0-20.4,30.9-21.3,44.5c-1,13.6,7.6,115.4,14.4,148.1c6.8,32.7,56.3-3.7,56.3-3.7
				s-33.2-53.8-20.5-96.8c12.8-43.1,17.4-60.3,17.4-60.3s-4.4-24-19.9-27.3C1983,1082.8,1970.3,1081.3,1970.3,1081.3z"/>
		</g>
		<g>
			<path class="st52" d="M1891.2,1127.4c0,0-3.7,13,10.6,41.7c0,0-0.2,36.8-0.6,48.3c-0.4,11.5-8.5,52.8-8.5,52.8l19.6,10.4
				c2.9,1.7,6.4-0.6,6-3.9c-4-33.1-17.1-158.5,11.1-192.2l-11.3,3.3C1918,1087.8,1898,1104.3,1891.2,1127.4z"/>
		</g>
		<g>
			<polygon class="st69" points="1926.7,1101.7 1915.5,1104.8 1934.3,1074.6 			"/>
		</g>
		<g>
			<polygon class="st69" points="1942.7,1103.2 1952.8,1116.5 1973.7,1081.7 1966.4,1077.6 			"/>
		</g>
		
			<rect x="1891.3" y="1171" transform="matrix(0.6205 -0.7842 0.7842 0.6205 -193.7639 1945.292)" class="st39" width="43.5" height="3.7"/>
		<path class="st41" d="M1929.7,1187.2c0,0-2.6,0-4.3-1.2c-2.9-2.2-4-7.6-9.1-7.2c-5.2,0.4-7.6,16.6-6.3,19.6s8.5,4.6,19.1,2.5
			C1939.6,1198.7,1929.7,1187.2,1929.7,1187.2z"/>
		<path class="st41" d="M1918,1178.8c0,0-7.4-2.5-16-4.4c-7.5-1.6-16.5-2.2-17.4-0.9c-1,1.5,7.3,2.7,14.7,4.8
			c6.8,1.9,5.2,2.6,5.2,2.6s0.4-0.2-7.3-1c-8.3-0.8-16.9-0.8-17.7,0.9c-0.4,0.8-0.1,1.4,2.9,2.1c-1.8-0.1-2.1,0.4-2.1,1.1
			c-0.4,3.7,11.8,6.7,16.6,7.9c-3.7-0.9-6.5-1.2-5.2,1.4c1.5,2.9,18.8,6.3,25,8.2C1923.3,1203.6,1918,1178.8,1918,1178.8z"/>
		<path class="st52" d="M1993.8,1086.3c5.1-1.7,20.1,3.7,22.6,19c2.5,15.4,3.5,32.4,5.9,40.7s8.4,44.9,3.3,48s-14.7,5.8-28.1,5.8
			c-13.9,0-67.8,2.4-67.8,2.4l-3.4-19.1c0,0,20.5-1.1,31.1-2.7c9.4-1.4,22.5-5.4,37.9-7.1c0,0-3.3-22.7-5.6-29.1
			S1970.8,1093.7,1993.8,1086.3z"/>
		<g>
			<polygon class="st12" points="1924.9,1216.7 1870.7,1205.9 1830.4,1119.8 1888.3,1125.9 			"/>
		</g>
		<g>
			<g>
				<path class="st41" d="M1863.9,1191.3c0,0-3-2.8-5.6-6.6c-2.7-3.9-11.3-18.6-10.5-19.6s13.7-1.2,16,0.9c2.3,2.1-2.3,2.9-2.3,2.9
					s7,0.7,6.5,2.7c-0.5,2-4.7,1.4-4.7,1.4s5.7,1.1,4.8,2.8c-0.9,1.7-3.6,1.7-3.6,1.7s5,0.6,4.4,2.5c-0.6,1.9-8.6,3.7-7.5,5.3
					C1862.4,1187,1863.9,1191.3,1863.9,1191.3z"/>
			</g>
		</g>
		<g>
			<g>
				<g>
					<path class="st70" d="M1928,979.3c0,0-33.8,10.6-15.5,69c18.4,58.4,64.5-6.8,59.7-42.3C1967.5,970.4,1928,979.3,1928,979.3z"/>
				</g>
			</g>
		</g>
		<g>
			<g>
				<g>
					<path class="st65" d="M1909.1,1013.4c0,0,16.8,16.5,44.9,18.5c0,0,10.8,12.7,11.6,17.6c0,0,25.1-42.8-5.8-68.4
						C1929.1,955.5,1897.8,1002.8,1909.1,1013.4z"/>
				</g>
			</g>
		</g>
		<g>
			<g>
				<g>
					<path class="st70" d="M1953.7,1033.1c0.2-4.2,2.8-13.9,9.1-11.2c6.3,2.7-0.4,22.4-4.6,21.2
						C1958.3,1043.1,1953.2,1043.1,1953.7,1033.1z"/>
				</g>
			</g>
		</g>
		<path class="st42" d="M1934,1071.6c0.2,2.2,0.4,4.7,0.6,7.3h0c19.6-9.7,22.5-23.6,22.6-24C1943.4,1073,1934,1071.6,1934,1071.6z"
			/>
	</g>
</g>
</svg>
