<?xml version="1.0" encoding="utf-8"?>
<!-- Generator: Adobe Illustrator 24.3.0, SVG Export Plug-In . SVG Version: 6.00 Build 0)  -->
<svg version="1.1" xmlns="http://www.w3.org/2000/svg" xmlns:xlink="http://www.w3.org/1999/xlink" x="0px" y="0px"
	 viewBox="0 0 1100 800" style="enable-background:new 0 0 1100 800;" xml:space="preserve">
<style type="text/css">
	.st0{fill:#FFFFFF;}
	.st1{opacity:0.12;}
	.st2{fill:#606060;}
	.st3{fill:#283175;}
	.st4{fill:#2F3789;}
	.st5{fill:#2B2B2B;}
	.st6{fill:#1D2B56;}
	.st7{opacity:0.1;}
	.st8{fill:#8CABEF;}
	.st9{fill:#C4C2C2;}
	.st10{fill:#F5F5F5;}
	.st11{fill:#587BC9;}
	.st12{fill:#D67086;}
	.st13{fill:#305399;}
	.st14{fill:#EBECEC;}
	.st15{fill:#C5C6C7;}
	.st16{fill:#9B9C9D;}
	.st17{fill:#CC937A;}
	.st18{fill:#EACFC1;}
	.st19{fill:#DBDBDB;}
	.st20{opacity:7.000000e-02;}
	.st21{opacity:0.15;}
	.st22{fill:#5966D8;}
	.st23{fill:#D4B99F;}
	.st24{fill:#DFDBE9;}
</style>
<g id="Bg">
	<g>
		<g>
			<rect x="0" y="0" class="st0" width="1100" height="800"/>
		</g>
	</g>
</g>
<g id="Shadow">
	<g class="st1">
		<path class="st2" d="M951.1,615.1H198.2c-23.8,0-43.3,11.8-43.3,26.2c0,10,9.3,18.7,23,23.1h-66.3c-23.8,0-43.3,11.8-43.3,26.2
			c0,14.4,19.5,26.2,43.3,26.2h23.1c-6.5,4.6-10.4,10.5-10.4,17v10.5c0,14.4,19.5,26.2,43.3,26.2c0,0,741.2,0,741.7,0
			c11.2,0,23.5-2.5,32.8-9.3c10.5-7.8,14.5-22.5,8.9-34.5c-0.5-1.2-1.2-2.3-1.9-3.3c-8.2-11.4-24.5-15.4-37.7-15.8c-0.7,0-1.4,0-2,0
			l-11.3,0.6c3.8,0,10.1-1.8,14.3-5.5c11.4-10.1,6-35.5-11.2-35.5l50,0.4c23.8,0,43.3-11.8,43.3-26.2S974.9,615.1,951.1,615.1z"/>
	</g>
</g>
<g id="Object">
	<g>
		<g>
			<polygon class="st3" points="204.8,250.8 275.4,259.4 289.5,176.9 308.7,176.9 302,284 275.4,294.2 225.7,291.4 			"/>
		</g>
		<g>
			<g>
				<polygon class="st4" points="270,434 275.3,537.2 258,679 237.1,677.9 231.6,540.7 205.3,425.3 				"/>
			</g>
			<g>
				<polygon class="st4" points="220.1,413.6 195.2,544.4 159.9,679.7 140.5,676.6 147.6,541.1 140.9,414.5 				"/>
			</g>
			<g>
				<g>
					<path class="st4" d="M127.3,444c0.3,12.2,1.4,28.7,5.6,29.1c0.8,0.1,1.5-0.4,2.2-0.8c7-4.7,11.9-11.2,18.9-15.8
						c7.3-4.8,15.7-7.6,24.1-9.6c12.4-3.1,25.2-5.3,38-6.1c10-0.6,20.2-0.1,30.2,0.4c8.4,0.4,16.2,2.8,24.7,1.8
						c8.7-1.1,17.1-4.4,24.3-9.9c0.3-0.2,0.5-0.4,0.6-0.8c0.1-0.4,0-0.8-0.2-1.1c-2-5.4-3.5-10.7-7-15.1c-3.8-4.9-6.7-11.2-9.5-16.8
						c-5.9-11.7-11.6-24.1-16-36.6c-6.5-17.1-13.8-33.7-20.1-50.8c-4.4-11.9-8.4-24-14.1-35.2c-4.5-8.8-12.3-21.5-21.2-25.1
						c-3-1.2-6.3-1.2-9.5-1.1c-9.7,0.1-19.4,0.2-29.1,0.3c-3.5,0-7.2,0.1-10.4,1.9c-4.7,2.7-7.2,8.5-9.3,13.9
						c-9.7,24.2-15.4,50.1-18,76.7c-1.4,13.9-2.6,27.8-3.5,41.7c-0.9,15.5-1.3,31.1-0.9,46.7C127.2,433.3,127.1,438.2,127.3,444z"/>
				</g>
			</g>
			<g>
				<g>
					<path class="st0" d="M185.9,303.7c0.7,5.5,0.1,11-0.5,16.5c-3.3,33.4-8.6,94.4-11.9,127.7c26-1.4,55.8-4.3,81.8-5.7
						c-1.5-12.4-4.8-50.8-6.3-63.2c-1-7.9-1.9-15.9-3.9-23.7c-3.3-12.5-9.2-24.1-15.1-35.7c-10.9-21.3-21.9-42.6-32.8-63.9
						c-0.6-1.1-1.2-2.3-2.2-3.1c-1.2-1-2.8-1.2-4.4-1.4c-7.5-1-15.9-1.7-23.4-0.3c-1.6,6.9,5.7,19.2,8.5,25.4
						C179.8,285.5,184.9,296.4,185.9,303.7z"/>
				</g>
			</g>
			<g>
				<polygon class="st5" points="255.4,678.6 268.9,686.2 267.1,694.3 237.6,691 238.2,678 				"/>
			</g>
			<g>
				<polygon class="st5" points="155.8,678.9 165.9,691 160.8,698.1 137.1,686 141.1,676.4 				"/>
			</g>
		</g>
		<g>
			<g>
				<g>
					<path class="st6" d="M759.8,365.8L325.6,499.1c-9,2.8-18.6-2.4-21.4-11.5l-83.4-271.8c-2.8-9.1,2.3-18.7,11.3-21.5L666.3,61
						c9-2.8,18.6,2.4,21.4,11.5l83.4,271.8C773.9,353.3,768.8,363,759.8,365.8z"/>
				</g>
			</g>
			<g>
				<g>
					<path class="st7" d="M326.1,493l426.7-131c9-2.8,14.1-12.4,11.3-21.5L716.7,186C640.2,346.3,425.5,451.3,326.1,493z"/>
				</g>
			</g>
			<g>
				<g>
					<path class="st8" d="M370,333.8l-77.9,23.9c-1,0.3-2.2-0.3-2.5-1.3L272.1,299c-0.3-1,0.3-2.2,1.3-2.5l77.9-23.9
						c1-0.3,2.2,0.3,2.5,1.3l17.6,57.4C371.7,332.3,371.1,333.4,370,333.8z"/>
				</g>
			</g>
			<g class="st7">
				<g>
					<path d="M368.6,322.2l-7.7-25c-14,25.2-47.6,45.7-68.7,56.7c2.6,1.5,5.8,2,8.9,1l59.9-18.4C367,334.7,370.4,328.2,368.6,322.2z
						"/>
				</g>
			</g>
			<g>
				<g>
					<g>
						
							<rect x="299.1" y="363.7" transform="matrix(0.956 -0.2934 0.2934 0.956 -96.0236 118.9468)" class="st9" width="98.8" height="31.6"/>
					</g>
				</g>
				<g>
					<g>
						
							<rect x="404.4" y="331.4" transform="matrix(0.956 -0.2934 0.2934 0.956 -81.9017 148.4337)" class="st9" width="98.8" height="31.6"/>
					</g>
				</g>
				<g>
					<g>
						
							<rect x="509.7" y="299.1" transform="matrix(0.956 -0.2934 0.2934 0.956 -67.7785 177.9176)" class="st9" width="98.8" height="31.6"/>
					</g>
				</g>
				<g>
					<g>
						
							<rect x="615.1" y="266.7" transform="matrix(0.956 -0.2934 0.2934 0.956 -53.6558 207.4026)" class="st9" width="98.8" height="31.6"/>
					</g>
				</g>
			</g>
			<g>
				<g>
					<path class="st10" d="M292.9,256.1c-2.1,4.2-6,7.4-10.5,8.8c-9.3,2.8-19.1-2.4-22-11.8c-2.9-9.3,2.4-19.2,11.6-22.1
						c4.4-1.4,9.5-0.9,13.6,1.4l-1.5,2.7c-4.1-2-7.8-2-11.1-1c-7.5,2.3-11.8,10.4-9.5,18.1c2.3,7.6,10.4,11.9,18,9.6
						c3.3-1,6.3-3.1,8.6-7.1L292.9,256.1z"/>
					<path class="st10" d="M277.3,266c-7.7,0-14.8-5-17.2-12.8c-1.4-4.6-1-9.5,1.3-13.7c2.2-4.3,6-7.4,10.6-8.8
						c4.6-1.4,9.8-0.9,13.8,1.4l0.3,0.2l-1.9,3.3l-0.3-0.2c-3.6-1.8-7.2-2.1-10.8-1c-3.6,1.1-6.5,3.5-8.3,6.9
						c-1.8,3.3-2.1,7.2-1,10.8c1.1,3.6,3.5,6.5,6.9,8.3c3.3,1.8,7.1,2.2,10.7,1.1c3.6-1.1,6.3-3.4,8.4-6.9l0.2-0.3l3.5,1.6l-0.2,0.3
						c-2.1,4.2-6.1,7.6-10.7,9C280.7,265.7,279,266,277.3,266z M277.2,230.6c-1.7,0-3.4,0.3-5.1,0.8c-4.4,1.3-8,4.3-10.1,8.4
						c-2.2,4.1-2.6,8.8-1.2,13.2c2.8,9.1,12.5,14.3,21.5,11.5c4.3-1.3,8.1-4.4,10.1-8.3l-2.2-1c-2.1,3.5-5,5.8-8.6,6.9
						c-3.7,1.1-7.7,0.8-11.2-1.1c-3.5-1.9-6.1-5-7.2-8.7c-1.2-3.8-0.8-7.8,1.1-11.3c1.8-3.5,4.9-6.1,8.7-7.2c3.7-1.1,7.4-0.8,11,0.9
						l1.2-2.1C282.7,231.3,280,230.6,277.2,230.6z"/>
				</g>
				<g>
					<path class="st10" d="M299.5,259.1l-10.1-32.9l9.8-3c5-1.5,10.4,1.3,11.9,6.4c1.2,3.9-0.3,8.3-3.7,10.6l12.1,12.8l-3.4,1.1
						l-11.7-12.4l-6.4,2l4.5,14.6L299.5,259.1z M297.1,240.5l6.8-2.1c3.3-1,5.2-4.6,4.2-7.9c-1-3.3-4.6-5.3-7.9-4.2l-6.8,2.1
						L297.1,240.5z"/>
					<path class="st10" d="M299.3,259.6L289,225.9l10.2-3.1c2.5-0.8,5.2-0.5,7.5,0.7c2.3,1.3,4.1,3.3,4.8,5.9
						c1.2,3.9-0.2,8.3-3.5,10.8l12.2,12.9l-4.2,1.3L304.3,242l-5.8,1.8l4.5,14.6L299.3,259.6z M289.8,226.4l9.9,32.3l2.4-0.7
						l-4.5-14.6l6.9-2.1l11.7,12.4l2.7-0.8l-12-12.6l0.3-0.2c3.2-2.2,4.7-6.5,3.5-10.2c-0.7-2.4-2.3-4.3-4.5-5.5
						c-2.2-1.2-4.7-1.4-7-0.7L289.8,226.4z M296.9,240.9l-3.9-12.8l7.1-2.2c1.7-0.5,3.5-0.3,5.1,0.5c1.6,0.9,2.8,2.3,3.3,4
						c0.5,1.7,0.3,3.5-0.5,5.1c-0.8,1.6-2.2,2.7-3.9,3.3L296.9,240.9z M293.8,228.6l3.5,11.5l6.4-2c1.5-0.5,2.8-1.5,3.5-2.9
						c0.8-1.4,0.9-3,0.4-4.6c-0.5-1.5-1.5-2.8-2.9-3.5c-1.4-0.8-3-0.9-4.6-0.5L293.8,228.6z"/>
				</g>
				<g>
					<path class="st10" d="M317.6,220.9l2.8,9.2l11.8-3.6l0.9,3.1l-11.8,3.6l4.4,14.5l13.5-4.1l0.9,3.1l-16.7,5.1l-10.1-33l16.7-5.1
						l0.9,3.1L317.6,220.9z"/>
					<path class="st10" d="M323.3,252.2L313,218.6l17.4-5.3l1.2,3.8l-13.5,4.1l2.6,8.5l11.8-3.6l1.2,3.8l-11.8,3.6l4.2,13.8
						l13.5-4.1l1.2,3.8L323.3,252.2z M313.9,219l9.9,32.3l16-4.9L339,244l-13.5,4.1l-4.7-15.2l11.8-3.6L332,227l-11.8,3.6l-3-9.9
						l13.5-4.1l-0.7-2.4L313.9,219z"/>
				</g>
				<g>
					<path class="st10" d="M345.9,244.9l-10.1-32.9l7.3-2.3c10.1-3.1,18.7,0.9,21.9,11.2c3.2,10.3-1.7,18.6-11.8,21.7L345.9,244.9z
						 M348,240.9l4.3-1.3c8.4-2.6,12.4-9.1,9.7-17.7c-2.7-8.7-9.5-11.6-17.9-9.1l-4.3,1.3L348,240.9z"/>
					<path class="st10" d="M345.7,245.3l-10.3-33.6l7.7-2.4c10.6-3.3,19.2,1.1,22.4,11.4c1.6,5.1,1.2,9.9-0.9,13.9
						c-2.2,3.9-6,6.8-11.1,8.3L345.7,245.3z M336.2,212.2l9.9,32.3l7-2.1c4.9-1.5,8.6-4.3,10.7-8c2.1-3.8,2.4-8.4,0.9-13.3
						c-3-9.9-11.3-14.1-21.5-11L336.2,212.2z M347.8,241.3l-8.4-27.5l4.6-1.4c4.3-1.3,8.2-1.2,11.4,0.3c3.3,1.6,5.7,4.7,7,9
						c2.7,8.7-1.1,15.5-9.9,18.2L347.8,241.3z M340.2,214.3l8,26.1l3.9-1.2c8.4-2.6,12-9.1,9.5-17.3c-1.3-4.1-3.5-7-6.6-8.5
						c-3-1.5-6.7-1.6-10.9-0.3L340.2,214.3z"/>
				</g>
				<g>
					<path class="st10" d="M378.4,234.9l-3.1,0.9l-10.1-32.9l3.1-0.9L378.4,234.9z"/>
					<path class="st10" d="M375.1,236.3l-10.3-33.6l3.7-1.1l10.3,33.6L375.1,236.3z M365.7,203.1l9.9,32.3l2.4-0.7l-9.9-32.3
						L365.7,203.1z"/>
				</g>
				<g>
					<path class="st10" d="M392.9,197.8l-8.6,2.6l9.2,29.9l-3.1,0.9l-9.2-29.9l-8.6,2.6l-0.9-3.1l20.2-6.2L392.9,197.8z"/>
					<path class="st10" d="M390.3,231.6l-9.2-29.9l-8.6,2.6l-1.2-3.8l20.9-6.4l1.2,3.8l-8.6,2.6l9.2,29.9L390.3,231.6z M381.6,200.9
						l9.2,29.9l2.4-0.7l-9.2-29.9l8.6-2.6l-0.7-2.4l-19.5,6l0.7,2.4L381.6,200.9z"/>
				</g>
				<g>
					<path class="st10" d="M444.4,209.6c-2.1,4.2-6,7.4-10.5,8.8c-9.3,2.8-19.1-2.4-22-11.8c-2.9-9.3,2.4-19.2,11.6-22.1
						c4.4-1.4,9.5-0.9,13.6,1.4l-1.5,2.7c-4.1-2-7.8-2-11.1-1c-7.5,2.3-11.8,10.4-9.5,18.1c2.3,7.6,10.4,11.9,18,9.6
						c3.3-1,6.3-3.1,8.6-7.1L444.4,209.6z"/>
					<path class="st10" d="M428.8,219.5c-7.7,0-14.8-5-17.2-12.8c-1.4-4.6-1-9.5,1.3-13.7c2.2-4.3,6-7.4,10.6-8.8
						c4.6-1.4,9.8-0.9,13.8,1.4l0.3,0.2l-1.9,3.3l-0.3-0.2c-3.6-1.8-7.2-2.1-10.8-1c-3.6,1.1-6.5,3.5-8.3,6.9
						c-1.8,3.3-2.1,7.2-1,10.8c2.3,7.4,10.2,11.7,17.5,9.4c3.6-1.1,6.3-3.4,8.4-6.9l0.2-0.3l3.5,1.6l-0.2,0.3
						c-2.1,4.2-6.1,7.6-10.7,9C432.2,219.2,430.5,219.5,428.8,219.5z M428.7,184.1c-1.7,0-3.4,0.3-5.1,0.8c-4.4,1.3-8,4.3-10.1,8.4
						c-2.2,4.1-2.6,8.8-1.2,13.2c2.8,9.1,12.5,14.3,21.5,11.5c4.3-1.3,8.1-4.4,10.1-8.3l-2.2-1c-2.1,3.5-5,5.8-8.6,6.9
						c-7.8,2.4-16-2-18.4-9.9c-1.2-3.8-0.8-7.8,1.1-11.3c1.8-3.5,4.9-6.1,8.7-7.2c3.7-1.1,7.4-0.8,11,0.9l1.2-2.1
						C434.2,184.8,431.5,184.1,428.7,184.1z"/>
				</g>
				<g>
					<path class="st10" d="M454.4,175.5l25.8,28.1l-3.4,1l-8.1-8.8l-15.7,4.8l-1.7,11.8l-3.4,1l5.6-37.8L454.4,175.5z M453.6,197.2
						l12.7-3.9l-10.4-11.4L453.6,197.2z"/>
					<path class="st10" d="M447.5,214.1l5.7-38.6l1.3-0.4l26.3,28.7l-4.1,1.3l-8.1-8.8l-15.2,4.7l-1.7,11.8L447.5,214.1z
						 M453.9,176.1l-5.5,37l2.6-0.8l1.7-11.8l16.1-4.9l8.1,8.8l2.6-0.8l-25.2-27.6L453.9,176.1z M453.2,197.7l2.5-16.6l11.3,12.4
						L453.2,197.7z M456.1,182.6l-2.1,14l11.6-3.6L456.1,182.6z"/>
				</g>
				<g>
					<path class="st10" d="M484.1,202.5L474,169.5l9.8-3c5-1.5,10.4,1.3,11.9,6.4c1.2,3.9-0.3,8.3-3.7,10.6l12.1,12.8l-3.4,1.1
						l-11.7-12.4l-6.4,2l4.5,14.6L484.1,202.5z M481.8,183.8l6.8-2.1c3.3-1,5.2-4.6,4.2-7.9c-1-3.3-4.6-5.3-7.9-4.2l-6.8,2.1
						L481.8,183.8z"/>
					<path class="st10" d="M483.9,202.9l-10.3-33.6l10.2-3.1c5.2-1.6,10.8,1.4,12.4,6.6c1.2,3.9-0.2,8.3-3.5,10.8l12.2,12.9
						l-4.2,1.3L489,185.3l-5.8,1.8l4.5,14.6L483.9,202.9z M474.5,169.7l9.9,32.3l2.4-0.7l-4.5-14.6l6.9-2.1l11.7,12.4l2.7-0.8
						l-12-12.6l0.3-0.2c3.2-2.2,4.7-6.5,3.5-10.2c-1.5-4.9-6.7-7.6-11.5-6.1L474.5,169.7z M481.5,184.3l-3.9-12.8l7.1-2.2
						c1.7-0.5,3.5-0.3,5.1,0.5c1.6,0.9,2.8,2.3,3.3,4c1.1,3.5-0.9,7.3-4.4,8.4L481.5,184.3z M478.5,171.9l3.5,11.5l6.4-2
						c3.2-1,4.9-4.3,4-7.5c-0.5-1.5-1.5-2.8-2.9-3.5c-1.4-0.8-3-0.9-4.6-0.5L478.5,171.9z"/>
				</g>
				<g>
					<path class="st10" d="M508.2,195.1l-10.1-32.9l7.3-2.3c10.1-3.1,18.8,0.9,21.9,11.2c3.2,10.3-1.7,18.6-11.8,21.7L508.2,195.1z
						 M510.3,191.1l4.3-1.3c8.4-2.6,12.4-9.1,9.7-17.7c-2.7-8.7-9.5-11.7-17.9-9.1l-4.3,1.3L510.3,191.1z"/>
					<path class="st10" d="M508,195.5l-10.3-33.6l7.7-2.4c10.6-3.3,19.2,1.1,22.4,11.4c1.6,5.1,1.2,9.9-0.9,13.9
						c-2.2,3.9-6,6.8-11.1,8.3L508,195.5z M498.5,162.4l9.9,32.3l7-2.1c4.9-1.5,8.6-4.3,10.7-8c2.1-3.8,2.4-8.4,0.9-13.3
						c-3-9.9-11.3-14.1-21.5-11L498.5,162.4z M510.1,191.5l-8.4-27.5l4.6-1.4c4.3-1.3,8.2-1.2,11.4,0.3c3.3,1.6,5.7,4.7,7,9
						c2.7,8.7-1.1,15.5-9.9,18.2L510.1,191.5z M502.5,164.5l8,26.1l3.9-1.2c8.4-2.6,12-9.1,9.5-17.3c-1.3-4.1-3.5-7-6.6-8.5
						c-3-1.5-6.7-1.6-10.9-0.3L502.5,164.5z"/>
				</g>
			</g>
			<g>
				<g>
					<g>
						<path class="st11" d="M613.5,148.1c-3-9.6-0.8-19.6,5-26.9c-5.5-1.8-11.5-1.9-17.5-0.1c-5.9,1.8-10.8,5.4-14.4,9.9
							c8.9,2.8,16.3,9.9,19.2,19.5c3,9.6,0.8,19.6-5,26.9c5.5,1.8,11.5,1.9,17.5,0.1c5.9-1.8,10.8-5.4,14.4-9.9
							C623.9,164.8,616.5,157.8,613.5,148.1z"/>
					</g>
				</g>
				<path class="st12" d="M605.9,150.5c-3-9.6-10.4-16.7-19.2-19.5c-5.5-1.8-11.5-1.9-17.5-0.1c-15.5,4.8-24.2,21.2-19.4,36.8
					c4.8,15.6,21.2,24.4,36.7,19.6c5.9-1.8,10.8-5.4,14.4-9.9C606.6,170.1,608.8,160.1,605.9,150.5z"/>
				<path class="st13" d="M669.6,130.9c-4.8-15.6-21.2-24.4-36.7-19.6c-5.9,1.8-10.8,5.4-14.4,9.9c-5.8,7.3-7.9,17.3-5,26.9
					c3,9.6,10.4,16.7,19.2,19.5c5.5,1.8,11.5,1.9,17.5,0.1C665.7,163,674.4,146.5,669.6,130.9z"/>
			</g>
			<g>
				<g>
					
						<rect x="520" y="335.1" transform="matrix(0.956 -0.2934 0.2934 0.956 -72.2444 198.1787)" class="st14" width="209" height="9.6"/>
				</g>
			</g>
			<g>
				<g>
					
						<rect x="574.3" y="347.5" transform="matrix(0.956 -0.2934 0.2934 0.956 -74.5872 207.4269)" class="st15" width="159.6" height="9.6"/>
				</g>
			</g>
			<g>
				<g>
					<path class="st14" d="M356.9,284.1l-0.7-2.2l-39.8,12.2l-3-9.9l-2.2,0.7l3,9.9l-39.8,12.2l0.7,2.2l39.8-12.2l2.9,9.4
						l-39.8,12.2l0.7,2.2l39.8-12.2l0,0.1l1.1-0.4c0.4-0.1,9.6-3.6,12.6,3.4c0,0,0.9,2-0.1,4.4c-1.1,2.5-3.8,4.4-8.2,5.8l-41,12.6
						l0.7,2.2l39.9-12.3l2.9,9.6l-39.9,12.3l0.7,2.2l39.9-12.3l3,9.9l2.2-0.7l-3-9.9l39.6-12.1l-0.7-2.2l-39.6,12.1l-3-9.6
						c4.4-1.6,7.3-3.9,8.5-6.7c0.9-2.1,0.7-4,0.5-5.1l28-8.6l-0.7-2.2l-28.2,8.7c-3.1-5.5-9.8-5.1-13.9-3.9l-2.9-9.4L356.9,284.1z"
						/>
				</g>
			</g>
			<g>
				<g>
					<path class="st15" d="M725.7,313.8l-2.8-9.2l-145.7,44.7c-7.3,5.7-14.6,11.3-22,16.8L725.7,313.8z"/>
				</g>
			</g>
			<g>
				<g>
					<path class="st16" d="M707.1,253l-42.7,13.1c-13.2,15.8-27.6,30.8-42.8,45.1l0.3,0.9l94.4-29L707.1,253z"/>
				</g>
			</g>
			<g>
				<g>
					<path class="st7" d="M227,216.9l14.5,47.2c-4.9-20.4-8.7-67,51.3-85.5l-54.5,16.7C229.3,198.1,224.2,207.8,227,216.9z"/>
				</g>
			</g>
			<g class="st7">
				<g>
					<path d="M605.9,150.5c-3-9.6-10.4-16.7-19.2-19.5c-5.8,7.3-7.9,17.3-5,26.9c3,9.6,10.4,16.7,19.2,19.5
						C606.6,170.1,608.8,160.1,605.9,150.5z"/>
				</g>
			</g>
			<g class="st7">
				<g>
					<path d="M637.7,140.7c-3-9.6-10.4-16.7-19.2-19.5c-5.8,7.3-7.9,17.3-5,26.9c3,9.6,10.4,16.7,19.2,19.5
						C638.5,160.3,640.7,150.3,637.7,140.7z"/>
				</g>
			</g>
		</g>
		<g>
			<polygon class="st4" points="159.3,252.3 169.1,261.7 200.6,333.4 268.2,344 268.2,361.8 181.1,366.2 141.4,290.1 145.8,258 			
				"/>
		</g>
		<g>
			<g>
				<path class="st17" d="M187.1,254.8c-0.2,0.3-0.5,0.5-0.8,0.7c-0.6,0.4-1.4,0.4-2.2,0.5c-3,0.2-6.1,0.5-9.1,0.7
					c-0.8-9.3-6.6-10.2-12.9-15c-6.4-4.9-6.4-13.1-7.6-20.4c-0.3-2-0.6-4.1-0.2-6.1c0.9-3.5,4-6,7.1-7.7c8.1-4.4,18.1-5.7,26.6-2.4
					c2.3,0.9,4.5,2.1,6,4.1c2.3,3,2.7,7,3,10.7c0.4,5.8-0.1,11.7-2.4,17.1c-2.1,5-7.3,8.3-6.9,13.7
					C188.1,252.1,188,253.7,187.1,254.8z"/>
			</g>
			<g>
				<g>
					<path class="st6" d="M195.7,213.4c0,2.4-0.6,4.9,0.4,7c3.4-2,5-6.1,5.5-10.1c0.2-1.8,0.3-3.7-0.2-5.5c-0.5-1.8-1.7-3.4-3.3-4.2
						c-2.3-1-5.7,0.3-5.8,2.9C192.2,206.3,195.7,209.8,195.7,213.4z"/>
				</g>
				<g>
					<path class="st6" d="M210.9,189.5c-0.6-2.7-2.2-4.9-4.9-6.1c-2.4-1-5-1.7-6.8-3.7c-1.3-1.6-1.9-3.7-3.3-5.3
						c-2.4-2.8-6.5-3-10-3.4c-8.9-1-14.1-3.2-22.3,2c-5.8,3.7-13.9,5.7-19.1,10.5c-2.2,2-3.8,4.8-4.9,7.8
						c-4.1,10.5-2.9,23.8,2.9,32.7c1.3,2,2.8,3.8,4.4,5.4c3.1,3.3,6.6,7.5,11.1,8.6c-0.1-1.8,1-3.1,1.1-5c0-1.3-0.3-2.6-0.7-3.9
						c-1.3-5-4.5-12.8,0.1-16.3c5.8-4.5,18.4-4,25.1-2.6c6,1.3,15.8,2.5,21.1-1.2C209.7,205.6,212.2,195.3,210.9,189.5z"/>
				</g>
			</g>
		</g>
		<g>
			<polygon class="st17" points="268.2,348.1 285.2,346.2 294.5,357.5 288.8,364.7 268.2,360.2 			"/>
		</g>
		<g>
			<polygon class="st17" points="295.2,174.8 299.1,164.8 318.7,164.8 326.5,175.4 315.3,180.4 299.1,173.6 			"/>
		</g>
		<g>
			<path class="st6" d="M897.8,201.7c0.2-0.1,0.5-0.2,0.7-0.2L897.8,201.7c-0.2-0.7-0.4-1.4-0.7-2.1v0l0,0c-2.1-5.1-6-9.5-10.9-12.1
				c-5.9,3.1-10.2,9.1-11.1,15.7c-0.4,2.8-0.2,5.6,0.6,8.3l0,0c0,0,0,0,0,0.1c0.1,0.2,0.1,0.5,0.2,0.7c1.1,3.8,5.4,20.9-0.8,38.3
				c-7,19.8-1.9,26.2-1.9,26.2s18.5,5.1,30,1.9C914.3,275.6,906.7,229.4,897.8,201.7z"/>
		</g>
		<g>
			<polygon class="st12" points="888.5,264.2 847.2,304.9 783.9,314.9 784.6,330.5 850,332.6 871.4,324.1 889.9,276.5 			"/>
		</g>
		<g>
			<g>
				<g>
					<polygon class="st5" points="949.1,682 949.9,689.5 936.2,698.9 928.2,692.3 936.1,681.9 948.2,677.6 					"/>
				</g>
			</g>
			<g>
				<g>
					<polygon class="st18" points="941,449.3 936.8,472.1 930.6,553 948.2,677.6 936.1,681.9 898.6,560.8 892.7,524.9 892.9,448.9 
											"/>
				</g>
			</g>
		</g>
		<g>
			<g>
				<g>
					<polygon class="st18" points="846.9,470.6 876.5,682.5 889.9,682.5 892.3,546.7 916.7,451.4 					"/>
				</g>
			</g>
			<g>
				<g>
					<polygon class="st5" points="889.9,682.6 889.8,688.4 872.8,697.6 866.4,689.7 876.4,682.6 					"/>
				</g>
			</g>
		</g>
		<g>
			<path class="st4" d="M846.5,388.8c0,0-12.8,45.5,4.3,142.3c14.2,8.5,37,10.2,37,10.2s43.4-3.1,49.1-10.9c0,0,11.2-42.4,14.8-56.4
				s6.5-35.4,0.1-70.9C945.4,367.5,871.4,383.2,846.5,388.8z"/>
		</g>
		<g>
			<path class="st12" d="M839.4,418.7c0,0,12.1,8.5,27.7,8.5c15.6,0,59.8,0,70.4,0c10.7,0,21.6,5.7,20-24.5c0,0,0,0,0,0
				c-1-5.4-1.9-10.9-2.9-16.3c-7.6-44.2,1.3-123.5-23.7-132.2c-8.4,0-19.2-2.2-29.5-2.6l0.2,0.3c0,0-13.8,8.2-27.6,34.1l0,0
				c0,0-16,38.5-26.5,84.5c-0.2,1-0.4,2-0.7,2.9C836.6,419.4,839.4,418.7,839.4,418.7z"/>
		</g>
		<g>
			<polygon class="st19" points="901.3,251.6 881.3,324.1 926.1,253 920.5,248.7 			"/>
		</g>
		<g>
			<polygon class="st4" points="903.4,255.8 887.7,261.5 889.2,266.5 893.4,268.6 903.4,258.7 904.8,272.2 909.1,272.2 913.8,269 
				905.5,255.8 			"/>
		</g>
		<g>
			<polygon class="st12" points="930.4,258.7 913.5,273 865.7,324.1 788.9,324.1 788.9,339.8 862.1,355.4 882,352.6 945.8,290 
				948.2,272.2 			"/>
		</g>
		<g>
			<g>
				<g>
					<path class="st18" d="M882.4,210.1c4.6-24.3,35-20.1,43.7-0.4c5,11.2-0.2,27.1-10.2,34.9c-0.2,2.2-0.5,8.1-2.1,9.5
						c-1.8,1.6-7.4,0.1-9.6-0.4c-0.6-0.1-1.2-0.3-1.7-0.8c-0.6-0.6-0.6-2-0.7-3.7c-1.6-0.1-3.3-0.4-5-1c-7.1-2.3-12.2-8.9-14.3-16
						C880.5,225.1,881,217.4,882.4,210.1z"/>
				</g>
			</g>
			<g>
				<g>
					<path class="st6" d="M926.8,294.3c-5.8-0.1-11.6-0.7-17.2-1.9c3.9,0.8,5.2-41.1,5.3-43.9c0.4-8.3,1.2-20.1-3.1-27.2
						c-4.3-7.1-11.5-9.6-19.1-15.9c-2.7-2.2-5-5.1-5.7-8.5c-0.8-3.7,0.7-7.7,3.2-10.6c3.8-4.5,8.3-6.7,14-6.9
						c11.6-0.3,23.9,4.4,31.7,13.1c9.4,10.5,12.1,25.9,12.6,39.6c0.1,3.7,0,7.4,0.6,11c0.6,3.9,2,7.6,3.2,11.4
						c1.8,5.5,3.3,11.3,3.1,17.1c-0.1,5.8-2.1,11.8-6.3,15.8C943.2,293,934.5,294.4,926.8,294.3z"/>
				</g>
			</g>
		</g>
		<g>
			<g>
				<polygon class="st8" points="791.6,607.4 748.2,597.4 525,480.5 550.3,450.4 622.4,312.6 868,441.3 798.5,574 				"/>
			</g>
			<g class="st20">
				<polygon points="773.5,567.3 748.2,597.4 525,480.5 550.3,450.4 				"/>
			</g>
			<g class="st21">
				
					<rect x="572" y="362.2" transform="matrix(0.8859 0.4639 -0.4639 0.8859 283.7733 -273.5866)" class="st0" width="252" height="155.5"/>
			</g>
			<g>
				<path class="st6" d="M703.9,367c-1,1.8-3.2,2.5-5.1,1.6c-1.8-1-2.5-3.2-1.6-5.1c1-1.8,3.2-2.5,5.1-1.6
					C704.2,362.9,704.9,365.1,703.9,367z"/>
			</g>
			<g>
				<path class="st6" d="M761.2,397c-1,1.8-3.2,2.5-5.1,1.6c-1.8-1-2.5-3.2-1.6-5.1c1-1.8,3.2-2.5,5.1-1.6
					C761.4,392.9,762.1,395.1,761.2,397z"/>
			</g>
			<g>
				<path class="st22" d="M760.4,396.5l-5-2.6l13.9-26.6c0.1-0.2,7.5-13.8,3.7-26.6c-2-6.7-6.8-12-14.2-15.9
					c-7.4-3.9-14.6-4.8-21.2-2.6c-12.7,4.1-19.6,18-19.7,18.1L703.9,367l-5-2.6l13.9-26.6c0.3-0.6,8-16,22.9-20.9
					c8.1-2.7,16.7-1.7,25.6,3c8.9,4.6,14.6,11.1,17,19.3c4.5,15-3.8,30.2-4.2,30.8L760.4,396.5z"/>
			</g>
		</g>
		<g>
			<path class="st23" d="M784.1,319.6l-19.4,0.2l-7.8,10c0,0,10.8,10.9,10.8,10.1c-0.1-0.8,17.7-7.2,17.7-7.2L784.1,319.6z"/>
		</g>
		<g>
			<polygon class="st18" points="788.9,328.1 769.7,325.5 763.2,332.6 771.8,346.9 788.9,339.8 			"/>
		</g>
		<g>
			<g>
				<path class="st6" d="M767.6,382.7l-1.3,2.5c3,2,9.5,8.9,6,28.8c-0.1,0.8,0.4,1.5,1.2,1.6c0.1,0,0.2,0,0.3,0
					c0.7,0,1.3-0.5,1.4-1.2C778.9,392.8,771.2,385.1,767.6,382.7z"/>
			</g>
		</g>
		<g>
			<g>
				<g>
					<g>
						<polygon class="st24" points="776,413.3 767.1,417.1 744.8,461.1 789.8,566.7 829,550 868.1,533.3 823.1,427.7 						"/>
					</g>
				</g>
				<g>
					<g>
						<path class="st6" d="M802.6,454.2c1.7,4.1,1.9,7.8,0.6,11.2c-1.3,3.4-3.9,5.9-7.7,7.5c-3.9,1.6-7.4,1.7-10.7,0.2
							c-3.2-1.5-5.7-4.3-7.4-8.3l-3.4-8.2l25.2-10.4L802.6,454.2z M778.9,459.2l1.7,4.1c1.2,2.9,3,4.8,5.3,5.7
							c2.3,0.9,4.9,0.7,7.9-0.5c2.9-1.2,4.9-2.9,5.9-5.2c1-2.3,0.9-4.9-0.3-7.8l-1.7-4.1L778.9,459.2z"/>
					</g>
					<g>
						<path class="st6" d="M815.4,484.8l-3.2,1.3l-4.1-9.8l-7.6,3.2l3.6,8.7l-3.2,1.3l-3.6-8.7l-7.9,3.3l4.1,9.8l-3.2,1.3l-5.8-13.9
							l25.2-10.5L815.4,484.8z"/>
					</g>
					<g>
						<path class="st6" d="M817.1,489.2l4,9.6c1.1,2.6,1.3,4.9,0.6,6.8c-0.7,1.9-2,3.3-3.9,4.1c-2.8,1.2-5.4,0.3-7.6-2.6
							c0.4,1.8,0.2,3.4-0.5,4.9c-0.8,1.5-1.9,2.6-3.5,3.2c-1.9,0.8-3.8,0.7-5.7-0.3c-1.9-1-3.3-2.7-4.4-5.2l-4.2-10.1L817.1,489.2z
							 M796.9,502.4l2.3,5.6c0.6,1.4,1.4,2.4,2.4,2.9c1,0.5,2.2,0.5,3.4,0c1.2-0.5,2.1-1.3,2.4-2.5c0.4-1.2,0.3-2.4-0.3-3.8
							l-2.3-5.4L796.9,502.4z M815.6,494.6l-7.5,3.1l2.1,5.1c0.6,1.4,1.3,2.3,2.3,2.8c1,0.5,2,0.5,3.2,0c1.2-0.5,1.9-1.2,2.3-2.3
							c0.3-1,0.2-2.2-0.3-3.6L815.6,494.6z"/>
					</g>
					<g>
						<path class="st6" d="M822.5,511.3l3.2-1.3l7.3,17.6l-3.2,1.3l-2.8-6.7l-22,9.1l-1.7-4.1l22-9.1L822.5,511.3z"/>
					</g>
				</g>
			</g>
			<g>
				<g>
					<path class="st6" d="M772.3,417.4c-4.8-1.9-9.3-4.7-13.1-7.9c-8.9-7.7-9-14.6-8.6-17.2c0.4-2.9,2.2-5.6,4.8-7.2
						c1.7-1.1,3.6-1.6,5.5-1.7l1.5-2.8c-2.9-0.3-5.9,0.4-8.5,2c-3.3,2.1-5.5,5.5-6.1,9.2c-1.3,9.2,6.2,16.9,9.6,19.8
						c4,3.5,8.8,6.4,13.9,8.4c0.2,0.1,0.4,0.1,0.5,0.1c0.6,0,1.1-0.3,1.3-0.9C773.4,418.5,773,417.7,772.3,417.4z"/>
				</g>
			</g>
		</g>
	</g>
</g>
</svg>
