<?xml version="1.0" encoding="utf-8"?>
<!-- Generator: Adobe Illustrator 24.3.0, SVG Export Plug-In . SVG Version: 6.00 Build 0)  -->
<svg version="1.1" id="Слой_1" xmlns="http://www.w3.org/2000/svg" xmlns:xlink="http://www.w3.org/1999/xlink" x="0px" y="0px"
	 viewBox="0 0 4000 2500" style="enable-background:new 0 0 4000 2500;" xml:space="preserve">
<style type="text/css">
	.st0{fill:#FFFFFF;}
	.st1{fill:#E7F3FE;}
	.st2{fill:#A2DFF2;}
	.st3{fill:#96CFE0;}
	.st4{fill:#F37168;}
	.st5{fill:#2E5B9A;}
	.st6{fill:#F09959;}
	.st7{fill:#E38540;}
	.st8{fill:#75A1DE;}
	.st9{fill:#A86B48;}
	.st10{fill:#3E6BAB;}
	.st11{fill:#F0CEB4;}
	.st12{fill:#F7A96F;}
	.st13{fill:#A8CEFF;}
	.st14{fill:#6695D6;}
	.st15{fill:#303C60;}
	.st16{fill:#D54A41;}
	.st17{opacity:0.5;fill:url(#SVGID_1_);}
	.st18{fill:#9EC8FF;}
	.st19{opacity:0.5;fill:#9EC8FF;}
	.st20{opacity:0.5;}
	.st21{fill:#F39892;}
	.st22{fill:#9CD499;}
	.st23{clip-path:url(#SVGID_3_);fill:#A2DFF2;}
	.st24{clip-path:url(#SVGID_3_);fill:#9CD499;}
	.st25{clip-path:url(#SVGID_3_);fill:#9EC8FF;}
	.st26{clip-path:url(#SVGID_3_);fill:#F39892;}
	.st27{clip-path:url(#SVGID_3_);fill:#E7F3FE;}
</style>
<rect class="st0" width="4000" height="2500"/>
<g>
	<path class="st1" d="M3223.3,906.7c144.9-150.6-565.4-674.8-1152-722.6c-540-44-1253.5,169-529.1,483.9
		C2232.3,968.1,3147.6,985.5,3223.3,906.7z"/>
	<path class="st1" d="M388.2,801.1c338.3-428,1048.7,24.1,1656.6,133.9c607.9,109.8,1596.6-64.7,1594.1,417
		c-2.6,513.5-221.9,802.4-1424.5,940.3S461.1,2005,303.8,1552.3C181.4,1199.9,297.8,915.4,388.2,801.1z"/>
	<g>
		<path class="st2" d="M2707.7,1347.7c-49.7,100.8-111.9,376.2-128.9,391.3c-17,15.1-115.1,73.6-132,101.9s-9.4,18.9-1.9,20.8
			c7.5,1.9,433.9,3.8,433.9,3.8s-49-292.4-54.7-294.3C2818.4,1569.2,2707.7,1347.7,2707.7,1347.7z"/>
		<path class="st3" d="M2637.2,1864c78.3,0.5,160.9,1,206.4,1.2l-62.3-372.4c-33.2-64.4-73.5-145.1-73.5-145.1
			c-6.3,12.7-12.7,28.2-19.3,45.6c-6.5,279.7,33.8,358.1,3.6,408C2668.4,1840.1,2646.9,1857.5,2637.2,1864z"/>
	</g>
	<g>
		<path class="st2" d="M2969.2,1226.1c70.8,65.4,228.4,127.3,228.4,127.3s23.9,221.3,7.6,346.5c-16.3,125.3-7.3,150.7-7.3,150.7
			l-340.4,2.9c0,0-28.3-63.4-108.1-251.6c-50.8-119.8-41.8-254.2-41.8-254.2l197.9-89L2969.2,1226.1z"/>
		<path class="st3" d="M2873,1850.6h325c0,0-9.1-25.4,7.3-150.7c13.5-103.2-0.4-271.4-5.7-327.6l-29.6-12.7
			c-74.2,21.4-117,132.1-129.5,240.2c-8.4,72.4-128.3,143.6-206.7,182.8C2859.4,1831.9,2873,1850.6,2873,1850.6z"/>
		<path class="st3" d="M2914.5,1304.7c0,0,3,93.4,19,92.4s108.6-118.5,108.6-118.5l-15.7-7.5L2914.5,1304.7z"/>
		<path class="st3" d="M2890.5,1299.3c0,0-20.1,86-30.1,84s-23.5-89.4-23.5-89.4L2890.5,1299.3z"/>
		<path class="st4" d="M2886.8,1288.6l27.7,3l10.7,33c0,0-24.4,28.5-24.9,40s5.4,54.5,5.7,93.5s-14,194.2-7.5,289.3
			c6.5,95.1,6.5,95.1,6.5,95.1l-55.7,2.2c0,0-3-104.6,0-216.6s34.9-263.5,34.9-263.5l-12.6-38.5L2886.8,1288.6z"/>
		<path class="st5" d="M2793.3,999c-39.2,87.3,7.8,168.1,6.4,164.7c-1.4-3.4,59.3-147.3,59.3-147.3L2793.3,999z"/>
		<path class="st6" d="M2941.7,1063.5l49.7,181.6c1.4,5.1,0.2,10.6-3.1,14.7c-11.7,14.4-28.2,43.9-61.7,53.4
			c-6.5,1.8-14.5,2.3-21,2.4c-6.8,0-12.7-4.8-14-11.5l-33.3-172.2L2941.7,1063.5z"/>
		<path class="st7" d="M2932.3,1078.7l-18.2,7.4l-55.8,45.7l21.4,109.2l8.5,43.5C2939.1,1252.8,2957.7,1201.1,2932.3,1078.7z"/>
		<path class="st6" d="M2929.2,1145.8c0,60.7-36.6,108.6-81.8,106.9c-45.2-1.7-73-35.9-81.9-113.1c-7-60.5,10.4-131,55.6-129.3
			C2866.3,1012.1,2929.1,1085.1,2929.2,1145.8z"/>
		<path class="st2" d="M3197.6,1353.4c65.8,14.8,78,148.4,99.4,289.3c2.5,16.2,15.1,153.4,15.1,153.4s1.3,25.2-23.9,37.7
			c-21.5,10.7-30.2,18.9-154.7,20.1c-119.6,1.2-273.8-3.8-273.8-3.8s-1.4-44.5,10.9-66.2c18.4-32.7,207.5-79.7,225.1-82.2
			c2.5-35.2-17.4-162.6,10.1-249c18.9-59.4,39.1-90.6,64.6-98.7C3178.8,1351.4,3187.9,1351.2,3197.6,1353.4z"/>
		<path class="st3" d="M2927.3,1852.9c59,0.9,139.9,1.7,206.1,1.1c124.5-1.3,133.2-9.4,154.7-20.1c25.2-12.6,26.4-34,26.4-34
			s-12.7-146-15.1-162.2c-13.8-94.3-28.8-202.3-63.6-254.4c32.7,95.9,38,176.7,38.6,211.3c0.3,17.5-1.3,41.4-6.4,58.2
			c-5.7,18.5-20.1,30.2-42.8,23.9c-45.3-12.6-101.9,13.8-101.9,13.8s42.8-15.1,83-1.3c40.2,13.8,123.3,105.6,32.7,139.6
			C3211.4,1839.2,3045.4,1847.7,2927.3,1852.9z"/>
		<path class="st3" d="M2880.7,1788.1c0,0,16.8-28.5,51.1-28.5c34.4,0,31.9,56.2,26.8,74.6c-5,18.4-25.2,19.3-25.2,19.3l-69.2-1.8
			L2880.7,1788.1z"/>
		<path class="st8" d="M2200,1854.4h577.7c0-16-13-29-29-29H2200V1854.4z"/>
		<path class="st6" d="M2868.2,1783.6c-69.6-32-89.3-23.9-105.1-30c-39.1-15.1-50-5.9-81.9,62.9c-6.4,13.7,8.7,15.9,23.8,17.2
			c15,1.3,35.9-26.4,42-29.2c6.1-2.8,22.1-3.2,22.1-3.2s-5-0.4-13.8,14c-8.8,14.4-18.5,19.5-6.8,20.5c11.7,1,15-18.1,36.4-12
			c21.4,6,17,26.4,71.5,24.6c51.7-1.7,90.3,3.5,92.2-29.2c1.8-31,6.5-46.1-22.3-54.1C2903.9,1758.9,2868.2,1783.6,2868.2,1783.6z"/>
		<path class="st9" d="M2869.1,1783.7c48.5-1.3,29.3,57.3,23.9,61.9c-5.4,4.6,26.6,4,26.6,4s17-22.7,6.8-51.4
			c-10.2-28.6-35.1-32-35.1-32l-22.3,9.9L2869.1,1783.7z"/>
		<path class="st5" d="M2917.4,1771.9c0.4,7.5-11.5,14.1-26.5,14.9c-15,0.8-27.5-4.6-27.9-12.1c-0.4-7.5,11.5-14.1,26.5-14.9
			C2904.5,1759,2917,1764.4,2917.4,1771.9z"/>
		<path class="st10" d="M2913.1,1768.7c0.3,6.7-10.2,12.6-23.7,13.3c-13.4,0.7-24.6-4.1-24.9-10.8c-0.3-6.7,10.2-12.6,23.7-13.3
			C2901.6,1757.2,2912.7,1762.1,2913.1,1768.7z"/>
		<path class="st11" d="M2904.4,1766.8c0.2,4.8-7.4,9.1-17,9.6s-17.7-3-17.9-7.8c-0.2-4.8,7.4-9.1,17-9.6
			C2896.1,1758.5,2904.1,1762,2904.4,1766.8z"/>
		<path class="st6" d="M2490.9,1788.1c35.8-19.9,79.6-13.3,95.5,6.6c15.9,19.9,18.6,33.2-17.2,33.2c-35.8,0-107.4,2.7-119.3,1.3
			S2490.9,1788.1,2490.9,1788.1z"/>
		<path class="st6" d="M2537.5,1781.2c38.5-9.3,64.7,13.1,96.8,34.5c27.8,18.6,33.4,36.6,2.7,21.2c-45.1-22.5-71.6-25.2-71.6-25.2
			L2537.5,1781.2z"/>
		<path class="st6" d="M2494.5,1798.6c-19.4,0-36.4-6.2-50.1-5.1c-13.7,1.1-57.1,45.7-50.3,49.1c0.5,0.2,1,0.5,1.6,0.7
			c10.3,3.8,21.9-0.4,27.7-9.7c6.1-9.9,16.1-21.3,27.8-17.2c19.4,6.9,39.8,6.2,39.8,6.2L2494.5,1798.6z"/>
		<path class="st12" d="M2497.6,1835.8c-19.9-8,11.9-74.3,22.5-74.3s50.4,31.8,50.4,31.8s-9.4,5.3-41.1-5.3
			c-8-2.7-14.6,42.4-23.9,47.7C2496.2,1841.1,2497.6,1835.8,2497.6,1835.8z"/>
		<polygon class="st2" points="2881.2,1249 2890.5,1298.6 2863.3,1357.6 2833.7,1295.1 		"/>
		<path class="st5" d="M2771.7,1174c11.4,72.1,38.1,79.8,57.1,86.3c18.9,6.6,89.6-23.1,97.2-42.9c19.3-50.5-11.8-88.6-5.5-89.1
			c6.3-0.5,15.2,16.1,35.6,36.1c1.9,1.9,15,14.1,14.7,9.3c-4.4-65.7,25.4-91.8,5.4-155.4c-14.7-46.9-44.5-37.4-44.5-37.4
			s-27-36.5-87.3-20.6c-40.4,10.6-73.9,33.3-114.1,52c-40.2,18.7,69.6,97.3,117.9,52.2c48.3-45.1,35.5,36.9,45.2,41.3
			c9.7,4.4,4.3,0,15.5,38.7c11.2,38.7-34,73.6-47.8,79.6c-43.9,19.3-52.9,13.1-66.1-2.3C2783.6,1208.4,2771.7,1174,2771.7,1174z"/>
		<path class="st6" d="M2957.4,1116.7c-1.9,19.1-12.6,33.1-23.9,31.4c-11.3-1.7-14.3-16.4-16.9-37.6c-2.4-19.2,12.6-33.1,23.9-31.4
			C2951.7,1080.8,2959.3,1097.6,2957.4,1116.7z"/>
		<path class="st2" d="M2987.3,1230.1l49.4,46c0,0-95,89.5-103.3,88.5s-22.2-76-22.2-76L2987.3,1230.1z"/>
		<path class="st2" d="M2912.7,1287.5c-9.1,4.3-6.2,17.3-10.1,21.8c-3.9,4.5-6.2,5.7-9.3-0.6c-3.1-6.3-2.6-20.5-5-21.3
			c-2.4-0.7-20.8,56.6-20.8,56.6s13.5-36.7,16.5-32.7c3.1,4,0.6,7.7,11.8,8.4c11.2,0.7,25.3-4,25.3-4L2912.7,1287.5z"/>
	</g>
	<g>
		<path class="st13" d="M2199.3,1854.4h308.6l-131-288.3c-3.8-8.4-12.2-13.8-21.5-13.8h-279.1c-6.7,0-11.1,6.9-8.4,13L2199.3,1854.4
			z"/>
		<path class="st8" d="M2046.3,1552.3h284.8c9.2,0,17.6,5.4,21.5,13.8l131,288.3h-314.2l-131.4-289.1
			C2035.1,1559.2,2039.6,1552.3,2046.3,1552.3z"/>
		<path class="st14" d="M2194.7,1720.1c10.8,22.4,28.3,36.3,39.1,31.1c10.8-5.2,10.8-27.6,0-50c-10.8-22.4-28.3-36.3-39.1-31.1
			C2183.9,1675.4,2183.9,1697.8,2194.7,1720.1z"/>
	</g>
	<g>
		<g>
			<path class="st15" d="M1092.3,1339.5c-4.8,0-9.5-0.2-14.1-0.5c-3.8-0.2-7.8-0.4-11.6-0.4c-1.3,0-2.4-1.1-2.4-2.5
				c0-1.3,1.1-2.4,2.4-2.4c3.9,0.1,7.9,0.3,11.8,0.5c29,1.5,58.9,3,88.1-53.1c12.7-24.4,26.5-71.7,23.6-125.1
				c-2.3-43.7-17.1-105.8-74.5-153.7c-1-0.9-1.2-2.4-0.3-3.4c0.9-1,2.4-1.2,3.4-0.3c58.7,49.1,73.8,112.6,76.2,157.2
				c2.9,54.3-11.2,102.7-24.2,127.6C1145.1,1332.8,1117.7,1339.5,1092.3,1339.5z"/>
		</g>
		<g>
			<path class="st15" d="M1083.2,1328c-1.1,0-2.3,0-3.4-0.1c-1.3-0.1-2.4-1.2-2.3-2.6c0.1-1.3,1.2-2.4,2.6-2.3
				c1,0.1,2.1,0.1,3.1,0.1c30.2,0,58.2-21.4,77-59.2c31-62.2,34-164.2-21.5-230.8c-0.9-1-0.7-2.6,0.3-3.4c1-0.9,2.6-0.7,3.4,0.3
				c56.8,68.2,53.8,172.6,22.1,236.1C1144.9,1305.6,1115.4,1328,1083.2,1328z"/>
		</g>
		<path class="st15" d="M974.8,1017.2c87.5-67.9,169.6-31.9,199.1,60c27.5,85.8-7.7,270.3-138.2,238.2
			c-135-33.3-146.3-74.6-145.2-134.7C891.2,1132.7,911.7,1066.2,974.8,1017.2z"/>
		<path class="st2" d="M929.3,1289.5l-125.1,46.7c0,0,35,254,38,351s-46,181.2-46,181.2h327c0,0,45-264.2,36-357.2
			s-71-189.4-74-191.7s-78-19.3-78-19.3L929.3,1289.5z"/>
		<path class="st16" d="M1149.3,1602.1c0,0,12.6,118,17.8,124c5.2,6,197.2,100,197.2,100l-279,19L1149.3,1602.1z"/>
		<path class="st16" d="M1085.3,1319.4c31,0.7,39.4,51.4,46.7,89C1139.3,1446.1,1085.3,1319.4,1085.3,1319.4z"/>
		<path class="st4" d="M1032.3,1520.1c-17-61-108.3-230.9-108.3-230.9l-119.7,46.9c0,0,27.4,199.1,35.8,312l45.5,220.1h146.7
			C1032.3,1868.3,1049.3,1581.1,1032.3,1520.1z"/>
		<polygon class="st16" points="863.4,1761.1 998.3,1730.1 987.3,1845.1 		"/>
		<path class="st16" d="M930.8,1793.1c-22-29.8-43.5-62.6-22.6-131c21-68.4,23-93,15.7-155c-7.3-62-40.7-161-105.7-164
			c0,0-2.1,21.7-5.6,56.3c10.6,81.8,27.6,221.4,29.6,287.7c3,97-46,181.2-46,181.2l266,5.8C1062.3,1874.1,952.8,1822.9,930.8,1793.1
			z"/>
		<path class="st4" d="M1159.3,1511.1c-9-93-71-189.4-74-191.7c-1.9-1.4-31.2-8.5-53.4-13.6c6.5,15.4,75.2,179.1,72.4,246.5
			c-3,70.8,0.1,315.9,0.1,315.9h18.9C1123.3,1868.3,1168.3,1604.1,1159.3,1511.1z"/>
	</g>
	<linearGradient id="SVGID_1_" gradientUnits="userSpaceOnUse" x1="1984.9243" y1="1920.1124" x2="1984.9243" y2="2412.176">
		<stop  offset="0" style="stop-color:#9EC8FF"/>
		<stop  offset="1" style="stop-color:#E7F3FE"/>
	</linearGradient>
	<path class="st17" d="M1821.1,2078.4c-3.4-1.6-6.3-2.9-9-4.4c-2.6-1.5-4.9-3.5-6.7-6c-1.8-2.5-3.4-5.2-5.4-8.2
		c-4.2,9.7-11.2,15.7-21.9,18.3c2.2,0.9,3.5,1.4,4.9,2c12,5.1,17.9,17.8,14.2,30.3c-2.8,9.5-12.6,19.2-27.5,17.2
		c-12.8-1.7-20.7-12.9-21.1-23.2c-0.5-11,5.9-20.5,15.5-24.4c1.2-0.5,2.5-1,4.2-1.6c-3.2-1.4-6.1-2.5-8.8-3.9
		c-2.7-1.4-5.1-3.3-7-5.7c-1.9-2.5-3.6-5.2-5.5-7.9c-1.3,0.6-1.5,2.1-2.2,3.1c-0.9,1.2-1.7,2.5-2.6,3.7c-0.8,1.1-1.8,2-2.8,3
		c-1,0.9-2.1,1.8-3.2,2.5c-1.1,0.8-2.3,1.5-3.5,2.1c-1.4,0.6-2.8,1.1-4.2,1.6c-1.3,0.5-2.6,0.8-4.4,1.4c1.8,0.6,3,0.9,4.3,1.4
		c12,4.2,17.3,15,17,24.3c-0.4,11.5-8.9,21.4-20.4,23.5c-11.3,2.1-22.6-4.1-27-14.5c-5.7-13.6,1.2-28.8,15.2-33.3
		c1.1-0.4,2.3-0.7,4.2-1.2c-5.7-1.8-10.7-3.4-14.8-7c-4-3.6-6.9-7.9-8.6-12.9c-1.8,0.3-1.7,1.6-2.1,2.5c-3.9,8.3-10.1,13.7-19.1,16
		c-8.6,2.2-16.2-0.1-23-5.3c-3.7-2.8-6.4-6.4-8.3-10.6c-0.4-0.9-0.3-2.2-1.8-2.5c-5.5,12.9-14.9,19.8-29.3,18.4
		c-11.6-1.2-19.7-9.1-23.4-22.4c-1.3,0.6-1.3,1.9-1.6,2.9c-2.2,7.4-6.7,12.8-13.4,16.4c-13.2,7-29.9,1.3-36.1-12.3
		c-0.9-2.1-1.6-4.2-2.4-6.4c-1.5,0.5-1.4,1.9-1.7,2.9c-1.3,3.8-3.1,7.2-5.9,10.1c-7.6,7.8-16.8,10.2-27,6.8
		c-10.5-3.5-16.8-11.3-17.7-22.5c-0.9-10.8,3.7-19,12.9-24.7c1-0.6,2.1-1.2,3.1-1.8c0.1-0.1,0.1-0.2,0.4-0.6c-1-1.3-2.8-1.5-4.1-2.3
		c-1.4-0.9-2.9-1.7-4.2-2.6c-1.2-0.9-2.4-1.9-3.4-3c-1.2-1.2-2.2-2.5-3.2-3.8c-1-1.3-1.8-2.8-2.9-4.4c-0.5,0.5-1.1,0.7-1.3,1.2
		c-4.1,7-10.1,11.6-17.8,13.9c-0.3,0.1-0.5,0.3-1,0.6c0.9,1.3,2.4,1.5,3.7,2.1c5.3,2.3,9.4,6,12.2,11c5.1,9.1,4,21-2.8,28.9
		c-6.8,8-18.1,11.2-27.6,7.8c-10.5-3.7-17.3-12.9-17.5-23.6c-0.2-10.8,5.5-19.7,15.4-24.1c1.2-0.5,2.4-1.1,4.2-1.9
		c-4.8-2.1-9.4-3.7-13-6.9c-3.6-3.2-5.9-7.2-8.1-11.2c-1.3-0.2-1.3,0.8-1.7,1.3c-0.4,0.5-0.6,1.1-0.9,1.6
		c-4.3,7.6-10.7,12.3-19.2,13.9c-10.7,2-19.7-1.6-26.7-9.9c-1.4-1.7-2.4-3.8-3.6-5.8c-0.5-0.9-1-1.8-1.4-2.6c-1.3,0-1.2,1-1.6,1.5
		c-0.3,0.5-0.5,1.1-0.8,1.6c-2.5,4.9-6,8.7-10.8,11.3c-15.3,8.5-34.7,0.6-39.2-16.4c-0.3-1.3-0.6-2.6-1-4c-1.5,0.4-1.2,1.6-1.4,2.5
		c-2,8.3-6.7,14.5-14.5,18c-9.5,4.3-18.7,3.4-27-3c-8.1-6.2-11.4-14.8-9.8-24.9c1.4-8.6,6-15,13.8-19.1c0.9-0.5,1.9-1,2.8-1.5
		c0.1-0.1,0.2-0.2,0.3-0.3c-14.6-8-12.8-9-18.4-16.4c-1.5,1.1-2,3-3.2,4.2c-1.2,1.3-2.3,2.8-3.7,4c-1.3,1.2-2.8,2.3-4.3,3.3
		c-1.5,0.9-3.2,1.7-4.9,2.4c-1.6,0.7-3.3,1.1-5.8,1.9c2.2,0.8,3.5,1.4,4.9,1.8c6.3,2.3,10.8,6.5,13.9,12.4
		c4.8,9.2,3.4,20.4-3.7,28.3c-6.8,7.7-17.8,10.5-27.3,7.1c-9.1-3.2-16.5-11.3-17.1-23c-0.5-9.9,5.3-19.8,14.8-24
		c1.9-0.8,3.9-1.5,6.1-2.4c-0.8-1.2-2-1-2.9-1.4c-1-0.4-2-0.7-3-1.1c-1-0.4-2-0.8-2.9-1.3c-0.9-0.5-1.8-1.1-2.7-1.7
		c-1-0.7-1.9-1.5-2.8-2.3c-0.8-0.7-1.5-1.5-2.2-2.3c-0.7-0.8-1.4-1.6-2-2.5c-0.6-0.9-1.1-1.8-1.6-2.7c-0.5-0.9-0.9-1.9-1.4-2.8
		c-0.4-0.9-0.8-1.8-1.5-3.2c-1.5,2.1-1.9,4.3-3.1,6c-1.2,1.7-2.4,3.5-3.8,5.1c-1.4,1.5-3.1,2.9-4.8,4.1c-1.8,1.2-3.7,2.1-5.7,2.8
		c-2,0.7-4.1,1.1-6.2,1.3c-2.1,0.2-4.2,0.2-6.3,0c-5.9-0.6-11-3.2-15.3-7.3c-4.2-4-6.4-9.1-8.1-15.1c-0.6,1.8-1.1,3-1.5,4.3
		c-3.3,9.8-13.6,18.9-27.8,17.3c-11.7-1.3-21.1-11.2-22.5-22.2c-1.4-11.1,4-21.7,14-26.7c1.1-0.5,2.1-1.1,3.2-1.7
		c0.1-0.1,0.1-0.3,0.3-0.7c-1.5-1.1-3.4-1.5-5-2.5c-1.5-0.9-3.1-1.9-4.5-3c-1.5-1.2-2.9-2.7-4.2-4.2c-1.1-1.4-2.1-2.9-3-4.5
		c-0.9-1.7-1.7-3.5-2.6-5.5c-1.4,1.2-1.7,2.7-2.3,4c-3.3,6.7-8.5,11.1-15.5,13.8c-11.5,4.4-24.1-1.1-30-9.1
		c-6.5-8.8-7.4-18.3-2.8-28.3c0.3-0.5,0.6-1.1,0.9-1.6c0.2-0.4,0.6-0.7,1-1.3c4.8-0.6,9.8-0.2,14.7-0.3c4.8-0.1,9.7,0,14.5,0
		c5,0,10,0,15.1,0c1.4,2.5,2.7,4.8,4.2,7.5c1.3-2.6,2.4-4.9,3.6-7.2c1.1-0.1,2-0.3,2.8-0.3c13.9,0,27.8,0,41.8,0
		c2.5,0,2.5,0,4.8,1.7c2.3-1.7,2.3-1.7,4.8-1.7c1.2,0,2.4,0,3.6,0c512.3,0,1024.5,0,1536.8,0c1.2,0,2.4,0,3.6,0c2.5,0,2.5,0,4.8,1.7
		c2.5-1.6,2.5-1.7,4.4-1.7c14.7,0,29.4,0,44,0c0.4,0,0.9,0.1,1.6,0.2c0.9,1.5,1.9,3.1,3.1,5c1.2-1.9,2.3-3.5,3.3-5.1
		c14.9,0,29.8,0,44.7,0c3,3.2,3.7,7.5,4.7,11.4c1.2,0.3,1.1-0.6,1.2-1c0.7-3.6,2.1-6.9,4.2-10.1c3.5-0.8,7.2-0.3,10.8-0.4
		c3.5-0.1,7,0,10.4,0c3.6,0,7.3,0,10.9,0c3.5,0,6.9,0,10.2,0c5.8,6.5,7.1,18.8,1.8,28c-5,8.8-15.1,14.1-25.2,13
		c-11.8-1.3-19.5-8.6-23.6-22.4c-1.2,0.2-1.1,1.3-1.3,2.1c-1.2,6-4.2,11-8.8,15c-2.4,2.1-5.1,3.8-8.2,4.8c-1.8,0.6-3.7,1.2-6.1,2.1
		c2.1,0.8,3.6,1.3,5.1,1.8c5,1.7,9.1,4.8,12.1,9.2c5.8,8.7,6.5,17.9,1.3,27c-5.1,8.9-13.2,13.4-23.4,12.8
		c-10.4-0.6-17.9-6.1-21.9-15.8c-5.7-13.7,2.1-28.8,14.6-33c1.5-0.5,3-1.1,4.8-1.8c-8.6-3.9-11.2-1.7-21.9-17.4
		c-5.8,8.7-4,9.3-18.4,17.7c1,0.6,1.8,1.2,2.7,1.6c8.6,4.4,13.5,11.5,14.6,21c1.5,12.6-7.7,25.4-20.2,28c-13.4,2.8-25.7-4-30.5-16.8
		c-0.6-1.5-1.1-3.1-1.8-5.3c-0.5,1.2-0.9,2-1.1,2.8c-1.2,4.6-3.3,8.8-6.6,12.3c-12.6,13.5-34.8,10.7-43.6-5.6
		c-0.8-1.4-1.5-2.8-2.5-4.8c-2.4,5-4.7,9.3-8.4,12.8c-3.8,3.4-8.3,5.4-12.9,6.9c-0.1,1.1,0.5,1.2,1,1.4c2.9,1,5.6,2.3,8.1,4.1
		c8.8,6.6,12.4,18.2,8.9,28.8c-3.3,10.1-13,17-23.8,17.3c-10.1,0.3-22.7-6-25.6-20.7c-2.4-11.8,4-23.9,15.2-28.5
		c1.3-0.5,2.5-1,3.7-1.5c0.2-0.9-0.3-1.1-0.9-1.3c-3.2-0.9-6.2-2.2-9-4.2c-3-2.1-5.5-4.7-7.5-7.8c-0.6-0.8-1.2-1.6-2-2.6
		c-2.6,3.5-4.6,7.2-7.9,9.6c-3.1,2.3-6.5,4.2-9.8,6.3c14.8,7.2,18.8,21.6,16.3,31.1c-2.8,10.6-11.7,18.9-22.7,20.1
		c-4.4,0.5-8.8,0-12.9-1.7c-4.3-1.7-7.9-4.4-10.8-8c-2.8-3.4-4.5-7.4-5.4-11.7c-1.9,0.6-1.6,1.8-1.9,2.8
		c-2.3,7.1-6.5,12.6-13.1,16.2c-13.5,7.3-30.2,2-37-11.2c-0.6-1.2-1.2-2.4-1.8-3.5c-2,3.2-3.8,6.3-6,9.2c-2.1,2.8-4.9,5-8.1,6.5
		c-3.3,1.5-6.8,2.5-10.4,3.8c0.4,0.8,1.4,0.6,2.1,0.8c6.7,1.7,12.2,5.1,16.1,10.9c8.6,13,3.1,30.8-11.3,36.9c-12,5-26.2,0-32.1-11.9
		c-5.9-11.9-1.8-26.1,9.7-32.8c3-1.7,6.4-2.7,9.8-4c-0.6-0.3-1.1-0.6-1.7-0.7c-9.4-1.8-16.3-7-20.6-15.5c-0.3-0.5-0.7-0.9-1.3-1.6
		c-2.5,4.1-4.6,8.1-8.1,11.1c-3.5,3.1-7.6,4.9-12,6.6c0.5,1.5,1.8,1.7,2.8,2.1c3.4,1.5,6.4,3.5,8.8,6.3c6.9,8,8.9,17.1,4.8,27
		c-4.1,10-12,15.5-22.8,15.9c-10.9,0.4-18.9-4.7-23.9-14.3c-7.2-13.9,0.3-29.1,12-34.6c1.2-0.6,2.4-1.2,4-1.9
		c-1.5-1.4-3.2-1.5-4.5-2.3c-1.3-0.7-2.7-1.3-4-2.1c-1.4-0.9-2.7-1.9-4-3c-1.1-1-2.1-2.1-3.1-3.3c-1.1-1.3-2-2.6-3.2-4.2
		c-1.8,1.3-2.3,3.3-3.6,4.7c-1.3,1.4-2.6,2.9-4.1,4.2c-1.4,1.2-2.9,2.2-4.4,3.1c-1.6,1-3.4,1.8-4.9,2.7c0,1.3,0.8,1.5,1.4,1.8
		c8.8,4.5,13.6,11.9,14.6,21.5c0.7,6.9-1.4,13.2-5.9,18.5c-7.1,8.4-16.4,11.5-26.9,8.6c-10.4-2.8-16.8-9.8-19-20.5
		c-2.2-10.8,3-21.9,12.6-27.4c1.1-0.6,2.6-0.8,3.3-2.5c-2.1-1.1-4.3-2.1-6.2-3.4c-1.9-1.2-3.7-2.7-5.3-4.2c-1.7-1.7-3.1-3.6-4.8-5.6
		c-2.5,2.7-4.7,5.6-7.3,7.9c-2.6,2.3-5.7,3.9-8.8,6.1c0.8,0.6,1.6,1.3,2.4,1.8c5.7,3.7,9.7,8.6,11.5,15.2c3,10.7,0.1,19.9-7.9,27.2
		c-13.8,12.5-35.4,7.1-42.2-9.8c-0.7-1.6-1.3-3.3-2-5.2c-1.4,1.3-1.5,2.9-2,4.3c-4.1,10.4-11.6,16.4-22.6,17.8
		c-10.7,1.3-21.4-4.5-26.5-14c-0.8-1.5-1.5-3-2.4-4.8c-0.6,1-1.1,1.7-1.4,2.5c-4.2,9.5-11.5,15-21.6,16.8
		c-7.7,1.3-14.7-1.1-20.8-5.8c-3.5-2.7-6.2-6.2-8-10.3c-0.4-0.9-0.9-1.9-1.5-3.3c-0.6,0.9-1.1,1.4-1.3,2
		c-3.7,8.8-10.1,14.5-19.3,17.1c-0.9,0.2-1.7,0.6-3,1c1.6,0.5,2.9,0.9,4.1,1.3c12.6,4.3,19.5,17.2,16.1,30.1
		c-2.5,9.5-11.1,16.9-20.7,17.9c-10.4,1.2-20-3.7-24.8-12.5c-7.6-14-0.9-30.8,14.3-35.7c1.1-0.4,2.3-0.7,3.7-1.1
		c-3.3-1.3-6.4-2.3-9.4-3.7c-2.9-1.4-5.4-3.3-7.5-5.8c-2.1-2.6-3.9-5.3-5.8-8c-8.3,12.8-10.2,12.8-20.9,17.5
		c1.7,0.7,3.2,1.4,4.7,2.1c10.3,4.8,16,15.7,14.1,26.9c-1.9,11.1-10.8,19.4-21.9,20.5c-11.5,1.1-21.9-5.1-26-15.7
		c-4.8-12.3,0.7-26.1,12.7-31.7c1.5-0.7,3-1.3,4.7-2.1c-10-4.6-12.4-4.2-21-17.9c-6.2,10.1-6.6,11.6-20.3,18
		c1.4,0.7,2.6,1.3,3.8,1.8c6.8,3.2,11.3,8.4,13.6,15.6c4.4,13.9-4.7,29-19,31.9c-14,2.8-28-6.3-30.1-21.8c-1.3-9.8,3.9-20,12.7-24.7
		c1.7-0.9,3.5-1.7,5.7-2.8c-2.1-1.3-4.1-1.7-5.9-2.7c-2-1.1-3.9-2.3-5.7-3.7c-1.6-1.3-3.1-2.9-4.4-4.6c-1.3-1.6-2.4-3.4-3.5-5
		c-1-0.3-1.3,0.3-1.6,0.8c-3.7,6.8-9.3,11.4-16.5,14.1c-0.5,0.2-1.1,0.5-2,0.9c1.5,0.8,2.7,1.4,3.9,2c5.4,2.6,9.4,6.5,12,11.9
		c7.2,14.9-1.9,32.1-17.3,35.5c-14.1,3.1-29.1-6.5-30.6-22.7c-0.9-9.8,4.7-19.7,13.6-24.3c1.4-0.7,3.2-1,4.5-2.5
		c-4.4-1.8-8.5-3.6-11.9-6.7c-3.3-2.9-5.4-6.8-8-10.7c-2.4,4.2-4.6,7.9-8,10.8c-3.4,3-7.3,4.8-11.5,6.4c0.5,1.8,2.1,1.7,3.2,2.2
		c5.9,2.8,10.1,7.2,12.6,13.1c6.3,15.3-3.3,31.4-18.1,34.4c-13.2,2.8-29.6-6.1-30.2-24c-0.4-10.2,4.4-18,13.5-23
		c1.4-0.8,2.9-1.4,4.8-2.3c-3.1-1.5-5.8-2.6-8.3-4.2c-2.4-1.6-4.6-3.5-6.5-5.6c-2-2.2-3.5-4.9-5.3-7.6c-1.5,1.1-1.7,3-2.8,4.3
		c-1.1,1.4-2.1,3-3.4,4.3c-1.2,1.3-2.6,2.5-4.1,3.6c-1.5,1.1-3.1,2-4.7,2.8c-1.6,0.8-3.2,1.4-5.3,2.4c1.6,0.8,2.8,1.4,4,2
		c8.4,4.2,13.2,10.9,14.3,20.2c1.5,12.4-7.1,24.3-19.2,27.1c-14.3,3.3-29.9-6-30.9-23.1c-0.6-10.2,3.8-18.2,12.8-23.4
		c1.5-0.9,3.2-1.6,4.8-2.4c-0.2-1.3-1.3-1.1-2-1.5c-0.9-0.5-1.9-0.8-2.9-1.3c-0.8-0.4-1.6-0.8-2.4-1.3c-0.8-0.5-1.5-1-2.2-1.5
		c-0.8-0.6-1.6-1.3-2.4-2c-0.7-0.6-1.3-1.3-1.9-1.9c-0.6-0.7-1.2-1.4-1.7-2.1c-0.6-0.9-1.1-1.8-1.7-2.7c-0.5-0.8-1-1.5-1.6-2.5
		c-1.6,1.2-2.2,2.9-3.2,4.3c-1,1.3-2,2.7-3.2,3.8c-1.3,1.3-2.7,2.4-4.2,3.5c-1.4,1-2.8,1.8-4.3,2.5c-1.6,0.8-3.3,1.4-5,2.1
		c0.3,1.4,1.5,1.3,2.4,1.7c5.5,2.3,9.9,5.8,12.7,11.1c4.6,8.6,4.5,17.2-0.6,25.5c-5.1,8.3-12.9,12.3-22.6,11.7
		c-15.5-0.8-26.3-14.8-23.2-30c1.6-7.9,6.2-13.7,13.4-17.3C1817.6,2079.9,1819.2,2079.3,1821.1,2078.4z M2695.6,1917.5
		c6,5.6,8.8,3.8,15.3,20.8c0.7-2,1.3-3.9,2-5.6c0.7-1.7,1.5-3.3,2.5-4.8c1.1-1.6,2.3-3.2,3.7-4.5c1.3-1.3,2.8-2.3,4.3-3.3
		c1.5-1.1,3.6-1.4,4.9-2.9c-3.4-2.2-6.8-3.9-9.6-6.3c-2.8-2.4-5-5.5-7.6-8.5c-1.4,2-2.6,4.1-4.1,5.9c-1.5,1.8-3.3,3.6-5.1,5.1
		C2700,1914.8,2697.9,1915.9,2695.6,1917.5z M1139.3,1917.1c5.1,2,9.1,4.4,12.3,7.9c3.3,3.6,4.9,8.1,6.5,12.8
		c0.2-0.3,0.4-0.4,0.4-0.5c0.2-0.6,0.4-1.1,0.6-1.7c2.1-7.5,6.5-13.2,13.3-16.9c0.5-0.2,0.8-0.8,1.1-1.1c-3.1-2.3-6.3-4.1-8.8-6.6
		c-2.7-2.5-4.8-5.6-7.1-8.5C1149.8,1911.9,1149.8,1911.9,1139.3,1917.1z M1318.5,1993.5c3.9-11.4,2.9-12.1,15.1-22
		c-2.9-2.1-6.1-3.9-8.7-6.3c-2.6-2.4-4.7-5.3-6.9-7.9c-2.6,2.7-4.9,5.6-7.7,7.9c-2.9,2.3-6.3,3.9-9.6,5.9c2.2,1.3,4.4,2.3,6.3,3.7
		c1.9,1.4,3.8,3.1,5.3,4.9c1.6,2,2.9,4.3,3.9,6.6C1317.2,1988.5,1317.6,1990.8,1318.5,1993.5z M1532.4,2011.9
		c-1.4,1.6-2.4,3.1-3.7,4.4c-1.1,1.2-2.3,2.4-3.6,3.4c-1.4,1.1-3,1.9-4.5,3c-1.4,1-3.3,1.2-4.8,2.8c1.2,0.7,2.1,1.1,3,1.7
		c2.1,1.5,4.3,2.9,6.1,4.6c3.1,2.8,5.1,6.3,6.4,10.2c0.4,1.2,0.3,2.8,1.9,3.4c0.2-0.4,0.4-0.8,0.6-1.3c2.1-7.7,6.5-13.5,13.5-17.4
		c0.4-0.2,0.7-0.8,1.1-1.2c-3-2-5.9-3.6-8.4-5.7C1537.3,2017.5,1535.1,2014.7,1532.4,2011.9z M2549.8,1991.3
		c6.5-16,9.5-15,17.2-20.3c-3-1.8-6.1-3.3-8.8-5.4c-2.8-2.2-5.1-5-7.8-7.8c-1.4,1.8-2.7,3.7-4.2,5.3c-1.7,1.8-3.5,3.4-5.4,4.8
		c-1.7,1.4-3.7,2.4-5.6,3.7C2541.7,1977.1,2544.6,1977.2,2549.8,1991.3z M1601,2025.9c-3.1-2.1-5.8-3.7-8.2-5.8
		c-2.4-2.1-4.5-4.7-6.7-7c-2.4,2.4-4.5,4.9-6.9,6.8c-2.5,2.1-5.4,3.7-8.4,5.6c0.5,0.5,0.9,0.9,1.4,1.2c6.9,3.9,11.5,9.6,13.3,17.4
		c0.1,0.6,0.7,1.1,1.1,1.9c0.8-2.3,1.3-4.4,2.2-6.3c0.8-1.8,1.7-3.5,2.8-5.1c1.2-1.7,2.7-3.3,4.2-4.7
		C1597.3,2028.5,1599.1,2027.3,1601,2025.9z M2282.3,2013.5c-0.4,0.4-1,0.7-1.3,1.1c-3.2,4.3-7.2,7.7-12,10.2
		c-0.4,0.2-0.7,0.8-1,1.2c8.5,6.6,9.5,7.9,13.3,18.1c0.2,0.4,0.4,0.8,0.9,1.8c1.4-4.8,2.9-8.6,5.3-11.9c2.5-3.4,6.1-5.7,9.7-8.3
		c-2.9-1.9-5.7-3.4-8.1-5.4C2286.7,2018.3,2284.7,2015.9,2282.3,2013.5z M1211.5,1934.8c3.6-7.2,2.6-7.8,12.4-16.7
		c-1.7-1.3-3.4-2.4-5-3.8c-1.5-1.3-2.8-2.7-4.2-4.1c-1.5-1.4-2.2-3.5-4-4.8c-0.6,0.7-1,1.1-1.4,1.6c-3,3.9-6.6,7-11,9.2
		c-0.6,0.3-1.5,0.5-1.3,1.5C1203.9,1922.8,1205.2,1922.5,1211.5,1934.8z M1639.4,2042.3c0.7-0.7,1.1-1,1.2-1.4
		c2.1-5.7,5.8-10.2,10.7-13.7c0.4-0.3,0.6-0.9,1-1.3c-2.4-1.7-4.8-3.1-6.8-4.8c-2.1-1.8-4-3.9-5.8-5.6c-1.5,1.4-2.9,2.6-4.3,3.7
		c-1.5,1.2-3,2.5-4.6,3.6c-1.4,1-2.9,1.9-4.5,2.9c2.8,2.5,5.4,4.7,7.8,7.1C1636.6,2035.3,1638,2038.5,1639.4,2042.3z M1371.4,1960.8
		c-1.5,1.5-2.8,2.9-4.2,4.2c-1.3,1.2-2.8,2.3-4.2,3.4c-1.5,1.2-3.4,1.7-5,3.3c1.7,1.2,3.2,2.2,4.6,3.3c1.3,1,2.5,2.2,3.6,3.4
		c1.2,1.4,2.2,2.9,3.1,4.4c0.9,1.5,1.6,3,2.6,4.9c1.9-3.2,3.4-6.1,5.4-8.7c2-2.5,4.6-4.6,7.1-7c-2.2-1.6-4.6-3.1-6.8-4.9
		C1375.4,1965.1,1373.6,1963,1371.4,1960.8z M2671.3,1917.4c-5.4-2.7-9.7-6.2-13.3-11.1c-1.5,1.8-2.6,3.3-4,4.7
		c-1.2,1.3-2.5,2.6-3.9,3.8c-1.5,1.2-3,2.4-4.6,3.5c2.3,2.5,4.7,4.6,6.6,7.1c1.9,2.5,3.2,5.4,4.8,8.2
		C2664.4,1920.6,2665.3,1922.4,2671.3,1917.4z M2229,2015.6c-2.1,2.1-4,4-6.1,5.8c-2,1.7-4.3,3.1-6.5,4.7c2.5,2.6,5.1,4.7,7.1,7.3
		c2,2.5,3.4,5.5,5,8.2c1.9-3.1,3.5-6.2,5.7-8.8c2.2-2.6,4.9-4.7,7.5-7c-2.5-1.6-4.8-3-6.9-4.7
		C2232.8,2019.4,2230.9,2017.4,2229,2015.6z M2484.6,1972.1c1.8,1.6,3.4,2.9,4.8,4.4c1.5,1.7,2.9,3.5,4.1,5.3
		c1.1,1.7,1.9,3.5,3.1,5.6c0.9-1.9,1.6-3.4,2.4-4.8c0.9-1.5,2-3,3.1-4.4c1.1-1.2,2.4-2.2,3.6-3.4c1.2-1.2,3.2-1.6,3.9-3.2
		c-0.4-0.5-0.6-0.7-0.8-0.9c-4.1-2.1-7.6-4.8-10.6-8.3c-0.3-0.4-0.9-0.6-1.5-0.9C2493.4,1966,2489.3,1969.2,2484.6,1972.1z
		 M1693.4,2042.3c1.2-2.4,1.9-4.4,3-6.1c1.2-1.9,2.6-3.7,4.1-5.4c1.4-1.5,3-2.9,4.7-4.4c-2.3-1.7-4.4-3.1-6.4-4.7
		c-2-1.7-3.8-3.7-5.8-5.6c-2,1.9-3.8,3.8-5.8,5.4c-2.1,1.7-4.3,3.1-6.5,4.7C1690.4,2034.7,1688.5,2033.7,1693.4,2042.3z
		 M2187.5,2026.2c-2.3-1.6-4.5-3-6.4-4.6c-2-1.7-3.9-3.6-5.9-5.5c-2,2-3.7,3.9-5.7,5.6c-1.9,1.6-4,3-6,4.6c2.4,2.5,4.8,4.6,6.7,7.1
		c1.9,2.6,3.4,5.6,5.2,8.6c1.1-2.2,2-4.3,3.2-6.2c1.1-1.8,2.4-3.4,3.9-5C2183.9,2029.2,2185.6,2027.9,2187.5,2026.2z M1413.3,1971.9
		c2.3,2.2,4.7,4.1,6.6,6.3c2,2.4,3.5,5.1,5.5,8c1.5-2.5,2.7-4.9,4.3-7c1.7-2.3,3.8-4.3,5.8-6.6c-1.9-1.5-3.8-2.9-5.6-4.5
		c-1.8-1.6-3.4-3.3-5.3-5.2c-1.9,1.7-3.6,3.4-5.5,4.9C1417.3,1969.3,1415.3,1970.5,1413.3,1971.9z M2443.4,1963.6
		c-3.5,3.1-6.8,6-10.3,9.1c1.4,1.4,2.8,2.6,3.9,4c1.2,1.4,2.2,2.9,3.3,4.3c1.1,1.4,1.3,3.4,3.3,4.8c2.3-5.6,6.2-9.7,10.8-13.4
		C2450.6,1969.4,2447.2,1966.6,2443.4,1963.6z M1789.1,2026.6c5.1,3.6,8.4,8.2,10.9,13.8c1.7-2.7,2.9-5.1,4.6-7.2
		c1.7-2.2,3.8-4.2,5.8-6.5c-1.9-1.5-3.6-2.9-5.4-4.2c-1.9-1.4-3.1-3.6-5.3-4.7c-1.8,1.6-3.3,3.1-4.9,4.4
		C1793.1,2023.7,1791.3,2024.9,1789.1,2026.6z M1746.8,2017.5c-2.1,1.8-3.7,3.4-5.4,4.8c-1.7,1.4-3.5,2.6-5.2,3.8
		c2,2.2,4,4.1,5.7,6.2c1.8,2.2,3.2,4.7,5,7.3c1.6-2.4,2.9-4.8,4.5-6.8c1.8-2.2,3.9-4.2,6.1-6.4c-1.9-1.4-3.7-2.7-5.4-4.1
		C1750.2,2020.8,1748.6,2019.2,1746.8,2017.5z M2121.9,2017.9c-3.5,3-6.9,5.7-10.4,8.7c1.9,2,3.9,3.8,5.5,5.9c1.7,2.1,3,4.5,4.7,7.1
		c1.4-1.6,1.9-3.6,3.2-5c1.2-1.4,2.3-2.8,3.5-4.2c1.2-1.5,3.2-2.2,4-4C2128.8,2023.5,2125.5,2020.8,2121.9,2017.9z M2068,2040.2
		c1.8-2.8,3.3-5.2,4.8-7.6c1.5-2.4,4.2-3.8,5.7-6.3c-1.9-1.4-3.6-2.6-5.2-3.9c-1.7-1.4-3.3-2.9-5.1-4.5c-1.7,1.6-3.3,3-4.8,4.5
		c-1.6,1.6-3.8,2.3-5.3,4.4C2062.3,2030.7,2065.8,2034.8,2068,2040.2z M1907.3,2039.3c1.5-2.3,2.7-4.6,4.2-6.6
		c1.6-2.1,3.6-4,5.6-6.2c-1.8-1.4-3.5-2.7-5.1-4c-1.6-1.4-3.1-2.8-4.8-4.3c-1.7,1.5-3.2,3-4.8,4.3c-1.6,1.3-3.3,2.6-5.1,4
		c1.9,2.1,3.7,3.8,5.3,5.8C1904.3,2034.5,1905.7,2036.9,1907.3,2039.3z M1971,2026.6c-3.6-3-6.8-5.6-10.1-8.3
		c-1.8,1.6-3.4,2.9-4.8,4.4c-1.4,1.5-3.7,2-4.7,3.9c1.9,2.1,3.8,3.9,5.3,5.9c1.5,2,2.8,4.2,4.4,6.7c1.5-2.3,2.7-4.5,4.3-6.5
		C1967.1,2030.7,1969,2028.8,1971,2026.6z M1863.3,2026.7c-3.5-2.8-6.5-5.3-9.5-7.8c-3.2,2.6-6.3,5.2-9.7,7.9
		c1.3,1.3,2.5,2.4,3.6,3.7c1.1,1.2,2.1,2.6,3.1,3.9c1,1.3,1.4,2.9,3.1,4C1856.4,2033.9,1859.5,2030.2,1863.3,2026.7z M1254.1,1918.3
		c1.4,1.2,2.8,2.3,4.1,3.6c1.2,1.2,2.2,2.5,3.3,3.7c1.2,1.3,1.6,3.1,3.1,4.1c2.9-3.7,5.6-7.2,8.6-11c-1.4-1.3-2.9-2.7-4.6-3.9
		c-1.8-1.3-2.6-3.7-4.8-4.4C1260.6,1913.1,1257.4,1915.6,1254.1,1918.3z M2014.5,2038.7c1.8-2.6,3.1-4.5,4.5-6.5
		c1.4-2.1,3.8-3.4,5.1-5.7c-1.7-1.3-3.2-2.5-4.8-3.6c-1.7-1.2-2.7-3.2-4.7-3.9c-3.1,2.6-6.1,5.1-9.3,7.7
		C2008.7,2030.2,2012.1,2033.6,2014.5,2038.7z M2604.1,1929.5c2.2-4.6,5.6-7.7,9.3-11c-1.7-1.3-3.2-2.6-4.8-3.7
		c-1.6-1.1-2.6-2.9-4.6-3.7c-2.5,3.1-5.8,5.2-8.3,8C2598.5,1922.5,2601,1925.6,2604.1,1929.5z M1479.1,1983.3
		c2.7-3.6,5.3-6.9,7.9-10.4c-2.8-2.4-5.6-4.9-8.4-7.3c-3,2.4-5.8,4.7-8.4,6.9C1473.2,1976.2,1476.1,1979.6,1479.1,1983.3z
		 M2390.3,1966.1c-2.7,2.4-5.2,4.5-7.8,6.8c2.4,3.1,4.8,6.1,7.4,9.4c1.4-1.8,2.6-3.5,3.9-5.1c1.3-1.7,3.4-2.8,4.4-4.9
		C2395.5,1970.2,2393,1968.3,2390.3,1966.1z M1318,1927.5c1.8-2.5,3.6-4.9,5.4-7.4c-2.4-2.1-4.3-4.7-7.2-6.2c-1.8,2-4.3,2.9-5.6,5.1
		C1313.2,1921.9,1315.5,1924.6,1318,1927.5z M2342.9,1973.1c-1.9-2.1-3.9-3.7-6.2-5c-1.2,1.1-2.3,1.9-3.2,2.8
		c-0.9,0.9-2.4,1.3-2.5,3c1.3,1.8,2.7,3.6,4.1,5.3c0.4,0.5,1,0.9,1.6,1.4C2338.8,1978,2340.8,1975.6,2342.9,1973.1z M2551.5,1914.1
		c-2.2,2-4.5,3.7-6.1,6.1c1,1.2,1.8,2.3,2.6,3.4c0.8,1,1.5,2.1,2.5,3.4c1.3-1.5,2.4-2.8,3.3-4.1c1.1-1.4,2.7-2.3,3.6-4.1
		C2555.3,1917.2,2553.5,1915.7,2551.5,1914.1z M1526.2,1973.1c2.2,2.6,4.2,4.9,6.4,7.5c2.1-2.4,3.8-4.5,5.5-7
		c-2.2-1.8-3.9-3.9-6.5-5C1529.8,1970.1,1528.1,1971.5,1526.2,1973.1z M1586.7,1969.1c-2.1,1.6-4,2.8-5.4,5c1.7,1.6,2.8,3.8,4.9,5.5
		c1.7-2.3,3.7-4,4.9-6.7C1589.6,1971.6,1588.3,1970.5,1586.7,1969.1z M2282.1,1978.9c2.1-1.6,3.5-3.4,4.7-5.5
		c-1.6-1.7-3.1-3.1-5-4.1c-1.8,0.9-3.2,2.1-4.4,3.8C2279,1975.2,2280.5,1977,2282.1,1978.9z M1639.3,1977.4c1.8-1.7,3.1-3.1,4.3-5.4
		c-0.6-0.4-1.3-0.8-1.9-1.2c-0.6-0.4-1.2-0.7-2-1.2c-1.3,1.2-2.5,2.2-3.9,3.5C1637.1,1974.6,1638.1,1975.8,1639.3,1977.4z
		 M1689.7,1972.7c0.9,1.5,1.8,2.8,3.5,3.5c1.5-1.2,2.6-2.6,3.6-4.4c-1.1-0.9-2.1-1.7-3.2-2.6
		C1692,1970.2,1690.7,1971.1,1689.7,1972.7z M1372.2,1916.6c-1.4,1.2-2.6,2.3-4.1,3.5c1.1,1.3,2.1,2.4,3.1,3.5
		c1.9-1.3,3.1-2.7,3.9-4.7C1374.2,1918.2,1373.3,1917.5,1372.2,1916.6z M2228.4,1969.5c-1.1,1-1.9,1.6-2.7,2.3
		c-0.2,0.2-0.2,0.5-0.3,1.2c1.1,1,1.8,2.7,3.5,3.6c1.5-0.9,2.6-2.1,3.2-4C2231,1971.7,2229.9,1970.8,2228.4,1969.5z M2178.4,1972.7
		c-0.6-1.5-1.9-2.5-3.4-3.3c-1.4,0.6-2.6,1.3-3.2,3c1.1,1.2,2.1,2.4,3.1,3.6C2176.8,1975.4,2177.4,1974,2178.4,1972.7z M2500,1920
		c-1.5-1.3-2.6-2.2-3.5-3c-1.7,0.2-2.4,1-2.7,2.4c1,1.1,1.7,2.7,3.4,3.5C2498.1,1922,2498.9,1921.2,2500,1920z M1422.6,1919.5
		c0.6,0.6,1.3,1.3,2.1,2.3c1.1-1.4,2.1-2.4,3.4-4c-0.7-0.6-1.3-1.1-1.8-1.5C1424.6,1917,1423.4,1917.8,1422.6,1919.5z M1800.9,1969
		c-1.9,1.2-3.3,1.7-3.4,3.5c0.7,0.6,1.5,1.3,2.2,1.9c1.5-0.8,2.5-1.5,2.8-3.7C1802.3,1970.3,1801.7,1969.7,1800.9,1969z
		 M1746.4,1974.8c1.6-0.8,2.6-1.6,2.8-3.3c-0.7-0.6-1.5-1.2-2.4-1.9c-1,0.9-1.8,1.7-2.7,2.5
		C1745,1973.1,1745.6,1973.9,1746.4,1974.8z M2070.9,1971.6c-1.2-1-1.9-1.7-2.7-2.4c-1.2,0.6-2.3,1.1-2.2,2.9
		c0.7,0.6,1.5,1.4,2.5,2.3C2069.3,1973.4,2069.9,1972.7,2070.9,1971.6z M2124.1,1972.3c-2.4-3-2.6-3.1-4.7-0.3
		c0.7,0.8,1.5,1.6,2.5,2.7C2122.8,1973.7,2123.4,1973,2124.1,1972.3z M2443.5,1921.3c2.1-2.4,2.1-2.9,0.4-4.2
		c-1.2-0.9-1.5-0.8-3.1,1.3C2441.6,1919.2,2442.4,1920.1,2443.5,1921.3z M1907.5,1969.3c-1.4,0.5-2.4,1.1-2.3,2.8
		c0.6,0.6,1.4,1.2,2.3,2c0.8-0.9,1.5-1.7,2.4-2.6C1908.9,1970.6,1908.1,1970,1907.5,1969.3z M1958.7,1971.5c0.9,0.9,1.6,1.6,2.2,2.3
		c2.5-1.8,2.8-2.3,2-3.3C1961.7,1969.1,1961,1969.3,1958.7,1971.5z M1853.9,1969.4c-0.7,1-1.5,1.5-1.6,2.2c-0.1,0.4,0.7,1.2,1.3,1.5
		c0.6,0.3,2-0.7,1.8-1.4C1855.3,1971,1854.6,1970.4,1853.9,1969.4z M2015.1,1973.1c0.3-0.5,0.9-1.1,1.1-1.8c0.2-0.7-1.2-1.7-1.8-1.4
		c-0.6,0.3-1.1,1-1.3,1.6C2012.9,1972.3,2013.9,1973.2,2015.1,1973.1z M1479.8,1916.6c-0.3,0.1-0.5,0.1-0.6,0.1
		c-0.7,0.4-1.2,0.8-0.9,1.7c0,0.1,0.2,0.2,0.3,0.2c0.9,0,1.3-0.5,1.4-1.3C1480,1917.2,1479.9,1917,1479.8,1916.6z M1103.3,1942.3
		c0-12.3-8.4-24.5-24.9-25.4c-13.4-0.7-25.1,11.5-25.1,25.1c0,13.9,11,25.1,24.9,25.2C1092,1967.4,1103.3,1956.2,1103.3,1942.3z
		 M1423.8,2050.5c0.3-13.8-10.8-25.3-24.7-25.4c-14.4-0.1-25.1,11.7-25.1,25c0.1,13.7,11.1,24.8,24.7,24.9
		C1412.4,2075.1,1423.5,2064.1,1423.8,2050.5z M2683.3,1971.4c-13.5,0-24.9,11.3-24.7,25c0.2,13.6,10.9,24.5,24.6,24.5
		c13.9,0.1,24.8-10.8,24.8-24.7C2708.3,1983.1,2697.5,1971.4,2683.3,1971.4z M1185.2,1971.6c-14-0.1-24.8,11.4-24.6,24.8
		c0.1,13.5,11.2,24.3,24.7,24.3c13.6-0.1,24.4-11,24.4-24.6C1209.9,1984.9,1201,1971.7,1185.2,1971.6z M2202,2078.6
		c-13.5-0.1-24.5,10.9-24.6,24.4c0,13.5,10.9,24.5,24.4,24.6c13.5,0.1,24.5-10.9,24.6-24.4C2226.4,2089.6,2215.5,2078.6,2202,2078.6
		z M2522.8,2025.6c-14.1-0.2-24.6,11-24.8,24.2c-0.2,12.8,9.6,24.6,24.2,24.8c14.2,0.2,24.6-11.1,24.7-24.2
		C2547.2,2037.6,2537.5,2025.8,2522.8,2025.6z M1642.1,2103.3c0.1,13.9,11.2,24.4,24.7,24.2c14-0.2,24.1-11.2,24.1-24.4
		c-0.1-15.2-12.1-24.5-24.5-24.4C1654.2,2078.7,1642,2088.1,1642.1,2103.3z M1346.2,2025.8c-13-0.2-24.6,9.7-24.6,24.4
		c0,14.3,11.3,24.3,24.3,24.3c13.5,0,24-10.4,24.4-24.2C1370.1,2036.6,1359.9,2026,1346.2,2025.8z M2819.9,1942.3
		c0,13.5,10.4,24.3,24.2,24.3c14.4,0,24.2-11.3,24.2-24.2c0-13.3-9.9-23.9-24.2-24.3C2830.5,1918.3,2819.9,1928.4,2819.9,1942.3z
		 M2279,2103.3c0.1-12.8-9.7-24.2-24.1-24.3c-13.2-0.1-24,10.7-24.1,23.9c-0.1,13.5,10.6,24.3,24.1,24.3
		C2268.6,2127.2,2278.8,2116.2,2279,2103.3z M1637.6,2103.4c0.2-13.4-10.6-24.4-24-24.4c-13.3,0-23.9,10.6-24,23.9
		c-0.1,13.4,10.4,24,23.8,24.1C1626.4,2127.3,1637.4,2116.8,1637.6,2103.4z M1024.1,1918.4c-13.4,0.1-23.8,10.6-23.8,24
		c0.1,13.3,10.7,23.8,24.1,23.7c13.4-0.1,23.8-10.7,23.7-24.1C1048.1,1928.7,1037.6,1918.3,1024.1,1918.4z M2737.4,1972.3
		c-13.3,0-24,10.5-24,23.8c0,13.1,10.4,23.6,23.5,23.8c14.4,0.3,24.3-11.7,24.3-23.6C2761.3,1983.1,2750.6,1972.4,2737.4,1972.3z
		 M1007.2,1908.6c10,8.8,24.9,8.6,34.7-0.3c9.7-8.9,10.9-24.4,3.4-33.6c-3.4-0.5-35.6-0.6-41.8-0.2
		C995.7,1885.3,997.3,1900,1007.2,1908.6z M2332.6,2103.3c0.2-13.3-10.5-24-23.8-24c-13.2,0-23.6,10.4-23.6,23.6
		c0,13.2,10.4,23.7,23.5,23.8C2321.6,2127,2332.4,2116.3,2332.6,2103.3z M2576.8,2026.4c-13.2-0.2-23.8,10.4-24.1,23.3
		c-0.3,13.2,10.5,24.1,23.7,24.1c13.1,0,23.7-10.5,23.8-23.5C2600.3,2037.2,2589.9,2026.6,2576.8,2026.4z M1559.8,2126.7
		c13,0,23.8-10.8,23.6-23.8c-0.2-13.7-11.2-23.6-23.8-23.6c-13.1,0.1-23.6,10.6-23.5,23.7
		C1536.1,2116.3,1546.7,2126.8,1559.8,2126.7z M1155.8,1996.1c0-13.1-10.6-23.6-23.7-23.6c-13.1,0-23.6,10.5-23.6,23.7
		c0,13.2,10.4,23.6,23.7,23.6C1145.3,2019.7,1155.8,2009.3,1155.8,1996.1z M1291.9,2073.6c13.1,0,23.7-10.5,23.7-23.6
		c0-12.9-10.3-23.3-23.3-23.5c-13.2-0.2-23.8,10.2-23.8,23.3C1268.4,2063.1,1278.8,2073.6,1291.9,2073.6z M2362.4,2079.8
		c-13.8,0.2-22.9,10.9-23.1,23.2c-0.2,12.8,10.5,23.5,23.3,23.4c12.7-0.1,23-9.8,23.3-23.4
		C2385.6,2089.3,2375.4,2079.6,2362.4,2079.8z M1506.9,2079.9c-13.7-0.2-23.4,10.8-23.5,23.1c0,12.7,10.2,23.1,23,23.2
		c12.8,0.2,23.5-10.3,23.5-23.2C1529.9,2092.1,1521.9,2080.1,1506.9,2079.9z M2920.3,1943.2c0.4-12.9-9.5-23.7-22.5-24.1
		c-12.8-0.3-23.5,9.2-23.8,22.7c-0.3,13.6,10.6,23.5,22.5,23.6C2910.6,1965.9,2920,1954.1,2920.3,1943.2z M2880,1907.5
		c9.5,9,24.1,9.1,33.9,0.4c9.6-8.5,10.9-22.9,3.2-33.2c-3.8-0.5-36-0.5-39.8,0C2870.6,1881.8,2869.2,1897.3,2880,1907.5z
		 M2629.5,2027.1c-12.6,0-22.8,10-23,22.6c-0.2,12.8,9.9,23.2,22.7,23.4c12.8,0.1,23.1-10,23.2-22.8
		C2652.4,2037.4,2642.3,2027.2,2629.5,2027.1z M954.3,1907.3c9.8,9.2,24.8,9,34.4-0.4c9.5-9.2,9.4-24.8,1.9-32.5
		c-12.8,0-25.8,0-38.7,0C944,1883.9,945.1,1898.6,954.3,1907.3z M2813.2,1995.9c-0.1-11.9-10.3-22.9-23.3-22.7
		c-12.2,0.2-22.6,10.4-22.6,23c0,12.6,10.4,23.2,23.1,22.9C2803,2019.2,2813.3,2008.4,2813.2,1995.9z M971.4,1919.4
		c-12.6,0-23,10.3-22.9,23c0.1,12.6,10.8,22.7,22.8,22.8c12.2,0,23.3-10.5,22.9-23.1C994.4,1930.1,984.1,1919.4,971.4,1919.4z
		 M1239,2027.3c-11.8,0-22.8,9.4-22.8,22.8c0,13.6,11.2,22.9,22.8,22.8c12.6,0,22.8-10.2,22.8-22.8
		C1261.8,2037.4,1251.6,2027.3,1239,2027.3z M2415.7,2080.4c-12.5,0-22.6,9.9-22.8,22.3c-0.2,12.5,10,23,22.5,23.2
		c12.6,0.1,22.9-10,23-22.6C2438.4,2090.5,2428.4,2080.4,2415.7,2080.4z M1452.7,2125.7c12.8,0,22.6-10.1,22.7-22.4
		c0.2-13.2-10.4-22.7-22.2-22.9c-12.8-0.2-23,9.7-23.2,22.3C1429.9,2114.7,1439.3,2125.7,1452.7,2125.7z M1100.9,1996.2
		c0.1-13.1-10.6-22.9-22.7-22.9c-12.4,0.1-22.5,10-22.7,22.4c-0.2,12.7,9.8,22.9,22.5,23C1089,2019.2,1100.8,2010.5,1100.9,1996.2z
		 M2929.7,1900.1c4.6,8.6,12,13.3,21.7,13.1c18.7-0.4,29.2-20,20.3-35.9c-1.3-2.2-2.8-3.1-5.4-3.1c-10.4,0.1-20.8,0.1-31.2,0.1
		c-0.7,0-1.5,0.1-2.4,0.1C2926.7,1880.7,2925.3,1891.7,2929.7,1900.1z M2469.4,2080.9c-12.5,0.1-22.1,9.9-22,22.3
		c0.1,12.1,9.8,22.1,22.3,22c12.3-0.1,22.1-10,22-22.3C2491.7,2090.6,2481.7,2080.8,2469.4,2080.9z M2683.4,2028
		c-11.4-0.1-22.3,9.1-22.2,22.2c0.1,13.3,11.4,22.2,22.4,22c11.2-0.2,21.9-9.3,21.7-22.2C2705.4,2037.3,2695,2028,2683.4,2028z
		 M2929,1942.1c-0.1,12.4,10.4,22.1,21.8,22.2c11.1,0.1,22.4-9.1,22.2-22.2c-0.2-12.3-9.7-21.9-22-21.9
		C2938.5,1920.2,2929,1930.6,2929,1942.1z M900.8,1906c9.1,8.9,23.1,9.4,32.7,0.4c9.1-8.4,9.9-22.5,1.8-32.1c-11.9,0-24,0-35.9,0
		C891.4,1883.5,892,1897.4,900.8,1906z M1376.9,2102.8c-0.1,12.2,9.4,22,21.6,22.3c12.2,0.3,22.4-9.7,22.4-21.9
		c0-12.8-10.6-22.2-21.8-22C1387.3,2080.8,1377,2090.4,1376.9,2102.8z M1185.2,2028.1c-11.9-0.1-22,9.6-22.1,21.8
		c-0.1,12.5,10.2,22,21.8,22.1c12.4,0.1,22.2-10.2,22-21.8C1207.3,2038.7,1197.9,2028.3,1185.2,2028.1z M2866,1996.2
		c0-12.2-9.7-22-21.8-22c-12.1,0-22,9.8-22,21.9c0,12.1,9.7,21.9,21.9,22C2856.3,2018.1,2866,2008.5,2866,1996.2z M2010.1,2157
		c0-12.1-9.7-22-21.8-22c-12.2,0-21.9,9.6-21.9,21.8c-0.1,12.3,9.4,21.9,21.7,22C2000.3,2178.8,2010,2169.2,2010.1,2157z
		 M1956.1,2157.1c0.2-12.3-10.3-22.2-21.7-22.1c-12.2,0.1-22,9.6-22.1,21.8c-0.1,12.3,9.4,21.9,21.7,22
		C1946.4,2178.9,1955.9,2169.4,1956.1,2157.1z M2063,2156.7c-0.1-11.8-9.9-21.6-21.8-21.6c-12.1,0-21.9,9.7-21.9,21.9
		c-0.1,11.9,9.8,22.1,22,21.7C2053.5,2178.6,2063.1,2168.9,2063,2156.7z M1902.2,2156.9c0-12.1-9.9-21.9-22-21.8
		c-12,0.1-21.5,9.7-21.6,21.7c-0.1,12.4,9.4,21.9,21.7,22C1892.5,2178.7,1902.2,2169.1,1902.2,2156.9z M917.8,1920.5
		c-11.8-0.2-22.1,9-22.2,21.6c-0.1,11.9,9.6,22,21.8,22c11.8,0,21.6-9.8,21.7-21.7C939.3,1930.4,929.8,1920.7,917.8,1920.5z
		 M1827.5,2135.1c-12-0.1-21.9,9.8-21.9,21.9c0,12.2,9.8,21.7,22.1,21.6c12-0.1,21.4-9.7,21.4-21.8
		C1849,2144.9,1839.4,2135.2,1827.5,2135.1z M1024.6,1974.4c-13.3-0.2-22.1,10.7-22,21.8c0,11.9,9.8,21.6,21.7,21.7
		c12,0,21.7-9.6,21.8-21.5C1046.2,1985.3,1037.6,1974.6,1024.6,1974.4z M2095,2135.2c-11.1,0-21.7,8.9-21.8,21.6
		c-0.1,13,10.6,22,21.9,21.8c12-0.2,21.5-9.8,21.5-21.8C2116.7,2145,2106.9,2135.2,2095,2135.2z M1795,2157.1
		c0.1-11.9-9.6-21.8-21.5-21.9c-11.8-0.1-21.7,9.8-21.9,21.5c-0.1,11.9,9.6,21.7,21.5,21.8C1785.3,2178.6,1795,2169.1,1795,2157.1z
		 M2522.3,2081.5c-11.7,0.1-21.3,9.8-21.4,21.4c-0.1,11.8,9.8,21.7,21.6,21.7c11.9,0,21.6-9.8,21.6-21.7
		C2544,2091,2534.2,2081.3,2522.3,2081.5z M2148.2,2135.4c-11.8-0.2-21.7,9.7-21.7,21.6c0,11.8,9.6,21.4,21.4,21.4
		c11.8,0,21.4-9.5,21.4-21.3C2169.5,2145.3,2160,2135.6,2148.2,2135.4z M1367.2,2103.2c0.1-13-9.9-21.4-21.1-21.6
		c-11.7-0.2-21.5,9.5-21.6,21.2c-0.1,11.8,9.4,21.4,21.2,21.5C1357,2124.6,1367.1,2115.9,1367.2,2103.2z M1720.5,2135.5
		c-10.3-0.1-21.3,7.9-21.4,21.4c0,12.8,9.9,21.3,21.3,21.4c11.8,0.1,21.4-9.5,21.4-21.3C1741.9,2145.3,1732.2,2135.6,1720.5,2135.5z
		 M2982.3,1895.8c2.9,8.8,9,14.3,18.1,15.7c9.5,1.5,17.4-1.9,22.6-10.1c5.1-8,4.8-16.2,0.1-24.4c-1.2-2-2.7-2.9-5.1-2.9
		c-9.5,0.1-19,0-28.5,0.1c-0.7,0-1.5,0.1-2.6,0.2C2981.7,1881,2979.7,1888,2982.3,1895.8z M2202.3,2135.7
		c-11-0.2-21.5,8.8-21.6,21.1c-0.1,11.9,9.3,21.4,21.2,21.3c12.1,0,21.3-9.9,21.1-21C2223.3,2144.8,2212.7,2135.9,2202.3,2135.7z
		 M842.5,1893.6c1.8,9,8.5,15.8,17.4,17.6c8.9,1.8,18.2-1.8,23-9.2c5.3-8.1,5.3-16.4,0.4-24.8c-1.3-2.2-2.9-3-5.5-3
		c-9.1,0.1-18.1,0-27.2,0.1c-0.9,0-1.8,0.1-3,0.2C843,1880.2,841,1886.4,842.5,1893.6z M2737.3,2028.9c-11.8,0-21.3,9.6-21.2,21.3
		c0.1,11.6,9.5,21,21.1,21c11.8,0,21.3-9.6,21.3-21.3C2758.4,2038.3,2748.9,2029,2737.3,2028.9z M1645.5,2156.7
		c-0.1,11.7,9.1,21,20.8,21.3c11.2,0.2,21.4-8.7,21.3-21.1c0-13.2-11.2-21.4-20.9-21.1C1656.4,2135.5,1645.6,2144.1,1645.5,2156.7z
		 M1132.2,2029.1c-11.6,0-20.8,9-21,20.6c-0.3,10.9,8.4,21.2,20.7,21.3c11.7,0.1,21.2-9.1,21.3-20.8
		C1153.5,2039.5,1144.5,2029.1,1132.2,2029.1z M2234,2156.7c-0.1,11.5,9.1,20.8,20.5,21.1c10.7,0.3,21.2-8.2,21.2-20.8
		c0-11.8-9.5-20.8-20.7-21C2243.7,2135.9,2234.1,2145.3,2234,2156.7z M1634.4,2156.8c-0.2-12.2-10-20.8-21-20.6
		c-12.1,0.2-20.7,10.1-20.6,21c0.1,11.4,9.5,20.6,21,20.6C1625.2,2177.6,1634.6,2168.2,1634.4,2156.8z M3003.8,1921.5
		c-11.5,0.1-20.8,9.5-20.7,20.9c0.1,11.3,9.7,20.7,21,20.6c11.4-0.1,20.7-9.5,20.6-21C3024.5,1930,3014.8,1921.4,3003.8,1921.5z
		 M2896.9,1975.3c-11.4,0.1-20.7,9.5-20.6,21c0.1,11.5,9.4,20.7,20.9,20.6c11.5-0.1,20.7-9.4,20.6-20.9
		C2917.8,1984.6,2908.3,1975.3,2896.9,1975.3z M2576.4,2082.3c-11.3,0.1-20.7,8.9-20.7,20.8c0,12.2,9.9,20.8,20.8,20.8
		c11.4,0,20.7-9.4,20.7-20.9C2597.1,2091.5,2587.9,2082.2,2576.4,2082.3z M1292.2,2082.4c-11.8-0.1-20.7,9.1-20.8,20.7
		c-0.1,11.4,9.6,20.8,20.9,20.6c11.2-0.2,20.4-9.6,20.4-20.7C1312.4,2091.4,1303.5,2082.5,1292.2,2082.4z M885,1942.5
		c0.2-12.1-9.1-20.5-20.1-20.8c-11.3-0.2-20.6,8.3-20.9,20c-0.3,11.6,9,20.8,19.9,21C874.5,1963.1,884.8,1955.1,885,1942.5z
		 M971.6,1975.6c-11.4-0.2-20.8,9.2-20.8,20.6c0.1,11.3,9.2,20.4,20.5,20.5c11.3,0,20.5-9.1,20.5-20.4
		C991.9,1985,982.9,1975.8,971.6,1975.6z M2288.3,2156.9c-0.1,11.3,9.2,20.6,20.5,20.6c11.1,0,20.2-9,20.4-20.1
		c0.2-11.2-9-20.7-20.2-20.8C2297.8,2136.4,2288.4,2145.6,2288.3,2156.9z M1580,2157.3c0.2-11.2-8.9-20.6-20.2-20.7
		c-11.1-0.1-20.4,8.9-20.4,20c-0.1,11.2,8.3,20.4,20.2,20.7C1570.6,2177.4,1579.8,2168.4,1580,2157.3z M3072.6,1874.4
		c-9.4-0.1-18.7-0.1-28.1-0.2c-1.5,0-2.6,0.7-3.4,1.8c-4.8,6.4-5.9,13.5-3.1,21c3.7,9.7,12.6,13.7,19.6,13.6
		c9.1-0.2,15.7-4.4,19.8-12.7c3.3-6.7,2.3-17.5-4.4-23.4C3072.9,1874.5,3072.8,1874.4,3072.6,1874.4z M2790.4,2029.9
		c-11.5-0.1-20.3,9.1-20.4,19.9c-0.1,11.5,9.2,20.5,20.3,20.5c11.5,0,20.4-9.5,20.1-20.2C2810.7,2039.6,2802,2030,2790.4,2029.9z
		 M804.5,1909.5c8.5,2.6,17.9-0.6,23.3-8c5.3-7.4,5.2-17.3-0.1-24.6c-1.4-1.9-2.8-2.8-5.3-2.7c-8,0.1-16,0-24,0.1
		c-0.9,0-1.8,0.1-2.6,0.2C785.3,1884.5,788.1,1904.4,804.5,1909.5z M2649.4,2103.1c0.1-11.1-8.7-19.9-19.8-20
		c-11.3-0.1-20.2,8.8-20.1,20.1c0.1,11,9,19.9,20,19.9C2640.4,2123.1,2649.3,2114.1,2649.4,2103.1z M2362.9,2137.1
		c-10.9-0.1-20,8.8-20.1,19.7c-0.1,11,8.8,20,19.8,20c11.1,0.1,20-8.7,20.1-19.7C2382.6,2146.1,2373.9,2137.1,2362.9,2137.1z
		 M1098.1,2050.3c0.1-11.3-8.8-20.2-20.1-20.1c-11.1,0.1-19.7,8.8-19.7,19.9c0,11.1,8.7,19.8,19.8,19.9
		C1089.2,2070,1098.1,2061.3,1098.1,2050.3z M1238.8,2083.2c-10.8,0.1-19.5,8.9-19.6,19.7c0,10.5,8.1,19.9,19.8,20
		c11.7,0,20-9.7,19.7-20C1258.7,2091.9,1249.9,2083.1,1238.8,2083.2z M1526.5,2156.9c0-10.8-8.7-19.6-19.5-19.8
		c-10.9-0.2-20,8.7-20.1,19.6c-0.1,11,8.7,20,19.7,20C1517.6,2176.8,1526.5,2167.9,1526.5,2156.9z M2931.4,1995.6
		c-0.3,11.4,8.4,19.7,19,20.2c9.2,0.4,19.9-6.1,20.3-19.4c0.3-11.6-8.9-19.6-19.2-20C2941.3,1976.4,2931.7,1984,2931.4,1995.6z
		 M3077.3,1942.4c0.1-10.8-8.7-19.8-19.5-19.6c-9.8,0.1-19.2,7.2-19.3,19.3c-0.1,12.9,10.5,19.8,19.4,19.6
		C3068.5,1961.7,3077.2,1953.1,3077.3,1942.4z M2396.3,2156.9c-0.1,8.8,6.7,19.3,19.3,19.3c11.6,0,19.3-9,19.4-19.2
		c0.1-10.6-8.6-19.3-19.3-19.4C2405,2137.6,2396.4,2146.3,2396.3,2156.9z M1472,2156.9c0-10.6-8.4-19-18.9-19.2
		c-10.3-0.3-19.5,8.5-19.6,19.1c-0.1,10.1,8.1,19.5,19.2,19.4C1463.5,2176.2,1472,2167.7,1472,2156.9z M936.7,1995.9
		c-0.2-11.7-10.1-19.3-19.6-19.1c-9.9,0.2-18.9,8.5-18.9,19.3c0,10.1,8.2,19.4,19.4,19.2C928.3,2015.3,936.8,2006.6,936.7,1995.9z
		 M3112,1874.2c-3.8,0-7.6,0-11.3,0c-1.5,0-2.6,0.4-3.6,1.6c-4.7,5.4-6.5,11.6-4.6,18.5c2.7,9.8,10.9,15.6,21.1,14.7
		c8-0.6,13.7-4.9,16.6-12.2c3-7.5,1.8-14.5-3.4-20.8c-1.2-1.4-2.6-1.9-4.4-1.9C3119,1874.3,3115.5,1874.2,3112,1874.2
		C3112,1874.2,3112,1874.2,3112,1874.2z M2844,2031c-10.5,0-19,8.6-19.1,19c-0.1,10.6,8.7,19.4,19.3,19.3c11.4-0.1,19.2-9.3,19-19
		C2863.5,2040.2,2855.4,2031,2844,2031z M2664.3,2102.7c-0.1,10.7,8.4,19.4,19.1,19.4c10.6,0,18.9-8.4,19-19
		c0.2-10.6-8.8-19.3-18.8-19.1C2674,2083.6,2664.4,2091.6,2664.3,2102.7z M810.7,1961.4c10.4-0.1,19-8.8,18.9-19.3
		c-0.1-10.6-8.6-19-19.2-18.9c-10.6,0.1-18.9,8.4-18.8,19.2C791.6,1953,800.2,1961.4,810.7,1961.4z M775.4,1897.6
		c3.5-7.6,2.3-14.7-2.9-21.2c-1.2-1.5-2.6-2.2-4.7-2.2c-6.6,0.1-13.3,0.2-19.9,0c-2.6-0.1-4.3,0.9-5.7,2.9
		c-4.8,6.4-5.7,13.3-2.4,20.5c3.4,7.4,9.5,11,17.6,11.5C765.6,1908.7,771.9,1905.2,775.4,1897.6z M1166.2,2102.9
		c-0.1,10.4,8.5,19.1,19,19.1c10.3,0,18.7-8.5,18.8-18.8c0.1-10.5-8.4-19.1-19-19C1174.7,2084.2,1166.3,2092.6,1166.2,2102.9z
		 M1024.7,2031.2c-10.3-0.3-19,8-19.3,18.2c-0.3,9.7,7,19.1,18.6,19.4c10.1,0.3,18.9-7.4,19.3-18.2
		C1043.5,2040.4,1035.7,2031.6,1024.7,2031.2z M2488.3,2156.9c0.1-10-8.4-18.5-18.4-18.7c-9.1-0.2-18.8,6.8-19,18.5
		c-0.1,10.8,8.2,18.7,18.6,18.9C2479.9,2175.6,2488.1,2167.6,2488.3,2156.9z M1398.7,2175.6c10.3,0.1,18.8-8.3,18.7-18.7
		c0-10.4-8.5-18.7-18.8-18.6c-10.1,0.1-18.4,8.6-18.3,18.7C1380.3,2167.1,1388.5,2175.4,1398.7,2175.6z M3022.2,1996
		c-0.1-10.1-8.1-18.1-18.1-18.2c-10.2-0.1-18.5,8.2-18.4,18.4c0.1,10.1,8.1,18.1,18.2,18.1C3014.2,2014.4,3022.3,2006.4,3022.2,1996
		z M1916.1,2209.8c0.1,10,8.2,18.2,18.2,18.1c9.9,0,17.9-7.9,18.1-17.8c0.2-10.1-8.2-18.5-17.9-18.3
		C1924.1,2191.6,1916,2200.4,1916.1,2209.8z M1880.4,2228c9.8,0,17.9-8.1,18-17.8c0.1-9.5-7.7-18.3-18.1-18.2
		c-10.2,0.1-18.2,7.9-18.2,18C1862,2219,1869.4,2228,1880.4,2228z M2719.2,2103.2c0.1,9.9,7.9,17.9,17.8,18c10,0.1,18.2-8,18.3-18
		c0-10.1-8-18.2-18.1-18.2C2727.1,2085,2719.2,2093,2719.2,2103.2z M2540.6,2157.2c0.2-9.7-7.7-18.2-18-18.4
		c-9.9-0.1-18.2,8.4-18.1,18.2c0.1,9.8,8.2,17.8,18,17.8C2532.4,2175,2540.4,2167.1,2540.6,2157.2z M3181.9,1896.3
		c2.8-7.2,1.1-15.3-4.4-20.4c-1.2-1.1-2.4-1.7-4-1.7c-5.7,0-11.5,0.1-17.2,0c-1.8,0-3.1,0.6-4.4,1.9c-5.4,5.2-7,13.3-4.1,20.5
		c2.8,6.7,9.8,11.3,17.1,11.3C3172.3,1907.7,3179.2,1903.1,3181.9,1896.3z M2023.1,2209.6c-0.1,10.1,7.8,18.2,17.9,18.3
		c10,0.1,18.2-8.1,18.1-18.1c-0.1-9.9-8-17.8-17.9-17.8C2031.2,2192,2023.3,2199.7,2023.1,2209.6z M1970.1,2210.2
		c0.1,9.9,8,17.8,17.9,17.8c10.1,0,18.1-8,18.1-18.1c0-10.2-8.4-18.3-18.2-18C1977.8,2192,1970,2199.9,1970.1,2210.2z M882.4,1996.3
		c0.2-9.9-8.3-18.2-18.2-18c-9.8,0.1-17.8,8.3-17.8,18.1c0.1,9.8,8.2,17.8,18,17.8C874.2,2014,882.2,2006.4,882.4,1996.3z
		 M3129.8,1942.5c0.1-10.1-7.8-17.9-17.6-18.2c-10-0.2-18.3,7.9-18.4,17.8c0,9.8,8,17.8,17.8,17.9
		C3121.4,1960.2,3129.6,1952.5,3129.8,1942.5z M1809.4,2209.8c0,10.1,8.1,18.1,18.1,18.1c9.9-0.1,17.8-8,17.8-17.9
		c0-10.2-7.9-18.1-18.1-18C1817.3,2192.1,1809.4,2199.9,1809.4,2209.8z M2095.2,2192.1c-10-0.1-17.9,7.8-18,17.7
		c-0.1,9.7,7.6,18,17.7,18c10.3,0.1,18-8,18-17.7C2113,2200.1,2105.1,2192.1,2095.2,2192.1z M1132.7,2085.2
		c-8.5-0.4-17.6,5.6-18.3,17c-0.6,10.2,7.4,18.2,17,18.7c9.6,0.5,18.2-7.4,18.6-17.2C1150.3,2095.2,1144.1,2085.7,1132.7,2085.2z
		 M1773.1,2192.1c-8,0.1-17.5,6.2-17.5,17.8c-0.1,10.5,8.1,17.9,17.9,17.8c11.1-0.1,17.8-8.9,17.8-17.9
		C1791.2,2199.9,1783,2192,1773.1,2192.1z M2914.9,2050.4c0.2-10-7.6-18-17.5-18.2c-10-0.1-18.1,7.6-18.2,17.5
		c-0.2,10,7.6,18,17.5,18.2C2906.8,2068,2914.8,2060.3,2914.9,2050.4z M1363.7,2157c0-9.9-7.7-17.9-17.9-17.9
		c-10.5,0-17.6,8.5-17.7,17.6c-0.1,9.9,7.8,18,17.6,18.1C1355.6,2174.9,1363.7,2166.8,1363.7,2157z M715.9,1875.9
		c-1.1-1.1-2.4-1.8-4-1.7c-5.4,0-10.9,0-16.3,0c-1.6,0-2.9,0.6-4.1,1.7c-3.1,2.9-5.1,6.4-5.8,10.5c-1.7,10.2,5.9,19.9,16.1,20.8
		c11.7,1.1,20.3-8.4,20-16.8C721.8,1883.9,719.7,1879.6,715.9,1875.9z M2148.2,2192.3c-8.4-0.1-17.5,5.8-17.8,17.4
		c-0.2,9.7,6.8,17.4,17.3,17.8c9.6,0.3,17.7-7.7,17.8-17.3C2165.7,2200.5,2157.9,2192.4,2148.2,2192.3z M971.1,2032.5
		c-9.7,0.1-17.5,8.1-17.4,17.8c0.1,9.7,8.1,17.5,17.8,17.4c9.8-0.1,17.5-8,17.4-17.8C988.8,2040.1,980.8,2032.3,971.1,2032.5z
		 M775.2,1942.3c0-9.7-7.8-17.7-17.5-17.7c-9.9,0-17.6,7.5-17.6,17.5c-0.1,10.9,8.8,17.8,17.5,17.7
		C767.2,1959.9,775.2,1952,775.2,1942.3z M1720.5,2227.3c11.5-0.1,17.4-9.4,17.4-17.2c0-9.7-7.7-17.7-17.4-17.7
		c-9.7-0.1-17.6,7.8-17.6,17.5C1703,2219.2,1710,2227.4,1720.5,2227.3z M2201.9,2192.7c-9.7,0-17.2,7.6-17.2,17.2
		c0,9.7,7.5,17.2,17.3,17.2c9.7,0,17.3-7.6,17.3-17.2C2219.2,2200.3,2211.5,2192.7,2201.9,2192.7z M2593.6,2156.8
		c-0.1-9.5-7.6-16.9-17.1-16.9c-9.5,0-17,7.4-17.1,16.9c-0.1,9.8,7.4,17.4,17.1,17.4C2586.1,2174.1,2593.7,2166.4,2593.6,2156.8z
		 M1649.4,2209.8c-0.1,9.7,7.4,17.2,17.2,17.2c9.6-0.1,16.8-7.4,17-16.9c0.2-9.2-7.5-17.4-17.2-17.2
		C1657,2192.8,1649.5,2200.3,1649.4,2209.8z M2790.3,2120.1c10.1-0.1,17-8.4,16.9-17.2c0-9.3-7.8-17-17.2-16.9
		c-9.4,0.1-17,7.8-16.9,17.1C2773.2,2112,2780.4,2120.1,2790.3,2120.1z M1274.9,2157.1c0.1,9.3,7.8,17,17.1,16.9
		c9.3,0,17-7.8,17-17.1c0-9.3-7.8-16.9-17.1-16.9C1282.5,2140.1,1274.9,2147.7,1274.9,2157.1z M2271.7,2210.3
		c0.1-9.6-7.2-17.1-16.7-17.2c-9.4-0.1-17,7.1-17,16.9c0.1,10,7.9,16.7,16.7,16.7C2264,2226.8,2271.6,2219.5,2271.7,2210.3z
		 M1630.4,2209.9c-0.1-9.8-7.7-16.7-16.7-16.7c-9.3,0-16.9,7-16.9,17c0,9.2,7.8,16.6,17,16.5C1623,2226.6,1630.5,2219,1630.4,2209.9
		z M3058,1979.3c-7.8-0.1-16.7,5.8-16.8,16.6c-0.1,9.9,7.5,17,16.9,17c9.2,0,16.6-7.6,16.6-16.8
		C3074.6,1986.9,3067.1,1979.4,3058,1979.3z M1078,2086.4c-9.2,0.1-16.6,7.8-16.4,17c0.2,9.1,7.7,16.4,16.7,16.3
		c9-0.1,16.4-6.9,16.7-16.8C1094.5,2093,1087.1,2086.3,1078,2086.4z M2951,2033.5c-9.5,0.1-16.7,7.7-16.6,16.7
		c0.1,8.7,7.1,16.3,16.5,16.4c9.2,0.1,16.7-7.5,16.6-16.7C2967.4,2040.8,2960.1,2033.5,2951,2033.5z M3214,1874.2
		c-2.3-0.2-4.1,0.6-5.8,2c-5.4,4.7-7.4,10.5-5.6,17.5c1.8,6.9,8,11.8,15.2,12.3c7.3,0.5,13.9-3.9,16.7-10.9
		c2.6-6.5,0.4-14.4-5.1-18.9c-1.7-1.4-3.5-2.3-5.8-2.1c-1.7,0.1-3.3,0-5,0C3217,1874.2,3215.5,1874.3,3214,1874.2z M827,1996.3
		c0.1-9-7.2-16.6-16.2-16.7c-9.1-0.1-16.5,7.2-16.6,16.3c-0.1,9.2,7,16.5,16.2,16.6C819.5,2012.7,826.9,2005.5,827,1996.3z
		 M2292.4,2209.9c0,9.2,7.2,16.4,16.3,16.4c9.1,0,16.4-7.3,16.5-16.4c0-9.1-7.3-16.4-16.4-16.4
		C2299.6,2193.5,2292.4,2200.7,2292.4,2209.9z M3164.7,1925.9c-9.1,0-16.4,7.3-16.3,16.5c0.1,8.9,7.3,16.1,16.1,16.2
		c9.1,0.1,16.4-7.2,16.5-16.3C3181.1,1933.1,3173.9,1925.9,3164.7,1925.9z M1543.4,2210.1c0.1,9.1,7.1,16,16.2,16
		c9.2,0,16.4-7.3,16.3-16.5c-0.1-9.1-7.2-16-16.3-16C1550.3,2193.7,1543.3,2200.8,1543.4,2210.1z M2645.6,2157.1
		c0.1-8.9-7.1-16.2-16-16.4c-9.2-0.1-16.5,7.1-16.4,16.3c0,9.1,7.1,16.1,16.1,16.1C2638.4,2173.1,2645.6,2166.1,2645.6,2157.1z
		 M917.6,2033.9c-9.2-0.1-16.4,7.2-16.3,16.4c0.1,9,7.3,16,16.3,16c9,0,16.1-7.1,16.1-16.1C933.6,2041.1,926.6,2034,917.6,2033.9z
		 M646.7,1874.2c-3.5-0.5-6.1,1.2-8.5,3.5c-4.8,4.6-6.3,12.4-3.4,18.4c3,6.3,8.1,9.6,15.2,9.5c6.8-0.1,11.9-3.4,14.6-9.6
		c2.7-6.3,1.8-12.4-2.9-17.7c-2.4-2.7-5.3-4.5-9.1-4c-0.9,0.1-1.8,0-2.7,0C648.8,1874.2,647.8,1874.3,646.7,1874.2z M1239.4,2141
		c-9-0.2-16.3,6.9-16.4,15.8c-0.1,9,7.1,16.2,16,16.2c8.8,0,15.8-7.1,15.9-15.8C1255.1,2148.4,1248.2,2141.2,1239.4,2141z
		 M2378.7,2210c0.1-8.8-7.3-16.1-16.2-16c-8.7,0.1-15.8,7.3-15.7,16c0.1,8.7,7.2,15.8,15.9,15.8
		C2371.4,2225.8,2378.6,2218.7,2378.7,2210z M687.7,1942.1c-0.1,9.1,7.2,16,16.2,16c8.7,0,15.9-7.4,15.7-16.1
		c-0.2-9.1-7.3-15.6-16-15.8C694.3,1926.6,687.8,1933.7,687.7,1942.1z M1506.5,2225.7c8.7,0.1,16-7,16-15.7
		c0.1-8.6-6.7-15.6-15.3-15.9c-8.7-0.3-16.1,6.7-16.2,15.4C1490.7,2218.3,1497.8,2225.6,1506.5,2225.7z M2859.9,2102.8
		c-0.2-10.2-8.3-15.8-16.1-15.6c-8.8,0.2-15.4,7-15.4,15.8c0,9.4,7.6,15.9,15.9,15.7C2852.2,2118.8,2860.1,2112.6,2859.9,2102.8z
		 M1008.8,2103.1c0,8.4,6.9,15.2,15.2,15.3c8.6,0.1,15.6-6.7,15.6-15.3c0-8.7-6.8-15.5-15.4-15.5
		C1015.7,2087.6,1008.8,2094.5,1008.8,2103.1z M2683.7,2141.8c-8.4-0.3-15.5,6.6-15.6,15c-0.1,8.3,6.4,15.2,14.6,15.4
		c8.5,0.2,15.6-6.3,15.8-14.7C2698.9,2149.8,2692.9,2142.1,2683.7,2141.8z M2430.8,2209.9c0-8.6-6.7-15.2-15.3-15.1
		c-8.4,0-14.9,6.6-15,15c-0.1,8.6,6.5,15.3,15,15.3C2424.2,2225.1,2430.8,2218.4,2430.8,2209.9z M3096.6,1995.9
		c-0.1,8.3,6.8,15.4,15.2,15.3c9,0,15.3-7.5,15.2-15.3c-0.1-8.3-6.9-14.9-15.1-14.8C3103.6,1981.1,3096.8,1987.8,3096.6,1995.9z
		 M1467.9,2210c0-8.4-6.9-15.1-15.3-15.1c-6.7,0-14.9,5.2-15,15c-0.1,9.4,7.7,15.2,15.3,15.1
		C1461.1,2224.9,1467.9,2218.1,1467.9,2210z M3019.1,2050.4c0.2-8.5-6.6-15.4-15.1-15.4c-8.4,0-15,6.6-15,14.9
		c0,8.4,6.5,15,14.8,15.1C3012.2,2065.2,3018.9,2058.7,3019.1,2050.4z M3271.8,1874.3c-6.7-0.1-15,4.8-15.1,14.9
		c-0.1,8.3,6.2,14.9,14.9,15.1c8.2,0.2,15.1-6.7,15.2-14.9C3286.8,1881.2,3280,1874.4,3271.8,1874.3z M1185.3,2142
		c-9.3-0.1-15.1,7.4-15.2,14.8c0,8.2,6.6,15.2,14.8,15.2c7.2,0,14.7-5.2,15.2-14.8C1200,2148.6,1193.7,2142.1,1185.3,2142z
		 M864.5,2064.8c8.1,0,14.7-6.7,14.7-14.8c0-8.1-6.7-14.7-14.8-14.7c-8.1,0-14.7,6.7-14.7,14.8
		C849.5,2056.9,855.1,2064.7,864.5,2064.8z M757.6,1981.4c-7.3,0-14.7,5.6-14.7,14.8c0,8.4,6.6,14.7,14.7,14.7
		c8.2,0,14.7-6.6,14.7-14.7C772.3,1988,765.7,1981.5,757.6,1981.4z M3204.2,1942.2c0,8.2,6.5,14.7,14.7,14.5
		c8-0.2,14.3-6.7,14.2-14.6c-0.1-8-6.5-14.3-14.5-14.3C3210.5,1927.8,3204.3,1934.1,3204.2,1942.2z M2484,2210
		c0-8-6.3-14.4-14.3-14.5c-8-0.2-14.8,6.5-14.6,14.6c0.2,8.1,6.3,14.3,14.5,14.3C2477.6,2224.3,2484,2218,2484,2210z M596.7,1874.8
		c-8,0.1-14.4,6.4-14.4,14.4c0,8.2,6.5,14.5,14.8,14.4c8.1-0.1,14.5-7,14.1-14.6C611.4,1881.7,605.1,1874.8,596.7,1874.8z
		 M2897.2,2088.7c-8.1,0-14.3,6.2-14.4,14.4c-0.1,8.9,7.4,14.2,14,14.4c7.9,0.2,14.5-6.2,14.6-14.2
		C2911.5,2095.1,2905.2,2088.7,2897.2,2088.7z M1384.7,2209.9c0,7.9,6,14.1,13.9,14.2c7.9,0.1,14.2-5.9,14.5-13.7
		c0.2-8-6-14.6-13.9-14.7C1391.1,2195.6,1384.7,2201.8,1384.7,2209.9z M957.3,2103.2c0.1,7.5,6.5,14,14,13.9
		c8.8-0.1,14-7.1,14.1-13.7c0.1-7.8-6.2-14.3-13.9-14.4C963.7,2088.9,957.2,2095.5,957.3,2103.2z M2723.3,2156.7
		c-0.2,6.7,4.5,14.2,13.9,14.3c8.7,0.1,14.1-6.8,14.1-14.1c0-7.6-6.2-13.8-13.9-13.8C2730.6,2142.9,2723.5,2147.9,2723.3,2156.7z
		 M663.7,1942.6c0.1-8.1-6-14.2-13.9-14.4c-7.7-0.2-14.2,6.4-14.1,14.2c0.1,7.6,6.3,13.8,13.9,13.9
		C657.2,1956.3,663.7,1950.1,663.7,1942.6z M1132.5,2143.3c-7.7-0.3-14,5.8-14.1,13.5c-0.1,7.6,5.7,13.6,13.3,13.9
		c7.7,0.3,14-5.8,14.2-13.5C1145.7,2148.9,1139.6,2143.5,1132.5,2143.3z M2509,2209.6c-0.2,7.5,5.6,13.6,13.2,13.8
		c7.7,0.2,13.9-5.8,14-13.5c0-7.6-5.8-13.5-13.4-13.6C2515.2,2196.3,2509.1,2202.1,2509,2209.6z M3178.1,1996.1
		c0-7.3-6-13.3-13.3-13.3c-7.5,0-13.5,6.1-13.3,13.7c0.2,7.3,6.2,13.2,13.5,13.1C3172.2,2009.5,3178.1,2003.4,3178.1,1996.1z
		 M1359.3,2210.1c0.1-7.5-5.9-13.5-13.5-13.4c-7.4,0.1-13.2,5.9-13.2,13.3c0,7.4,5.9,13.2,13.2,13.2
		C1353.3,2223.2,1359.2,2217.4,1359.3,2210.1z M3058,2036.8c-7.6-0.1-13.5,5.9-13.5,13.5c0.1,7.4,5.9,13.1,13.3,13.1
		c7.4,0,13.2-5.8,13.2-13.2C3071.2,2042.7,3065.4,2036.8,3058,2036.8z M1880.4,2250.6c-7.3,0-13.3,6-13.3,13.3
		c0,7.1,5.8,13,12.9,13.2c7.3,0.2,13.4-5.7,13.5-13C1893.5,2256.6,1887.7,2250.6,1880.4,2250.6z M2001.3,2263.6
		c-0.1-7.1-5.9-12.9-13.1-13c-7.3-0.1-13.3,5.9-13.3,13.2c0,7.3,6,13.3,13.3,13.2C1995.5,2277,2001.4,2271,2001.3,2263.6z
		 M1934.2,2250.6c-7.1,0-13,5.7-13.1,12.9c-0.1,7.4,5.6,13.4,12.9,13.5c7.2,0.1,13.4-5.9,13.4-13.1
		C1947.5,2256.7,1941.5,2250.6,1934.2,2250.6z M2041.3,2250.8c-7.7-0.1-13.5,5.9-13.3,13.1c0.1,8.7,7.3,13,13.1,13
		c7.1,0,13-5.8,13.1-12.9C2054.1,2257.4,2049.3,2250.9,2041.3,2250.8z M1814.3,2263.4c-0.3,7.1,5.4,13.2,12.5,13.5
		c7.3,0.3,13.5-5.5,13.7-12.8c0.1-7.1-5.5-13.1-12.7-13.3C1820.6,2250.6,1814.5,2256.2,1814.3,2263.4z M810.7,2063
		c7.1,0,12.9-6.1,12.8-13.1c-0.1-7.1-6.2-13.1-13.1-12.8c-7.6,0.3-12.7,5.9-12.8,13.1C797.9,2058,803.7,2063,810.7,2063z
		 M2082.1,2263.5c-0.2,8.4,6.5,13,12.2,13.3c7.1,0.3,13.4-5.2,13.7-12.3c0.3-7.3-5.4-13.3-12.5-13.5
		C2088.3,2250.6,2082.3,2256,2082.1,2263.5z M3312.8,1889.2c-0.1,7.1,5.8,13,12.9,12.9c7.1-0.1,12.9-6,12.7-13.1
		c-0.2-7-5.9-12.5-12.9-12.4C3318.5,1876.6,3312.8,1882.2,3312.8,1889.2z M1773.3,2251.1c-7,0-12.6,5.7-12.7,12.6
		c-0.1,6.9,5.5,12.8,12.5,12.9c7.1,0.2,13-5.5,13.1-12.7C1786.2,2256.8,1780.5,2251,1773.3,2251.1z M704.3,1983.4
		c-6.9-0.4-13,5.1-13.4,12c-0.4,7.2,5.2,13.3,12.3,13.5c7,0.3,12.9-5.2,13.2-12.2C716.7,1989.7,711.4,1983.8,704.3,1983.4z
		 M2938.2,2103.2c0.1,6.9,5.7,12.6,12.7,12.6c7,0.1,12.7-5.5,12.9-12.5c0.2-7.2-5.5-13.1-12.7-13.1
		C2944,2090.2,2938.2,2096,2938.2,2103.2z M2802.8,2156.9c0-6.9-5.5-12.4-12.3-12.6c-7-0.2-12.8,5.5-12.9,12.5
		c-0.1,7.1,5.5,12.7,12.5,12.8C2796.4,2169.9,2802.8,2164.7,2802.8,2156.9z M2576.4,2197.3c-7.1,0-12.6,5.6-12.5,12.8
		c0.1,6.9,5.6,12.3,12.5,12.4c7.1,0.1,12.7-5.5,12.7-12.6C2589,2202.7,2583.5,2197.3,2576.4,2197.3z M1708,2263.5
		c-0.1,7.1,5.5,12.8,12.5,12.8c6.8,0,12.3-5.5,12.4-12.5c0-7-5.3-12.5-12.2-12.6C1713.7,2251.3,1708.1,2256.7,1708,2263.5z
		 M2148.1,2251.3c-7,0-12.6,5.6-12.6,12.6c0.1,6.8,5.6,12.3,12.4,12.4c5.8,0.1,12.8-4.8,12.5-12.7
		C2160.3,2256.8,2154.9,2251.4,2148.1,2251.3z M3284,1942.7c0.2-6.8-5.1-12.6-11.9-12.8c-6.8-0.2-12.6,5.1-12.9,11.9
		c-0.3,6.8,5.1,12.5,11.9,12.7C3278.2,1954.7,3283.8,1949.5,3284,1942.7z M1078.3,2144.6c-6.9-0.1-12.4,5.4-12.4,12.2
		c0,6.9,5.4,12.4,12.2,12.5c6.8,0,12.4-5.4,12.4-12.3C1090.6,2150.2,1085.2,2144.7,1078.3,2144.6z M905.2,2103
		c0,7,5.3,12.3,12.3,12.3c6.9,0,12.3-5.4,12.3-12.3c0-6.8-5.5-12.4-12.3-12.4C910.6,2090.6,905.2,2096.1,905.2,2103z M1292.1,2197.6
		c-6.9,0-12.4,5.4-12.5,12.2c-0.1,6.8,5.4,12.4,12.2,12.5c6.9,0.1,12.3-5.3,12.4-12.2C1304.3,2203.1,1299,2197.6,1292.1,2197.6z
		 M543.4,1877.1c-6.8-0.3-12.6,5.1-12.8,11.9c-0.2,6.7,5.3,12.5,12.1,12.6c6.6,0.1,12.1-5.2,12.3-11.9
		C555.2,1882.9,550.1,1877.3,543.4,1877.1z M2189.6,2264.2c0.1,6.5,6,12.1,12.5,11.8c7.4-0.3,12.3-6.2,12-12.7
		c-0.2-6.6-5.9-12-12.4-11.9C2194.3,2251.8,2189.5,2258,2189.6,2264.2z M1666.4,2275.9c6.6,0.1,12.2-5.3,12.3-11.9
		c0.1-6.6-5.3-12.1-11.9-12.3c-6.6-0.1-12.1,5.3-12.3,11.9C1654.4,2270.2,1659.8,2275.8,1666.4,2275.9z M608.7,1942.3
		c0-6.8-5.4-12.1-12.2-11.9c-6.5,0.1-11.7,5.5-11.6,12.1c0.1,6.5,5.5,11.8,12,11.7C603.4,1954.1,608.7,1948.8,608.7,1942.3z
		 M2254.7,2252.1c-6.5,0.1-11.8,5.6-11.6,12c0.2,6.3,5.4,11.5,11.7,11.5c6.6,0,11.8-5.2,11.8-11.8
		C2266.6,2257.2,2261.3,2252,2254.7,2252.1z M2640.9,2209.9c0-6.5-5-11.5-11.4-11.6c-6.6,0-11.8,5.2-11.7,11.8
		c0.1,6.4,5.2,11.3,11.7,11.3C2636.1,2221.4,2640.9,2216.5,2640.9,2209.9z M1625,2263.6c-0.1-6.2-5.2-11.2-11.3-11.3
		c-6.2-0.1-11.6,5.2-11.6,11.5c0,6.3,5.2,11.4,11.6,11.4C1620.2,2275.1,1625.1,2270,1625,2263.6z M2320,2264
		c0.1-6.4-4.8-11.3-10.9-11.6c-6.1-0.3-11.7,5.2-11.7,11.4c0,6.1,5,11.2,11.3,11.2C2315,2275.1,2319.9,2270.3,2320,2264z
		 M3112,2038.7c-6.3-0.1-11.6,5.1-11.5,11.4c0.1,6.1,5.2,11.2,11.3,11.2c6.2,0,11.2-5,11.2-11.2
		C3123.1,2044,3118.2,2038.9,3112,2038.7z M1227.8,2210.1c0.3,7,5.7,11.1,11.5,11c6-0.1,10.9-5.1,10.8-11.1
		c-0.1-6.8-5.2-11-11.2-11.3C1232.9,2198.7,1227.6,2204.1,1227.8,2210.1z M2844.3,2168.2c6.7-0.1,11.1-5.5,11-11.5
		c-0.1-6-5.1-10.8-11.1-10.9c-6.2,0-11.3,5-11.2,11.2C2833,2162.2,2836.9,2168.3,2844.3,2168.2z M757.8,2039
		c-5.9-0.2-11,4.7-11.2,10.7c-0.2,6.1,4.9,11.4,11,11.4c5.9,0,11-5,11.1-10.9C768.7,2044.3,763.8,2039.2,757.8,2039z M2993,2103.2
		c-0.1,6,5.2,11.1,11.1,10.8c6.4-0.3,10.9-4.9,10.8-11.1c0-6.1-4.9-10.9-11.1-10.8C2998,2092.1,2993.1,2096.6,2993,2103.2z
		 M3229.7,1996.1c0-5.9-5-10.9-10.9-11c-6.2,0-11.2,5.1-11.1,11.3c0.1,6,5.1,10.8,11.1,10.7
		C3224.8,2007.1,3229.7,2002.1,3229.7,1996.1z M649.7,1985.3c-6.1,0-10.9,4.9-10.7,11.1c0.1,6.1,5.1,10.8,11.2,10.6
		c5.9-0.2,10.4-5.1,10.3-11C660.4,1990,655.6,1985.3,649.7,1985.3z M1559.8,2253c-6.1-0.1-11,4.8-10.9,10.9c0,6.1,5,10.9,11.1,10.7
		c5.9-0.2,10.5-4.9,10.5-10.9C1570.4,2257.8,1565.7,2253.1,1559.8,2253z M2362.7,2253c-6,0-10.9,5-10.8,11
		c0.1,5.9,4.9,10.6,10.8,10.6c6,0,10.9-4.9,10.8-11C2373.4,2257.8,2368.6,2253.1,2362.7,2253z M1034.9,2157
		c0-5.9-4.6-10.6-10.6-10.6c-6,0-10.6,4.6-10.6,10.6c0,6,4.7,10.6,10.6,10.6C1030.2,2167.6,1034.9,2162.9,1034.9,2157z M2693.8,2210
		c0.1-5.9-4.7-10.6-10.6-10.6c-6,0-10.4,4.7-10.3,10.8c0.1,5.8,4.6,10.2,10.5,10.1C2689.2,2220.3,2693.8,2215.7,2693.8,2210z
		 M854.1,2103.1c0,5.9,4.4,10.3,10.3,10.3c6.1,0,10.7-4.7,10.5-10.6c-0.2-5.7-4.9-10.3-10.6-10.2
		C858.6,2092.6,854.1,2097.2,854.1,2103.1z M3378.8,1879.1c-5.5-0.2-10.2,4.2-10.4,9.8c-0.2,5.7,4.4,10.6,10.1,10.6
		c5.4,0.1,10.1-4.6,10.2-10C3388.8,1884,3384.3,1879.3,3378.8,1879.1z M1506.3,2253.9c-5.4,0.2-9.7,4.7-9.6,10.1
		c0.1,5.3,4.6,9.8,9.9,9.8c5.6,0,10.1-4.5,10-10.1C1516.5,2258.1,1512,2253.7,1506.3,2253.9z M2897.1,2147.2c-5.5,0-9.7,4.3-9.8,9.8
		c-0.1,4.9,4.3,9.9,9.8,9.8c5.5-0.1,9.7-4.2,9.7-9.8C2906.8,2151.5,2902.6,2147.2,2897.1,2147.2z M3325.6,1932.5
		c-5.4,0-9.7,4.3-9.8,9.7c0,5.5,4.2,9.7,9.7,9.7c5.5,0,9.7-4.2,9.7-9.7C3335.3,1936.7,3331.1,1932.5,3325.6,1932.5z M1194.8,2210
		c0.1-5.4-4.4-9.8-9.8-9.7c-5.3,0.1-9.3,4.3-9.3,9.7c0,5.4,4.2,9.5,9.5,9.5C1190.4,2219.5,1194.7,2215.2,1194.8,2210z
		 M2425.2,2259.8c-1-2.3-2.6-4.1-4.8-5.2c-4.3-2.2-9.7-1-12.7,2.8c-3.1,3.9-3,8.6,0.3,12.7c5.7-1.3,11.6-1,17.3-2.9
		C2426.3,2263.4,2426.2,2262.3,2425.2,2259.8z M3057.9,2094c-5.1,0-9.2,4.3-9,9.4c0.2,4.9,4.4,8.8,9.2,8.7c4.9-0.1,8.9-4.3,8.8-9.1
		C3066.8,2098,3062.8,2094,3057.9,2094z M1452.9,2254.8c-5-0.1-9.3,4.2-9.2,9.2c0.1,4.9,4.2,8.9,9.1,8.8c4.9-0.1,8.9-4.1,8.9-9
		C1461.8,2259,1457.8,2254.9,1452.9,2254.8z M3173.8,2050.1c0-5.2-4.1-9.2-9.3-9c-5,0.2-8.8,4.2-8.7,9.2c0.1,5,4.1,8.9,9.1,8.8
		C3169.9,2059,3173.7,2055.1,3173.8,2050.1z M971.7,2148.2c-5.1-0.2-9.1,3.6-9.2,8.6c-0.1,4.8,3.7,8.8,8.4,9c5,0.2,9-3.6,9.1-8.7
		C980.2,2152.2,976.6,2148.4,971.7,2148.2z M818.9,2103c0-4.6-3.7-8.3-8.3-8.3c-4.8,0-8.8,4-8.6,8.6c0.2,4.5,4.2,8.2,8.7,8.1
		C815.3,2111.4,819,2107.6,818.9,2103z M3271.9,1987.8c-4.6-0.1-8.4,3.4-8.6,8c-0.2,4.8,3.6,8.8,8.3,8.8c4.5,0,8.4-3.8,8.5-8.3
		C3280.2,1991.8,3276.5,1987.9,3271.9,1987.8z M706.3,2057.5c1,0.7,2.3,0.5,3.3-0.4c2.8-2.6,3.9-5.7,2.9-9.4c-1-3.6-3.4-6-7.2-6.7
		c-3.5-0.7-6.6,0.4-8.8,3.3c-1,1.3-1.5,2.9-2.3,4.6C698.2,2052.6,702.4,2054.8,706.3,2057.5z M1140.1,2209.9c0-4.3-3.3-7.8-7.6-7.9
		c-4.5-0.2-8.1,3.2-8.3,7.7c-0.1,4.5,3.3,8.1,7.8,8.1C1136.5,2217.9,1140.1,2214.4,1140.1,2209.9z M1399.1,2255.9
		c-4.5-0.1-8.1,3.4-8.1,7.9c0,4.5,3.6,8,8.1,7.9c4.4-0.1,7.7-3.6,7.7-7.9C1406.8,2259.5,1403.4,2256.1,1399.1,2255.9z
		 M2732.5,2211.4c3.8-0.8,7.4-2.4,11.3-2.6c0.9-0.1,1.8-1,2.6-1.5c-2.5-5.7-6.8-8.1-11.8-6.7c-2.4,0.7-4.3,2.2-5.6,4.3
		c-1.2,2-1.8,4.1-1,6.4C2730.8,2211.9,2730.7,2211.8,2732.5,2211.4z M924.2,2156.7c-0.1-3.6-3.1-6.5-6.8-6.4c-3.9,0-6.8,3.1-6.6,7
		c0.1,3.7,3.1,6.5,6.8,6.5C921.3,2163.7,924.3,2160.5,924.2,2156.7z M3432.9,1882.5c-3.9-0.2-7,2.6-7.1,6.5c-0.1,3.8,2.6,6.8,6.2,7
		c3.7,0.2,7.1-2.9,7.2-6.6C3439.3,1885.9,3436.5,1882.8,3432.9,1882.5z M3378.8,1935.6c-3.8-0.1-7,2.8-7,6.7s3,6.8,6.9,6.7
		c3.7-0.1,6.5-2.9,6.5-6.6C3385.3,1938.6,3382.5,1935.7,3378.8,1935.6z M1346.3,2257.2c-3.9-0.2-7,2.6-7.1,6.4
		c-0.1,3.7,2.6,6.7,6.2,6.9c3.9,0.2,7-2.6,7.2-6.4C1352.7,2260.4,1350,2257.4,1346.3,2257.2z M1078.3,2203.7
		c-3.4-0.1-6.4,2.8-6.4,6.2c0,3.2,2.6,6,5.9,6.2c3.4,0.2,6.4-2.5,6.5-6C1084.5,2206.7,1081.8,2203.8,1078.3,2203.7z M1833.6,2318.4
		c0.1-0.4,0.2-0.9,0.2-1.3c0.1-3.8-3.2-7-6.9-6.7c-3.6,0.2-6.5,3.5-6.2,7c0.2,2,1.1,3,3.1,3.1c2.8,0.1,5.7,0,8.8,0
		C1833.2,2319.4,1833.5,2318.9,1833.6,2318.4z M1773.6,2321.6c0.5,0,0.9,0,1.4,0c2.4-0.1,3.6-1.1,4.1-3.4c0.6-2.4-0.2-4.5-2.1-6.1
		c-1.6-1.4-4.5-1.6-6.4-0.5c-2,1.1-3,2.9-3,5.2c0,3,1.6,5.1,4.6,4.8C1772.7,2321.5,1773.2,2321.6,1773.6,2321.6
		C1773.6,2321.6,1773.6,2321.6,1773.6,2321.6z M1884,2311.1c-2.5-1.6-5.9-1.4-8,0.6c-0.9,0.9-1.7,2.1-2.1,3.3
		c-0.5,1.4-0.6,3,0.8,4.5c3.8,0,7.8,0.5,11.7-0.3C1887.3,2315.1,1886.5,2312.8,1884,2311.1z M1292.2,2258.3
		c-3.2-0.1-5.8,2.4-5.8,5.6c0,3.1,2.3,5.4,5.3,5.5c3.2,0.1,5.8-2.3,5.8-5.5C1297.6,2260.8,1295.2,2258.4,1292.2,2258.3z
		 M2462.5,2262c0.7-0.1,1.5-0.3,2.2-0.4c0.9-0.2,1.7-0.4,2.6-0.5c3-0.4,5.9-0.7,8.9-1c1.1-0.1,1.5-1.5,0.8-2.4
		c-5.1-6.1-14.6-3.6-16.5,2.9c-0.1,0.4,0.1,0.8,0.2,1.3C2461.3,2261.9,2461.9,2262,2462.5,2262z M1941,2316.9c0.5-2.2-0.6-3.8-2-5.2
		c-1.3-1.4-3.1-1.9-4.9-1.9c-1.9,0-3.6,0.6-4.9,2c-1.4,1.5-2.1,3.2-1.7,5.3C1932.1,2317.9,1937.9,2317.8,1941,2316.9z
		 M1720.3,2320.5c0.9,0,1.8,0,2.7,0c1.8-0.1,2.7-1,3-2.7c0.3-2.5-0.6-4.4-2.7-5.7c-1.8-1.1-3.7-1.2-5.5-0.1
		c-2.1,1.2-3.1,3.1-2.9,5.6c0.2,2,1.1,2.8,3.2,3C1718.8,2320.5,1719.6,2320.5,1720.3,2320.5
		C1720.3,2320.5,1720.3,2320.5,1720.3,2320.5z M1669.1,2312.6c-1.7-1.1-4.3-0.9-5.8,0.6c-0.7,0.7-1.3,1.7-1.5,2.7
		c-0.3,1.1-0.3,2.4,0.9,3.4c2.5,0.4,5.2,0.5,8.1-0.1C1671.7,2315.6,1671.2,2314,1669.1,2312.6z M2956.1,2151.8
		c0.2-0.1,0.2-0.5,0.4-1.1c-2.2-2-4.8-2.7-7.8-1.9c-3.1,0.9-5.2,2.9-5.9,6.6C2947.9,2155.1,2952,2153.3,2956.1,2151.8z
		 M1994.5,2314.2c-1.4-3.3-3.6-4.9-6.6-4.7c-1.7,0.1-3.2,0.7-4.5,1.9c-0.9,0.8-1.9,1.6-1.5,3
		C1985.9,2315.1,1991.4,2315,1994.5,2314.2z M1239.3,2259.8c-2.5-0.1-4.3,1.6-4.3,4c0,2.2,1.6,4,3.9,4.1c2.4,0.1,4.3-1.7,4.4-4.1
		C1243.2,2261.6,1241.5,2259.9,1239.3,2259.8z M3220.2,2043.3c-1.8-0.4-3.6-0.2-5.2,0.8c-2.6,1.6-3.6,4.1-2.4,6.8
		c3.8-1.3,7.2-3.4,10.7-5.3C3222.8,2043.9,3221.5,2043.5,3220.2,2043.3z M1028.2,2208.8c-1-3.2-4.3-4-6.8-1.7
		c-0.8,0.7-0.7,2,0.3,2.2c2.1,0.6,3.9,2.3,6.6,1.5C1028.2,2210.2,1028.4,2209.4,1028.2,2208.8z M1617.7,2316.4
		c0.3-1.7-0.5-2.6-1.6-3.3c-0.9-0.5-1.9-1-2.9-0.9c-1,0.1-2,0.7-2.8,1.3c-0.8,0.6-1.4,1.6-0.9,2.9
		C1612.3,2316.8,1615,2316.9,1617.7,2316.4z M2036.2,2312c1.5-0.3,2.6-0.7,3.7-0.8c1.3-0.1,2.7,0,5.1,0
		C2041,2308.5,2039,2308.8,2036.2,2312z M3107.9,2098c1.1-0.2,2.1-0.3,2.7-1.6C3108.4,2096.6,3108.4,2096.6,3107.9,2098z
		 M1560.1,2313.4c-0.1-0.1-0.3-0.2-0.4-0.2c-0.2,0-0.4,0.2-0.6,0.3c0.1,0.1,0.2,0.1,0.4,0.2
		C1559.7,2313.6,1559.9,2313.5,1560.1,2313.4z"/>
	<path class="st5" d="M3543.5,1884.1H393c-8.5,0-15.3-6.9-15.3-15.3v-1c0-8.5,6.9-15.3,15.3-15.3h3150.5c8.5,0,15.3,6.9,15.3,15.3v1
		C3558.9,1877.2,3552,1884.1,3543.5,1884.1z"/>
	<g>
		<path class="st18" d="M2382.8,476h-341.5c-8.8,0-15.9-7.2-15.9-15.9v-122c0-8.8,7.2-15.9,15.9-15.9h341.5
			c8.8,0,15.9,7.2,15.9,15.9v122C2398.7,468.9,2391.6,476,2382.8,476z"/>
		<path class="st18" d="M2070.5,452.8v84.9l97.8-97.8C2168.3,439.9,2072.5,452.8,2070.5,452.8z"/>
		<path class="st0" d="M2365.9,460.8h-307.7c-7.4,0-13.5-6.1-13.5-13.5v-96.3c0-7.4,6.1-13.5,13.5-13.5h307.7
			c7.4,0,13.5,6.1,13.5,13.5v96.3C2379.4,454.7,2373.4,460.8,2365.9,460.8z"/>
		<path class="st18" d="M2227,367.9h-151.2c-3.6,0-6.6-3-6.6-6.6c0-3.6,3-6.6,6.6-6.6H2227c3.6,0,6.6,3,6.6,6.6
			C2233.6,365,2230.7,367.9,2227,367.9z"/>
		<path class="st18" d="M2353.3,393.3h-280.4c-2,0-3.7-1.7-3.7-3.7v-0.1c0-2,1.7-3.7,3.7-3.7h280.4c2,0,3.7,1.7,3.7,3.7v0.1
			C2357,391.6,2355.3,393.3,2353.3,393.3z"/>
		<path class="st18" d="M2353.3,407.7h-280.4c-2,0-3.7-1.7-3.7-3.7V404c0-2,1.7-3.7,3.7-3.7h280.4c2,0,3.7,1.7,3.7,3.7v0.1
			C2357,406.1,2355.3,407.7,2353.3,407.7z"/>
		<g>
			<path class="st18" d="M2295.3,455.5h-9.2c-1.9,0-3.5-1.6-3.5-3.5v-7.6c0-1.9,1.6-3.5,3.5-3.5h9.2c1.9,0,3.5,1.6,3.5,3.5v7.6
				C2298.8,453.9,2297.3,455.5,2295.3,455.5z"/>
			<path class="st18" d="M2324.8,455.5h-9.2c-1.9,0-3.5-1.6-3.5-3.5v-7.6c0-1.9,1.6-3.5,3.5-3.5h9.2c1.9,0,3.5,1.6,3.5,3.5v7.6
				C2328.3,453.9,2326.7,455.5,2324.8,455.5z"/>
			<path class="st18" d="M2354.3,455.5h-9.2c-1.9,0-3.5-1.6-3.5-3.5v-7.6c0-1.9,1.6-3.5,3.5-3.5h9.2c1.9,0,3.5,1.6,3.5,3.5v7.6
				C2357.8,453.9,2356.2,455.5,2354.3,455.5z"/>
		</g>
	</g>
	<g>
		<path class="st13" d="M1596.4,1854.4h-577.7c0-20.5,16.6-37.1,37.1-37.1h540.6V1854.4z"/>
		<path class="st13" d="M1597,1854.4h-308.6l131-288.3c3.8-8.4,12.2-13.8,21.5-13.8h279.1c6.7,0,11.1,6.9,8.4,13L1597,1854.4z"/>
		<path class="st8" d="M1720.1,1552.3h-254.8c-9.2,0-17.6,5.4-21.5,13.8l-131,288.3H1597l131.4-289.1
			C1731.2,1559.2,1726.8,1552.3,1720.1,1552.3z"/>
		<path class="st14" d="M1573.9,1712.8c-10.8,22.4-28.3,36.3-39.1,31.1c-10.8-5.2-10.8-27.6,0-50s28.3-36.3,39.1-31.1
			C1584.7,1668.1,1584.7,1690.4,1573.9,1712.8z"/>
	</g>
	<g>
		<path class="st6" d="M984.5,1132.2c0,0-26.2,133.8-55.2,157.3c-29,23.5,66.7,136.5,99.8,107.6c33.1-29,2.3-92.4,2.3-92.4
			s-17.9-11,12.4-81.4c30.4-70.4-51.4-122.8-51.4-122.8L984.5,1132.2z"/>
		<path class="st7" d="M992.5,1100.4l-8,31.7c0,0-3.6,18.6-9.7,43.2c11.3,52.8,32.5,87.2,51.4,109.1c0.6-12.2,4.7-31.4,17.6-61.2
			C1074.2,1152.9,992.5,1100.4,992.5,1100.4z"/>
		<path class="st6" d="M1150.3,1183.1c-17.6,48.6-60.7,87.6-88,78.6c-44.7-14.7-77.2-49.6-69.5-126.8c9-90.9,79-101.3,120-89.7
			C1153.9,1056.9,1169.8,1129.4,1150.3,1183.1z"/>
		<path class="st16" d="M923.9,1289.2l-42.2,16.5l66.6,85.3l-19,34c0,0,68.6,51.5,89.4,151.2c20.8,99.7,18.6,184.7,18.6,184.7
			s5.1-202.3-5-241C1012.7,1445.1,923.9,1289.2,923.9,1289.2z"/>
		<path class="st16" d="M1031.9,1305.8c0,0,52.7,135.3,61.1,173.4c8.4,38.1,10.1,224.2,10.1,224.2s24.2-162.2,17.2-210.2
			s-17-91.4-17-91.4l-32-23.6c0,0-6-64.4-9.5-65.2C1058.4,1312.1,1031.9,1305.8,1031.9,1305.8z"/>
		<path class="st6" d="M1001.2,1801.9c102.5-31.1,90.1-46.6,127.4-29s84,29.6,62.1,35.2s-54.9-12.4-54.9-12.4s5.2,28-13.5,36.2
			c-18.6,8.3-101.4,11.3-147.5-1.6C928.7,1817.5,1001.2,1801.9,1001.2,1801.9z"/>
		<path class="st2" d="M998.3,1797.1h20.4l-10.2,58c0,0-40.2-6-37.2-10S998.3,1797.1,998.3,1797.1z"/>
		<path class="st4" d="M804.3,1336.1c-40,70-52.7,108.2-85.3,239.2c-32.6,131-45.7,190.6-9.7,207.8c29.8,14.2,246.7,79.3,273,71.3
			c12,0.7,30.4-61.3,30.4-61.3l-197.4-88c0,0,57.1-136.4,67-226c9.9-89.6-34-143-56-143S804.3,1336.1,804.3,1336.1z"/>
		<path class="st6" d="M1011.6,1141c-9.7,30.3-5.5,36.5-18.9,39.3s-25.6-10.4-29.5-29.1c-4-18.6,3.7-36,17.1-38.9
			C993.6,1109.5,1017.3,1122.8,1011.6,1141z"/>
		<path class="st15" d="M1168.7,1085.8c-52.3,93-156.3,79.3-219.4,47.3c-51.5-26.1,146.9-124.9,146.9-124.9L1168.7,1085.8z"/>
		<path class="st15" d="M998.3,1008.2c-19.4-58.5-98.9-44.7-134.9,33.2c-36,77.8,19.1,129.9,52.5,110.8
			C949.3,1133.1,998.3,1008.2,998.3,1008.2z"/>
	</g>
	<g>
		<path class="st19" d="M2118.1,906.2c6.4-23,11.1-46.8,13.9-71.2l-73.5-33.1c0.4-7,0.6-14,0.6-21c0-19.6-1.5-38.8-4.2-57.6l70-39.9
			c-5.1-23.9-12-47.1-20.6-69.5l-80.4,4.9c-11-24-24.4-46.8-39.9-67.9l43.5-67.8c-15.5-18.6-32.4-36-50.6-52l-68.9,41.7
			c-20.7-16-43.1-30-66.8-41.7l7-80.3c-22.2-9.2-45.2-16.7-68.9-22.5l-41.7,68.9c-22-3.9-44.7-5.9-67.8-5.9c-3.6,0-7.2,0.1-10.7,0.2
			l-31.1-74.3c-24.4,2.2-48.3,6.2-71.5,12l-4.9,80.4c-25.3,8-49.5,18.6-72.2,31.4l-62.1-51.3c-20.4,13.2-39.6,27.9-57.6,44
			l33.1,73.5c-18.4,18.7-35,39.2-49.4,61.3l-78.9-16.6c-11.9,20.9-22.1,42.9-30.7,65.7l63.4,49.7c-7.5,24.8-12.7,50.6-15.1,77.2
			l-77.5,21.9c-0.1,4.8-0.2,9.5-0.2,14.3c0,19.7,1.2,39.1,3.6,58.1l79.2,14.5c4.9,26.2,12.5,51.4,22.4,75.5l-58.4,55.4
			c10.6,21.9,23,42.7,36.8,62.5l76.9-24c16.4,20.6,34.8,39.5,54.9,56.4l-26,76.3c19.4,14.3,40,27.2,61.5,38.4l57-56.9
			c23.8,10.5,48.8,18.8,74.9,24.4l12.4,79.6c22.9,3.5,46.4,5.3,70.3,5.3c0.7,0,1.4,0,2,0l24-76.9c26.7-1.8,52.7-6.2,77.6-13.1
			l48,64.7c23-7.9,45.2-17.6,66.5-28.9l-14.5-79.3c22.5-13.8,43.4-29.8,62.5-47.7l72.6,35c16.6-17.6,31.8-36.5,45.5-56.5l-49.7-63.4
			c13.4-22.4,24.6-46.3,33.3-71.3L2118.1,906.2z M1669.7,972.5c-105.8,0-191.5-85.7-191.5-191.5s85.7-191.5,191.5-191.5
			s191.5,85.7,191.5,191.5S1775.5,972.5,1669.7,972.5z"/>
		<g>
			<path class="st0" d="M1398.5,989.7c-1.5,0-3-0.7-4-2c-10.9-14.7-20.7-30.3-29.1-46.4c-1.3-2.4-0.3-5.5,2.1-6.7
				c2.4-1.3,5.5-0.3,6.7,2.1c8.2,15.7,17.7,30.9,28.3,45.1c1.6,2.2,1.2,5.3-1,7C1400.6,989.4,1399.5,989.7,1398.5,989.7z"/>
		</g>
		<g>
			<path class="st0" d="M1628.1,1124.8c-0.2,0-0.4,0-0.7,0c-60-7.9-117.1-31.5-165.3-68.4c-2.2-1.7-2.6-4.8-0.9-7
				c1.7-2.2,4.8-2.6,7-0.9c46.8,35.8,102.3,58.8,160.5,66.5c2.7,0.4,4.7,2.9,4.3,5.6C1632.7,1123,1630.6,1124.8,1628.1,1124.8z"/>
		</g>
	</g>
	<g>
		<rect x="1676.2" y="549.7" class="st18" width="909.1" height="504.4"/>
		<rect x="1686.2" y="560.7" class="st0" width="873.1" height="459.4"/>
		<g class="st20">
			<g>
				<path class="st18" d="M2528,984.1h-828c-1.1,0-2-0.9-2-2V567.2c0-1.1,0.9-2,2-2h828c1.1,0,2,0.9,2,2v414.8
					C2530,983.2,2529.1,984.1,2528,984.1z M1702,980.1h824V569.2h-824V980.1z"/>
			</g>
			<g>
				<path class="st18" d="M2528,914.9h-828c-1.1,0-2-0.9-2-2s0.9-2,2-2h828c1.1,0,2,0.9,2,2S2529.1,914.9,2528,914.9z"/>
			</g>
			<g>
				<path class="st18" d="M2528,845.8h-828c-1.1,0-2-0.9-2-2c0-1.1,0.9-2,2-2h828c1.1,0,2,0.9,2,2
					C2530,844.9,2529.1,845.8,2528,845.8z"/>
			</g>
			<g>
				<path class="st18" d="M2528,776.6h-828c-1.1,0-2-0.9-2-2c0-1.1,0.9-2,2-2h828c1.1,0,2,0.9,2,2
					C2530,775.7,2529.1,776.6,2528,776.6z"/>
			</g>
			<g>
				<path class="st18" d="M2528,707.5h-828c-1.1,0-2-0.9-2-2s0.9-2,2-2h828c1.1,0,2,0.9,2,2S2529.1,707.5,2528,707.5z"/>
			</g>
			<g>
				<path class="st18" d="M2528,638.4h-828c-1.1,0-2-0.9-2-2s0.9-2,2-2h828c1.1,0,2,0.9,2,2S2529.1,638.4,2528,638.4z"/>
			</g>
			<g>
				<path class="st18" d="M2390,984.1c-1.1,0-2-0.9-2-2V567.2c0-1.1,0.9-2,2-2s2,0.9,2,2v414.8C2392,983.2,2391.1,984.1,2390,984.1z
					"/>
			</g>
			<g>
				<path class="st18" d="M2252,984.1c-1.1,0-2-0.9-2-2V567.2c0-1.1,0.9-2,2-2s2,0.9,2,2v414.8C2254,983.2,2253.1,984.1,2252,984.1z
					"/>
			</g>
			<g>
				<path class="st18" d="M2114,984.1c-1.1,0-2-0.9-2-2V567.2c0-1.1,0.9-2,2-2s2,0.9,2,2v414.8C2116,983.2,2115.1,984.1,2114,984.1z
					"/>
			</g>
			<g>
				<path class="st18" d="M1976,984.1c-1.1,0-2-0.9-2-2V567.2c0-1.1,0.9-2,2-2s2,0.9,2,2v414.8C1978,983.2,1977.1,984.1,1976,984.1z
					"/>
			</g>
			<g>
				<path class="st18" d="M1838,984.1c-1.1,0-2-0.9-2-2V567.2c0-1.1,0.9-2,2-2s2,0.9,2,2v414.8C1840,983.2,1839.1,984.1,1838,984.1z
					"/>
			</g>
		</g>
		<g>
			<path class="st21" d="M1700,986.1c-1.5,0-2.9-0.8-3.6-2.2c-1-2-0.2-4.4,1.8-5.4l137.5-68.9l70.9-68.2l65.8-137.6
				c0.2-0.5,0.6-0.9,0.9-1.3l74.8-66.7c0.9-0.8,2.2-1.2,3.5-0.9c1.2,0.3,2.3,1.1,2.8,2.2l63.1,135.7l75,133.2l56.5-64.9
				c0.7-0.8,1.8-1.3,2.9-1.4c1.1-0.1,2.2,0.4,3,1.2l64.2,64.5l67.1-201.3c0.2-0.6,0.5-1.1,1-1.6l138-138.3c1.6-1.6,4.1-1.6,5.7,0
				c1.6,1.6,1.6,4.1,0,5.7l-137.3,137.6l-68.9,206.5c-0.4,1.3-1.5,2.3-2.9,2.6c-1.3,0.3-2.8-0.1-3.7-1.1l-65.8-66.1l-57.4,65.9
				c-0.9,1-2.1,1.5-3.4,1.4c-1.3-0.1-2.4-0.9-3.1-2l-77.8-138.3c-0.1-0.1-0.1-0.2-0.1-0.3l-60.9-130.9l-70.2,62.6l-65.8,137.6
				c-0.2,0.4-0.5,0.8-0.8,1.2l-71.9,69.1c-0.3,0.3-0.6,0.5-1,0.7l-138,69.1C1701.2,985.9,1700.6,986.1,1700,986.1z"/>
		</g>
		<g>
			<path class="st18" d="M1700,986.1c-1,0-2-0.4-2.8-1.1c-1.6-1.5-1.6-4.1-0.1-5.7l202.4-207.4c1.5-1.6,4-1.6,5.6-0.1l70.8,66.5
				l135.3-135.5c1.5-1.5,4-1.6,5.6-0.1l68.9,66.4l63.4-66.2c0.7-0.8,1.8-1.2,2.8-1.2c1,0,2.1,0.4,2.9,1.2L2388.9,837l135.5-271.6
				c1-2,3.4-2.8,5.4-1.8c2,1,2.8,3.4,1.8,5.4l-138,276.6c-0.6,1.2-1.7,2-2.9,2.2c-1.3,0.2-2.6-0.2-3.5-1.1l-135.1-135.4l-63.3,66.2
				c-0.7,0.8-1.7,1.2-2.8,1.2c-1,0-2.1-0.4-2.9-1.1l-69-66.4l-135.2,135.5c-1.5,1.5-4,1.6-5.6,0.1l-70.8-66.5l-199.6,204.6
				C1702,985.7,1701,986.1,1700,986.1z"/>
		</g>
	</g>
	<g>
		<path class="st18" d="M1706.5,806h-247V359.5c0-5.4,4.4-9.9,9.9-9.9H1762c5.4,0,9.9,4.4,9.9,9.9v381.1
			C1771.8,776.7,1742.6,806,1706.5,806z"/>
		<path class="st0" d="M1699.3,793.3h-236.2V366.8c0-5.2,4.2-9.4,9.4-9.4h279.5c5.2,0,9.4,4.2,9.4,9.4v364.5
			C1761.3,765.6,1733.5,793.3,1699.3,793.3z"/>
		<path class="st18" d="M1638.6,703.9V696c0-6.2-4.3-11.2-9.7-11.2h-299.1c-5.4,0-9.7,5-9.7,11.2v7.9c0,55.7,39,100.9,87.2,100.9
			h305.6C1664.7,804.8,1637.9,764.7,1638.6,703.9z"/>
		<path class="st0" d="M1631.2,711.7v-6.4c0-5-4.1-9.1-9.1-9.1h-280.1c-5,0-9.1,4.1-9.1,9.1v6.4c0,45.1,36.5,81.6,81.6,81.6h298.2
			C1667.8,793.3,1631.2,771.5,1631.2,711.7z"/>
		<g>
			<path class="st18" d="M1730,539.3h-213c-6.7,0-12.2-5.5-12.2-12.2V411.3c0-6.7,5.5-12.2,12.2-12.2h213c6.7,0,12.2,5.5,12.2,12.2
				V527C1742.2,533.8,1736.8,539.3,1730,539.3z M1517,403.1c-4.5,0-8.2,3.7-8.2,8.2V527c0,4.5,3.7,8.2,8.2,8.2h213
				c4.5,0,8.2-3.7,8.2-8.2V411.3c0-4.5-3.7-8.2-8.2-8.2H1517z"/>
		</g>
		<path class="st18" d="M1659.2,595.5h-234.2c-3.3,0-6-2.7-6-6c0-3.3,2.7-6,6-6h234.2c3.3,0,6,2.7,6,6
			C1665.3,592.7,1662.5,595.5,1659.2,595.5z"/>
		<path class="st18" d="M1659.2,617.5h-234.2c-3.3,0-6-2.7-6-6c0-3.3,2.7-6,6-6h234.2c3.3,0,6,2.7,6,6
			C1665.3,614.8,1662.5,617.5,1659.2,617.5z"/>
		<path class="st18" d="M1659.2,638.8h-234.2c-3.3,0-6-2.7-6-6c0-3.3,2.7-6,6-6h234.2c3.3,0,6,2.7,6,6
			C1665.3,636.1,1662.5,638.8,1659.2,638.8z"/>
		<g>
			<path class="st18" d="M1671.9,429.9h-7.8c-1.7,0-3-1.3-3-3v-6.4c0-1.7,1.3-3,3-3h7.8c1.7,0,3,1.3,3,3v6.4
				C1674.9,428.6,1673.5,429.9,1671.9,429.9z"/>
			<path class="st18" d="M1697,429.9h-7.8c-1.7,0-3-1.3-3-3v-6.4c0-1.7,1.3-3,3-3h7.8c1.7,0,3,1.3,3,3v6.4
				C1700,428.6,1698.6,429.9,1697,429.9z"/>
			<path class="st18" d="M1722.1,429.9h-7.8c-1.7,0-3-1.3-3-3v-6.4c0-1.7,1.3-3,3-3h7.8c1.7,0,3,1.3,3,3v6.4
				C1725.1,428.6,1723.7,429.9,1722.1,429.9z"/>
		</g>
		<rect x="1528.1" y="469.2" class="st18" width="31.5" height="52.1"/>
		<rect x="1615" y="473.5" class="st18" width="31.5" height="47.7"/>
		<rect x="1665.3" y="452.2" class="st18" width="31.5" height="69"/>
		<rect x="1570.7" y="489.7" class="st18" width="31.5" height="31.5"/>
	</g>
	<g>
		<path class="st18" d="M3413.3,866.3h112.2c0,61.6-50.7,112.2-112.2,112.2S3301,927.9,3301,866.3s50.7-112.2,112.2-112.2V866.3z"/>
		<g>
			<path class="st21" d="M3544.3,850.6c0-62-50.3-112.2-112.2-112.2v112.2H3544.3z"/>
			<path class="st21" d="M3319.8,850.6c0,62,50.3,112.2,112.2,112.2C3370.5,962.9,3319.8,912.2,3319.8,850.6z"/>
			<path class="st21" d="M3432.1,738.4c-62,0-112.2,50.3-112.2,112.2C3319.8,789.1,3370.5,738.4,3432.1,738.4z"/>
			<path class="st21" d="M3432.1,962.9c62,0,112.2-50.3,112.2-112.2C3544.3,912.2,3493.6,962.9,3432.1,962.9z"/>
		</g>
	</g>
	
		<ellipse transform="matrix(0.9732 -0.2298 0.2298 0.9732 -91.9094 488.2696)" class="st21" cx="2050.8" cy="638.8" rx="10" ry="10"/>
	
		<ellipse transform="matrix(0.9732 -0.2298 0.2298 0.9732 -127.0737 457.8996)" class="st18" cx="1902.8" cy="774.6" rx="10" ry="10"/>
	<circle class="st18" cx="2114" cy="705.5" r="10"/>
	<circle class="st18" cx="2252" cy="705.5" r="10"/>
	<circle class="st21" cx="2390" cy="705.5" r="10"/>
	<g>
		
			<ellipse transform="matrix(0.7071 -0.7071 0.7071 0.7071 -163.1781 1215.6235)" class="st22" cx="1385.8" cy="804.8" rx="53.7" ry="53.7"/>
		<g>
			<path class="st0" d="M1380.5,823.5c0,0-0.1,0-0.1,0c-0.8,0-1.6-0.4-2.1-1l-14.6-16.6c-1.1-1.2-1-3.1,0.3-4.2
				c1.2-1.1,3.1-1,4.2,0.3l12.5,14.2l28.9-28.3c1.2-1.2,3.1-1.1,4.2,0c1.2,1.2,1.1,3.1,0,4.2l-31.2,30.5
				C1382,823.2,1381.3,823.5,1380.5,823.5z"/>
		</g>
	</g>
	<g>
		<rect x="627" y="481.4" class="st18" width="35.7" height="195"/>
		<rect x="778.5" y="538.2" class="st18" width="35.7" height="138.3"/>
		<rect x="854.3" y="481.4" class="st18" width="35.7" height="195"/>
		<rect x="930" y="607.3" class="st18" width="35.7" height="69.1"/>
		<rect x="702.8" y="422.1" class="st18" width="35.7" height="254.4"/>
		<rect x="1006" y="538.2" class="st18" width="35.7" height="138.3"/>
	</g>
	<g>
		<rect x="2826.5" y="499.1" class="st18" width="35.7" height="103.4"/>
		<rect x="3284.7" y="532.7" class="st18" width="35.7" height="69.8"/>
		<rect x="2978" y="360.5" class="st18" width="35.7" height="242"/>
		<rect x="3053.7" y="493.7" class="st18" width="35.7" height="108.8"/>
		<rect x="3129.5" y="462.9" class="st18" width="35.7" height="139.6"/>
		<rect x="2902.2" y="430.8" class="st18" width="35.7" height="171.7"/>
		<rect x="3205.5" y="391" class="st18" width="35.7" height="211.5"/>
	</g>
	<g>
		<defs>
			<path id="SVGID_2_" d="M513,868c-78.6,0-142.2,63.7-142.2,142.2c0,78.6,63.7,142.2,142.2,142.2s142.2-63.7,142.2-142.2
				C655.3,931.7,591.6,868,513,868z M513,1085.6c-41.6,0-75.3-33.7-75.3-75.3c0-41.6,33.7-75.3,75.3-75.3s75.3,33.7,75.3,75.3
				C588.4,1051.9,554.7,1085.6,513,1085.6z"/>
		</defs>
		<clipPath id="SVGID_3_">
			<use xlink:href="#SVGID_2_"  style="overflow:visible;"/>
		</clipPath>
		<path class="st23" d="M641.6,1088.9L513,1010.3l-23.3,148.9C550.2,1168.7,610.1,1140.4,641.6,1088.9z"/>
		<path class="st24" d="M641.7,1088.7c0.3-0.6,0.8-1.3,0.8-1.3c27.2-45.5,28.2-102,3.3-148.3c-45.5,23.8-18.4,9.4-132.8,71.2
			C641.8,1089,621.8,1076.9,641.7,1088.7z"/>
		<path class="st25" d="M371.7,958.2l141.3,52.1l132.6-71.7C583.6,823.9,416.7,837.7,371.7,958.2z"/>
		<path class="st26" d="M489.8,1159.2l23.3-148.9l-141.3-52.1C338.1,1048.3,397.8,1144.7,489.8,1159.2z"/>
		<path class="st27" d="M648.4,1087.2c25.5-44.9,27-100.4,3.9-146.5l0.1,0l-2.4-4.4c0-0.1-0.1-0.2-0.1-0.3l-1.9-3.6l-0.1,0
			c-15-26.1-36.4-46.8-62.1-60.3c-25.2-13.1-53.8-19-82.8-17c-60.4,4.2-111.3,41.1-134,96.7l-0.1,0l-1.7,4.7l-1.8,4.7l0.1,0
			c-14.2,42.2-9.5,88.2,13.2,127c23.1,39.5,61.3,66.6,105.5,75l0,0.1l4.9,0.8c0,0,5,0.8,5,0.8l0-0.1c6.4,0.8,12.8,1.2,19.2,1.2
			c22.5,0,44.8-4.9,65.5-14.6c26.5-12.3,48.8-31.6,64.7-56l0.1,0.1l1-1.6c0,0,1.6-2.6,1.6-2.6c0.2-0.4,0.5-0.9,0.7-1.2l0.1-0.2
			c0,0,0.1-0.1,0.1-0.1L648.4,1087.2L648.4,1087.2z M633.3,951.3c3-1.5,6.4-3.3,10.4-5.4c21.2,42.9,19.8,94.3-3.8,136
			c0,0-1-0.6-1-0.6c-5.3-3.1-7.5-4.5-18-10.8l-97.9-59.9l81.3-44C616.3,960.2,621.2,957.6,633.3,951.3z M378.2,955.3
			c21.3-51.9,68.9-86.2,125.3-90.2c55.8-3.9,107.1,23.4,135.2,71.5l-39.2,21.2c-8.1,4.3-19.4,10.5-38.3,20.7
			c-12.1,6.6-27.4,14.8-46.9,25.4l-1.2,0.7l-3.9-2.4l-0.2,1.4l-61.9-22.8L378.2,955.3z M387.2,1083.2
			c-21.2-36.2-25.6-79.1-12.4-118.5l93.1,34.3l39.6,14.6l-21.8,139.8C444.4,1145.4,408.7,1120,387.2,1083.2z M495.5,1154.9
			l21.3-136.5l55.5,33.9c22.4,13.7,35.2,21.5,43.2,26.4l19.1,11.7C604.1,1136.8,550.4,1161.7,495.5,1154.9z"/>
	</g>
	<path class="st18" d="M422.6,1334.1c0,24.8-20.1,44.9-44.9,44.9c-24.8,0-44.9-20.1-44.9-44.9s20.1-44.9,44.9-44.9
		C402.5,1289.2,422.6,1309.3,422.6,1334.1z"/>
	<path class="st0" d="M410.7,1336.1c0,12.4-10.1,22.5-22.5,22.5c-12.4,0-22.5-10.1-22.5-22.5c0-12.4,10.1-22.5,22.5-22.5
		C400.6,1313.6,410.7,1323.7,410.7,1336.1z"/>
	<path class="st18" d="M3451.7,1333.5h-111.4c-16.3,0-29.6-13.3-29.6-29.6v-111.4c0-16.3,13.3-29.6,29.6-29.6h111.4
		c16.3,0,29.6,13.3,29.6,29.6v111.4C3481.3,1320.2,3468,1333.5,3451.7,1333.5z"/>
	<g>
		<path class="st0" d="M3503.6,1364.6h-111.4c-19.1,0-34.6-15.5-34.6-34.6v-111.4c0-19.1,15.5-34.6,34.6-34.6h111.4
			c19.1,0,34.6,15.5,34.6,34.6V1330C3538.2,1349.1,3522.6,1364.6,3503.6,1364.6z M3392.2,1194c-13.6,0-24.6,11-24.6,24.6V1330
			c0,13.6,11,24.6,24.6,24.6h111.4c13.6,0,24.6-11,24.6-24.6v-111.4c0-13.6-11-24.6-24.6-24.6H3392.2z"/>
	</g>
	<path class="st18" d="M1489.9,1339.8l-28.4-32.8c-4.3-5-3.8-12.6,1.2-16.9l32.8-28.4c5-4.3,12.6-3.8,16.9,1.2l28.4,32.8
		c4.3,5,3.8,12.6-1.2,16.9l-32.8,28.4C1501.8,1345.3,1494.2,1344.8,1489.9,1339.8z"/>
	<path class="st18" d="M1660.6,1367.2c0,13.9-11.2,25.1-25.1,25.1s-25.1-11.2-25.1-25.1s11.2-25.1,25.1-25.1
		S1660.6,1353.4,1660.6,1367.2z"/>
	<path class="st18" d="M3809.1,1289.5c0,13.8-11.2,25-25,25s-25-11.2-25-25s11.2-25,25-25S3809.1,1275.6,3809.1,1289.5z"/>
	<path class="st18" d="M3162,779.4c0,13.8-11.2,25-25,25c-13.8,0-25-11.2-25-25c0-13.8,11.2-25,25-25
		C3150.8,754.4,3162,765.6,3162,779.4z"/>
	
		<ellipse transform="matrix(0.1602 -0.9871 0.9871 0.1602 1964.4033 4487.4053)" class="st18" cx="3619.4" cy="1089.3" rx="19.5" ry="19.5"/>
	<g>
		<path class="st18" d="M2942.2,848.5h-414.6c-4.5,0-8.2-3.7-8.2-8.2V661.9c0-4.5,3.7-8.2,8.2-8.2h414.6c4.5,0,8.2,3.7,8.2,8.2
			v178.4C2950.3,844.8,2946.7,848.5,2942.2,848.5z"/>
		<path class="st0" d="M2931.9,839.3h-394.1c-3.6,0-6.6-3-6.6-6.6V711.5c0-3.6,3-6.6,6.6-6.6h394.1c3.6,0,6.6,3,6.6,6.6v121.2
			C2938.5,836.4,2935.6,839.3,2931.9,839.3z"/>
		<g>
			<path class="st0" d="M2550.4,683.2h-9.6c-2,0-3.7-1.6-3.7-3.7v-7.9c0-2,1.6-3.7,3.7-3.7h9.6c2,0,3.7,1.6,3.7,3.7v7.9
				C2554.1,681.6,2552.4,683.2,2550.4,683.2z"/>
			<path class="st0" d="M2581.1,683.2h-9.6c-2,0-3.7-1.6-3.7-3.7v-7.9c0-2,1.6-3.7,3.7-3.7h9.6c2,0,3.7,1.6,3.7,3.7v7.9
				C2584.8,681.6,2583.1,683.2,2581.1,683.2z"/>
			<path class="st0" d="M2611.8,683.2h-9.6c-2,0-3.7-1.6-3.7-3.7v-7.9c0-2,1.6-3.7,3.7-3.7h9.6c2,0,3.7,1.6,3.7,3.7v7.9
				C2615.5,681.6,2613.8,683.2,2611.8,683.2z"/>
		</g>
		<path class="st18" d="M2922,734.3h-215.5c-3.5,0-6.4-2.9-6.4-6.4c0-3.5,2.9-6.4,6.4-6.4H2922c3.5,0,6.4,2.9,6.4,6.4
			C2928.4,731.4,2925.5,734.3,2922,734.3z"/>
		<path class="st18" d="M2759.9,833.8h-215.5c-3.5,0-6.4-2.9-6.4-6.4c0-3.5,2.9-6.4,6.4-6.4h215.5c3.5,0,6.4,2.9,6.4,6.4
			C2766.4,830.9,2763.5,833.8,2759.9,833.8z"/>
		<path class="st18" d="M2799.6,833.8h-22.3c-1.2,0-2.2-1-2.2-2.2v-8.5c0-1.2,1-2.2,2.2-2.2h22.3c1.2,0,2.2,1,2.2,2.2v8.5
			C2801.8,832.8,2800.8,833.8,2799.6,833.8z"/>
		<path class="st18" d="M2833.2,833.8h-22.3c-1.2,0-2.2-1-2.2-2.2v-8.5c0-1.2,1-2.2,2.2-2.2h22.3c1.2,0,2.2,1,2.2,2.2v8.5
			C2835.4,832.8,2834.4,833.8,2833.2,833.8z"/>
		<path class="st18" d="M2924,762.4h-356.8c-2.4,0-4.4-2-4.4-4.4c0-2.4,2-4.4,4.4-4.4H2924c2.4,0,4.4,2,4.4,4.4
			C2928.4,760.5,2926.4,762.4,2924,762.4z"/>
		<path class="st18" d="M2924,781.3h-356.8c-2.4,0-4.4-2-4.4-4.4c0-2.4,2-4.4,4.4-4.4H2924c2.4,0,4.4,2,4.4,4.4
			C2928.4,779.3,2926.4,781.3,2924,781.3z"/>
	</g>
	
		<ellipse transform="matrix(0.2298 -0.9732 0.9732 0.2298 -332.4084 877.5306)" class="st18" cx="388.2" cy="648.8" rx="49.5" ry="49.5"/>
	<path class="st18" d="M1078.7,794.5H723c-3.6,0-6.6-3-6.6-6.6c0-3.6,3-6.6,6.6-6.6h355.6c3.6,0,6.6,3,6.6,6.6
		C1085.3,791.5,1082.3,794.5,1078.7,794.5z"/>
	<path class="st18" d="M1078.7,827.5H723c-3.6,0-6.6-3-6.6-6.6c0-3.6,3-6.6,6.6-6.6h355.6c3.6,0,6.6,3,6.6,6.6
		C1085.3,824.5,1082.3,827.5,1078.7,827.5z"/>
	<g>
		<path class="st19" d="M2414.2,1298.9c1-9.1,1.6-18.4,1.6-27.8c0-5-0.2-9.9-0.5-14.8l-45.9-14.9c-2.8-19.4-8.4-37.8-16.3-55
			l30.4-37.5c-7-12.4-15.1-24.1-24.1-35.1l-45.9,15c-13.4-13.7-28.7-25.5-45.5-34.9l2.6-48.2c-12.8-5.8-26.2-10.6-40.1-14.2
			l-28.3,39.1c-11-1.9-22.4-2.8-34-2.8c-7.9,0-15.7,0.5-23.3,1.3l-26.2-40.6c-14.1,2.9-27.7,6.9-40.8,12.1l0.1,48.3
			c-17.3,8.6-33.2,19.6-47.2,32.5l-45-17.4c-9.6,10.5-18.3,21.7-25.9,33.7l28.4,39c-8.8,16.8-15.3,34.9-19.2,54.1l-46.6,12.4
			c-1,9.1-1.6,18.4-1.6,27.8c0,5,0.2,9.9,0.5,14.8l45.9,14.9c2.8,19.4,8.4,37.8,16.3,55l-30.4,37.5c7,12.4,15.1,24.1,24.1,35.1
			l45.9-15c13.4,13.7,28.7,25.5,45.4,34.9l-2.6,48.2c12.8,5.8,26.2,10.6,40.1,14.2l28.3-39.1c11,1.9,22.4,2.8,34,2.8
			c7.9,0,15.7-0.5,23.3-1.3l26.2,40.6c14.1-2.9,27.7-6.9,40.8-12.1l-0.1-48.3c17.3-8.6,33.2-19.6,47.2-32.5l45,17.4
			c9.6-10.5,18.3-21.7,25.9-33.7l-28.4-39c8.8-16.8,15.3-34.9,19.2-54.1L2414.2,1298.9z M2168.3,1368.2c-53.6,0-97-43.5-97-97
			c0-53.6,43.5-97.1,97-97.1s97,43.5,97,97.1C2265.4,1324.7,2221.9,1368.2,2168.3,1368.2z"/>
		<g>
			<path class="st0" d="M2300.7,1383.2c-1.1,0-2.3-0.4-3.2-1.2c-2.1-1.8-2.4-4.9-0.6-7c24.2-29.1,37.5-66,37.5-103.9
				c0-18.1-3-36-8.8-53c-0.9-2.6,0.5-5.5,3.1-6.4c2.6-0.9,5.5,0.5,6.4,3.1c6.2,18,9.4,37,9.4,56.2c0,40.2-14.1,79.4-39.8,110.3
				C2303.6,1382.6,2302.1,1383.2,2300.7,1383.2z"/>
		</g>
		<g>
			<path class="st0" d="M2286.6,1154.1c-1.2,0-2.5-0.5-3.4-1.4c-16.3-15.3-35.1-26.9-56-34.5c-2.6-0.9-3.9-3.8-3-6.4
				c0.9-2.6,3.8-3.9,6.4-3c22.2,8,42.1,20.4,59.4,36.6c2,1.9,2.1,5.1,0.2,7.1C2289.3,1153.6,2288,1154.1,2286.6,1154.1z"/>
		</g>
		<g>
			<path class="st0" d="M2130.7,1113.7c-2.2,0-4.3-1.5-4.8-3.8c-0.7-2.7,0.9-5.4,3.6-6.1c13.8-3.5,28-5.2,42.4-5.2c2.8,0,5,2.2,5,5
				s-2.2,5-5,5c-13.5,0-26.9,1.7-39.9,4.9C2131.5,1113.6,2131.1,1113.7,2130.7,1113.7z"/>
		</g>
	</g>
</g>
</svg>
