<?xml version="1.0" encoding="utf-8"?>
<!-- Generator: Adobe Illustrator 24.3.0, SVG Export Plug-In . SVG Version: 6.00 Build 0)  -->
<svg version="1.1" id="_x2018_ëîé_x5F_1" xmlns="http://www.w3.org/2000/svg" xmlns:xlink="http://www.w3.org/1999/xlink"
	 x="0px" y="0px" viewBox="0 0 3200 2000" style="enable-background:new 0 0 3200 2000;" xml:space="preserve">
<style type="text/css">
	.st0{fill:#FFFFFF;}
	.st1{fill:#EBF3FA;}
	.st2{fill:#F99746;}
	.st3{fill:#ED7D2B;}
	.st4{fill:#163560;}
	.st5{fill:#FFB27D;}
	.st6{fill:#ED985F;}
	.st7{fill:#D2E3FC;}
	.st8{fill:#B7D3F3;}
	.st9{fill:#395A8E;}
	.st10{fill:#233862;}
	.st11{fill:#172A49;}
	.st12{fill:#8E342E;}
	.st13{fill:#ED975D;}
	.st14{fill:#77A4E5;}
	.st15{fill:#274672;}
	.st16{fill:#C0D8FB;}
	.st17{fill:#DFEBFD;}
	.st18{fill:#F9DDBF;}
	.st19{fill:#EAC3A0;}
	.st20{fill:#2B478B;}
	.st21{fill:#1B3051;}
	.st22{fill:#1E3C68;}
	.st23{fill:#D5E5FB;}
	.st24{opacity:0.5;}
	.st25{fill:#9FC1F4;}
	.st26{fill:#AFCDFB;}
	.st27{fill:#2E3552;}
</style>
<rect class="st0" width="3200" height="2000"/>
<g>
	<path class="st1" d="M228.7,1568.9c0,0-312.9-545.7,67.9-961.9c234.3-256.1,587.6-93.4,989.2-132.5c401.6-39.1,589.3-87.1,829.5,5
		c240.2,92,559.7-6,748.7,292.3c353.3,557.6,165.5,790.6,165.5,790.6L228.7,1568.9z"/>
	<g>
		<path class="st2" d="M1880.5,1159.8c0,0-4.3-43.6-14.8-82.5c-2.1-8,3.8-15.8,12.1-15.8h110.7l18.1,98.3
			C2006.5,1159.8,1878.2,1163.7,1880.5,1159.8z"/>
		<path class="st3" d="M1891.1,1159.8c0,0-4.3-43.6-14.8-82.5c-2.1-8,3.8-15.8,12.1-15.8H1999l18.1,98.3
			C2017.1,1159.8,1888.7,1163.7,1891.1,1159.8z"/>
	</g>
	<g>
		<path class="st4" d="M2051.8,864.2c0,0-30.8-4.9-47.9,21.3c-17.6,26.9-35.1,62.3-23.6,72.8c9.9,9,8.6,16.2,0,20.6
			c-36.6,18.8-16.2,36.3-3.2,42.7c13,6.4,124.5,20.5,129.2,13.1c23.5-37.1-15.1-53.3-8.6-64.9
			C2103.2,960.3,2137.6,873.9,2051.8,864.2z"/>
		<path class="st5" d="M2092.9,1048.3c-8,6.2-13,28.4-25.9,32c-48.2,13.7-74-43.4-82.5-71.3c6.5-4.1,12.7-5.3,16.3-5.9
			c3.5-0.6,7.2-1.1,10.3-1.4c5.3-4.5,12.5-22,13-48.8l2.3,0.5l38.9,8.6c0,0-1.1,12.3-1.4,23.9c-0.2,9.1-0.5,11.2,0.2,12.3
			c3,0.5,6.6,8.2,6.6,8.2s0,0,0,0C2071.3,1007.2,2083.4,1025,2092.9,1048.3z"/>
		<path class="st6" d="M2065.4,961.9c0,0-1.1,12.3-1.4,23.9c-21.9-1.1-33-21.3-37.5-32.4L2065.4,961.9z"/>
		<g>
			<path class="st7" d="M2263.4,1163.9c0,0-22.9,0.8-47.8,0.9c-2.9,0-5.9,0-8.9,0c-20.3-0.1-40.2-0.8-48.6-3
				c-8.3-2.1-40.1-23.7-65.6-49.8c0,0,0,0,0,0c-2,4.7-3.5,8.3-3.5,8.6c-0.7,5.9-2,11.7-3.5,17.4c-5.8,21.5-15.4,39.6-15.7,40.2
				l-13.6,0l-106.5-0.2c0,0,20.1-31,14.7-110.3c-0.1-2,18.5-66,18.5-66s14.5-2.5,31.3-3.9c1.6,1.4,4.8,43.6,25.8,46
				c3.4,0.4,25.3,33.8,25.3,33.8l6.6-34.1l-7.8-45.3c10.1,2.9,15.6,4,23.9,7.3c5.7,2.3,10.4,6.5,13.4,11.9
				c14.7,26.8,62.2,113.2,67.1,115.2c4.5,1.9,21.7,5.3,39.8,8.6h0c24.3,4.4,50.3,8.6,50.3,8.6L2263.4,1163.9z"/>
			<path class="st7" d="M2077.4,1178.2l-7.6,0c0,0,0,0,0,0L2077.4,1178.2z"/>
		</g>
		<path class="st5" d="M2071.8,973.7c0,0-51.8-1-50.6-33.2c1.1-32.2-4.8-54.1,28.3-54.8c33.1-0.7,39.1,11.8,41.3,22.7
			C2093.1,919.1,2085.3,973.1,2071.8,973.7z"/>
		<path class="st8" d="M2215.6,1164.8c-2.9,0-5.9,0-8.9,0c-20.3-0.1-40.2-0.8-48.6-3c-8.3-2.1-40.1-23.7-65.6-49.8c0,0,0,0,0,0
			s5.4-20.6,7.7-24c2.3-3.5,11.5,30,32.8,43.6s54.8,23.2,71,19.3C2214.9,1148.3,2216.1,1158.1,2215.6,1164.8z"/>
		<path class="st0" d="M2061.7,955.7c0,0,0.3,3.9,8.8,4.5c0,0,7.1,0.5,7.4-3.6C2077.9,956.5,2071.4,952.6,2061.7,955.7z"/>
		<path class="st5" d="M2148.8,1139.4c0,0,20.7-3.5,22.8-2.6c3.5,1.4,15.4,7.4,17.4,9.4c2,1.9,7.5,9.9,7.5,9.9s-1.9,0.8-2.9,0.1
			s-8.6-7.2-8.6-7.2l8.1,9.9c0,0-2.4,0.2-3.5-0.8c-1.1-1-8.3-6.9-8.3-6.9l-2.3-0.2c0,0,2.5,1.6,3.9,3.1s2.4,3.2,2.4,3.2
			s-2-0.1-2.7-0.4c-0.7-0.2-7-4.7-7-4.7l3.6,3.9c0,0-2.1,0.1-2.8-0.3c-0.7-0.4-5.7-4.1-6.5-4c-0.8,0.1-6.6,0.5-9.3-0.6
			c-2.6-1.1-10.8-3.3-10.8-3.3L2148.8,1139.4z"/>
		<path class="st8" d="M2018.8,987.5c0,0-16.4,8.4-19.7,11.8c0,0,15.5,39.7,37.9,58.2l6-4.2v9.6l22.4,14.7
			C2065.4,1077.6,2017.7,999.5,2018.8,987.5z"/>
		<path class="st8" d="M2085.5,1138c-5.8,21.5-15.4,39.6-15.7,40.2l7.6,0l-7.6,0h-70.7c0,0,8.2,0,8.2-0.1c-0.2-0.7,12-33.7-8.2-47.2
			c-20.2-13.5-27.5-46.8-27.5-46.8l64.2-15.7c0,0,26.5,38.6,34,46c5.8,5.7,19.3,6.1,19.3,6.1L2085.5,1138z"/>
		<path class="st8" d="M2063.5,997.8c0,0,7.5,54.4,1.8,79.8c0,0,9.2-16.8,10.5-19.9l-1.5-9.3l5.9,2.1c0,0-4.7-43.4-9.9-50.6
			c-2.3-3.2-6.5-7.7-6.5-7.7L2063.5,997.8z"/>
		<path class="st5" d="M2263.4,1163.9c0,0-28.6,1.1-56.6,0.9c-6.9-10.8,1.6-23.7,1.6-23.7h0c24.3,4.4,50.3,8.6,50.3,8.6
			L2263.4,1163.9z"/>
		<path class="st5" d="M2154.1,1148.4c0,0-52.2,7.5-80.5,9.3l5-27.5c19,3.1,70.2,9.2,70.2,9.2L2154.1,1148.4z"/>
		<path class="st7" d="M1999.1,999.3c0,0-31.2,0.7-40.8,11.1c-9.6,10.4,9.6,69.3,9.6,69.3s58.1,71.2,87.2,76.2
			c0,0,12.7,1.7,18.6,1.8c0,0,6.6-13.8,5-27.5c0,0-12.4-3.5-13-5C2065.1,1123.6,1999.1,999.3,1999.1,999.3z"/>
		<path class="st4" d="M2082.3,889c0,0-12.5,45.8-67.4,44.6c0,0-5.7-43.3,23.9-50.2C2068.3,876.3,2082.3,889,2082.3,889z"/>
		<path class="st4" d="M2090.9,921c0,0,3-13.7-17-24.9c0,0,14.2-16,20.2-6.7C2100.2,898.7,2090.9,921,2090.9,921z"/>
		<path class="st3" d="M2020.5,981.5c0,0-9.8,5.2-12,11.5c0,0,9.3,24.3,40.9,32.6C2049.5,1025.7,2026.7,999,2020.5,981.5z"/>
		<path class="st3" d="M2063.9,987.5c0,0,1,30.4-14.4,38.2c0,0,19-2.2,21.3-19.3C2072.1,996.3,2068.8,989.7,2063.9,987.5z"/>
		<path class="st3" d="M2051.1,1023.2c0,0-7,21.2-5.2,26.6c1.8,5.5,14.3,30,14.4,38c0,0,9-12.5,8.8-27.6
			S2051.1,1023.2,2051.1,1023.2z"/>
		<path class="st2" d="M2052.6,1023.7c0,0-1.7,14.6,0,18.8s10.3,9.3,18.5,10.2c0,0,2.2-6.2-1.3-10.7
			C2066.2,1037.5,2053.6,1029.7,2052.6,1023.7z"/>
		<path class="st3" d="M2045.9,1023.8c0,0,0.8-4,2.8-5c2-0.9,6.9,1.8,7.5,3.3c0.6,1.5-0.4,4.8-3.2,5.4S2045.3,1025.7,2045.9,1023.8z
			"/>
	</g>
	<g>
		<g>
			<polygon class="st9" points="2348.3,1127.5 2157.7,1127.5 2176.4,991.2 2367,991.2 			"/>
			<polygon class="st10" points="2352.8,1127.5 2162.2,1127.5 2180.9,991.2 2371.5,991.2 			"/>
		</g>
		<g>
			<polygon class="st9" points="2289.5,1050.1 2273.4,1159.8 2235.2,1159.8 2235.9,1154.9 2251.3,1050.1 			"/>
			<polygon class="st11" points="2276.2,1159.8 2238,1159.8 2254.1,1050.1 2292.3,1050.1 			"/>
			<path class="st11" d="M2241.4,1159.8h63.3l0,0c0-2.7-2.2-4.9-4.9-4.9h-57.7L2241.4,1159.8z"/>
			<path class="st9" d="M2265.1,1159.8L2265.1,1159.8h-30l0.7-4.9h24.4C2262.9,1154.9,2265.1,1157.1,2265.1,1159.8z"/>
		</g>
	</g>
	<g>
		<path class="st2" d="M349.2,1159.8c0,0-4.3-43.6-14.8-82.5c-2.1-8,3.8-15.8,12.1-15.8h110.7l18.1,98.3
			C475.2,1159.8,346.9,1163.7,349.2,1159.8z"/>
		<path class="st3" d="M359.8,1159.8c0,0-4.3-43.6-14.8-82.5c-2.1-8,3.8-15.8,12.1-15.8h110.7l18.1,98.3
			C485.8,1159.8,357.4,1163.7,359.8,1159.8z"/>
	</g>
	<g>
		<path class="st2" d="M1143.9,1159.8c0,0-4.3-43.6-14.8-82.5c-2.1-8,3.8-15.8,12.1-15.8h110.7l18.1,98.3
			C1270,1159.8,1141.6,1163.7,1143.9,1159.8z"/>
		<path class="st3" d="M1154.5,1159.8c0,0-4.3-43.6-14.8-82.5c-2.1-8,3.8-15.8,12.1-15.8h110.7l18.1,98.3
			C1280.5,1159.8,1152.2,1163.7,1154.5,1159.8z"/>
	</g>
	<g>
		<path class="st12" d="M519.9,872.4c0,0-36.5-21-62.2-1.1c-25.6,19.8-17.8,31.7-38.3,67.6c-15,26.4,8.5,38.4,47.6,44.9
			c39.1,6.6,66.4,23.5,76.3,8.4C553.3,977,550.8,890.8,519.9,872.4z"/>
		<path class="st5" d="M527.8,1048.3c-8,6.2-13,28.4-25.9,32c-48.2,13.7-74-43.4-82.5-71.3c6.5-4.1,12.7-5.3,16.2-5.9
			c3.5-0.6,7.2-1.1,10.3-1.4c5.3-4.5,12.5-22,13-48.8l2.3,0.5l38.9,8.6c0,0-1.1,12.3-1.4,23.9c-0.2,9.1-0.5,11.2,0.2,12.3
			c3,0.5,6.6,8.2,6.6,8.2s0,0,0,0C506.2,1007.2,518.2,1025,527.8,1048.3z"/>
		<path class="st6" d="M500.2,961.9c0,0-1.1,12.3-1.4,23.9c-21.9-1.1-33-21.3-37.5-32.4L500.2,961.9z"/>
		<g>
			<path class="st7" d="M650.5,1164.8c-2.9,0-5.9,0-8.9,0c-20.3-0.1-40.2-0.8-48.6-3c-8.3-2.1-40.1-23.7-65.6-49.8c0,0,0,0,0,0
				c-2,4.7-3.5,8.3-3.5,8.6c-0.7,5.9-2,11.7-3.5,17.4c-5.8,21.5-15.4,39.6-15.7,40.2l-13.6,0l-106.5-0.2c0,0,20.1-31,14.7-110.3
				c-0.1-2,18.5-66,18.5-66s14.5-2.5,31.3-3.9c1.6,1.4,4.8,43.6,25.8,46c3.4,0.4,25.3,33.8,25.3,33.8l6.6-34.1l-7.8-45.3
				c10.1,2.9,15.6,4,23.9,7.3c5.7,2.3,10.4,6.5,13.4,11.9c14.7,26.8,62.2,113.2,67.1,115.2c4.5,1.9,21.7,5.3,39.8,8.6h0
				C656.4,1143.5,675.4,1164.7,650.5,1164.8z"/>
			<path class="st7" d="M512.3,1178.2l-7.6,0c0,0,0,0,0,0L512.3,1178.2z"/>
		</g>
		<path class="st5" d="M506.7,973.7c0,0-51.8-1-50.6-33.2c1.1-32.2-4.8-54.1,28.3-54.8c33.1-0.7,39.1,11.8,41.3,22.7
			C527.9,919.1,520.2,973.1,506.7,973.7z"/>
		<path class="st8" d="M650.5,1164.8c-2.9,0-5.9,0-8.9,0c-20.3-0.1-40.2-0.8-48.6-3c-8.3-2.1-40.1-23.7-65.6-49.8c0,0,0,0,0,0
			s5.4-20.6,7.7-24c2.3-3.5,11.5,30,32.8,43.6s54.8,23.2,71,19.3C649.8,1148.3,650.9,1158.1,650.5,1164.8z"/>
		<path class="st0" d="M496.5,955.7c0,0,0.3,3.9,8.8,4.5c0,0,7.1,0.5,7.4-3.6C512.8,956.5,506.3,952.6,496.5,955.7z"/>
		<path class="st5" d="M589.2,1145.2c0,0,22.2-1.3,24.4-0.1c3.5,1.9,15.4,9.6,17.3,11.8c1.9,2.2,6.8,11.2,6.8,11.2s-2.1,0.6-3.1-0.3
			c-1-0.9-8.2-8.6-8.2-8.6l7.4,11.3c0,0-2.6-0.1-3.6-1.2c-1-1.1-8-8.2-8-8.2l-2.4-0.5c0,0,2.4,1.9,3.7,3.7c1.3,1.8,2.2,3.6,2.2,3.6
			s-2.1-0.4-2.8-0.7c-0.7-0.3-6.9-5.8-6.9-5.8l3.3,4.5c0,0-2.2-0.1-3-0.6c-0.7-0.5-5.6-5-6.5-5c-0.9,0-7.1-0.2-9.7-1.7
			c-2.7-1.4-11-4.6-11-4.6L589.2,1145.2z"/>
		<path class="st8" d="M453.7,987.5c0,0-16.4,8.4-19.7,11.8c0,0,15.5,39.7,37.9,58.2l6-4.2v9.6l22.4,14.7
			C500.2,1077.6,452.5,999.5,453.7,987.5z"/>
		<path class="st8" d="M520.4,1138c-5.8,21.5-15.4,39.6-15.7,40.2l7.6,0l-7.6,0h-70.7c0,0,8.2,0,8.2-0.1c-0.2-0.7,12-33.7-8.2-47.2
			c-20.2-13.5-27.5-46.8-27.5-46.8l64.2-15.7c0,0,26.5,38.6,34,46c5.8,5.7,19.3,6.1,19.3,6.1L520.4,1138z"/>
		<path class="st8" d="M498.4,997.8c0,0,7.5,54.4,1.8,79.8c0,0,9.2-16.8,10.5-19.9l-1.5-9.3l5.9,2.1c0,0-4.7-43.4-9.9-50.6
			c-2.3-3.2-6.5-7.7-6.5-7.7L498.4,997.8z"/>
		<path class="st5" d="M589.3,1154.2c0,0-54.5,4.8-84.6,3.4V1128c19.7,5.4,84.6,17.2,84.6,17.2L589.3,1154.2z"/>
		<path class="st7" d="M433.9,999.3c0,0-31.2,0.7-40.8,11.1c-9.6,10.4,9.6,69.3,9.6,69.3s58.1,71.2,87.2,76.2c0,0,12.7,1.7,18.6,1.8
			c0,0-5.8-16.9,5-27.5c0,0-12.4-3.5-13-5C500,1123.6,433.9,999.3,433.9,999.3z"/>
		<path class="st12" d="M517.1,889c0,0-12.5,45.8-67.4,44.6c0,0-5.7-43.3,23.9-50.2C503.2,876.3,517.1,889,517.1,889z"/>
		<path class="st12" d="M525.7,921c0,0,3-13.7-17-24.9c0,0,14.2-16,20.2-6.7C535.1,898.7,525.7,921,525.7,921z"/>
		<path class="st3" d="M455.4,981.5c0,0-9.8,5.2-12,11.5c0,0,9.3,24.3,40.9,32.6C484.4,1025.7,461.6,999,455.4,981.5z"/>
		<path class="st3" d="M498.8,987.5c0,0,1,30.4-14.4,38.2c0,0,19-2.2,21.3-19.3C507,996.3,503.6,989.7,498.8,987.5z"/>
		<path class="st3" d="M486,1023.2c0,0-7,21.2-5.2,26.6c1.8,5.5,14.3,30,14.4,38c0,0,9-12.5,8.8-27.6
			C503.7,1045,486,1023.2,486,1023.2z"/>
		<path class="st2" d="M487.4,1023.7c0,0-1.7,14.6,0,18.8c1.7,4.2,10.3,9.3,18.5,10.2c0,0,2.2-6.2-1.3-10.7
			C501,1037.5,488.5,1029.7,487.4,1023.7z"/>
		<path class="st3" d="M480.7,1023.8c0,0,0.8-4,2.8-5c2-0.9,6.9,1.8,7.5,3.3c0.6,1.5-0.4,4.8-3.2,5.4
			C485.1,1028.2,480.2,1025.7,480.7,1023.8z"/>
	</g>
	<g>
		<path class="st10" d="M1362.2,878.9c-6.4-5.1-18.1-8.5-22.2-8.4c-3,0.1-6-0.2-9-0.6c-35.7-4.8-57.2,47.1-58.5,62.8
			c-2.3,29-17.7,33.4-39.3,51.6c-43.3,36.4-30.6,78.7-6.9,94.4c14.2,9.4,39.2,0,39.2,0c0.4,0.2,68.5-38.1,102-56.6
			C1417.9,1015,1382.9,895.4,1362.2,878.9z"/>
		<path class="st7" d="M1488.7,1147.2c0,0-47-11.9-58.9-22.3c-10.2-8.8-31.6-90.6-41.9-111.4c-6.9-14-37.7-23.4-46.1-25.1
			c-0.2-0.3,7.2,76.1-4.1,67.1c-34.7-27.6-29.1-46.7-40.7-71.2c-0.7-1.5-16.9,22.2-31.9,50.6c-16.5,31.3-12,38-7.3,57.4
			c0.8,3.6,1.6,6.8,2.1,9.8c5.6,28.4,0.9,34.1,7.5,52.7c1.9,5.4,52.9,10.1,81.9,8.2c9.2-0.6,16.2-1.9,18.7-4.1
			c8.9-7.7,9.4,5.8,10.2-50.4c2.3,5.6,17.4,45.3,26.6,49.5c13,6,87.5,1.7,87.5,1.7L1488.7,1147.2z"/>
		<path class="st5" d="M1343.6,1008.6c0.1,0.1,3.5,43.6-4.1,44.4c-11.4,1.2-46.1-67.6-46-67.6c4.8-0.2,10-4.4,14-31.7l2,0.7
			l34.1,12.3c0,0-2.5,11-4.1,21.4C1338.3,996.8,1341.7,1007.4,1343.6,1008.6z"/>
		<path class="st13" d="M1343.7,966.7c0,0-2.5,11-4.1,21.4c-19.6-3.5-27.3-23.1-30.1-33.7L1343.7,966.7z"/>
		<path class="st5" d="M1348.8,977.6c0,0-46.7-6.3-42.4-35.3c4.4-29,1.3-49.4,31.3-46.6c30,2.8,34.1,14.7,35,24.8
			C1373.6,930.4,1361,978.4,1348.8,977.6z"/>
		<path class="st10" d="M1371,904.5c0,0-29.9,25.8-50.2,27.8c-20.3,2.1-28-4.5-28-4.5s12-10,19.2-26c2.1-4.7,6.6-8,11.8-8.4
			C1338.2,892.2,1365.8,891.6,1371,904.5z"/>
		<path class="st10" d="M1352.3,902.2c0,0,10,9.7,13.2,16.8c3,6.9,4,23.5,1.5,30.1c0,0,15.6-30.3,6.8-45
			C1364.4,888.4,1352.3,902.2,1352.3,902.2z"/>
		<path class="st8" d="M1349.3,1163.1c-29,1.9-80-2.9-81.9-8.2c-6.7-18.5-2-24.3-7.5-52.7l14-39.4c0,0-2.3,43.9,10.6,55.4
			c12.9,11.5,52.9,22.3,59.2,31.9C1346.7,1154.7,1348.7,1159.4,1349.3,1163.1z"/>
		<path class="st5" d="M1316.1,1144.6c0,0,28.6-6.4,33.2-3.8c4.6,2.5,15.9,11.8,17.3,15s-10.3-2.4-14.1-3.5
			c-2.5-0.7-8.9,1.6-12.2,2.7c-13.5,4.5-21.8,2.2-21.8,2.2L1316.1,1144.6z"/>
		<path class="st7" d="M1296.9,984.3c0,0-38.4,2.4-51.7,20.9c-18.7,26.1-55.8,137.4-34.6,152.2c24,16.7,109.1,4.4,109.1,4.4
			s2.8-13.2-1.1-19.6c-3.9-6.4-68-16.7-70.9-19.7c-3-3,36.9-57.6,36.9-66.5S1296.9,984.3,1296.9,984.3z"/>
		<path class="st5" d="M1350.7,1148.8c0,0,6,7.7,8,8.7c2,0.9,3.2,0.7,3.2,0.7l-4-7.3L1350.7,1148.8z"/>
		<path class="st5" d="M1349.3,1140.8l17.4,8.5c0,0-0.7,1.2-2.9,1.1c-2.1-0.1-7.6-2.1-7.6-2.1L1349.3,1140.8z"/>
		<path class="st8" d="M1298.5,982.5c0,0-5.4-0.5-16.3,3.9c0,0,12.4,44,33.2,61.2l5.6-3.9v9l20.8,13.6
			C1341.8,1066.3,1297.4,993.7,1298.5,982.5z"/>
		<path class="st8" d="M1340.1,992.1c0,0,6.9,50.6,1.7,74.2c0,0,8.5-15.7,9.7-18.5l-1.4-8.6l5.5,1.9c0,0-4.4-40.4-9.2-47
			c-2.2-3-6-7.2-6-7.2L1340.1,992.1z"/>
		<path class="st3" d="M1303.6,972.7c0,0-9,4.7-11,10.6c0,0,5.1,26.9,34.5,34.7C1327,1018,1309.3,989,1303.6,972.7z"/>
		<path class="st3" d="M1339.9,986.3c0,0-0.8,4-1.4,10.4c-0.7,7.7-3.3,17.3-11.5,21.4c0,0,17.6-2.1,19.8-17.9
			C1348.1,990.7,1344.4,988.4,1339.9,986.3z"/>
		<path class="st3" d="M1328.5,1015.7c0,0-6.5,19.7-4.9,24.8c1.6,5.1,13.3,27.9,13.4,35.3c0,0,8.4-11.6,8.1-25.7
			C1345,1036,1328.5,1015.7,1328.5,1015.7z"/>
		<path class="st2" d="M1329.9,1016.1c0,0-1.5,13.6,0,17.5c1.5,3.9,9.6,8.7,17.2,9.5c0,0,2.1-5.8-1.2-10
			C1342.5,1029,1330.9,1021.7,1329.9,1016.1z"/>
		<path class="st3" d="M1323.7,1016.3c0,0,0.7-3.7,2.6-4.6c1.9-0.9,6.4,1.6,7,3c0.6,1.4-0.4,4.5-3,5
			C1327.7,1020.3,1323.2,1018,1323.7,1016.3z"/>
		<path class="st10" d="M1342,1089.7c0-0.9,0.8-1.7,1.7-1.7c0.9,0,1.7,0.8,1.7,1.7c0,0.9-0.8,1.7-1.7,1.7
			C1342.7,1091.4,1342,1090.6,1342,1089.7z"/>
		<path class="st10" d="M1336.7,1116.8c0-0.9,0.8-1.7,1.7-1.7s1.7,0.8,1.7,1.7c0,0.9-0.8,1.7-1.7,1.7S1336.7,1117.8,1336.7,1116.8z"
			/>
	</g>
	<rect x="323.2" y="1168.9" class="st14" width="2397.5" height="394.2"/>
	<rect x="287.8" y="1159.8" class="st15" width="2460.9" height="31.4"/>
	<rect x="323.2" y="1291.4" class="st8" width="2397.5" height="151.1"/>
	<rect x="1296.3" y="1153.3" class="st10" width="144.4" height="6.5"/>
	<rect x="2081.9" y="1153.3" class="st10" width="144.4" height="6.5"/>
	<rect x="531.1" y="1153.3" class="st10" width="101.2" height="6.5"/>
	<g>
		<g>
			<polygon class="st9" points="1584.3,1127.5 1393.7,1127.5 1412.3,991.2 1603,991.2 			"/>
			<polygon class="st10" points="1588.8,1127.5 1398.1,1127.5 1416.8,991.2 1607.4,991.2 			"/>
		</g>
		<g>
			<polygon class="st9" points="1525.5,1050.1 1509.3,1159.8 1471.1,1159.8 1471.9,1154.9 1487.3,1050.1 			"/>
			<polygon class="st11" points="1512.1,1159.8 1473.9,1159.8 1490.1,1050.1 1528.3,1050.1 			"/>
			<path class="st11" d="M1477.4,1159.8h63.3l0,0c0-2.7-2.2-4.9-4.9-4.9h-57.7L1477.4,1159.8z"/>
			<path class="st9" d="M1501.1,1159.8L1501.1,1159.8h-30l0.7-4.9h24.4C1498.9,1154.9,1501.1,1157.1,1501.1,1159.8z"/>
		</g>
	</g>
	<g>
		<path class="st16" d="M2620.1,788.5h-99.5c-4.6,0-8.3-3.7-8.3-8.3v-96.1c0-4.6,3.7-8.3,8.3-8.3h99.5c4.6,0,8.3,3.7,8.3,8.3v96.1
			C2628.4,784.7,2624.7,788.5,2620.1,788.5z"/>
		<path class="st17" d="M2615.8,783.6h-90.9c-4.2,0-7.6-3.4-7.6-7.6v-87.7c0-4.2,3.4-7.6,7.6-7.6h90.9c4.2,0,7.6,3.4,7.6,7.6V776
			C2623.4,780.2,2620,783.6,2615.8,783.6z"/>
		<g>
			<g>
				<path class="st8" d="M2568,691c0-1.3,1.1-2.4,2.4-2.4c1.3,0,2.4,1.1,2.4,2.4c0,1.3-1.1,2.4-2.4,2.4
					C2569,693.4,2568,692.3,2568,691z"/>
				<path class="st8" d="M2587.4,694.4c0.6-1.2,2.1-1.6,3.3-0.9c1.2,0.6,1.6,2.1,0.9,3.3c-0.6,1.2-2.1,1.6-3.3,0.9
					S2586.7,695.5,2587.4,694.4z"/>
				<path class="st8" d="M2604,707.6c1.1-0.7,2.6-0.4,3.3,0.7s0.4,2.6-0.7,3.3c-1.1,0.7-2.6,0.4-3.3-0.7
					C2602.6,709.8,2602.9,708.3,2604,707.6z"/>
				<path class="st8" d="M2612.2,728c1.3,0,2.4,1.1,2.4,2.4c0,1.3-1.1,2.4-2.4,2.4c-1.3,0-2.4-1.1-2.4-2.4
					C2609.8,729.1,2610.9,728,2612.2,728z"/>
				<path class="st8" d="M2608,751.8c0.9,0.9,0.9,2.5,0,3.4c-0.9,0.9-2.5,0.9-3.4,0c-0.9-0.9-0.9-2.5,0-3.4
					C2605.6,750.8,2607.1,750.8,2608,751.8z"/>
				<path class="st8" d="M2592.9,766.9c0.9,0.9,0.9,2.5,0,3.4c-0.9,0.9-2.5,0.9-3.4,0c-0.9-0.9-0.9-2.5,0-3.4
					C2590.5,766,2592,766,2592.9,766.9z"/>
				<path class="st8" d="M2568,774.7c0-1.3,1.1-2.4,2.4-2.4c1.3,0,2.4,1.1,2.4,2.4c0,1.3-1.1,2.4-2.4,2.4
					C2569,777.1,2568,776,2568,774.7z"/>
			</g>
			<g>
				<path class="st8" d="M2553.3,694.4c-0.6-1.2-2.1-1.6-3.3-0.9c-1.2,0.6-1.6,2.1-0.9,3.3c0.6,1.2,2.1,1.6,3.3,0.9
					C2553.5,697,2553.9,695.5,2553.3,694.4z"/>
				<path class="st8" d="M2536.6,707.6c-1.1-0.7-2.6-0.4-3.3,0.7s-0.4,2.6,0.7,3.3c1.1,0.7,2.6,0.4,3.3-0.7
					C2538.1,709.8,2537.8,708.3,2536.6,707.6z"/>
				<path class="st8" d="M2528.4,728c-1.3,0-2.4,1.1-2.4,2.4c0,1.3,1.1,2.4,2.4,2.4c1.3,0,2.4-1.1,2.4-2.4
					C2530.8,729.1,2529.7,728,2528.4,728z"/>
				<path class="st8" d="M2532.6,751.8c-0.9,0.9-0.9,2.5,0,3.4c0.9,0.9,2.5,0.9,3.4,0c0.9-0.9,0.9-2.5,0-3.4
					C2535.1,750.8,2533.6,750.8,2532.6,751.8z"/>
				<path class="st8" d="M2547.7,766.9c-0.9,0.9-0.9,2.5,0,3.4c0.9,0.9,2.5,0.9,3.4,0c0.9-0.9,0.9-2.5,0-3.4
					C2550.2,766,2548.7,766,2547.7,766.9z"/>
			</g>
		</g>
		<g>
			<path class="st8" d="M2569.7,730.4c0-1.3,1.1-2.4,2.4-2.4c1.3,0,2.4,1.1,2.4,2.4c0,1.3-1.1,2.4-2.4,2.4
				C2570.8,732.8,2569.7,731.8,2569.7,730.4z"/>
			<g>
				<rect x="2571.8" y="700.4" class="st8" width="0.7" height="30.1"/>
			</g>
			<g>
				
					<rect x="2569.7" y="723.1" transform="matrix(0.7866 -0.6174 0.6174 0.7866 103.3423 1747.3026)" class="st8" width="20.3" height="2"/>
			</g>
		</g>
	</g>
	<g>
		<g>
			<g>
				<path class="st11" d="M1748.1,1562.4h0.3c2,0,3.7-1.7,3.6-3.7l-5.5-239l-16.1-1.9l13.8,240.9
					C1744.3,1560.8,1746,1562.4,1748.1,1562.4z"/>
			</g>
			<g>
				<path class="st11" d="M1842.2,1562.4h0.3c2,0,3.7-1.7,3.6-3.7l-5.5-239l-16.1-1.9l13.8,240.9
					C1838.4,1560.8,1840.1,1562.4,1842.2,1562.4z"/>
			</g>
			<g>
				<path class="st11" d="M1582.5,1562.4h-0.3c-2,0-3.7-1.7-3.6-3.7l5.5-239l16.1-1.9l-13.8,240.9
					C1586.3,1560.8,1584.6,1562.4,1582.5,1562.4z"/>
			</g>
			<path class="st11" d="M1852.9,1304.9v-163.8c0-28.8-23.2-52.2-51.9-52.2h-117.3c-28.6,0-51.9,23.4-51.9,52.2v170L1852.9,1304.9z"
				/>
			<path class="st11" d="M1610.8,1330.7h226.4c8.6,0,15.6-7,15.6-15.6v-10.2h-242.1V1330.7z"/>
			<path class="st11" d="M1583.7,1330.7H1755c6.4,0,11.6-5.2,11.6-11.6v-2.8c0-6.4-5.2-11.5-11.6-11.5h-171.3
				c-6.4,0-11.6,5.2-11.6,11.5v2.8C1572.1,1325.5,1577.3,1330.7,1583.7,1330.7z"/>
		</g>
		<path class="st18" d="M1675.1,1040.4c0,0,10.5-3.6,12.7,18.1c1.6,16.4-9.8,144.1-18.4,154.3c-24.2,28.6-54.4,16.5-66.3,20.8
			l-11.2-10.1c0,0,39.3-29,42.3-38.5C1645.7,1148.5,1637.9,1054.1,1675.1,1040.4z"/>
		<path class="st4" d="M1682.8,924.3c0,0-0.7-23.4,30.2-28c30.9-4.6,39.4,2.6,44.7,10.5c5.3,7.9,15.1,40,14.1,52.8
			c-1,12.8-36.2,28.6-35.6,36.1S1682.8,924.3,1682.8,924.3z"/>
		<path class="st19" d="M1660.8,1148.5c0,0,0.2,23.6,0.1,33.2c-0.1,11.4-22.6,41.8-22.6,41.8l30.6-5.3c0,0,19-23.1,19-24.6
			C1687.9,1192.1,1660.8,1148.5,1660.8,1148.5z"/>
		<path class="st5" d="M1539.6,1542.2c1,7.9-9.8,10.2-22.3,11.3c-12.6,1.1-8.7,3.6-25.8,7.4c-17.1,3.8-24.2-0.7-25.5-3.1
			c-1.2-2.1,6.7-5.6,15.1-9.7c1.1-0.5,2.1-1,3.2-1.5c9.5-4.7,14.5-13.6,21.7-22c6.8-8,12.7-32.9,12.7-32.9l23.2-6
			c0,0-5.8,22.4-7.7,32c-1.1,5.6,1.1,11.8,3,16.5C1538.2,1536.8,1539.3,1539.4,1539.6,1542.2z"/>
		<path class="st10" d="M1517.3,1553.5c-12.6,1.1-8.7,3.6-25.8,7.4c-17.1,3.8-24.2-0.7-25.5-3.1c-1.2-2.1,6.7-5.6,15.1-9.7l0.1,0.1
			c0,0,12.3,3.7,26.1-0.6c11.3-3.6,22.1-10.9,29.8-13.4c1,2.5,2.1,5.2,2.4,7.9C1540.6,1550.1,1529.8,1552.4,1517.3,1553.5z"/>
		<path class="st10" d="M1713.6,1219.5c0,0-155.4,16.1-181,39.9c-25.6,23.8-21.1,245.4-21.1,245.4c4,4.1,6.9,4,13.2,3.5
			c6-0.5,18.4-5.7,18.4-5.7s33.3-108.8,33.7-134c0.4-25.2,5.7-68,16.2-70.5s136.4,11.6,150.2-28.2c13.8-39.7-9.1-72.4-9.1-72.4
			L1713.6,1219.5z"/>
		<path class="st18" d="M1786.2,1259.5c-6.7,4.5-18.7,11.4-38.8,12.1c-36,1.3-80.9-3-89.8-11.3c-2.3-2.2-3.4-5.7-3.7-10.3
			c-1-13.8,5.6-36.5,10.1-55.3c2.9-12.2,2.9-22.2,1.3-27.6c-4.9-16.4-18.2-50.4-19.5-61.4c-1.3-11,11.3-57.5,29.2-65.3
			c44.6-19.6,88.4-8.5,88.4-8.5c27.4,5.6,29,60.4,19.9,110.1c-0.2,1.3-0.5,2.6-0.7,3.8C1772.8,1196.2,1804.9,1247,1786.2,1259.5z"/>
		<g>
			<path class="st5" d="M1695.7,1039.2c0.5,3.2,9.3,8.4,28,3.5c17.9-4.7,22.7-9.4,22.7-13.3c0-4.6-10.4-11.9-10.3-40l-2.2,0.4
				l-36.2,7.2c0,0,0.8,11.4,0.8,22.1C1698.6,1028.1,1694.9,1033.8,1695.7,1039.2z"/>
			<path class="st13" d="M1697.8,997c0,0,0.8,11.4,0.8,22.1c20.2-0.6,30.9-19,35.3-29.3L1697.8,997z"/>
			<path class="st5" d="M1691,1007.1c0,0,47.9,0.8,47.9-29c0-29.8,6.2-49.8-24.3-51.6c-30.6-1.8-36.5,9.6-39,19.6
				C1673.2,956,1678.6,1006.1,1691,1007.1z"/>
			<path class="st4" d="M1692.8,925.8c0,0,13.1,35,33.2,40.2c20.1,5.2,28.8-0.2,28.8-0.2s-15.4-12.3-18.6-33.7
				C1736.2,932.1,1702.7,909.1,1692.8,925.8z"/>
			<path class="st4" d="M1696,928.6c0,0-9.8,7.8-12.2,15.4c-2.4,7.6-3.5,23.2-8,22.7c0,0-9.9-23.8,1.2-37.2
				C1688.8,915.2,1696,928.6,1696,928.6z"/>
		</g>
		<path class="st5" d="M1665.3,1547.7c0.4,8-10.6,9.4-23.2,9.4s-8.9,2.8-26.3,5.2c-17.4,2.4-24.1-2.8-25.2-5.2
			c-1-2.2,7.1-5.1,15.8-8.4c1.1-0.4,2.2-0.8,3.3-1.3c9.8-3.8,15.6-12.4,23.4-20.1c7.4-7.4-10.6-41.3-10.6-41.3l21.8-11.7
			c0,0,5,24.5,11.1,45.8c1.6,5.5,6.4,14.5,8,19.4C1664.3,1542.2,1665.1,1544.9,1665.3,1547.7z"/>
		<path class="st19" d="M1785.3,1253.6c-6.7,4.5-17.7,17.3-37.9,18.1c-33.2-7.6-71-16.3-93.5-21.6c-1-13.8,24-10.5,28.5-29.3
			c30-13.8,48.3-35.8,59.9-56.1c8.9-15.5,13.4-49.1,13.4-49.1l27.7,26.4c-0.2,1.3-0.5,2.6-0.7,3.8
			C1772.8,1196.2,1804,1241.1,1785.3,1253.6z"/>
		<path class="st10" d="M1642.1,1557.1c-12.6,0-8.9,2.8-26.3,5.2c-17.4,2.4-24.1-2.8-25.2-5.2c-1-2.2,7.1-5.1,15.8-8.4l0.1,0.2
			c0,0,11.9,4.8,26.1,1.6c11.5-2.6,22.9-9,30.8-10.9c0.8,2.6,1.7,5.3,1.8,8.1C1665.6,1555.6,1654.7,1557.1,1642.1,1557.1z"/>
		<path class="st20" d="M1746.6,1224.9c-45.8-3.5-156.7,12.4-179.3,29.5c-27.9,21,51.7,248.2,51.7,248.2s9.2,0.9,12.2,0.6
			c12.6-1.4,21.8-5.3,21.8-5.3s-4.4-133.7-13.7-159.3c-8.6-23.6-13.9-32-3.1-33.4c10.8-1.4,145.1,15.7,156.4-24.8
			c8.8-31.7-4.2-61-4.2-61S1782.9,1227.7,1746.6,1224.9z"/>
		<path class="st18" d="M1767.2,1033c0,0,14.1,4.5,22,24.8c9.8,25.4,17.9,127.7,9.3,137.9c-24.2,28.6-104.7,34.6-116.6,38.9
			l-3.3-13.5c0,0,86-43.3,84.7-53.2S1740.9,1029.1,1767.2,1033z"/>
		<path class="st4" d="M1742.8,908.1c0,0-2-12.5,15.4-15.7c17.3-3.2,17.7,33.6,19.5,42.5c1.9,8.9-2.8,14.2-9.4,14.7
			C1761.7,950.1,1742.8,908.1,1742.8,908.1z"/>
		<g>
			<path class="st5" d="M1677.7,1220.5c0,0-24.5-6.9-30.3-5.3c-5.8,1.6-25.8,14.9-23,18.4c2.8,3.6,20.4-2.2,28.5-1.1
				c8.1,1.1,14.4,5.1,20.2,4.2c5.8-0.9,11.9-3.2,11.9-3.2L1677.7,1220.5z"/>
			<path class="st5" d="M1677.7,1220.5c0,0-12-6.2-15.4-9.7c-0.4-0.4-1.2-0.3-1.5,0.2c-0.9,1.4-1.8,4.2,2.4,7
				C1669.3,1222,1677.7,1220.5,1677.7,1220.5z"/>
		</g>
		<g>
			<path class="st5" d="M1591.9,1223.5c0,0-25.4,1.4-30.4,4.8c-5,3.4-19.6,22.4-15.8,24.9s18.6-8.7,26.6-10.3
				c8-1.6,15.2,0.1,20.5-2.6c5.2-2.7,10.3-6.9,10.3-6.9L1591.9,1223.5z"/>
		</g>
	</g>
	<g>
		<g>
			<g>
				<path class="st11" d="M2566.4,1564.2h0.3c2,0,3.7-1.7,3.6-3.7l-5.5-239l-16.1-1.9l13.8,240.9
					C2562.6,1562.5,2564.3,1564.2,2566.4,1564.2z"/>
			</g>
			<g>
				<path class="st11" d="M2660.5,1564.2h0.3c2,0,3.7-1.7,3.6-3.7l-5.5-239l-16.1-1.9l13.8,240.9
					C2656.7,1562.5,2658.4,1564.2,2660.5,1564.2z"/>
			</g>
			<g>
				<path class="st11" d="M2400.8,1564.2h-0.3c-2,0-3.7-1.7-3.6-3.7l5.5-239l16.1-1.9l-13.8,240.9
					C2404.6,1562.5,2402.9,1564.2,2400.8,1564.2z"/>
			</g>
			<path class="st11" d="M2671.2,1322.6v-175.8c0-30.9-23.2-56-51.9-56H2502c-28.6,0-51.9,25.1-51.9,56v182.6L2671.2,1322.6z"/>
			<path class="st11" d="M2429.1,1346.9h226.4c8.6,0,15.6-7,15.6-15.6V1321h-242.1V1346.9z"/>
			<path class="st11" d="M2402,1346.9h171.3c6.4,0,11.5-5.2,11.5-11.6v-2.8c0-6.4-5.2-11.6-11.5-11.6H2402
				c-6.4,0-11.5,5.2-11.5,11.6v2.8C2390.4,1341.7,2395.6,1346.9,2402,1346.9z"/>
		</g>
		<g>
			<path class="st21" d="M2187.3,1564.4h109c5.2-6.4,8.2-36.5,7.4-44.2c-0.2-1.6-2.1-8.8-2.1-8.8s-40.3-17-45.4,5.8
				c-0.2,0.7-0.3,1.4-0.6,2.1c-6.4,21.3-35.3,31-52,33.7C2192.8,1554.8,2188.8,1560.4,2187.3,1564.4z"/>
			<path class="st10" d="M2484.6,1224.1c-3.9,0-149.3,20.3-179.5,54.3c-15.1,17-54.6,239.5-54.6,239.5s18.4,13,58.7,0.8
				c0,0,53.3-144,51.1-184.6c-0.6-11.3,129.2-16,152.2-21.4c23-5.4,51.5-18.6,39.1-40.7C2539.2,1249.8,2484.6,1224.1,2484.6,1224.1z
				"/>
			<path class="st22" d="M2259.9,1564.4h109c5.2-6.4,3.3-30,2.5-37.7c-0.2-1.6-0.3-2.5-0.3-2.5s-37.2-29.8-42.3-7
				c-0.2,0.7-0.3,1.4-0.6,2.1c-6.4,21.3-35.3,31-52,33.7C2265.4,1554.8,2261.4,1560.4,2259.9,1564.4z"/>
			<path class="st20" d="M2542.4,1235.8c-3.9,0-177.5,8.6-207.7,46.1c-15.1,18.7-17.4,234.7-17.4,234.7s18.7,23.2,59.1,9.7
				c0,0,37.1-114.6,34.4-192.6c-0.4-12.4,108-13.8,137.8-16.2c37.8-3,47.3-66.4,35-90.8S2542.4,1235.8,2542.4,1235.8z"/>
			<path class="st5" d="M2353.5,1235.8l-7.4,4.8c0,0-24.3,4.4-30.9,13.2c0,0-14.2,26.3-4.8,24.5s13-10.4,26.2-12.7
				c13.3-2.2,21.6-2.3,24.5-11.5l11.5-10.9L2353.5,1235.8z"/>
			<path class="st2" d="M2439.9,1080.3c-1.8,8.2-2.8,13.8-2.5,14.4c5.6,9.2,11.8,53.4,3.6,73.7c-0.7,1.8-0.2,8.3-1.4,10.7
				c-4.9,9.6-18.2,23.8-31.8,37l0,0c-18.2,17.7-37,33.4-37,33.4s-5.5,2.4-11.5-1c-4.4-2.5-8.6-10.7-8.6-10.7
				c2.8-4.4,20.3-50.2,34.7-79.1c6.1-12.4,15.7-127.5,27.6-142.9c9.9-12.9,48.4-21.6,48.4-21.6s-7.7,29.6-14.4,56.7
				c-2.6,10.7-5.1,21-6.9,29C2439.9,1080,2439.9,1080.1,2439.9,1080.3z"/>
			<path class="st5" d="M2449.7,950.9c0,0,14.3,23.8,11.2,44.6l21.7,51.1l38-59.7c0,0-19.1-22.6-26.6-53.4L2449.7,950.9z"/>
			<path class="st5" d="M2443.2,969.9c0,0,53.4,2.6,54.6-29.5c1.2-32.1,15.7-53.3-24.2-56.4c-32.9-2.5-43.9,11.1-46.9,21.7
				C2423.7,916.4,2423.4,968.1,2443.2,969.9z"/>
			<path class="st3" d="M2440.9,1168.3c-0.7,1.8-0.2,8.3-1.4,10.7c-4.9,9.6-18.2,23.8-31.8,37l0,0c0,0,13.3-62.1,13.3-88.5
				c-0.1-20.7,10.1-41.2,19-47.7c0,0.1-0.1,0.3-0.1,0.4c-1.8,8.2-2.8,13.8-2.5,14.4C2443,1103.9,2449.2,1148,2440.9,1168.3z"/>
			<path class="st2" d="M2587.6,1278.2c-0.2,0-168.5,3.5-160-42.4c1.3-6.9,7.4-35.9,7.2-56.1c-0.1-15.1-30.8-124.1-30.8-124.1
				s-0.5-38.6,42.5-56.4c4.4-1.8,9.3-3.7,14.7-5c1.8,5,7,13.6,20.1,12.1c19.5-2.2,33.4-13.5,39.4-19.4c1.1,0,5.4,0.5,5.4,0.5
				c1.4,4.1-1.4,8-0.4,12.3c3.4,15.2,5.4,31.1,14.6,43.1c9.1,11.8,16.9,23.5,23.5,34.9c5.5,9.5,10.8,18.6,14.3,27.9
				c6.4,16.8,11.1,36.9,14.1,57.4c2,13,3.3,26.1,4,38.6C2598.9,1242.9,2595.2,1277.5,2587.6,1278.2z"/>
			<path class="st23" d="M2426.1,939.2c0,0-10.7,41.2,7,47.1c17.6,5.9,64.5,1.5,64.8-49.1c0,0-24.7,14.5-36.4,14.1
				c-11.8-0.4-19.3-7.3-30.2-2C2431.3,949.3,2427.3,949,2426.1,939.2z"/>
			<path class="st23" d="M2495.5,894.2c-0.9-3.3-4.9-5-4.9-5c-30-13.3-52.1,0.9-52.1,0.9c18.6-24.7,63.1-19.2,72.4,3.2
				c15.1,36.6-13,44-13,44s-27.9-11.9-11.6-26.6c5.4-4.9,8-9.2,8.9-13l0,0l0,0C2495.5,896.5,2495.6,895.3,2495.5,894.2z"/>
			<g>
				<path class="st10" d="M2420.9,1563.2l1.4-403.3c0,0,3.1-29.1,28.4-29.2c27-0.2,28.8,28.9,28.8,28.9s-0.4,2.5-3.1,2.5
					c-2.9,0-3.4-2.5-3.4-2.5s-1.3-22.4-22.2-22.3c-19.5,0.1-21.9,22.5-21.9,22.5l2.4,403.3L2420.9,1563.2z"/>
				<path class="st10" d="M2434.7,1563.1l-16.8,0.1l1.4-17.6c0,0-0.2-2.4,3.2-2.6c3.2-0.1,9.4-0.6,10,1.3
					C2433.1,1545.9,2434.7,1563.1,2434.7,1563.1z"/>
			</g>
			<path class="st3" d="M2596.3,1201.5c-58.9-2.8-107.8-48.8-107.8-48.8l103.7,10.3C2594.3,1175.9,2595.6,1189,2596.3,1201.5z"/>
			<path class="st5" d="M2485.5,1132.7c0,0-19.9-13.1-33.2-9.1c0,0-23.5,13.5-15,18.1c8.4,4.6,12.3,0.9,24,7.6
				c11.7,6.6,20.7,6.4,27.3,3.4L2485.5,1132.7z"/>
			<path class="st5" d="M2342.1,1258c0,0-12.1,12.1-10.2,13.6c1.9,1.5,5.7-1.7,12.1-3.4c6.4-1.7,15.5-9.9,16.3-12
				C2361.1,1254.1,2342.1,1258,2342.1,1258z"/>
			<path class="st3" d="M2488.4,1132.6c0,0,32.1-9.9,40.4-18s7.7-32.3,7.7-32.3s26.9-3.9,19.7,29.9c-7.2,33.8-7.2,33.8-7.2,33.8
				L2488.4,1132.6z"/>
			<path class="st2" d="M2522.1,987c0,0,37.4,1.1,57,26.9c15,19.8,48,128,29.4,154.9c-13.7,19.8-95.5,9.5-120-16c0,0-2.1-3-3.1-7.1
				c-2-8.7,0-12.9,0-12.9s56.4-1.5,58.4-10.5c4.7-20.4-16.6-60.3-16.6-60.3S2497,1021.1,2522.1,987z"/>
		</g>
	</g>
	<g class="st24">
		<g>
			<path class="st14" d="M2870.6,1447c0,0,19.2-22.3,1.2-36.5c0,0-13.1-7.9-23.8-7.3c0,0,15.2,25.4,10.3,28
				c-4.9,2.5-14.9-29.6-14.9-29.6s-29.9-2.9-39.5,1.7c0,0,25.5,20.9,20.2,22.1s-33-19.3-33-19.3s-27.8,4.7-26.3,21.7
				s11.1,22.2,15.3,21.7c4.2-0.5,28.8-9.9,29.4-6.4c0.5,3.5-14.3,14.7-24.7,15.3c0,0,19.6,21.6,32.6,15.4s14.1-16.1,22.3-19.8
				c8.1-3.7,15.1-3.7,11.7,0.1c-3.4,3.8-18.1,7.5-22.7,15.7c-4.6,8.2-8.8,13.8,4.7,11.7s35.4-11.9,36.4-23.2
				S2870.6,1447,2870.6,1447z"/>
			<g>
				<path class="st14" d="M2778.4,1428.3c0,0,75.5-2.9,92.2,18.7c0,0,3.7,11,15,21.1l1.8,4.8c0,0-13.1-13.8-17.8-14.6
					C2869.6,1458.3,2877,1431.5,2778.4,1428.3z"/>
				<path class="st14" d="M2885.6,1468.1c0,0,16.2,12,17.3,33.4l-2.9,0.3c0,0-5.2-22.1-14.5-30.8S2885.6,1468.1,2885.6,1468.1z"/>
			</g>
		</g>
		<g>
			<path class="st14" d="M2937.6,1418.9c0,0-30.5-17.1-16.3-40.2c0,0,11.4-14.2,23.6-17.9c0,0-6.5,34.5,0,35.3s4.5-39,4.5-39
				s32.1-15.4,44.7-14.2c0,0-19.9,33.7-13.4,32.9s28.8-34.9,28.8-34.9s32.9-6.1,38.2,13.4s-3.3,29.2-8.1,30.5
				c-4.9,1.2-36.2,0.8-35.3,4.9s21.9,10.6,33.7,6.9c0,0-13,32.1-30.1,30.5s-22.3-12.2-32.9-13c-10.6-0.8-18.3,2-13,4.9
				s23.2,0.9,31.7,8.2c8.5,7.3,15.4,11.7-0.4,15s-44.3,1.2-50-11C2937.6,1418.9,2937.6,1418.9,2937.6,1418.9z"/>
			<g>
				<path class="st14" d="M3032.6,1360.4c0,0-85.3,27.6-95.1,58.5c0,0,0.4,13.8-8.1,29.7v6.1c0,0,8.9-20.7,13.8-23.6
					C2943.2,1431.1,2924.2,1404.3,3032.6,1360.4z"/>
				<path class="st14" d="M2929.4,1448.6c0,0-13.2,20-5.7,44.3l3.4-0.9c0,0-3.3-26.8,3.6-40.3
					C2937.6,1438.2,2929.4,1448.6,2929.4,1448.6z"/>
			</g>
		</g>
		<g>
			<path class="st25" d="M2889.1,1395.4c0,0,40.2-22.5,21.4-53c0,0-15-18.7-31.1-23.6c0,0,8.6,45.5,0,46.6s-5.9-51.4-5.9-51.4
				s-42.3-20.3-58.9-18.7c0,0,26.2,44.4,17.7,43.4c-8.6-1.1-38-46.1-38-46.1s-43.4-8-50.3,17.7c-7,25.7,4.3,38.6,10.7,40.2
				s47.7,1.1,46.6,6.4c-1.1,5.4-28.9,13.9-44.4,9.1c0,0,17.1,42.3,39.6,40.2c22.5-2.1,29.5-16.1,43.4-17.1s24.1,2.7,17.1,6.4
				c-7,3.7-30.5,1.2-41.8,10.8c-11.2,9.6-20.3,15.5,0.5,19.7s58.4,1.6,65.9-14.5C2889.1,1395.4,2889.1,1395.4,2889.1,1395.4z"/>
			<g>
				<path class="st25" d="M2763.8,1318.3c0,0,112.5,36.4,125.3,77.1c0,0-0.5,18.2,10.7,39.1v8c0,0-11.8-27.3-18.2-31.1
					C2881.6,1411.4,2906.8,1376.1,2763.8,1318.3z"/>
				<path class="st25" d="M2899.8,1434.5c0,0,17.3,26.3,7.5,58.4l-4.5-1.2c0,0,4.3-35.3-4.7-53.1
					C2889,1420.8,2899.8,1434.5,2899.8,1434.5z"/>
			</g>
		</g>
		<path class="st25" d="M2890.4,1562.4c-43.5,0-78.7-35.2-78.7-78.7h157.3C2969.1,1527.2,2933.9,1562.4,2890.4,1562.4z"/>
		<path class="st26" d="M2871.1,1561.8c3.2,0.4,6.5,0.6,9.8,0.6c43.4,0,78.7-35.2,78.7-78.7H2940
			C2940,1523.9,2909.9,1557,2871.1,1561.8z"/>
		
			<rect x="2810" y="1483.7" transform="matrix(-1 -1.224647e-16 1.224647e-16 -1 5781.6758 2969.8369)" class="st14" width="161.7" height="2.4"/>
		
			<rect x="2857.4" y="1555.5" transform="matrix(-1 -1.224647e-16 1.224647e-16 -1 5780.1221 3117.8428)" class="st14" width="65.4" height="6.9"/>
	</g>
	<g>
		<g>
			<polygon class="st9" points="753.4,1127.5 562.8,1127.5 581.5,991.2 772.1,991.2 			"/>
			<polygon class="st10" points="757.9,1127.5 567.3,1127.5 586,991.2 776.6,991.2 			"/>
		</g>
		<g>
			<polygon class="st9" points="694.6,1050.1 678.5,1159.8 640.3,1159.8 641,1154.9 656.4,1050.1 			"/>
			<polygon class="st11" points="681.3,1159.8 643.1,1159.8 659.2,1050.1 697.4,1050.1 			"/>
			<path class="st11" d="M646.6,1159.8h63.3l0,0c0-2.7-2.2-4.9-4.9-4.9h-57.7L646.6,1159.8z"/>
			<path class="st9" d="M670.2,1159.8L670.2,1159.8h-30l0.7-4.9h24.4C668.1,1154.9,670.2,1157.1,670.2,1159.8z"/>
		</g>
	</g>
	<g>
		<g>
			<path class="st21" d="M626.6,1562.7h103.5c5-6.1,3.1-28.5,2.4-35.8c-0.2-1.5-0.3-2.3-0.3-2.3s-35.4-28.3-40.2-6.6
				c-0.1,0.7-0.3,1.3-0.5,2c-6.1,20.3-33.6,29.5-49.4,32C631.8,1553.6,628,1558.9,626.6,1562.7z"/>
			<path class="st3" d="M909.1,1226.2c-3.7,0-177.4,32.6-206.1,68.1c-14.3,17.8-16.5,222.9-16.5,222.9s17.7,22,56.1,9.2
				c0,0,28.1-140.3,26-182.9c-0.6-11.8,118.6-1.7,140.4-7.3c21.8-5.6,75.1-53.1,63.4-76.2C960.7,1236.9,909.1,1226.2,909.1,1226.2z"
				/>
			<path class="st5" d="M783.4,1216.6c0,0-11.1,9.6-22.5,12.3c-6.5,1.5-12.8,3.3-16.5,5c-10.3,4.7-29.9,25.9-28,28
				c5.8,6.7,29.3-10.8,33.8-9.6c4.5,1.2-7.4,11.4-2.7,14.2c2.5,1.4,7.1-7.4,11.4-8.6c5.9-1.7,9.8-10.5,11.5-11.1
				c3.4-1.2,17.7-14,17.7-14L783.4,1216.6z"/>
			<path class="st10" d="M580.8,1562.7h103.5c5-6.1,3.1-28.5,2.4-35.8c-0.2-1.5-0.3-2.3-0.3-2.3s-35.4-28.3-40.2-6.6
				c-0.1,0.7-0.3,1.3-0.5,2c-6.1,20.3-33.6,29.5-49.4,32C586,1553.6,582.2,1558.9,580.8,1562.7z"/>
			<path class="st2" d="M857.9,1226.2c-3.7,0-177.4,32.6-206.1,68.1c-14.3,17.8-16.5,222.9-16.5,222.9s17.7,22,56.1,9.2
				c0,0,28.1-140.3,26-182.9c-0.6-11.8,118.6-1.7,140.4-7.3c21.8-5.6,75.1-53.1,63.4-76.2C909.5,1236.9,857.9,1226.2,857.9,1226.2z"
				/>
			<path class="st5" d="M868.8,1015.2c12.5-1,25.6-4.4,36.9-8c14.1-4.6,25.6-11.3,18.2-24.2c-6.8-11.9-17.7-38.5-17-60.6l-26.3,21.2
				L862.7,958c0,0,0.1,8.5,2,23.4c0.4,2.7,0.8,5.6,1.3,8.8c0.4,2.5-0.8,5.1-2.9,6.4c-0.1,0.1-0.3,0.2-0.4,0.3
				C853.8,1002.4,858.3,1016.1,868.8,1015.2z"/>
			<path class="st13" d="M862.7,954.5c0,0-0.9,3.1,0.7,14.5c15.9-2.6,30.8-15.3,30.8-15.3c-8.1-2.2-11.1-11-17.1-10.2L862.7,954.5z"
				/>
			<path class="st5" d="M847.9,957.1c0,0,61.3,10.2,67.1-28.1c5.8-38.3,17.5-62.8-21.4-70.9c-38.9-8.1-48.7,5.3-53.8,17.7
				C834.9,888.1,832.1,953.5,847.9,957.1z"/>
			<path class="st10" d="M830.9,858.8c-2.6,9.2,4.4,20.5,16.2,24.1c17.6,5.5,13.7,27,21.6,26.7c7.9-0.3,11.1-12.4,18.1-2.7
				c6,8.2-5,18-4.3,22.5c1.3,7.8,13.5,23.6,24.4,22.8c10.9-0.8,31.4-52.8,27.3-68.9c-4.1-16.1-20.5-33.1-36-35.4
				c-15.5-2.3-37.1,4.4-42,4.4C851.3,852.4,832.3,853.8,830.9,858.8z"/>
			<path class="st18" d="M815.7,1214.7c1,8.8,2.9,14.8,5.8,16.8c9.1,6.1,21.3,13.7,34.8,21.3c48,26.8,113.6,52.6,127,7.4
				c15.7-53.1,5.4-152.8-10-214.7c-8.9-35.7-33.4-73.1-49.9-73.1c-28.2,0-68.8,7.5-85.2,47.9c-6.3,15.7-15.7,69.9-20.4,119.6
				C814.9,1169.5,813.7,1197.5,815.7,1214.7z"/>
			<path class="st19" d="M926.2,972.7l-8.5-13.7c0,0-55.1,5.6-64.7,38.1C853,997.2,897.3,973.4,926.2,972.7z"/>
			<path class="st19" d="M815.7,1214.7c1,8.8,2.9,14.8,5.8,16.8c9.1,6.1,21.3,13.7,34.8,21.3c14.1-8.6,43.1-29.1,49.9-53.2
				c8.9-31.6,2.6-70.4,2.6-70.4L815.7,1214.7z"/>
			<path class="st18" d="M914.7,1021.3c0,0-4.9,135.6-12.6,162.4c-13.2,45.7-133.1,62-133.1,62s-7.1-8-3.9-21.3
				c0,0,71.7-56.5,73.8-67.3c2.1-10.8-15.6-83.7,4.6-110.2C863.7,1020.4,901.1,997.5,914.7,1021.3z"/>
		</g>
		<g>
			<g>
				<path class="st11" d="M1082.1,1565.8l0.4,0c3.2-0.1,5.7-2.7,5.4-5.8l-21.5-217.1l-18.8,1.7l30.9,218.3
					C1078.7,1564.5,1080.3,1565.8,1082.1,1565.8z"/>
			</g>
			<g>
				<path class="st11" d="M971.2,1565.8l0.4,0c3.2-0.1,5.7-2.7,5.4-5.8l-21.5-217.1l-18.8,1.7l30.9,218.3
					C967.8,1564.5,969.4,1565.8,971.2,1565.8z"/>
			</g>
			<g>
				<path class="st11" d="M763,1565.8l-0.4,0c-3.2-0.1-5.7-2.7-5.4-5.8l21.5-217.1l18.8,1.7l-30.9,218.3
					C766.3,1564.5,764.8,1565.8,763,1565.8z"/>
			</g>
			<path class="st11" d="M1076,1312.1l20.5-181.4c2.7-26.1-6-51.7-43.4-53.7l-65.8-4c-39-1.6-56.6,31.1-61.5,56.3l-39,199.4
				L1076,1312.1z"/>
			<path class="st11" d="M1065,1346H773.2c-5.9,0-10.7-4.8-10.7-10.7V1322c0-5.9,4.8-10.7,10.7-10.7h302.5v24.1
				C1075.7,1341.2,1070.8,1346,1065,1346z"/>
			<path class="st11" d="M1067.3,1346H895.1c-4.6,0-8.3-3.7-8.3-8.3v-18.1c0-4.6,3.7-8.3,8.3-8.3h180.6v26.4
				C1075.7,1342.3,1071.9,1346,1067.3,1346z"/>
		</g>
	</g>
	<polygon class="st2" points="589.9,464.6 589.9,629.8 588.1,629.8 588.1,464.8 	"/>
	<polygon class="st2" points="806.5,462.7 806.5,629.8 804.7,629.8 804.7,462.6 	"/>
	<rect x="532.1" y="629.8" class="st2" width="316.7" height="79.8"/>
	<g>
		<path class="st0" d="M576.1,655.6l-7.3,2l-1.5-5.8l10.9-3.5h5v41h-7.1V655.6z"/>
	</g>
	<g>
		<rect x="635.6" y="647.6" class="st0" width="179.4" height="5.9"/>
		<rect x="635.6" y="663.9" class="st0" width="147.7" height="5.9"/>
		<rect x="635.6" y="680.2" class="st0" width="105.2" height="5.9"/>
	</g>
	<polygon class="st2" points="1349.6,468.1 1349.6,629.8 1347.7,629.8 1347.7,468.3 	"/>
	<polygon class="st2" points="1566.2,444.2 1566.2,629.8 1564.4,629.8 1564.4,444.4 	"/>
	<rect x="1291.7" y="629.8" class="st2" width="316.7" height="79.8"/>
	<g>
		<path class="st0" d="M1328.3,683.7l14-11.9c5.6-4.7,7.6-7.3,7.6-11c0-4-2.8-6.3-6.6-6.3s-6.3,2-9.4,6.1l-5.1-4
			c3.9-5.5,7.7-8.5,15-8.5c8,0,13.4,4.9,13.4,12.3c0,6.4-3.4,9.8-10.6,15.8l-8.4,7h19.4v6.3h-29.4V683.7z"/>
	</g>
	<g>
		<rect x="1395.3" y="647.6" class="st0" width="179.4" height="5.9"/>
		<rect x="1395.3" y="663.9" class="st0" width="147.7" height="5.9"/>
		<rect x="1395.3" y="680.2" class="st0" width="105.2" height="5.9"/>
	</g>
	<polygon class="st2" points="2102.3,474.6 2102.3,629.8 2100.5,629.8 2100.5,473.9 	"/>
	<polygon class="st2" points="2318.9,523.5 2318.9,629.8 2317.1,629.8 2317.1,523.2 	"/>
	<rect x="2044.5" y="629.8" class="st2" width="316.7" height="79.8"/>
	<g>
		<path class="st0" d="M2080.7,682.9l5-4.7c2.9,3.4,6.2,5.4,10.7,5.4c4,0,7-2.4,7-6.3c0-4-3.7-6.3-9.4-6.3h-3.3l-1.2-4.5l11-11.7
			h-17.6v-6.2h26.9v5.4l-11.3,11.6c6.5,0.9,12,4.2,12,11.6c0,7.5-5.8,12.9-14.2,12.9C2089.1,690.1,2084.1,687.1,2080.7,682.9z"/>
	</g>
	<g>
		<rect x="2148" y="647.6" class="st0" width="179.4" height="5.9"/>
		<rect x="2148" y="663.9" class="st0" width="147.7" height="5.9"/>
		<rect x="2148" y="680.2" class="st0" width="105.2" height="5.9"/>
	</g>
	<path class="st27" d="M3114,1568.9h-2952c-1.7,0-3-1.4-3-3v-0.3c0-1.7,1.4-3,3-3h2952c1.7,0,3,1.4,3,3v0.3
		C3117,1567.5,3115.6,1568.9,3114,1568.9z"/>
</g>
</svg>
