<?xml version="1.0" encoding="utf-8"?>
<!-- Generator: Adobe Illustrator 24.3.0, SVG Export Plug-In . SVG Version: 6.00 Build 0)  -->
<svg version="1.1" id="Livello_1" xmlns="http://www.w3.org/2000/svg" xmlns:xlink="http://www.w3.org/1999/xlink" x="0px" y="0px"
	 viewBox="0 0 8000 7000" style="enable-background:new 0 0 8000 7000;" xml:space="preserve">
<style type="text/css">
	.st0{fill:#EFEFEF;}
	.st1{fill:#CECECE;}
	.st2{fill:#C1B91A;}
	.st3{fill:#E5E01A;}
	.st4{fill:#CCC31D;}
	.st5{opacity:0.57;fill:#E0D24C;}
	.st6{fill:#A09318;}
	.st7{fill:#CCCCCC;}
	.st8{fill:#BDD891;}
	.st9{fill:#588B35;}
	.st10{fill:#3D5B24;}
	.st11{fill:#4A702C;}
	.st12{fill:#AEAFAE;}
</style>
<rect class="st0" width="8000" height="7000"/>
<g>
	<polygon class="st1" points="4109.4,6033.9 4580.7,6033.9 6322,5021.3 5515,4561.5 	"/>
	<polygon class="st1" points="3490.5,4869.5 3961.8,4869.5 5703.1,3857 4896.2,3397.2 	"/>
	<polygon class="st1" points="2934.3,5960.3 3876,5960.3 3491.3,5575.6 3161.1,5575.6 	"/>
	<polygon class="st1" points="5872.7,4139.5 6814.3,4139.5 6429.6,3754.8 6099.4,3754.8 	"/>
	<polygon class="st1" points="2463.5,5341.1 3405.2,5341.1 3020.4,4956.4 2690.3,4956.4 	"/>
	<polygon class="st1" points="1618.1,4893.3 2559.8,4893.3 2175.1,4508.6 1844.9,4508.6 	"/>
	<g>
		<g>
			<path class="st2" d="M4858.7,2842.5c-20.7-28.1-50.7-54.3-89.9-77.1c-166.2-96.7-438.5-95.7-605.2,2.3
				c-35.7,21-63.7,44.7-84.1,70l-40.7-0.3v99.4c-0.3,5.1-0.3,10.2,0,15.3v0l0,0c3.2,61.2,44.8,121.4,124.8,167.3
				c166.7,95.5,439,94.4,605.2-2.3c78.4-45.6,119.7-104.9,124.2-165h0.4v-109.4L4858.7,2842.5z"/>
			<path class="st3" d="M4768.8,2666.2c-166.2-96.7-438.5-95.7-605.2,2.3c-166.7,98-166.7,256.3,0,351.7
				c166.7,95.5,439,94.4,605.2-2.3C4935,2921.2,4935,2762.9,4768.8,2666.2z"/>
			<path class="st4" d="M4742.4,2681.6c-151.7-88.3-400.2-87.3-552.3,2.1s-152.1,233.9,0,321c152.1,87.1,400.7,86.2,552.3-2.1
				C4894,2914.4,4894,2769.9,4742.4,2681.6z"/>
			<path class="st5" d="M4086.5,2792.4l616,230.4c0,0,54.3-25.6,94.3-60l-652.5-244.5C4144.3,2718.3,4110.4,2737.3,4086.5,2792.4z"
				/>
			<path class="st5" d="M4190.1,2683.7l644.9,232.5c0,0,15.7-30.1,18.1-45.7l-608.8-213.5
				C4244.3,2657.1,4207.8,2672.6,4190.1,2683.7z"/>
			<g>
				<path class="st6" d="M4453.1,2967.2v-24.7c-24.3-1.6-44-4.3-59.2-8.3c-15.2-4-28.3-10.4-39.4-19.3
					c-11.1-8.9-17.5-19.7-19.3-32.6l48.8-4.7c3.8,13.3,10.4,23,20,29.3c13.7,8.8,30,13.7,49.1,14.7v-78.7
					c-20-1.9-40.4-5.9-61.2-11.8c-15.5-4.4-27.4-10.5-35.7-18.3s-12.5-16.6-12.5-26.5c0-17.6,12.2-31.8,36.7-42.7
					c16.4-7.3,40.6-11.8,72.8-13.5v-11.8h28.6v11.8c28.2,1.4,50.6,5.6,67.2,12.6c21.2,9,34,21.3,38.3,36.9l-50.2,3.8
					c-2.9-9.7-8.9-17.1-17.9-22.3c-9.1-5.2-21.5-8.6-37.4-10.2v71.3c24.5,3.1,40.6,5.5,48.5,7.3c15.1,3.4,27.4,7.5,36.9,12.4
					c9.5,4.9,16.9,10.6,22,17.3c5.1,6.7,7.7,13.9,7.7,21.7c0,17.1-10.7,31.4-32.1,42.9s-49.1,17.6-83.1,18.4v25H4453.1z
					 M4453.1,2750.7c-18.9,1.5-33.8,5.3-44.6,11.5c-10.9,6.2-16.3,13.6-16.3,22.1c0,8.4,4.6,15.5,13.9,21.2
					c9.3,5.7,24.9,10.2,47.1,13.6V2750.7z M4481.7,2921.6c18.9-1.2,34.5-5.4,46.8-12.5s18.5-16,18.5-26.5c0-9-4.4-16.2-13.1-21.6
					c-8.7-5.4-26.1-10.3-52.2-14.6V2921.6z"/>
			</g>
		</g>
		<g>
			<path class="st2" d="M4836.8,2643.7c-20.7-28.1-50.7-54.3-89.9-77.1c-166.2-96.7-438.5-95.7-605.2,2.3
				c-35.7,21-63.7,44.7-84.1,70l-40.7-0.3v99.4c-0.3,5.1-0.3,10.2,0,15.3v0l0,0c3.2,61.2,44.8,121.4,124.8,167.3
				c166.7,95.5,439,94.4,605.2-2.3c78.4-45.6,119.7-104.9,124.2-165h0.4v-109.4L4836.8,2643.7z"/>
			<path class="st3" d="M4746.9,2467.4c-166.2-96.7-438.5-95.7-605.2,2.3c-166.7,98-166.7,256.3,0,351.7
				c166.7,95.5,439,94.4,605.2-2.3S4913.1,2564.1,4746.9,2467.4z"/>
			<path class="st4" d="M4720.4,2482.8c-151.7-88.3-400.2-87.3-552.3,2.1s-152.1,233.9,0,321s400.7,86.2,552.3-2.1
				C4872.1,2715.5,4872.1,2571.1,4720.4,2482.8z"/>
			<path class="st5" d="M4064.6,2593.6l616,230.4c0,0,54.3-25.6,94.3-60l-652.5-244.5C4122.4,2519.5,4088.5,2538.5,4064.6,2593.6z"
				/>
			<path class="st5" d="M4168.1,2484.9l644.9,232.5c0,0,15.7-30.1,18.1-45.7l-608.8-213.5
				C4222.4,2458.3,4185.9,2473.8,4168.1,2484.9z"/>
			<g>
				<path class="st6" d="M4431.2,2768.3v-24.7c-24.3-1.6-44-4.3-59.2-8.3s-28.3-10.4-39.4-19.3c-11.1-8.9-17.5-19.7-19.3-32.6
					l48.8-4.7c3.8,13.3,10.4,23,20,29.3c13.7,8.8,30,13.7,49.1,14.7V2644c-20-1.9-40.4-5.9-61.2-11.8c-15.5-4.4-27.4-10.5-35.7-18.3
					c-8.4-7.8-12.5-16.6-12.5-26.5c0-17.6,12.2-31.8,36.7-42.7c16.4-7.3,40.6-11.8,72.8-13.5v-11.8h28.6v11.8
					c28.2,1.4,50.6,5.6,67.1,12.6c21.2,9,34,21.3,38.3,36.9l-50.2,3.8c-2.9-9.7-8.9-17.1-17.9-22.3s-21.5-8.6-37.4-10.2v71.3
					c24.5,3.1,40.6,5.5,48.5,7.3c15.1,3.4,27.4,7.5,36.9,12.4s16.9,10.6,22,17.3c5.1,6.7,7.7,13.9,7.7,21.7
					c0,17.1-10.7,31.4-32.1,42.9s-49.1,17.6-83.1,18.4v25H4431.2z M4431.2,2551.9c-18.9,1.5-33.8,5.3-44.6,11.5
					c-10.9,6.2-16.3,13.6-16.3,22.1c0,8.4,4.6,15.5,13.9,21.2c9.3,5.7,24.9,10.2,47.1,13.6V2551.9z M4459.8,2722.7
					c18.9-1.2,34.5-5.4,46.8-12.5c12.3-7.1,18.5-16,18.5-26.5c0-9-4.4-16.2-13.1-21.6c-8.7-5.4-26.1-10.3-52.2-14.6V2722.7z"/>
			</g>
		</g>
		<g>
			<path class="st2" d="M4896.1,2435.1c-20.7-28.1-50.7-54.3-89.9-77.1c-166.2-96.7-438.5-95.7-605.2,2.3
				c-35.7,21-63.7,44.7-84.1,70l-40.7-0.3v99.4c-0.3,5.1-0.3,10.2,0,15.3v0l0,0c3.2,61.2,44.8,121.4,124.8,167.3
				c166.7,95.5,439,94.4,605.2-2.3c78.4-45.6,119.7-104.9,124.2-165h0.4v-109.4L4896.1,2435.1z"/>
			<path class="st3" d="M4806.2,2258.8c-166.2-96.7-438.5-95.7-605.2,2.3c-166.7,98-166.7,256.3,0,351.7
				c166.7,95.5,439,94.4,605.2-2.3S4972.4,2355.5,4806.2,2258.8z"/>
			<path class="st4" d="M4779.7,2274.2c-151.7-88.3-400.2-87.3-552.3,2.1c-152.1,89.4-152.1,233.9,0,321
				c152.1,87.1,400.7,86.2,552.3-2.1C4931.4,2506.9,4931.4,2362.5,4779.7,2274.2z"/>
			<path class="st5" d="M4123.9,2385l616,230.4c0,0,54.3-25.6,94.3-60l-652.5-244.5C4181.7,2310.9,4147.8,2329.9,4123.9,2385z"/>
			<path class="st5" d="M4227.4,2276.3l644.9,232.5c0,0,15.7-30.1,18.1-45.7l-608.8-213.5
				C4281.6,2249.7,4245.1,2265.2,4227.4,2276.3z"/>
			<g>
				<path class="st6" d="M4490.4,2559.7V2535c-24.3-1.6-44-4.3-59.2-8.3s-28.3-10.4-39.4-19.3c-11.1-8.9-17.5-19.7-19.3-32.6
					l48.8-4.7c3.8,13.3,10.4,23,20,29.3c13.7,8.8,30,13.7,49.1,14.7v-78.7c-20-1.9-40.4-5.9-61.2-11.8
					c-15.5-4.4-27.4-10.5-35.7-18.3c-8.4-7.8-12.5-16.6-12.5-26.5c0-17.6,12.2-31.8,36.7-42.7c16.4-7.3,40.6-11.8,72.8-13.5v-11.8
					h28.6v11.8c28.2,1.4,50.6,5.6,67.1,12.6c21.2,9,34,21.3,38.3,36.9l-50.2,3.8c-2.9-9.7-8.9-17.1-17.9-22.3
					c-9.1-5.2-21.5-8.6-37.4-10.2v71.3c24.5,3.1,40.6,5.5,48.5,7.3c15.1,3.4,27.4,7.5,36.9,12.4c9.5,4.9,16.9,10.6,22,17.3
					c5.1,6.7,7.7,13.9,7.7,21.7c0,17.1-10.7,31.4-32.1,42.9s-49.1,17.6-83.1,18.4v25H4490.4z M4490.4,2343.3
					c-18.9,1.5-33.8,5.3-44.6,11.5c-10.9,6.2-16.3,13.6-16.3,22.1c0,8.4,4.6,15.5,13.9,21.2c9.3,5.7,24.9,10.2,47.1,13.6V2343.3z
					 M4519,2514.1c18.9-1.2,34.5-5.4,46.8-12.5c12.3-7.1,18.5-16,18.5-26.5c0-9-4.4-16.2-13.1-21.6c-8.7-5.4-26.1-10.3-52.2-14.6
					V2514.1z"/>
			</g>
		</g>
		<g>
			<path class="st2" d="M4847.7,2273.7c-20.7-28.1-50.7-54.3-89.9-77.1c-166.2-96.7-438.5-95.7-605.2,2.3
				c-35.7,21-63.7,44.7-84.1,70l-40.7-0.3v99.4c-0.3,5.1-0.3,10.2,0,15.3v0l0,0c3.2,61.2,44.8,121.4,124.8,167.3
				c166.7,95.5,439,94.4,605.2-2.3c78.4-45.6,119.7-104.9,124.2-165h0.4v-109.4L4847.7,2273.7z"/>
			<path class="st3" d="M4757.9,2097.3c-166.2-96.7-438.5-95.7-605.2,2.3c-166.7,98-166.7,256.3,0,351.7
				c166.7,95.5,439,94.4,605.2-2.3C4924.1,2352.3,4924.1,2194.1,4757.9,2097.3z"/>
			<path class="st4" d="M4731.4,2112.8c-151.7-88.3-400.2-87.3-552.3,2.1c-152.1,89.4-152.1,233.9,0,321
				c152.1,87.1,400.7,86.2,552.3-2.1S4883.1,2201,4731.4,2112.8z"/>
			<path class="st5" d="M4075.5,2223.6l616,230.4c0,0,54.3-25.6,94.3-60l-652.5-244.5C4133.4,2149.4,4099.4,2168.4,4075.5,2223.6z"
				/>
			<path class="st5" d="M4179.1,2114.9l644.9,232.5c0,0,15.7-30.1,18.1-45.7l-608.8-213.5
				C4233.3,2088.2,4196.8,2103.7,4179.1,2114.9z"/>
			<g>
				<path class="st6" d="M4442.1,2398.3v-24.7c-24.3-1.6-44-4.3-59.2-8.3c-15.2-4-28.3-10.4-39.4-19.3
					c-11.1-8.9-17.5-19.7-19.3-32.6l48.8-4.7c3.8,13.3,10.4,23,20,29.3c13.7,8.8,30,13.7,49.1,14.7V2274c-20-1.9-40.4-5.9-61.2-11.8
					c-15.5-4.4-27.4-10.5-35.7-18.3c-8.4-7.8-12.5-16.6-12.5-26.5c0-17.6,12.2-31.8,36.7-42.7c16.4-7.3,40.6-11.8,72.8-13.5v-11.8
					h28.6v11.8c28.2,1.4,50.6,5.6,67.1,12.6c21.2,9,34,21.3,38.3,36.9l-50.2,3.8c-2.9-9.7-8.9-17.1-17.9-22.3
					c-9.1-5.2-21.5-8.6-37.4-10.2v71.3c24.5,3.1,40.6,5.5,48.5,7.3c15.1,3.4,27.4,7.5,36.9,12.4c9.5,4.9,16.9,10.6,22,17.3
					c5.1,6.7,7.7,13.9,7.7,21.7c0,17.1-10.7,31.4-32.1,42.9c-21.4,11.4-49.1,17.6-83.1,18.4v25H4442.1z M4442.1,2181.8
					c-18.9,1.5-33.8,5.3-44.6,11.5c-10.9,6.2-16.3,13.6-16.3,22.1c0,8.4,4.6,15.5,13.9,21.2c9.3,5.7,24.9,10.2,47.1,13.6V2181.8z
					 M4470.7,2352.7c18.9-1.2,34.5-5.4,46.8-12.5s18.5-16,18.5-26.5c0-9-4.4-16.2-13.1-21.6s-26.1-10.3-52.2-14.6V2352.7z"/>
			</g>
		</g>
		<g>
			<path class="st2" d="M4907,2113.4c-20.7-28.1-50.7-54.3-89.9-77.1c-166.2-96.7-438.5-95.7-605.2,2.3c-35.7,21-63.7,44.7-84.1,70
				l-40.7-0.3v99.4c-0.3,5.1-0.3,10.2,0,15.3v0l0,0c3.2,61.2,44.8,121.4,124.8,167.3c166.7,95.5,439,94.4,605.2-2.3
				c78.4-45.6,119.7-104.9,124.2-165h0.4v-109.4L4907,2113.4z"/>
			<path class="st3" d="M4817.2,1937c-166.2-96.7-438.5-95.7-605.2,2.3c-166.7,98-166.7,256.3,0,351.7
				c166.7,95.5,439,94.4,605.2-2.3C4983.4,2192,4983.4,2033.8,4817.2,1937z"/>
			<path class="st4" d="M4790.7,1952.5c-151.7-88.3-400.2-87.3-552.3,2.1c-152.1,89.4-152.1,233.9,0,321
				c152.1,87.1,400.7,86.2,552.3-2.1C4942.4,2185.2,4942.4,2040.7,4790.7,1952.5z"/>
			<path class="st5" d="M4134.8,2063.3l616,230.4c0,0,54.3-25.6,94.3-60l-652.5-244.5C4192.7,1989.1,4158.7,2008.1,4134.8,2063.3z"
				/>
			<path class="st5" d="M4238.4,1954.6l644.9,232.5c0,0,15.7-30.1,18.1-45.7l-608.8-213.5
				C4292.6,1927.9,4256.1,1943.4,4238.4,1954.6z"/>
			<g>
				<path class="st6" d="M4501.4,2238v-24.7c-24.3-1.6-44-4.3-59.2-8.3s-28.3-10.4-39.4-19.3c-11.1-8.9-17.5-19.7-19.3-32.6
					l48.8-4.7c3.8,13.3,10.4,23,20,29.3c13.7,8.8,30,13.7,49.1,14.7v-78.7c-20-1.9-40.4-5.9-61.2-11.8
					c-15.5-4.4-27.4-10.5-35.7-18.3c-8.4-7.8-12.5-16.6-12.5-26.5c0-17.6,12.2-31.8,36.7-42.7c16.4-7.3,40.6-11.8,72.8-13.5v-11.8
					h28.6v11.8c28.2,1.4,50.6,5.6,67.1,12.6c21.2,9,34,21.3,38.3,36.9l-50.2,3.8c-2.9-9.7-8.9-17.1-17.9-22.3s-21.5-8.6-37.4-10.2
					v71.3c24.5,3.1,40.6,5.5,48.5,7.3c15.1,3.4,27.4,7.5,36.9,12.4c9.5,4.9,16.9,10.6,22,17.3s7.7,13.9,7.7,21.7
					c0,17.1-10.7,31.4-32.1,42.9c-21.4,11.4-49.1,17.6-83.1,18.4v25H4501.4z M4501.4,2021.6c-18.9,1.5-33.8,5.3-44.6,11.5
					s-16.3,13.6-16.3,22.1c0,8.4,4.6,15.5,13.9,21.2s24.9,10.2,47.1,13.6V2021.6z M4530,2192.4c18.9-1.2,34.5-5.4,46.8-12.5
					c12.3-7.1,18.5-16,18.5-26.5c0-9-4.4-16.2-13.1-21.6c-8.7-5.4-26.1-10.3-52.2-14.6V2192.4z"/>
			</g>
		</g>
		<g>
			<path class="st2" d="M4885.1,1914.5c-20.7-28.1-50.7-54.3-89.9-77.1c-166.2-96.7-438.5-95.7-605.2,2.3
				c-35.7,21-63.7,44.7-84.1,70l-40.7-0.3v99.4c-0.3,5.1-0.3,10.2,0,15.3v0l0,0c3.2,61.2,44.8,121.4,124.8,167.3
				c166.7,95.5,439,94.4,605.2-2.3c78.4-45.6,119.7-104.9,124.2-165h0.4v-109.4L4885.1,1914.5z"/>
			<path class="st3" d="M4795.3,1738.2c-166.2-96.7-438.5-95.7-605.2,2.3c-166.7,98-166.7,256.3,0,351.7
				c166.7,95.5,439,94.4,605.2-2.3C4961.4,1993.2,4961.4,1834.9,4795.3,1738.2z"/>
			<path class="st4" d="M4768.8,1753.6c-151.7-88.3-400.2-87.3-552.3,2.1c-152.1,89.4-152.1,233.9,0,321
				c152.1,87.1,400.7,86.2,552.3-2.1S4920.4,1841.9,4768.8,1753.6z"/>
			<path class="st5" d="M4112.9,1864.4l616,230.4c0,0,54.3-25.6,94.3-60l-652.5-244.5C4170.7,1790.3,4136.8,1809.3,4112.9,1864.4z"
				/>
			<path class="st5" d="M4216.5,1755.7l644.9,232.5c0,0,15.7-30.1,18.1-45.7l-608.8-213.5
				C4270.7,1729.1,4234.2,1744.6,4216.5,1755.7z"/>
			<g>
				<path class="st6" d="M4479.5,2039.2v-24.7c-24.3-1.6-44-4.3-59.2-8.3c-15.2-4-28.3-10.4-39.4-19.3
					c-11.1-8.9-17.5-19.7-19.3-32.6l48.8-4.7c3.8,13.3,10.4,23,20,29.3c13.7,8.8,30,13.7,49.1,14.7v-78.7
					c-20-1.9-40.4-5.9-61.2-11.8c-15.5-4.4-27.4-10.5-35.7-18.3c-8.4-7.8-12.5-16.6-12.5-26.5c0-17.6,12.2-31.8,36.7-42.7
					c16.4-7.3,40.6-11.8,72.8-13.5v-11.8h28.6v11.8c28.2,1.4,50.6,5.6,67.2,12.6c21.2,9,34,21.3,38.3,36.9l-50.2,3.8
					c-2.9-9.7-8.9-17.1-17.9-22.3s-21.5-8.6-37.4-10.2v71.3c24.5,3.1,40.6,5.5,48.5,7.3c15.1,3.4,27.4,7.5,36.9,12.4
					c9.5,4.9,16.9,10.6,22,17.3s7.7,13.9,7.7,21.7c0,17.1-10.7,31.4-32.1,42.9c-21.4,11.4-49.1,17.6-83.1,18.4v25H4479.5z
					 M4479.5,1822.7c-18.9,1.5-33.8,5.3-44.6,11.5s-16.3,13.6-16.3,22.1c0,8.4,4.6,15.5,13.9,21.2c9.3,5.7,24.9,10.2,47.1,13.6
					V1822.7z M4508.1,1993.6c18.9-1.2,34.5-5.4,46.8-12.5s18.5-16,18.5-26.5c0-9-4.4-16.2-13.1-21.6c-8.7-5.4-26.1-10.3-52.2-14.6
					V1993.6z"/>
			</g>
		</g>
		<g>
			<path class="st2" d="M4944.4,1705.9c-20.7-28.1-50.7-54.3-89.9-77.1c-166.2-96.7-438.5-95.7-605.2,2.3
				c-35.7,21-63.7,44.7-84.1,70l-40.7-0.3v99.4c-0.3,5.1-0.3,10.2,0,15.3v0l0,0c3.2,61.2,44.8,121.4,124.8,167.3
				c166.7,95.5,439,94.4,605.2-2.3c78.4-45.6,119.7-104.9,124.2-165h0.4v-109.4L4944.4,1705.9z"/>
			<path class="st3" d="M4854.5,1529.6c-166.2-96.7-438.5-95.7-605.2,2.3c-166.7,98-166.7,256.3,0,351.7
				c166.7,95.5,439,94.4,605.2-2.3C5020.7,1784.6,5020.7,1626.3,4854.5,1529.6z"/>
			<path class="st4" d="M4828.1,1545c-151.7-88.3-400.2-87.3-552.3,2.1c-152.1,89.4-152.1,233.9,0,321
				c152.1,87.1,400.7,86.2,552.3-2.1C4979.7,1777.8,4979.7,1633.3,4828.1,1545z"/>
			<path class="st5" d="M4172.2,1655.8l616,230.4c0,0,54.3-25.6,94.3-60L4230,1581.7C4230,1581.7,4196.1,1600.7,4172.2,1655.8z"/>
			<path class="st5" d="M4275.7,1547.1l644.9,232.5c0,0,15.7-30.1,18.1-45.7L4330,1520.5C4330,1520.5,4293.5,1536,4275.7,1547.1z"/>
			<g>
				<path class="st6" d="M4538.8,1830.6v-24.7c-24.3-1.6-44-4.3-59.2-8.3c-15.2-4-28.3-10.4-39.4-19.3
					c-11.1-8.9-17.5-19.7-19.3-32.6l48.8-4.7c3.8,13.3,10.4,23,20,29.3c13.7,8.8,30,13.7,49.1,14.7v-78.7
					c-20-1.9-40.4-5.9-61.2-11.8c-15.5-4.4-27.4-10.5-35.7-18.3c-8.4-7.8-12.5-16.6-12.5-26.5c0-17.6,12.2-31.8,36.7-42.7
					c16.4-7.3,40.6-11.8,72.8-13.5v-11.8h28.6v11.8c28.2,1.4,50.6,5.6,67.2,12.6c21.2,9,34,21.3,38.3,36.9l-50.2,3.8
					c-2.9-9.7-8.9-17.1-17.9-22.3c-9.1-5.2-21.5-8.6-37.4-10.2v71.3c24.5,3.1,40.6,5.5,48.5,7.3c15.1,3.4,27.4,7.5,36.9,12.4
					c9.5,4.9,16.9,10.6,22,17.3c5.1,6.7,7.7,13.9,7.7,21.7c0,17.1-10.7,31.4-32.1,42.9c-21.4,11.4-49.1,17.6-83.1,18.4v25H4538.8z
					 M4538.8,1614.1c-18.9,1.5-33.8,5.3-44.6,11.5s-16.3,13.6-16.3,22.1c0,8.4,4.6,15.5,13.9,21.2s24.9,10.2,47.1,13.6V1614.1z
					 M4567.4,1785c18.9-1.2,34.5-5.4,46.8-12.5c12.3-7.1,18.5-16,18.5-26.5c0-9-4.4-16.2-13.1-21.6c-8.7-5.4-26.1-10.3-52.2-14.6
					V1785z"/>
			</g>
		</g>
		<g>
			<path class="st2" d="M4944.4,1542.6c-20.7-28.1-50.7-54.3-89.9-77.1c-166.2-96.7-438.5-95.7-605.2,2.3
				c-35.7,21-63.7,44.7-84.1,70l-40.7-0.3v99.4c-0.3,5.1-0.3,10.2,0,15.3v0l0,0c3.2,61.2,44.8,121.4,124.8,167.3
				c166.7,95.5,439,94.4,605.2-2.3c78.4-45.6,119.7-104.9,124.2-165h0.4v-109.4L4944.4,1542.6z"/>
			<path class="st3" d="M4854.5,1366.2c-166.2-96.7-438.5-95.7-605.2,2.3c-166.7,98-166.7,256.3,0,351.7
				c166.7,95.5,439,94.4,605.2-2.3C5020.7,1621.3,5020.7,1463,4854.5,1366.2z"/>
			<path class="st4" d="M4828.1,1381.7c-151.7-88.3-400.2-87.3-552.3,2.1c-152.1,89.4-152.1,233.9,0,321
				c152.1,87.1,400.7,86.2,552.3-2.1C4979.7,1614.4,4979.7,1469.9,4828.1,1381.7z"/>
			<path class="st5" d="M4172.2,1492.5l616,230.4c0,0,54.3-25.6,94.3-60L4230,1418.4C4230,1418.4,4196.1,1437.3,4172.2,1492.5z"/>
			<path class="st5" d="M4275.7,1383.8l644.9,232.5c0,0,15.7-30.1,18.1-45.7L4330,1357.2C4330,1357.2,4293.5,1372.6,4275.7,1383.8z"
				/>
			<g>
				<path class="st6" d="M4538.8,1667.2v-24.7c-24.3-1.6-44-4.3-59.2-8.3c-15.2-4-28.3-10.4-39.4-19.3
					c-11.1-8.9-17.5-19.7-19.3-32.6l48.8-4.7c3.8,13.3,10.4,23,20,29.3c13.7,8.8,30,13.7,49.1,14.7v-78.7
					c-20-1.9-40.4-5.9-61.2-11.8c-15.5-4.4-27.4-10.5-35.7-18.3c-8.4-7.8-12.5-16.6-12.5-26.5c0-17.6,12.2-31.8,36.7-42.7
					c16.4-7.3,40.6-11.8,72.8-13.5v-11.8h28.6v11.8c28.2,1.4,50.6,5.6,67.2,12.6c21.2,9,34,21.3,38.3,36.9l-50.2,3.8
					c-2.9-9.7-8.9-17.1-17.9-22.3c-9.1-5.2-21.5-8.6-37.4-10.2v71.3c24.5,3.1,40.6,5.5,48.5,7.3c15.1,3.4,27.4,7.5,36.9,12.4
					c9.5,4.9,16.9,10.6,22,17.3c5.1,6.7,7.7,13.9,7.7,21.7c0,17.1-10.7,31.4-32.1,42.9c-21.4,11.4-49.1,17.6-83.1,18.4v25H4538.8z
					 M4538.8,1450.8c-18.9,1.5-33.8,5.3-44.6,11.5c-10.9,6.2-16.3,13.6-16.3,22.1c0,8.4,4.6,15.5,13.9,21.2s24.9,10.2,47.1,13.6
					V1450.8z M4567.4,1621.6c18.9-1.2,34.5-5.4,46.8-12.5c12.3-7.1,18.5-16,18.5-26.5c0-9-4.4-16.2-13.1-21.6
					c-8.7-5.4-26.1-10.3-52.2-14.6V1621.6z"/>
			</g>
		</g>
		<g>
			<path class="st2" d="M4883.1,1384.2c-20.7-28.1-50.7-54.3-89.9-77.1c-166.2-96.7-438.5-95.7-605.2,2.3
				c-35.7,21-63.7,44.7-84.1,70l-40.7-0.3v99.4c-0.3,5.1-0.3,10.2,0,15.3v0l0,0c3.2,61.2,44.8,121.4,124.8,167.3
				c166.7,95.5,439,94.4,605.2-2.3c78.4-45.6,119.7-104.9,124.2-165h0.4v-109.4L4883.1,1384.2z"/>
			<path class="st3" d="M4793.2,1207.9c-166.2-96.7-438.5-95.7-605.2,2.3c-166.7,98-166.7,256.3,0,351.7
				c166.7,95.5,439,94.4,605.2-2.3C4959.4,1462.9,4959.4,1304.6,4793.2,1207.9z"/>
			<path class="st4" d="M4766.8,1223.3c-151.7-88.3-400.2-87.3-552.3,2.1c-152.1,89.4-152.1,233.9,0,321
				c152.1,87.1,400.7,86.2,552.3-2.1C4918.4,1456,4918.4,1311.6,4766.8,1223.3z"/>
			<path class="st5" d="M4110.9,1334.1l616,230.4c0,0,54.3-25.6,94.3-60L4168.7,1260C4168.7,1260,4134.8,1279,4110.9,1334.1z"/>
			<path class="st5" d="M4214.5,1225.4l644.9,232.5c0,0,15.7-30.1,18.1-45.7l-608.8-213.5
				C4268.7,1198.8,4232.2,1214.2,4214.5,1225.4z"/>
			<g>
				<path class="st6" d="M4477.5,1508.8v-24.7c-24.3-1.6-44-4.3-59.2-8.3c-15.2-4-28.3-10.4-39.4-19.3
					c-11.1-8.9-17.5-19.7-19.3-32.6l48.8-4.7c3.8,13.3,10.4,23,20,29.3c13.7,8.8,30,13.7,49.1,14.7v-78.7
					c-20-1.9-40.4-5.9-61.2-11.8c-15.5-4.4-27.4-10.5-35.7-18.3c-8.4-7.8-12.5-16.6-12.5-26.5c0-17.6,12.2-31.8,36.7-42.7
					c16.4-7.3,40.6-11.8,72.8-13.5V1260h28.6v11.8c28.2,1.4,50.6,5.6,67.1,12.6c21.2,9,34,21.3,38.3,36.9l-50.2,3.8
					c-2.9-9.7-8.9-17.1-17.9-22.3c-9.1-5.2-21.5-8.6-37.4-10.2v71.3c24.5,3.1,40.6,5.5,48.5,7.3c15.1,3.4,27.4,7.5,36.9,12.4
					s16.9,10.6,22,17.3c5.1,6.7,7.7,13.9,7.7,21.7c0,17.1-10.7,31.4-32.1,42.9s-49.1,17.6-83.1,18.4v25H4477.5z M4477.5,1292.4
					c-18.9,1.5-33.8,5.3-44.6,11.5c-10.9,6.2-16.3,13.6-16.3,22.1c0,8.4,4.6,15.5,13.9,21.2c9.3,5.7,24.9,10.2,47.1,13.6V1292.4z
					 M4506.1,1463.2c18.9-1.2,34.5-5.4,46.8-12.5c12.3-7.1,18.5-16,18.5-26.5c0-9-4.4-16.2-13.1-21.6c-8.7-5.4-26.1-10.3-52.2-14.6
					V1463.2z"/>
			</g>
		</g>
		<g>
			<path class="st2" d="M4914.2,1214.3c-20.7-28.1-50.7-54.3-89.9-77.1c-166.2-96.7-438.5-95.7-605.2,2.3
				c-35.7,21-63.7,44.7-84.1,70l-40.7-0.3v99.4c-0.3,5.1-0.3,10.2,0,15.3v0l0,0c3.2,61.2,44.8,121.4,124.8,167.3
				c166.7,95.5,439,94.4,605.2-2.3c78.4-45.6,119.7-104.9,124.2-165h0.4v-109.4L4914.2,1214.3z"/>
			<path class="st3" d="M4824.4,1038c-166.2-96.7-438.5-95.7-605.2,2.3c-166.7,98-166.7,256.3,0,351.7
				c166.7,95.5,439,94.4,605.2-2.3C4990.5,1293,4990.5,1134.7,4824.4,1038z"/>
			<path class="st4" d="M4797.9,1053.4c-151.7-88.3-400.2-87.3-552.3,2.1c-152.1,89.4-152.1,233.9,0,321
				c152.1,87.1,400.7,86.2,552.3-2.1C4949.5,1286.1,4949.5,1141.7,4797.9,1053.4z"/>
			<path class="st5" d="M4142,1164.2l616,230.4c0,0,54.3-25.6,94.3-60l-652.5-244.5C4199.8,1090.1,4165.9,1109.1,4142,1164.2z"/>
			<path class="st5" d="M4245.6,1055.5l644.9,232.5c0,0,15.7-30.1,18.1-45.7l-608.8-213.5
				C4299.8,1028.9,4263.3,1044.4,4245.6,1055.5z"/>
			<g>
				<path class="st6" d="M4508.6,1339v-24.7c-24.3-1.6-44-4.3-59.2-8.3c-15.2-4-28.3-10.4-39.4-19.3c-11.1-8.9-17.5-19.7-19.3-32.6
					l48.8-4.7c3.8,13.3,10.4,23,20,29.3c13.7,8.8,30,13.7,49.1,14.7v-78.7c-20-1.9-40.4-5.9-61.2-11.8
					c-15.5-4.4-27.4-10.5-35.7-18.3c-8.4-7.8-12.5-16.6-12.5-26.5c0-17.6,12.2-31.8,36.7-42.7c16.4-7.3,40.6-11.8,72.8-13.5v-11.8
					h28.6v11.8c28.2,1.4,50.6,5.6,67.2,12.6c21.2,9,34,21.3,38.3,36.9l-50.2,3.8c-2.9-9.7-8.9-17.1-17.9-22.3s-21.5-8.6-37.4-10.2
					v71.3c24.5,3.1,40.6,5.5,48.5,7.3c15.1,3.4,27.4,7.5,36.9,12.4c9.5,4.9,16.9,10.6,22,17.3c5.1,6.7,7.7,13.9,7.7,21.7
					c0,17.1-10.7,31.4-32.1,42.9c-21.4,11.4-49.1,17.6-83.1,18.4v25H4508.6z M4508.6,1122.5c-18.9,1.5-33.8,5.3-44.6,11.5
					s-16.3,13.6-16.3,22.1c0,8.4,4.6,15.5,13.9,21.2c9.3,5.7,24.9,10.2,47.1,13.6V1122.5z M4537.2,1293.4
					c18.9-1.2,34.5-5.4,46.8-12.5s18.5-16,18.5-26.5c0-9-4.4-16.2-13.1-21.6c-8.7-5.4-26.1-10.3-52.2-14.6V1293.4z"/>
			</g>
		</g>
		<g>
			<g>
				<polygon class="st7" points="2020.3,3490.5 2020.3,3193.7 2229.2,3070.8 2229.2,3367.7 				"/>
				<polygon class="st8" points="1327,3731.9 1835.6,4064.8 2117.5,4136.3 3782.2,3166.1 3704.6,3031.3 3048.9,2680 				"/>
				<path class="st9" d="M3708.6,3005.8l-457-259.4l-186.3-102.7l-183.4,108.8l-1451.2,847.7l-229.8,131.7l211.4,121l456.5,255.8
					l190.7,108.8l190.7-108.8l1459.9-853.3l205.8-130.2L3708.6,3005.8z M3675.2,3205.5l-1490.8,868.2
					c-103.4-42.1-196.2-21.2-253.9,2.4l-470.1-262.6c32.1-35.8,59.6-94.5,7.4-170.1l1480.4-868c55.9,14.4,141,25.9,231.8-0.2
					l496.7,270.4C3639.2,3106.9,3654.6,3165.8,3675.2,3205.5z"/>
				<polygon class="st10" points="3916,3125.3 3916,3408.2 2059.5,4499.4 2059.5,4217.5 				"/>
				<polygon class="st11" points="1200.8,3731.9 1200.8,4013 2059.5,4499.4 2059.5,4217.5 				"/>
				<path class="st9" d="M2768.3,3303.1c-121.4-70.5-320.2-70.5-441.6,0c-121.4,70.5-121.9,185.4-1,255.3
					c120.9,69.9,319.6,69.9,441.6,0C2889.2,3488.6,2889.7,3373.7,2768.3,3303.1z M2722.1,3532.3c-97,55.6-255,55.6-351.1,0
					c-96.1-55.6-95.7-147,0.8-203c96.6-56.1,254.6-56.1,351.1,0C2819.5,3385.3,2819.1,3476.7,2722.1,3532.3z"/>
				<path class="st9" d="M2131,3661.8c-51.6-29.9-136-29.9-187.6,0c-51.6,29.9-51.8,78.7-0.4,108.4c51.3,29.7,135.7,29.7,187.6,0
					C2182.4,3740.6,2182.6,3691.8,2131,3661.8z"/>
				<path class="st9" d="M3145.4,3100.6c-51.6-29.9-136-29.9-187.6,0c-51.6,29.9-51.8,78.7-0.4,108.4c51.3,29.7,135.7,29.7,187.6,0
					C3196.8,3179.4,3197,3130.6,3145.4,3100.6z"/>
				<polygon class="st7" points="2910.1,3999.4 2910.1,3702.6 3119,3579.7 3119,3876.6 				"/>
				<polygon class="st12" points="2020.3,3193.5 2910.4,3702.8 3119,3579.7 2229.2,3070.8 				"/>
			</g>
			<g>
				<polygon class="st7" points="2020.3,3114.7 2020.3,2817.9 2229.2,2695 2229.2,2991.9 				"/>
				<polygon class="st8" points="1327,3356.1 1835.6,3689.1 2117.5,3760.5 3782.2,2790.3 3704.6,2655.5 3048.9,2304.2 				"/>
				<path class="st9" d="M3708.6,2630l-457-259.4l-186.3-102.7l-183.4,108.8l-1451.2,847.7l-229.8,131.7l211.4,121l456.5,255.8
					l190.7,108.8l190.7-108.8l1459.9-853.3l205.8-130.2L3708.6,2630z M3675.2,2829.8l-1490.8,868.2
					c-103.4-42.1-196.2-21.2-253.9,2.4l-470.1-262.6c32.1-35.8,59.6-94.5,7.4-170.1l1480.4-868c55.9,14.4,141,25.9,231.8-0.2
					l496.7,270.4C3639.2,2731.1,3654.6,2790,3675.2,2829.8z"/>
				<polygon class="st10" points="3916,2749.5 3916,3032.4 2059.5,4123.6 2059.5,3841.7 				"/>
				<polygon class="st11" points="1200.8,3356.1 1200.8,3637.2 2059.5,4123.6 2059.5,3841.7 				"/>
				<path class="st9" d="M2768.3,2927.4c-121.4-70.5-320.2-70.5-441.6,0c-121.4,70.5-121.9,185.4-1,255.3
					c120.9,69.9,319.6,69.9,441.6,0C2889.2,3112.8,2889.7,2997.9,2768.3,2927.4z M2722.1,3156.5c-97,55.6-255,55.6-351.1,0
					c-96.1-55.6-95.7-147,0.8-203c96.6-56.1,254.6-56.1,351.1,0C2819.5,3009.5,2819.1,3100.9,2722.1,3156.5z"/>
				<path class="st9" d="M2131,3286c-51.6-29.9-136-29.9-187.6,0c-51.6,29.9-51.8,78.7-0.4,108.4c51.3,29.7,135.7,29.7,187.6,0
					C2182.4,3364.8,2182.6,3316,2131,3286z"/>
				<path class="st9" d="M3145.4,2724.8c-51.6-29.9-136-29.9-187.6,0c-51.6,29.9-51.8,78.7-0.4,108.4c51.3,29.7,135.7,29.7,187.6,0
					C3196.8,2803.6,3197,2754.8,3145.4,2724.8z"/>
				<polygon class="st7" points="2910.1,3623.6 2910.1,3326.8 3119,3204 3119,3500.8 				"/>
				<polygon class="st12" points="2020.3,2817.7 2910.4,3327 3119,3204 2229.2,2695 				"/>
			</g>
		</g>
		<g>
			<polygon class="st7" points="2042,2730.2 2042,2433.4 2250.8,2310.5 2250.8,2607.4 			"/>
			<polygon class="st8" points="1348.7,2971.6 1857.3,3304.5 2139.2,3376 3803.8,2405.8 3726.2,2271 3070.6,1919.7 			"/>
			<path class="st9" d="M3730.3,2245.5l-457-259.4L3087,1883.4l-183.4,108.8l-1451.2,847.7l-229.8,131.7l211.4,121l456.5,255.8
				l190.7,108.8l190.7-108.8l1459.9-853.3l205.8-130.2L3730.3,2245.5z M3696.9,2445.2L2206,3313.4c-103.4-42.1-196.2-21.2-253.9,2.4
				L1482,3053.1c32.1-35.8,59.6-94.5,7.4-170.1l1480.4-868c55.9,14.4,141,25.9,231.8-0.2l496.7,270.4
				C3660.8,2346.6,3676.3,2405.5,3696.9,2445.2z"/>
			<polygon class="st10" points="3937.6,2365 3937.6,2647.9 2081.2,3739.1 2081.2,3457.2 			"/>
			<polygon class="st11" points="1222.5,2971.6 1222.5,3252.7 2081.2,3739.1 2081.2,3457.2 			"/>
			<path class="st9" d="M2789.9,2542.8c-121.4-70.5-320.2-70.5-441.6,0c-121.4,70.5-121.9,185.4-1,255.3
				c120.9,69.9,319.6,69.9,441.6,0C2910.9,2728.3,2911.4,2613.4,2789.9,2542.8z M2743.8,2772c-97,55.6-255,55.6-351.1,0
				c-96.1-55.6-95.7-147,0.8-203c96.6-56.1,254.6-56.1,351.1,0C2841.2,2625,2840.8,2716.4,2743.8,2772z"/>
			<path class="st9" d="M2152.7,2901.5c-51.6-29.9-136-29.9-187.6,0c-51.6,29.9-51.8,78.7-0.4,108.4c51.3,29.7,135.7,29.7,187.6,0
				C2204.1,2980.3,2204.3,2931.5,2152.7,2901.5z"/>
			<path class="st9" d="M3167.1,2340.3c-51.6-29.9-136-29.9-187.6,0c-51.6,29.9-51.8,78.7-0.4,108.4c51.3,29.7,135.7,29.7,187.6,0
				C3218.5,2419.1,3218.7,2370.3,3167.1,2340.3z"/>
			<polygon class="st7" points="2931.8,3239.1 2931.8,2942.3 3140.7,2819.4 3140.7,3116.3 			"/>
			<polygon class="st12" points="2042,2433.2 2932.1,2942.5 3140.7,2819.4 2250.8,2310.5 			"/>
		</g>
		<g>
			<polygon class="st7" points="2042,2354.4 2042,2057.6 2250.8,1934.7 2250.8,2231.6 			"/>
			<polygon class="st8" points="1348.7,2595.8 1857.3,2928.8 2139.2,3000.3 3803.8,2030 3726.2,1895.2 3070.6,1543.9 			"/>
			<path class="st9" d="M3730.3,1869.7l-457-259.4L3087,1507.6l-183.4,108.8l-1451.2,847.7l-229.8,131.7l211.4,121l456.5,255.8
				l190.7,108.8l190.7-108.8l1459.9-853.3l205.8-130.2L3730.3,1869.7z M3696.9,2069.5L2206,2937.6c-103.4-42.1-196.2-21.2-253.9,2.4
				L1482,2677.3c32.1-35.8,59.6-94.5,7.4-170.1l1480.4-868c55.9,14.4,141,25.9,231.8-0.2l496.7,270.4
				C3660.8,1970.8,3676.3,2029.7,3696.9,2069.5z"/>
			<polygon class="st10" points="3937.6,1989.2 3937.6,2272.1 2081.2,3363.3 2081.2,3081.4 			"/>
			<polygon class="st11" points="1222.5,2595.8 1222.5,2876.9 2081.2,3363.3 2081.2,3081.4 			"/>
			<path class="st9" d="M2789.9,2167.1c-121.4-70.5-320.2-70.5-441.6,0c-121.4,70.5-121.9,185.4-1,255.3
				c120.9,69.9,319.6,69.9,441.6,0C2910.9,2352.5,2911.4,2237.6,2789.9,2167.1z M2743.8,2396.2c-97,55.6-255,55.6-351.1,0
				c-96.1-55.6-95.7-147,0.8-203c96.6-56.1,254.6-56.1,351.1,0C2841.2,2249.2,2840.8,2340.6,2743.8,2396.2z"/>
			<path class="st9" d="M2152.7,2525.7c-51.6-29.9-136-29.9-187.6,0c-51.6,29.9-51.8,78.7-0.4,108.4c51.3,29.7,135.7,29.7,187.6,0
				C2204.1,2604.5,2204.3,2555.7,2152.7,2525.7z"/>
			<path class="st9" d="M3167.1,1964.5c-51.6-29.9-136-29.9-187.6,0c-51.6,29.9-51.8,78.7-0.4,108.4c51.3,29.7,135.7,29.7,187.6,0
				C3218.5,2043.3,3218.7,1994.5,3167.1,1964.5z"/>
			<polygon class="st7" points="2931.8,2863.3 2931.8,2566.6 3140.7,2443.7 3140.7,2740.5 			"/>
			<polygon class="st12" points="2042,2057.4 2932.1,2566.7 3140.7,2443.7 2250.8,1934.7 			"/>
		</g>
		<g>
			<polygon class="st7" points="2042,1979.5 2042,1682.8 2250.8,1559.9 2250.8,1856.8 			"/>
			<polygon class="st8" points="1348.7,2221 1857.3,2553.9 2139.2,2625.4 3803.8,1655.2 3726.2,1520.4 3070.6,1169.1 			"/>
			<path class="st9" d="M3730.3,1494.8l-457-259.4L3087,1132.7l-183.4,108.8l-1451.2,847.7L1222.5,2221l211.4,121l456.5,255.8
				l190.7,108.8l190.7-108.8l1459.9-853.3l205.8-130.2L3730.3,1494.8z M3696.9,1694.6L2206,2562.8c-103.4-42.1-196.2-21.2-253.9,2.4
				L1482,2302.5c32.1-35.8,59.6-94.5,7.4-170.1l1480.4-868c55.9,14.4,141,25.9,231.8-0.2l496.7,270.4
				C3660.8,1595.9,3676.3,1654.9,3696.9,1694.6z"/>
			<polygon class="st10" points="3937.6,1614.3 3937.6,1897.2 2081.2,2988.5 2081.2,2706.6 			"/>
			<polygon class="st11" points="1222.5,2221 1222.5,2502.1 2081.2,2988.5 2081.2,2706.6 			"/>
			<path class="st9" d="M2789.9,1792.2c-121.4-70.5-320.2-70.5-441.6,0c-121.4,70.5-121.9,185.4-1,255.3
				c120.9,69.9,319.6,69.9,441.6,0C2910.9,1977.6,2911.4,1862.7,2789.9,1792.2z M2743.8,2021.3c-97,55.6-255,55.6-351.1,0
				c-96.1-55.6-95.7-147,0.8-203c96.6-56.1,254.6-56.1,351.1,0C2841.2,1874.4,2840.8,1965.7,2743.8,2021.3z"/>
			<path class="st9" d="M2152.7,2150.9c-51.6-29.9-136-29.9-187.6,0c-51.6,29.9-51.8,78.7-0.4,108.4c51.3,29.7,135.7,29.7,187.6,0
				C2204.1,2229.6,2204.3,2180.8,2152.7,2150.9z"/>
			<path class="st9" d="M3167.1,1589.7c-51.6-29.9-136-29.9-187.6,0c-51.6,29.9-51.8,78.7-0.4,108.4c51.3,29.7,135.7,29.7,187.6,0
				C3218.5,1668.4,3218.7,1619.6,3167.1,1589.7z"/>
			<polygon class="st7" points="2931.8,2488.5 2931.8,2191.7 3140.7,2068.8 3140.7,2365.7 			"/>
			<polygon class="st12" points="2042,1682.5 2932.1,2191.9 3140.7,2068.8 2250.8,1559.9 			"/>
		</g>
		<g>
			<polygon class="st7" points="3466.7,3891.9 3466.7,3595.1 3675.6,3472.2 3675.6,3769.1 			"/>
			<polygon class="st8" points="2773.4,4133.3 3282,4466.3 3563.9,4537.8 5228.6,3567.5 5151,3432.7 4495.3,3081.4 			"/>
			<path class="st9" d="M5155,3407.2l-457-259.4l-186.3-102.7l-183.4,108.8L2877,4001.6l-229.8,131.7l211.4,121l456.5,255.8
				l190.7,108.8l190.7-108.8l1459.9-853.3l205.8-130.2L5155,3407.2z M5121.6,3607l-1490.8,868.2c-103.4-42.1-196.2-21.2-253.9,2.4
				l-470.1-262.6c32.1-35.8,59.6-94.5,7.4-170.1l1480.4-868c55.9,14.4,141,25.9,231.8-0.2l496.7,270.4
				C5085.6,3508.3,5101,3567.2,5121.6,3607z"/>
			<polygon class="st10" points="5362.4,3526.7 5362.4,3809.6 3505.9,4900.8 3505.9,4619 			"/>
			<polygon class="st11" points="2647.3,4133.3 2647.3,4414.4 3505.9,4900.8 3505.9,4619 			"/>
			<path class="st9" d="M4214.7,3704.6c-121.4-70.5-320.2-70.5-441.6,0c-121.4,70.5-121.9,185.4-1,255.3
				c120.9,69.9,319.6,69.9,441.6,0C4335.6,3890,4336.1,3775.1,4214.7,3704.6z M4168.5,3933.7c-97,55.6-255,55.6-351.1,0
				c-96.1-55.6-95.7-147,0.8-203c96.6-56.1,254.6-56.1,351.1,0C4265.9,3786.7,4265.5,3878.1,4168.5,3933.7z"/>
			<path class="st9" d="M3577.5,4063.2c-51.6-29.9-136-29.9-187.6,0c-51.6,29.9-51.8,78.7-0.4,108.4c51.3,29.7,135.7,29.7,187.6,0
				C3628.8,4142,3629,4093.2,3577.5,4063.2z"/>
			<path class="st9" d="M4591.8,3502c-51.6-29.9-136-29.9-187.6,0c-51.6,29.9-51.8,78.7-0.4,108.4c51.3,29.7,135.7,29.7,187.6,0
				C4643.2,3580.8,4643.4,3532,4591.8,3502z"/>
			<polygon class="st7" points="4356.5,4400.8 4356.5,4104.1 4565.4,3981.2 4565.4,4278.1 			"/>
			<polygon class="st12" points="3466.7,3594.9 4356.8,4104.2 4565.4,3981.2 3675.6,3472.2 			"/>
		</g>
		<g>
			<polygon class="st7" points="4070.2,5025 4070.2,4728.2 4279.1,4605.3 4279.1,4902.2 			"/>
			<polygon class="st8" points="3376.9,5266.4 3885.5,5599.3 4167.4,5670.8 5832.1,4700.6 5754.4,4565.8 5098.8,4214.5 			"/>
			<path class="st9" d="M5758.5,4540.3l-457-259.4l-186.3-102.7L4931.7,4287l-1451.2,847.7l-229.8,131.7l211.4,121l456.5,255.8
				l190.7,108.8l190.7-108.8L5760,4790l205.8-130.2L5758.5,4540.3z M5725.1,4740l-1490.8,868.2c-103.4-42.1-196.2-21.2-253.9,2.4
				l-470.1-262.6c32.1-35.8,59.6-94.5,7.4-170.1l1480.4-868c55.9,14.4,141,25.9,231.8-0.3l496.7,270.4
				C5689,4641.4,5704.5,4700.3,5725.1,4740z"/>
			<polygon class="st10" points="5965.8,4659.8 5965.8,4942.7 4109.4,6033.9 4109.4,5752 			"/>
			<polygon class="st11" points="3250.7,5266.4 3250.7,5547.5 4109.4,6033.9 4109.4,5752 			"/>
			<path class="st9" d="M4818.1,4837.6c-121.4-70.5-320.2-70.5-441.6,0c-121.4,70.5-121.9,185.4-1,255.3
				c120.9,69.9,319.6,69.9,441.6,0C4939.1,5023.1,4939.6,4908.1,4818.1,4837.6z M4772,5066.8c-97,55.6-255,55.6-351.1,0
				c-96.1-55.6-95.7-147,0.8-203c96.6-56.1,254.6-56.1,351.1,0C4869.4,4919.8,4869,5011.2,4772,5066.8z"/>
			<path class="st9" d="M4180.9,5196.3c-51.6-29.9-136-29.9-187.6,0c-51.6,29.9-51.8,78.7-0.4,108.4c51.3,29.7,135.7,29.7,187.6,0
				C4232.3,5275,4232.5,5226.2,4180.9,5196.3z"/>
			<path class="st9" d="M5195.3,4635.1c-51.6-29.9-136-29.9-187.6,0c-51.6,29.9-51.8,78.7-0.4,108.4c51.3,29.7,135.7,29.7,187.6,0
				C5246.7,4713.9,5246.9,4665.1,5195.3,4635.1z"/>
			<polygon class="st7" points="4960,5533.9 4960,5237.1 5168.9,5114.2 5168.9,5411.1 			"/>
			<polygon class="st12" points="4070.2,4728 4960.3,5237.3 5168.9,5114.2 4279.1,4605.3 			"/>
		</g>
		<g>
			<polygon class="st7" points="4070.2,4684.8 4070.2,4388 4279.1,4265.1 4279.1,4562 			"/>
			<polygon class="st8" points="3376.9,4926.2 3885.5,5259.1 4167.4,5330.6 5832.1,4360.4 5754.4,4225.6 5098.8,3874.3 			"/>
			<path class="st9" d="M5758.5,4200.1l-457-259.4L5115.2,3838l-183.4,108.8l-1451.2,847.7l-229.8,131.7l211.4,121l456.5,255.8
				l190.7,108.8l190.7-108.8L5760,4449.8l205.8-130.2L5758.5,4200.1z M5725.1,4399.8L4234.2,5268c-103.4-42.1-196.2-21.2-253.9,2.4
				l-470.1-262.6c32.1-35.8,59.6-94.5,7.4-170.1l1480.4-868c55.9,14.4,141,25.9,231.8-0.2l496.7,270.4
				C5689,4301.2,5704.5,4360.1,5725.1,4399.8z"/>
			<polygon class="st10" points="5965.8,4319.6 5965.8,4602.5 4109.4,5693.7 4109.4,5411.8 			"/>
			<polygon class="st11" points="3250.7,4926.2 3250.7,5207.3 4109.4,5693.7 4109.4,5411.8 			"/>
			<path class="st9" d="M4818.1,4497.4c-121.4-70.5-320.2-70.5-441.6,0c-121.4,70.5-121.9,185.4-1,255.3
				c120.9,69.9,319.6,69.9,441.6,0C4939.1,4682.9,4939.6,4567.9,4818.1,4497.4z M4772,4726.6c-97,55.6-255,55.6-351.1,0
				c-96.1-55.6-95.7-147,0.8-203c96.6-56.1,254.6-56.1,351.1,0C4869.4,4579.6,4869,4671,4772,4726.6z"/>
			<path class="st9" d="M4180.9,4856.1c-51.6-29.9-136-29.9-187.6,0c-51.6,29.9-51.8,78.7-0.4,108.4c51.3,29.7,135.7,29.7,187.6,0
				C4232.3,4934.9,4232.5,4886,4180.9,4856.1z"/>
			<path class="st9" d="M5195.3,4294.9c-51.6-29.9-136-29.9-187.6,0c-51.6,29.9-51.8,78.7-0.4,108.4c51.3,29.7,135.7,29.7,187.6,0
				C5246.7,4373.7,5246.9,4324.9,5195.3,4294.9z"/>
			<polygon class="st7" points="4960,5193.7 4960,4896.9 5168.9,4774 5168.9,5070.9 			"/>
			<polygon class="st12" points="4070.2,4387.8 4960.3,4897.1 5168.9,4774 4279.1,4265.1 			"/>
		</g>
		<g>
			<polygon class="st7" points="3466.7,3516.1 3466.7,3219.3 3675.6,3096.4 3675.6,3393.3 			"/>
			<polygon class="st8" points="2773.4,3757.5 3282,4090.5 3563.9,4162 5228.6,3191.8 5151,3057 4495.3,2705.6 			"/>
			<path class="st9" d="M5155,3031.4L4698,2772l-186.3-102.7l-183.4,108.8L2877,3625.8l-229.8,131.7l211.4,121l456.5,255.8
				l190.7,108.8l190.7-108.8l1459.9-853.3l205.8-130.2L5155,3031.4z M5121.6,3231.2l-1490.8,868.2c-103.4-42.1-196.2-21.2-253.9,2.4
				L2906.8,3839c32.1-35.8,59.6-94.5,7.4-170.1l1480.4-868c55.9,14.4,141,25.9,231.8-0.2l496.7,270.4
				C5085.6,3132.5,5101,3191.4,5121.6,3231.2z"/>
			<polygon class="st10" points="5362.4,3150.9 5362.4,3433.8 3505.9,4525 3505.9,4243.2 			"/>
			<polygon class="st11" points="2647.3,3757.5 2647.3,4038.7 3505.9,4525 3505.9,4243.2 			"/>
			<path class="st9" d="M4214.7,3328.8c-121.4-70.5-320.2-70.5-441.6,0c-121.4,70.5-121.9,185.4-1,255.3
				c120.9,69.9,319.6,69.9,441.6,0C4335.6,3514.2,4336.1,3399.3,4214.7,3328.8z M4168.5,3557.9c-97,55.6-255,55.6-351.1,0
				c-96.1-55.6-95.7-147,0.8-203c96.6-56.1,254.6-56.1,351.1,0C4265.9,3411,4265.5,3502.3,4168.5,3557.9z"/>
			<path class="st9" d="M3577.5,3687.4c-51.6-29.9-136-29.9-187.6,0c-51.6,29.9-51.8,78.7-0.4,108.4c51.3,29.7,135.7,29.7,187.6,0
				C3628.8,3766.2,3629,3717.4,3577.5,3687.4z"/>
			<path class="st9" d="M4591.8,3126.3c-51.6-29.9-136-29.9-187.6,0c-51.6,29.9-51.8,78.7-0.4,108.4c51.3,29.7,135.7,29.7,187.6,0
				C4643.2,3205,4643.4,3156.2,4591.8,3126.3z"/>
			<polygon class="st7" points="4356.5,4025 4356.5,3728.3 4565.4,3605.4 4565.4,3902.3 			"/>
			<polygon class="st12" points="3466.7,3219.1 4356.8,3728.4 4565.4,3605.4 3675.6,3096.4 			"/>
		</g>
		<g>
			<polygon class="st7" points="3509.6,3117.1 3509.6,2820.4 3718.5,2697.5 3718.5,2994.3 			"/>
			<polygon class="st8" points="2816.3,3358.6 3324.9,3691.5 3606.8,3763 5271.5,2792.8 5193.9,2658 4538.2,2306.6 			"/>
			<path class="st9" d="M5197.9,2632.4l-457-259.4l-186.3-102.7l-183.4,108.8l-1451.2,847.7l-229.8,131.7l211.4,121l456.5,255.8
				l190.7,108.8l190.7-108.8l1459.9-853.3l205.8-130.2L5197.9,2632.4z M5164.5,2832.2l-1490.8,868.2
				c-103.4-42.1-196.2-21.2-253.9,2.4l-470.1-262.6c32.1-35.8,59.6-94.5,7.4-170.1l1480.4-868c55.9,14.4,141,25.9,231.8-0.2
				l496.7,270.4C5128.5,2733.5,5143.9,2792.5,5164.5,2832.2z"/>
			<polygon class="st10" points="5405.3,2751.9 5405.3,3034.8 3548.8,4126.1 3548.8,3844.2 			"/>
			<polygon class="st11" points="2690.1,3358.6 2690.1,3639.7 3548.8,4126.1 3548.8,3844.2 			"/>
			<path class="st9" d="M4257.6,2929.8c-121.4-70.5-320.2-70.5-441.6,0c-121.4,70.5-121.9,185.4-1,255.3
				c120.9,69.9,319.6,69.9,441.6,0C4378.5,3115.2,4379,3000.3,4257.6,2929.8z M4211.4,3158.9c-97,55.6-255,55.6-351.1,0
				c-96.1-55.6-95.7-147,0.8-203c96.6-56.1,254.6-56.1,351.1,0C4308.8,3012,4308.4,3103.3,4211.4,3158.9z"/>
			<path class="st9" d="M3620.3,3288.5c-51.6-29.9-136-29.9-187.6,0c-51.6,29.9-51.8,78.7-0.4,108.4c51.3,29.7,135.7,29.7,187.6,0
				C3671.7,3367.2,3671.9,3318.4,3620.3,3288.5z"/>
			<path class="st9" d="M4634.7,2727.3c-51.6-29.9-136-29.9-187.6,0c-51.6,29.9-51.8,78.7-0.4,108.4c51.3,29.7,135.7,29.7,187.6,0
				C4686.1,2806,4686.3,2757.2,4634.7,2727.3z"/>
			<polygon class="st7" points="4399.4,3626.1 4399.4,3329.3 4608.3,3206.4 4608.3,3503.3 			"/>
			<polygon class="st12" points="3509.6,2820.1 4399.7,3329.5 4608.3,3206.4 3718.5,2697.5 			"/>
		</g>
		<g>
			<path class="st2" d="M6287.2,3791.7c-20.7-28.1-50.7-54.3-89.9-77.1c-166.2-96.7-438.5-95.7-605.2,2.3
				c-35.7,21-63.7,44.7-84.1,70l-40.7-0.3v99.4c-0.3,5.1-0.3,10.2,0,15.3v0l0,0c3.2,61.2,44.8,121.4,124.8,167.3
				c166.7,95.5,439,94.4,605.2-2.3c78.4-45.6,119.7-104.9,124.2-165h0.4v-109.4L6287.2,3791.7z"/>
			<path class="st3" d="M6197.4,3615.4c-166.2-96.7-438.5-95.7-605.2,2.3c-166.7,98-166.7,256.3,0,351.7
				c166.7,95.5,439,94.4,605.2-2.3C6363.5,3870.4,6363.5,3712.1,6197.4,3615.4z"/>
			<path class="st4" d="M6170.9,3630.8c-151.7-88.3-400.2-87.3-552.3,2.1s-152.1,233.9,0,321s400.7,86.2,552.3-2.1
				C6322.5,3863.5,6322.5,3719.1,6170.9,3630.8z"/>
			<path class="st5" d="M5515,3741.6l616,230.4c0,0,54.3-25.6,94.3-60l-652.5-244.5C5572.9,3667.5,5538.9,3686.5,5515,3741.6z"/>
			<path class="st5" d="M5618.6,3632.9l644.9,232.5c0,0,15.7-30.1,18.1-45.7l-608.8-213.5
				C5672.8,3606.3,5636.3,3621.8,5618.6,3632.9z"/>
			<g>
				<path class="st6" d="M5881.6,3916.4v-24.7c-24.3-1.6-44-4.3-59.2-8.3c-15.2-4-28.3-10.4-39.4-19.3
					c-11.1-8.9-17.5-19.7-19.3-32.6l48.8-4.7c3.8,13.3,10.4,23,20,29.3c13.7,8.8,30,13.7,49.1,14.7v-78.7
					c-20-1.9-40.4-5.9-61.2-11.8c-15.5-4.4-27.4-10.5-35.7-18.3c-8.4-7.8-12.5-16.6-12.5-26.5c0-17.6,12.2-31.8,36.7-42.7
					c16.4-7.3,40.6-11.8,72.8-13.5v-11.8h28.6v11.8c28.2,1.4,50.6,5.6,67.1,12.6c21.2,9,34,21.3,38.3,36.9l-50.2,3.8
					c-2.9-9.7-8.9-17.1-17.9-22.3c-9.1-5.2-21.5-8.6-37.4-10.2v71.3c24.5,3.1,40.6,5.5,48.5,7.3c15.1,3.4,27.4,7.5,36.9,12.4
					s16.9,10.6,22,17.3c5.1,6.7,7.7,13.9,7.7,21.7c0,17.1-10.7,31.4-32.1,42.9c-21.4,11.4-49.1,17.6-83.1,18.4v25H5881.6z
					 M5881.6,3699.9c-18.9,1.5-33.8,5.3-44.6,11.5c-10.9,6.2-16.3,13.6-16.3,22.1c0,8.4,4.6,15.5,13.9,21.2
					c9.3,5.7,24.9,10.2,47.1,13.6V3699.9z M5910.2,3870.8c18.9-1.2,34.5-5.4,46.8-12.5c12.3-7.1,18.5-16,18.5-26.5
					c0-9-4.4-16.2-13.1-21.6c-8.7-5.4-26.1-10.3-52.2-14.6V3870.8z"/>
			</g>
		</g>
		<g>
			<path class="st2" d="M6265.3,3592.9c-20.7-28.1-50.7-54.3-89.9-77.1c-166.2-96.7-438.5-95.7-605.2,2.3
				c-35.7,21-63.7,44.7-84.1,70l-40.7-0.3v99.4c-0.3,5.1-0.3,10.2,0,15.3v0l0,0c3.2,61.2,44.8,121.4,124.8,167.3
				c166.7,95.5,439,94.4,605.2-2.3c78.4-45.6,119.7-104.9,124.2-165h0.4v-109.4L6265.3,3592.9z"/>
			<path class="st3" d="M6175.4,3416.5c-166.2-96.7-438.5-95.7-605.2,2.3c-166.7,98-166.7,256.3,0,351.7
				c166.7,95.5,439,94.4,605.2-2.3C6341.6,3671.6,6341.6,3513.3,6175.4,3416.5z"/>
			<path class="st4" d="M6149,3432c-151.7-88.3-400.2-87.3-552.3,2.1s-152.1,233.9,0,321s400.7,86.2,552.3-2.1
				C6300.6,3664.7,6300.6,3520.3,6149,3432z"/>
			<path class="st5" d="M5493.1,3542.8l616,230.4c0,0,54.3-25.6,94.3-60l-652.5-244.5C5550.9,3468.7,5517,3487.6,5493.1,3542.8z"/>
			<path class="st5" d="M5596.7,3434.1l644.9,232.5c0,0,15.7-30.1,18.1-45.7l-608.8-213.5
				C5650.9,3407.5,5614.4,3422.9,5596.7,3434.1z"/>
			<g>
				<path class="st6" d="M5859.7,3717.5v-24.7c-24.3-1.6-44-4.3-59.2-8.3c-15.2-4-28.3-10.4-39.4-19.3
					c-11.1-8.9-17.5-19.7-19.3-32.6l48.8-4.7c3.8,13.3,10.4,23,20,29.3c13.7,8.8,30,13.7,49.1,14.7v-78.7
					c-20-1.9-40.4-5.9-61.2-11.8c-15.5-4.4-27.4-10.5-35.7-18.3s-12.5-16.6-12.5-26.5c0-17.6,12.2-31.8,36.7-42.7
					c16.4-7.3,40.6-11.8,72.8-13.5v-11.8h28.6v11.8c28.2,1.4,50.6,5.6,67.2,12.6c21.2,9,34,21.3,38.3,36.9l-50.2,3.8
					c-2.9-9.7-8.9-17.1-17.9-22.3c-9.1-5.2-21.5-8.6-37.4-10.2v71.3c24.5,3.1,40.6,5.5,48.5,7.3c15.1,3.4,27.4,7.5,36.9,12.4
					c9.5,4.9,16.9,10.6,22,17.3c5.1,6.7,7.7,13.9,7.7,21.7c0,17.1-10.7,31.4-32.1,42.9s-49.1,17.6-83.1,18.4v25H5859.7z
					 M5859.7,3501.1c-18.9,1.5-33.8,5.3-44.6,11.5c-10.9,6.2-16.3,13.6-16.3,22.1c0,8.4,4.6,15.5,13.9,21.2
					c9.3,5.7,24.9,10.2,47.1,13.6V3501.1z M5888.3,3671.9c18.9-1.2,34.5-5.4,46.8-12.5c12.3-7.1,18.5-16,18.5-26.5
					c0-9-4.4-16.2-13.1-21.6c-8.7-5.4-26.1-10.3-52.2-14.6V3671.9z"/>
			</g>
		</g>
		<g>
			<path class="st2" d="M2027.7,4545.5c-20.7-28.1-50.7-54.3-89.9-77.1c-166.2-96.7-438.5-95.7-605.2,2.3
				c-35.7,21-63.7,44.7-84.1,70l-40.7-0.3v99.4c-0.3,5.1-0.3,10.2,0,15.3v0l0,0c3.2,61.2,44.8,121.4,124.8,167.3
				c166.7,95.5,439,94.4,605.2-2.3c78.4-45.6,119.7-104.9,124.2-165h0.4v-109.4L2027.7,4545.5z"/>
			<path class="st3" d="M1937.8,4369.2c-166.2-96.7-438.5-95.7-605.2,2.3c-166.7,98-166.7,256.3,0,351.7
				c166.7,95.5,439,94.4,605.2-2.3C2104,4624.2,2104,4465.9,1937.8,4369.2z"/>
			<path class="st4" d="M1911.4,4384.6c-151.7-88.3-400.2-87.3-552.3,2.1c-152.1,89.4-152.1,233.9,0,321
				c152.1,87.1,400.7,86.2,552.3-2.1C2063,4617.3,2063,4472.9,1911.4,4384.6z"/>
			<path class="st5" d="M1255.5,4495.4l616,230.4c0,0,54.3-25.6,94.3-60l-652.5-244.5C1313.3,4421.3,1279.4,4440.3,1255.5,4495.4z"
				/>
			<path class="st5" d="M1359.1,4386.7l644.9,232.5c0,0,15.7-30.1,18.1-45.7l-608.8-213.5
				C1413.3,4360.1,1376.8,4375.6,1359.1,4386.7z"/>
			<g>
				<path class="st6" d="M1622.1,4670.2v-24.7c-24.3-1.6-44-4.3-59.2-8.3c-15.2-4-28.3-10.4-39.4-19.3
					c-11.1-8.9-17.5-19.7-19.3-32.5l48.8-4.7c3.8,13.3,10.4,23,20,29.3c13.7,8.8,30,13.7,49.1,14.7v-78.7
					c-20-1.9-40.4-5.9-61.2-11.8c-15.5-4.4-27.4-10.5-35.7-18.3c-8.4-7.8-12.5-16.6-12.5-26.5c0-17.6,12.2-31.8,36.7-42.7
					c16.4-7.3,40.6-11.8,72.8-13.5v-11.8h28.6v11.8c28.2,1.4,50.6,5.6,67.2,12.6c21.2,9,34,21.3,38.3,36.9l-50.2,3.8
					c-2.9-9.7-8.9-17.1-17.9-22.3c-9.1-5.2-21.5-8.6-37.4-10.2v71.3c24.5,3.1,40.6,5.5,48.5,7.3c15.1,3.4,27.4,7.5,36.9,12.4
					c9.5,4.9,16.9,10.6,22,17.3c5.1,6.7,7.7,13.9,7.7,21.7c0,17.1-10.7,31.4-32.1,42.9c-21.4,11.4-49.1,17.6-83.1,18.4v25H1622.1z
					 M1622.1,4453.7c-18.9,1.5-33.8,5.3-44.6,11.5c-10.9,6.2-16.3,13.6-16.3,22.1c0,8.4,4.6,15.5,13.9,21.2
					c9.3,5.7,24.9,10.2,47.1,13.6V4453.7z M1650.7,4624.6c18.9-1.2,34.5-5.4,46.8-12.5c12.3-7.1,18.5-16,18.5-26.5
					c0-9-4.4-16.2-13.1-21.6s-26.1-10.3-52.2-14.6V4624.6z"/>
			</g>
		</g>
		<g>
			<path class="st2" d="M2005.8,4346.7c-20.7-28.1-50.7-54.3-89.9-77.1c-166.2-96.7-438.5-95.7-605.2,2.3
				c-35.7,21-63.7,44.7-84.1,70l-40.7-0.3v99.4c-0.3,5.1-0.3,10.2,0,15.3v0l0,0c3.2,61.2,44.8,121.4,124.8,167.3
				c166.7,95.5,439,94.4,605.2-2.3c78.4-45.6,119.7-104.9,124.2-165h0.4v-109.4L2005.8,4346.7z"/>
			<path class="st3" d="M1915.9,4170.3c-166.2-96.7-438.5-95.7-605.2,2.3c-166.7,98-166.7,256.3,0,351.7
				c166.7,95.5,439,94.4,605.2-2.3C2082.1,4425.4,2082.1,4267.1,1915.9,4170.3z"/>
			<path class="st4" d="M1889.4,4185.8c-151.7-88.3-400.2-87.3-552.3,2.1c-152.1,89.4-152.1,233.9,0,321
				c152.1,87.1,400.7,86.2,552.3-2.1C2041.1,4418.5,2041.1,4274.1,1889.4,4185.8z"/>
			<path class="st5" d="M1233.6,4296.6l616,230.4c0,0,54.3-25.6,94.3-60l-652.5-244.5C1291.4,4222.5,1257.5,4241.4,1233.6,4296.6z"
				/>
			<path class="st5" d="M1337.1,4187.9l644.9,232.5c0,0,15.7-30.1,18.1-45.7l-608.8-213.5
				C1391.4,4161.3,1354.9,4176.7,1337.1,4187.9z"/>
			<g>
				<path class="st6" d="M1600.2,4471.3v-24.7c-24.3-1.6-44-4.3-59.2-8.3s-28.3-10.4-39.4-19.3s-17.5-19.7-19.3-32.6l48.8-4.7
					c3.8,13.3,10.4,23,20,29.3c13.7,8.8,30,13.7,49.1,14.7V4347c-20-1.9-40.4-5.9-61.2-11.8c-15.5-4.4-27.4-10.5-35.7-18.3
					s-12.5-16.6-12.5-26.5c0-17.6,12.2-31.8,36.7-42.7c16.4-7.3,40.6-11.8,72.8-13.5v-11.8h28.6v11.8c28.2,1.4,50.6,5.6,67.2,12.6
					c21.2,9,34,21.3,38.3,36.9l-50.2,3.8c-2.9-9.7-8.9-17.1-17.9-22.3c-9.1-5.2-21.5-8.6-37.4-10.2v71.3c24.5,3.1,40.6,5.5,48.5,7.3
					c15.1,3.4,27.4,7.5,36.9,12.4c9.5,4.9,16.9,10.6,22,17.3c5.1,6.7,7.7,13.9,7.7,21.7c0,17.1-10.7,31.4-32.1,42.9
					c-21.4,11.4-49.1,17.6-83.1,18.4v25H1600.2z M1600.2,4254.9c-18.9,1.5-33.8,5.3-44.6,11.5c-10.9,6.2-16.3,13.6-16.3,22.1
					c0,8.4,4.6,15.5,13.9,21.2c9.3,5.7,24.9,10.2,47.1,13.6V4254.9z M1628.8,4425.7c18.9-1.2,34.5-5.4,46.8-12.5
					c12.3-7.1,18.5-16,18.5-26.5c0-9-4.4-16.2-13.1-21.6c-8.7-5.4-26.1-10.3-52.2-14.6V4425.7z"/>
			</g>
		</g>
		<g>
			<path class="st2" d="M2083.2,4187.9c-20.7-28.1-50.7-54.3-89.9-77.1c-166.2-96.7-438.5-95.7-605.2,2.3
				c-35.7,21-63.7,44.7-84.1,70l-40.7-0.3v99.4c-0.3,5.1-0.3,10.2,0,15.3v0l0,0c3.2,61.2,44.8,121.4,124.8,167.3
				c166.7,95.5,439,94.4,605.2-2.3c78.4-45.6,119.7-104.9,124.2-165h0.4v-109.4L2083.2,4187.9z"/>
			<path class="st3" d="M1993.4,4011.6c-166.2-96.7-438.5-95.7-605.2,2.3c-166.7,98-166.7,256.3,0,351.7
				c166.7,95.5,439,94.4,605.2-2.3S2159.5,4108.3,1993.4,4011.6z"/>
			<path class="st4" d="M1966.9,4027c-151.7-88.3-400.2-87.3-552.3,2.1s-152.1,233.9,0,321c152.1,87.1,400.7,86.2,552.3-2.1
				C2118.5,4259.7,2118.5,4115.3,1966.9,4027z"/>
			<path class="st5" d="M1311,4137.8l616,230.4c0,0,54.3-25.6,94.3-60l-652.5-244.5C1368.8,4063.7,1334.9,4082.7,1311,4137.8z"/>
			<path class="st5" d="M1414.6,4029.1l644.9,232.5c0,0,15.7-30.1,18.1-45.7l-608.8-213.5C1468.8,4002.5,1432.3,4018,1414.6,4029.1z
				"/>
			<g>
				<path class="st6" d="M1677.6,4312.6v-24.7c-24.3-1.6-44-4.3-59.2-8.3c-15.2-4-28.3-10.4-39.4-19.3s-17.5-19.7-19.3-32.5
					l48.8-4.7c3.8,13.3,10.4,23,20,29.3c13.7,8.8,30,13.7,49.1,14.7v-78.7c-20-1.9-40.4-5.9-61.2-11.8
					c-15.5-4.4-27.4-10.5-35.7-18.3c-8.4-7.8-12.5-16.6-12.5-26.5c0-17.6,12.2-31.8,36.7-42.7c16.4-7.3,40.6-11.8,72.8-13.5v-11.8
					h28.6v11.8c28.2,1.4,50.6,5.6,67.2,12.6c21.2,9,34,21.3,38.3,36.9l-50.2,3.8c-2.9-9.7-8.9-17.1-17.9-22.3
					c-9.1-5.2-21.5-8.6-37.4-10.2v71.3c24.5,3.1,40.6,5.5,48.5,7.3c15.1,3.4,27.4,7.5,36.9,12.4c9.5,4.9,16.9,10.6,22,17.3
					c5.1,6.7,7.7,13.9,7.7,21.7c0,17.1-10.7,31.4-32.1,42.9c-21.4,11.4-49.1,17.6-83.1,18.4v25H1677.6z M1677.6,4096.1
					c-18.9,1.5-33.8,5.3-44.6,11.5c-10.9,6.2-16.3,13.6-16.3,22.1c0,8.4,4.6,15.5,13.9,21.2c9.3,5.7,24.9,10.2,47.1,13.6V4096.1z
					 M1706.2,4267c18.9-1.2,34.5-5.4,46.8-12.5c12.3-7.1,18.5-16,18.5-26.5c0-9-4.4-16.2-13.1-21.6c-8.7-5.4-26.1-10.3-52.2-14.6
					V4267z"/>
			</g>
		</g>
		<g>
			<path class="st2" d="M2058.8,4030.1c-20.7-28.1-50.7-54.3-89.9-77.1c-166.2-96.7-438.5-95.7-605.2,2.3
				c-35.7,21-63.7,44.7-84.1,70l-40.7-0.3v99.4c-0.3,5.1-0.3,10.2,0,15.3v0l0,0c3.2,61.2,44.8,121.4,124.8,167.3
				c166.7,95.5,439,94.4,605.2-2.3c78.4-45.6,119.7-104.9,124.2-165h0.4v-109.4L2058.8,4030.1z"/>
			<path class="st3" d="M1969,3853.7c-166.2-96.7-438.5-95.7-605.2,2.3c-166.7,98-166.7,256.3,0,351.7s439,94.4,605.2-2.3
				C2135.2,4108.7,2135.2,3950.5,1969,3853.7z"/>
			<path class="st4" d="M1942.5,3869.2c-151.7-88.3-400.2-87.3-552.3,2.1s-152.1,233.9,0,321c152.1,87.1,400.7,86.2,552.3-2.1
				C2094.2,4101.9,2094.2,3957.4,1942.5,3869.2z"/>
			<path class="st5" d="M1286.6,3980l616,230.4c0,0,54.3-25.6,94.3-60l-652.5-244.5C1344.5,3905.8,1310.5,3924.8,1286.6,3980z"/>
			<path class="st5" d="M1390.2,3871.3l644.9,232.5c0,0,15.7-30.1,18.1-45.7l-608.8-213.5
				C1444.4,3844.6,1407.9,3860.1,1390.2,3871.3z"/>
			<g>
				<path class="st6" d="M1653.2,4154.7V4130c-24.3-1.6-44-4.3-59.2-8.3c-15.2-4-28.3-10.4-39.4-19.3c-11.1-8.9-17.5-19.7-19.3-32.6
					l48.8-4.7c3.8,13.3,10.4,23,20,29.3c13.7,8.8,30,13.7,49.1,14.7v-78.7c-20-1.9-40.4-5.9-61.2-11.8
					c-15.5-4.4-27.4-10.5-35.7-18.3c-8.4-7.8-12.5-16.6-12.5-26.5c0-17.6,12.2-31.8,36.7-42.7c16.4-7.3,40.6-11.8,72.8-13.5v-11.8
					h28.6v11.8c28.2,1.4,50.6,5.6,67.2,12.6c21.2,9,34,21.3,38.3,36.9l-50.2,3.8c-2.9-9.7-8.9-17.1-17.9-22.3
					c-9.1-5.2-21.5-8.6-37.4-10.2v71.3c24.5,3.1,40.6,5.5,48.5,7.3c15.1,3.4,27.4,7.5,36.9,12.4c9.5,4.9,16.9,10.6,22,17.3
					c5.1,6.7,7.7,13.9,7.7,21.7c0,17.1-10.7,31.4-32.1,42.9c-21.4,11.4-49.1,17.6-83.1,18.4v25H1653.2z M1653.2,3938.3
					c-18.9,1.5-33.8,5.3-44.6,11.5c-10.9,6.2-16.3,13.6-16.3,22.1c0,8.4,4.6,15.5,13.9,21.2c9.3,5.7,24.9,10.2,47.1,13.6V3938.3z
					 M1681.8,4109.1c18.9-1.2,34.5-5.4,46.8-12.5c12.3-7.1,18.5-16,18.5-26.5c0-9-4.4-16.2-13.1-21.6c-8.7-5.4-26.1-10.3-52.2-14.6
					V4109.1z"/>
			</g>
		</g>
		<g>
			<path class="st2" d="M6324.6,3384.3c-20.7-28.1-50.7-54.3-89.9-77.1c-166.2-96.7-438.5-95.7-605.2,2.3
				c-35.7,21-63.7,44.7-84.1,70l-40.7-0.3v99.4c-0.3,5.1-0.3,10.2,0,15.3v0l0,0c3.2,61.2,44.8,121.4,124.8,167.3
				c166.7,95.5,439,94.4,605.2-2.3c78.4-45.6,119.7-104.9,124.2-165h0.4v-109.4L6324.6,3384.3z"/>
			<path class="st3" d="M6234.7,3208c-166.2-96.7-438.5-95.7-605.2,2.3s-166.7,256.3,0,351.7s439,94.4,605.2-2.3
				S6400.9,3304.7,6234.7,3208z"/>
			<path class="st4" d="M6208.2,3223.4c-151.7-88.3-400.2-87.3-552.3,2.1c-152.1,89.4-152.1,233.9,0,321
				c152.1,87.1,400.7,86.2,552.3-2.1C6359.9,3456.1,6359.9,3311.7,6208.2,3223.4z"/>
			<path class="st5" d="M5552.4,3334.2l616,230.4c0,0,54.3-25.6,94.3-60l-652.5-244.5C5610.2,3260.1,5576.3,3279,5552.4,3334.2z"/>
			<path class="st5" d="M5655.9,3225.5l644.9,232.5c0,0,15.7-30.1,18.1-45.7l-608.8-213.5
				C5710.2,3198.9,5673.7,3214.3,5655.9,3225.5z"/>
			<g>
				<path class="st6" d="M5919,3508.9v-24.7c-24.3-1.6-44-4.3-59.2-8.3s-28.3-10.4-39.4-19.3c-11.1-8.9-17.5-19.7-19.3-32.6
					l48.8-4.7c3.8,13.3,10.4,23,20,29.3c13.7,8.8,30,13.7,49.1,14.7v-78.7c-20-1.9-40.4-5.9-61.2-11.8
					c-15.5-4.4-27.4-10.5-35.7-18.3s-12.5-16.6-12.5-26.5c0-17.6,12.2-31.8,36.7-42.7c16.4-7.3,40.6-11.8,72.8-13.5v-11.8h28.6v11.8
					c28.2,1.4,50.6,5.6,67.2,12.6c21.2,9,34,21.3,38.3,36.9l-50.2,3.8c-2.9-9.7-8.9-17.1-17.9-22.3c-9.1-5.2-21.5-8.6-37.4-10.2
					v71.3c24.5,3.1,40.6,5.5,48.5,7.3c15.1,3.4,27.4,7.5,36.9,12.4c9.5,4.9,16.9,10.6,22,17.3s7.7,13.9,7.7,21.7
					c0,17.1-10.7,31.4-32.1,42.9c-21.4,11.4-49.1,17.6-83.1,18.4v25H5919z M5919,3292.5c-18.9,1.5-33.8,5.3-44.6,11.5
					c-10.9,6.2-16.3,13.6-16.3,22.1c0,8.4,4.6,15.5,13.9,21.2c9.3,5.7,24.9,10.2,47.1,13.6V3292.5z M5947.6,3463.3
					c18.9-1.2,34.5-5.4,46.8-12.5c12.3-7.1,18.5-16,18.5-26.5c0-9-4.4-16.2-13.1-21.6c-8.7-5.4-26.1-10.3-52.2-14.6V3463.3z"/>
			</g>
		</g>
		<g>
			<path class="st2" d="M6276.3,3222.8c-20.7-28.1-50.7-54.3-89.9-77.1c-166.2-96.7-438.5-95.7-605.2,2.3
				c-35.7,21-63.7,44.7-84.1,70l-40.7-0.3v99.4c-0.3,5.1-0.3,10.2,0,15.3v0l0,0c3.2,61.2,44.8,121.4,124.8,167.3
				c166.7,95.5,439,94.4,605.2-2.3c78.4-45.6,119.7-104.9,124.2-165h0.4v-109.4L6276.3,3222.8z"/>
			<path class="st3" d="M6186.4,3046.5c-166.2-96.7-438.5-95.7-605.2,2.3c-166.7,98-166.7,256.3,0,351.7s439,94.4,605.2-2.3
				C6352.6,3301.5,6352.6,3143.2,6186.4,3046.5z"/>
			<path class="st4" d="M6159.9,3061.9c-151.7-88.3-400.2-87.3-552.3,2.1c-152.1,89.4-152.1,233.9,0,321
				c152.1,87.1,400.7,86.2,552.3-2.1C6311.6,3294.7,6311.6,3150.2,6159.9,3061.9z"/>
			<path class="st5" d="M5504.1,3172.7l616,230.4c0,0,54.3-25.6,94.3-60l-652.5-244.5C5561.9,3098.6,5528,3117.6,5504.1,3172.7z"/>
			<path class="st5" d="M5607.6,3064l644.9,232.5c0,0,15.7-30.1,18.1-45.7l-608.8-213.5C5661.9,3037.4,5625.4,3052.9,5607.6,3064z"
				/>
			<g>
				<path class="st6" d="M5870.7,3347.5v-24.7c-24.3-1.6-44-4.3-59.2-8.3c-15.2-4-28.3-10.4-39.4-19.3
					c-11.1-8.9-17.5-19.7-19.3-32.6l48.8-4.7c3.8,13.3,10.4,23,20,29.3c13.7,8.8,30,13.7,49.1,14.7v-78.7
					c-20-1.9-40.4-5.9-61.2-11.8c-15.5-4.4-27.4-10.5-35.7-18.3c-8.4-7.8-12.5-16.6-12.5-26.5c0-17.6,12.2-31.8,36.7-42.7
					c16.4-7.3,40.6-11.8,72.8-13.5v-11.8h28.6v11.8c28.2,1.4,50.6,5.6,67.2,12.6c21.2,9,34,21.3,38.3,36.9l-50.2,3.8
					c-2.9-9.7-8.9-17.1-17.9-22.3c-9.1-5.2-21.5-8.6-37.4-10.2v71.3c24.5,3.1,40.6,5.5,48.5,7.3c15.1,3.4,27.4,7.5,36.9,12.4
					s16.9,10.6,22,17.3s7.7,13.9,7.7,21.7c0,17.1-10.7,31.4-32.1,42.9c-21.4,11.4-49.1,17.6-83.1,18.4v25H5870.7z M5870.7,3131
					c-18.9,1.5-33.8,5.3-44.6,11.5s-16.3,13.6-16.3,22.1c0,8.4,4.6,15.5,13.9,21.2c9.3,5.7,24.9,10.2,47.1,13.6V3131z
					 M5899.2,3301.9c18.9-1.2,34.5-5.4,46.8-12.5c12.3-7.1,18.5-16,18.5-26.5c0-9-4.4-16.2-13.1-21.6c-8.7-5.4-26.1-10.3-52.2-14.6
					V3301.9z"/>
			</g>
		</g>
		<g>
			<path class="st2" d="M6335.6,3062.5c-20.7-28.1-50.7-54.3-89.9-77.1c-166.2-96.7-438.5-95.7-605.2,2.3
				c-35.7,21-63.7,44.7-84.1,70l-40.7-0.3v99.4c-0.3,5.1-0.3,10.2,0,15.3v0l0,0c3.2,61.2,44.8,121.4,124.8,167.3
				c166.7,95.5,439,94.4,605.2-2.3c78.4-45.6,119.7-104.9,124.2-165h0.4v-109.4L6335.6,3062.5z"/>
			<path class="st3" d="M6245.7,2886.2c-166.2-96.7-438.5-95.7-605.2,2.3c-166.7,98-166.7,256.3,0,351.7
				c166.7,95.5,439,94.4,605.2-2.3C6411.9,3141.2,6411.9,2982.9,6245.7,2886.2z"/>
			<path class="st4" d="M6219.2,2901.6c-151.7-88.3-400.2-87.3-552.3,2.1c-152.1,89.4-152.1,233.9,0,321s400.7,86.2,552.3-2.1
				S6370.9,2989.9,6219.2,2901.6z"/>
			<path class="st5" d="M5563.4,3012.5l616,230.4c0,0,54.3-25.6,94.3-60l-652.5-244.5C5621.2,2938.3,5587.3,2957.3,5563.4,3012.5z"
				/>
			<path class="st5" d="M5666.9,2903.7l644.9,232.5c0,0,15.7-30.1,18.1-45.7l-608.8-213.5
				C5721.2,2877.1,5684.7,2892.6,5666.9,2903.7z"/>
			<g>
				<path class="st6" d="M5930,3187.2v-24.7c-24.3-1.6-44-4.3-59.2-8.3s-28.3-10.4-39.4-19.3c-11.1-8.9-17.5-19.7-19.3-32.6
					l48.8-4.7c3.8,13.3,10.4,23,20,29.3c13.7,8.8,30,13.7,49.1,14.7v-78.7c-20-1.9-40.4-5.9-61.2-11.8
					c-15.5-4.4-27.4-10.5-35.7-18.3c-8.4-7.8-12.5-16.6-12.5-26.5c0-17.6,12.2-31.8,36.7-42.7c16.4-7.3,40.6-11.8,72.8-13.5v-11.8
					h28.6v11.8c28.2,1.4,50.6,5.6,67.2,12.6c21.2,9,34,21.3,38.3,36.9l-50.2,3.8c-2.9-9.7-8.9-17.1-17.9-22.3
					c-9.1-5.2-21.5-8.6-37.4-10.2v71.3c24.5,3.1,40.6,5.5,48.5,7.3c15.1,3.4,27.4,7.5,36.9,12.4c9.5,4.9,16.9,10.6,22,17.3
					c5.1,6.7,7.7,13.9,7.7,21.7c0,17.1-10.7,31.4-32.1,42.9s-49.1,17.6-83.1,18.4v25H5930z M5930,2970.7
					c-18.9,1.5-33.8,5.3-44.6,11.5c-10.9,6.2-16.3,13.6-16.3,22.1c0,8.4,4.6,15.5,13.9,21.2c9.3,5.7,24.9,10.2,47.1,13.6V2970.7z
					 M5958.5,3141.6c18.9-1.2,34.5-5.4,46.8-12.5c12.3-7.1,18.5-16,18.5-26.5c0-9-4.4-16.2-13.1-21.6c-8.7-5.4-26.1-10.3-52.2-14.6
					V3141.6z"/>
			</g>
		</g>
		<g>
			<path class="st2" d="M6313.7,2863.7c-20.7-28.1-50.7-54.3-89.9-77.1c-166.2-96.7-438.5-95.7-605.2,2.3
				c-35.7,21-63.7,44.7-84.1,70l-40.7-0.3v99.4c-0.3,5.1-0.3,10.2,0,15.3v0l0,0c3.2,61.2,44.8,121.4,124.8,167.3
				c166.7,95.5,439,94.4,605.2-2.3c78.4-45.6,119.7-104.9,124.2-165h0.4v-109.4L6313.7,2863.7z"/>
			<path class="st3" d="M6223.8,2687.4c-166.2-96.7-438.5-95.7-605.2,2.3c-166.7,98-166.7,256.3,0,351.7
				c166.7,95.5,439,94.4,605.2-2.3C6390,2942.4,6390,2784.1,6223.8,2687.4z"/>
			<path class="st4" d="M6197.3,2702.8c-151.7-88.3-400.2-87.3-552.3,2.1c-152.1,89.4-152.1,233.9,0,321s400.7,86.2,552.3-2.1
				S6349,2791.1,6197.3,2702.8z"/>
			<path class="st5" d="M5541.4,2813.6l616,230.4c0,0,54.3-25.6,94.3-60l-652.5-244.5C5599.3,2739.5,5565.4,2758.5,5541.4,2813.6z"
				/>
			<path class="st5" d="M5645,2704.9l644.9,232.5c0,0,15.7-30.1,18.1-45.7l-608.8-213.5C5699.2,2678.3,5662.7,2693.8,5645,2704.9z"
				/>
			<g>
				<path class="st6" d="M5908,2988.4v-24.7c-24.3-1.6-44-4.3-59.2-8.3s-28.3-10.4-39.4-19.3c-11.1-8.9-17.5-19.7-19.3-32.6
					l48.8-4.7c3.8,13.3,10.4,23,20,29.3c13.7,8.8,30,13.7,49.1,14.7v-78.7c-20-1.9-40.4-5.9-61.2-11.8
					c-15.5-4.4-27.4-10.5-35.7-18.3c-8.4-7.8-12.5-16.6-12.5-26.5c0-17.6,12.2-31.8,36.7-42.7c16.4-7.3,40.6-11.8,72.8-13.5v-11.8
					h28.6v11.8c28.2,1.4,50.6,5.6,67.1,12.6c21.2,9,34,21.3,38.3,36.9l-50.2,3.8c-2.9-9.7-8.9-17.1-17.9-22.3
					c-9.1-5.2-21.5-8.6-37.4-10.2v71.3c24.5,3.1,40.6,5.5,48.5,7.3c15.1,3.4,27.4,7.5,36.9,12.4s16.9,10.6,22,17.3
					c5.1,6.7,7.7,13.9,7.7,21.7c0,17.1-10.7,31.4-32.1,42.9s-49.1,17.6-83.1,18.4v25H5908z M5908,2771.9
					c-18.9,1.5-33.8,5.3-44.6,11.5c-10.9,6.2-16.3,13.6-16.3,22.1c0,8.4,4.6,15.5,13.9,21.2c9.3,5.7,24.9,10.2,47.1,13.6V2771.9z
					 M5936.6,2942.8c18.9-1.2,34.5-5.4,46.8-12.5c12.3-7.1,18.5-16,18.5-26.5c0-9-4.4-16.2-13.1-21.6c-8.7-5.4-26.1-10.3-52.2-14.6
					V2942.8z"/>
			</g>
		</g>
		<g>
			<path class="st2" d="M6372.9,2655.1c-20.7-28.1-50.7-54.3-89.9-77.1c-166.2-96.7-438.5-95.7-605.2,2.3
				c-35.7,21-63.7,44.7-84.1,70l-40.7-0.3v99.4c-0.3,5.1-0.3,10.2,0,15.3v0l0,0c3.2,61.2,44.8,121.4,124.8,167.3
				c166.7,95.5,439,94.4,605.2-2.3c78.4-45.6,119.7-104.9,124.2-165h0.4v-109.4L6372.9,2655.1z"/>
			<path class="st3" d="M6283.1,2478.8c-166.2-96.7-438.5-95.7-605.2,2.3c-166.7,98-166.7,256.3,0,351.7
				c166.7,95.5,439,94.4,605.2-2.3C6449.2,2733.8,6449.2,2575.5,6283.1,2478.8z"/>
			<path class="st4" d="M6256.6,2494.2c-151.7-88.3-400.2-87.3-552.3,2.1c-152.1,89.4-152.1,233.9,0,321s400.7,86.2,552.3-2.1
				S6408.2,2582.5,6256.6,2494.2z"/>
			<path class="st5" d="M5600.7,2605l616,230.4c0,0,54.3-25.6,94.3-60l-652.5-244.5C5658.6,2530.9,5624.6,2549.9,5600.7,2605z"/>
			<path class="st5" d="M5704.3,2496.3l644.9,232.5c0,0,15.7-30.1,18.1-45.7l-608.8-213.5C5758.5,2469.7,5722,2485.2,5704.3,2496.3z
				"/>
			<g>
				<path class="st6" d="M5967.3,2779.8V2755c-24.3-1.6-44-4.3-59.2-8.3s-28.3-10.4-39.4-19.3c-11.1-8.9-17.5-19.7-19.3-32.6
					l48.8-4.7c3.8,13.3,10.4,23,20,29.3c13.7,8.8,30,13.7,49.1,14.7v-78.7c-20-1.9-40.4-5.9-61.2-11.8
					c-15.5-4.4-27.4-10.5-35.7-18.3c-8.4-7.8-12.5-16.6-12.5-26.5c0-17.6,12.2-31.8,36.7-42.7c16.4-7.3,40.6-11.8,72.8-13.5v-11.8
					h28.6v11.8c28.2,1.4,50.6,5.6,67.1,12.6c21.2,9,34,21.3,38.3,36.9l-50.2,3.8c-2.9-9.7-8.9-17.1-17.9-22.3
					c-9.1-5.2-21.5-8.6-37.4-10.2v71.3c24.5,3.1,40.6,5.5,48.5,7.3c15.1,3.4,27.4,7.5,36.9,12.4s16.9,10.6,22,17.3
					c5.1,6.7,7.7,13.9,7.7,21.7c0,17.1-10.7,31.4-32.1,42.9s-49.1,17.6-83.1,18.4v25H5967.3z M5967.3,2563.3
					c-18.9,1.5-33.8,5.3-44.6,11.5c-10.9,6.2-16.3,13.6-16.3,22.1c0,8.4,4.6,15.5,13.9,21.2c9.3,5.7,24.9,10.2,47.1,13.6V2563.3z
					 M5995.9,2734.2c18.9-1.2,34.5-5.4,46.8-12.5s18.5-16,18.5-26.5c0-9-4.4-16.2-13.1-21.6c-8.7-5.4-26.1-10.3-52.2-14.6V2734.2z"
					/>
			</g>
		</g>
		<g>
			<g>
				<path class="st2" d="M2879.8,4993.3c-20.7-28.1-50.7-54.3-89.9-77.1c-166.2-96.7-438.5-95.7-605.2,2.3
					c-35.7,21-63.7,44.7-84.1,70l-40.7-0.3v99.4c-0.3,5.1-0.3,10.2,0,15.3v0l0,0c3.2,61.2,44.8,121.4,124.8,167.3
					c166.7,95.5,439,94.4,605.2-2.3c78.4-45.6,119.7-104.9,124.2-165h0.4v-109.4L2879.8,4993.3z"/>
				<path class="st3" d="M2790,4816.9c-166.2-96.7-438.5-95.7-605.2,2.3c-166.7,98-166.7,256.3,0,351.7
					c166.7,95.5,439,94.4,605.2-2.3C2956.1,5072,2956.1,4913.7,2790,4816.9z"/>
				<path class="st4" d="M2763.5,4832.4c-151.7-88.3-400.2-87.3-552.3,2.1s-152.1,233.9,0,321s400.7,86.2,552.3-2.1
					C2915.1,5065.1,2915.1,4920.7,2763.5,4832.4z"/>
				<path class="st5" d="M2107.6,4943.2l616,230.4c0,0,54.3-25.6,94.3-60l-652.5-244.5C2165.5,4869.1,2131.5,4888,2107.6,4943.2z"/>
				<path class="st5" d="M2211.2,4834.5l644.9,232.5c0,0,15.7-30.1,18.1-45.7l-608.8-213.5
					C2265.4,4807.9,2228.9,4823.3,2211.2,4834.5z"/>
				<g>
					<path class="st6" d="M2474.2,5117.9v-24.7c-24.3-1.6-44-4.3-59.2-8.3s-28.3-10.4-39.4-19.3c-11.1-8.9-17.5-19.7-19.3-32.6
						l48.8-4.7c3.8,13.3,10.4,23,20,29.3c13.7,8.8,30,13.7,49.1,14.7v-78.7c-20-1.9-40.4-5.9-61.2-11.8
						c-15.5-4.4-27.4-10.5-35.7-18.3c-8.4-7.8-12.5-16.6-12.5-26.5c0-17.6,12.2-31.8,36.7-42.7c16.4-7.3,40.6-11.8,72.8-13.5v-11.8
						h28.6v11.8c28.2,1.4,50.6,5.6,67.2,12.6c21.2,9,34,21.3,38.3,36.9l-50.2,3.8c-2.9-9.7-8.9-17.1-17.9-22.3
						c-9.1-5.2-21.5-8.6-37.4-10.2v71.3c24.5,3.1,40.6,5.5,48.5,7.3c15.1,3.4,27.4,7.5,36.9,12.4c9.5,4.9,16.9,10.6,22,17.3
						c5.1,6.7,7.7,13.9,7.7,21.7c0,17.1-10.7,31.4-32.1,42.9c-21.4,11.4-49.1,17.6-83.1,18.4v25H2474.2z M2474.2,4901.5
						c-18.9,1.5-33.8,5.3-44.6,11.5c-10.9,6.2-16.3,13.6-16.3,22.1c0,8.4,4.6,15.5,13.9,21.2c9.3,5.7,24.9,10.2,47.1,13.6V4901.5z
						 M2502.8,5072.3c18.9-1.2,34.5-5.4,46.8-12.5s18.5-16,18.5-26.5c0-9-4.4-16.2-13.1-21.6c-8.7-5.4-26.1-10.3-52.2-14.6V5072.3z"
						/>
				</g>
			</g>
			<g>
				<path class="st2" d="M2857.9,4794.4c-20.7-28.1-50.7-54.3-89.9-77.1c-166.2-96.7-438.5-95.7-605.2,2.3
					c-35.7,21-63.7,44.7-84.1,70l-40.7-0.3v99.4c-0.3,5.1-0.3,10.2,0,15.3v0l0,0c3.2,61.2,44.8,121.4,124.8,167.3
					c166.7,95.5,439,94.4,605.2-2.3c78.4-45.6,119.7-104.9,124.2-165h0.4v-109.4L2857.9,4794.4z"/>
				<path class="st3" d="M2768,4618.1c-166.2-96.7-438.5-95.7-605.2,2.3c-166.7,98-166.7,256.3,0,351.7
					c166.7,95.5,439,94.4,605.2-2.3C2934.2,4873.1,2934.2,4714.8,2768,4618.1z"/>
				<path class="st4" d="M2741.6,4633.6c-151.7-88.3-400.2-87.3-552.3,2.1c-152.1,89.4-152.1,233.9,0,321
					c152.1,87.1,400.7,86.2,552.3-2.1C2893.2,4866.3,2893.2,4721.8,2741.6,4633.6z"/>
				<path class="st5" d="M2085.7,4744.4l616,230.4c0,0,54.3-25.6,94.3-60l-652.5-244.5C2143.5,4670.2,2109.6,4689.2,2085.7,4744.4z"
					/>
				<path class="st5" d="M2189.3,4635.6l644.9,232.5c0,0,15.7-30.1,18.1-45.7L2243.5,4609C2243.5,4609,2207,4624.5,2189.3,4635.6z"
					/>
				<g>
					<path class="st6" d="M2452.3,4919.1v-24.7c-24.3-1.6-44-4.3-59.2-8.3c-15.2-4-28.3-10.4-39.4-19.3
						c-11.1-8.9-17.5-19.7-19.3-32.6l48.8-4.7c3.8,13.3,10.4,23,20,29.3c13.7,8.8,30,13.7,49.1,14.7v-78.7
						c-20-1.9-40.4-5.9-61.2-11.8c-15.5-4.4-27.4-10.5-35.7-18.3c-8.4-7.8-12.5-16.6-12.5-26.5c0-17.6,12.2-31.8,36.7-42.7
						c16.4-7.3,40.6-11.8,72.8-13.5v-11.8h28.6v11.8c28.2,1.4,50.6,5.6,67.2,12.6c21.2,9,34,21.3,38.3,36.9l-50.2,3.8
						c-2.9-9.7-8.9-17.1-17.9-22.3s-21.5-8.6-37.4-10.2v71.3c24.5,3.1,40.6,5.5,48.5,7.3c15.1,3.4,27.4,7.5,36.9,12.4
						c9.5,4.9,16.9,10.6,22,17.3c5.1,6.7,7.7,13.9,7.7,21.7c0,17.1-10.7,31.4-32.1,42.9s-49.1,17.6-83.1,18.4v25H2452.3z
						 M2452.3,4702.6c-18.9,1.5-33.8,5.3-44.6,11.5c-10.9,6.2-16.3,13.6-16.3,22.1c0,8.4,4.6,15.5,13.9,21.2s24.9,10.2,47.1,13.6
						V4702.6z M2480.9,4873.5c18.9-1.2,34.5-5.4,46.8-12.5c12.3-7.1,18.5-16,18.5-26.5c0-9-4.4-16.2-13.1-21.6
						c-8.7-5.4-26.1-10.3-52.2-14.6V4873.5z"/>
				</g>
			</g>
			<g>
				<path class="st2" d="M2917.2,4585.9c-20.7-28.1-50.7-54.3-89.9-77.1c-166.2-96.7-438.5-95.7-605.2,2.3
					c-35.7,21-63.7,44.7-84.1,70l-40.7-0.3v99.4c-0.3,5.1-0.3,10.2,0,15.3v0l0,0c3.2,61.2,44.8,121.4,124.8,167.3
					c166.7,95.5,439,94.4,605.2-2.3c78.4-45.6,119.7-104.9,124.2-165h0.4v-109.4L2917.2,4585.9z"/>
				<path class="st3" d="M2827.3,4409.5c-166.2-96.7-438.5-95.7-605.2,2.3c-166.7,98-166.7,256.3,0,351.7
					c166.7,95.5,439,94.4,605.2-2.3C2993.5,4664.5,2993.5,4506.3,2827.3,4409.5z"/>
				<path class="st4" d="M2800.9,4425c-151.7-88.3-400.2-87.3-552.3,2.1c-152.1,89.4-152.1,233.9,0,321
					c152.1,87.1,400.7,86.2,552.3-2.1C2952.5,4657.7,2952.5,4513.2,2800.9,4425z"/>
				<path class="st5" d="M2145,4535.8l616,230.4c0,0,54.3-25.6,94.3-60l-652.5-244.5C2202.8,4461.6,2168.9,4480.6,2145,4535.8z"/>
				<path class="st5" d="M2248.5,4427.1l644.9,232.5c0,0,15.7-30.1,18.1-45.7l-608.8-213.5
					C2302.8,4400.4,2266.3,4415.9,2248.5,4427.1z"/>
				<g>
					<path class="st6" d="M2511.6,4710.5v-24.7c-24.3-1.6-44-4.3-59.2-8.3s-28.3-10.4-39.4-19.3c-11.1-8.9-17.5-19.7-19.3-32.5
						l48.8-4.7c3.8,13.3,10.4,23,20,29.3c13.7,8.8,30,13.7,49.1,14.7v-78.7c-20-1.9-40.4-5.9-61.2-11.8
						c-15.5-4.4-27.4-10.5-35.7-18.3s-12.5-16.6-12.5-26.5c0-17.6,12.2-31.8,36.7-42.7c16.4-7.3,40.6-11.8,72.8-13.5v-11.8h28.6
						v11.8c28.2,1.4,50.6,5.6,67.2,12.6c21.2,9,34,21.3,38.3,36.9l-50.2,3.8c-2.9-9.7-8.9-17.1-17.9-22.3
						c-9.1-5.2-21.5-8.6-37.4-10.2v71.3c24.5,3.1,40.6,5.5,48.5,7.3c15.1,3.4,27.4,7.5,36.9,12.4c9.5,4.9,16.9,10.6,22,17.3
						c5.1,6.7,7.7,13.9,7.7,21.7c0,17.1-10.7,31.4-32.1,42.9c-21.4,11.4-49.1,17.6-83.1,18.4v25H2511.6z M2511.6,4494
						c-18.9,1.5-33.8,5.3-44.6,11.5c-10.9,6.2-16.3,13.6-16.3,22.1c0,8.4,4.6,15.5,13.9,21.2c9.3,5.7,24.9,10.2,47.1,13.6V4494z
						 M2540.2,4664.9c18.9-1.2,34.5-5.4,46.8-12.5c12.3-7.1,18.5-16,18.5-26.5c0-9-4.4-16.2-13.1-21.6c-8.7-5.4-26.1-10.3-52.2-14.6
						V4664.9z"/>
				</g>
			</g>
			<g>
				<path class="st2" d="M2820.5,4381.2c-20.7-28.1-50.7-54.3-89.9-77.1c-166.2-96.7-438.5-95.7-605.2,2.3
					c-35.7,21-63.7,44.7-84.1,70l-40.7-0.3v99.4c-0.3,5.1-0.3,10.2,0,15.3v0l0,0c3.2,61.2,44.8,121.4,124.8,167.3
					c166.7,95.5,439,94.4,605.2-2.3c78.4-45.6,119.7-104.9,124.2-165h0.4v-109.4L2820.5,4381.2z"/>
				<path class="st3" d="M2730.7,4204.9c-166.2-96.7-438.5-95.7-605.2,2.3c-166.7,98-166.7,256.3,0,351.7
					c166.7,95.5,439,94.4,605.2-2.3C2896.8,4459.9,2896.8,4301.6,2730.7,4204.9z"/>
				<path class="st4" d="M2704.2,4220.3c-151.7-88.3-400.2-87.3-552.3,2.1c-152.1,89.4-152.1,233.9,0,321
					c152.1,87.1,400.7,86.2,552.3-2.1C2855.8,4453,2855.8,4308.6,2704.2,4220.3z"/>
				<path class="st5" d="M2048.3,4331.1l616,230.4c0,0,54.3-25.6,94.3-60L2106.2,4257C2106.2,4257,2072.2,4276,2048.3,4331.1z"/>
				<path class="st5" d="M2151.9,4222.4l644.9,232.5c0,0,15.7-30.1,18.1-45.7l-608.8-213.5
					C2206.1,4195.8,2169.6,4211.3,2151.9,4222.4z"/>
				<g>
					<path class="st6" d="M2414.9,4505.8v-24.7c-24.3-1.6-44-4.3-59.2-8.3c-15.2-4-28.3-10.4-39.4-19.3
						c-11.1-8.9-17.5-19.7-19.3-32.6l48.8-4.7c3.8,13.3,10.4,23,20,29.3c13.7,8.8,30,13.7,49.1,14.7v-78.7
						c-20-1.9-40.4-5.9-61.2-11.8c-15.5-4.4-27.4-10.5-35.7-18.3s-12.5-16.6-12.5-26.5c0-17.6,12.2-31.8,36.7-42.7
						c16.4-7.3,40.6-11.8,72.8-13.5V4257h28.6v11.8c28.2,1.4,50.6,5.6,67.2,12.6c21.2,9,34,21.3,38.3,36.9l-50.2,3.8
						c-2.9-9.7-8.9-17.1-17.9-22.3c-9.1-5.2-21.5-8.6-37.4-10.2v71.3c24.5,3.1,40.6,5.5,48.5,7.3c15.1,3.4,27.4,7.5,36.9,12.4
						c9.5,4.9,16.9,10.6,22,17.3c5.1,6.7,7.7,13.9,7.7,21.7c0,17.1-10.7,31.4-32.1,42.9c-21.4,11.4-49.1,17.6-83.1,18.4v25H2414.9z
						 M2414.9,4289.4c-18.9,1.5-33.8,5.3-44.6,11.5c-10.9,6.2-16.3,13.6-16.3,22.1c0,8.4,4.6,15.5,13.9,21.2
						c9.3,5.7,24.9,10.2,47.1,13.6V4289.4z M2443.5,4460.3c18.9-1.2,34.5-5.4,46.8-12.5c12.3-7.1,18.5-16,18.5-26.5
						c0-9-4.4-16.2-13.1-21.6c-8.7-5.4-26.1-10.3-52.2-14.6V4460.3z"/>
				</g>
			</g>
			<g>
				<path class="st2" d="M2879.8,4204.1c-20.7-28.1-50.7-54.3-89.9-77.1c-166.2-96.7-438.5-95.7-605.2,2.3
					c-35.7,21-63.7,44.7-84.1,70l-40.7-0.3v99.4c-0.3,5.1-0.3,10.2,0,15.3v0l0,0c3.2,61.2,44.8,121.4,124.8,167.3
					c166.7,95.5,439,94.4,605.2-2.3c78.4-45.6,119.7-104.9,124.2-165h0.4v-109.4L2879.8,4204.1z"/>
				<path class="st3" d="M2790,4027.8c-166.2-96.7-438.5-95.7-605.2,2.3c-166.7,98-166.7,256.3,0,351.7
					c166.7,95.5,439,94.4,605.2-2.3C2956.1,4282.8,2956.1,4124.5,2790,4027.8z"/>
				<path class="st4" d="M2763.5,4043.2c-151.7-88.3-400.2-87.3-552.3,2.1c-152.1,89.4-152.1,233.9,0,321
					c152.1,87.1,400.7,86.2,552.3-2.1C2915.1,4275.9,2915.1,4131.5,2763.5,4043.2z"/>
				<path class="st5" d="M2107.6,4154l616,230.4c0,0,54.3-25.6,94.3-60l-652.5-244.5C2165.4,4079.9,2131.5,4098.9,2107.6,4154z"/>
				<path class="st5" d="M2211.2,4045.3l644.9,232.5c0,0,15.7-30.1,18.1-45.7l-608.8-213.5
					C2265.4,4018.7,2228.9,4034.1,2211.2,4045.3z"/>
				<g>
					<path class="st6" d="M2474.2,4328.7V4304c-24.3-1.6-44-4.3-59.2-8.3c-15.2-4-28.3-10.4-39.4-19.3
						c-11.1-8.9-17.5-19.7-19.3-32.6l48.8-4.7c3.8,13.3,10.4,23,20,29.3c13.7,8.8,30,13.7,49.1,14.7v-78.7
						c-20-1.9-40.4-5.9-61.2-11.8c-15.5-4.4-27.4-10.5-35.7-18.3c-8.4-7.8-12.5-16.6-12.5-26.5c0-17.6,12.2-31.8,36.7-42.7
						c16.4-7.3,40.6-11.8,72.8-13.5v-11.8h28.6v11.8c28.2,1.4,50.6,5.6,67.2,12.6c21.2,9,34,21.3,38.3,36.9l-50.2,3.8
						c-2.9-9.7-8.9-17.1-17.9-22.3c-9.1-5.2-21.5-8.6-37.4-10.2v71.3c24.5,3.1,40.6,5.5,48.5,7.3c15.1,3.4,27.4,7.5,36.9,12.4
						s16.9,10.6,22,17.3c5.1,6.7,7.7,13.9,7.7,21.7c0,17.1-10.7,31.4-32.1,42.9c-21.4,11.4-49.1,17.6-83.1,18.4v25H2474.2z
						 M2474.2,4112.3c-18.9,1.5-33.8,5.3-44.6,11.5c-10.9,6.2-16.3,13.6-16.3,22.1c0,8.4,4.6,15.5,13.9,21.2
						c9.3,5.7,24.9,10.2,47.1,13.6V4112.3z M2502.8,4283.1c18.9-1.2,34.5-5.4,46.8-12.5c12.3-7.1,18.5-16,18.5-26.5
						c0-9-4.4-16.2-13.1-21.6c-8.7-5.4-26.1-10.3-52.2-14.6V4283.1z"/>
				</g>
			</g>
			<g>
				<path class="st2" d="M2842.5,4020.9c-20.7-28.1-50.7-54.3-89.9-77.1c-166.2-96.7-438.5-95.7-605.2,2.3
					c-35.7,21-63.7,44.7-84.1,70l-40.7-0.3v99.4c-0.3,5.1-0.3,10.2,0,15.3v0l0,0c3.2,61.2,44.8,121.4,124.8,167.3
					c166.7,95.5,439,94.4,605.2-2.3c78.4-45.6,119.7-104.9,124.2-165h0.4v-109.4L2842.5,4020.9z"/>
				<path class="st3" d="M2752.6,3844.5c-166.2-96.7-438.5-95.7-605.2,2.3c-166.7,98-166.7,256.3,0,351.7
					c166.7,95.5,439,94.4,605.2-2.3C2918.8,4099.5,2918.8,3941.3,2752.6,3844.5z"/>
				<path class="st4" d="M2726.1,3860c-151.7-88.3-400.2-87.3-552.3,2.1c-152.1,89.4-152.1,233.9,0,321
					c152.1,87.1,400.7,86.2,552.3-2.1C2877.8,4092.7,2877.8,3948.2,2726.1,3860z"/>
				<path class="st5" d="M2070.2,3970.8l616,230.4c0,0,54.3-25.6,94.3-60l-652.5-244.5C2128.1,3896.6,2094.2,3915.6,2070.2,3970.8z"
					/>
				<path class="st5" d="M2173.8,3862.1l644.9,232.5c0,0,15.7-30.1,18.1-45.7L2228,3835.4C2228,3835.4,2191.5,3850.9,2173.8,3862.1z
					"/>
				<g>
					<path class="st6" d="M2436.8,4145.5v-24.7c-24.3-1.6-44-4.3-59.2-8.3c-15.2-4-28.3-10.4-39.4-19.3
						c-11.1-8.9-17.5-19.7-19.3-32.6l48.8-4.7c3.8,13.3,10.4,23,20,29.3c13.7,8.8,30,13.7,49.1,14.7v-78.7
						c-20-1.9-40.4-5.9-61.2-11.8c-15.5-4.4-27.4-10.5-35.7-18.3c-8.4-7.8-12.5-16.6-12.5-26.5c0-17.6,12.2-31.8,36.7-42.7
						c16.4-7.3,40.6-11.8,72.8-13.5v-11.8h28.6v11.8c28.2,1.4,50.6,5.6,67.2,12.6c21.2,9,34,21.3,38.3,36.9l-50.2,3.8
						c-2.9-9.7-8.9-17.1-17.9-22.3c-9.1-5.2-21.5-8.6-37.4-10.2v71.3c24.5,3.1,40.6,5.5,48.5,7.3c15.1,3.4,27.4,7.5,36.9,12.4
						c9.5,4.9,16.9,10.6,22,17.3c5.1,6.7,7.7,13.9,7.7,21.7c0,17.1-10.7,31.4-32.1,42.9s-49.1,17.6-83.1,18.4v25H2436.8z
						 M2436.8,3929.1c-18.9,1.5-33.8,5.3-44.6,11.5c-10.9,6.2-16.3,13.6-16.3,22.1c0,8.4,4.6,15.5,13.9,21.2
						c9.3,5.7,24.9,10.2,47.1,13.6V3929.1z M2465.4,4099.9c18.9-1.2,34.5-5.4,46.8-12.5c12.3-7.1,18.5-16,18.5-26.5
						c0-9-4.4-16.2-13.1-21.6c-8.7-5.4-26.1-10.3-52.2-14.6V4099.9z"/>
				</g>
			</g>
		</g>
		<g>
			<path class="st2" d="M3327.8,5612.4c-20.7-28.1-50.7-54.3-89.9-77.1c-166.2-96.7-438.5-95.7-605.2,2.3
				c-35.7,21-63.7,44.7-84.1,70l-40.7-0.3v99.4c-0.3,5.1-0.3,10.2,0,15.3v0l0,0c3.2,61.2,44.8,121.4,124.8,167.3
				c166.7,95.5,439,94.4,605.2-2.3c78.4-45.6,119.7-104.9,124.2-165h0.4v-109.4L3327.8,5612.4z"/>
			<path class="st3" d="M3238,5436.1c-166.2-96.7-438.5-95.7-605.2,2.3c-166.7,98-166.7,256.3,0,351.7
				c166.7,95.5,439,94.4,605.2-2.3C3404.1,5691.1,3404.1,5532.8,3238,5436.1z"/>
			<path class="st4" d="M3211.5,5451.5c-151.7-88.3-400.2-87.3-552.3,2.1c-152.1,89.4-152.1,233.9,0,321
				c152.1,87.1,400.7,86.2,552.3-2.1S3363.1,5539.8,3211.5,5451.5z"/>
			<path class="st5" d="M2555.6,5562.4l616,230.4c0,0,54.3-25.6,94.3-60l-652.5-244.5C2613.5,5488.2,2579.5,5507.2,2555.6,5562.4z"
				/>
			<path class="st5" d="M2659.2,5453.6l644.9,232.5c0,0,15.7-30.1,18.1-45.7L2713.4,5427C2713.4,5427,2676.9,5442.5,2659.2,5453.6z"
				/>
			<g>
				<path class="st6" d="M2922.2,5737.1v-24.7c-24.3-1.6-44-4.3-59.2-8.3c-15.2-4-28.3-10.4-39.4-19.3
					c-11.1-8.9-17.5-19.7-19.3-32.6l48.8-4.7c3.8,13.3,10.4,23,20,29.3c13.7,8.8,30,13.7,49.1,14.7v-78.7
					c-20-1.9-40.4-5.9-61.2-11.8c-15.5-4.4-27.4-10.5-35.7-18.3c-8.4-7.8-12.5-16.6-12.5-26.5c0-17.6,12.2-31.8,36.7-42.7
					c16.4-7.3,40.6-11.8,72.8-13.5v-11.8h28.6v11.8c28.2,1.4,50.6,5.6,67.2,12.6c21.2,9,34,21.3,38.3,36.9l-50.2,3.8
					c-2.9-9.7-8.9-17.1-17.9-22.3c-9.1-5.2-21.5-8.6-37.4-10.2v71.3c24.5,3.1,40.6,5.5,48.5,7.3c15.1,3.4,27.4,7.5,36.9,12.4
					c9.5,4.9,16.9,10.6,22,17.3c5.1,6.7,7.7,13.9,7.7,21.7c0,17.1-10.7,31.4-32.1,42.9c-21.4,11.4-49.1,17.6-83.1,18.4v25H2922.2z
					 M2922.2,5520.6c-18.9,1.5-33.8,5.3-44.6,11.5c-10.9,6.2-16.3,13.6-16.3,22.1c0,8.4,4.6,15.5,13.9,21.2s24.9,10.2,47.1,13.6
					V5520.6z M2950.8,5691.5c18.9-1.2,34.5-5.4,46.8-12.5c12.3-7.1,18.5-16,18.5-26.5c0-9-4.4-16.2-13.1-21.6
					c-8.7-5.4-26.1-10.3-52.2-14.6V5691.5z"/>
			</g>
		</g>
		<g>
			<path class="st2" d="M3339.9,5470.8c-20.7-28.1-50.7-54.3-89.9-77.1c-166.2-96.7-438.5-95.7-605.2,2.3
				c-35.7,21-63.7,44.7-84.1,70l-40.7-0.3v99.4c-0.3,5.1-0.3,10.2,0,15.3v0l0,0c3.2,61.2,44.8,121.4,124.8,167.3
				c166.7,95.5,439,94.4,605.2-2.3c78.4-45.6,119.7-104.9,124.2-165h0.4V5471L3339.9,5470.8z"/>
			<path class="st3" d="M3250.1,5294.5c-166.2-96.7-438.5-95.7-605.2,2.3c-166.7,98-166.7,256.3,0,351.7
				c166.7,95.5,439,94.4,605.2-2.3C3416.2,5549.5,3416.2,5391.2,3250.1,5294.5z"/>
			<path class="st4" d="M3223.6,5309.9c-151.7-88.3-400.2-87.3-552.3,2.1c-152.1,89.4-152.1,233.9,0,321
				c152.1,87.1,400.7,86.2,552.3-2.1C3375.2,5542.7,3375.2,5398.2,3223.6,5309.9z"/>
			<path class="st5" d="M2567.7,5420.7l616,230.4c0,0,54.3-25.6,94.3-60l-652.5-244.5C2625.6,5346.6,2591.6,5365.6,2567.7,5420.7z"
				/>
			<path class="st5" d="M2671.3,5312l644.9,232.5c0,0,15.7-30.1,18.1-45.7l-608.8-213.5C2725.5,5285.4,2689,5300.9,2671.3,5312z"/>
			<g>
				<path class="st6" d="M2934.3,5595.5v-24.7c-24.3-1.6-44-4.3-59.2-8.3c-15.2-4-28.3-10.4-39.4-19.3
					c-11.1-8.9-17.5-19.7-19.3-32.5l48.8-4.7c3.8,13.3,10.4,23,20,29.3c13.7,8.8,30,13.7,49.1,14.7v-78.7
					c-20-1.9-40.4-5.9-61.2-11.8c-15.5-4.4-27.4-10.5-35.7-18.3s-12.5-16.6-12.5-26.5c0-17.6,12.2-31.8,36.7-42.7
					c16.4-7.3,40.6-11.8,72.8-13.5v-11.8h28.6v11.8c28.2,1.4,50.6,5.6,67.2,12.6c21.2,9,34,21.3,38.3,36.9l-50.2,3.8
					c-2.9-9.7-8.9-17.1-17.9-22.3c-9.1-5.2-21.5-8.6-37.4-10.2v71.3c24.5,3.1,40.6,5.5,48.5,7.3c15.1,3.4,27.4,7.5,36.9,12.4
					c9.5,4.9,16.9,10.6,22,17.3s7.7,13.9,7.7,21.7c0,17.1-10.7,31.4-32.1,42.9c-21.4,11.4-49.1,17.6-83.1,18.4v25H2934.3z
					 M2934.3,5379c-18.9,1.5-33.8,5.3-44.6,11.5c-10.9,6.2-16.3,13.6-16.3,22.1c0,8.4,4.6,15.5,13.9,21.2s24.9,10.2,47.1,13.6V5379z
					 M2962.9,5549.9c18.9-1.2,34.5-5.4,46.8-12.5c12.3-7.1,18.5-16,18.5-26.5c0-9-4.4-16.2-13.1-21.6c-8.7-5.4-26.1-10.3-52.2-14.6
					V5549.9z"/>
			</g>
		</g>
		<g>
			<path class="st2" d="M3388.2,5306c-20.7-28.1-50.7-54.3-89.9-77.1c-166.2-96.7-438.5-95.7-605.2,2.3c-35.7,21-63.7,44.7-84.1,70
				l-40.7-0.3v99.4c-0.3,5.1-0.3,10.2,0,15.3v0l0,0c3.2,61.2,44.8,121.4,124.8,167.3c166.7,95.5,439,94.4,605.2-2.3
				c78.4-45.6,119.7-104.9,124.2-165h0.4v-109.4L3388.2,5306z"/>
			<path class="st3" d="M3298.3,5129.7c-166.2-96.7-438.5-95.7-605.2,2.3c-166.7,98-166.7,256.3,0,351.7
				c166.7,95.5,439,94.4,605.2-2.3C3464.5,5384.7,3464.5,5226.4,3298.3,5129.7z"/>
			<path class="st4" d="M3271.9,5145.1c-151.7-88.3-400.2-87.3-552.3,2.1c-152.1,89.4-152.1,233.9,0,321
				c152.1,87.1,400.7,86.2,552.3-2.1C3423.5,5377.9,3423.5,5233.4,3271.9,5145.1z"/>
			<path class="st5" d="M2616,5255.9l616,230.4c0,0,54.3-25.6,94.3-60l-652.5-244.5C2673.8,5181.8,2639.9,5200.8,2616,5255.9z"/>
			<path class="st5" d="M2719.6,5147.2l644.9,232.5c0,0,15.7-30.1,18.1-45.7l-608.8-213.5
				C2773.8,5120.6,2737.3,5136.1,2719.6,5147.2z"/>
			<g>
				<path class="st6" d="M2982.6,5430.7V5406c-24.3-1.6-44-4.3-59.2-8.3c-15.2-4-28.3-10.4-39.4-19.3s-17.5-19.7-19.3-32.6l48.8-4.7
					c3.8,13.3,10.4,23,20,29.3c13.7,8.8,30,13.7,49.1,14.7v-78.7c-20-1.9-40.4-5.9-61.2-11.8c-15.5-4.4-27.4-10.5-35.7-18.3
					c-8.4-7.8-12.5-16.6-12.5-26.5c0-17.6,12.2-31.8,36.7-42.7c16.4-7.3,40.6-11.8,72.8-13.5v-11.8h28.6v11.8
					c28.2,1.4,50.6,5.6,67.1,12.6c21.2,9,34,21.3,38.3,36.9l-50.2,3.8c-2.9-9.7-8.9-17.1-17.9-22.3c-9.1-5.2-21.5-8.6-37.4-10.2
					v71.3c24.5,3.1,40.6,5.5,48.5,7.3c15.1,3.4,27.4,7.5,36.9,12.4c9.5,4.9,16.9,10.6,22,17.3c5.1,6.7,7.7,13.9,7.7,21.7
					c0,17.1-10.7,31.4-32.1,42.9s-49.1,17.6-83.1,18.4v25H2982.6z M2982.6,5214.2c-18.9,1.5-33.8,5.3-44.6,11.5
					c-10.9,6.2-16.3,13.6-16.3,22.1c0,8.4,4.6,15.5,13.9,21.2s24.9,10.2,47.1,13.6V5214.2z M3011.2,5385.1
					c18.9-1.2,34.5-5.4,46.8-12.5c12.3-7.1,18.5-16,18.5-26.5c0-9-4.4-16.2-13.1-21.6c-8.7-5.4-26.1-10.3-52.2-14.6V5385.1z"/>
			</g>
		</g>
	</g>
</g>
</svg>
