<?xml version="1.0" standalone="no"?>
<!DOCTYPE svg PUBLIC "-//W3C//DTD SVG 1.1//EN" "http://www.w3.org/Graphics/SVG/1.1/DTD/svg11.dtd" >
<svg xmlns="http://www.w3.org/2000/svg" xmlns:xlink="http://www.w3.org/1999/xlink" version="1.1">
<metadata>
Created by FontForge 20170731 at Wed Jun  2 13:13:25 2021
 By Aleksey,,,
Copyright (c) 2008-2011 by Accademia di Belle Arti di Urbino and others. All rights reserved.
</metadata>
<defs>
<font id="Titillium-Light" horiz-adv-x="1146" >
  <font-face 
    font-family="Titillium Lt"
    font-weight="300"
    font-stretch="normal"
    units-per-em="2048"
    panose-1="0 0 4 0 0 0 0 0 0 0"
    ascent="1536"
    descent="-512"
    x-height="1024"
    cap-height="1423"
    bbox="-459 -569 2187 2202"
    underline-thickness="61"
    underline-position="-286"
    unicode-range="U+0020-F6C3"
  />
<missing-glyph horiz-adv-x="481" 
 />
    <glyph glyph-name=".notdef" horiz-adv-x="481" 
 />
    <glyph glyph-name=".null" horiz-adv-x="0" 
 />
    <glyph glyph-name="nonmarkingreturn" horiz-adv-x="682" 
 />
    <glyph glyph-name="space" unicode=" " horiz-adv-x="450" 
 />
    <glyph glyph-name="exclam" unicode="!" horiz-adv-x="489" 
d="M178 0v205h135v-205h-135zM186 457l-6 966h129l-8 -966h-115z" />
    <glyph glyph-name="quotedbl" unicode="&#x22;" horiz-adv-x="745" 
d="M596 977h-113l-6 446h127zM260 977h-110l-9 446h127z" />
    <glyph glyph-name="numbersign" unicode="#" 
d="M1092 369h-234v-369h-115v369h-342v-369h-114v369h-234v106h234v412h-234v106h234v373h114v-373h342v373h115v-373h234v-106h-234v-412h234v-106zM743 475v412h-342v-412h342z" />
    <glyph glyph-name="dollar" unicode="$" 
d="M973 1335l-8 -104q-139 16 -258 26l-66 -514q98 -20 161 -44t111 -63.5t69.5 -98t21.5 -142.5q0 -218 -108 -314.5t-316 -96.5h-35l-31 -236q-92 6 -92 14l29 228q-63 4 -136 11.5t-115 12.5l-42 6l14 105q158 -21 293 -29l72 549q-69 14 -117.5 27.5t-96 34t-77.5 47.5
t-54 64t-34.5 86.5t-10.5 113.5q0 354 428 354q36 0 56 -2l33 258h92l-35 -264q57 -4 120 -11.5t97 -12.5zM270 1026q0 -68 15 -112t53 -73t85 -45.5t128 -33.5l65 502h-32q-314 0 -314 -238zM881 387q0 110 -56 160t-198 80l-68 -535h16q155 0 230.5 70.5t75.5 224.5z" />
    <glyph glyph-name="percent" unicode="%" 
d="M332 -6l405 1390l86 -26l-405 -1389zM285 1372q104 0 161.5 -68.5t57.5 -211.5t-58.5 -215t-160.5 -72q-103 0 -161 72t-58 217q0 278 219 278zM170 1094q0 -100 27 -149.5t88 -49.5q63 0 89.5 48.5t26.5 148.5q0 98 -26.5 144t-89.5 46q-62 0 -88.5 -46t-26.5 -142z
M862 547q104 0 162.5 -69t58.5 -212t-59 -214.5t-162 -71.5t-161 71.5t-58 216.5q0 142 57.5 210.5t161.5 68.5zM748 268q0 -100 26.5 -149t87.5 -49q63 0 90 48.5t27 147.5t-27 145t-90 46q-62 0 -88 -45.5t-26 -143.5z" />
    <glyph glyph-name="ampersand" unicode="&#x26;" horiz-adv-x="1402" 
d="M641 1430q170 0 255 -81.5t85 -224.5q0 -98 -35.5 -167.5t-103 -118t-185.5 -97.5l336 -333q20 54 39.5 162t24.5 188l121 -2q-11 -108 -37.5 -232.5t-55.5 -195.5l273 -260l-76 -84l-256 243q-137 -247 -444 -247q-138 0 -234.5 30t-152.5 89t-80.5 137t-24.5 184
q0 92 19 159t61 114.5t99.5 79t144.5 58.5q-70 80 -91.5 143t-21.5 159q0 135 89 216t251 81zM575 92q260 0 365 211l-453 449q-151 -44 -212.5 -115t-61.5 -211q0 -167 85 -250.5t277 -83.5zM424 1116q0 -68 19.5 -124t72.5 -109l64 -66q155 61 215.5 123.5t60.5 177.5
q0 205 -215 205q-105 0 -161 -52.5t-56 -154.5z" />
    <glyph glyph-name="quotesingle" unicode="'" horiz-adv-x="409" 
d="M147 977l-6 446h129l-12 -446h-111z" />
    <glyph glyph-name="parenleft" unicode="(" horiz-adv-x="516" 
d="M317 1536h119q-8 -22 -21 -60t-46.5 -150t-59 -218.5t-46.5 -244.5t-21 -247q0 -108 20 -238t48.5 -237.5t57 -199.5t48.5 -145l20 -52h-119q-8 18 -22 50.5t-49.5 132t-62.5 198t-49.5 235t-22.5 256.5t21 259t51.5 251.5t61 208t51.5 148.5z" />
    <glyph glyph-name="parenright" unicode=")" horiz-adv-x="516" 
d="M82 1536h119q8 -20 22 -55.5t50 -143.5t63 -213t49.5 -246.5t22.5 -261.5t-21.5 -254.5t-52 -239.5t-60.5 -193.5t-52 -136.5l-21 -48h-119q8 20 21 55t46.5 139.5t59 204.5t46.5 232.5t21 240.5q0 109 -20 244.5t-48.5 250t-57 213t-48.5 155.5z" />
    <glyph glyph-name="asterisk" unicode="*" horiz-adv-x="858" 
d="M756 1053h-275l84 -260l-86 -27l-86 262l-221 -162l-53 72l223 162l-221 162l55 73l221 -161l84 260l88 -29l-84 -262h271v-90z" />
    <glyph glyph-name="plus" unicode="+" 
d="M117 457v114h395v412h117v-412h401v-114h-401v-416h-117v416h-395z" />
    <glyph glyph-name="comma" unicode="," horiz-adv-x="436" 
d="M78 -252l90 455h137l-125 -455h-102z" />
    <glyph glyph-name="hyphen" unicode="-" horiz-adv-x="911" 
d="M145 510v115h623v-115h-623z" />
    <glyph glyph-name="period" unicode="." horiz-adv-x="421" 
d="M143 0v207h136v-207h-136z" />
    <glyph glyph-name="slash" unicode="/" horiz-adv-x="815" 
d="M66 23l573 1423l111 -43l-572 -1421z" />
    <glyph glyph-name="zero" unicode="0" 
d="M571 1372q98 0 172 -20.5t135 -70t99 -131.5t59 -206.5t21 -292.5q0 -191 -32.5 -323t-97.5 -207.5t-150.5 -108t-203.5 -32.5q-95 0 -167.5 19.5t-133.5 66t-100.5 122.5t-61.5 192t-22 271q0 168 21.5 292.5t60.5 206.5t100 131.5t133.5 70t167.5 20.5zM571 1260
q-93 0 -155.5 -27t-108.5 -95t-67 -187.5t-21 -301.5q0 -132 15.5 -229t44 -159.5t73.5 -99.5t97.5 -52t123.5 -15t123.5 15t97.5 52.5t73 100.5t43.5 160t15.5 229q0 179 -21 297.5t-66.5 187.5t-109 96.5t-158.5 27.5z" />
    <glyph glyph-name="one" unicode="1" 
d="M236 1069l426 283h118v-1352h-125v1212l-360 -241z" />
    <glyph glyph-name="two" unicode="2" 
d="M1006 0h-863v106l422 447q63 66 93.5 99.5t72 85t59.5 88t32 84t14 96.5q0 137 -77 194t-237 57q-68 0 -157 -12.5t-144 -24.5l-55 -12l-10 109q22 6 59 15t139 24.5t189 15.5q214 0 319 -84.5t105 -271.5q0 -75 -16.5 -137.5t-55.5 -123.5t-84 -112.5t-121 -126.5
l-393 -405h709v-111z" />
    <glyph glyph-name="three" unicode="3" 
d="M166 1217l-12 104q22 6 59.5 14.5t142 22.5t195.5 14q228 0 325 -82t97 -264q0 -46 -10 -87t-28 -71t-37 -53.5t-43 -41t-40.5 -27.5t-35 -19t-19.5 -10q61 -19 100.5 -40t76 -58t54 -96t17.5 -142q0 -202 -106 -301.5t-329 -99.5q-96 0 -206.5 13t-172.5 27l-63 13
l12 106q219 -45 420 -45q161 0 237.5 70t76.5 211q0 76 -23 130t-65.5 84t-93 44.5t-115.5 17.5h-275v111h273q41 0 86 17.5t85.5 48.5t66.5 83t26 113q0 127 -67 181.5t-228 54.5q-86 0 -181 -11t-148 -21z" />
    <glyph glyph-name="four" unicode="4" 
d="M758 0v274h-676v99l397 979h139l-399 -965h539v432h127v-432h182v-113h-182v-274h-127z" />
    <glyph glyph-name="five" unicode="5" 
d="M193 1352h776v-117h-670l-37 -477q18 10 50 25t121 40t165 25q207 0 318.5 -94t111.5 -303q0 -229 -118.5 -348t-331.5 -119q-92 0 -203 14t-175 28l-65 13l17 104q231 -47 415 -47q152 0 241 90.5t89 257.5q0 158 -81.5 224.5t-229.5 66.5q-77 0 -161.5 -23.5
t-130.5 -47.5l-46 -23l-94 16z" />
    <glyph glyph-name="six" unicode="6" 
d="M991 1341l-12 -104q-178 20 -350 20q-186 0 -286.5 -129.5t-100.5 -373.5l22 8q21 9 58.5 21.5t81.5 25.5t97.5 22t98.5 9q451 0 451 -414q0 -213 -121 -329.5t-346 -116.5q-241 0 -357 182.5t-116 521.5q0 352 136 520t382 168q76 0 166.5 -8t142.5 -16zM592 727
q-75 0 -163 -22t-139 -44l-50 -22q2 -122 21 -218t58.5 -171t106.5 -115.5t158 -40.5q164 0 250 85t86 247q0 151 -85.5 226t-242.5 75z" />
    <glyph glyph-name="seven" unicode="7" 
d="M162 1237v115h833v-181l-530 -1191l-121 40l522 1164v53h-704z" />
    <glyph glyph-name="eight" unicode="8" 
d="M569 1372q227 0 357.5 -86.5t130.5 -259.5q0 -128 -57.5 -198t-188.5 -119q63 -24 108 -51t82.5 -66.5t56.5 -95.5t19 -129q0 -387 -508 -387q-85 0 -156.5 11t-137 37t-111 67t-72 104.5t-26.5 144.5q0 79 17.5 137.5t54 100.5t76 69t101.5 58q-118 53 -172.5 124
t-54.5 195q0 171 127 257.5t354 86.5zM569 96q85 0 150 13.5t117.5 44.5t80 86.5t27.5 134.5q0 53 -14.5 94.5t-37 68.5t-59.5 49t-72.5 34.5t-86.5 25.5h-225q-123 -33 -184.5 -98t-61.5 -187q0 -266 366 -266zM569 1257q-169 0 -257.5 -56.5t-88.5 -184.5
q0 -102 54.5 -161t171.5 -97h225q124 35 186 95.5t62 160.5q0 243 -353 243z" />
    <glyph glyph-name="nine" unicode="9" 
d="M143 12l13 105q178 -23 350 -23q198 0 296 122.5t101 381.5l-23 -8q-23 -8 -63.5 -20t-87 -24.5t-101.5 -21t-100 -8.5q-438 0 -438 408q0 205 126 326.5t337 121.5q244 0 362.5 -185t118.5 -519q0 -192 -35 -326.5t-105 -213t-164.5 -113.5t-223.5 -35q-76 0 -167 8
t-143 16zM537 629q67 0 159 20.5t150 40.5l59 21q-10 546 -352 546q-154 0 -243 -89.5t-89 -243.5q0 -152 79.5 -223.5t236.5 -71.5z" />
    <glyph glyph-name="colon" unicode=":" horiz-adv-x="423" 
d="M143 676v209h136v-209h-136zM143 0v207h136v-207h-136z" />
    <glyph glyph-name="semicolon" unicode=";" horiz-adv-x="493" 
d="M197 203l-88 -455h102l127 455h-141zM188 676v209h136v-209h-136z" />
    <glyph glyph-name="less" unicode="&#x3c;" 
d="M981 866l-735 -350l735 -356v-131l-860 430v110l860 426v-129z" />
    <glyph glyph-name="equal" unicode="=" 
d="M133 639v115h879v-115h-879zM133 272v115h879v-115h-879z" />
    <glyph glyph-name="greater" unicode="&#x3e;" 
d="M899 516l-735 350v129l860 -426v-110l-860 -430v131z" />
    <glyph glyph-name="question" unicode="?" horiz-adv-x="919" 
d="M831 1116q0 -129 -36.5 -198t-159.5 -173q-99 -83 -144 -141t-45 -127v-74h-106q-18 52 -18 109q0 41 15 79t47 77t60.5 67t77.5 72q79 68 115 108.5t53 85t17 107.5q0 121 -71.5 172t-225.5 51q-47 0 -127 -12.5t-137 -25.5l-56 -13l-12 104q217 60 342 60
q207 0 309 -76.5t102 -251.5zM324 2v205h135v-205h-135z" />
    <glyph glyph-name="at" unicode="@" horiz-adv-x="2000" 
d="M1905 625v-31q0 -116 -9 -207t-23.5 -155t-39.5 -109.5t-52 -72t-65.5 -41.5t-75 -20t-86.5 -5q-56 0 -100.5 13t-68 32t-38.5 37.5t-19 31.5l-5 13q-24 -14 -63.5 -35t-138 -55.5t-169.5 -34.5q-38 0 -69.5 4t-69.5 17t-67 35t-58 61t-48 92t-30.5 131.5t-11.5 175.5
q0 135 20 230.5t67.5 166.5t129.5 105t203 34q47 0 109.5 -14t101.5 -28l39 -13v35h123v-400q0 -80 0.5 -132t2 -107t4 -87.5t7.5 -66.5t11 -52t16.5 -36t21.5 -25.5t28 -14t35 -8t44 -1.5q46 0 74 7t58.5 35t46.5 81.5t27 148.5t11 234v33q0 196 -40.5 333.5t-130 229.5
t-231 135t-344.5 43q-205 0 -351.5 -45.5t-246.5 -145t-148 -258.5t-48 -384q0 -238 45.5 -399t145.5 -258.5t245.5 -139t357.5 -41.5q38 0 111.5 5t127.5 10l54 5l6 -110q-197 -21 -299 -21q-156 0 -279 19t-228.5 62.5t-180.5 116t-128.5 177t-79 247.5t-25.5 327
q0 253 59.5 434.5t178.5 293t287 163t396 51.5q458 0 665.5 -207.5t207.5 -644.5zM958 96q120 0 330 105q-2 8 -7 64.5t-9 149t-4 173.5v293q-134 47 -234 47q-76 0 -131 -18.5t-90 -51.5t-55.5 -88t-28.5 -119t-8 -153q0 -101 14.5 -176.5t37 -117.5t55.5 -67.5t63 -33
t67 -7.5z" />
    <glyph glyph-name="A" unicode="A" horiz-adv-x="1216" 
d="M51 0l410 1423h297l407 -1423h-125l-114 393h-635l-113 -393h-127zM553 1313l-231 -807h573l-231 807h-111z" />
    <glyph glyph-name="B" unicode="B" horiz-adv-x="1263" 
d="M178 1423h506q210 0 315 -87t105 -271q0 -136 -48.5 -214.5t-140.5 -117.5q236 -74 236 -338q0 -111 -30.5 -189t-89.5 -122.5t-136 -64t-180 -19.5h-537v1423zM700 670h-395v-557h408q150 0 229.5 63.5t79.5 222.5q0 71 -24 123t-58 79.5t-82 44t-83 20.5t-75 4z
M680 1311h-375v-531h393q144 0 210.5 68.5t66.5 208.5q0 131 -72.5 192.5t-222.5 61.5z" />
    <glyph glyph-name="C" unicode="C" horiz-adv-x="1114" 
d="M1022 133l6 -110q-215 -43 -385 -43q-125 0 -216 32t-149 89.5t-91.5 150.5t-46.5 200.5t-13 254.5q0 150 12 257.5t45 202.5t90.5 153t149 91t219.5 33q165 0 385 -43l-6 -111q-219 39 -369 39q-73 0 -130 -13.5t-98.5 -38t-71 -66t-48 -89t-29 -115.5t-14.5 -137.5
t-4 -162.5q0 -92 4 -160.5t14.5 -135.5t29.5 -114t48.5 -87.5t71.5 -64.5t99 -37.5t130 -13.5q150 0 367 39z" />
    <glyph glyph-name="D" unicode="D" horiz-adv-x="1323" 
d="M696 0h-518v1423h518q506 0 506 -692q0 -123 -14.5 -226t-50.5 -198.5t-92 -161.5t-145 -105.5t-204 -39.5zM1071 731q0 578 -375 578h-391v-1196h391q73 0 131.5 24t99 68t69 100.5t45 128t23.5 144t7 153.5z" />
    <glyph glyph-name="E" unicode="E" horiz-adv-x="1130" 
d="M178 0v1423h854v-114h-727v-529h604v-112h-604v-555h727v-113h-854z" />
    <glyph glyph-name="F" unicode="F" horiz-adv-x="1075" 
d="M178 0v1423h840v-114h-713v-588h606v-113h-606v-608h-127z" />
    <glyph glyph-name="G" unicode="G" horiz-adv-x="1263" 
d="M737 606v113h387v-688q-60 -13 -209.5 -32t-246.5 -19q-127 0 -221.5 32.5t-156 91t-99 150.5t-53 201t-15.5 252q0 145 15 255t52.5 203.5t98.5 153t155.5 92.5t221.5 33q96 0 210.5 -13t181.5 -27l66 -13l-6 -109q-256 47 -442 47q-103 0 -177.5 -27t-121.5 -75
t-74.5 -127.5t-38 -172t-10.5 -220.5q0 -127 10.5 -218t38 -169.5t74.5 -125.5t120.5 -73.5t176.5 -26.5q138 0 325 33v479h-262z" />
    <glyph glyph-name="H" unicode="H" horiz-adv-x="1382" 
d="M1077 0v657h-772v-657h-127v1423h127v-653h772v653h125v-1423h-125z" />
    <glyph glyph-name="I" unicode="I" horiz-adv-x="483" 
d="M178 0v1423h127v-1423h-127z" />
    <glyph glyph-name="J" unicode="J" horiz-adv-x="583" 
d="M412 1423v-1241q0 -58 -5 -102.5t-17 -78.5t-27 -58t-41 -40.5t-51 -26.5t-65.5 -15t-77 -6.5t-91.5 -1.5v112q59 0 90.5 1.5t64.5 10t47.5 23t27.5 43t16.5 67.5t3.5 99v1214h125z" />
    <glyph glyph-name="K" unicode="K" horiz-adv-x="1153" 
d="M967 0l-414 643l-248 -4v-639h-127v1423h127v-671l246 6l395 665h146l-430 -714l456 -709h-151z" />
    <glyph glyph-name="L" unicode="L" horiz-adv-x="983" 
d="M956 0h-778v1423h127v-1308h651v-115z" />
    <glyph glyph-name="M" unicode="M" horiz-adv-x="1710" 
d="M178 0v1423h238l440 -1245l438 1245h238v-1423h-127v1292h-29l-446 -1245h-150l-446 1245h-29v-1292h-127z" />
    <glyph glyph-name="N" unicode="N" horiz-adv-x="1376" 
d="M178 0v1423h250l596 -1310h47v1310h125v-1423h-246l-600 1309h-45v-1309h-127z" />
    <glyph glyph-name="O" unicode="O" horiz-adv-x="1355" 
d="M678 94q106 0 180.5 24.5t122.5 69.5t75 122.5t37.5 169.5t10.5 225q0 126 -11 219t-39.5 172.5t-76 128.5t-122.5 76.5t-177 27.5q-103 0 -177.5 -27t-122 -76t-75.5 -129t-38.5 -172.5t-10.5 -219.5q0 -129 10 -219.5t37 -168.5t74.5 -124.5t122.5 -72.5t180 -26z
M678 -20q-163 0 -272 45.5t-171 141t-87 224t-25 314.5q0 147 15.5 258t54 204t101 152.5t158.5 92t226 32.5t226 -32.5t159.5 -91.5t101.5 -152t54 -204.5t16 -258.5q0 -152 -15.5 -263.5t-53.5 -202t-102 -146t-159.5 -84.5t-226.5 -29z" />
    <glyph glyph-name="P" unicode="P" horiz-adv-x="1214" 
d="M698 496h-393v-496h-127v1423h520q227 0 335 -110.5t108 -339.5q0 -477 -443 -477zM305 608h393q312 0 312 365q0 174 -74 256t-238 82h-393v-703z" />
    <glyph glyph-name="Q" unicode="Q" horiz-adv-x="1355" 
d="M1049 -293l-179 295q-80 -22 -192 -22q-131 0 -226.5 30.5t-159 87t-101 147.5t-53 201t-15.5 259q0 147 15.5 258t54 204t101 152.5t158.5 92t226 32.5t226 -32.5t159.5 -91.5t101.5 -152t54 -204.5t16 -258.5q0 -268 -54 -426t-186 -232l174 -283zM678 94
q88 0 154.5 15.5t113.5 50t77.5 82t48.5 119t25 152.5t7 192q0 126 -11 219t-39.5 172.5t-76 128.5t-122.5 76.5t-177 27.5q-103 0 -177.5 -27t-122 -76t-75.5 -129t-38.5 -172.5t-10.5 -219.5q0 -129 10 -219.5t37 -168.5t74.5 -124.5t122.5 -72.5t180 -26z" />
    <glyph glyph-name="R" unicode="R" horiz-adv-x="1259" 
d="M739 561h-434v-561h-127v1423h522q223 0 333 -102t110 -320q0 -341 -275 -415l293 -586h-141zM1012 999q0 160 -76 236t-236 76h-395v-637h395q312 0 312 325z" />
    <glyph glyph-name="S" unicode="S" horiz-adv-x="1107" 
d="M975 1407l-10 -109q-283 35 -402 35q-330 0 -330 -252q0 -40 4.5 -71t17 -56.5t26 -44t39 -34.5t48.5 -26.5t63.5 -21.5t74 -18t88.5 -18q90 -18 151 -36t114 -47t83 -67.5t47 -94t17 -130.5q0 -228 -113.5 -330t-333.5 -102q-72 0 -183 9.5t-186 19.5l-75 10l14 108
q281 -35 426 -35q162 0 242 75t80 237q0 67 -17 110.5t-60 73.5t-100 47.5t-153 34.5q-96 18 -158 35.5t-121.5 47t-92 70t-52 101.5t-19.5 145q0 373 451 373q74 0 179 -10t173 -20z" />
    <glyph glyph-name="T" unicode="T" horiz-adv-x="1077" 
d="M27 1309v114h1024v-114h-447v-1309h-127v1309h-450z" />
    <glyph glyph-name="U" unicode="U" horiz-adv-x="1314" 
d="M295 418q0 -171 90.5 -247.5t263.5 -76.5q184 0 276.5 75.5t92.5 248.5v1005h127v-1005q0 -231 -125 -334.5t-371 -103.5q-235 0 -357 104t-122 334v1005h125v-1005z" />
    <glyph glyph-name="V" unicode="V" horiz-adv-x="1181" 
d="M997 1423h129l-381 -1423h-309l-383 1423h131l346 -1310h121z" />
    <glyph glyph-name="W" unicode="W" horiz-adv-x="1789" 
d="M68 1423h129l258 -1310h67l299 1294h150l297 -1294h67l258 1310h129l-292 -1423h-254l-281 1249l-281 -1249h-254z" />
    <glyph glyph-name="X" unicode="X" horiz-adv-x="1136" 
d="M186 1423l385 -628l383 628h140l-443 -721l443 -702h-144l-381 614l-387 -614h-139l446 700l-446 723h143z" />
    <glyph glyph-name="Y" unicode="Y" horiz-adv-x="1093" 
d="M610 602v-602h-127v602l-456 821h141l379 -690l377 690h143z" />
    <glyph glyph-name="Z" unicode="Z" horiz-adv-x="1099" 
d="M88 1309v114h922v-170l-781 -1097v-43h781v-115h-922v168l780 1098v45h-780z" />
    <glyph glyph-name="bracketleft" unicode="[" horiz-adv-x="659" 
d="M575 1534v-111h-284v-1564h284v-111h-409v1786h409z" />
    <glyph glyph-name="backslash" unicode="\" horiz-adv-x="862" 
d="M799 29l-113 -47l-625 1413l111 49z" />
    <glyph glyph-name="bracketright" unicode="]" horiz-adv-x="659" 
d="M84 1423v111h410v-1786h-410v111h285v1564h-285z" />
    <glyph glyph-name="asciicircum" unicode="^" 
d="M883 655l-314 574l-299 -574h-133l375 697h115l389 -697h-133z" />
    <glyph glyph-name="underscore" unicode="_" horiz-adv-x="1300" 
d="M211 -197h876v-110h-876v110z" />
    <glyph glyph-name="grave" unicode="`" horiz-adv-x="466" 
d="M51 1509l424 -198l-39 -86l-430 178z" />
    <glyph glyph-name="a" unicode="a" horiz-adv-x="1021" 
d="M858 719v-549q7 -75 133 -90l-6 -98q-158 0 -231 81q-22 -9 -59 -23t-138.5 -37t-187.5 -23q-136 0 -208.5 78.5t-72.5 230.5q0 141 72.5 212.5t228.5 86.5l348 35v96q0 114 -49.5 164.5t-150.5 50.5q-65 0 -162 -8t-161 -16l-64 -7l-7 98q226 43 398 43q165 0 241 -80
t76 -245zM737 526l-334 -34q-101 -9 -144.5 -57.5t-43.5 -143.5q0 -99 43 -153t127 -54q74 0 162 18t139 36l51 18v370z" />
    <glyph glyph-name="b" unicode="b" horiz-adv-x="1067" 
d="M594 1044q205 0 284.5 -119t79.5 -397q0 -154 -21.5 -254t-76.5 -168t-147 -97t-234 -29q-57 0 -139 5t-135 10l-53 5v1479h122v-510q18 8 49 20.5t115.5 33.5t155.5 21zM479 90q91 0 153 17.5t101.5 48.5t61 87.5t29 121.5t7.5 163q0 219 -52 312.5t-195 93.5
q-70 0 -147.5 -17.5t-120.5 -34.5l-42 -18v-762q144 -12 205 -12z" />
    <glyph glyph-name="c" unicode="c" horiz-adv-x="886" 
d="M535 1044q39 0 105.5 -6.5t113.5 -13.5l47 -6l-6 -105q-162 21 -240 21q-182 0 -249.5 -89.5t-67.5 -314.5q0 -103 7.5 -170.5t27 -123t55.5 -85.5t91 -45.5t136 -15.5q35 0 96 5t105 9l43 5l4 -105q-183 -24 -271 -24q-101 0 -171.5 19t-120 58t-77.5 106t-40 154.5
t-12 212.5q0 280 97 397t327 117z" />
    <glyph glyph-name="d" unicode="d" horiz-adv-x="1071" 
d="M920 1479v-1479h-123v76q-7 -4 -18.5 -10.5t-48.5 -23t-74 -29t-89 -23t-98 -10.5q-59 0 -104.5 9t-96 41t-83.5 86.5t-54.5 152t-21.5 231.5q0 278 98 411t332 133q89 0 258 -26v461h123zM481 90q69 0 148 22t123 44l45 22v733q-171 25 -254 25q-90 0 -150.5 -27.5
t-94.5 -86t-48 -135t-14 -187.5q0 -105 14.5 -181.5t37 -119.5t56.5 -68.5t65.5 -33t71.5 -7.5z" />
    <glyph glyph-name="e" unicode="e" horiz-adv-x="1032" 
d="M518 90q67 0 160.5 5t153.5 9l61 5l4 -101q-231 -28 -391 -28q-113 1 -190.5 34.5t-122.5 102.5t-64.5 163.5t-19.5 227.5q0 536 421 536q202 0 303 -116t101 -369l-4 -98h-697q0 -189 64.5 -280t220.5 -91zM233 563h578q0 203 -67 289t-214 86q-145 0 -221 -89t-76 -286
z" />
    <glyph glyph-name="f" unicode="f" horiz-adv-x="663" 
d="M317 915v-915h-122v915h-134v109h134v104q0 148 27.5 228t84 111.5t158.5 31.5q31 0 81 -2.5t84 -4.5l34 -3v-105q-122 5 -181 5q-95 0 -130.5 -53.5t-35.5 -209.5v-102h310v-109h-310z" />
    <glyph glyph-name="g" unicode="g" horiz-adv-x="1042" 
d="M535 -485q-101 0 -171.5 10t-121 32t-79 59.5t-41.5 89t-13 124.5q0 46 9.5 81t33 65.5t50 54t72.5 57.5q-51 34 -51 139q0 16 16.5 56t32.5 72l17 32q-168 71 -168 309q0 180 97.5 264t273.5 84q47 0 101 -6.5t84 -13.5l30 -6l297 6v-109l-205 5q73 -73 73 -224
q0 -189 -93 -265.5t-294 -76.5q-58 0 -104 8q-41 -99 -41 -126q0 -25 2 -38.5t11.5 -26.5t24.5 -18.5t47 -10t71 -5.5t104 -2q111 0 178.5 -11.5t116.5 -44t68.5 -90.5t19.5 -151q0 -169 -111 -246t-337 -77zM592 27l-232 8q-76 -54 -102.5 -93.5t-26.5 -103.5
q0 -84 24.5 -128.5t90.5 -66.5t191 -22q170 0 245.5 50t75.5 163q0 52 -10 87t-27.5 56t-52.5 32t-73.5 14.5t-102.5 3.5zM492 457q141 0 198.5 53.5t57.5 185.5q0 134 -58 190t-198 56q-130 0 -188 -57t-58 -189q0 -130 57.5 -184.5t188.5 -54.5z" />
    <glyph glyph-name="h" unicode="h" horiz-adv-x="1091" 
d="M274 0h-120v1479h120v-514q19 9 52 22t121 35t159 22q85 0 143.5 -17t98 -52t61 -97t30.5 -141.5t9 -197.5v-539h-123v532q0 97 -5 158.5t-19 112.5t-40.5 77t-67.5 40t-103 14q-71 0 -150 -17.5t-122 -34.5l-44 -18v-864z" />
    <glyph glyph-name="i" unicode="i" horiz-adv-x="428" 
d="M154 0v1024h120v-1024h-120zM154 1280v154h120v-154h-120z" />
    <glyph glyph-name="j" unicode="j" horiz-adv-x="428" 
d="M154 20v1004h122v-1006q0 -181 -66.5 -274.5t-268.5 -196.5l-50 99q71 40 111.5 67.5t74 58t48 65t22 77.5t7.5 106zM154 1280v154h122v-154h-122z" />
    <glyph glyph-name="k" unicode="k" horiz-adv-x="962" 
d="M274 0h-120v1479h120v-881l175 4l315 422h141l-350 -469l367 -555h-144l-327 494l-177 -5v-489z" />
    <glyph glyph-name="l" unicode="l" horiz-adv-x="452" 
d="M166 0v1479h121v-1479h-121z" />
    <glyph glyph-name="m" unicode="m" horiz-adv-x="1710" 
d="M274 0h-120v1024h120v-76q18 11 48 27t113 42.5t153 26.5q105 0 167.5 -25.5t100.5 -82.5q7 4 20.5 11.5t55 26t83 33t99.5 26t111 11.5q106 0 171.5 -24.5t104 -87t52.5 -153.5t14 -240v-539h-121v532q0 97 -5 158.5t-19 112t-41 77.5t-68 40.5t-103 13.5
q-75 0 -152.5 -21.5t-117.5 -42.5l-41 -22q31 -77 31 -316v-532h-123v528q0 98 -5 161t-19 114t-41 77.5t-67.5 40t-101.5 13.5q-71 0 -146 -21.5t-114 -42.5l-39 -22v-848z" />
    <glyph glyph-name="n" unicode="n" horiz-adv-x="1091" 
d="M274 0h-120v1024h120v-76q7 4 19.5 10.5t51 23t76.5 29t90 23t97 10.5q85 0 143.5 -17t98 -52t61 -97t30.5 -141.5t9 -197.5v-539h-123v532q0 80 -3.5 134.5t-12.5 103t-25.5 77t-43 49.5t-63.5 29.5t-89 8.5q-71 0 -150 -21.5t-122 -42.5l-44 -22v-848z" />
    <glyph glyph-name="o" unicode="o" horiz-adv-x="1079" 
d="M541 1044q233 0 330.5 -121.5t97.5 -396.5q0 -151 -19 -249.5t-67 -167.5t-131 -99t-211 -30q-129 0 -212.5 30t-131.5 99t-67 167t-19 250q0 275 97.5 396.5t332.5 121.5zM541 88q66 0 114 10t82 34.5t54.5 56.5t32.5 85t16 110.5t4 141.5q0 232 -64.5 321t-238.5 89
q-175 0 -239 -88.5t-64 -321.5q0 -102 6 -167t24 -121.5t51.5 -86.5t87.5 -46.5t134 -16.5z" />
    <glyph glyph-name="p" unicode="p" horiz-adv-x="1071" 
d="M154 -461v1485h120v-78q7 4 18.5 10.5t48 23.5t73 30t87.5 23.5t97 10.5q191 0 278 -125t87 -393q0 -295 -102.5 -420.5t-340.5 -125.5q-126 0 -246 26v-467h-120zM586 934q-68 0 -146 -23t-122 -46l-44 -23v-729q146 -25 242 -25q177 0 248.5 100t71.5 338
q0 217 -62.5 312.5t-187.5 95.5z" />
    <glyph glyph-name="q" unicode="q" horiz-adv-x="1067" 
d="M487 -20q-206 0 -292 122.5t-86 393.5q0 299 105 423.5t372 124.5q45 0 127 -5t141 -10l59 -5v-1485h-120v512q-16 -8 -45 -20t-109.5 -31.5t-151.5 -19.5zM588 936q-107 0 -177 -25.5t-109 -83t-54 -135.5t-15 -196q0 -208 60 -307t205 -99q69 0 143 17t113 34l39 17
v766q-139 12 -205 12z" />
    <glyph glyph-name="r" unicode="r" horiz-adv-x="694" 
d="M154 0v1024h120v-147q20 14 55.5 36.5t137.5 68t195 62.5v-122q-88 -18 -185 -56.5t-150 -67.5l-53 -30v-768h-120z" />
    <glyph glyph-name="s" unicode="s" horiz-adv-x="950" 
d="M821 1008l-4 -109q-219 33 -354 33q-242 0 -242 -174q0 -79 53.5 -112.5t221.5 -61.5q84 -14 138.5 -28t100.5 -35t70.5 -50.5t37.5 -72t13 -101.5q0 -172 -100 -244.5t-295 -72.5q-56 0 -143.5 9t-147.5 18l-59 9l8 109q230 -35 334 -35q141 0 209.5 43.5t68.5 157.5
q0 90 -56.5 123.5t-234.5 60.5q-77 12 -127 24t-95 32.5t-69.5 49t-38.5 71.5t-14 102q0 65 21 115.5t55.5 82.5t82.5 52.5t98 29t106 8.5q68 0 158.5 -8.5t146.5 -17.5z" />
    <glyph glyph-name="t" unicode="t" horiz-adv-x="710" 
d="M672 915h-342v-505q0 -70 2 -113.5t8 -83t16.5 -61t29.5 -37.5t44.5 -21.5t63.5 -5.5q25 0 72 3.5t82 6.5l34 4l8 -104q-135 -21 -207 -21q-105 0 -163 31.5t-85.5 111.5t-27.5 228v567h-152v109h152v322h123v-322h342v-109z" />
    <glyph glyph-name="u" unicode="u" horiz-adv-x="1075" 
d="M801 1024h121v-1024h-121v76q-18 -11 -48.5 -27t-114 -42.5t-153.5 -26.5q-72 0 -124.5 10.5t-91 36.5t-62.5 63t-38.5 97t-20 131t-5.5 171v535h121v-532q0 -98 5 -159.5t19 -112.5t40.5 -77t68 -39.5t103.5 -13.5q72 0 147 21.5t115 42.5l39 22v848z" />
    <glyph glyph-name="v" unicode="v" horiz-adv-x="976" 
d="M55 1024h135l256 -918h82l267 918h127l-299 -1024h-269z" />
    <glyph glyph-name="w" unicode="w" horiz-adv-x="1556" 
d="M68 1024h125l225 -918h28l267 898h129l266 -898h31l225 918h125l-256 -1024h-213l-242 844l-243 -844h-211z" />
    <glyph glyph-name="x" unicode="x" horiz-adv-x="913" 
d="M49 1024h137l271 -422l270 422h137l-334 -510l332 -514h-135l-270 420l-271 -420h-137l330 512z" />
    <glyph glyph-name="y" unicode="y" horiz-adv-x="978" 
d="M55 1024h125l273 -918h73l275 918h125l-443 -1485h-123l138 461h-142z" />
    <glyph glyph-name="z" unicode="z" horiz-adv-x="931" 
d="M86 913v111h760v-111l-608 -802h608v-111h-760v111l608 802h-608z" />
    <glyph glyph-name="braceleft" unicode="{" horiz-adv-x="716" 
d="M391 348q-1 -14 -7.5 -103.5t-6.5 -135.5q0 -62 11 -106t39 -79t79 -53.5t127 -22.5l-4 -108q-202 7 -287.5 91t-85.5 269q0 44 7 137t7 115q0 91 -50.5 145.5t-166.5 88.5v102q116 27 166.5 82.5t50.5 149.5q0 26 -7 124t-7 138q0 187 86 270t289 90l2 -106
q-148 -7 -203 -69.5t-55 -190.5q0 -35 7 -127.5t7 -120.5q0 -132 -44 -192t-167 -97q122 -36 167.5 -99t45.5 -192z" />
    <glyph glyph-name="bar" unicode="|" horiz-adv-x="452" 
d="M164 -461v1940h123v-1940h-123z" />
    <glyph glyph-name="braceright" unicode="}" horiz-adv-x="716" 
d="M326 348q0 129 45.5 192t167.5 99q-123 37 -167 97t-44 192q0 28 7 120.5t7 127.5q0 128 -55 190.5t-203 69.5l2 106q203 -7 289 -90t86 -270q0 -40 -7.5 -138t-7.5 -124q0 -94 50.5 -149.5t167.5 -82.5v-102q-117 -34 -167.5 -88.5t-50.5 -145.5q0 -22 7.5 -115
t7.5 -137q0 -185 -85.5 -269t-287.5 -91l-4 108q76 4 127 22.5t79 53.5t39 79t11 106q0 46 -6.5 135.5t-7.5 103.5z" />
    <glyph glyph-name="asciitilde" unicode="~" 
d="M991 625l21 -103q-14 -12 -37.5 -30.5t-84.5 -49t-108 -30.5q-50 0 -133.5 34t-161 67.5t-112.5 33.5q-36 0 -89 -25.5t-88 -50.5l-36 -25l-23 105q5 5 14.5 12t37.5 26.5t55.5 34t63 26.5t65.5 12q49 0 131 -34t160 -68t116 -34q33 0 85 25t88 49z" />
    <glyph glyph-name="exclamdown" unicode="&#xa1;" horiz-adv-x="448" 
d="M289 1024v-205h-135v205h135zM281 567l6 -966h-129l8 966h115z" />
    <glyph glyph-name="cent" unicode="&#xa2;" 
d="M573 -170v248q-128 5 -204 43.5t-116 132t-40 254.5q0 225 86.5 328.5t273.5 111.5v252h109v-256q40 -1 94.5 -7t89.5 -11l35 -6l-4 -103q-163 19 -272 19q-155 0 -218 -74.5t-63 -253.5q0 -183 62 -250.5t235 -67.5q48 0 112.5 4t104.5 8l41 3l6 -105q-135 -16 -221 -20
v-250h-111z" />
    <glyph glyph-name="sterling" unicode="&#xa3;" 
d="M903 1339l-2 -102q-168 23 -252 23q-74 0 -111.5 -26.5t-54 -92.5t-16.5 -195v-100h356v-109h-356v-626h330l161 32l21 -106l-166 -37h-647v111h178v626h-137v109h137v108q0 128 16 209t54 127t91 63t136 17q43 0 108.5 -8t109.5 -16z" />
    <glyph glyph-name="currency" unicode="&#xa4;" 
d="M926 76l-144 143q-94 -65 -209 -65q-117 0 -211 65l-141 -143l-88 88l143 141q-65 94 -65 211q0 115 65 209l-143 143l88 88l141 -145q98 68 211 68q111 0 209 -68l144 145l88 -88l-146 -143q68 -98 68 -209q0 -113 -68 -211l146 -141zM573 266q102 0 176 74t74 176
q0 101 -74.5 175.5t-175.5 74.5q-102 0 -175.5 -74t-73.5 -176q0 -103 73 -176.5t176 -73.5z" />
    <glyph glyph-name="yen" unicode="&#xa5;" 
d="M117 657v109h309l-371 586h142l378 -584l373 584h144l-367 -586h303v-109h-369l-20 -41v-159h391v-109h-391v-348h-127v348h-393v109h393v159l-18 41h-377z" />
    <glyph glyph-name="brokenbar" unicode="&#xa6;" horiz-adv-x="460" 
d="M168 1479h123v-768h-123v768zM168 311h123v-772h-123v772z" />
    <glyph glyph-name="section" unicode="&#xa7;" horiz-adv-x="1011" 
d="M850 1309l-6 -105q-222 27 -320 27q-134 0 -199 -48.5t-65 -152.5q0 -48 12.5 -81.5t32.5 -55.5t61 -38.5t81.5 -26t109.5 -21.5q89 -16 144.5 -34t101.5 -50.5t66 -83t20 -125.5q0 -79 -30.5 -156t-53.5 -110q74 -59 74 -199q0 -336 -377 -336q-56 0 -144 8.5t-148 16.5
l-60 8l10 104q225 -30 338 -30q262 0 262 223q0 37 -7 63.5t-26 46.5t-38 32.5t-59 23.5t-72 17t-93 16q-186 31 -268 94.5t-82 206.5q0 83 44 158.5t70 95.5q-46 35 -68 88t-22 141q0 157 98.5 235t282.5 78q59 0 141.5 -7.5t135.5 -15.5zM512 702q-143 26 -199 50
q-75 -112 -75 -193q0 -97 58.5 -140.5t199.5 -66.5q148 -24 215 -55q5 5 17 32.5t25 77t13 93.5q0 43 -11.5 74t-30 51t-53 35t-69 23.5t-90.5 18.5z" />
    <glyph glyph-name="dieresis" unicode="&#xa8;" horiz-adv-x="466" 
d="M-16 1284v164h120v-164h-120zM387 1284v164h119v-164h-119z" />
    <glyph glyph-name="copyright" unicode="&#xa9;" horiz-adv-x="1323" 
d="M127 889q0 153 68.5 279.5t191.5 200t275 73.5t274.5 -74.5t190 -200.5t67.5 -278q0 -153 -68 -279.5t-191 -200t-276 -73.5q-150 0 -272.5 74t-191 200.5t-68.5 278.5zM209 889q0 -129 57.5 -237t161.5 -172t231 -64q195 0 325 137.5t130 335.5q0 197 -130.5 335
t-324.5 138q-127 0 -231 -64t-161.5 -172t-57.5 -237zM817 682l4 -92q-79 -21 -155 -21q-130 0 -182 78t-52 242q0 162 51.5 240.5t184.5 78.5q36 0 74.5 -4.5t58.5 -9.5l20 -4l-4 -94q-81 14 -147 14q-36 0 -60.5 -10t-39 -26t-22.5 -46t-10.5 -60.5t-2.5 -78.5
q0 -115 28 -168t107 -53q26 0 63 3.5t61 6.5z" />
    <glyph glyph-name="ordfeminine" unicode="&#xaa;" horiz-adv-x="774" 
d="M594 1155v-278q19 -27 65 -39l-4 -84q-62 0 -91 11t-56 38q-118 -49 -227 -49q-75 0 -119.5 48t-44.5 130t44 123t136 47l190 12v45q0 53 -24 74.5t-78 21.5q-33 0 -89.5 -3.5t-97.5 -7.5l-40 -3l-4 82q141 27 235 27q105 0 155 -44.5t50 -150.5zM487 1032l-172 -10
q-47 -3 -68.5 -24.5t-21.5 -65.5q0 -86 78 -86q36 0 82 9t74 19l28 9v149z" />
    <glyph glyph-name="guillemotleft" unicode="&#xab;" horiz-adv-x="1071" 
d="M465 717l-264 -203l264 -223v-131l-371 299v104l371 283v-129zM928 717l-264 -203l264 -223v-131l-371 299v104l371 283v-129z" />
    <glyph glyph-name="logicalnot" unicode="&#xac;" 
d="M137 692h873v-446h-117v334h-756v112z" />
    <glyph glyph-name="registered" unicode="&#xae;" horiz-adv-x="1323" 
d="M127 889q0 153 68.5 279.5t190.5 200t273 73.5q153 0 276.5 -74.5t191 -200.5t67.5 -278q0 -153 -68 -279.5t-191 -200t-276 -73.5q-150 0 -272.5 74t-191 200.5t-68.5 278.5zM209 889q0 -129 58 -237t162 -172t230 -64q195 0 325 137.5t130 335.5q0 197 -130.5 335
t-324.5 138q-127 0 -231 -64t-161.5 -172t-57.5 -237zM793 580l-117 227h-135v-227h-99v614h213q117 0 174.5 -43t57.5 -147q0 -75 -25.5 -119.5t-85.5 -65.5l121 -239h-104zM541 1110v-219h137q60 0 86.5 25t26.5 85q0 59 -34.5 84t-107.5 25h-108z" />
    <glyph glyph-name="macron" unicode="&#xaf;" horiz-adv-x="466" 
d="M-33 1292v101h557v-101h-557z" />
    <glyph glyph-name="degree" unicode="&#xb0;" 
d="M287 1157q0 128 79.5 207.5t206.5 79.5t206 -79.5t79 -207.5q0 -127 -78.5 -205t-206.5 -78t-207 78t-79 205zM379 1157q0 -89 52.5 -142.5t141.5 -53.5q90 0 144.5 53.5t54.5 142.5t-55 144t-144 55t-141.5 -54.5t-52.5 -144.5z" />
    <glyph glyph-name="plusminus" unicode="&#xb1;" 
d="M117 610v115h395v266h117v-266h401v-115h-401v-272h-117v272h-395zM117 201h913v-115h-913v115z" />
    <glyph glyph-name="twosuperior" unicode="&#xb2;" horiz-adv-x="573" 
d="M481 979h-415v94l188 195q55 55 80.5 93.5t25.5 86.5q0 44 -29 66t-77 22q-28 0 -72.5 -4.5t-75.5 -9.5l-30 -4l-4 94q114 24 202 24q101 0 149 -44t48 -136q0 -69 -28.5 -118.5t-98.5 -116.5l-141 -144h278v-98z" />
    <glyph glyph-name="threesuperior" unicode="&#xb3;" horiz-adv-x="573" 
d="M76 1616q115 20 205 20q106 0 156 -40.5t50 -127.5q0 -37 -11 -67t-27.5 -47t-27.5 -25t-20 -12q54 -16 78.5 -50.5t24.5 -111.5q0 -197 -211 -197q-44 0 -100.5 6t-90.5 12l-34 5l6 94q115 -16 209 -16q56 0 83 26.5t27 71.5q0 103 -104 103h-133v94h131q33 0 61.5 31
t28.5 73q0 80 -105 80q-39 0 -86.5 -4t-75.5 -8l-28 -4z" />
    <glyph glyph-name="acute" unicode="&#xb4;" horiz-adv-x="548" 
d="M63 1311l424 198l45 -106l-430 -178z" />
    <glyph glyph-name="mu" unicode="&#xb5;" 
d="M840 1024h121v-1024h-121v76q-18 -11 -48.5 -27t-114 -42.5t-153.5 -26.5q-147 0 -221 51v-492h-121v1485h121v-532q0 -98 5 -159.5t19 -112.5t40.5 -77t68 -39.5t103.5 -13.5q72 0 147.5 21.5t114.5 42.5l39 22v848z" />
    <glyph glyph-name="paragraph" unicode="&#xb6;" horiz-adv-x="1210" 
d="M850 0v1315h-266v-1315h-113v684h-14q-165 0 -273 102t-108 265q0 164 109 268t272 104h673v-108h-167v-1315h-113z" />
    <glyph glyph-name="periodcentered" unicode="&#xb7;" horiz-adv-x="423" 
d="M145 500v207h136v-207h-136z" />
    <glyph glyph-name="cedilla" unicode="&#xb8;" horiz-adv-x="538" 
d="M446 -260q0 -88 -48.5 -130t-133.5 -42q-40 0 -83 3t-66 6l-23 3l4 82q85 -6 146 -6q92 0 92 84q0 76 -92 76h-97v186h78v-108q119 0 171 -32t52 -122z" />
    <glyph glyph-name="onesuperior" unicode="&#xb9;" horiz-adv-x="573" 
d="M76 1477l207 141h102v-639h-109v518l-149 -102z" />
    <glyph glyph-name="ordmasculine" unicode="&#xba;" horiz-adv-x="757" 
d="M379 1350q132 0 196 -71.5t64 -223.5q0 -153 -64.5 -227t-195.5 -74q-264 0 -264 301q0 152 66 223.5t198 71.5zM379 856q81 0 114 46t33 153q0 105 -33 148.5t-114 43.5q-80 0 -115 -44t-35 -148q0 -106 35 -152.5t115 -46.5z" />
    <glyph glyph-name="guillemotright" unicode="&#xbb;" horiz-adv-x="1071" 
d="M868 514l-262 203v129l371 -283v-104l-371 -299v131zM406 514l-263 203v129l371 -283v-104l-371 -299v131z" />
    <glyph glyph-name="onequarter" unicode="&#xbc;" horiz-adv-x="1087" 
d="M84 1477l207 141h102v-639h-108v518l-150 -102zM74 57l803 1293l73 -47l-803 -1291zM844 -205v105h-291v94l156 440h118l-159 -434h176l8 180h100v-180h64v-100h-64v-105h-108z" />
    <glyph glyph-name="onehalf" unicode="&#xbd;" horiz-adv-x="1075" 
d="M94 1477l207 141h102v-639h-108v518l-150 -102zM70 57l802 1293l74 -47l-803 -1291zM981 -205h-416v94l189 195q55 55 80.5 93.5t25.5 86.5q0 44 -29 66t-77 22q-28 0 -73 -4.5t-75 -9.5l-31 -4l-4 94q115 25 203 25q101 0 149 -44.5t48 -136.5q0 -69 -28.5 -118.5
t-98.5 -116.5l-142 -143h279v-99z" />
    <glyph glyph-name="threequarters" unicode="&#xbe;" horiz-adv-x="1120" 
d="M117 1616q115 20 205 20q106 0 156 -40.5t50 -127.5q0 -37 -11 -67t-27.5 -47t-27.5 -25t-20 -12q54 -16 78.5 -50.5t24.5 -111.5q0 -197 -211 -197q-44 0 -100.5 6t-90.5 12l-34 5l6 94q115 -16 209 -16q56 0 83 26.5t27 71.5q0 103 -104 103h-133v94h131q33 0 61.5 31
t28.5 73q0 80 -105 80q-39 0 -86.5 -4t-75.5 -8l-28 -4zM111 57l802 1293l74 -47l-803 -1291zM881 -205v105h-291v94l155 440h119l-159 -434h176l8 180h100v-180h64v-100h-64v-105h-108z" />
    <glyph glyph-name="questiondown" unicode="&#xbf;" horiz-adv-x="907" 
d="M82 -90q0 89 16 144t56 105t125 122q99 82 143.5 140.5t44.5 127.5v74h106q19 -52 19 -109q0 -41 -15 -79t-47.5 -77.5t-60.5 -67t-78 -71.5q-114 -98 -149 -154t-35 -147q0 -121 71.5 -172t225.5 -51q47 0 127 12.5t136 25.5l56 13l13 -104q-217 -60 -342 -60
q-208 0 -310 76.5t-102 251.5zM590 1024v-205h-135v205h135z" />
    <glyph glyph-name="Agrave" unicode="&#xc0;" horiz-adv-x="1216" 
d="M51 0l410 1423h297l407 -1423h-125l-114 393h-635l-113 -393h-127zM553 1313l-231 -807h573l-231 807h-111zM389 1901l424 -203l-41 -88l-428 180z" />
    <glyph glyph-name="Aacute" unicode="&#xc1;" horiz-adv-x="1216" 
d="M51 0l410 1423h297l407 -1423h-125l-114 393h-635l-113 -393h-127zM553 1313l-231 -807h573l-231 807h-111zM393 1698l424 203l45 -111l-428 -180z" />
    <glyph glyph-name="Acircumflex" unicode="&#xc2;" horiz-adv-x="1216" 
d="M51 0l410 1423h297l407 -1423h-125l-114 393h-635l-113 -393h-127zM553 1313l-231 -807h573l-231 807h-111zM279 1634l274 269h106l275 -269h-141l-185 176l-186 -176h-143z" />
    <glyph glyph-name="Atilde" unicode="&#xc3;" horiz-adv-x="1216" 
d="M51 0l410 1423h297l407 -1423h-125l-114 393h-635l-113 -393h-127zM553 1313l-231 -807h573l-231 807h-111zM903 1872l31 -92q-10 -13 -26 -31.5t-59 -50t-77 -31.5q-49 0 -175 58.5t-157 58.5q-20 0 -56 -26t-62 -52l-25 -25l-31 95q11 13 29 32t64 50.5t81 31.5
q41 0 110 -28t132 -56t88 -28q18 0 51.5 23.5t57.5 46.5z" />
    <glyph glyph-name="Adieresis" unicode="&#xc4;" horiz-adv-x="1216" 
d="M51 0l410 1423h297l407 -1423h-125l-114 393h-635l-113 -393h-127zM553 1313l-231 -807h573l-231 807h-111zM342 1677v164h121v-164h-121zM754 1677v164h118v-164h-118z" />
    <glyph glyph-name="Aring" unicode="&#xc5;" horiz-adv-x="1216" 
d="M829 1536q0 -97 -61 -152l397 -1384h-125l-114 393h-635l-113 -393h-127l395 1378q-67 55 -67 158q0 95 62.5 150t162.5 55t162.5 -55t62.5 -150zM553 1313l-231 -807h573l-231 807h-111zM475 1536q0 -47 23.5 -76t66.5 -37h78q42 8 66 37t24 76q0 55 -34 85t-95 30
t-95 -30t-34 -85z" />
    <glyph glyph-name="AE" unicode="&#xc6;" horiz-adv-x="1796" 
d="M844 0v389h-533l-135 -389h-131l479 1427h1172v-118h-727v-516h604v-119h-604v-555h727v-119h-852zM616 1309l-270 -799h498v799h-228z" />
    <glyph glyph-name="Ccedilla" unicode="&#xc7;" horiz-adv-x="1114" 
d="M885 -260q0 -87 -48.5 -129.5t-134.5 -42.5q-40 0 -83 3t-66 6l-23 3l5 82q84 -6 145 -6q92 0 92 84q0 76 -92 76h-96v166q-111 7 -191.5 43.5t-131.5 95t-81 149.5t-41.5 194t-11.5 243q0 150 12 257.5t45 202.5t90.5 153t149 91t219.5 33q165 0 385 -43l-6 -111
q-219 39 -369 39q-73 0 -130 -13.5t-98.5 -38t-71 -66t-48 -89t-29 -115.5t-14.5 -137.5t-4 -162.5q0 -92 4 -160.5t14.5 -135.5t29.5 -114t48.5 -87.5t71.5 -64.5t99 -37.5t130 -13.5q150 0 367 39l6 -110q-194 -40 -366 -43v-86q119 0 171 -32t52 -122z" />
    <glyph glyph-name="Egrave" unicode="&#xc8;" horiz-adv-x="1130" 
d="M178 0v1423h854v-114h-727v-529h604v-112h-604v-555h727v-113h-854zM408 1901l423 -203l-40 -88l-429 180z" />
    <glyph glyph-name="Eacute" unicode="&#xc9;" horiz-adv-x="1130" 
d="M178 0v1423h854v-114h-727v-529h604v-112h-604v-555h727v-113h-854zM373 1698l424 203l45 -111l-428 -180z" />
    <glyph glyph-name="Ecircumflex" unicode="&#xca;" horiz-adv-x="1130" 
d="M178 0v1423h854v-114h-727v-529h604v-112h-604v-555h727v-113h-854zM270 1634l275 269h106l275 -269h-142l-184 176l-186 -176h-144z" />
    <glyph glyph-name="Edieresis" unicode="&#xcb;" horiz-adv-x="1130" 
d="M178 0v1423h854v-114h-727v-529h604v-112h-604v-555h727v-113h-854zM338 1677v164h121v-164h-121zM750 1677v164h118v-164h-118z" />
    <glyph glyph-name="Igrave" unicode="&#xcc;" horiz-adv-x="483" 
d="M178 0v1423h127v-1423h-127zM6 1901l424 -203l-41 -88l-428 180z" />
    <glyph glyph-name="Iacute" unicode="&#xcd;" horiz-adv-x="483" 
d="M178 0v1423h127v-1423h-127zM29 1698l424 203l45 -111l-428 -180z" />
    <glyph glyph-name="Icircumflex" unicode="&#xce;" horiz-adv-x="483" 
d="M178 0v1423h127v-1423h-127zM-96 1634l274 269h107l274 -269h-141l-185 176l-186 -176h-143z" />
    <glyph glyph-name="Idieresis" unicode="&#xcf;" horiz-adv-x="483" 
d="M178 0v1423h127v-1423h-127zM-25 1677v164h121v-164h-121zM387 1677v164h119v-164h-119z" />
    <glyph glyph-name="Eth" unicode="&#xd0;" horiz-adv-x="1329" 
d="M39 655v119h145v653h516q508 0 508 -692q0 -123 -14.5 -226.5t-51 -199.5t-93 -163t-145.5 -106.5t-204 -39.5h-516v655h-145zM1077 735q0 574 -377 574h-391v-535h338v-119h-338v-536h391q87 0 154 35.5t108.5 93.5t68 140t36.5 166t10 181z" />
    <glyph glyph-name="Ntilde" unicode="&#xd1;" horiz-adv-x="1376" 
d="M178 0v1423h250l596 -1310h47v1310h125v-1423h-246l-600 1309h-45v-1309h-127zM987 1872l31 -92q-10 -13 -26 -31.5t-59 -50t-77 -31.5q-49 0 -175 58.5t-157 58.5q-20 0 -56 -26t-62 -52l-25 -25l-31 95q11 13 29 32t64 50.5t81 31.5q41 0 110 -28t132 -56t88 -28
q18 0 51.5 23.5t57.5 46.5z" />
    <glyph glyph-name="Ograve" unicode="&#xd2;" horiz-adv-x="1355" 
d="M678 94q106 0 180.5 24.5t122.5 69.5t75 122.5t37.5 169.5t10.5 225q0 126 -11 219t-39.5 172.5t-76 128.5t-122.5 76.5t-177 27.5q-103 0 -177.5 -27t-122 -76t-75.5 -129t-38.5 -172.5t-10.5 -219.5q0 -129 10 -219.5t37 -168.5t74.5 -124.5t122.5 -72.5t180 -26z
M678 -20q-163 0 -272 45.5t-171 141t-87 224t-25 314.5q0 147 15.5 258t54 204t101 152.5t158.5 92t226 32.5t226 -32.5t159.5 -91.5t101.5 -152t54 -204.5t16 -258.5q0 -152 -15.5 -263.5t-53.5 -202t-102 -146t-159.5 -84.5t-226.5 -29zM475 1901l424 -203l-41 -88
l-428 180z" />
    <glyph glyph-name="Oacute" unicode="&#xd3;" horiz-adv-x="1355" 
d="M678 94q106 0 180.5 24.5t122.5 69.5t75 122.5t37.5 169.5t10.5 225q0 126 -11 219t-39.5 172.5t-76 128.5t-122.5 76.5t-177 27.5q-103 0 -177.5 -27t-122 -76t-75.5 -129t-38.5 -172.5t-10.5 -219.5q0 -129 10 -219.5t37 -168.5t74.5 -124.5t122.5 -72.5t180 -26z
M678 -20q-163 0 -272 45.5t-171 141t-87 224t-25 314.5q0 147 15.5 258t54 204t101 152.5t158.5 92t226 32.5t226 -32.5t159.5 -91.5t101.5 -152t54 -204.5t16 -258.5q0 -152 -15.5 -263.5t-53.5 -202t-102 -146t-159.5 -84.5t-226.5 -29zM422 1698l424 203l45 -111
l-428 -180z" />
    <glyph glyph-name="Ocircumflex" unicode="&#xd4;" horiz-adv-x="1355" 
d="M678 94q106 0 180.5 24.5t122.5 69.5t75 122.5t37.5 169.5t10.5 225q0 126 -11 219t-39.5 172.5t-76 128.5t-122.5 76.5t-177 27.5q-103 0 -177.5 -27t-122 -76t-75.5 -129t-38.5 -172.5t-10.5 -219.5q0 -129 10 -219.5t37 -168.5t74.5 -124.5t122.5 -72.5t180 -26z
M678 -20q-163 0 -272 45.5t-171 141t-87 224t-25 314.5q0 147 15.5 258t54 204t101 152.5t158.5 92t226 32.5t226 -32.5t159.5 -91.5t101.5 -152t54 -204.5t16 -258.5q0 -152 -15.5 -263.5t-53.5 -202t-102 -146t-159.5 -84.5t-226.5 -29zM350 1634l275 269h106l275 -269
h-142l-184 176l-186 -176h-144z" />
    <glyph glyph-name="Otilde" unicode="&#xd5;" horiz-adv-x="1355" 
d="M678 94q106 0 180.5 24.5t122.5 69.5t75 122.5t37.5 169.5t10.5 225q0 126 -11 219t-39.5 172.5t-76 128.5t-122.5 76.5t-177 27.5q-103 0 -177.5 -27t-122 -76t-75.5 -129t-38.5 -172.5t-10.5 -219.5q0 -129 10 -219.5t37 -168.5t74.5 -124.5t122.5 -72.5t180 -26z
M678 -20q-163 0 -272 45.5t-171 141t-87 224t-25 314.5q0 147 15.5 258t54 204t101 152.5t158.5 92t226 32.5t226 -32.5t159.5 -91.5t101.5 -152t54 -204.5t16 -258.5q0 -152 -15.5 -263.5t-53.5 -202t-102 -146t-159.5 -84.5t-226.5 -29zM975 1872l31 -92
q-10 -13 -26 -31.5t-59 -50t-77 -31.5q-49 0 -175 58.5t-157 58.5q-20 0 -56 -26t-62 -52l-25 -25l-31 95q11 13 29 32t64 50.5t81 31.5q41 0 110 -28t132 -56t88 -28q18 0 51.5 23.5t57.5 46.5z" />
    <glyph glyph-name="Odieresis" unicode="&#xd6;" horiz-adv-x="1355" 
d="M678 94q106 0 180.5 24.5t122.5 69.5t75 122.5t37.5 169.5t10.5 225q0 126 -11 219t-39.5 172.5t-76 128.5t-122.5 76.5t-177 27.5q-103 0 -177.5 -27t-122 -76t-75.5 -129t-38.5 -172.5t-10.5 -219.5q0 -129 10 -219.5t37 -168.5t74.5 -124.5t122.5 -72.5t180 -26z
M678 -20q-163 0 -272 45.5t-171 141t-87 224t-25 314.5q0 147 15.5 258t54 204t101 152.5t158.5 92t226 32.5t226 -32.5t159.5 -91.5t101.5 -152t54 -204.5t16 -258.5q0 -152 -15.5 -263.5t-53.5 -202t-102 -146t-159.5 -84.5t-226.5 -29zM414 1677v164h121v-164h-121z
M825 1677v164h119v-164h-119z" />
    <glyph glyph-name="multiply" unicode="&#xd7;" 
d="M233 934l340 -344l340 344l80 -80l-344 -340l344 -340l-80 -82l-340 344l-340 -342l-79 80l342 340l-342 338z" />
    <glyph glyph-name="Oslash" unicode="&#xd8;" horiz-adv-x="1355" 
d="M678 -20q-150 0 -256 38l-117 -251l-96 43l121 258q-114 81 -160.5 236.5t-46.5 400.5q0 147 15.5 258t54 204t101 152.5t158.5 92t226 32.5q162 0 272 -49l111 235l96 -39l-119 -252q106 -86 151.5 -242.5t45.5 -391.5q0 -152 -15.5 -263.5t-53.5 -202t-102 -146
t-159.5 -84.5t-226.5 -29zM254 705q0 -201 28 -326t101 -195l516 1100q-88 45 -221 45q-103 0 -177.5 -27t-122 -76t-75.5 -129t-38.5 -172.5t-10.5 -219.5zM678 94q106 0 180.5 24.5t122.5 69.5t75 122.5t37.5 169.5t10.5 225q0 186 -27.5 313t-93.5 201l-510 -1092
q79 -33 205 -33z" />
    <glyph glyph-name="Ugrave" unicode="&#xd9;" horiz-adv-x="1314" 
d="M295 418q0 -171 90.5 -247.5t263.5 -76.5q184 0 276.5 75.5t92.5 248.5v1005h127v-1005q0 -231 -125 -334.5t-371 -103.5q-235 0 -357 104t-122 334v1005h125v-1005zM457 1901l424 -203l-41 -88l-428 180z" />
    <glyph glyph-name="Uacute" unicode="&#xda;" horiz-adv-x="1314" 
d="M295 418q0 -171 90.5 -247.5t263.5 -76.5q184 0 276.5 75.5t92.5 248.5v1005h127v-1005q0 -231 -125 -334.5t-371 -103.5q-235 0 -357 104t-122 334v1005h125v-1005zM420 1698l424 203l45 -111l-428 -180z" />
    <glyph glyph-name="Ucircumflex" unicode="&#xdb;" horiz-adv-x="1314" 
d="M295 418q0 -171 90.5 -247.5t263.5 -76.5q184 0 276.5 75.5t92.5 248.5v1005h127v-1005q0 -231 -125 -334.5t-371 -103.5q-235 0 -357 104t-122 334v1005h125v-1005zM328 1634l274 269h107l274 -269h-141l-185 176l-186 -176h-143z" />
    <glyph glyph-name="Udieresis" unicode="&#xdc;" horiz-adv-x="1314" 
d="M295 418q0 -171 90.5 -247.5t263.5 -76.5q184 0 276.5 75.5t92.5 248.5v1005h127v-1005q0 -231 -125 -334.5t-371 -103.5q-235 0 -357 104t-122 334v1005h125v-1005zM391 1677v164h121v-164h-121zM803 1677v164h119v-164h-119z" />
    <glyph glyph-name="Yacute" unicode="&#xdd;" horiz-adv-x="1093" 
d="M610 602v-602h-127v602l-456 821h141l379 -690l377 690h143zM358 1698l424 203l45 -111l-428 -180z" />
    <glyph glyph-name="Thorn" unicode="&#xde;" horiz-adv-x="1228" 
d="M698 379q161 0 237.5 95t76.5 269q0 170 -74.5 249t-239.5 79h-393v-692h393zM698 258h-393v-258h-127v1427h127v-237h393q228 0 335.5 -109t107.5 -338q0 -233 -109.5 -359t-333.5 -126z" />
    <glyph glyph-name="germandbls" unicode="&#xdf;" horiz-adv-x="1155" 
d="M274 0h-120v1128q0 207 88 289t293 82t291.5 -67.5t86.5 -221.5q0 -108 -36.5 -167.5t-122.5 -96.5q-76 -36 -99.5 -54.5t-23.5 -47.5q0 -33 34.5 -59.5t143.5 -82.5q155 -77 211.5 -143.5t56.5 -189.5q0 -209 -93 -299t-316 -90q-43 0 -107 6.5t-107 13.5l-42 6l6 107
q167 -21 241 -21q161 0 225 62.5t64 197.5q0 93 -45 141.5t-186 118.5q-127 63 -170 107.5t-43 116.5q0 67 37 104.5t121 75.5q71 33 96.5 74t25.5 114q0 101 -54 141.5t-195 40.5q-73 0 -119 -11.5t-79.5 -42.5t-48 -85t-14.5 -139v-1108z" />
    <glyph glyph-name="agrave" unicode="&#xe0;" horiz-adv-x="1021" 
d="M858 719v-549q7 -75 133 -90l-6 -98q-158 0 -231 81q-22 -9 -59 -23t-138.5 -37t-187.5 -23q-136 0 -208.5 78.5t-72.5 230.5q0 141 72.5 212.5t228.5 86.5l348 35v96q0 114 -49.5 164.5t-150.5 50.5q-65 0 -162 -8t-161 -16l-64 -7l-7 98q226 43 398 43q165 0 241 -80
t76 -245zM737 526l-334 -34q-101 -9 -144.5 -57.5t-43.5 -143.5q0 -99 43 -153t127 -54q74 0 162 18t139 36l51 18v370zM301 1509l424 -198l-39 -86l-430 178z" />
    <glyph glyph-name="aacute" unicode="&#xe1;" horiz-adv-x="1021" 
d="M858 719v-549q7 -75 133 -90l-6 -98q-158 0 -231 81q-22 -9 -59 -23t-138.5 -37t-187.5 -23q-136 0 -208.5 78.5t-72.5 230.5q0 141 72.5 212.5t228.5 86.5l348 35v96q0 114 -49.5 164.5t-150.5 50.5q-65 0 -162 -8t-161 -16l-64 -7l-7 98q226 43 398 43q165 0 241 -80
t76 -245zM737 526l-334 -34q-101 -9 -144.5 -57.5t-43.5 -143.5q0 -99 43 -153t127 -54q74 0 162 18t139 36l51 18v370zM252 1311l424 198l45 -106l-430 -178z" />
    <glyph glyph-name="acircumflex" unicode="&#xe2;" horiz-adv-x="1021" 
d="M858 719v-549q7 -75 133 -90l-6 -98q-158 0 -231 81q-22 -9 -59 -23t-138.5 -37t-187.5 -23q-136 0 -208.5 78.5t-72.5 230.5q0 141 72.5 212.5t228.5 86.5l348 35v96q0 114 -49.5 164.5t-150.5 50.5q-65 0 -162 -8t-161 -16l-64 -7l-7 98q226 43 398 43q165 0 241 -80
t76 -245zM737 526l-334 -34q-101 -9 -144.5 -57.5t-43.5 -143.5q0 -99 43 -153t127 -54q74 0 162 18t139 36l51 18v370zM201 1219l250 280h86l251 -280h-129l-163 188l-166 -188h-129z" />
    <glyph glyph-name="atilde" unicode="&#xe3;" horiz-adv-x="1021" 
d="M858 719v-549q7 -75 133 -90l-6 -98q-158 0 -231 81q-22 -9 -59 -23t-138.5 -37t-187.5 -23q-136 0 -208.5 78.5t-72.5 230.5q0 141 72.5 212.5t228.5 86.5l348 35v96q0 114 -49.5 164.5t-150.5 50.5q-65 0 -162 -8t-161 -16l-64 -7l-7 98q226 43 398 43q165 0 241 -80
t76 -245zM737 526l-334 -34q-101 -9 -144.5 -57.5t-43.5 -143.5q0 -99 43 -153t127 -54q74 0 162 18t139 36l51 18v370zM774 1450l29 -86q-10 -11 -27.5 -27t-61.5 -42.5t-77 -26.5q-43 0 -151.5 50t-139.5 50q-21 0 -57.5 -21t-62.5 -42l-27 -21l-31 82q4 4 11.5 11
t29 24.5t42.5 31t48 24.5t49 11q43 0 152.5 -49t138.5 -49q18 0 52 20t59 40z" />
    <glyph glyph-name="adieresis" unicode="&#xe4;" horiz-adv-x="1021" 
d="M858 719v-549q7 -75 133 -90l-6 -98q-158 0 -231 81q-22 -9 -59 -23t-138.5 -37t-187.5 -23q-136 0 -208.5 78.5t-72.5 230.5q0 141 72.5 212.5t228.5 86.5l348 35v96q0 114 -49.5 164.5t-150.5 50.5q-65 0 -162 -8t-161 -16l-64 -7l-7 98q226 43 398 43q165 0 241 -80
t76 -245zM737 526l-334 -34q-101 -9 -144.5 -57.5t-43.5 -143.5q0 -99 43 -153t127 -54q74 0 162 18t139 36l51 18v370zM236 1284v164h120v-164h-120zM639 1284v164h119v-164h-119z" />
    <glyph glyph-name="aring" unicode="&#xe5;" horiz-adv-x="1021" 
d="M858 719v-549q7 -75 133 -90l-6 -98q-158 0 -231 81q-22 -9 -59 -23t-138.5 -37t-187.5 -23q-136 0 -208.5 78.5t-72.5 230.5q0 141 72.5 212.5t228.5 86.5l348 35v96q0 114 -49.5 164.5t-150.5 50.5q-65 0 -162 -8t-161 -16l-64 -7l-7 98q226 43 398 43q165 0 241 -80
t76 -245zM737 526l-334 -34q-101 -9 -144.5 -57.5t-43.5 -143.5q0 -99 43 -153t127 -54q74 0 162 18t139 36l51 18v370zM311 1325q0 86 59.5 145.5t147.5 59.5q86 0 145.5 -59.5t59.5 -145.5q0 -88 -59.5 -147.5t-145.5 -59.5q-88 0 -147.5 59.5t-59.5 147.5zM399 1325
q0 -51 34 -87t85 -36q49 0 83 36t34 87q0 50 -34 84.5t-83 34.5q-51 0 -85 -34.5t-34 -84.5z" />
    <glyph glyph-name="ae" unicode="&#xe6;" horiz-adv-x="1656" 
d="M1145 92q67 0 160 5t153 9l60 5l4 -103q-229 -28 -389 -28q-205 0 -299 114l-70 -31q-27 -12 -67 -26.5t-141.5 -35.5t-195.5 -21q-134 0 -203 78.5t-69 230.5q0 68 15 117t41.5 81.5t74.5 54t103.5 33.5t138.5 21l276 27v92q0 211 -196 211q-68 0 -165 -5t-160 -11
l-64 -5l-5 111q238 26 398 26q221 0 278 -165q101 165 334 165q203 0 303.5 -115t100.5 -368l-7 -98h-696q2 -189 66.5 -279t220.5 -90zM375 88q74 0 174 21t149 37t82 28q-47 112 -47 346l-330 -31q-99 -9 -143.5 -55.5t-44.5 -142.5q0 -99 42 -151t118 -52zM858 563h578
q0 199 -67 285t-212 86q-299 0 -299 -371z" />
    <glyph glyph-name="ccedilla" unicode="&#xe7;" horiz-adv-x="886" 
d="M727 -260q0 -88 -48.5 -130t-133.5 -42q-40 0 -83 3t-66 6l-23 3l4 82q84 -6 145 -6q92 0 92 84q0 76 -92 76h-96v170q-180 23 -247.5 146t-67.5 398q0 280 97 397t327 117q39 0 105.5 -6.5t113.5 -13.5l47 -6l-6 -105q-162 21 -240 21q-182 0 -249.5 -89.5t-67.5 -314.5
q0 -103 7.5 -170.5t27 -123t55.5 -85.5t91 -45.5t136 -15.5q35 0 96 5t105 9l43 5l4 -105q-183 -24 -271 -24h-28v-86q119 0 171 -32t52 -122z" />
    <glyph glyph-name="egrave" unicode="&#xe8;" horiz-adv-x="1032" 
d="M518 90q67 0 160.5 5t153.5 9l61 5l4 -101q-231 -28 -391 -28q-113 1 -190.5 34.5t-122.5 102.5t-64.5 163.5t-19.5 227.5q0 536 421 536q202 0 303 -116t101 -369l-4 -98h-697q0 -189 64.5 -280t220.5 -91zM233 563h578q0 203 -67 289t-214 86q-145 0 -221 -89t-76 -286
zM297 1511l424 -198l-39 -86l-430 178z" />
    <glyph glyph-name="eacute" unicode="&#xe9;" horiz-adv-x="1032" 
d="M518 90q67 0 160.5 5t153.5 9l61 5l4 -101q-231 -28 -391 -28q-113 1 -190.5 34.5t-122.5 102.5t-64.5 163.5t-19.5 227.5q0 536 421 536q202 0 303 -116t101 -369l-4 -98h-697q0 -189 64.5 -280t220.5 -91zM233 563h578q0 203 -67 289t-214 86q-145 0 -221 -89t-76 -286
zM315 1311l424 198l45 -106l-430 -178z" />
    <glyph glyph-name="ecircumflex" unicode="&#xea;" horiz-adv-x="1032" 
d="M518 90q67 0 160.5 5t153.5 9l61 5l4 -101q-231 -28 -391 -28q-113 1 -190.5 34.5t-122.5 102.5t-64.5 163.5t-19.5 227.5q0 536 421 536q202 0 303 -116t101 -369l-4 -98h-697q0 -189 64.5 -280t220.5 -91zM233 563h578q0 203 -67 289t-214 86q-145 0 -221 -89t-76 -286
zM242 1219l250 280h86l251 -280h-129l-163 188l-166 -188h-129z" />
    <glyph glyph-name="edieresis" unicode="&#xeb;" horiz-adv-x="1032" 
d="M518 90q67 0 160.5 5t153.5 9l61 5l4 -101q-231 -28 -391 -28q-113 1 -190.5 34.5t-122.5 102.5t-64.5 163.5t-19.5 227.5q0 536 421 536q202 0 303 -116t101 -369l-4 -98h-697q0 -189 64.5 -280t220.5 -91zM233 563h578q0 203 -67 289t-214 86q-145 0 -221 -89t-76 -286
zM262 1284v164h121v-164h-121zM666 1284v164h118v-164h-118z" />
    <glyph glyph-name="igrave" unicode="&#xec;" horiz-adv-x="428" 
d="M154 0v1024h120v-1024h-120zM-78 1509l424 -198l-39 -86l-430 178z" />
    <glyph glyph-name="iacute" unicode="&#xed;" horiz-adv-x="428" 
d="M82 1311l424 198l45 -106l-430 -178zM154 1024v-1024h120v1024h-120z" />
    <glyph glyph-name="icircumflex" unicode="&#xee;" horiz-adv-x="428" 
d="M154 1024v-1024h120v1024h-120zM-82 1219l250 280h86l252 -280h-129l-164 188l-166 -188h-129z" />
    <glyph glyph-name="idieresis" unicode="&#xef;" horiz-adv-x="428" 
d="M154 1024v-1024h120v1024h-120zM-55 1284v164h121v-164h-121zM348 1284v164h119v-164h-119z" />
    <glyph glyph-name="eth" unicode="&#xf0;" horiz-adv-x="1112" 
d="M319 1094l-59 80l205 137q-112 51 -262 92l28 96q194 -47 338 -117l209 140l60 -80l-170 -115q331 -207 331 -604q0 -272 -47.5 -433.5t-147 -234.5t-265.5 -73q-214 0 -332.5 117.5t-118.5 338.5q0 199 113 319t313 120q68 0 157 -20t144 -40l55 -20q-13 287 -305 460z
M520 764q-142 0 -222.5 -91t-80.5 -235q0 -165 82.5 -254.5t239.5 -89.5q122 0 192.5 54.5t104.5 182t36 353.5q-23 9 -61 22.5t-132 35.5t-159 22z" />
    <glyph glyph-name="ntilde" unicode="&#xf1;" horiz-adv-x="1091" 
d="M154 0h120v848q18 10 48 24t113.5 38t154.5 24q52 0 89 -8.5t63.5 -29.5t43 -49.5t25.5 -77t12.5 -103t3.5 -134.5v-532h123v539q0 118 -9 197.5t-30.5 141.5t-61 97t-98 52t-143.5 17q-72 0 -155.5 -24t-130.5 -48l-48 -24v76h-120v-1024zM854 1450l29 -86
q-10 -11 -27.5 -27t-61.5 -42.5t-77 -26.5q-43 0 -151.5 50t-139.5 50q-21 0 -57.5 -21t-62.5 -42l-27 -21l-31 82q4 4 11.5 11t29 24.5t42.5 31t48 24.5t49 11q43 0 152.5 -49t138.5 -49q18 0 52 20t59 40z" />
    <glyph glyph-name="ograve" unicode="&#xf2;" horiz-adv-x="1079" 
d="M541 1044q233 0 330.5 -121.5t97.5 -396.5q0 -151 -19 -249.5t-67 -167.5t-131 -99t-211 -30q-129 0 -212.5 30t-131.5 99t-67 167t-19 250q0 275 97.5 396.5t332.5 121.5zM541 88q66 0 114 10t82 34.5t54.5 56.5t32.5 85t16 110.5t4 141.5q0 232 -64.5 321t-238.5 89
q-175 0 -239 -88.5t-64 -321.5q0 -102 6 -167t24 -121.5t51.5 -86.5t87.5 -46.5t134 -16.5zM344 1509l424 -198l-39 -86l-430 178z" />
    <glyph glyph-name="oacute" unicode="&#xf3;" horiz-adv-x="1079" 
d="M541 1044q-235 0 -332.5 -121.5t-97.5 -396.5q0 -152 19 -250t67 -167t131.5 -99t212.5 -30q128 0 211 30t131 99t67 167.5t19 249.5q0 275 -97.5 396.5t-330.5 121.5zM541 88q-80 0 -134 16.5t-87.5 46.5t-51.5 86.5t-24 121.5t-6 167q0 233 64 321.5t239 88.5
q174 0 238.5 -89t64.5 -321q0 -84 -4 -141.5t-16 -110.5t-32.5 -85t-54.5 -56.5t-82 -34.5t-114 -10zM334 1311l424 198l45 -106l-430 -178z" />
    <glyph glyph-name="ocircumflex" unicode="&#xf4;" horiz-adv-x="1079" 
d="M541 1044q-235 0 -332.5 -121.5t-97.5 -396.5q0 -152 19 -250t67 -167t131.5 -99t212.5 -30q128 0 211 30t131 99t67 167.5t19 249.5q0 275 -97.5 396.5t-330.5 121.5zM541 88q-80 0 -134 16.5t-87.5 46.5t-51.5 86.5t-24 121.5t-6 167q0 233 64 321.5t239 88.5
q174 0 238.5 -89t64.5 -321q0 -84 -4 -141.5t-16 -110.5t-32.5 -85t-54.5 -56.5t-82 -34.5t-114 -10zM244 1219l250 280h86l251 -280h-129l-163 188l-166 -188h-129z" />
    <glyph glyph-name="otilde" unicode="&#xf5;" horiz-adv-x="1079" 
d="M541 1044q-235 0 -332.5 -121.5t-97.5 -396.5q0 -152 19 -250t67 -167t131.5 -99t212.5 -30q128 0 211 30t131 99t67 167.5t19 249.5q0 275 -97.5 396.5t-330.5 121.5zM541 88q-80 0 -134 16.5t-87.5 46.5t-51.5 86.5t-24 121.5t-6 167q0 233 64 321.5t239 88.5
q174 0 238.5 -89t64.5 -321q0 -84 -4 -141.5t-16 -110.5t-32.5 -85t-54.5 -56.5t-82 -34.5t-114 -10zM827 1450l29 -86q-10 -11 -27.5 -27t-61.5 -42.5t-77 -26.5q-43 0 -151.5 50t-139.5 50q-21 0 -57.5 -21t-63.5 -42l-26 -21l-31 82q4 4 11.5 11t29 24.5t42.5 31t48 24.5
t49 11q43 0 152.5 -49t138.5 -49q18 0 52 20t58 40z" />
    <glyph glyph-name="odieresis" unicode="&#xf6;" horiz-adv-x="1079" 
d="M541 1044q-235 0 -332.5 -121.5t-97.5 -396.5q0 -152 19 -250t67 -167t131.5 -99t212.5 -30q128 0 211 30t131 99t67 167.5t19 249.5q0 275 -97.5 396.5t-330.5 121.5zM541 88q-80 0 -134 16.5t-87.5 46.5t-51.5 86.5t-24 121.5t-6 167q0 233 64 321.5t239 88.5
q174 0 238.5 -89t64.5 -321q0 -84 -4 -141.5t-16 -110.5t-32.5 -85t-54.5 -56.5t-82 -34.5t-114 -10zM270 1284v164h121v-164h-121zM674 1284v164h119v-164h-119z" />
    <glyph glyph-name="divide" unicode="&#xf7;" 
d="M199 539v120h749v-120h-749zM426 686v184h295v-184h-295zM510 68v190h125v-190h-125z" />
    <glyph glyph-name="oslash" unicode="&#xf8;" horiz-adv-x="1079" 
d="M541 1044q91 0 159 -18l88 213l89 -31l-91 -215q97 -53 140 -166.5t43 -300.5q0 -151 -19 -249.5t-67 -167.5t-131 -99t-211 -30q-90 0 -162 16l-92 -227l-86 30l90 228q-100 52 -140 170.5t-40 328.5q0 275 97.5 396.5t332.5 121.5zM541 936q-175 0 -239 -88.5
t-64 -321.5q0 -171 20 -261.5t82 -131.5l319 789q-46 14 -118 14zM541 88q66 0 114 10t82 34.5t54.5 56.5t32.5 85t16 110.5t4 141.5q0 145 -23.5 231t-79.5 128l-321 -785q49 -12 121 -12z" />
    <glyph glyph-name="ugrave" unicode="&#xf9;" horiz-adv-x="1075" 
d="M801 1024h121v-1024h-121v76q-18 -11 -48.5 -27t-114 -42.5t-153.5 -26.5q-72 0 -124.5 10.5t-91 36.5t-62.5 63t-38.5 97t-20 131t-5.5 171v535h121v-532q0 -98 5 -159.5t19 -112.5t40.5 -77t68 -39.5t103.5 -13.5q72 0 147 21.5t115 42.5l39 22v848zM287 1509l424 -198
l-39 -86l-430 178z" />
    <glyph glyph-name="uacute" unicode="&#xfa;" horiz-adv-x="1075" 
d="M922 1024h-121v-848q-6 -3 -16 -9t-43 -21t-66.5 -26t-82 -20.5t-93.5 -9.5q-62 0 -103.5 13.5t-68 39.5t-40.5 77t-19 112.5t-5 159.5v532h-121v-535q0 -100 5.5 -171t20 -131t38.5 -97t62.5 -63t91 -36.5t124.5 -10.5q70 0 149 24t123 48l44 24v-76h121v1024zM330 1311
l424 198l45 -106l-430 -178z" />
    <glyph glyph-name="ucircumflex" unicode="&#xfb;" horiz-adv-x="1075" 
d="M922 1024h-121v-848q-6 -3 -16 -9t-43 -21t-66.5 -26t-82 -20.5t-93.5 -9.5q-62 0 -103.5 13.5t-68 39.5t-40.5 77t-19 112.5t-5 159.5v532h-121v-535q0 -100 5.5 -171t20 -131t38.5 -97t62.5 -63t91 -36.5t124.5 -10.5q70 0 149 24t123 48l44 24v-76h121v1024zM227 1219
l250 280h86l252 -280h-129l-164 188l-166 -188h-129z" />
    <glyph glyph-name="udieresis" unicode="&#xfc;" horiz-adv-x="1075" 
d="M922 1024h-121v-848q-6 -3 -16 -9t-43 -21t-66.5 -26t-82 -20.5t-93.5 -9.5q-62 0 -103.5 13.5t-68 39.5t-40.5 77t-19 112.5t-5 159.5v532h-121v-535q0 -100 5.5 -171t20 -131t38.5 -97t62.5 -63t91 -36.5t124.5 -10.5q70 0 149 24t123 48l44 24v-76h121v1024zM283 1284
v164h120v-164h-120zM686 1284v164h119v-164h-119z" />
    <glyph glyph-name="yacute" unicode="&#xfd;" horiz-adv-x="978" 
d="M55 1024h125l273 -918h73l275 918h125l-443 -1485h-123l138 461h-142zM330 1311l424 198l45 -106l-430 -178z" />
    <glyph glyph-name="thorn" unicode="&#xfe;" horiz-adv-x="1069" 
d="M485 88q89 0 151 18t101 50t60.5 89t29 122t7.5 161q0 219 -52.5 312.5t-195.5 93.5q-70 0 -148 -17.5t-121 -34.5l-43 -18v-764q143 -12 211 -12zM594 1044q205 0 284.5 -117t79.5 -397q0 -153 -21.5 -253.5t-75 -169t-142.5 -98t-225 -29.5q-36 0 -91 3.5t-92 6.5
l-37 4v-455h-120v1940h120v-510q18 8 49.5 20.5t116 33.5t154.5 21z" />
    <glyph glyph-name="ydieresis" unicode="&#xff;" horiz-adv-x="978" 
d="M55 1024h125l273 -918h73l275 918h125l-443 -1485h-123l138 461h-142zM225 1284v164h121v-164h-121zM629 1284v164h119v-164h-119z" />
    <glyph glyph-name="Amacron" unicode="&#x100;" horiz-adv-x="1216" 
d="M51 0l410 1423h297l407 -1423h-125l-114 393h-635l-113 -393h-127zM553 1313l-231 -807h573l-231 807h-111zM299 1677v101h619v-101h-619z" />
    <glyph glyph-name="amacron" unicode="&#x101;" horiz-adv-x="1021" 
d="M858 719v-549q7 -75 133 -90l-6 -98q-158 0 -231 81q-22 -9 -59 -23t-138.5 -37t-187.5 -23q-136 0 -208.5 78.5t-72.5 230.5q0 141 72.5 212.5t228.5 86.5l348 35v96q0 114 -49.5 164.5t-150.5 50.5q-65 0 -162 -8t-161 -16l-64 -7l-7 98q226 43 398 43q165 0 241 -80
t76 -245zM737 526l-334 -34q-101 -9 -144.5 -57.5t-43.5 -143.5q0 -99 43 -153t127 -54q74 0 162 18t139 36l51 18v370zM231 1292v101h557v-101h-557z" />
    <glyph glyph-name="Abreve" unicode="&#x102;" horiz-adv-x="1216" 
d="M51 0l410 1423h297l407 -1423h-125l-114 393h-635l-113 -393h-127zM553 1313l-231 -807h573l-231 807h-111zM297 1884h117q1 -73 56 -117.5t134 -44.5q80 0 136 44.5t57 117.5h114q-3 -116 -88.5 -188t-218.5 -72q-132 0 -217.5 71.5t-89.5 188.5z" />
    <glyph glyph-name="abreve" unicode="&#x103;" horiz-adv-x="1026" 
d="M858 180v535q0 168 -76.5 247.5t-236.5 79.5q-71 0 -171.5 -9.5t-165.5 -18.5l-65 -10l9 -109q239 31 389 31q196 0 196 -211v-92l-348 -35q-156 -13 -228.5 -85.5t-72.5 -213.5q0 -150 71 -229.5t201 -79.5q93 0 191.5 20t150.5 40l52 19q38 -42 92 -59.5t139 -17.5
l6 106q-126 15 -133 92zM403 489l334 31v-362q-21 -8 -57 -19.5t-132 -31t-173 -19.5q-76 0 -118 53t-42 150q0 182 188 198zM205 1493h125q2 -77 51 -123.5t135 -46.5t135 46.5t51 123.5h125q-3 -124 -86 -202.5t-225 -78.5q-141 0 -223.5 78t-87.5 203z" />
    <glyph glyph-name="Aogonek" unicode="&#x104;" horiz-adv-x="1216" 
d="M51 0l410 1423h297l407 -1423h-12q-17 -17 -45 -47.5t-67.5 -87t-39.5 -84.5q0 -40 25 -67t64 -27q15 0 41.5 3t45.5 6l19 3l12 -98q-83 -19 -149 -19q-78 0 -128 47t-50 127q0 43 34.5 101t66 92.5t56.5 56.5l-112 387h-635l-113 -393h-127zM553 1313l-231 -807h573
l-231 807h-111z" />
    <glyph glyph-name="aogonek" unicode="&#x105;" horiz-adv-x="1019" 
d="M858 719v-549q7 -75 133 -90l-6 -98q-27 0 -67 4q-136 -151 -136 -205q0 -40 24.5 -67t63.5 -27q15 0 41.5 3t46.5 6l19 3l12 -98q-83 -19 -149 -19q-78 0 -128 47t-50 127q0 35 20.5 77t52 80t51.5 60t37 37q-41 18 -69 53q-22 -9 -59 -23t-138.5 -37t-187.5 -23
q-136 0 -208.5 78.5t-72.5 230.5q0 141 72.5 212.5t228.5 86.5l348 35v96q0 114 -49.5 164.5t-150.5 50.5q-65 0 -162 -8t-161 -16l-64 -7l-7 98q226 43 398 43q165 0 241 -80t76 -245zM737 526l-334 -34q-101 -9 -144.5 -57.5t-43.5 -143.5q0 -99 43 -153t127 -54
q74 0 162 18t139 36l51 18v370z" />
    <glyph glyph-name="Cacute" unicode="&#x106;" horiz-adv-x="1114" 
d="M1022 133l6 -110q-215 -43 -385 -43q-125 0 -216 32t-149 89.5t-91.5 150.5t-46.5 200.5t-13 254.5q0 150 12 257.5t45 202.5t90.5 153t149 91t219.5 33q165 0 385 -43l-6 -111q-219 39 -369 39q-73 0 -130 -13.5t-98.5 -38t-71 -66t-48 -89t-29 -115.5t-14.5 -137.5
t-4 -162.5q0 -92 4 -160.5t14.5 -135.5t29.5 -114t48.5 -87.5t71.5 -64.5t99 -37.5t130 -13.5q150 0 367 39zM389 1698l424 203l45 -111l-428 -180z" />
    <glyph glyph-name="cacute" unicode="&#x107;" horiz-adv-x="886" 
d="M535 1044q39 0 105.5 -6.5t113.5 -13.5l47 -6l-6 -105q-162 21 -240 21q-182 0 -249.5 -89.5t-67.5 -314.5q0 -103 7.5 -170.5t27 -123t55.5 -85.5t91 -45.5t136 -15.5q35 0 96 5t105 9l43 5l4 -105q-183 -24 -271 -24q-101 0 -171.5 19t-120 58t-77.5 106t-40 154.5
t-12 212.5q0 280 97 397t327 117zM272 1311l424 198l45 -106l-430 -178z" />
    <glyph glyph-name="Ccircumflex" unicode="&#x108;" horiz-adv-x="1114" 
d="M1022 133l6 -110q-215 -43 -385 -43q-125 0 -216 32t-149 89.5t-91.5 150.5t-46.5 200.5t-13 254.5q0 150 12 257.5t45 202.5t90.5 153t149 91t219.5 33q165 0 385 -43l-6 -111q-219 39 -369 39q-73 0 -130 -13.5t-98.5 -38t-71 -66t-48 -89t-29 -115.5t-14.5 -137.5
t-4 -162.5q0 -92 4 -160.5t14.5 -135.5t29.5 -114t48.5 -87.5t71.5 -64.5t99 -37.5t130 -13.5q150 0 367 39zM313 1634l275 269h106l275 -269h-142l-184 176l-186 -176h-144z" />
    <glyph glyph-name="ccircumflex" unicode="&#x109;" horiz-adv-x="886" 
d="M535 1044q39 0 105.5 -6.5t113.5 -13.5l47 -6l-6 -105q-162 21 -240 21q-182 0 -249.5 -89.5t-67.5 -314.5q0 -103 7.5 -170.5t27 -123t55.5 -85.5t91 -45.5t136 -15.5q35 0 96 5t105 9l43 5l4 -105q-183 -24 -271 -24q-101 0 -171.5 19t-120 58t-77.5 106t-40 154.5
t-12 212.5q0 280 97 397t327 117zM186 1219l250 280h86l252 -280h-129l-164 188l-166 -188h-129z" />
    <glyph glyph-name="Cdotaccent" unicode="&#x10a;" horiz-adv-x="1114" 
d="M1022 133l6 -110q-215 -43 -385 -43q-125 0 -216 32t-149 89.5t-91.5 150.5t-46.5 200.5t-13 254.5q0 150 12 257.5t45 202.5t90.5 153t149 91t219.5 33q165 0 385 -43l-6 -111q-219 39 -369 39q-73 0 -130 -13.5t-98.5 -38t-71 -66t-48 -89t-29 -115.5t-14.5 -137.5
t-4 -162.5q0 -92 4 -160.5t14.5 -135.5t29.5 -114t48.5 -87.5t71.5 -64.5t99 -37.5t130 -13.5q150 0 367 39zM541 1653v153h123v-153h-123z" />
    <glyph glyph-name="cdotaccent" unicode="&#x10b;" horiz-adv-x="886" 
d="M535 1044q39 0 105.5 -6.5t113.5 -13.5l47 -6l-6 -105q-162 21 -240 21q-182 0 -249.5 -89.5t-67.5 -314.5q0 -103 7.5 -170.5t27 -123t55.5 -85.5t91 -45.5t136 -15.5q35 0 96 5t105 9l43 5l4 -105q-183 -24 -271 -24q-101 0 -171.5 19t-120 58t-77.5 106t-40 154.5
t-12 212.5q0 280 97 397t327 117zM449 1276v154h122v-154h-122z" />
    <glyph glyph-name="Ccaron" unicode="&#x10c;" horiz-adv-x="1114" 
d="M1022 133l6 -110q-215 -43 -385 -43q-125 0 -216 32t-149 89.5t-91.5 150.5t-46.5 200.5t-13 254.5q0 150 12 257.5t45 202.5t90.5 153t149 91t219.5 33q165 0 385 -43l-6 -111q-219 39 -369 39q-73 0 -130 -13.5t-98.5 -38t-71 -66t-48 -89t-29 -115.5t-14.5 -137.5
t-4 -162.5q0 -92 4 -160.5t14.5 -135.5t29.5 -114t48.5 -87.5t71.5 -64.5t99 -37.5t130 -13.5q150 0 367 39zM565 1634l-274 269h141l186 -177l185 177h143l-274 -269h-107z" />
    <glyph glyph-name="ccaron" unicode="&#x10d;" horiz-adv-x="886" 
d="M535 1044q39 0 105.5 -6.5t113.5 -13.5l47 -6l-6 -105q-162 21 -240 21q-182 0 -249.5 -89.5t-67.5 -314.5q0 -103 7.5 -170.5t27 -123t55.5 -85.5t91 -45.5t136 -15.5q35 0 96 5t105 9l43 5l4 -105q-183 -24 -271 -24q-101 0 -171.5 19t-120 58t-77.5 106t-40 154.5
t-12 212.5q0 280 97 397t327 117zM446 1219l-249 280h127l168 -186l165 186h127l-252 -280h-86z" />
    <glyph glyph-name="Dcaron" unicode="&#x10e;" horiz-adv-x="1323" 
d="M696 0h-518v1423h518q506 0 506 -692q0 -123 -14.5 -226t-50.5 -198.5t-92 -161.5t-145 -105.5t-204 -39.5zM1071 731q0 578 -375 578h-391v-1196h391q73 0 131.5 24t99 68t69 100.5t45 128t23.5 144t7 153.5zM545 1634l-275 269h142l186 -177l184 177h144l-275 -269
h-106z" />
    <glyph glyph-name="dcaron" unicode="&#x10f;" horiz-adv-x="1130" 
d="M1126 1403l-79 -412h104l98 412h-123zM920 1479v-1479h-123v76q-7 -4 -18.5 -10.5t-48.5 -23t-74 -29t-89 -23t-98 -10.5q-59 0 -104.5 9t-96 41t-83.5 86.5t-54.5 152t-21.5 231.5q0 278 98 411t332 133q89 0 258 -26v461h123zM481 90q69 0 148 22t123 44l45 22v733
q-171 25 -254 25q-90 0 -150.5 -27.5t-94.5 -86t-48 -135t-14 -187.5q0 -105 14.5 -181.5t37 -119.5t56.5 -68.5t65.5 -33t71.5 -7.5z" />
    <glyph glyph-name="Dcroat" unicode="&#x110;" horiz-adv-x="1329" 
d="M39 655v119h145v653h516q508 0 508 -692q0 -123 -14.5 -226.5t-51 -199.5t-93 -163t-145.5 -106.5t-204 -39.5h-516v655h-145zM1077 735q0 574 -377 574h-391v-535h338v-119h-338v-536h391q87 0 154 35.5t108.5 93.5t68 140t36.5 166t10 181z" />
    <glyph glyph-name="dcroat" unicode="&#x111;" horiz-adv-x="1071" 
d="M920 1479v-97h73v-108h-73v-1274h-123v76q-7 -4 -18.5 -10.5t-48.5 -23t-74 -29t-89 -23t-98 -10.5q-59 0 -104.5 9t-96 41t-83.5 86.5t-54.5 152t-21.5 231.5q0 278 98 411t332 133q89 0 258 -26v256h-381v108h381v97h123zM481 90q69 0 148 22t123 44l45 22v733
q-171 25 -254 25q-90 0 -150.5 -27.5t-94.5 -86t-48 -135t-14 -187.5q0 -105 14.5 -181.5t37 -119.5t56.5 -68.5t65.5 -33t71.5 -7.5z" />
    <glyph glyph-name="Emacron" unicode="&#x112;" horiz-adv-x="1130" 
d="M178 0v1423h854v-114h-727v-529h604v-112h-604v-555h727v-113h-854zM293 1677v101h618v-101h-618z" />
    <glyph glyph-name="emacron" unicode="&#x113;" horiz-adv-x="1032" 
d="M518 90q67 0 160.5 5t153.5 9l61 5l4 -101q-231 -28 -391 -28q-113 1 -190.5 34.5t-122.5 102.5t-64.5 163.5t-19.5 227.5q0 536 421 536q202 0 303 -116t101 -369l-4 -98h-697q0 -189 64.5 -280t220.5 -91zM233 563h578q0 203 -67 289t-214 86q-145 0 -221 -89t-76 -286
zM258 1292v101h557v-101h-557z" />
    <glyph glyph-name="Ebreve" unicode="&#x114;" horiz-adv-x="1130" 
d="M178 0v1423h854v-114h-727v-529h604v-112h-604v-555h727v-113h-854zM317 1884h117q1 -73 56.5 -117.5t134.5 -44.5q80 0 135.5 44.5t56.5 117.5h115q-3 -116 -88.5 -188t-218.5 -72t-218.5 71.5t-89.5 188.5z" />
    <glyph glyph-name="ebreve" unicode="&#x115;" horiz-adv-x="1032" 
d="M518 90q67 0 160.5 5t153.5 9l61 5l4 -101q-231 -28 -391 -28q-113 1 -190.5 34.5t-122.5 102.5t-64.5 163.5t-19.5 227.5q0 536 421 536q202 0 303 -116t101 -369l-4 -98h-697q0 -189 64.5 -280t220.5 -91zM233 563h578q0 203 -67 289t-214 86q-145 0 -221 -89t-76 -286
zM227 1485h105q2 -81 52.5 -131.5t137.5 -50.5t138 51t53 131h106q-5 -121 -85 -200t-212 -79t-212 79.5t-83 199.5z" />
    <glyph glyph-name="Edotaccent" unicode="&#x116;" horiz-adv-x="1130" 
d="M178 0v1423h854v-114h-727v-529h604v-112h-604v-555h727v-113h-854zM545 1657v153h123v-153h-123z" />
    <glyph glyph-name="edotaccent" unicode="&#x117;" horiz-adv-x="1032" 
d="M518 90q67 0 160.5 5t153.5 9l61 5l4 -101q-231 -28 -391 -28q-113 1 -190.5 34.5t-122.5 102.5t-64.5 163.5t-19.5 227.5q0 536 421 536q202 0 303 -116t101 -369l-4 -98h-697q0 -189 64.5 -280t220.5 -91zM233 563h578q0 203 -67 289t-214 86q-145 0 -221 -89t-76 -286
zM457 1276v154h123v-154h-123z" />
    <glyph glyph-name="Eogonek" unicode="&#x118;" horiz-adv-x="1130" 
d="M178 0v1423h854v-114h-727v-529h604v-112h-604v-555h727v-113h-59q-17 -17 -45 -47.5t-67.5 -87t-39.5 -84.5q0 -40 24.5 -67t63.5 -27q15 0 41.5 3t45.5 6l20 3l12 -98q-83 -19 -149 -19q-78 0 -128.5 47t-50.5 127q0 60 51 129t101 115h-674z" />
    <glyph glyph-name="eogonek" unicode="&#x119;" horiz-adv-x="1032" 
d="M852 2q-17 -17 -42.5 -44.5t-68.5 -87.5t-43 -89q0 -40 24.5 -67t63.5 -27q15 0 41.5 3t46.5 6l19 3l12 -98q-83 -19 -149 -19q-78 0 -128 47t-50 127q0 95 141 236q-140 -12 -213 -12q-113 1 -190.5 34.5t-122.5 102.5t-64.5 163.5t-19.5 227.5q0 536 421 536
q202 0 303 -116t101 -369l-4 -98h-697q0 -189 64.5 -280t220.5 -91q67 0 160.5 5t153.5 9l61 5l4 -101q-22 -2 -51 -6h6zM233 563h578q0 203 -67 289t-214 86q-145 0 -221 -89t-76 -286z" />
    <glyph glyph-name="Ecaron" unicode="&#x11a;" horiz-adv-x="1130" 
d="M178 0v1423h854v-114h-727v-529h604v-112h-604v-555h727v-113h-854zM547 1634l-275 269h142l186 -177l184 177h144l-275 -269h-106z" />
    <glyph glyph-name="ecaron" unicode="&#x11b;" horiz-adv-x="1032" 
d="M518 90q67 0 160.5 5t153.5 9l61 5l4 -101q-231 -28 -391 -28q-113 1 -190.5 34.5t-122.5 102.5t-64.5 163.5t-19.5 227.5q0 536 421 536q202 0 303 -116t101 -369l-4 -98h-697q0 -189 64.5 -280t220.5 -91zM233 563h578q0 203 -67 289t-214 86q-145 0 -221 -89t-76 -286
zM471 1219l-250 280h127l168 -186l166 186h127l-252 -280h-86z" />
    <glyph glyph-name="Gcircumflex" unicode="&#x11c;" horiz-adv-x="1263" 
d="M737 612v113h387v-688q-60 -13 -209.5 -32t-246.5 -19q-127 0 -221.5 32.5t-156 91t-99 150.5t-53 201t-15.5 252q0 145 15 255t52.5 203.5t98.5 153t155.5 92.5t221.5 33q96 0 210.5 -13t181.5 -27l66 -13l-6 -109q-256 47 -442 47q-103 0 -177.5 -27t-121.5 -75
t-74.5 -127.5t-38 -172t-10.5 -220.5q0 -127 10.5 -218t38 -169.5t74.5 -125.5t120.5 -73.5t176.5 -26.5q138 0 325 33v479h-262zM328 1626l274 268h107l274 -268h-141l-185 176l-186 -176h-143z" />
    <glyph glyph-name="gcircumflex" unicode="&#x11d;" horiz-adv-x="1042" 
d="M535 -485q-101 0 -171.5 10t-121 32t-79 59.5t-41.5 89t-13 124.5q0 46 9.5 81t33 65.5t50 54t72.5 57.5q-51 34 -51 139q0 16 16.5 56t32.5 72l17 32q-168 71 -168 309q0 180 97.5 264t273.5 84q47 0 101 -6.5t84 -13.5l30 -6l297 6v-109l-205 5q73 -73 73 -224
q0 -189 -93 -265.5t-294 -76.5q-58 0 -104 8q-41 -99 -41 -126q0 -25 2 -38.5t11.5 -26.5t24.5 -18.5t47 -10t71 -5.5t104 -2q111 0 178.5 -11.5t116.5 -44t68.5 -90.5t19.5 -151q0 -169 -111 -246t-337 -77zM592 27l-232 8q-76 -54 -102.5 -93.5t-26.5 -103.5
q0 -84 24.5 -128.5t90.5 -66.5t191 -22q170 0 245.5 50t75.5 163q0 52 -10 87t-27.5 56t-52.5 32t-73.5 14.5t-102.5 3.5zM492 457q141 0 198.5 53.5t57.5 185.5q0 134 -58 190t-198 56q-130 0 -188 -57t-58 -189q0 -130 57.5 -184.5t188.5 -54.5zM238 1219l249 280h86
l252 -280h-129l-164 188l-165 -188h-129z" />
    <glyph glyph-name="Gbreve" unicode="&#x11e;" horiz-adv-x="1263" 
d="M737 606v113h387v-688q-60 -13 -209.5 -32t-246.5 -19q-127 0 -221.5 32.5t-156 91t-99 150.5t-53 201t-15.5 252q0 145 15 255t52.5 203.5t98.5 153t155.5 92.5t221.5 33q96 0 210.5 -13t181.5 -27l66 -13l-6 -109q-256 47 -442 47q-103 0 -177.5 -27t-121.5 -75
t-74.5 -127.5t-38 -172t-10.5 -220.5q0 -127 10.5 -218t38 -169.5t74.5 -125.5t120.5 -73.5t176.5 -26.5q138 0 325 33v479h-262zM369 1884h116q1 -73 56.5 -117.5t134.5 -44.5q80 0 135.5 44.5t56.5 117.5h115q-3 -116 -88.5 -188t-218.5 -72q-132 0 -217.5 71.5
t-89.5 188.5z" />
    <glyph glyph-name="gbreve" unicode="&#x11f;" horiz-adv-x="1042" 
d="M535 -485q-101 0 -171.5 10t-121 32t-79 59.5t-41.5 89t-13 124.5q0 46 9.5 81t33 65.5t50 54t72.5 57.5q-51 34 -51 139q0 16 16.5 56t32.5 72l17 32q-168 71 -168 309q0 180 97.5 264t273.5 84q47 0 101 -6.5t84 -13.5l30 -6l297 6v-109l-205 5q73 -73 73 -224
q0 -189 -93 -265.5t-294 -76.5q-58 0 -104 8q-41 -99 -41 -126q0 -25 2 -38.5t11.5 -26.5t24.5 -18.5t47 -10t71 -5.5t104 -2q111 0 178.5 -11.5t116.5 -44t68.5 -90.5t19.5 -151q0 -169 -111 -246t-337 -77zM592 27l-232 8q-76 -54 -102.5 -93.5t-26.5 -103.5
q0 -84 24.5 -128.5t90.5 -66.5t191 -22q170 0 245.5 50t75.5 163q0 52 -10 87t-27.5 56t-52.5 32t-73.5 14.5t-102.5 3.5zM492 457q141 0 198.5 53.5t57.5 185.5q0 134 -58 190t-198 56q-130 0 -188 -57t-58 -189q0 -130 57.5 -184.5t188.5 -54.5zM236 1485h104
q2 -81 52.5 -131.5t137.5 -50.5t138 51t53 131h106q-5 -121 -85 -200t-212 -79t-211.5 79.5t-82.5 199.5z" />
    <glyph glyph-name="Gdotaccent" unicode="&#x120;" horiz-adv-x="1263" 
d="M737 606v113h387v-688q-60 -13 -209.5 -32t-246.5 -19q-127 0 -221.5 32.5t-156 91t-99 150.5t-53 201t-15.5 252q0 145 15 255t52.5 203.5t98.5 153t155.5 92.5t221.5 33q96 0 210.5 -13t181.5 -27l66 -13l-6 -109q-256 47 -442 47q-103 0 -177.5 -27t-121.5 -75
t-74.5 -127.5t-38 -172t-10.5 -220.5q0 -127 10.5 -218t38 -169.5t74.5 -125.5t120.5 -73.5t176.5 -26.5q138 0 325 33v479h-262zM580 1657v153h122v-153h-122z" />
    <glyph glyph-name="gdotaccent" unicode="&#x121;" horiz-adv-x="1042" 
d="M535 -485q-101 0 -171.5 10t-121 32t-79 59.5t-41.5 89t-13 124.5q0 46 9.5 81t33 65.5t50 54t72.5 57.5q-51 34 -51 139q0 16 16.5 56t32.5 72l17 32q-168 71 -168 309q0 180 97.5 264t273.5 84q47 0 101 -6.5t84 -13.5l30 -6l297 6v-109l-205 5q73 -73 73 -224
q0 -189 -93 -265.5t-294 -76.5q-58 0 -104 8q-41 -99 -41 -126q0 -25 2 -38.5t11.5 -26.5t24.5 -18.5t47 -10t71 -5.5t104 -2q111 0 178.5 -11.5t116.5 -44t68.5 -90.5t19.5 -151q0 -169 -111 -246t-337 -77zM592 27l-232 8q-76 -54 -102.5 -93.5t-26.5 -103.5
q0 -84 24.5 -128.5t90.5 -66.5t191 -22q170 0 245.5 50t75.5 163q0 52 -10 87t-27.5 56t-52.5 32t-73.5 14.5t-102.5 3.5zM492 457q141 0 198.5 53.5t57.5 185.5q0 134 -58 190t-198 56q-130 0 -188 -57t-58 -189q0 -130 57.5 -184.5t188.5 -54.5zM467 1276v154h123v-154
h-123z" />
    <glyph glyph-name="Gcommaaccent" unicode="&#x122;" horiz-adv-x="1263" 
d="M737 606v113h387v-688q-60 -13 -209.5 -32t-246.5 -19q-127 0 -221.5 32.5t-156 91t-99 150.5t-53 201t-15.5 252q0 145 15 255t52.5 203.5t98.5 153t155.5 92.5t221.5 33q96 0 210.5 -13t181.5 -27l66 -13l-6 -109q-256 47 -442 47q-103 0 -177.5 -27t-121.5 -75
t-74.5 -127.5t-38 -172t-10.5 -220.5q0 -127 10.5 -218t38 -169.5t74.5 -125.5t120.5 -73.5t176.5 -26.5q138 0 325 33v479h-262zM633 -160l-80 -409h104l101 409h-125z" />
    <glyph glyph-name="gcommaaccent" unicode="&#x123;" horiz-adv-x="1042" 
d="M608 1620l-80 -412h-122l98 412h104zM535 -485q-101 0 -171.5 10t-121 32t-79 59.5t-41.5 89t-13 124.5q0 46 9.5 81t33 65.5t50 54t72.5 57.5q-51 34 -51 139q0 16 16.5 56t32.5 72l17 32q-168 71 -168 309q0 180 97.5 264t273.5 84q47 0 101 -6.5t84 -13.5l30 -6l297 6
v-109l-205 5q73 -73 73 -224q0 -189 -93 -265.5t-294 -76.5q-58 0 -104 8q-41 -99 -41 -126q0 -25 2 -38.5t11.5 -26.5t24.5 -18.5t47 -10t71 -5.5t104 -2q111 0 178.5 -11.5t116.5 -44t68.5 -90.5t19.5 -151q0 -169 -111 -246t-337 -77zM592 27l-232 8
q-76 -54 -102.5 -93.5t-26.5 -103.5q0 -84 24.5 -128.5t90.5 -66.5t191 -22q170 0 245.5 50t75.5 163q0 52 -10 87t-27.5 56t-52.5 32t-73.5 14.5t-102.5 3.5zM492 457q141 0 198.5 53.5t57.5 185.5q0 134 -58 190t-198 56q-130 0 -188 -57t-58 -189q0 -130 57.5 -184.5
t188.5 -54.5z" />
    <glyph glyph-name="Hcircumflex" unicode="&#x124;" horiz-adv-x="1382" 
d="M1077 0v657h-772v-657h-127v1423h127v-653h772v653h125v-1423h-125zM365 1634l274 269h106l275 -269h-141l-185 176l-186 -176h-143z" />
    <glyph glyph-name="hcircumflex" unicode="&#x125;" horiz-adv-x="1091" 
d="M274 0h-120v1479h120v-514q19 9 52 22t121 35t159 22q85 0 143.5 -17t98 -52t61 -97t30.5 -141.5t9 -197.5v-539h-123v532q0 97 -5 158.5t-19 112.5t-40.5 77t-67.5 40t-103 14q-71 0 -150 -17.5t-122 -34.5l-44 -18v-864zM248 1597l250 281h86l252 -281h-129l-164 189
l-166 -189h-129z" />
    <glyph glyph-name="Hbar" unicode="&#x126;" horiz-adv-x="1404" 
d="M29 1051v108h157v264h127v-264h772v264h125v-264h176v-108h-176v-1051h-125v657h-772v-657h-127v1051h-157zM313 770h772v281h-772v-281z" />
    <glyph glyph-name="hbar" unicode="&#x127;" horiz-adv-x="1091" 
d="M18 1212v109h136v158h120v-158h322v-109h-322v-247q19 9 52 22t121 35t159 22q85 0 143.5 -17t98 -52t61 -97t30.5 -141.5t9 -197.5v-539h-123v532q0 97 -5 158.5t-19 112.5t-40.5 77t-67.5 40t-103 14q-71 0 -150 -17.5t-122 -34.5l-44 -18v-864h-120v1212h-136z" />
    <glyph glyph-name="Itilde" unicode="&#x128;" horiz-adv-x="483" 
d="M178 0v1423h127v-1423h-127zM532 1872l31 -92q-10 -13 -26 -31.5t-59 -50t-77 -31.5q-49 0 -174.5 58.5t-156.5 58.5q-20 0 -56 -26t-62 -52l-26 -25l-30 95q11 13 29 32t64 50.5t81 31.5q41 0 110 -28t131.5 -56t87.5 -28q18 0 51.5 23.5t57.5 46.5z" />
    <glyph glyph-name="itilde" unicode="&#x129;" horiz-adv-x="428" 
d="M154 1024v-1024h120v1024h-120zM504 1450l28 -86q-10 -11 -27.5 -27t-61 -42.5t-76.5 -26.5q-43 0 -151.5 50t-139.5 50q-21 0 -58 -21t-64 -42l-26 -21l-30 82q4 4 11.5 11t29 24.5t42.5 31t48 24.5t49 11q43 0 152.5 -49t138.5 -49q18 0 52 20t59 40z" />
    <glyph glyph-name="Imacron" unicode="&#x12a;" horiz-adv-x="483" 
d="M178 0v1423h127v-1423h-127zM-63 1677v101h618v-101h-618z" />
    <glyph glyph-name="imacron" unicode="&#x12b;" horiz-adv-x="428" 
d="M154 1024v-1024h120v1024h-120zM-63 1292v101h557v-101h-557z" />
    <glyph glyph-name="Ibreve" unicode="&#x12c;" horiz-adv-x="483" 
d="M178 0v1423h127v-1423h-127zM-53 1884h116q1 -73 56.5 -117.5t134.5 -44.5q80 0 135.5 44.5t56.5 117.5h115q-3 -116 -88.5 -188t-218.5 -72q-132 0 -217.5 71.5t-89.5 188.5z" />
    <glyph glyph-name="ibreve" unicode="&#x12d;" horiz-adv-x="428" 
d="M154 1024v-1024h120v1024h-120zM-80 1485h105q2 -81 52.5 -131.5t137.5 -50.5t138 51t53 131h106q-5 -121 -85 -200t-212 -79t-212 79.5t-83 199.5z" />
    <glyph glyph-name="Iogonek" unicode="&#x12e;" horiz-adv-x="483" 
d="M178 0v1423h127v-1423q-7 -6 -17.5 -17t-38 -41t-48.5 -56t-38.5 -56.5t-17.5 -48.5q0 -40 26 -67t65 -27q15 0 41.5 3t45.5 6l19 3l12 -98q-86 -19 -149 -19q-78 0 -129 47t-51 127q0 41 32 95t62.5 88t60.5 61h-2z" />
    <glyph glyph-name="iogonek" unicode="&#x12f;" horiz-adv-x="428" 
d="M154 0v1024h120v-1024q-18 -17 -44 -44t-69.5 -86t-43.5 -89q0 -40 25 -67t63 -27q15 0 42 3t47 6l19 3l13 -98q-86 -19 -152 -19q-78 0 -128 47t-50 127q0 59 53 128t107 116h-2zM154 1280v154h120v-154h-120z" />
    <glyph glyph-name="Idotaccent" unicode="&#x130;" horiz-adv-x="483" 
d="M178 0v1423h127v-1423h-127zM180 1657v153h123v-153h-123z" />
    <glyph glyph-name="dotlessi" unicode="&#x131;" horiz-adv-x="428" 
d="M154 0v1024h120v-1024h-120z" />
    <glyph glyph-name="Jcircumflex" unicode="&#x134;" horiz-adv-x="583" 
d="M412 1423v-1241q0 -58 -5 -102.5t-17 -78.5t-27 -58t-41 -40.5t-51 -26.5t-65.5 -15t-77 -6.5t-91.5 -1.5v112q59 0 90.5 1.5t64.5 10t47.5 23t27.5 43t16.5 67.5t3.5 99v1214h125zM18 1626l275 268h106l275 -268h-142l-184 176l-186 -176h-144z" />
    <glyph glyph-name="jcircumflex" unicode="&#x135;" horiz-adv-x="428" 
d="M154 20v1004h122v-1006q0 -181 -66.5 -274.5t-268.5 -196.5l-50 99q165 93 214 162t49 212zM-84 1219l250 280h86l252 -280h-129l-164 188l-166 -188h-129z" />
    <glyph glyph-name="Kcommaaccent" unicode="&#x136;" horiz-adv-x="1150" 
d="M967 0l-414 643l-248 -4v-639h-127v1427h127v-667l244 4l395 663h148l-430 -714l456 -713h-151zM551 -160l-80 -409h104l99 409h-123z" />
    <glyph glyph-name="kcommaaccent" unicode="&#x137;" horiz-adv-x="962" 
d="M260 -569l80 409h125l-100 -409h-105zM274 0h-120v1479h120v-881l175 4l315 422h141l-350 -469l367 -555h-144l-327 494l-177 -5v-489z" />
    <glyph glyph-name="Lacute" unicode="&#x139;" horiz-adv-x="983" 
d="M956 0h-778v1427h127v-1306h651v-121zM287 1698l424 203l45 -111l-428 -180z" />
    <glyph glyph-name="lacute" unicode="&#x13a;" horiz-adv-x="452" 
d="M166 0v1479h121v-1479h-121zM111 1724l424 199l45 -106l-430 -179z" />
    <glyph glyph-name="Lcommaaccent" unicode="&#x13b;" horiz-adv-x="983" 
d="M512 -160l-82 -409h107l98 409h-123zM956 0h-778v1423h127v-1308h651v-115z" />
    <glyph glyph-name="lcommaaccent" unicode="&#x13c;" horiz-adv-x="452" 
d="M166 0v1479h121v-1479h-121zM154 -160l-80 -409h104l101 409h-125z" />
    <glyph glyph-name="Lcaron" unicode="&#x13d;" horiz-adv-x="1009" 
d="M887 1427v-464h-119v464h119zM956 0h-778v1423h127v-1308h651v-115z" />
    <glyph glyph-name="lcaron" unicode="&#x13e;" horiz-adv-x="497" 
d="M498 1403l-80 -412h104l99 412h-123zM166 0v1479h121v-1479h-121z" />
    <glyph glyph-name="Lslash" unicode="&#x141;" horiz-adv-x="991" 
d="M965 0h-779v584l-123 -86l-61 86l184 129v710h127v-622l314 221l61 -86l-375 -264v-557h652v-115z" />
    <glyph glyph-name="lslash" unicode="&#x142;" horiz-adv-x="598" 
d="M231 0v602l-145 -102l-63 88l208 145v746h123v-660l156 111l63 -88l-219 -154v-688h-123z" />
    <glyph glyph-name="Nacute" unicode="&#x143;" horiz-adv-x="1376" 
d="M178 0v1423h250l596 -1310h47v1310h125v-1423h-246l-600 1309h-45v-1309h-127zM459 1698l424 203l45 -111l-428 -180z" />
    <glyph glyph-name="nacute" unicode="&#x144;" horiz-adv-x="1091" 
d="M154 0h120v848q18 10 48 24t113.5 38t154.5 24q52 0 89 -8.5t63.5 -29.5t43 -49.5t25.5 -77t12.5 -103t3.5 -134.5v-532h123v539q0 118 -9 197.5t-30.5 141.5t-61 97t-98 52t-143.5 17q-72 0 -155.5 -24t-130.5 -48l-48 -24v76h-120v-1024zM336 1311l424 198l45 -106
l-430 -178z" />
    <glyph glyph-name="Ncommaaccent" unicode="&#x145;" horiz-adv-x="1376" 
d="M676 -160l-82 -409h106l99 409h-123zM178 0v1423h250l596 -1310h47v1310h125v-1423h-246l-600 1309h-45v-1309h-127z" />
    <glyph glyph-name="ncommaaccent" unicode="&#x146;" horiz-adv-x="1091" 
d="M332 -569l80 409h123l-99 -409h-104zM274 0h-120v1024h120v-76q7 4 19.5 10.5t51 23t76.5 29t90 23t97 10.5q85 0 143.5 -17t98 -52t61 -97t30.5 -141.5t9 -197.5v-539h-123v532q0 80 -3.5 134.5t-12.5 103t-25.5 77t-43 49.5t-63.5 29.5t-89 8.5q-71 0 -150 -21.5
t-122 -42.5l-44 -22v-848z" />
    <glyph glyph-name="Ncaron" unicode="&#x147;" horiz-adv-x="1376" 
d="M178 0v1423h250l596 -1310h47v1310h125v-1423h-246l-600 1309h-45v-1309h-127zM635 1626l-275 268h142l186 -176l184 176h144l-275 -268h-106z" />
    <glyph glyph-name="ncaron" unicode="&#x148;" horiz-adv-x="1091" 
d="M274 0h-120v1024h120v-76q7 4 19.5 10.5t51 23t76.5 29t90 23t97 10.5q85 0 143.5 -17t98 -52t61 -97t30.5 -141.5t9 -197.5v-539h-123v532q0 80 -3.5 134.5t-12.5 103t-25.5 77t-43 49.5t-63.5 29.5t-89 8.5q-71 0 -150 -21.5t-122 -42.5l-44 -22v-848zM502 1219
l-250 280h127l168 -186l166 186h127l-252 -280h-86z" />
    <glyph glyph-name="Eng" unicode="&#x14a;" horiz-adv-x="1376" 
d="M178 0v1423h250l596 -1310h47v1310h125v-1468q0 -77 -8.5 -131t-31 -91t-49 -58.5t-74 -32.5t-93 -14t-119.5 -3v113q59 0 90.5 1.5t64.5 10t47.5 23t27.5 43t16.5 67.5t3.5 99v18h-121l-600 1309h-45v-1309h-127z" />
    <glyph glyph-name="eng" unicode="&#x14b;" horiz-adv-x="1093" 
d="M274 0h-122v1024h122v-74q20 11 54.5 26.5t123.5 41.5t158 26q83 0 141.5 -19.5t97.5 -56.5t61 -101t31 -143t9 -192v-540q0 -96 -12.5 -158.5t-50.5 -117.5t-96 -98t-160 -99l-51 104q155 91 202 160t47 207v540q0 90 -5 150t-19.5 111.5t-40.5 80t-67 44.5t-101 16
q-68 0 -148.5 -21.5t-127.5 -42.5l-46 -22v-846z" />
    <glyph glyph-name="Omacron" unicode="&#x14c;" horiz-adv-x="1355" 
d="M678 94q106 0 180.5 24.5t122.5 69.5t75 122.5t37.5 169.5t10.5 225q0 126 -11 219t-39.5 172.5t-76 128.5t-122.5 76.5t-177 27.5q-103 0 -177.5 -27t-122 -76t-75.5 -129t-38.5 -172.5t-10.5 -219.5q0 -129 10 -219.5t37 -168.5t74.5 -124.5t122.5 -72.5t180 -26z
M678 -20q-163 0 -272 45.5t-171 141t-87 224t-25 314.5q0 147 15.5 258t54 204t101 152.5t158.5 92t226 32.5t226 -32.5t159.5 -91.5t101.5 -152t54 -204.5t16 -258.5q0 -152 -15.5 -263.5t-53.5 -202t-102 -146t-159.5 -84.5t-226.5 -29zM369 1677v101h618v-101h-618z" />
    <glyph glyph-name="omacron" unicode="&#x14d;" horiz-adv-x="1079" 
d="M541 1044q-235 0 -332.5 -121.5t-97.5 -396.5q0 -152 19 -250t67 -167t131.5 -99t212.5 -30q128 0 211 30t131 99t67 167.5t19 249.5q0 275 -97.5 396.5t-330.5 121.5zM541 88q-80 0 -134 16.5t-87.5 46.5t-51.5 86.5t-24 121.5t-6 167q0 233 64 321.5t239 88.5
q174 0 238.5 -89t64.5 -321q0 -84 -4 -141.5t-16 -110.5t-32.5 -85t-54.5 -56.5t-82 -34.5t-114 -10zM264 1323v100h557v-100h-557z" />
    <glyph glyph-name="Obreve" unicode="&#x14e;" horiz-adv-x="1355" 
d="M678 94q106 0 180.5 24.5t122.5 69.5t75 122.5t37.5 169.5t10.5 225q0 126 -11 219t-39.5 172.5t-76 128.5t-122.5 76.5t-177 27.5q-103 0 -177.5 -27t-122 -76t-75.5 -129t-38.5 -172.5t-10.5 -219.5q0 -129 10 -219.5t37 -168.5t74.5 -124.5t122.5 -72.5t180 -26z
M678 -20q-163 0 -272 45.5t-171 141t-87 224t-25 314.5q0 147 15.5 258t54 204t101 152.5t158.5 92t226 32.5t226 -32.5t159.5 -91.5t101.5 -152t54 -204.5t16 -258.5q0 -152 -15.5 -263.5t-53.5 -202t-102 -146t-159.5 -84.5t-226.5 -29zM373 1884h116q1 -73 56.5 -117.5
t134.5 -44.5q80 0 135.5 44.5t56.5 117.5h115q-3 -116 -88.5 -188t-218.5 -72q-132 0 -217.5 71.5t-89.5 188.5z" />
    <glyph glyph-name="obreve" unicode="&#x14f;" horiz-adv-x="1079" 
d="M541 1044q-235 0 -332.5 -121.5t-97.5 -396.5q0 -152 19 -250t67 -167t131.5 -99t212.5 -30q128 0 211 30t131 99t67 167.5t19 249.5q0 275 -97.5 396.5t-330.5 121.5zM541 88q-80 0 -134 16.5t-87.5 46.5t-51.5 86.5t-24 121.5t-6 167q0 233 64 321.5t239 88.5
q174 0 238.5 -89t64.5 -321q0 -84 -4 -141.5t-16 -110.5t-32.5 -85t-54.5 -56.5t-82 -34.5t-114 -10zM250 1485h104q2 -81 52.5 -131.5t138.5 -50.5q87 0 137.5 51t52.5 131h107q-5 -121 -85 -200t-212 -79t-212 79.5t-83 199.5z" />
    <glyph glyph-name="Ohungarumlaut" unicode="&#x150;" horiz-adv-x="1355" 
d="M678 94q106 0 180.5 24.5t122.5 69.5t75 122.5t37.5 169.5t10.5 225q0 126 -11 219t-39.5 172.5t-76 128.5t-122.5 76.5t-177 27.5q-103 0 -177.5 -27t-122 -76t-75.5 -129t-38.5 -172.5t-10.5 -219.5q0 -129 10 -219.5t37 -168.5t74.5 -124.5t122.5 -72.5t180 -26z
M678 -20q-163 0 -272 45.5t-171 141t-87 224t-25 314.5q0 147 15.5 258t54 204t101 152.5t158.5 92t226 32.5t226 -32.5t159.5 -91.5t101.5 -152t54 -204.5t16 -258.5q0 -152 -15.5 -263.5t-53.5 -202t-102 -146t-159.5 -84.5t-226.5 -29zM705 1612l327 233l84 -65
l-336 -234zM305 1612l330 235l80 -67l-332 -232z" />
    <glyph glyph-name="ohungarumlaut" unicode="&#x151;" horiz-adv-x="1079" 
d="M541 1044q-235 0 -332.5 -121.5t-97.5 -396.5q0 -152 19 -250t67 -167t131.5 -99t212.5 -30q128 0 211 30t131 99t67 167.5t19 249.5q0 275 -97.5 396.5t-330.5 121.5zM541 88q-80 0 -134 16.5t-87.5 46.5t-51.5 86.5t-24 121.5t-6 167q0 233 64 321.5t239 88.5
q174 0 238.5 -89t64.5 -321q0 -84 -4 -141.5t-16 -110.5t-32.5 -85t-54.5 -56.5t-82 -34.5t-114 -10zM600 1276l309 258l84 -76l-313 -256zM211 1276l311 258l82 -76l-313 -256z" />
    <glyph glyph-name="OE" unicode="&#x152;" horiz-adv-x="1904" 
d="M1806 -2h-835q-189 -18 -303 -18q-130 0 -224.5 30.5t-156.5 87t-98.5 148.5t-51 201.5t-14.5 259.5q0 190 25.5 322t87 229t168 143.5t264.5 46.5q168 0 301 -21h837v-122h-712v-512h589v-123h-589v-547h712v-125zM680 102q85 0 289 17v1186q-264 22 -291 22
q-103 0 -177 -25.5t-122 -72t-75.5 -125t-38.5 -171.5t-11 -224q0 -108 7 -188t24.5 -151t48 -118.5t77.5 -82.5t113.5 -51t155.5 -16z" />
    <glyph glyph-name="oe" unicode="&#x153;" horiz-adv-x="1767" 
d="M1253 92q67 0 160.5 5t154.5 9l60 5l4 -103q-231 -28 -391 -28q-131 0 -212.5 49t-125.5 149q-41 -104 -126 -151t-234 -47q-129 0 -212.5 30t-132.5 99.5t-68 168.5t-19 250q0 274 99 394t333 120q143 0 232 -53t134 -172q50 121 140 173t217 52q202 0 302.5 -115
t100.5 -368l-4 -98h-696q0 -189 64 -279t220 -90zM543 90q79 0 133 18t87 50t51 89t24 120t6 159q0 218 -71.5 312t-229.5 94q-174 0 -239.5 -87.5t-65.5 -316.5q0 -100 6.5 -165.5t25 -122t52.5 -87t88 -47t133 -16.5zM969 563h577q0 200 -66.5 285.5t-213.5 85.5
q-297 0 -297 -371z" />
    <glyph glyph-name="Racute" unicode="&#x154;" horiz-adv-x="1259" 
d="M305 561h434l281 -561h141l-293 586q275 74 275 415q0 218 -110 320t-333 102h-522v-1423h127v561zM1012 999q0 -325 -312 -325h-395v637h395q160 0 236 -76t76 -236zM391 1698l424 203l45 -111l-428 -180z" />
    <glyph glyph-name="racute" unicode="&#x155;" horiz-adv-x="694" 
d="M154 0v1024h120v-147q20 14 55.5 36.5t137.5 68t195 62.5v-122q-88 -18 -185 -56.5t-150 -67.5l-53 -30v-768h-120zM145 1311l424 198l45 -106l-430 -178z" />
    <glyph glyph-name="Rcommaaccent" unicode="&#x156;" horiz-adv-x="1259" 
d="M520 -569l80 409h123l-98 -409h-105zM739 561h-434v-561h-127v1423h522q223 0 333 -102t110 -320q0 -341 -275 -415l293 -586h-141zM1012 999q0 160 -76 236t-236 76h-395v-637h395q312 0 312 325z" />
    <glyph glyph-name="rcommaaccent" unicode="&#x157;" horiz-adv-x="694" 
d="M154 -160l-82 -409h106l98 409h-122zM154 0v1024h120v-147q20 14 55.5 36.5t137.5 68t195 62.5v-122q-88 -18 -185 -56.5t-150 -67.5l-53 -30v-768h-120z" />
    <glyph glyph-name="Rcaron" unicode="&#x158;" horiz-adv-x="1259" 
d="M739 561h-434v-561h-127v1423h522q223 0 333 -102t110 -320q0 -341 -275 -415l293 -586h-141zM1012 999q0 160 -76 236t-236 76h-395v-637h395q312 0 312 325zM561 1634l-274 269h141l186 -177l185 177h143l-274 -269h-107z" />
    <glyph glyph-name="rcaron" unicode="&#x159;" horiz-adv-x="694" 
d="M154 0v1024h120v-147q20 14 55.5 36.5t137.5 68t195 62.5v-122q-88 -18 -185 -56.5t-150 -67.5l-53 -30v-768h-120zM313 1219l-250 280h127l168 -186l166 186h127l-252 -280h-86z" />
    <glyph glyph-name="Sacute" unicode="&#x15a;" horiz-adv-x="1107" 
d="M975 1407l-10 -109q-283 35 -402 35q-330 0 -330 -252q0 -40 4.5 -71t17 -56.5t26 -44t39 -34.5t48.5 -26.5t63.5 -21.5t74 -18t88.5 -18q90 -18 151 -36t114 -47t83 -67.5t47 -94t17 -130.5q0 -228 -113.5 -330t-333.5 -102q-72 0 -183 9.5t-186 19.5l-75 10l14 108
q281 -35 426 -35q162 0 242 75t80 237q0 67 -17 110.5t-60 73.5t-100 47.5t-153 34.5q-96 18 -158 35.5t-121.5 47t-92 70t-52 101.5t-19.5 145q0 373 451 373q74 0 179 -10t173 -20zM344 1698l424 203l45 -111l-428 -180z" />
    <glyph glyph-name="sacute" unicode="&#x15b;" horiz-adv-x="950" 
d="M821 1008l-4 -109q-219 33 -354 33q-242 0 -242 -174q0 -79 53.5 -112.5t221.5 -61.5q84 -14 138.5 -28t100.5 -35t70.5 -50.5t37.5 -72t13 -101.5q0 -172 -100 -244.5t-295 -72.5q-56 0 -143.5 9t-147.5 18l-59 9l8 109q230 -35 334 -35q141 0 209.5 43.5t68.5 157.5
q0 90 -56.5 123.5t-234.5 60.5q-77 12 -127 24t-95 32.5t-69.5 49t-38.5 71.5t-14 102q0 65 21 115.5t55.5 82.5t82.5 52.5t98 29t106 8.5q68 0 158.5 -8.5t146.5 -17.5zM244 1311l424 198l45 -106l-430 -178z" />
    <glyph glyph-name="Scircumflex" unicode="&#x15c;" horiz-adv-x="1107" 
d="M975 1407l-10 -109q-283 35 -402 35q-330 0 -330 -252q0 -40 4.5 -71t17 -56.5t26 -44t39 -34.5t48.5 -26.5t63.5 -21.5t74 -18t88.5 -18q90 -18 151 -36t114 -47t83 -67.5t47 -94t17 -130.5q0 -228 -113.5 -330t-333.5 -102q-72 0 -183 9.5t-186 19.5l-75 10l14 108
q281 -35 426 -35q162 0 242 75t80 237q0 67 -17 110.5t-60 73.5t-100 47.5t-153 34.5q-96 18 -158 35.5t-121.5 47t-92 70t-52 101.5t-19.5 145q0 373 451 373q74 0 179 -10t173 -20zM231 1626l275 268h106l275 -268h-142l-184 176l-186 -176h-144z" />
    <glyph glyph-name="scircumflex" unicode="&#x15d;" horiz-adv-x="950" 
d="M821 1008l-4 -109q-219 33 -354 33q-242 0 -242 -174q0 -79 53.5 -112.5t221.5 -61.5q84 -14 138.5 -28t100.5 -35t70.5 -50.5t37.5 -72t13 -101.5q0 -172 -100 -244.5t-295 -72.5q-56 0 -143.5 9t-147.5 18l-59 9l8 109q230 -35 334 -35q141 0 209.5 43.5t68.5 157.5
q0 90 -56.5 123.5t-234.5 60.5q-77 12 -127 24t-95 32.5t-69.5 49t-38.5 71.5t-14 102q0 65 21 115.5t55.5 82.5t82.5 52.5t98 29t106 8.5q68 0 158.5 -8.5t146.5 -17.5zM184 1219l250 280h86l252 -280h-129l-164 188l-166 -188h-129z" />
    <glyph glyph-name="Scedilla" unicode="&#x15e;" horiz-adv-x="1107" 
d="M827 -260q0 -88 -48.5 -130t-133.5 -42q-40 0 -83 3t-66 6l-23 3l4 82q85 -6 146 -6q92 0 92 84q0 76 -92 76h-97v168q-74 2 -176.5 11.5t-168.5 18.5l-66 9l14 108q281 -35 426 -35q162 0 242 75t80 237q0 67 -17 110.5t-60 73.5t-100 47.5t-153 34.5q-96 18 -158 35.5
t-121.5 47t-92 70t-52 101.5t-19.5 145q0 373 451 373q74 0 179 -10t173 -20l68 -9l-10 -109q-283 35 -402 35q-330 0 -330 -252q0 -40 4.5 -71t17 -56.5t26 -44t39 -34.5t48.5 -26.5t63.5 -21.5t74 -18t88.5 -18q90 -18 151 -36t114 -47t83 -67.5t47 -94t17 -130.5
q0 -217 -102.5 -319t-299.5 -111v-92q119 0 171 -32t52 -122z" />
    <glyph glyph-name="scedilla" unicode="&#x15f;" horiz-adv-x="950" 
d="M719 -260q0 -88 -48.5 -130t-133.5 -42q-40 0 -83 3t-66 6l-23 3l4 82q84 -6 145 -6q92 0 92 84q0 76 -92 76h-96v166q-56 3 -133 11.5t-125 15.5l-49 7l8 109q230 -35 334 -35q141 0 209.5 43.5t68.5 157.5q0 90 -56.5 123.5t-234.5 60.5q-77 12 -127 24t-95 32.5
t-69.5 49t-38.5 71.5t-14 102q0 65 21 115.5t55.5 82.5t82.5 52.5t98 29t106 8.5q68 0 158.5 -8.5t146.5 -17.5l57 -8l-4 -109q-219 33 -354 33q-242 0 -242 -174q0 -79 53.5 -112.5t221.5 -61.5q84 -14 138.5 -28t100.5 -35t70.5 -50.5t37.5 -72t13 -101.5q0 -165 -91 -238
t-269 -79v-86q119 0 171 -32t52 -122z" />
    <glyph glyph-name="Scaron" unicode="&#x160;" horiz-adv-x="1107" 
d="M975 1407l-10 -109q-283 35 -402 35q-330 0 -330 -252q0 -40 4.5 -71t17 -56.5t26 -44t39 -34.5t48.5 -26.5t63.5 -21.5t74 -18t88.5 -18q90 -18 151 -36t114 -47t83 -67.5t47 -94t17 -130.5q0 -228 -113.5 -330t-333.5 -102q-72 0 -183 9.5t-186 19.5l-75 10l14 108
q281 -35 426 -35q162 0 242 75t80 237q0 67 -17 110.5t-60 73.5t-100 47.5t-153 34.5q-96 18 -158 35.5t-121.5 47t-92 70t-52 101.5t-19.5 145q0 373 451 373q74 0 179 -10t173 -20zM518 1634l-274 269h141l186 -177l185 177h143l-274 -269h-107z" />
    <glyph glyph-name="scaron" unicode="&#x161;" horiz-adv-x="950" 
d="M821 1008l-4 -109q-219 33 -354 33q-242 0 -242 -174q0 -79 53.5 -112.5t221.5 -61.5q84 -14 138.5 -28t100.5 -35t70.5 -50.5t37.5 -72t13 -101.5q0 -172 -100 -244.5t-295 -72.5q-56 0 -143.5 9t-147.5 18l-59 9l8 109q230 -35 334 -35q141 0 209.5 43.5t68.5 157.5
q0 90 -56.5 123.5t-234.5 60.5q-77 12 -127 24t-95 32.5t-69.5 49t-38.5 71.5t-14 102q0 65 21 115.5t55.5 82.5t82.5 52.5t98 29t106 8.5q68 0 158.5 -8.5t146.5 -17.5zM449 1219l-250 280h127l168 -186l165 186h127l-251 -280h-86z" />
    <glyph glyph-name="Tcedilla" unicode="&#x162;" horiz-adv-x="0" 
 />
    <glyph glyph-name="tcedilla" unicode="&#x163;" horiz-adv-x="710" 
d="M672 915h-342v-505q0 -70 2 -113.5t8 -83t16.5 -61t29.5 -37.5t44.5 -21.5t63.5 -5.5q25 0 72 3.5t82 6.5l34 4l8 -104q-135 -21 -207 -21q-105 0 -163 31.5t-85.5 111.5t-27.5 228v567h-152v109h152v322h123v-322h342v-109zM532 -260q0 -88 -48.5 -130t-133.5 -42
q-40 0 -83 3t-66 6l-23 3l4 82q85 -6 146 -6q92 0 92 84q0 76 -92 76h-97v186h78v-108q119 0 171 -32t52 -122z" />
    <glyph glyph-name="Tcaron" unicode="&#x164;" horiz-adv-x="1077" 
d="M27 1309v114h1024v-114h-447v-1309h-127v1309h-450zM487 1634l-274 269h141l187 -177l184 177h143l-274 -269h-107z" />
    <glyph glyph-name="tcaron" unicode="&#x165;" horiz-adv-x="856" 
d="M674 911h-344v-497q0 -83 3.5 -132.5t12.5 -90.5t28 -60.5t47 -29t73 -9.5q25 0 72 3.5t82 6.5l34 4l8 -108q-135 -21 -207 -21q-105 0 -162.5 31.5t-84.5 111.5t-27 228v563h-152v113h152v322h121v-322h344v-113zM872 1427v-464h-118v464h118z" />
    <glyph glyph-name="Tbar" unicode="&#x166;" horiz-adv-x="1083" 
d="M31 1309v114h1024v-114h-447v-561h348v-109h-348v-639h-127v639h-348v109h348v561h-450z" />
    <glyph glyph-name="tbar" unicode="&#x167;" horiz-adv-x="718" 
d="M678 911h-342v-270h297v-100h-297v-127q0 -70 2 -113.5t8 -83t16.5 -61t29.5 -37.5t44.5 -21.5t63.5 -5.5q25 0 72 3.5t82 6.5l34 4l8 -108q-135 -21 -207 -21q-105 0 -163 31.5t-85.5 111.5t-27.5 228v193h-123v100h123v270h-152v113h152v322h123v-322h342v-113z" />
    <glyph glyph-name="Utilde" unicode="&#x168;" horiz-adv-x="1314" 
d="M295 418q0 -171 90.5 -247.5t263.5 -76.5q184 0 276.5 75.5t92.5 248.5v1005h127v-1005q0 -231 -125 -334.5t-371 -103.5q-235 0 -357 104t-122 334v1005h125v-1005zM961 1872l30 -92q-10 -13 -26 -31.5t-59 -50t-77 -31.5q-49 0 -174.5 58.5t-156.5 58.5q-20 0 -56 -26
t-62 -52l-26 -25l-30 95q11 13 29 32t64 50.5t81 31.5q41 0 110 -28t131.5 -56t87.5 -28q18 0 51.5 23.5t57.5 46.5z" />
    <glyph glyph-name="utilde" unicode="&#x169;" horiz-adv-x="1075" 
d="M922 1024h-121v-848q-6 -3 -16 -9t-43 -21t-66.5 -26t-82 -20.5t-93.5 -9.5q-62 0 -103.5 13.5t-68 39.5t-40.5 77t-19 112.5t-5 159.5v532h-121v-535q0 -100 5.5 -171t20 -131t38.5 -97t62.5 -63t91 -36.5t124.5 -10.5q70 0 149 24t123 48l44 24v-76h121v1024zM825 1450
l29 -86q-10 -11 -27.5 -27t-61.5 -42.5t-77 -26.5q-43 0 -151.5 50t-139.5 50q-21 0 -57.5 -21t-63.5 -42l-26 -21l-31 82q4 4 11.5 11t29 24.5t42.5 31t48 24.5t49 11q43 0 152.5 -49t138.5 -49q18 0 52 20t58 40z" />
    <glyph glyph-name="Umacron" unicode="&#x16a;" horiz-adv-x="1314" 
d="M295 418q0 -171 90.5 -247.5t263.5 -76.5q184 0 276.5 75.5t92.5 248.5v1005h127v-1005q0 -231 -125 -334.5t-371 -103.5q-235 0 -357 104t-122 334v1005h125v-1005zM350 1677v101h619v-101h-619z" />
    <glyph glyph-name="umacron" unicode="&#x16b;" horiz-adv-x="1075" 
d="M922 1024h-121v-848q-6 -3 -16 -9t-43 -21t-66.5 -26t-82 -20.5t-93.5 -9.5q-62 0 -103.5 13.5t-68 39.5t-40.5 77t-19 112.5t-5 159.5v532h-121v-535q0 -100 5.5 -171t20 -131t38.5 -97t62.5 -63t91 -36.5t124.5 -10.5q70 0 149 24t123 48l44 24v-76h121v1024zM256 1292
v101h557v-101h-557z" />
    <glyph glyph-name="Ubreve" unicode="&#x16c;" horiz-adv-x="1314" 
d="M295 418q0 -171 90.5 -247.5t263.5 -76.5q184 0 276.5 75.5t92.5 248.5v1005h127v-1005q0 -231 -125 -334.5t-371 -103.5q-235 0 -357 104t-122 334v1005h125v-1005zM352 1884h117q1 -73 56 -117.5t134 -44.5q80 0 136 44.5t57 117.5h115q-3 -116 -89 -188t-219 -72
q-132 0 -217.5 71.5t-89.5 188.5z" />
    <glyph glyph-name="ubreve" unicode="&#x16d;" horiz-adv-x="1075" 
d="M922 1024h-121v-848q-6 -3 -16 -9t-43 -21t-66.5 -26t-82 -20.5t-93.5 -9.5q-62 0 -103.5 13.5t-68 39.5t-40.5 77t-19 112.5t-5 159.5v532h-121v-535q0 -100 5.5 -171t20 -131t38.5 -97t62.5 -63t91 -36.5t124.5 -10.5q70 0 149 24t123 48l44 24v-76h121v1024zM227 1485
h105q2 -81 52.5 -131.5t137.5 -50.5t138 51t53 131h106q-5 -121 -85 -200t-212 -79t-212 79.5t-83 199.5z" />
    <glyph glyph-name="Uring" unicode="&#x16e;" horiz-adv-x="1314" 
d="M295 418q0 -171 90.5 -247.5t263.5 -76.5q184 0 276.5 75.5t92.5 248.5v1005h127v-1005q0 -231 -125 -334.5t-371 -103.5q-235 0 -357 104t-122 334v1005h125v-1005zM885 1735q0 -96 -63 -151.5t-163 -55.5t-162.5 55.5t-62.5 151.5q0 95 62.5 149.5t162.5 54.5
t163 -54.5t63 -149.5zM530 1735q0 -56 34 -86.5t95 -30.5t95 30.5t34 86.5q0 55 -34 84.5t-95 29.5t-95 -29.5t-34 -84.5z" />
    <glyph glyph-name="uring" unicode="&#x16f;" horiz-adv-x="1075" 
d="M922 1024h-121v-848q-6 -3 -16 -9t-43 -21t-66.5 -26t-82 -20.5t-93.5 -9.5q-62 0 -103.5 13.5t-68 39.5t-40.5 77t-19 112.5t-5 159.5v532h-121v-535q0 -100 5.5 -171t20 -131t38.5 -97t62.5 -63t91 -36.5t124.5 -10.5q70 0 149 24t123 48l44 24v-76h121v1024zM330 1325
q0 86 59.5 145.5t147.5 59.5q86 0 145 -59.5t59 -145.5q0 -88 -59 -147.5t-145 -59.5q-88 0 -147.5 59.5t-59.5 147.5zM418 1325q0 -51 34 -87t85 -36q49 0 82.5 36t33.5 87q0 50 -33.5 84.5t-82.5 34.5q-51 0 -85 -34.5t-34 -84.5z" />
    <glyph glyph-name="Uhungarumlaut" unicode="&#x170;" horiz-adv-x="1314" 
d="M295 418q0 -171 90.5 -247.5t263.5 -76.5q184 0 276.5 75.5t92.5 248.5v1005h127v-1005q0 -231 -125 -334.5t-371 -103.5q-235 0 -357 104t-122 334v1005h125v-1005zM717 1612l327 233l84 -65l-335 -234zM317 1612l330 235l80 -67l-332 -232z" />
    <glyph glyph-name="uhungarumlaut" unicode="&#x171;" horiz-adv-x="1075" 
d="M922 1024h-121v-848q-6 -3 -16 -9t-43 -21t-66.5 -26t-82 -20.5t-93.5 -9.5q-62 0 -103.5 13.5t-68 39.5t-40.5 77t-19 112.5t-5 159.5v532h-121v-535q0 -100 5.5 -171t20 -131t38.5 -97t62.5 -63t91 -36.5t124.5 -10.5q70 0 149 24t123 48l44 24v-76h121v1024zM616 1276
l310 258l84 -76l-314 -256zM227 1276l312 258l82 -76l-314 -256z" />
    <glyph glyph-name="Uogonek" unicode="&#x172;" horiz-adv-x="1314" 
d="M293 418q0 -171 90.5 -247.5t263.5 -76.5q184 0 276.5 75.5t92.5 248.5v1005h127v-1005q0 -181 -75.5 -282t-223.5 -136q-17 -17 -45 -47.5t-67.5 -87t-39.5 -84.5q0 -40 24.5 -67t63.5 -27q15 0 41.5 3t46.5 6l19 3l12 -98q-83 -19 -149 -19q-78 0 -128.5 47t-50.5 127
q0 90 131 226q-18 -2 -55 -2q-235 0 -357 104t-122 334v1005h125v-1005z" />
    <glyph glyph-name="uogonek" unicode="&#x173;" horiz-adv-x="1075" 
d="M801 1024h121v-1024q-18 -16 -44 -42.5t-70 -85.5t-44 -91q0 -40 24.5 -67t63.5 -27q15 0 41.5 3t45.5 6l19 3l13 -98q-84 -19 -150 -19q-78 0 -128 47t-50 127q0 59 53 128t107 116h-2v72q-18 -10 -49 -25.5t-114.5 -41t-152.5 -25.5q-72 0 -124 10.5t-91 36.5t-63 63
t-38.5 96.5t-20 130.5t-5.5 172v535h121v-530q0 -99 5 -161t19 -113t41 -77t68 -39.5t103 -13.5q68 0 143.5 21.5t116.5 42.5l41 22v848z" />
    <glyph glyph-name="Wcircumflex" unicode="&#x174;" horiz-adv-x="1789" 
d="M68 1423h129l258 -1310h67l299 1294h150l297 -1294h67l258 1310h129l-292 -1423h-254l-281 1249l-281 -1249h-254zM567 1626l275 268h106l275 -268h-142l-184 176l-186 -176h-144z" />
    <glyph glyph-name="wcircumflex" unicode="&#x175;" horiz-adv-x="1556" 
d="M68 1024h125l225 -918h28l267 898h129l266 -898h31l225 918h125l-256 -1024h-213l-242 844l-243 -844h-211zM485 1219l250 280h86l252 -280h-129l-164 188l-166 -188h-129z" />
    <glyph glyph-name="Ycircumflex" unicode="&#x176;" horiz-adv-x="1093" 
d="M610 602v-602h-127v602l-456 821h141l379 -690l377 690h143zM219 1634l275 269h106l274 -269h-141l-184 176l-187 -176h-143z" />
    <glyph glyph-name="ycircumflex" unicode="&#x177;" horiz-adv-x="978" 
d="M55 1024h125l273 -918h73l275 918h125l-443 -1485h-123l138 461h-142zM203 1219l250 280h86l252 -280h-129l-164 188l-166 -188h-129z" />
    <glyph glyph-name="Ydieresis" unicode="&#x178;" horiz-adv-x="1093" 
d="M610 602v-602h-127v602l-456 821h141l379 -690l377 690h143zM279 1677v164h120v-164h-120zM690 1677v164h119v-164h-119z" />
    <glyph glyph-name="Zacute" unicode="&#x179;" horiz-adv-x="1099" 
d="M88 1309v114h922v-170l-781 -1097v-43h781v-115h-922v168l780 1098v45h-780zM330 1698l424 203l45 -111l-428 -180z" />
    <glyph glyph-name="zacute" unicode="&#x17a;" horiz-adv-x="931" 
d="M86 1024v-111h608l-608 -802v-111h760v111h-608l608 802v111h-760zM248 1311l424 198l45 -106l-430 -178z" />
    <glyph glyph-name="Zdotaccent" unicode="&#x17b;" horiz-adv-x="1099" 
d="M88 1309v114h922v-170l-781 -1097v-43h781v-115h-922v168l780 1098v45h-780zM487 1657v153h123v-153h-123z" />
    <glyph glyph-name="zdotaccent" unicode="&#x17c;" horiz-adv-x="931" 
d="M86 1024v-111h608l-608 -802v-111h760v111h-608l608 802v111h-760zM403 1276v154h123v-154h-123z" />
    <glyph glyph-name="Zcaron" unicode="&#x17d;" horiz-adv-x="1099" 
d="M88 1309v114h922v-170l-781 -1097v-43h781v-115h-922v168l780 1098v45h-780zM516 1634l-274 269h141l186 -177l185 177h143l-274 -269h-107z" />
    <glyph glyph-name="zcaron" unicode="&#x17e;" horiz-adv-x="931" 
d="M86 913v111h760v-111l-608 -802h608v-111h-760v111l608 802h-608zM424 1219l-250 280h127l168 -186l166 186h127l-252 -280h-86z" />
    <glyph glyph-name="florin" unicode="&#x192;" 
d="M555 -117q0 -205 -65.5 -286.5t-217.5 -81.5q-36 0 -85 3.5t-80 7.5l-31 3l4 106q121 -8 184 -8q90 0 129 57.5t39 200.5v852h-133v109h133v125q0 51 2 91t9 86.5t18.5 81t32 68t48.5 54.5t68.5 34t91.5 13q38 0 88 -4.5t80 -8.5l31 -4l-2 -104q-94 8 -178 8
q-166 0 -166 -260v-180h309v-109h-309v-854z" />
    <glyph glyph-name="Aringacute" unicode="&#x1fa;" horiz-adv-x="1216" 
d="M834 1540q0 -98 -66 -154l397 -1386h-125l-114 393h-635l-113 -393h-127l398 1384q-66 56 -66 156q0 95 62.5 150t162.5 55t163 -55t63 -150zM553 1313l-231 -807h573l-231 807h-111zM365 1886l423 203l46 -111l-428 -180zM479 1540q0 -56 34 -86.5t95 -30.5t95 30.5
t34 86.5q0 55 -34 85t-95 30t-95 -30t-34 -85z" />
    <glyph glyph-name="aringacute" unicode="&#x1fb;" horiz-adv-x="1021" 
d="M858 719v-549q7 -75 133 -90l-6 -98q-158 0 -231 81q-22 -9 -59 -23t-138.5 -37t-187.5 -23q-136 0 -208.5 78.5t-72.5 230.5q0 141 72.5 212.5t228.5 86.5l348 35v96q0 114 -49.5 164.5t-150.5 50.5q-65 0 -162 -8t-161 -16l-64 -7l-7 98q226 43 398 43q165 0 241 -80
t76 -245zM737 526l-334 -34q-101 -9 -144.5 -57.5t-43.5 -143.5q0 -99 43 -153t127 -54q74 0 162 18t139 36l51 18v370zM293 1325q0 86 59.5 145.5t147.5 59.5q86 0 145.5 -59.5t59.5 -145.5q0 -88 -59.5 -147.5t-145.5 -59.5q-88 0 -147.5 59.5t-59.5 147.5zM381 1325
q0 -51 34 -87t85 -36q49 0 82.5 36t33.5 87q0 50 -33.5 84.5t-82.5 34.5q-51 0 -85 -34.5t-34 -84.5zM283 1675l424 199l45 -107l-430 -178z" />
    <glyph glyph-name="AEacute" unicode="&#x1fc;" horiz-adv-x="1796" 
d="M844 0v389h-533l-135 -389h-131l479 1427h1172v-118h-727v-516h604v-119h-604v-555h727v-119h-852zM616 1309l-270 -799h498v799h-228zM870 1698l424 203l45 -111l-428 -180z" />
    <glyph glyph-name="aeacute" unicode="&#x1fd;" horiz-adv-x="1656" 
d="M1145 92q67 0 160 5t153 9l60 5l4 -103q-229 -28 -389 -28q-205 0 -299 114l-70 -31q-27 -12 -67 -26.5t-141.5 -35.5t-195.5 -21q-134 0 -203 78.5t-69 230.5q0 68 15 117t41.5 81.5t74.5 54t103.5 33.5t138.5 21l276 27v92q0 211 -196 211q-68 0 -165 -5t-160 -11
l-64 -5l-5 111q238 26 398 26q221 0 278 -165q101 165 334 165q203 0 303.5 -115t100.5 -368l-7 -98h-696q2 -189 66.5 -279t220.5 -90zM375 88q74 0 174 21t149 37t82 28q-47 112 -47 346l-330 -31q-99 -9 -143.5 -55.5t-44.5 -142.5q0 -99 42 -151t118 -52zM858 563h578
q0 199 -67 285t-212 86q-299 0 -299 -371zM610 1311l424 198l45 -106l-430 -178z" />
    <glyph glyph-name="Oslashacute" unicode="&#x1fe;" horiz-adv-x="1359" 
d="M680 -20q-150 0 -256 38l-117 -251l-96 43l121 258q-114 81 -160.5 236.5t-46.5 400.5q0 147 15.5 258t54 204t101 152.5t158.5 92t226 32.5q162 0 272 -49l111 235l96 -39l-119 -252q106 -86 151.5 -242.5t45.5 -391.5q0 -152 -15.5 -263.5t-53.5 -202t-102 -146
t-159.5 -84.5t-226.5 -29zM256 705q0 -201 28 -326t101 -195l516 1100q-88 45 -221 45q-103 0 -177.5 -27t-122 -76t-75.5 -129t-38.5 -172.5t-10.5 -219.5zM680 94q106 0 180.5 24.5t122.5 69.5t75 122.5t37.5 169.5t10.5 225q0 186 -27.5 313t-93.5 201l-510 -1092
q79 -33 205 -33zM449 1698l423 203l46 -111l-429 -180z" />
    <glyph glyph-name="oslashacute" unicode="&#x1ff;" horiz-adv-x="1079" 
d="M541 1044q-235 0 -332.5 -121.5t-97.5 -396.5q0 -210 40 -328.5t140 -170.5l-90 -228l86 -30l92 227q72 -16 162 -16q128 0 211 30t131 99t67 167.5t19 249.5q0 187 -43 300.5t-140 166.5l91 215l-89 31l-88 -213q-68 18 -159 18zM541 936q72 0 118 -14l-319 -789
q-62 41 -82 131.5t-20 261.5q0 233 64 321.5t239 88.5zM541 88q-71 0 -121 12l321 785q56 -42 79.5 -128t23.5 -231q0 -84 -4 -141.5t-16 -110.5t-32.5 -85t-54.5 -56.5t-82 -34.5t-114 -10zM305 1311l424 198l45 -106l-430 -178z" />
    <glyph glyph-name="Scommaaccent" unicode="&#x218;" horiz-adv-x="1107" 
d="M528 -160l-82 -409h107l98 409h-123zM975 1407l-10 -109q-283 35 -402 35q-330 0 -330 -252q0 -40 4.5 -71t17 -56.5t26 -44t39 -34.5t48.5 -26.5t63.5 -21.5t74 -18t88.5 -18q90 -18 151 -36t114 -47t83 -67.5t47 -94t17 -130.5q0 -228 -113.5 -330t-333.5 -102
q-72 0 -183 9.5t-186 19.5l-75 10l14 108q281 -35 426 -35q162 0 242 75t80 237q0 67 -17 110.5t-60 73.5t-100 47.5t-153 34.5q-96 18 -158 35.5t-121.5 47t-92 70t-52 101.5t-19.5 145q0 373 451 373q74 0 179 -10t173 -20z" />
    <glyph glyph-name="scommaaccent" unicode="&#x219;" horiz-adv-x="950" 
d="M373 -160l-80 -409h104l99 409h-123zM821 1008l-4 -109q-219 33 -354 33q-242 0 -242 -174q0 -79 53.5 -112.5t221.5 -61.5q84 -14 138.5 -28t100.5 -35t70.5 -50.5t37.5 -72t13 -101.5q0 -172 -100 -244.5t-295 -72.5q-56 0 -143.5 9t-147.5 18l-59 9l8 109
q230 -35 334 -35q141 0 209.5 43.5t68.5 157.5q0 90 -56.5 123.5t-234.5 60.5q-77 12 -127 24t-95 32.5t-69.5 49t-38.5 71.5t-14 102q0 65 21 115.5t55.5 82.5t82.5 52.5t98 29t106 8.5q68 0 158.5 -8.5t146.5 -17.5z" />
    <glyph glyph-name="Tcommaaccent" unicode="&#x21a;" horiz-adv-x="1077" 
d="M516 -160l-80 -409h105l98 409h-123zM27 1309v114h1024v-114h-447v-1309h-127v1309h-450z" />
    <glyph glyph-name="tcommaaccent" unicode="&#x21b;" horiz-adv-x="710" 
d="M336 -160l-80 -409h104l101 409h-125zM672 915h-342v-505q0 -70 2 -113.5t8 -83t16.5 -61t29.5 -37.5t44.5 -21.5t63.5 -5.5q25 0 72 3.5t82 6.5l34 4l8 -104q-135 -21 -207 -21q-105 0 -163 31.5t-85.5 111.5t-27.5 228v567h-152v109h152v322h123v-322h342v-109z" />
    <glyph glyph-name="circumflex" unicode="&#x2c6;" horiz-adv-x="466" 
d="M-35 1219l250 280h86l252 -280h-129l-164 188l-166 -188h-129z" />
    <glyph glyph-name="caron" unicode="&#x2c7;" horiz-adv-x="466" 
d="M217 1219l-250 280h127l168 -186l166 186h127l-252 -280h-86z" />
    <glyph glyph-name="breve" unicode="&#x2d8;" horiz-adv-x="466" 
d="M-33 1485h105q2 -81 52.5 -131.5t137.5 -50.5t138 51t53 131h106q-5 -121 -85 -200t-212 -79t-212 79.5t-83 199.5z" />
    <glyph glyph-name="dotaccent" unicode="&#x2d9;" horiz-adv-x="466" 
d="M172 1276v154h123v-154h-123z" />
    <glyph glyph-name="ring" unicode="&#x2da;" horiz-adv-x="466" 
d="M35 1325q0 86 59.5 145.5t147.5 59.5q86 0 145 -59.5t59 -145.5q0 -88 -59 -147.5t-145 -59.5q-88 0 -147.5 59.5t-59.5 147.5zM123 1325q0 -51 34 -87t85 -36q49 0 82.5 36t33.5 87q0 50 -33.5 84.5t-82.5 34.5q-51 0 -85 -34.5t-34 -84.5z" />
    <glyph glyph-name="ogonek" unicode="&#x2db;" horiz-adv-x="909" 
d="M645 2q-17 -17 -42.5 -44.5t-68 -87.5t-42.5 -89q0 -40 24.5 -67t63.5 -27q15 0 41.5 3t45.5 6l19 3l12 -98q-83 -19 -149 -19q-78 0 -128 47t-50 127q0 49 42 113.5t84 104.5l42 40z" />
    <glyph glyph-name="tilde" unicode="&#x2dc;" horiz-adv-x="466" 
d="M541 1450l28 -86q-10 -11 -27.5 -27t-61.5 -42.5t-77 -26.5q-43 0 -151 50t-139 50q-21 0 -58 -21t-63 -42l-27 -21l-31 82q12 11 31 28t67 45.5t83 28.5q43 0 152.5 -49t138.5 -49q18 0 52 20t58 40z" />
    <glyph glyph-name="hungarumlaut" unicode="&#x2dd;" horiz-adv-x="466" 
d="M285 1276l309 258l84 -76l-313 -256zM-104 1276l311 258l82 -76l-314 -256z" />
    <glyph glyph-name="pi" unicode="&#x3c0;" 
d="M756 315v600h-359l-57 -915h-125l64 915q-67 -1 -125 -7.5t-82 -12.5l-25 -6v106q119 29 287 29h473q70 0 139.5 8t103.5 16l35 7v-107q-58 -24 -208 -28v-605q0 -130 38 -171.5t150 -41.5v-108q-77 0 -127.5 9t-88 29t-57 58t-28 91t-8.5 134z" />
    <glyph glyph-name="Wgrave" unicode="&#x1e80;" horiz-adv-x="1789" 
d="M68 1423h129l258 -1310h67l299 1294h150l297 -1294h67l258 1310h129l-292 -1423h-254l-281 1249l-281 -1249h-254zM694 1901l424 -203l-41 -88l-428 180z" />
    <glyph glyph-name="wgrave" unicode="&#x1e81;" horiz-adv-x="1556" 
d="M68 1024h125l225 -918h28l267 898h129l266 -898h31l225 918h125l-256 -1024h-213l-242 844l-243 -844h-211zM543 1509l424 -198l-39 -86l-430 178z" />
    <glyph glyph-name="Wacute" unicode="&#x1e82;" horiz-adv-x="1789" 
d="M68 1423h129l258 -1310h67l299 1294h150l297 -1294h67l258 1310h129l-292 -1423h-254l-281 1249l-281 -1249h-254zM680 1698l424 203l45 -111l-428 -180z" />
    <glyph glyph-name="wacute" unicode="&#x1e83;" horiz-adv-x="1556" 
d="M68 1024h125l225 -918h28l267 898h129l266 -898h31l225 918h125l-256 -1024h-213l-242 844l-243 -844h-211zM582 1311l424 198l45 -106l-430 -178z" />
    <glyph glyph-name="Wdieresis" unicode="&#x1e84;" horiz-adv-x="1789" 
d="M68 1423h129l258 -1310h67l299 1294h150l297 -1294h67l258 1310h129l-292 -1423h-254l-281 1249l-281 -1249h-254zM629 1677v164h121v-164h-121zM1040 1677v164h119v-164h-119z" />
    <glyph glyph-name="wdieresis" unicode="&#x1e85;" horiz-adv-x="1556" 
d="M68 1024h125l225 -918h28l267 898h129l266 -898h31l225 918h125l-256 -1024h-213l-242 844l-243 -844h-211zM518 1284v164h121v-164h-121zM922 1284v164h118v-164h-118z" />
    <glyph glyph-name="uni1EAB" unicode="&#x1eab;" horiz-adv-x="1021" 
d="M858 719v-549q7 -75 133 -90l-6 -98q-158 0 -231 81q-22 -9 -59 -23t-138.5 -37t-187.5 -23q-136 0 -208.5 78.5t-72.5 230.5q0 141 72.5 212.5t228.5 86.5l348 35v96q0 114 -49.5 164.5t-150.5 50.5q-65 0 -162 -8t-161 -16l-64 -7l-7 98q226 43 398 43q165 0 241 -80
t76 -245zM737 526l-334 -34q-101 -9 -144.5 -57.5t-43.5 -143.5q0 -99 43 -153t127 -54q74 0 162 18t139 36l51 18v370zM188 1157l250 281h86l252 -281h-129l-164 189l-166 -189h-129zM750 1686l28 -87q-10 -11 -27.5 -27t-61.5 -42.5t-77 -26.5q-43 0 -151 50.5t-139 50.5
q-21 0 -58 -21t-64 -42l-26 -21l-31 82q12 11 31 28t67 45.5t83 28.5q43 0 152 -49t138 -49q18 0 52 20t59 40z" />
    <glyph glyph-name="uni1EB0" unicode="&#x1eb0;" horiz-adv-x="1212" 
d="M51 0l410 1427h297l403 -1425h-127l-119 387h-622l-115 -389h-127zM553 1311l-229 -801h563l-228 801h-106zM295 1817h117q1 -73 56 -117.5t134 -44.5q80 0 136 44.5t57 117.5h114q-3 -116 -88.5 -188.5t-218.5 -72.5q-132 0 -217.5 72t-89.5 189zM299 2202l424 -199
l-39 -86l-430 178z" />
    <glyph glyph-name="uni1EC5" unicode="&#x1ec5;" horiz-adv-x="1032" 
d="M518 92q67 0 160.5 5t153.5 9l61 5l4 -103q-231 -28 -391 -28q-113 1 -190.5 34.5t-122.5 102.5t-64.5 163.5t-19.5 227.5q0 534 421 534q203 0 303.5 -115t100.5 -368l-4 -98h-697q0 -189 64.5 -279t220.5 -90zM233 563h578q0 200 -67 285.5t-214 85.5q-145 0 -221 -89
t-76 -282zM229 1157l250 281h86l252 -281h-129l-164 189l-166 -189h-129zM801 1686l28 -87q-10 -11 -27.5 -27t-61 -42.5t-76.5 -26.5q-43 0 -151.5 50.5t-139.5 50.5q-21 0 -58 -21t-63 -42l-27 -21l-30 82q4 4 11.5 11t29 24.5t42.5 31t48 24.5t49 11q43 0 152.5 -49
t138.5 -49q18 0 52 20t58 40z" />
    <glyph glyph-name="uni1ED7" unicode="&#x1ed7;" horiz-adv-x="1079" 
d="M541 1044q-235 0 -332.5 -121.5t-97.5 -396.5q0 -152 19 -250t67 -167t131.5 -99t212.5 -30q128 0 211 30t131 99t67 167.5t19 249.5q0 275 -97.5 396.5t-330.5 121.5zM541 88q-80 0 -134 16.5t-87.5 46.5t-51.5 86.5t-24 121.5t-6 167q0 233 64 321.5t239 88.5
q174 0 238.5 -89t64.5 -321q0 -84 -4 -141.5t-16 -110.5t-32.5 -85t-54.5 -56.5t-82 -34.5t-114 -10zM231 1157l250 281h86l252 -281h-129l-164 189l-166 -189h-129zM788 1686l29 -87q-10 -11 -27.5 -27t-61.5 -42.5t-77 -26.5q-43 0 -151.5 50.5t-139.5 50.5
q-21 0 -57.5 -21t-62.5 -42l-27 -21l-31 82q4 4 11.5 11t29 24.5t42.5 31t48 24.5t49 11q43 0 152.5 -49t138.5 -49q18 0 52 20t59 40z" />
    <glyph glyph-name="Ygrave" unicode="&#x1ef2;" horiz-adv-x="1093" 
d="M610 602v-602h-127v602l-456 821h141l379 -690l377 690h143zM330 1901l424 -203l-41 -88l-428 180z" />
    <glyph glyph-name="ygrave" unicode="&#x1ef3;" horiz-adv-x="978" 
d="M55 1024h125l273 -918h73l275 918h125l-443 -1485h-123l138 461h-142zM270 1509l424 -198l-39 -86l-430 178z" />
    <glyph glyph-name="uni1EF8" unicode="&#x1ef8;" horiz-adv-x="1081" 
d="M606 612v-612h-127v612l-456 815h141l379 -673l372 673h144zM819 1855l29 -86q-10 -11 -27.5 -27t-61.5 -42.5t-77 -26.5q-43 0 -151.5 50.5t-139.5 50.5q-21 0 -57.5 -21t-63.5 -42l-26 -21l-31 82q4 4 11.5 11t29 24.5t42.5 31t48 24.5t49 11q43 0 152.5 -49t138.5 -49
q18 0 52 20t58 40z" />
    <glyph glyph-name="uni1EF9" unicode="&#x1ef9;" horiz-adv-x="978" 
d="M55 1024h125l273 -907h73l275 907h125l-443 -1485h-123l136 461h-140zM766 1450l29 -86q-10 -11 -27.5 -27t-61.5 -42.5t-77 -26.5q-43 0 -151.5 50t-139.5 50q-21 0 -58 -21t-64 -42l-26 -21l-30 82q4 4 11.5 11t29 24.5t42.5 31t48 24.5t49 11q43 0 152.5 -49
t138.5 -49q18 0 52 20t59 40z" />
    <glyph glyph-name="endash" unicode="&#x2013;" horiz-adv-x="1302" 
d="M139 604h1024v-110h-1024v110z" />
    <glyph glyph-name="emdash" unicode="&#x2014;" horiz-adv-x="2326" 
d="M139 604h2048v-110h-2048v110z" />
    <glyph glyph-name="quoteleft" unicode="&#x2018;" horiz-adv-x="428" 
d="M330 1464l-86 -432h-131l118 432h99z" />
    <glyph glyph-name="quoteright" unicode="&#x2019;" horiz-adv-x="423" 
d="M117 1030l86 432h131l-119 -432h-98z" />
    <glyph glyph-name="quotesinglbase" unicode="&#x201a;" horiz-adv-x="425" 
d="M215 115l-43 -215h-66l60 215h49z" />
    <glyph glyph-name="quotedblleft" unicode="&#x201c;" horiz-adv-x="727" 
d="M629 1464l-86 -432h-131l118 432h99zM330 1464l-86 -432h-131l118 432h99z" />
    <glyph glyph-name="quotedblright" unicode="&#x201d;" horiz-adv-x="739" 
d="M117 1032l86 432h131l-119 -432h-98zM432 1032l86 432h131l-119 -432h-98z" />
    <glyph glyph-name="quotedblbase" unicode="&#x201e;" horiz-adv-x="702" 
d="M276 227l-86 -432h-131l119 432h98zM569 227l-86 -432h-131l119 432h98z" />
    <glyph glyph-name="dagger" unicode="&#x2020;" horiz-adv-x="978" 
d="M72 913v111h356v399h123v-399h354v-111h-354l-8 -1071h-109l-6 1071h-356z" />
    <glyph glyph-name="daggerdbl" unicode="&#x2021;" horiz-adv-x="1071" 
d="M475 -158v400h-356v106h356v565h-356v111h356v399h121v-399h356v-111h-356v-565h356v-106h-356v-400h-121z" />
    <glyph glyph-name="bullet" unicode="&#x2022;" horiz-adv-x="978" 
d="M233 219v590h512v-590h-512z" />
    <glyph glyph-name="ellipsis" unicode="&#x2026;" horiz-adv-x="1464" 
d="M143 0v207h136v-207h-136zM664 0v207h135v-207h-135zM1186 0v207h135v-207h-135z" />
    <glyph glyph-name="perthousand" unicode="&#x2030;" horiz-adv-x="1703" 
d="M301 1282q63 0 90 -46t27 -144q0 -100 -27 -148.5t-90 -48.5q-61 0 -88 49.5t-27 149.5q0 96 26.5 142t88.5 46zM350 -6l404 1390l86 -26l-406 -1389zM82 1094q0 -145 58 -217t161 -72t162 72t59 215t-58.5 211.5t-162.5 68.5t-161.5 -68t-57.5 -210zM659 268
q0 142 58.5 210.5t163.5 68.5q104 0 161.5 -69t57.5 -212t-58.5 -214.5t-160.5 -71.5q-104 0 -163 71.5t-59 216.5zM764 268q0 -100 27 -149t90 -49q62 0 88 48.5t26 147.5q0 100 -25.5 145.5t-88.5 45.5t-90 -45.5t-27 -143.5zM1188 268q0 142 57.5 210.5t161.5 68.5
t162.5 -69t58.5 -212t-59 -214.5t-162 -71.5t-161 71.5t-58 216.5zM1292 268q0 -100 27 -149t88 -49q63 0 90 48.5t27 147.5t-27 145t-90 46q-62 0 -88.5 -46t-26.5 -143z" />
    <glyph glyph-name="guilsinglleft" unicode="&#x2039;" horiz-adv-x="608" 
d="M465 717l-264 -203l264 -223v-131l-371 299v104l371 283v-129z" />
    <glyph glyph-name="guilsinglright" unicode="&#x203a;" horiz-adv-x="608" 
d="M406 520l-263 201v129l371 -283v-104l-371 -299v133z" />
    <glyph glyph-name="fraction" unicode="&#x2044;" horiz-adv-x="0" 
d="M-459 57l803 1293l74 -47l-803 -1291z" />
    <glyph glyph-name="zerosuperior" unicode="&#x2070;" horiz-adv-x="573" 
d="M285 1636q119 0 178 -77t59 -261q0 -185 -60 -262.5t-175 -77.5q-116 0 -177 78t-61 264q0 182 60.5 259t175.5 77zM285 1538q-65 0 -96 -55.5t-31 -184.5q0 -132 32.5 -185.5t96.5 -53.5t95.5 54t31.5 187q0 126 -31 182t-98 56z" />
    <glyph glyph-name="foursuperior" unicode="&#x2074;" horiz-adv-x="573" 
d="M346 979v104h-291v95l156 440h119l-160 -434h176l8 180h101v-180h63v-101h-63v-104h-109z" />
    <glyph glyph-name="fivesuperior" unicode="&#x2075;" horiz-adv-x="573" 
d="M115 1618h372v-96h-282l-12 -174q60 34 126 34q89 0 139 -45.5t50 -154.5q0 -221 -209 -221q-43 0 -96.5 6.5t-86.5 12.5l-32 7l10 90q111 -18 197 -18q106 0 106 121q0 106 -94 106q-29 0 -59.5 -9t-45.5 -19l-16 -9l-88 11z" />
    <glyph glyph-name="sixsuperior" unicode="&#x2076;" horiz-adv-x="573" 
d="M487 1618l-6 -92q-94 12 -168 12q-70 0 -103.5 -42t-33.5 -134l20 8q19 8 52.5 17.5t60.5 9.5q207 0 207 -209q0 -106 -59 -168t-160 -62q-231 0 -231 332q0 183 59 264.5t186 81.5q34 0 78 -4.5t71 -9.5zM297 1303q-28 0 -58.5 -9.5t-47.5 -18.5t-17 -11
q3 -103 30.5 -155t88.5 -52q60 0 87.5 35.5t27.5 93.5q0 63 -26 90t-85 27z" />
    <glyph glyph-name="sevensuperior" unicode="&#x2077;" horiz-adv-x="573" 
d="M61 1511v107h412v-145l-219 -512l-115 24l215 481v45h-293z" />
    <glyph glyph-name="eightsuperior" unicode="&#x2078;" horiz-adv-x="573" 
d="M287 1636q114 0 169.5 -42t55.5 -130q0 -65 -22.5 -98.5t-73.5 -48.5q106 -31 106 -160q0 -199 -235 -199q-236 0 -236 191q0 72 28 109t79 59q-49 19 -73 51.5t-24 97.5q0 87 55.5 128.5t170.5 41.5zM287 1053q127 0 127 104q0 89 -97 115h-61q-48 -14 -72 -41.5
t-24 -77.5q0 -100 127 -100zM287 1542q-119 0 -119 -84q0 -41 20 -62.5t68 -37.5h61q49 15 69 36.5t20 61.5q0 86 -119 86z" />
    <glyph glyph-name="ninesuperior" unicode="&#x2079;" horiz-adv-x="573" 
d="M84 981l8 92q88 -14 166 -14q142 0 145 172l-21 -6q-20 -6 -55 -13.5t-63 -7.5q-98 0 -152.5 56t-54.5 157q0 103 61.5 161t160.5 58q120 0 177.5 -84t57.5 -258q0 -173 -60.5 -254.5t-189.5 -81.5q-36 0 -81 6t-72 12zM276 1294q24 0 56.5 8t53.5 16l20 7
q-2 110 -30 161.5t-93 51.5q-55 0 -86 -31t-31 -90q0 -54 29.5 -88.5t80.5 -34.5z" />
    <glyph glyph-name="zeroinferior" unicode="&#x2080;" horiz-adv-x="573" 
d="M285 453q119 0 178 -77t59 -261q0 -185 -60 -262.5t-175 -77.5q-116 0 -177 78t-61 264q0 182 60.5 259t175.5 77zM285 354q-65 0 -96 -55t-31 -184q0 -132 32.5 -186t96.5 -54t95.5 54.5t31.5 187.5q0 126 -31 181.5t-98 55.5z" />
    <glyph glyph-name="oneinferior" unicode="&#x2081;" horiz-adv-x="573" 
d="M104 293l207 141h103v-639h-109v518l-149 -102z" />
    <glyph glyph-name="twoinferior" unicode="&#x2082;" horiz-adv-x="573" 
d="M500 -205h-416v94l188 195q56 56 81.5 94t25.5 86q0 44 -29.5 66t-77.5 22q-28 0 -72.5 -4.5t-75.5 -9.5l-30 -4l-4 94q115 25 203 25q101 0 148.5 -44t47.5 -137q0 -69 -28.5 -118.5t-98.5 -116.5l-141 -143h279v-99z" />
    <glyph glyph-name="threeinferior" unicode="&#x2083;" horiz-adv-x="573" 
d="M76 432q115 21 205 21q106 0 156 -40.5t50 -127.5q0 -37 -11 -67t-27.5 -47t-27.5 -25.5t-20 -12.5q54 -16 78.5 -50.5t24.5 -111.5q0 -196 -211 -196q-44 0 -100.5 5.5t-90.5 11.5l-34 5l6 94q115 -16 209 -16q56 0 83 26.5t27 71.5q0 103 -104 103h-133v94h131
q33 0 61.5 31t28.5 73q0 80 -105 80q-39 0 -86.5 -4t-75.5 -8l-28 -4z" />
    <glyph glyph-name="fourinferior" unicode="&#x2084;" horiz-adv-x="573" 
d="M362 -205v105h-290v94l155 440h119l-160 -434h176l9 180h100v-180h64v-100h-64v-105h-109z" />
    <glyph glyph-name="fiveinferior" unicode="&#x2085;" horiz-adv-x="573" 
d="M96 434h373v-96h-283l-12 -174q61 35 127 35q89 0 138.5 -46t49.5 -155q0 -221 -208 -221q-43 0 -96.5 6.5t-86.5 12.5l-32 7l10 91q110 -19 196 -19q107 0 107 121q0 106 -94 106q-29 0 -59.5 -9t-45.5 -18l-16 -9l-88 10z" />
    <glyph glyph-name="sixinferior" unicode="&#x2086;" horiz-adv-x="573" 
d="M481 434l-6 -92q-94 12 -168 12q-70 0 -103.5 -42t-33.5 -134l20 8q19 8 52.5 17.5t60.5 9.5q207 0 207 -209q0 -106 -59 -167.5t-160 -61.5q-232 0 -232 331q0 183 59.5 265t186.5 82q34 0 78 -4.5t71 -9.5zM291 119q-28 0 -58.5 -9.5t-47.5 -18.5t-17 -11
q3 -103 30.5 -155t88.5 -52q59 0 86.5 35t27.5 94q0 63 -25.5 90t-84.5 27z" />
    <glyph glyph-name="seveninferior" unicode="&#x2087;" horiz-adv-x="573" 
d="M82 328v106h412v-145l-220 -512l-114 24l215 482v45h-293z" />
    <glyph glyph-name="eightinferior" unicode="&#x2088;" horiz-adv-x="573" 
d="M285 453q114 0 169.5 -42t55.5 -130q0 -65 -22.5 -99t-73.5 -49q106 -31 106 -160q0 -198 -235 -198q-236 0 -236 190q0 72 28 109t79 59q-49 19 -73 52t-24 98q0 87 55.5 128.5t170.5 41.5zM285 -131q127 0 127 104q0 89 -97 115h-61q-48 -14 -72 -41.5t-24 -77.5
q0 -100 127 -100zM285 358q-119 0 -119 -84q0 -41 20 -62.5t68 -37.5h61q49 15 68.5 36.5t19.5 61.5q0 44 -28 65t-90 21z" />
    <glyph glyph-name="nineinferior" unicode="&#x2089;" horiz-adv-x="573" 
d="M80 -203l8 92q88 -14 166 -14q142 0 145 172l-21 -6q-20 -6 -55 -13.5t-63 -7.5q-98 0 -152.5 56t-54.5 157q0 104 61 162t160 58q120 0 178 -84.5t58 -257.5t-60.5 -254.5t-189.5 -81.5q-36 0 -81 5.5t-72 11.5zM272 111q24 0 56.5 7.5t52.5 15.5l20 7q-2 110 -30 161.5
t-92 51.5q-55 0 -86 -31t-31 -90q0 -54 29.5 -88t80.5 -34z" />
    <glyph glyph-name="Euro" unicode="&#x20ac;" 
d="M61 784v105h136q11 121 40 206.5t84.5 150t144 95.5t214.5 31q164 0 364 -41l-6 -104q-194 37 -350 37q-95 0 -162 -23.5t-108.5 -73t-63.5 -116t-32 -162.5h612v-105h-619q-2 -37 -2 -112q0 -66 2 -97h619v-104h-615q9 -98 31 -166.5t64.5 -118t110.5 -73t165 -23.5
q155 0 348 37l6 -107q-209 -40 -364 -40q-125 0 -213.5 31.5t-144 96.5t-85 152.5t-40.5 210.5h-136v104h129q-2 31 -2 97q0 75 2 112h-129z" />
    <glyph glyph-name="trademark" unicode="&#x2122;" horiz-adv-x="1396" 
d="M193 1196v88h409v-88h-147v-516h-97v516h-165zM670 678v606h129l149 -453l158 453h129v-606h-92v485l-152 -458h-82l-149 458v-485h-90z" />
    <glyph glyph-name="Omega" unicode="&#x2126;" 
d="M90 92h272q-9 16 -25 44t-56 110.5t-71 160.5t-56 178.5t-25 180.5q0 157 20 264t69 187t136.5 117.5t218.5 37.5t218.5 -37.5t137 -117t69.5 -187t20 -264.5q0 -80 -24.5 -178.5t-59 -182.5t-69 -156.5t-59.5 -114.5l-24 -42h275v-110h-398v94q9 17 24.5 47.5t55 116
t69.5 163t54.5 171t24.5 157.5q0 95 -4.5 162t-16.5 130.5t-34 104.5t-56.5 72.5t-84.5 45.5t-118 14q-59 0 -104.5 -11.5t-78.5 -31.5t-56 -55t-37.5 -74.5t-22.5 -98t-11 -118t-3 -140.5q0 -64 23 -155t56 -175.5t66.5 -159t56.5 -119.5l23 -46v-94h-395v110z" />
    <glyph glyph-name="partialdiff" unicode="&#x2202;" 
d="M201 1292l-8 101q7 4 20 11.5t52.5 25.5t79 32t95 25.5t105.5 11.5q242 0 355.5 -176.5t113.5 -574.5q0 -393 -109 -579.5t-352 -186.5q-214 0 -332.5 117.5t-118.5 338.5q0 201 114.5 320t311.5 119q76 0 165 -16t141 -32l51 -16q-8 306 -90 441t-271 135
q-65 0 -146 -24t-129 -49zM541 766q-147 0 -228.5 -90t-81.5 -238q0 -167 82.5 -256.5t239.5 -89.5q174 0 252 149t80 459q-20 7 -55 18t-126 29.5t-163 18.5z" />
    <glyph glyph-name="Delta" unicode="&#x2206;" 
d="M113 92l344 1260h231l342 -1260l2 -92h-919v92zM598 1241h-53l-303 -1130h657z" />
    <glyph glyph-name="product" unicode="&#x220f;" 
d="M807 -324v1751h-469v-1751h-127v1751h-150v113h1024v-113h-151v-1751h-127z" />
    <glyph glyph-name="summation" unicode="&#x2211;" 
d="M657 635l-561 721v184h948v-115h-817v-49l547 -696v-94l-547 -740v-57h817v-113h-948v187z" />
    <glyph glyph-name="minus" unicode="&#x2212;" 
d="M137 457v114h873v-114h-873z" />
    <glyph glyph-name="radical" unicode="&#x221a;" 
d="M10 803v112h228l280 -1089h19l497 1759h125l-532 -1868h-203l-291 1086h-123z" />
    <glyph glyph-name="infinity" unicode="&#x221e;" 
d="M311 248q-124 0 -186 90.5t-62 259.5q0 167 61.5 258.5t182.5 91.5q98 0 158.5 -57.5t107.5 -175.5q46 118 106.5 175.5t158.5 57.5q122 0 183.5 -91t61.5 -259q0 -169 -62 -259.5t-187 -90.5q-95 0 -155.5 56.5t-105.5 172.5q-50 -132 -105 -180.5t-157 -48.5zM526 598
q-5 12 -19.5 48t-21.5 50.5t-21.5 42.5t-26.5 40.5t-30 28.5t-40 22t-48 6q-72 0 -103.5 -59.5t-31.5 -178.5q0 -110 32.5 -174t102.5 -64q35 0 61 9.5t44 24t34.5 44.5t28 57t29.5 76q2 6 3.5 9.5t3 8.5t3.5 9zM618 598q7 -16 20.5 -48t21.5 -49t21.5 -43.5t26.5 -40.5
t30.5 -29t39 -21.5t47.5 -6.5q138 0 138 238q0 118 -32.5 178t-105.5 60q-26 0 -47.5 -6.5t-39 -21.5t-30 -28.5t-26.5 -40.5t-21.5 -43t-21.5 -49.5t-21 -48.5z" />
    <glyph glyph-name="integral" unicode="&#x222b;" 
d="M633 -8q0 -203 -66 -286t-207 -83q-33 0 -76.5 3.5t-70.5 7.5l-27 4l4 106q87 -8 150 -8q93 0 130.5 56.5t37.5 201.5v1175q0 160 31.5 254.5t89.5 133t151 38.5q39 0 84.5 -4t71.5 -8l25 -4l-5 -104q-79 10 -157 10q-84 0 -125 -71.5t-41 -244.5v-1177z" />
    <glyph glyph-name="approxequal" unicode="&#x2248;" 
d="M991 768l21 -102q-5 -5 -14 -12t-36 -26.5t-53.5 -34t-62 -26.5t-66.5 -12q-50 0 -134 33.5t-162 67.5t-113 34q-36 0 -89.5 -25t-89.5 -50l-36 -25l-23 104q5 5 14.5 12t38 26.5t56 34t63.5 26.5t66 12q49 0 131.5 -33.5t161 -67.5t116.5 -34q34 0 86.5 24.5t88.5 49.5z
M991 408l21 -103q-5 -4 -14 -11.5t-36 -26.5t-53.5 -33.5t-62 -26.5t-66.5 -12q-50 0 -134 33.5t-162 67.5t-113 34q-36 0 -89.5 -25t-89.5 -51l-36 -25l-23 105q15 12 39.5 30.5t88 49t110.5 30.5q49 0 131.5 -34t161 -67.5t116.5 -33.5q34 0 86.5 24.5t88.5 49.5z" />
    <glyph glyph-name="notequal" unicode="&#x2260;" 
d="M133 639v115h498l139 319l102 -41l-122 -278h262v-115h-312l-110 -252h422v-115h-471l-138 -315l-102 41l119 274h-287v115h338l109 252h-447z" />
    <glyph glyph-name="lessequal" unicode="&#x2264;" 
d="M999 883l-718 -236l718 -256v-125l-866 320v114l866 310v-127zM133 47v113h866v-113h-866z" />
    <glyph glyph-name="greaterequal" unicode="&#x2265;" 
d="M864 647l-719 236v127l867 -310v-114l-867 -320v125zM1012 160v-113h-867v113h867z" />
    <glyph glyph-name="lozenge" unicode="&#x25ca;" 
d="M899 676l-297 338h74l356 -338l-356 -338h-74zM115 676l356 338h70l-293 -338l293 -338h-70zM598 332h-51l-6 6h61zM541 1014l6 6h51l4 -6h-61z" />
    <glyph glyph-name="dotlessj" unicode="&#xf6be;" horiz-adv-x="428" 
d="M154 20v1004h122v-1006q0 -181 -66.5 -274.5t-268.5 -196.5l-50 99q165 93 214 162t49 212z" />
    <glyph glyph-name="commaaccent" unicode="&#xf6c3;" horiz-adv-x="348" 
d="M61 -569l80 409h125l-100 -409h-105z" />
    <glyph glyph-name="CR" horiz-adv-x="481" 
 />
    <glyph glyph-name="DLE" horiz-adv-x="0" 
 />
    <glyph glyph-name="zero.pnum" horiz-adv-x="1087" 
d="M541 1042q85 0 149 -15t118.5 -53t89.5 -99.5t54 -157t19 -223.5q0 -117 -20.5 -206t-57 -146.5t-91.5 -94t-117.5 -51t-141.5 -14.5q-96 0 -170 24.5t-134 81.5t-92 160t-32 250q0 152 30 259.5t88.5 169t133.5 88.5t174 27zM543 934q-58 0 -102.5 -11t-85.5 -39.5
t-67 -76.5t-41.5 -125.5t-15.5 -181.5q0 -120 22.5 -203t66.5 -127.5t98 -63t127 -18.5q76 0 130 18.5t95.5 63t61.5 125.5t20 201q0 106 -14 183.5t-38.5 126.5t-64 77.5t-85 39.5t-107.5 11z" />
    <glyph glyph-name="one.pnum" horiz-adv-x="702" 
d="M59 795l375 229h109v-1024h-119v891l-313 -191z" />
    <glyph glyph-name="two.pnum" horiz-adv-x="960" 
d="M856 0h-745v104l374 316q120 99 170 167.5t50 155.5q0 102 -60 145.5t-196 43.5q-48 0 -129.5 -9.5t-140 -19t-58.5 -10.5l-10 106q212 43 362 43q354 0 354 -290q0 -81 -29 -147t-72 -112t-118 -106l-342 -278h590v-109z" />
    <glyph glyph-name="three.pnum" horiz-adv-x="989" 
d="M123 1008q206 36 362 36q178 0 269.5 -60.5t91.5 -197.5q0 -29 -5.5 -55.5t-15.5 -47t-22 -38t-27.5 -31.5t-28 -24t-28.5 -18l-25 -12.5t-20 -8.5l-10 -4q46 -15 78.5 -31t66 -45.5t51 -76t17.5 -109.5q0 -151 -100 -227t-277 -76q-76 0 -173.5 9.5t-157.5 18.5l-60 10
l16 107q209 -33 375 -33q130 2 195 49t65 146q0 56 -21 95t-59.5 59.5t-79 29.5t-92.5 12h-256v105h254q58 2 105.5 18.5t82.5 58t35 103.5q0 90 -59.5 127t-182.5 37q-72 0 -160 -8t-140 -16l-52 -9z" />
    <glyph glyph-name="four.pnum" horiz-adv-x="962" 
d="M655 -51v248h-579v94l336 733h123l-328 -717h448v285h119v-285h115v-110h-115v-248h-119z" />
    <glyph glyph-name="five.pnum" horiz-adv-x="995" 
d="M166 1028h686v-117h-582l-26 -336q17 8 46 19.5t104.5 31t135.5 19.5q172 0 267.5 -75.5t95.5 -233.5q0 -172 -99 -263t-272 -91q-73 0 -173 10.5t-164 21.5l-64 11l12 108q240 -41 385 -41q119 0 184.5 59.5t65.5 180.5q0 109 -64.5 157t-185.5 48q-56 0 -131 -19.5
t-123 -39.5l-47 -19l-88 20z" />
    <glyph glyph-name="six.pnum" horiz-adv-x="999" 
d="M844 1012l-8 -101q-170 25 -301 25q-147 0 -225.5 -84t-78.5 -287q71 33 157 57.5t153 24.5q360 0 360 -325q0 -165 -103.5 -253.5t-295.5 -88.5q-191 0 -289 131t-98 409q0 143 30 245.5t87 162t131.5 87t171.5 27.5q65 0 142.5 -7.5t122.5 -14.5zM526 537
q-56 0 -130 -18.5t-120 -36.5l-45 -19q6 -379 277 -379q276 0 276 238q0 113 -61 164t-197 51z" />
    <glyph glyph-name="seven.pnum" horiz-adv-x="835" 
d="M76 920v106h690v-149l-447 -895l-102 30l434 869v39h-575z" />
    <glyph glyph-name="eight.pnum" horiz-adv-x="1042" 
d="M518 1042q393 0 393 -266q0 -95 -49 -150.5t-147 -88.5q50 -17 84.5 -35.5t66 -48.5t47 -74.5t15.5 -104.5q0 -84 -29 -142.5t-85.5 -91t-128 -46.5t-167.5 -14q-403 0 -403 282q0 62 14 107.5t44.5 77t61.5 50.5t80 40q-88 34 -135 89.5t-47 151.5q0 264 385 264z
M518 84q72 0 121.5 8t90 29.5t60 61t19.5 98.5q0 51 -14 86t-45.5 57t-62 33.5t-83.5 25.5h-182q-98 -25 -143.5 -72t-45.5 -143q0 -103 73.5 -143.5t211.5 -40.5zM518 938q-136 0 -201 -38t-65 -130q0 -80 39.5 -120t130.5 -68h182q98 25 143.5 66t45.5 122q0 90 -69 129
t-206 39z" />
    <glyph glyph-name="nine.pnum" horiz-adv-x="995" 
d="M141 16l11 101q166 -29 305 -29q147 0 225 87t78 288q-18 -9 -48.5 -21.5t-109.5 -33.5t-139 -21q-178 0 -270.5 81.5t-92.5 233.5q0 160 102.5 251t278.5 91q400 0 400 -530q0 -145 -30 -249.5t-87.5 -165.5t-133 -89t-173.5 -28q-67 0 -146 8.5t-125 17.5zM469 492
q60 0 132.5 19t114.5 37l42 19q-5 189 -71.5 280t-207.5 91q-130 0 -195 -57t-65 -176q0 -213 250 -213z" />
    <glyph glyph-name="questiondown.cap" horiz-adv-x="903" 
d="M80 309q0 129 36.5 198t159.5 173q99 83 144 141t45 127v74h106q19 -52 19 -109q0 -41 -15 -79t-47.5 -77.5t-60.5 -67t-78 -71.5q-114 -98 -149 -154t-35 -147q0 -121 71.5 -172t225.5 -51q47 0 127 13t136 25l56 13l13 -104q-217 -59 -342 -59q-208 0 -310 76t-102 251
zM588 1423v-204h-135v204h135z" />
    <glyph glyph-name="endash.cap" horiz-adv-x="1304" 
d="M139 666h1024v-111h-1024v111z" />
    <glyph glyph-name="emdash.cap" horiz-adv-x="2328" 
d="M139 666h2048v-111h-2048v111z" />
    <glyph glyph-name="periodcentered.cap" horiz-adv-x="421" 
d="M143 586v207h136v-207h-136z" />
    <glyph glyph-name="exclamdown.cap" horiz-adv-x="489" 
d="M311 1421v-204h-135v204h135zM303 965l6 -967h-129l8 967h115z" />
    <glyph glyph-name="parenleft.cap" horiz-adv-x="516" 
d="M317 1597h119q-8 -21 -21 -59t-46.5 -150.5t-59 -218.5t-46.5 -244t-21 -247q0 -108 20 -238t48.5 -238t57 -200t48.5 -144l20 -53h-119q-8 18 -22 50.5t-49.5 132t-62.5 198.5t-49.5 235.5t-22.5 256.5t21 259t51.5 251.5t61 207.5t51.5 148z" />
    <glyph glyph-name="parenright.cap" horiz-adv-x="516" 
d="M201 -184h-119q8 21 21 59t46.5 150.5t59 218.5t46.5 244t21 247q0 108 -20 238t-48.5 238t-57 200t-48.5 145l-20 52h119q8 -18 22 -50.5t50 -132t63 -198.5t49.5 -235.5t22.5 -256.5t-21.5 -259t-52 -251.5t-60.5 -207.5t-52 -148z" />
    <glyph glyph-name="bracketleft.cap" horiz-adv-x="659" 
d="M575 1595v-110h-284v-1565h284v-110h-409v1785h409z" />
    <glyph glyph-name="bracketright.cap" horiz-adv-x="659" 
d="M84 1485v110h410v-1785h-410v110h285v1565h-285z" />
    <glyph glyph-name="braceleft.cap" horiz-adv-x="716" 
d="M393 410q-1 -13 -7.5 -103.5t-6.5 -136.5q0 -126 54.5 -189.5t201.5 -70.5l-4 -109q-202 7 -287.5 91.5t-85.5 269.5q0 44 7 137t7 115q0 91 -50 145t-167 88v103q117 27 167 82t50 149q0 26 -7 124t-7 138q0 187 86 270.5t289 90.5l2 -107q-148 -7 -203 -69.5
t-55 -190.5q0 -35 7 -127.5t7 -120.5q0 -132 -44 -192t-167 -97q122 -37 167.5 -99.5t45.5 -190.5z" />
    <glyph glyph-name="braceright.cap" horiz-adv-x="714" 
d="M324 995q1 13 7.5 103.5t6.5 136.5q0 126 -54.5 189.5t-201.5 70.5l4 109q202 -7 287.5 -91.5t85.5 -269.5q0 -44 -7.5 -137t-7.5 -115q0 -91 50.5 -145t167.5 -88v-103q-117 -27 -167.5 -82t-50.5 -149q0 -26 7.5 -124t7.5 -138q0 -187 -86 -270.5t-289 -90.5l-2 107
q148 7 203 69.5t55 190.5q0 35 -7 127.5t-7 120.5q0 132 44 192t167 97q-122 37 -167.5 99.5t-45.5 190.5z" />
    <glyph glyph-name="grave.cap" horiz-adv-x="466" 
d="M66 1901l423 -203l-40 -88l-429 180z" />
    <glyph glyph-name="acute.cap" horiz-adv-x="466" 
d="M31 1698l424 203l45 -111l-428 -180z" />
    <glyph glyph-name="circumflex.cap" horiz-adv-x="933" 
d="M125 1634l274 269h107l274 -269h-141l-184 176l-187 -176h-143z" />
    <glyph glyph-name="caron.cap" horiz-adv-x="466" 
d="M209 1634l-275 269h142l186 -177l184 177h144l-275 -269h-106z" />
    <glyph glyph-name="tilde.cap" horiz-adv-x="466" 
d="M582 1872l30 -92q-3 -5 -9.5 -12.5t-25 -27t-37 -34.5t-43.5 -27t-46 -12q-49 0 -175 58.5t-157 58.5q-20 0 -56 -26t-62 -52l-26 -25l-30 95q11 13 29 32t64 50.5t81 31.5q41 0 110 -28t132 -56t88 -28q18 0 51.5 23.5t57.5 46.5z" />
    <glyph glyph-name="dieresis.cap" horiz-adv-x="466" 
d="M-35 1677v164h121v-164h-121zM377 1677v164h119v-164h-119z" />
    <glyph glyph-name="macron.cap" horiz-adv-x="466" 
d="M-43 1677v101h618v-101h-618z" />
    <glyph glyph-name="breve.cap" horiz-adv-x="466" 
d="M-39 1884h117q1 -73 56 -117.5t134 -44.5q80 0 136 44.5t57 117.5h114q-3 -116 -88.5 -188t-218.5 -72q-132 0 -217.5 71.5t-89.5 188.5z" />
    <glyph glyph-name="ring.cap" horiz-adv-x="466" 
d="M485 1632q0 -96 -62.5 -151.5t-162.5 -55.5t-162.5 55.5t-62.5 151.5q0 95 62.5 150t162.5 55t162.5 -55t62.5 -150zM131 1632q0 -56 34 -86t95 -30t95 30t34 86q0 55 -34 85t-95 30t-95 -30t-34 -85z" />
    <glyph glyph-name="hungarumlaut.cap" horiz-adv-x="466" 
d="M307 1612l328 233l84 -65l-336 -234zM-92 1612l330 235l79 -67l-331 -232z" />
    <glyph glyph-name="dotaccent.cap" horiz-adv-x="466" 
d="M172 1657v153h123v-153h-123z" />
    <glyph glyph-name="zero.numr" horiz-adv-x="573" 
d="M285 1432q119 0 178 -77t59 -261q0 -185 -60 -262.5t-175 -77.5q-116 0 -177 78t-61 264q0 182 60.5 259t175.5 77zM285 1333q-65 0 -96 -55t-31 -184q0 -132 32.5 -186t96.5 -54t95.5 54.5t31.5 187.5q0 126 -31 181.5t-98 55.5z" />
    <glyph glyph-name="one.numr" horiz-adv-x="573" 
d="M92 1272l207 141h102v-639h-108v518l-150 -102z" />
    <glyph glyph-name="two.numr" horiz-adv-x="573" 
d="M489 774h-415v94l188 195q56 56 81.5 94t25.5 86q0 44 -29.5 66t-77.5 22q-28 0 -72.5 -4.5t-75.5 -8.5l-30 -5l-4 94q115 25 203 25q101 0 148.5 -44t47.5 -137q0 -69 -28.5 -118.5t-98.5 -116.5l-141 -144h278v-98z" />
    <glyph glyph-name="three.numr" horiz-adv-x="573" 
d="M82 1411q115 21 205 21q106 0 156.5 -40.5t50.5 -127.5q0 -37 -11 -67t-27.5 -47t-27.5 -25.5t-20 -12.5q54 -16 78 -50.5t24 -111.5q0 -196 -211 -196q-44 0 -100.5 5.5t-90.5 10.5l-34 6l6 94q115 -16 209 -16q56 0 83 26.5t27 71.5q0 103 -104 103h-133v94h131
q33 0 61.5 31t28.5 73q0 80 -104 80q-39 0 -87 -4t-76 -8l-28 -4z" />
    <glyph glyph-name="four.numr" horiz-adv-x="573" 
d="M346 774v105h-291v94l156 440h119l-160 -434h176l8 180h101v-180h63v-100h-63v-105h-109z" />
    <glyph glyph-name="five.numr" horiz-adv-x="573" 
d="M113 1413h372v-96h-282l-13 -174q61 35 127 35q189 0 189 -201q0 -221 -209 -221q-43 0 -96.5 6.5t-86.5 13.5l-32 6l10 90q111 -18 197 -18q106 0 106 121q0 106 -94 106q-29 0 -59.5 -9.5t-45.5 -18.5l-16 -9l-88 11z" />
    <glyph glyph-name="six.numr" horiz-adv-x="573" 
d="M485 1413l-6 -92q-94 12 -168 12q-70 0 -103.5 -42t-33.5 -134l20 8q19 8 52.5 17.5t60.5 9.5q207 0 207 -209q0 -106 -59 -167.5t-160 -61.5q-232 0 -232 331q0 183 59.5 265t186.5 82q34 0 78 -5t71 -9zM295 1098q-28 0 -58.5 -9.5t-47.5 -18.5t-17 -11
q3 -103 30.5 -155t88.5 -52q60 0 87.5 35.5t27.5 93.5q0 63 -26 90t-85 27z" />
    <glyph glyph-name="seven.numr" horiz-adv-x="573" 
d="M84 1307v106h412v-145l-220 -512l-114 24l215 482v45h-293z" />
    <glyph glyph-name="eight.numr" horiz-adv-x="573" 
d="M287 1432q114 0 169.5 -42t55.5 -130q0 -65 -22.5 -99t-73.5 -49q106 -31 106 -160q0 -198 -235 -198q-236 0 -236 190q0 72 28 109t79 59q-49 19 -73 52t-24 98q0 87 55.5 128.5t170.5 41.5zM287 848q127 0 127 104q0 89 -97 115h-61q-48 -14 -72 -41.5t-24 -77.5
q0 -100 127 -100zM287 1337q-119 0 -119 -84q0 -41 20 -62.5t68 -37.5h61q49 15 69 36.5t20 61.5q0 86 -119 86z" />
    <glyph glyph-name="nine.numr" horiz-adv-x="573" 
d="M88 776l8 92q88 -14 166 -14q143 0 146 172l-21 -6q-21 -6 -56 -13.5t-63 -7.5q-98 0 -152.5 56t-54.5 157q0 103 61.5 161.5t160.5 58.5q120 0 177.5 -84t57.5 -258q0 -173 -60.5 -254.5t-189.5 -81.5q-36 0 -81 5.5t-72 10.5zM281 1090q24 0 56.5 7.5t52.5 14.5l20 8
q-2 110 -30 161.5t-93 51.5q-55 0 -86 -31t-31 -90q0 -54 30 -88t81 -34z" />
    <glyph glyph-name="zero.slash" 
d="M520 575v187h117v-187h-117zM571 1372q98 0 172 -20.5t135 -70t99 -131.5t59 -206.5t21 -292.5q0 -191 -32.5 -323t-97.5 -207.5t-150.5 -108t-203.5 -32.5q-95 0 -167.5 19.5t-133.5 66t-100.5 122.5t-61.5 192t-22 271q0 168 21.5 292.5t60.5 206.5t100 131.5t133.5 70
t167.5 20.5zM571 1260q-93 0 -155.5 -27t-108.5 -95t-67 -187.5t-21 -301.5q0 -132 15.5 -229t44 -159.5t73.5 -99.5t97.5 -52t123.5 -15t123.5 15t97.5 52.5t73 100.5t43.5 160t15.5 229q0 179 -21 297.5t-66.5 187.5t-109 96.5t-158.5 27.5z" />
    <glyph glyph-name="at.cap" horiz-adv-x="1990" 
d="M1901 766v-31q0 -116 -9 -207t-23.5 -155t-39.5 -109.5t-52 -72t-65.5 -41.5t-75 -20t-86.5 -5q-56 0 -100.5 13t-68 32t-38.5 37.5t-19 31.5l-5 13q-24 -14 -63.5 -35t-138 -55.5t-169.5 -34.5q-38 0 -69.5 4t-69.5 17t-67 35t-58 61t-48 92t-30.5 131.5t-11.5 175.5
q0 135 20 230.5t67.5 166.5t129.5 105.5t203 34.5q47 0 109.5 -14t101.5 -28l39 -14v35h122v-399q0 -80 0.5 -132t2 -107t4 -87.5t7.5 -67t11 -52t16.5 -36t21.5 -26t28 -14t35 -8t44 -1.5q46 0 74 7t58.5 35t47 81.5t27.5 148.5t11 234v33q0 196 -40.5 333.5t-130 229.5
t-231 135t-344.5 43q-274 0 -446.5 -82.5t-260.5 -267t-88 -483.5q0 -238 46 -399t146 -258.5t245.5 -139t357.5 -41.5q38 0 111.5 5t127.5 11l54 5l6 -111q-197 -20 -299 -20q-156 0 -279 19t-229 62.5t-181 115.5t-128.5 176.5t-79 247.5t-25.5 327q0 253 59.5 434.5
t179 293t287.5 163t396 51.5q458 0 665.5 -207.5t207.5 -644.5zM954 238q54 0 139.5 27.5t124 45t66.5 31.5q-2 8 -7 64.5t-9 149t-4 173.5v293q-134 47 -234 47q-76 0 -131 -18.5t-90 -51.5t-55.5 -88t-28.5 -119t-8 -153q0 -101 14.5 -176.5t37 -117.5t55.5 -67t63 -32.5
t67 -7.5z" />
    <glyph glyph-name="zero.dnom" horiz-adv-x="573" 
d="M285 657q119 0 178 -77t59 -261q0 -185 -59.5 -262t-175.5 -77t-177 78t-61 264q0 182 60 258.5t176 76.5zM285 559q-65 0 -96 -55.5t-31 -184.5q0 -132 32.5 -185.5t96.5 -53.5t95.5 54.5t31.5 187.5q0 126 -31 181.5t-98 55.5z" />
    <glyph glyph-name="one.dnom" horiz-adv-x="573" 
d="M98 498l207 141h103v-639h-109v518l-149 -102z" />
    <glyph glyph-name="two.dnom" horiz-adv-x="573" 
d="M500 0h-416v94l188 195q56 56 81.5 94t25.5 86q0 44 -29.5 66t-77.5 22q-28 0 -72.5 -4.5t-75.5 -8.5l-30 -5l-4 94q115 24 203 24q101 0 148.5 -44t47.5 -136q0 -69 -28.5 -118.5t-98.5 -116.5l-141 -144h279v-98z" />
    <glyph glyph-name="three.dnom" horiz-adv-x="573" 
d="M82 637q115 20 205 20q106 0 156.5 -40.5t50.5 -127.5q0 -37 -11 -67t-27.5 -47t-27.5 -25t-20 -12q54 -16 78 -50.5t24 -111.5q0 -196 -211 -196q-44 0 -100.5 5.5t-90.5 10.5l-34 6l6 94q115 -16 209 -16q56 0 83 26.5t27 71.5q0 103 -104 103h-133v94h131
q33 0 61.5 31t28.5 73q0 80 -104 80q-39 0 -87 -4t-76 -8l-28 -4z" />
    <glyph glyph-name="four.dnom" horiz-adv-x="573" 
d="M348 0v104h-291v95l156 440h119l-160 -434h176l8 180h101v-180h63v-101h-63v-104h-109z" />
    <glyph glyph-name="five.dnom" horiz-adv-x="573" 
d="M102 639h373v-96h-282l-13 -174q61 34 127 34q89 0 139 -45.5t50 -154.5q0 -221 -209 -221q-43 0 -96.5 6.5t-86.5 13.5l-32 6l10 90q111 -18 197 -18q106 0 106 121q0 106 -94 106q-29 0 -59.5 -9.5t-45.5 -18.5l-16 -9l-88 11z" />
    <glyph glyph-name="six.dnom" horiz-adv-x="573" 
d="M477 639l-6 -92q-94 12 -168 12q-70 0 -103.5 -42t-33.5 -134l20 8q19 8 52.5 17.5t60.5 9.5q207 0 207 -209q0 -106 -59 -167.5t-160 -61.5q-232 0 -232 331q0 183 59.5 264.5t186.5 81.5q34 0 78 -4.5t71 -8.5zM287 324q-28 0 -58.5 -9.5t-47.5 -18.5t-17 -11
q3 -103 30.5 -155t88.5 -52q59 0 86.5 35t27.5 94q0 63 -25.5 90t-84.5 27z" />
    <glyph glyph-name="seven.dnom" horiz-adv-x="573" 
d="M84 532v107h412v-145l-220 -512l-114 24l215 481v45h-293z" />
    <glyph glyph-name="eight.dnom" horiz-adv-x="573" 
d="M287 657q114 0 169.5 -42t55.5 -130q0 -65 -22.5 -98.5t-73.5 -48.5q106 -31 106 -160q0 -198 -235 -198q-236 0 -236 190q0 72 28 109t79 59q-49 19 -73 51.5t-24 97.5q0 87 55.5 128.5t170.5 41.5zM287 74q127 0 127 104q0 89 -97 115h-61q-48 -14 -72 -41.5t-24 -77.5
q0 -100 127 -100zM287 563q-119 0 -119 -84q0 -41 20 -62.5t68 -37.5h61q49 15 69 36.5t20 61.5q0 86 -119 86z" />
    <glyph glyph-name="nine.dnom" horiz-adv-x="573" 
d="M82 2l8 92q88 -14 166 -14q142 0 145 172l-21 -6q-20 -6 -55 -13.5t-63 -7.5q-98 0 -152.5 56t-54.5 157q0 103 61 161t160 58q120 0 178 -84.5t58 -257.5t-60.5 -254t-189.5 -81q-36 0 -81 5.5t-72 10.5zM274 315q24 0 56.5 7.5t52.5 15.5l20 8q-2 110 -30 161.5
t-92 51.5q-55 0 -86 -31t-31 -90q0 -54 29.5 -88.5t80.5 -34.5z" />
    <glyph glyph-name="hyphen.cap" horiz-adv-x="911" 
d="M145 571v115h623v-115h-623z" />
    </font>
</defs>
</svg>
