<svg xmlns="http://www.w3.org/2000/svg" xmlns:xlink="http://www.w3.org/1999/xlink" viewBox="0 0 178 39">
  <defs>
    <style>
      .cls-1 {
        clip-path: url(#clip-Logo);
      }

      .cls-2 {
        fill: #2a2a2a;
      }

      .cls-3 {
        fill: #ff6d38;
      }

      .cls-4 {
        fill: #939393;
      }
    </style>
    <clipPath id="clip-Logo">
      <rect width="178" height="39"/>
    </clipPath>
  </defs>
  <g id="Logo" class="cls-1">
    <path id="Path_1183" data-name="Path 1183" class="cls-2" d="M13.943,0h-2L10.313-4.318H3.781L2.245,0H.236L6.145-15.4H8.014ZM9.722-5.94,7.3-12.5a6.285,6.285,0,0,1-.236-1.031H7.025A5.754,5.754,0,0,1,6.778-12.5L4.383-5.94Zm8.293.118V0h-1.8V-15.4h4.232a5.586,5.586,0,0,1,3.83,1.2,4.3,4.3,0,0,1,1.359,3.395,4.669,4.669,0,0,1-1.509,3.588,5.767,5.767,0,0,1-4.077,1.4Zm0-7.949v6.316h1.891a4.227,4.227,0,0,0,2.852-.854,3.023,3.023,0,0,0,.983-2.412q0-3.051-3.609-3.051ZM30.336-5.822V0h-1.8V-15.4h4.232a5.586,5.586,0,0,1,3.83,1.2,4.3,4.3,0,0,1,1.359,3.395,4.669,4.669,0,0,1-1.509,3.588,5.767,5.767,0,0,1-4.077,1.4Zm0-7.949v6.316h1.891a4.227,4.227,0,0,0,2.852-.854,3.023,3.023,0,0,0,.983-2.412q0-3.051-3.609-3.051Zm20.571-1.2L41.884-1.633h8.809V0h-11.5V-.5l8.948-13.267H39.907V-15.4h11ZM55.2,0H53.4V-15.4h1.8ZM67.246,0H59.254V-15.4h1.8V-1.633h6.188ZM77.6,0H69.609V-15.4h1.8V-1.633H77.6Zm7.82.258A6.762,6.762,0,0,1,80.174-1.9,8.008,8.008,0,0,1,78.2-7.52a8.485,8.485,0,0,1,2.009-5.93,7.016,7.016,0,0,1,5.468-2.213,6.609,6.609,0,0,1,5.14,2.148A8.038,8.038,0,0,1,92.77-7.9a8.513,8.513,0,0,1-2,5.962A6.886,6.886,0,0,1,85.422.258Zm.129-14.287a4.966,4.966,0,0,0-3.942,1.751,6.779,6.779,0,0,0-1.515,4.6A6.826,6.826,0,0,0,81.571-3.1a4.817,4.817,0,0,0,3.851,1.735,5.057,5.057,0,0,0,4-1.654,6.761,6.761,0,0,0,1.461-4.63,7.064,7.064,0,0,0-1.418-4.716A4.862,4.862,0,0,0,85.551-14.029ZM108.217,0H106L98.076-12.278a5.13,5.13,0,0,1-.494-.967h-.064a15.859,15.859,0,0,1,.086,2.116V0H95.8V-15.4h2.342l7.713,12.085q.483.752.623,1.031h.043a16.3,16.3,0,0,1-.107-2.267V-15.4h1.8Z" transform="translate(3 19)"/>
    <path id="Path_1181" data-name="Path 1181" class="cls-3" d="M1.762,0V-15.4H7.369a7,7,0,0,1,3.964.945,3.04,3.04,0,0,1,1.386,2.664,3.153,3.153,0,0,1-.843,2.181,4.43,4.43,0,0,1-2.154,1.3v.043a4.269,4.269,0,0,1,2.626,1.214,3.4,3.4,0,0,1,.983,2.46,4.112,4.112,0,0,1-1.515,3.357A6.338,6.338,0,0,1,7.681,0Zm3.47-12.848V-9.2H6.757a2.542,2.542,0,0,0,1.692-.521,1.776,1.776,0,0,0,.618-1.434q0-1.7-2.535-1.7Zm0,6.23v4.061h1.88A2.893,2.893,0,0,0,9-3.115a1.866,1.866,0,0,0,.682-1.525,1.741,1.741,0,0,0-.671-1.45,2.97,2.97,0,0,0-1.875-.526ZM29.412,0H25.631l-1.1-3.427H19.057L17.972,0h-3.76l5.607-15.4h4.114ZM23.74-6.091l-1.654-5.178a6.747,6.747,0,0,1-.258-1.386h-.086a5.876,5.876,0,0,1-.269,1.343L19.8-6.091ZM45.192,0h-3.5L35.342-9.679a14,14,0,0,1-.773-1.278h-.043q.086.816.086,2.492V0H31.335V-15.4h3.738l6.112,9.378q.419.634.773,1.257H42a16.47,16.47,0,0,1-.086-2.116V-15.4h3.276ZM61.521,0H57.138l-4.49-6.692a6.415,6.415,0,0,1-.408-.849h-.054V0h-3.47V-15.4h3.47v7.283h.054q.129-.3.43-.859L56.923-15.4h4.136L55.688-8.057Z" transform="translate(113 19)"/>
    <path id="Path_1182" data-name="Path 1182" class="cls-4" d="M7.389-.381A5.339,5.339,0,0,1,4.875.152,4.054,4.054,0,0,1,1.765-1.1,4.614,4.614,0,0,1,.6-4.38,4.836,4.836,0,0,1,1.911-7.909,4.46,4.46,0,0,1,5.243-9.255a5.343,5.343,0,0,1,2.146.375v1.136A4.351,4.351,0,0,0,5.23-8.29,3.312,3.312,0,0,0,2.688-7.243a3.946,3.946,0,0,0-.974,2.8,3.754,3.754,0,0,0,.911,2.65,3.1,3.1,0,0,0,2.39.987,4.483,4.483,0,0,0,2.374-.609Zm4.431.533a3.015,3.015,0,0,1-2.3-.911,3.374,3.374,0,0,1-.86-2.415,3.515,3.515,0,0,1,.9-2.558,3.218,3.218,0,0,1,2.418-.92,2.915,2.915,0,0,1,2.269.9,3.549,3.549,0,0,1,.816,2.482,3.492,3.492,0,0,1-.879,2.491A3.081,3.081,0,0,1,11.819.152ZM11.9-5.776a1.98,1.98,0,0,0-1.587.682,2.8,2.8,0,0,0-.584,1.882,2.65,2.65,0,0,0,.59,1.822A2.006,2.006,0,0,0,11.9-.724a1.9,1.9,0,0,0,1.552-.654,2.837,2.837,0,0,0,.543-1.86,2.886,2.886,0,0,0-.543-1.879A1.9,1.9,0,0,0,11.9-5.776ZM22.115,0H21.074V-3.707q0-2.069-1.511-2.069a1.639,1.639,0,0,0-1.292.587,2.176,2.176,0,0,0-.511,1.482V0H16.72V-6.5h1.041v1.079h.025a2.346,2.346,0,0,1,2.133-1.231,1.989,1.989,0,0,1,1.631.689,3.068,3.068,0,0,1,.565,1.99Zm1.568-.235V-1.352a3.081,3.081,0,0,0,1.873.628q1.371,0,1.371-.914a.793.793,0,0,0-.117-.441,1.17,1.17,0,0,0-.317-.321,2.443,2.443,0,0,0-.47-.251q-.27-.111-.581-.232a7.48,7.48,0,0,1-.759-.346,2.292,2.292,0,0,1-.546-.394,1.464,1.464,0,0,1-.33-.5,1.763,1.763,0,0,1-.111-.654,1.553,1.553,0,0,1,.209-.809,1.857,1.857,0,0,1,.559-.59,2.6,2.6,0,0,1,.8-.359,3.534,3.534,0,0,1,.924-.121,3.729,3.729,0,0,1,1.511.292v1.054a2.944,2.944,0,0,0-1.65-.47,1.929,1.929,0,0,0-.527.067,1.29,1.29,0,0,0-.4.187.865.865,0,0,0-.26.289.761.761,0,0,0-.092.371.891.891,0,0,0,.092.425.936.936,0,0,0,.27.3,2.062,2.062,0,0,0,.432.241q.254.108.578.235a8.039,8.039,0,0,1,.774.34,2.656,2.656,0,0,1,.584.394,1.538,1.538,0,0,1,.371.5,1.628,1.628,0,0,1,.13.679,1.6,1.6,0,0,1-.213.838,1.822,1.822,0,0,1-.568.59,2.6,2.6,0,0,1-.819.349,4.043,4.043,0,0,1-.971.114A3.688,3.688,0,0,1,23.683-.235ZM34.849,0H33.808V-1.028h-.025A2.138,2.138,0,0,1,31.776.152q-2.323,0-2.323-2.768V-6.5h1.035v3.72q0,2.057,1.574,2.057a1.593,1.593,0,0,0,1.254-.562,2.149,2.149,0,0,0,.492-1.469V-6.5h1.041ZM46.179,0H45.138V-3.732A2.816,2.816,0,0,0,44.8-5.294a1.264,1.264,0,0,0-1.12-.482,1.387,1.387,0,0,0-1.133.609,2.331,2.331,0,0,0-.467,1.46V0H41.044V-3.859q0-1.917-1.479-1.917a1.37,1.37,0,0,0-1.13.574,2.375,2.375,0,0,0-.444,1.495V0H36.95V-6.5h1.041v1.028h.025a2.208,2.208,0,0,1,2.019-1.181,1.882,1.882,0,0,1,1.162.371,1.868,1.868,0,0,1,.679.974,2.32,2.32,0,0,1,2.158-1.346q2.146,0,2.146,2.647Zm7.192-2.99H48.782a2.431,2.431,0,0,0,.584,1.676,2.013,2.013,0,0,0,1.536.59,3.194,3.194,0,0,0,2.019-.724V-.47a3.773,3.773,0,0,1-2.266.622A2.747,2.747,0,0,1,48.49-.733,3.624,3.624,0,0,1,47.7-3.225a3.554,3.554,0,0,1,.86-2.472A2.758,2.758,0,0,1,50.7-6.652a2.444,2.444,0,0,1,1.974.825,3.44,3.44,0,0,1,.7,2.292ZM52.3-3.872a2.118,2.118,0,0,0-.435-1.4,1.481,1.481,0,0,0-1.19-.5,1.682,1.682,0,0,0-1.25.527,2.391,2.391,0,0,0-.635,1.377Zm6.03-1.574a1.273,1.273,0,0,0-.787-.209,1.328,1.328,0,0,0-1.114.628,2.905,2.905,0,0,0-.448,1.714V0H54.945V-6.5h1.041v1.339h.025a2.27,2.27,0,0,1,.679-1.07,1.549,1.549,0,0,1,1.022-.384,1.7,1.7,0,0,1,.622.089ZM63.166,0V-9.1h2.59a2.831,2.831,0,0,1,1.873.578,1.867,1.867,0,0,1,.692,1.5A2.214,2.214,0,0,1,67.9-5.675a2.259,2.259,0,0,1-1.155.813v.025a2.316,2.316,0,0,1,1.473.7,2.138,2.138,0,0,1,.552,1.527,2.38,2.38,0,0,1-.838,1.892A3.119,3.119,0,0,1,65.819,0Zm1.066-8.138V-5.2h1.092A2.073,2.073,0,0,0,66.7-5.621a1.47,1.47,0,0,0,.5-1.19q0-1.327-1.746-1.327Zm0,3.9V-.965h1.447a2.168,2.168,0,0,0,1.457-.444,1.522,1.522,0,0,0,.517-1.219q0-1.612-2.2-1.612ZM75.131,0H74.09V-1.016h-.025a2.179,2.179,0,0,1-2,1.168,2.137,2.137,0,0,1-1.52-.514A1.781,1.781,0,0,1,70-1.727q0-1.822,2.146-2.12L74.09-4.12q0-1.657-1.339-1.657a3.2,3.2,0,0,0-2.12.8V-6.043a4.028,4.028,0,0,1,2.209-.609q2.292,0,2.292,2.425ZM74.09-3.288l-1.568.216a2.546,2.546,0,0,0-1.092.359,1.034,1.034,0,0,0-.368.911.992.992,0,0,0,.34.778,1.312,1.312,0,0,0,.9.3,1.671,1.671,0,0,0,1.279-.543,1.939,1.939,0,0,0,.5-1.374ZM82.488,0H81.447V-3.707q0-2.069-1.511-2.069a1.639,1.639,0,0,0-1.292.587,2.176,2.176,0,0,0-.511,1.482V0H77.092V-6.5h1.041v1.079h.025a2.346,2.346,0,0,1,2.133-1.231,1.989,1.989,0,0,1,1.631.689,3.068,3.068,0,0,1,.565,1.99Zm7.357,0h-1.46L85.516-3.123H85.49V0H84.449V-9.623H85.49v6.1h.025L88.245-6.5H89.61L86.595-3.364Zm1.6-8.15a.66.66,0,0,1-.476-.19.643.643,0,0,1-.2-.482.653.653,0,0,1,.2-.486.654.654,0,0,1,.476-.194.672.672,0,0,1,.486.194.648.648,0,0,1,.2.486.643.643,0,0,1-.2.476A.667.667,0,0,1,91.444-8.15ZM91.952,0H90.911V-6.5h1.041Zm7.5,0H98.414V-3.707q0-2.069-1.511-2.069a1.639,1.639,0,0,0-1.292.587A2.176,2.176,0,0,0,95.1-3.707V0H94.06V-6.5H95.1v1.079h.025a2.346,2.346,0,0,1,2.133-1.231,1.989,1.989,0,0,1,1.631.689,3.068,3.068,0,0,1,.565,1.99Zm7.509-.521q0,3.58-3.428,3.58a4.6,4.6,0,0,1-2.107-.457V1.562a4.328,4.328,0,0,0,2.095.609q2.4,0,2.4-2.552v-.711H105.9A2.434,2.434,0,0,1,103.664.152a2.44,2.44,0,0,1-1.952-.866,3.464,3.464,0,0,1-.74-2.326,4.047,4.047,0,0,1,.8-2.634,2.661,2.661,0,0,1,2.18-.978A2.119,2.119,0,0,1,105.9-5.6h.025v-.9h1.041Zm-1.041-2.418V-3.9a1.86,1.86,0,0,0-.524-1.327,1.724,1.724,0,0,0-1.3-.552,1.808,1.808,0,0,0-1.511.7,3.131,3.131,0,0,0-.546,1.965,2.688,2.688,0,0,0,.524,1.736,1.692,1.692,0,0,0,1.387.651,1.812,1.812,0,0,0,1.425-.622A2.319,2.319,0,0,0,105.923-2.939Z" transform="translate(35 34.118)"/>
  </g>
</svg>
