<?xml version="1.0" encoding="UTF-8" standalone="no"?>
<svg
   xmlns:dc="http://purl.org/dc/elements/1.1/"
   xmlns:cc="http://creativecommons.org/ns#"
   xmlns:rdf="http://www.w3.org/1999/02/22-rdf-syntax-ns#"
   xmlns:svg="http://www.w3.org/2000/svg"
   xmlns="http://www.w3.org/2000/svg"
   xml:space="preserve"
   style="enable-background:new 0 0 150 150;"
   viewBox="0 0 150 150"
   y="0px"
   x="0px"
   id="Layer_1"
   version="1.1"><metadata
     id="metadata27"><rdf:RDF><cc:Work
         rdf:about=""><dc:format>image/svg+xml</dc:format><dc:type
           rdf:resource="http://purl.org/dc/dcmitype/StillImage" /><dc:title></dc:title></cc:Work></rdf:RDF></metadata><defs
     id="defs25" /><style
     id="style3"
     type="text/css">
	.st0{fill:#43C99F;}
	.st1{fill:#FFFFFF;}
</style><circle
     class="st0"
     cx="75"
     cy="75"
     r="75"
     id="circle7"
     style="fill:#43c99f" /><g
     id="g9"><path
       class="st1"
       d="m 72.3,85.3 c 0,-1.1 -0.1,-2.1 0,-3 0.2,-1.4 -0.4,-1.9 -1.6,-2.3 -2.2,-0.8 -4.4,-1.8 -6.6,-2.7 -1.2,-0.5 -1.5,-1.5 -1.7,-2.7 -0.4,-3.1 1.3,-5.6 2.3,-8.3 0,-0.1 0.2,-0.3 0.3,-0.3 2.3,-0.9 2.4,-3 2.5,-5 0.1,-0.9 -0.1,-1.7 -1.2,-1.8 1.1,-4.4 0.1,-8 -3.7,-10.6 -3.5,-2.3 -8.9,-2.2 -12.3,0.2 -3.6,2.6 -4.5,6.1 -3.5,10.2 -0.4,0.4 -0.9,0.7 -1.1,1 -0.6,1.5 0.2,4.8 1.5,5.5 1.2,0.6 1.4,1.6 1.8,2.5 0.9,1.9 1.6,3.8 1.6,5.9 0,1.9 -0.7,3.1 -2.4,3.7 -2.2,0.9 -4.4,1.8 -6.7,2.7 -0.3,0.1 -0.9,0.5 -0.9,0.7 -0.1,1.4 0,2.9 0,4.3 10.8,0 21.2,0 31.7,0 z"
       id="path11"
       style="fill:#ffffff" /><path
       class="st1"
       d="m 118.2,40.2 c 0,-1.8 -0.5,-2.3 -2.3,-2.3 -27.3,0 -54.6,0 -81.9,0 -1,0 -1.8,0.3 -2.3,1.2 0,19.5 0,39 0,58.5 0.6,0.9 1.3,1.1 2.3,1.1 9.8,0 19.6,0 29.4,0 0.5,0 1,0 1.4,0 0,3.5 0,6.8 0,10.2 -4.3,0 -8.4,0 -12.6,0 -0.5,0 -1.2,0 -1.5,0.3 -0.4,0.4 -0.7,1.2 -0.7,1.7 0.1,0.9 0.8,1.3 1.7,1.3 3.8,0 7.5,0 11.3,0 11.5,0 23.1,0 34.6,0 1.4,0 2.2,-0.6 2.2,-1.7 0,-1.1 -0.8,-1.6 -2.2,-1.7 -1.9,0 -3.8,0 -5.8,0 -2.3,0 -4.6,0 -6.9,0 0,-3.4 0,-6.7 0,-10.2 0.6,0 1.1,0 1.6,0 9.8,0 19.5,0 29.3,0 1.9,0 2.4,-0.5 2.4,-2.4 0,-18.6 0,-37.3 0,-56 z m -3.4,55 c -26.6,0 -53.1,0 -79.7,0 0,-18 0,-35.9 0,-53.9 26.6,0 53.1,0 79.7,0 0,18 0,35.9 0,53.9 z"
       id="path13"
       style="fill:#ffffff" /><rect
       x="80.099998"
       y="53.200001"
       class="st1"
       width="27.200001"
       height="2.3"
       id="rect15"
       style="fill:#ffffff" /><rect
       x="80.099998"
       y="61.700001"
       class="st1"
       width="27.200001"
       height="2.3"
       id="rect17"
       style="fill:#ffffff" /><rect
       x="80.099998"
       y="70.5"
       class="st1"
       width="27.200001"
       height="2.3"
       id="rect19"
       style="fill:#ffffff" /><rect
       x="80.099998"
       y="79"
       class="st1"
       width="27.200001"
       height="2.3"
       id="rect21"
       style="fill:#ffffff" /></g></svg>