<?xml version="1.0" encoding="utf-8"?>
<!-- Generator: Adobe Illustrator 22.1.0, SVG Export Plug-In . SVG Version: 6.00 Build 0)  -->
<svg version="1.1" id="Layer_1" xmlns="http://www.w3.org/2000/svg" xmlns:xlink="http://www.w3.org/1999/xlink" x="0px" y="0px"
	 viewBox="0 0 100 100" style="enable-background:new 0 0 100 100;" xml:space="preserve">
<style type="text/css">
	.st0{fill:#3B5998;}
</style>
<path id="facebook1" class="st0" d="M47.1,2.5c-6.2,0.3-12.2,1.9-17.7,4.7C5.8,18.5-4.1,46.8,7.1,70.3c0,0.1,0.1,0.2,0.1,0.3
	c11.2,23.6,39.5,33.5,63,22.3c0.1,0,0.2-0.1,0.3-0.1c9.6-4.8,17.3-12.6,22.2-22.2C95,66,96.5,61.1,97.1,56
	c1.2-9.2-0.3-18.6-4.4-26.9C87.9,19.6,80.1,11.8,70.5,7C63.2,3.7,55.2,2.2,47.1,2.5z M66.4,28.5v5.1h-5.1c-5.7,0-5.4,0-6,0.9
	c-0.6,0.9-0.6,1.3-0.6,5.4v3.8h12v9.5h-12v29.1H43.6V53.2H33.5v-9.5h10.1v-3.5c0-3.8,0-5.1,0.6-6.6c1.3-4.7,4.9-8.4,9.5-9.8
	c2.6-0.4,5.3-0.6,7.9-0.6h5.1L66.4,28.5z"/>
</svg>
