<?xml version="1.0" encoding="UTF-8" standalone="no"?>
<svg
   xmlns:dc="http://purl.org/dc/elements/1.1/"
   xmlns:cc="http://creativecommons.org/ns#"
   xmlns:rdf="http://www.w3.org/1999/02/22-rdf-syntax-ns#"
   xmlns:svg="http://www.w3.org/2000/svg"
   xmlns="http://www.w3.org/2000/svg"
   xml:space="preserve"
   style="enable-background:new 0 0 32 32;"
   viewBox="0 0 32 32"
   y="0px"
   x="0px"
   id="Layer_1"
   version="1.1"><metadata
     id="metadata15"><rdf:RDF><cc:Work
         rdf:about=""><dc:format>image/svg+xml</dc:format><dc:type
           rdf:resource="http://purl.org/dc/dcmitype/StillImage" /><dc:title></dc:title></cc:Work></rdf:RDF></metadata><defs
     id="defs13" /><style
     id="style3"
     type="text/css">
	.st0{fill:#FFFFFF;}
</style><g
     style="fill:#ffffff"
     id="g5"><path
       style="fill:#ffffff"
       id="path7"
       d="M27.1,6.3c2.1,2,3.5,4.9,0.3,7.8l-1.1-6.9h-3.7l-8.3,11.5c-4.6,0.5-9.5,0.3-14-0.6c5.8,1.9,12.7,2.3,19.2,1.2   c6.1-1.1,10.7-3.4,11.9-6.1C32.4,10.8,30.9,8.5,27.1,6.3z M18.4,17.7l4.4-6.3l0.8,5C23.8,16.4,21.7,17.5,18.4,17.7z"
       class="st0" /><path
       style="fill:#ffffff"
       id="path9"
       d="M31.8,12.9c-0.3,2-1.7,3.7-4.1,5c-6.9,3.8-20.9,3.7-27.7,1c2.9,1.5,7,2.5,11.4,2.9l-2.9,4h4.7   c-0.2-0.5-0.1-0.9-0.1-1.3c0.1-0.7,1.4-2.3,1.6-2.5c3.1,0,6.6-0.3,9-0.9c0,0,0.6,2.6,0.3,3.4c-0.1,0.3-0.3,0.8-0.7,1.3h5.4l-1-6   C31.9,17.9,32.4,15,31.8,12.9z"
       class="st0" /></g></svg>