<?xml version="1.0" encoding="utf-8"?>
<!-- Generator: Adobe Illustrator 22.1.0, SVG Export Plug-In . SVG Version: 6.00 Build 0)  -->
<svg version="1.1" id="Layer_1" xmlns="http://www.w3.org/2000/svg" xmlns:xlink="http://www.w3.org/1999/xlink" x="0px" y="0px"
	 viewBox="0 0 100 100" style="enable-background:new 0 0 100 100;" xml:space="preserve">
<style type="text/css">
	.st0{fill:#E12258;}
</style>
<g id="Group_1" transform="translate(738 315.64)">
	<path id="Path_443" class="st0" d="M-735.4-262.9v-5.5c0.1-0.3,0.1-0.6,0.2-0.9c0.3-2.1,0.4-4.1,0.9-6.2c2.3-11.1,8.6-21,17.6-27.9
		c10.9-8.5,25-11.6,38.5-8.6c11.2,2.3,21.1,8.6,27.9,17.7c7.4,9.5,10.8,21.5,9.4,33.5c-0.9,9.8-5,19.1-11.6,26.4
		c-7.1,8.2-16.8,13.7-27.5,15.4c-1.8,0.3-3.6,0.5-5.4,0.7h-5.5c-0.2-0.1-0.5-0.1-0.7-0.1c-7.3-0.4-14.4-2.7-20.7-6.6
		c-11.9-7.1-20.1-19-22.4-32.7C-735-259.3-735.2-261-735.4-262.9z M-688.1-292.7h-15.9c-0.9,0-1.8,0-2.7,0.2
		c-5.1,1-8.6,5.6-8.3,10.8v32c0,0.9,0.1,1.7,0.2,2.6c1,5,5.5,8.6,10.6,8.3h32.4c0.8,0,1.7-0.1,2.5-0.2c5-1,8.6-5.5,8.3-10.6v-32.1
		c0-1.1-0.1-2.3-0.4-3.3c-1.3-4.7-5.6-7.9-10.4-7.6L-688.1-292.7z"/>
	<path id="Path_444" class="st0" d="M-701.8-271.2c-2.2,7.3-0.6,13.5,5.7,17.8c5,3.4,11.6,3.3,16.4-0.3c6.1-4.5,7.5-10.4,5.3-17.5
		h7.9v21.5c0.3,2.9-1.8,5.4-4.6,5.7c-0.4,0-0.7,0-1.1,0h-31.9c-2.8,0.3-5.4-1.7-5.7-4.6c0-0.3,0-0.7,0-1.1v-21.5
		C-707-271.2-704.4-271.2-701.8-271.2z"/>
	<path id="Path_445" class="st0" d="M-678.6-265.6c0,5.2-4.2,9.5-9.4,9.5c0,0,0,0,0,0c-5.2,0.1-9.6-4.1-9.7-9.3
		c-0.1-5.2,4.1-9.6,9.3-9.7c0.1,0,0.1,0,0.2,0c5.2-0.1,9.5,4,9.6,9.2C-678.6-265.8-678.6-265.7-678.6-265.6z"/>
	<path id="Path_446" class="st0" d="M-667.3-286.3v9h-9v-9H-667.3z"/>
</g>
</svg>
