<svg xmlns="http://www.w3.org/2000/svg" xmlns:xlink="http://www.w3.org/1999/xlink" viewBox="465 336 421 112">
  <defs>
    <style>
      .cls-1 {
        clip-path: url(#clip-logo);
      }

      .cls-2 {
        fill: #f7a32f;
      }

      .cls-3 {
        fill: #0055a5;
      }

      .cls-4 {
        fill: rgba(255,255,255,0);
      }
    </style>
    <clipPath id="clip-logo">
      <rect x="465" y="336" width="421" height="112"/>
    </clipPath>
  </defs>
  <g id="logo" class="cls-1">
    <rect class="cls-4" x="465" y="336" width="421" height="112"/>
    <g id="Group_1" data-name="Group 1" transform="translate(413 303.21)">
      <g id="Group_1-2" data-name="Group 1" transform="translate(143.026 65.354)">
        <path id="Union_2" data-name="Union 2" class="cls-2" d="M70.869,27.294c-.527-.048-1.389-.718-1.389-1.053.048-.574.575-1.533,1.006-1.628,2.442-.574,3.16-2.2,3.16-4.405.048-4.405.048-8.859.048-13.456h4.214c0,5.075.239,10.1-.1,15.036a6.26,6.26,0,0,1-6.459,5.523Q71.112,27.311,70.869,27.294ZM249.289.766c3.975.239,8,.287,11.971.766a4.27,4.27,0,0,1,3.927,3.687c.335,2.155-.958,3.4-2.681,4.31a9.083,9.083,0,0,1-.862.287c.431.574.479.766.623.814,2.3.958,4.022,2.394,3.879,5.124-.1,2.155-2.2,4.357-5.028,4.741-3.831.527-7.709.622-11.828.91Zm4.406,18.1a31.906,31.906,0,0,0,5.842-1.054,3.4,3.4,0,0,0,1.772-2.681,3.389,3.389,0,0,0-1.867-2.586,31.381,31.381,0,0,0-5.746-.814Zm.048-15.323v5.6a39.875,39.875,0,0,0,4.31-.287c1.484-.24,3.017-1.1,2.586-2.778A4.309,4.309,0,0,0,258,3.639a4.8,4.8,0,0,0-1.573-.22C255.567,3.419,254.646,3.543,253.742,3.543ZM50.088,20.3a35.2,35.2,0,0,1-5.65.814,3.95,3.95,0,0,1-4.262-3.4A3.945,3.945,0,0,1,43,13.025c2.442-.814,5.028-1.245,7.566-1.867-.622-2.729-2.49-3.209-8.332-1.772-.24-.575-.527-1.149-.814-1.868A13.36,13.36,0,0,1,51.093,6.7c2.729.814,3.83,2.968,3.927,5.65.1,2.825.048,5.6.048,9.05C53.44,21.069,52.051,20.734,50.088,20.3Zm-4.453-5.411a2.6,2.6,0,0,0-1.054,2.3,2.654,2.654,0,0,0,1.82,1.484c2.777.623,4.405-1.149,4.166-4.932A32.178,32.178,0,0,0,45.634,14.892ZM92.514,20.3a44.67,44.67,0,0,1-6.321.814,4.123,4.123,0,0,1-4.166-3.352,3.736,3.736,0,0,1,2.538-4.6,68.894,68.894,0,0,1,7.805-2.011c-.383-2.729-2.2-3.209-8.332-1.772-.191-.575-.383-1.1-.574-1.628.191-.24.239-.431.383-.479A13.1,13.1,0,0,1,93.184,6.8a4.821,4.821,0,0,1,3.592,4.788c.048,3.065,0,6.081,0,9.769C95.291,20.974,93.854,20.638,92.514,20.3Zm-4.406-5.7c-.814.383-1.245,1.58-1.82,2.394.91.575,1.772,1.58,2.73,1.676,2.586.192,3.639-1.293,3.352-4.884A15.69,15.69,0,0,0,88.108,14.6ZM0,20.16v-.479c.383-.671.718-1.389,1.005-1.868,2.538.192,4.932.527,7.374.527,1.485,0,2.873-.575,3.113-2.347.287-1.963-1.1-2.681-2.586-3.256-1.533-.623-3.209-1.006-4.693-1.772C2.25,10.008.383,8.715.527,6.177.671,3.5,2.538,2.107,4.836,1.293a14.985,14.985,0,0,1,10.008.24c-.239.862-.479,1.628-.766,2.442-1.916-.191-3.735-.527-5.507-.527-1.628,0-3.591.431-3.543,2.346,0,.958,1.484,2.2,2.586,2.825,1.58.91,3.4,1.293,5.075,2.059,1.963.958,3.352,2.442,3.256,4.836A5.16,5.16,0,0,1,12.4,20.207a14.5,14.5,0,0,1-5.669,1.116A22.556,22.556,0,0,1,0,20.16Zm174.014.191a33.822,33.822,0,0,1-5.555.814,4.026,4.026,0,0,1-4.31-3.4,3.945,3.945,0,0,1,2.825-4.693c2.442-.862,5.028-1.245,7.566-1.867-.622-2.777-1.58-3.017-8.428-1.867-.191-.575-.383-1.1-.622-1.82a13.112,13.112,0,0,1,9.864-.67,5.122,5.122,0,0,1,3.639,5.124c.1,2.921,0,5.89,0,9.337C177.509,21.022,176.121,20.734,174.014,20.351Zm-4.023-5.6A2.77,2.77,0,0,0,168.65,17.1c.1.67,1.293,1.532,2.107,1.628,2.73.383,4.118-1.389,3.735-4.932A20.774,20.774,0,0,0,169.991,14.748ZM139.441,20.3c.239-.766.479-1.484.67-2.107a28.586,28.586,0,0,0,5.124.527c.814-.048,1.58-.958,2.346-1.484a8.765,8.765,0,0,0-1.772-1.963c-1.293-.718-2.873-1.005-4.118-1.772-2.73-1.676-2.49-4.645.335-6.225a10.352,10.352,0,0,1,8.858-.144c-.191.622-.383,1.293-.527,1.915A28.014,28.014,0,0,0,146,8.715c-.671.048-1.293.862-1.963,1.293.479.623.862,1.485,1.533,1.82a31.652,31.652,0,0,0,3.543,1.341c1.676.718,3.112,2.011,2.586,3.783a6.241,6.241,0,0,1-2.969,3.544,10.239,10.239,0,0,1-4.062.811A15.778,15.778,0,0,1,139.441,20.3Zm85.905-1.772a7.106,7.106,0,0,1-.431-8.619c2.107-3.256,7.949-4.645,12.737-2.969-.191.718-.383,1.436-.527,2.107-6.512-.335-9,1.005-9.05,4.693-.048,3.735,2.681,5.172,9.05,4.6.144.622.335,1.293.527,1.915a10.584,10.584,0,0,1-4.682.992C229.875,21.247,226.749,20.183,225.346,18.531Zm54.685,1.58a47.62,47.62,0,0,1-6.081,1.053c-2.682.1-4.6-1.484-4.885-3.639-.335-2.107.862-3.975,3.448-4.788A66.911,66.911,0,0,1,279.5,11.3c-.431-2.873-2.538-3.352-8.237-1.867-.239-.574-.527-1.149-.91-1.916a13.857,13.857,0,0,1,9.242-.91c3.065.814,4.262,2.538,4.31,5.746.048,2.777,0,5.6,0,8.523-.719.075-1.515.354-2.229.354A1.661,1.661,0,0,1,280.031,20.112ZM275,14.748a2.933,2.933,0,0,0-1.389,2.347c.1.67,1.341,1.532,2.155,1.628,2.729.335,4.07-1.293,3.687-4.932A22.743,22.743,0,0,0,275,14.748Zm44.485,3.879a27.5,27.5,0,0,0-2.107-2.586,6.632,6.632,0,0,0-1.676-1.053,6.738,6.738,0,0,0-1.2,2.107,25.379,25.379,0,0,0-.048,3.831,8.557,8.557,0,0,1-1.341.144h-2.73V.048h3.974V12.354c.192.1.335.191.527.287,1.149-1.2,2.3-2.394,3.448-3.639,2.442-2.681,2.394-2.681,6.8-2.107-2.155,1.963-4.022,3.687-6.034,5.507,2.442,2.873,4.741,5.555,7.087,8.284a10.974,10.974,0,0,1-2.855.53C321.841,21.217,320.918,20.47,319.488,18.627ZM60.1,21.069V6.848c1.533-.144,3.4-1.1,3.783,1.484C65.7,7.518,67.47,6.7,69.673,5.7V9.338c-.479.048-1.006.144-1.533.191-2.634.335-3.831,1.533-3.879,4.214-.048,2.346,0,4.741,0,7.326Zm240.622-.048V13.408c0-3.16-.91-4.31-3.448-4.357-2.49-.048-3.831,1.484-3.879,4.357,0,2.3,0,4.645-.048,6.943,0,.1-.1.24-.192.671h-4.022V6.8c1.58-.144,3.4-.91,3.831,1.053,2.3-.527,4.453-1.436,6.656-1.484a5.078,5.078,0,0,1,5.316,4.788c.239,3.208.048,6.512.048,9.864Zm-105.73,0v-7.9c0-2.825-1.005-4.118-3.16-4.07-2.2,0-3.543,1.58-3.591,4.118s0,5.075,0,7.805h-4.07V6.464c1.389.335,2.73.671,4.07.958q-.072.431-.144.862c3.639-2.634,7.183-3.16,10.056-.048,2.442-.718,4.453-1.772,6.56-1.915,3.3-.192,5.507,2.25,5.555,5.555.048,2.968,0,5.89,0,9.05h-4.214v-7.9c-.048-2.777-1.1-4.022-3.3-3.974-2.155.048-3.448,1.484-3.448,3.974-.1,2.586-.1,5.219-.1,8Zm-92.9,0V.1h4.118V7.9c1.054-.431,1.82-.718,2.538-1.005,4.837-2.059,9,.527,9.1,5.746.048,2.682,0,5.411,0,8.332h-4.31c0-2.73.1-5.507-.048-8.284-.143-2.968-2.49-4.6-5.075-3.256a4.81,4.81,0,0,0-2.107,3.256,67.094,67.094,0,0,0-.144,7.614c.1.1,0,.24-.144.718Zm-81.883,0c.048-7.039.048-13.935.048-21.022h4.118V8.332c1.149-.622,1.867-1.1,2.634-1.436,4.5-1.963,8.811.479,9.146,5.315.191,2.825.048,5.7.048,8.763H31.844c0-2.873.144-5.746-.048-8.571-.192-2.634-2.011-3.831-4.5-3.209a3.3,3.3,0,0,0-2.873,3.544c.048,2.681,0,5.411,0,8.284Zm195.322-.048V6.752H219.5V20.974Zm-59.617,0V0h3.927V20.974Zm-25.044-.048V1.053h4.022V20.926Z" transform="translate(0 38.643)"/>
        <path id="Path_51" data-name="Path 51" class="cls-2" d="M474.642,90.2c1.006,1.2,1.676,1.963,2.3,2.682-.814.622-1.58,1.724-2.394,1.724-.766,0-1.532-1.149-2.346-1.772C472.87,92.115,473.541,91.4,474.642,90.2Z" transform="translate(-257.101 -51.892)"/>
        <path id="Path_58" data-name="Path 58" class="cls-2" d="M181.68,94.4c-.958.431-1.963,1.245-2.921,1.2-.718-.048-1.389-1.149-2.059-1.82.814-.575,1.58-1.58,2.394-1.676.814-.048,1.724.814,2.586,1.245Z" transform="translate(-103.101 -52.88)"/>
        <path id="Union_3" data-name="Union 3" class="cls-3" d="M110.47,34.366c-.463-.021-.923-.042-1.367-.033-1.82.048-4.262.1-4.5-2.107a22.742,22.742,0,0,1,.766-8.811c.335-1.149,2.873-1.963,4.5-2.3,1.724-.335,2.3-.958,2.3-2.586-.048-4.788-.048-9.529,0-14.317,0-2.778.431-3.209,3.592-3.687V19.346c0,3.112-.048,3.16-2.49,4.836,2.2,1.58,3.543,5.746,2.251,8.236-.9,1.7-2.353,1.984-3.891,1.984C111.246,34.4,110.857,34.384,110.47,34.366ZM108.289,30.5h3.5c.431-3.5.431-3.5-3.5-4.98ZM71.179,34.046c-1.724-.144-2.634-1.341-2.538-3.16.048-1.437-.048-2.873.048-4.31.24-3.5,1.868-5.316,5.363-5.507,2.059-.1,2.586-1.005,2.586-2.825-.048-4.693.048-9.385-.048-14.126-.048-2.347.958-3.544,3.543-3.687V20.016H84.3c0-2.011.048-3.974,0-5.937-.1-2.442,1.149-3.4,3.591-3.639v9.433c1.82.718,2.729.479,2.634-1.58-.1-2.155,0-4.31,0-6.464-.1-2.25,1.054-3.3,3.543-3.256,0,3.3.048,6.56,0,9.816-.048,1.58.431,2.3,2.394,1.58,0-3.4-.048-6.848,0-10.343.048-2.3.91-3.974,3.735-4.405,0,5.411.144,10.678-.048,15.994-.1,2.2-1.915,2.681-3.83,2.681H78.457c2.778,2.155,1.724,5.028,1.628,7.566a3.266,3.266,0,0,1-2.059,2.394,23.2,23.2,0,0,1-3.9.3C73.149,34.152,72.164,34.108,71.179,34.046Zm1.58-4.07c.144.574,2.155.622,3.208.814,1.628-3.4-.958-4.31-3.208-6.225C72.711,26.72,72.328,28.444,72.759,29.976Zm46.927,2.2V4.262c0-2.873.67-3.591,3.591-3.735v9.529c0,6.7-.048,13.36.048,20.064.048,2.394-.958,3.543-3.4,3.687A10.3,10.3,0,0,1,119.686,32.179Zm-23.8,1.053c1.149-4.07,1.149-4.07,4.692-3.065a7.365,7.365,0,0,0-1.1.287,17.1,17.1,0,0,0-1.772,1.053c.622.287,1.293.623,1.915.862a4.189,4.189,0,0,0,1.054.24,2.946,2.946,0,0,0-.048.622ZM18.505,28.4c-.1-.766.91-1.676,1.867-3.16,1.054,1.436,2.2,2.25,2.107,2.968-.1.814-1.245,1.533-1.915,2.3C19.846,29.784,18.649,29.162,18.505,28.4Zm-5.315-.24c-.048-.718,1.005-1.532,2.059-2.873,1.006,1.389,2.155,2.394,1.963,2.969-.24.862-1.436,1.484-2.25,2.2C14.339,29.689,13.238,28.97,13.19,28.156ZM261.809,30.12c.191-2.921.814-3.543,3.448-3.591,2.059-.048,4.118,0,6.321,0V15.419c0-2.25,1.149-3.112,3.592-3.017V20.16h4.6c0-2.347.1-4.6,0-6.9-.144-2.538.958-3.927,3.639-4.118.144.623.239,1.293.431,2.059h15.61a34.184,34.184,0,0,1,3.831.144c4.166.431,6.081,2.682,5.938,6.848,0,.575-.1,1.1-.144,1.868h3.974v-9c3.352.191,6.464.048,9.433.574,3.065.527,4.6,3.16,4.357,6.464a5.719,5.719,0,0,1-5.411,5.7,24.23,24.23,0,0,1-2.634.1H275.5a4.174,4.174,0,0,0-.287,1.1c-.431,5.124-.431,5.124-5.507,5.124Zm55.355-15.084v5.7a50.055,50.055,0,0,0,5.6-2.011c.335-.144.383-1.724,0-2.3a3.726,3.726,0,0,0-3.387-1.518C318.667,14.906,317.918,14.986,317.163,15.036Zm-33.424.144c-.048,1.676-.048,3.161-.048,4.932h18.867c1.58,0,3.112-.814,2.921-2.442-.1-.958-1.58-1.82-2.586-2.586-.383-.287-1.054-.144-1.628-.144H285.511A11.259,11.259,0,0,0,283.74,15.179ZM164.075,30.024c.239-2.921.814-3.448,3.543-3.5,1.915-.048,3.783,0,6.177,0V18.436a26.077,26.077,0,0,1,.1-3.352c.191-2.011,1.341-2.921,3.5-2.634,0,5.076.1,10.056-.1,15.036a3.416,3.416,0,0,1-2.25,2.442c-1.581.123-3.154.159-4.722.159C168.232,30.086,166.154,30.024,164.075,30.024ZM218.9,3.3c0-2.155,1.436-2.778,3.448-2.969.048.862.144,1.532.144,2.25V26.432c0,2.682-.622,3.3-3.591,3.544Zm28.569,20.6c-3.7.006-7.394.012-11.091-.009-4.214-.048-6.656-2.346-6.656-6.129,0-3.879,2.25-6.177,6.464-6.369,2.442-.1,4.836-.048,7.231-.048.1,2.442-.862,3.544-3.112,3.448a25.9,25.9,0,0,0-4.31.1c-1.485.191-2.778.862-2.73,2.729s1.293,2.538,2.825,2.586c4.357.1,8.763.048,13.264.048V17.526c.048-3.352,1.963-5.794,5.219-6.033,3.639-.24,7.279-.048,11.157-.048,0,3.256.143,6.368-.048,9.433-.1,1.963-1.2,3.065-3.448,3.065C257.317,23.887,252.4,23.9,247.473,23.9Zm7.632-8.58a2.958,2.958,0,0,0-1.915,2.25,3.049,3.049,0,0,0,1.724,2.394,48.742,48.742,0,0,0,7.039.431V14.844A51.278,51.278,0,0,0,255.1,15.323Zm-70.774,8.523a2.54,2.54,0,0,1-2.73-2.729c-.048-6.848,0-13.7,0-20.543,2.778,0,3.783.958,3.831,3.735.048,5.267,0,10.534,0,15.994h4.5c1.2-2.442-1.628-6.848,3.831-7.47V20.4h2.681c0-2.155-.048-4.31,0-6.417.048-2.2.91-2.921,3.591-2.873,0,2.538.048,5.076,0,7.566-.048,1.389.287,2.2,2.2,1.58,0-2.538-.048-5.076,0-7.614.048-2.442,1.006-3.256,3.735-3.448V20.3h5.315V4.07c0-2.634.91-3.5,3.783-3.543,0,6.943.048,13.839-.048,20.782,0,1.676-1.293,2.538-2.921,2.538q-6.931.036-13.869.036T184.331,23.847Zm-177.605,0A6.257,6.257,0,0,1,.884,20.782c-1.2-2.2-1.293-4.741.431-6.512A10.369,10.369,0,0,1,6.821,11.54c2.873-.431,5.89-.1,8.811-.1.192,2.3-.574,3.352-2.681,3.5-2.011.1-3.974,0-5.986.1-1.724.1-3.16.766-3.017,2.873.1,1.963,1.533,2.49,3.161,2.49,6.225.048,12.45,0,19.249,0-1.293-2.3-2.394-4.262-3.543-6.177-1.628-2.681-1.2-4.549,1.58-6.081,2.155-1.149,4.405-2.25,6.8-3.448,2.538,3.927,5.363,7.71,7.614,11.78,1.676,3.112,3.831,4.166,7.231,3.831,3.256-.287,3.256-.048,3.256-3.256v-6.13c3.687.24,7.279.144,10.678.814,3.161.623,4.357,3.256,3.974,6.656a5.492,5.492,0,0,1-5.506,5.267c-6.13.191-12.307.144-18.436.048-.671,0-1.485-.814-1.916-1.436-2.825-4.023-5.6-8.188-8.38-12.307-3.783,1.341-3.927,1.724-2.011,4.788,1.724,2.778,3.448,5.555,5.124,8.332a3.573,3.573,0,0,1,.1.527,1.473,1.473,0,0,1-.574.239c-5.682,0-11.386.021-17.083.021Q10.989,23.868,6.726,23.847Zm46.4-8.715v4.98c1.676,0,3.161.335,4.454-.1,1.1-.335,1.867-1.58,2.825-2.394-.862-.814-1.532-2.107-2.538-2.394a6.112,6.112,0,0,0-1.765-.22C55.149,15.007,54.146,15.132,53.126,15.132ZM137.547,23.8a6.1,6.1,0,0,1-6.177-6.512c.191-3.687,2.586-5.938,6.369-5.986,2.059,0,4.022.048,6.321.048.192-2.2,1.1-3.543,3.687-3.352V20.16c1.772.1,3.16.144,4.5.191.144-.191.287-.335.287-.479-.958-6.129,2.2-8.763,7.949-8.715,2.634.048,5.268,0,8.188,0,0,3.5.192,6.943-.143,10.3a3.721,3.721,0,0,1-2.729,2.3q-7.789.119-15.552.115Q143.9,23.865,137.547,23.8Zm-.1-8.571a2.878,2.878,0,0,0-1.724,2.251,3.823,3.823,0,0,0,1.867,2.49c.766.527,1.963.335,2.969.431,3.592-.1,4.262-.862,3.5-4.357a1.629,1.629,0,0,0-.958-1.053c-.758-.019-1.533-.047-2.307-.047A16.284,16.284,0,0,0,137.451,15.227Zm20.591.048a3.343,3.343,0,0,0-1.82,2.49,2.964,2.964,0,0,0,1.963,2.155,52.188,52.188,0,0,0,6.7.1V14.844A45.369,45.369,0,0,0,158.042,15.275ZM104.219.527c3.065.287,3.687.91,3.735,3.592.048,4.357-.048,8.763.048,13.12.048,2.011.048,3.783-2.347,4.453-.479.144-.814.623-1.436,1.1ZM68.688.574c2.921.192,3.687.958,3.687,3.783,0,3.927-.191,7.805.048,11.684.24,3.112-.335,5.411-3.735,6.369ZM191.7,6.512c-.814-.1-1.533-1.2-2.25-1.867.67-.766,1.293-1.963,2.107-2.107.622-.192,1.58.91,3.065,1.867-1.36,1.032-2.168,2.108-2.876,2.108Zm4.405-3.065c.048-.766,1.2-1.436,1.867-2.155.766.718,1.963,1.341,2.107,2.2.144.671-1.053,1.58-2.059,2.921C197.116,5.076,196.062,4.262,196.11,3.448Zm-62.681-.383c.144-.814,1.341-1.389,2.059-2.107.671.766,1.82,1.485,1.916,2.3.048.67-1.1,1.484-2.2,2.921C134.291,4.693,133.285,3.783,133.429,3.065Zm5.267.1c.1-.814,1.245-1.484,1.915-2.25.718.766,1.868,1.436,2.059,2.3.144.671-1.005,1.533-2.011,2.921C139.7,4.741,138.6,3.879,138.7,3.16Zm117.318-.239c0-.814,1.1-1.58,2.155-2.921.91,1.389,2.011,2.346,1.82,3.017-.191.862-1.389,1.436-2.155,2.155C257.212,4.405,256.062,3.687,256.014,2.921Zm-100.031.144c-.144-.718.862-1.58,1.772-2.969,1.054,1.341,2.251,2.2,2.155,2.873-.143.814-1.341,1.484-2.059,2.2C157.18,4.453,156.031,3.831,155.983,3.065Zm7.326,2.011c-.766-.048-1.484-1.149-2.251-1.772.718-.766,1.293-2.011,2.155-2.2.67-.192,1.628,1.005,2.969,1.963-1.312.937-2.075,2.013-2.825,2.013ZM204.155,4.5c-.766-.1-1.963-1.245-1.963-1.963-.048-.671,1.149-1.916,1.916-2.011.718-.144,1.58.91,2.969,1.868C205.717,3.425,204.908,4.5,204.2,4.5Z" transform="translate(0.314)"/>
      </g>
      <path id="Union_1" data-name="Union 1" class="cls-3" d="M60.7,109.134c-5.069-1.374-8.078-4.873-9.484-9.746-1.047-3.6-.654-7.326-.2-10.989a.527.527,0,0,1,.1-.294c.033-.065.1-.065.392-.262-.065.72-.131,1.243-.131,1.766-.131,4.775.621,9.288,4.088,12.951a22.469,22.469,0,0,0,9.648,5.592c1.635.523,3.369.916,5.036,1.374a.992.992,0,0,1,.654.523,7.529,7.529,0,0,1-.85.1q-.578.018-1.153.018A31,31,0,0,1,60.7,109.134ZM55.6,96.445a23.3,23.3,0,0,1-1.766-9.419,1.683,1.683,0,0,0-.785-1.57,4.351,4.351,0,0,1-1.177-1.9c-.327-.916-.458-1.014-1.21-.392a4.234,4.234,0,0,0-1.635,3.5,28.446,28.446,0,0,1-.425,5,5.483,5.483,0,0,1-3.467,4.252,19.922,19.922,0,0,1-6.737,1.341c-.033-.1-.065-.163-.1-.261.523-.2,1.079-.393,1.6-.589a16.009,16.009,0,0,0,6.017-3.532A9.713,9.713,0,0,0,48.468,86.6c.065-.883.163-1.733.2-2.616A4.867,4.867,0,0,1,51.9,79.929c.066.458.131.916.229,1.341a4.437,4.437,0,0,0,.458,1.308c.163.261.556.36.85.556a2.774,2.774,0,0,0,.36-.85,11.384,11.384,0,0,1,1.7-5.4,4.841,4.841,0,0,1,2.91-2.028c.949-.262,1.374,0,1.374.981,0,1.177-.131,2.322-.2,3.5a1.313,1.313,0,0,0,.164.817c1.341-2.224,3.663-3.859,3.663-6.7.85.458,1.537.85,2.224,1.21A2.256,2.256,0,0,1,66.1,77.7a.613.613,0,0,1-.523.131c-1.668-.621-2.682.327-3.565,1.5-.85,1.112-1.635,2.289-2.486,3.4A7.84,7.84,0,0,1,55.3,85.488c-.621.164-.948.458-.916,1.112.131,1.962.229,3.957.392,5.919a5.171,5.171,0,0,0,.425,1.145c.425-1.079.785-1.864,1.079-2.649C58.769,84.475,68.548,80.91,75.547,86.5a2.933,2.933,0,0,1,1.079,1.6A2.612,2.612,0,0,1,74.4,90.132,6.328,6.328,0,0,1,73.29,90.1c-.589-.065-.719-.36-.491-.916.523-1.243.294-1.93-.916-2.649a6.551,6.551,0,0,0-5.625-.491A13.091,13.091,0,0,0,57.2,97.491a2.323,2.323,0,0,1-.131.654.655.655,0,0,1-.262.131A11.1,11.1,0,0,1,55.6,96.445Zm2.747-19.1c-1.8.49-3.794,3.6-3.467,5.756.589-.425,1.112-.752,1.537-1.112a7.784,7.784,0,0,0,2.649-3.728c.185-.636.049-.971-.375-.971A1.276,1.276,0,0,0,58.344,77.345Zm-30.905,17.5a5.089,5.089,0,0,1-3.3-5.985,1.674,1.674,0,0,0-.523-1.7A13.939,13.939,0,0,1,22.108,85a4.893,4.893,0,0,0-2.257,2.976c-.294,1.308-.425,2.649-.687,3.957-.458,2.518-2.355,3.27-4.317,1.7-2.649-2.126-3.793-5.1-4.382-8.339-.033-.131.065-.294.327-.458.065.294.163.556.229.85.523,2.42,1.374,4.644,3.467,6.148a6.767,6.767,0,0,0,1.047.621,1.776,1.776,0,0,0,2.714-1.112c.327-1.079.36-2.256.654-3.336.393-1.341.85-2.649,1.341-3.957a2.611,2.611,0,0,1,.785-.916c1.177-1.014,1.8-.719,2.093.393a3.078,3.078,0,0,0,.425.785c.916,1.374,1.21,1.341,2-.033.157-.252.5-.382.755-.567a5.4,5.4,0,0,0-1.082-1.2c-1.276-.785-1.308-.752-.556-2.028a3.147,3.147,0,0,1,.425-.556c.2.131.393.2.556.294,1.537.85,1.537.85.916,2.485a5.728,5.728,0,0,0-.2,1.079l-.052-.062c-.1.18-.214.334-.276.487-.719,1.7-.523,2.028,1.406,2.028a8.047,8.047,0,0,0,6.7-3.63,14.086,14.086,0,0,0,1.341-2.355c.1-.294-.131-.72-.2-1.079-.262.2-.491.425-.785.621a5,5,0,0,1-1.7.981,1.184,1.184,0,0,1-1.308-1.243,9.922,9.922,0,0,1,.262-3.107c.294-.981,1.079-1.145,2.06-.785,1.635.589,2.584,2.289,2.453,4.415-.262,3.859-3.434,7.751-7.162,8.536a12.908,12.908,0,0,1-3.172-.065c-.262,0-.621-.065-.719.065a1.177,1.177,0,0,0,0,.752,5.86,5.86,0,0,0,5.658,3.924,16.645,16.645,0,0,0,8.143-2.322,15.17,15.17,0,0,0,5.952-5.265,4.163,4.163,0,0,0,.687-1.439c.065-.327-.2-.687-.327-1.046-.1.033-.229.065-.327.1-.065.164-.164.36-.229.523a1.476,1.476,0,0,1-1.733,1.046,1.385,1.385,0,0,1-1.177-1.439,10.239,10.239,0,0,1-.131-1.995,1.97,1.97,0,0,1,3.107-1.5,3.166,3.166,0,0,1,1.439,2.616,9.7,9.7,0,0,1-3.957,8.6,18.044,18.044,0,0,1-10.792,4.415q-.258.019-.522.019A9.632,9.632,0,0,1,27.439,94.842Zm2.453-3.761a34.376,34.376,0,0,0,3.565-1.995,13.526,13.526,0,0,0,5.56-9.124c.392-2.387.621-4.775,1.046-7.162a5.135,5.135,0,0,1,.948-2.06c.393-.556.85-.523,1.079.229.229.654.392,1.341.589,2a1.018,1.018,0,0,1-.327-.164,5.863,5.863,0,0,0-1.243,1.308,5.385,5.385,0,0,0-.458,1.929c-.262,2.191-.392,4.415-.654,6.606-.589,4.905-3.761,7.26-7.914,8.209-.687.163-1.406.294-2.126.425C29.924,91.212,29.924,91.146,29.892,91.081Zm-13.54-.687a3.822,3.822,0,0,1-1.93-1.145c-.2-.36.392-1.21.687-1.962.654.392,1.145.654,1.635.916.621.327.752.719.327,1.275-.223.319-.6.917-.711.917ZM13.965,86.5c-1.341-.687-1.406-1.047-.49-2.224.065-.1.229-.294.262-.262a13.542,13.542,0,0,1,1.929,1.014c.164.131.033.719-.1,1.046a4.563,4.563,0,0,1-.589.981C14.553,86.829,14.259,86.666,13.965,86.5Zm61.189-3.074A21.827,21.827,0,0,0,72.571,81.2c1.6-.262,3.041-.1,3.793,1.8a2.217,2.217,0,0,0-.163-2.387c-1.831-2.616-3.663-5.2-5.658-7.685-1.341-1.668-2.976-3.074-4.415-4.677a4.074,4.074,0,0,1-1.21-2.911c.2,0,.327-.033.392.033A62.651,62.651,0,0,1,75.579,76.528a11.293,11.293,0,0,1,1.406,9.844A25.2,25.2,0,0,0,75.154,83.428ZM10.3,82.087a14.872,14.872,0,0,1-9.222-3.761C.752,78.032.491,77.672,0,77.149c1.766.72,3.238,1.374,4.742,1.864a23.956,23.956,0,0,0,12.526.556,18.013,18.013,0,0,0,6.606-2.256,30.373,30.373,0,0,0,2.813-2.257c.163-.164.163-.523.229-.785a1.913,1.913,0,0,0-.719-.163,15.055,15.055,0,0,0-1.635.425,1.259,1.259,0,0,1-1.668-.85,3.241,3.241,0,0,1,.294-3.27A25.141,25.141,0,0,1,26,67.305a1.569,1.569,0,0,0,.621-1.537c-.229-2.06.066-2.583,1.93-3.6.785-.425,1.308-.2,1.406.687a4.894,4.894,0,0,1-.948,3.793c-1.243,1.406-2.649,2.616-3.99,3.925-.36.36-.752.687-1.145,1.046.033.131.1.229.131.36a5.177,5.177,0,0,0,1.243-.131c.818-.229,1.668-.458,2.355.229a2.352,2.352,0,0,1,.425,2.355c-.49,2.878-2.649,4.35-4.938,5.56a20.856,20.856,0,0,1-10.055,2.18C12.129,82.174,11.217,82.141,10.3,82.087Zm19.459-.033a4.831,4.831,0,0,1-2-1.308c-.131-.1.687-1.5.916-1.472a9.177,9.177,0,0,1,2.257,1.145c-.475.7-.98,1.639-1.161,1.638A.045.045,0,0,1,29.761,82.055Zm12.755-5.233c-.163-.229.589-1.014.949-1.57a8.975,8.975,0,0,1,1.9,1.57c.164.229-.458,1.014-.818,1.733A7.957,7.957,0,0,1,42.515,76.822Zm4.546-.327c.425-.2.883-.392,1.308-.589a29.6,29.6,0,0,0,11.414-8.5,10.51,10.51,0,0,0,2.42-5.134,9.577,9.577,0,0,0-.49-3.826C57.428,45.753,53.046,33.064,48.7,20.375c-.916-2.682-1.8-5.4-2.747-8.078a11.16,11.16,0,0,1-.556-6.116,4.2,4.2,0,0,0-.033-.85,6.935,6.935,0,0,0-1.7,3.663,13.406,13.406,0,0,0,.916,6.606c3.794,11.119,7.653,22.239,11.446,33.391,1.047,3.074,2.126,6.148,2.943,9.288a20.05,20.05,0,0,1,.262,4.873,2.755,2.755,0,0,1-1.6,2.387,1.784,1.784,0,0,0-.752,1.014A2.069,2.069,0,0,1,55.4,68.384c-.033.033-.065,0-.1.033A17,17,0,0,0,52.2,71.426c-1.243,2.028-3.728,2.583-5.265.752A25.053,25.053,0,0,1,45.1,69.2c-.229-.392-.589-.916-.981-1.014a5.927,5.927,0,0,1-3.434-2.78,5.784,5.784,0,0,0-.621-.719c-.033.621-.1.948-.1,1.275-.065,1.733-.131,3.5-1.243,4.971a3.075,3.075,0,0,1-4.252.948.951.951,0,0,0-1.243.164c-.981.719-2.06,1.341-3.074,2a1.444,1.444,0,0,0-.392-.327c.2-.2.392-.425.589-.621.327-.327.687-.654,1.014-.981a2.619,2.619,0,0,0,.85-3.27,13.353,13.353,0,0,1-.425-5.233c.2-2.224.752-4.415,1.145-6.639a2.9,2.9,0,0,1,.327-.523c.719,1.57,1.341,3.041,2,4.48,1.177,2.616.883,5.233.131,7.882-.294,1.046-.131,1.243.948,1.079a3.693,3.693,0,0,0,2.943-3.3,9.932,9.932,0,0,0-.49-3.532c-.72-2.224-1.635-4.382-2.518-6.573a11.092,11.092,0,0,1-.392-3.859c.131-.033.229-.033.36-.065.425,1.177.785,2.387,1.275,3.532.949,2.256,1.9,4.513,2.976,6.7a9.133,9.133,0,0,0,1.766,2.159,5.03,5.03,0,0,0,1.014.556,1.626,1.626,0,0,1,.262-.229c-.1-.294-.164-.621-.262-.916-3.172-8.732-6.41-17.432-9.484-26.2a10.886,10.886,0,0,1,2.845-12.1,2.068,2.068,0,0,0,.687-1.93c-.491-3.826,1.079-6.868,3.728-9.451a2.21,2.21,0,0,0,.752-2.158c-.523-3.467,1.014-6.247,3.238-8.732C46.244,2.453,47.585,1.275,48.86,0c.131.065.294.131.425.2-.065.425,0,.981-.261,1.243-2.289,2.453-2.518,5.363-1.7,8.307,1.112,3.99,2.453,7.947,3.794,11.871,3.63,10.727,7.293,21.389,10.858,32.116,1.046,3.107,1.733,6.279,1.014,9.582-1.21,5.494-4.186,9.55-9.419,11.741a54.842,54.842,0,0,1-5.592,1.635.976.976,0,0,1-.237.03A1.256,1.256,0,0,1,47.061,76.495Zm2.845-16.679c-.066,1.047-.066,2.093-.2,3.107A5.865,5.865,0,0,1,46.963,67.6a.842.842,0,0,0-.327.719,3.139,3.139,0,0,0,2.747,2.289A2.771,2.771,0,0,0,51.9,68.025c.033-.458.066-.948.1-1.439.392.491.719,1.276.981,1.243a1.591,1.591,0,0,0,1.308-1.57c.033-.262-.033-.491,0-.719a3.464,3.464,0,0,1,.1-.654c.327.36.654.654.981.981a11.089,11.089,0,0,0,1.014-1.145,2.413,2.413,0,0,0,.065-.981c0-.327-.033-.622-.033-.752a4.776,4.776,0,0,0,1.5-.262,1.259,1.259,0,0,0,.523-1.668c-.1-.327-.164-.654-.262-.981-1.668-4.742-3.369-9.484-5-14.226q-5.053-14.717-10.106-29.5a12.8,12.8,0,0,0-.523-1.177c-.131.033-.229.033-.327.065-.1.327-.163.621-.229.916a12.308,12.308,0,0,0,.719,6.148q4.366,13,8.8,26a5.982,5.982,0,0,1-.948,5.625,5.691,5.691,0,0,1-.687.491,6.639,6.639,0,0,0,.1-5.462C47.486,41.534,44.9,34.11,42.385,26.687c-.948-2.78-2.126-5.527-1.831-8.568,0-.1-.1-.229-.2-.556a4.3,4.3,0,0,0-.654,1.014,10.381,10.381,0,0,0-.229,7.1c2.976,8.47,5.919,16.908,8.8,25.411a7.075,7.075,0,0,1,.36,2.747c-.229,2.714-2.093,4.055-4.415,4.938-.752.294-.981.621-.654,1.406.556,1.341,1.014,2.747,1.57,4.121.491,1.276.752,1.341,1.8.458a2.455,2.455,0,0,0,.491-.523,8.842,8.842,0,0,0,1.733-5.461,17.1,17.1,0,0,1,.425-2.845h.393a11.936,11.936,0,0,0,.458,1.145c.458.981,1.079,1.046,1.766.229a2.682,2.682,0,0,0,.262-2.486c-.065-.36-.033-.752-.065-1.112h.262c.131.36.262.687.458,1.145,1.177-.883.785-2.093.883-3.205.916,1.112,1.21,4.121.36,5.069a6.585,6.585,0,0,0-1.374,2.583c-.36,1.21-1.5,1.341-2.289.36a8.25,8.25,0,0,0-.621-.687A4.091,4.091,0,0,0,49.907,59.816ZM33.031,60.96c-.163,1.145-.262,2.322-.458,3.99.163.752.392,1.929.687,3.107a.925.925,0,0,0,.556.491c.1.033.36-.229.458-.392,1.668-2.813,1.57-4.873-.327-7.424a3.123,3.123,0,0,0-.523-.392C33.293,60.568,33.064,60.731,33.031,60.96Zm2.126-30.807c-1.079,2.355-.621,4.709.164,6.966,2.42,7,4.971,13.932,7.489,20.9a4.587,4.587,0,0,0,.458.752,5.724,5.724,0,0,0,.36-4.709c-2-5.658-4.055-11.348-6.116-17.006a18.642,18.642,0,0,1-1.439-7.326c0-.131-.131-.294-.262-.589A5.721,5.721,0,0,0,35.157,30.153Zm2.289-2.126A21.54,21.54,0,0,0,38,32.868c1.5,4.742,3.205,9.451,4.84,14.161.523,1.537,1.112,3.074,1.6,4.644a8.96,8.96,0,0,1,.065,5.919c.065.033.164.065.229.1a8.924,8.924,0,0,0,.818-.752,5.859,5.859,0,0,0,.883-5.985c-2.682-7.751-5.4-15.5-8.078-23.253a5.041,5.041,0,0,0-.392-.719A1.4,1.4,0,0,0,37.446,28.027ZM51.28,64.885c-.687-.1-.948-.36-.818-1.112.131-.785.425-1.047,1.21-.85a5.136,5.136,0,0,0,.752.131l-.1.883c-.029.574-.183.972-.774.972A1.732,1.732,0,0,1,51.28,64.885Zm1.177-1.831a5.957,5.957,0,0,1,.294-1.014c.164-.327.425-.818.654-.85.393-.033,1.112.2,1.177.425.1.458-.033,1.308-.327,1.439a1.49,1.49,0,0,1-.6.109C53.269,63.163,52.856,63.074,52.457,63.053Zm0,0c0,.033,0,.033-.033.033C52.425,63.053,52.425,63.053,52.457,63.053Zm-6.41-1.766c.523-.229.981-.425,1.439-.621a.7.7,0,0,0,.2.131c-.392.392-.785.817-1.275,1.373C46.211,61.713,46.113,61.484,46.047,61.287Zm8.9-.654c.033-.556-.1-1.406.916-1.308.523.065,1.112.131.981.916-.1.556,0,1.341-1.014,1.079a1.426,1.426,0,0,1-.2.229C55.4,61.255,54.943,60.928,54.943,60.633Z" transform="translate(52 32.822)"/>
    </g>
  </g>
</svg>
