<?xml version="1.0" encoding="UTF-8" standalone="no"?>
<svg
   xmlns:dc="http://purl.org/dc/elements/1.1/"
   xmlns:cc="http://creativecommons.org/ns#"
   xmlns:rdf="http://www.w3.org/1999/02/22-rdf-syntax-ns#"
   xmlns:svg="http://www.w3.org/2000/svg"
   xmlns="http://www.w3.org/2000/svg"
   xml:space="preserve"
   style="enable-background:new 0 0 150 150;"
   viewBox="0 0 150 150"
   y="0px"
   x="0px"
   id="Layer_1"
   version="1.1"><metadata
     id="metadata29"><rdf:RDF><cc:Work
         rdf:about=""><dc:format>image/svg+xml</dc:format><dc:type
           rdf:resource="http://purl.org/dc/dcmitype/StillImage" /><dc:title></dc:title></cc:Work></rdf:RDF></metadata><defs
     id="defs27" /><style
     id="style3"
     type="text/css">
	.st0{fill:#43C99F;}
	.st1{fill:#FFFFFF;}
</style><circle
     id="circle5"
     r="75"
     cy="75"
     cx="75"
     class="st0" /><g
     id="g7"><path
       id="path9"
       d="M39.9,105.7c0-24.1,0-48.2,0-72.3c10.9,0,21.8,0,32.7,0c0,7.4,0,14.9,0,22.4c7.5,0,14.9,0,22.4,0   c0,8.1,0,16.2,0,24.3c1.2,0.1,2.3,0.3,3.5,0.6c0-9.1,0-18.2,0-27.4c0-0.2-0.1-0.3-0.2-0.5c-1.8-1.7-3.6-3.5-5.4-5.2   c-6-5.8-12-11.6-18-17.4c-0.1-0.1-0.3-0.2-0.5-0.2c-12.6,0-25.1,0-37.7,0c-0.1,0-0.2,0-0.3,0c0,26.4,0,52.8,0,79.2   c12.8,0,25.7,0,38.5,0c-0.5-1.1-1-2.2-1.3-3.4C62.4,105.7,51.2,105.7,39.9,105.7z M76.1,36.1c5.6,5.4,11.1,10.8,16.7,16.2   c-5.6,0-11.1,0-16.7,0C76.1,46.9,76.1,41.5,76.1,36.1z"
       class="st1" /><rect
       id="rect11"
       height="3.1"
       width="19.7"
       class="st1"
       y="44.5"
       x="46.4" /><rect
       id="rect13"
       height="3.1"
       width="19.7"
       class="st1"
       y="53.3"
       x="46.4" /><rect
       id="rect15"
       height="3.1"
       width="29.3"
       class="st1"
       y="63.6"
       x="46.4" /><rect
       id="rect17"
       height="3.1"
       width="29.3"
       class="st1"
       y="72.4"
       x="46.4" /><rect
       id="rect19"
       height="3.1"
       width="29.3"
       class="st1"
       y="83"
       x="46.4" /><rect
       id="rect21"
       height="3.1"
       width="29.3"
       class="st1"
       y="91.9"
       x="46.4" /><path
       id="path23"
       d="M113,104.6c0.6-0.6,0.6-1.2,0.2-1.8c-0.6-0.9-1.1-1.8-1.7-2.7c-0.2-0.3-0.3-0.7-0.1-1.1c0.4-1,0.7-2.1,1.1-3.2   c0.2-0.7,0-1.2-0.6-1.5c-1.1-0.6-2.2-1.2-3.2-1.9c-0.1,0-0.1-0.1-0.2-0.2c-0.2-1.2-0.4-2.3-0.6-3.5c-0.1-0.7-0.5-1.2-1-1.3   c-0.3-0.1-0.7-0.1-1-0.1c-1,0-2,0-3-0.1c-0.1,0-0.3-0.1-0.3-0.2c-0.7-0.9-1.4-1.8-2-2.7c-0.6-0.9-1.1-1-1.9-0.6   c-1.1,0.5-2.2,1-3.3,1.5c-0.1,0.1-0.3,0.1-0.4,0c-1.1-0.5-2.2-1-3.3-1.6c-0.7-0.3-1.3-0.2-1.8,0.4c-0.7,1-1.5,2-2.2,3   c-0.1,0.1-0.2,0.1-0.3,0.1c-0.8,0-1.6,0-2.4,0c0,0,0,0,0,0.1c-0.2,0-0.4,0-0.7,0c-0.2,0-0.4,0.1-0.6,0.1c-0.7,0-1.1,0.3-1.3,1   c-0.2,1.2-0.4,2.4-0.6,3.5c0,0.2,0,0.4-0.3,0.5c-1.1,0.6-2.1,1.2-3.2,1.8c-0.6,0.3-0.8,0.9-0.6,1.5c0.4,1.2,0.8,2.3,1.1,3.5   c0,0.1,0.1,0.3,0,0.5c-0.6,1-1.3,2-1.9,3.1c-0.4,0.7-0.4,1.3,0.2,1.8c0.8,0.8,1.6,1.5,2.4,2.3c0.3,0.3,0.5,0.5,0.4,1   c-0.1,0.7-0.1,1.5-0.2,2.3c0,0.3-0.1,0.7-0.1,1c-0.1,0.6,0.2,1.2,0.9,1.4c1.2,0.3,2.3,0.7,3.5,1c0.1,0,0.3,0.2,0.4,0.3   c0.5,1.1,0.9,2.2,1.4,3.3c0.3,0.7,0.8,1,1.6,0.8c1.2-0.2,2.4-0.5,3.6-0.7c0.1,0,0.3,0,0.4,0.1c0.3,0.2,0.6,0.5,0.9,0.7   c0.7,0.6,1.4,1.2,2.2,1.7c0.3,0.2,0.9,0.2,1.2,0c0.9-0.7,1.7-1.4,2.6-2.1c0.3-0.2,0.5-0.6,0.9-0.5c1.1,0.2,2.2,0.4,3.3,0.7   c0.9,0.2,1.5,0,1.8-0.7c0.5-1.1,0.9-2.2,1.4-3.3c0.1-0.2,0.2-0.4,0.4-0.4c1.2-0.4,2.3-0.7,3.5-1c0.6-0.2,1.1-0.7,1-1.3   c-0.1-0.8-0.1-1.7-0.2-2.5c0-0.3,0-0.7-0.1-1c-0.1-0.3,0-0.4,0.2-0.6C111.3,106.3,112.2,105.4,113,104.6z M109.6,104.1   c-0.7,0.7-1.4,1.4-2.1,2c-0.1,0.1-0.2,0.3-0.1,0.5c0.1,0.3,0.1,0.6,0.1,0.8c0.1,0.7,0.1,1.4,0.2,2.1c0,0.5-0.3,1-0.8,1.1   c-1,0.3-1.9,0.5-2.8,0.8c-0.1,0-0.3,0.2-0.3,0.3c-0.4,0.9-0.7,1.8-1.1,2.7c-0.3,0.6-0.7,0.7-1.5,0.6c-0.9-0.2-1.8-0.4-2.7-0.6   c-0.3-0.1-0.5,0.2-0.7,0.4c-0.7,0.6-1.4,1.1-2.1,1.7c-0.2,0.2-0.8,0.2-1,0c-0.6-0.5-1.2-0.9-1.8-1.4c-0.2-0.2-0.5-0.4-0.7-0.6   c-0.1-0.1-0.2-0.1-0.3-0.1c-1,0.2-1.9,0.4-2.9,0.6c-0.6,0.1-1-0.1-1.3-0.7c-0.4-0.9-0.7-1.8-1.1-2.6c0-0.1-0.2-0.2-0.3-0.3   c-0.9-0.3-1.9-0.5-2.8-0.8c-0.6-0.2-0.8-0.6-0.8-1.2c0-0.3,0.1-0.5,0.1-0.8c0-0.6,0-1.2,0.1-1.9c0.1-0.4-0.1-0.6-0.3-0.8   c-0.6-0.6-1.3-1.2-1.9-1.9c-0.4-0.4-0.5-0.9-0.1-1.5c0.5-0.8,1.1-1.6,1.6-2.5c0.1-0.1,0-0.3,0-0.4c-0.3-0.9-0.6-1.9-0.9-2.8   c-0.2-0.5,0-1,0.5-1.3c0.9-0.5,1.7-1,2.6-1.5c0.2-0.1,0.2-0.3,0.2-0.4c0.2-1,0.3-1.9,0.5-2.9c0.1-0.6,0.5-0.8,1-0.8   c0.2,0,0.3,0,0.5-0.1c0.2,0,0.4,0,0.5,0c0,0,0,0,0-0.1c0.7,0,1.3,0,2,0c0.1,0,0.2,0,0.2-0.1c0.6-0.8,1.2-1.6,1.8-2.4   c0.4-0.5,0.9-0.6,1.4-0.4c0.9,0.4,1.8,0.8,2.7,1.3c0.1,0,0.2,0,0.3,0c0.9-0.4,1.8-0.9,2.7-1.3c0.7-0.3,1-0.2,1.6,0.5   c0.5,0.7,1.1,1.5,1.6,2.2c0.1,0.1,0.2,0.1,0.3,0.1c0.8,0,1.6,0,2.4,0.1c0.3,0,0.6,0,0.8,0.1c0.5,0.1,0.7,0.5,0.8,1.1   c0.1,0.9,0.3,1.9,0.5,2.8c0,0.1,0.1,0.2,0.1,0.2c0.9,0.5,1.7,1,2.6,1.5c0.5,0.3,0.7,0.7,0.5,1.3c-0.3,0.9-0.5,1.7-0.9,2.6   c-0.1,0.4-0.1,0.6,0.1,0.9c0.5,0.7,0.9,1.4,1.4,2.2C110.1,103.1,110.1,103.6,109.6,104.1z"
       class="st1" /></g></svg>