<?xml version="1.0" encoding="UTF-8" standalone="no"?>
<svg
   xmlns:dc="http://purl.org/dc/elements/1.1/"
   xmlns:cc="http://creativecommons.org/ns#"
   xmlns:rdf="http://www.w3.org/1999/02/22-rdf-syntax-ns#"
   xmlns:svg="http://www.w3.org/2000/svg"
   xmlns="http://www.w3.org/2000/svg"
   xml:space="preserve"
   style="enable-background:new 0 0 150 150;"
   viewBox="0 0 150 150"
   y="0px"
   x="0px"
   id="Layer_1"
   version="1.1"><metadata
     id="metadata17"><rdf:RDF><cc:Work
         rdf:about=""><dc:format>image/svg+xml</dc:format><dc:type
           rdf:resource="http://purl.org/dc/dcmitype/StillImage" /><dc:title></dc:title></cc:Work></rdf:RDF></metadata><defs
     id="defs15" /><style
     id="style3"
     type="text/css">
	.st0{fill:#F98F8F;}
	.st1{fill:#FFFFFF;}
</style><circle
     id="circle5"
     r="75"
     cy="75"
     cx="75"
     class="st0" /><g
     id="g7"><path
       id="path9"
       d="M73.3,116.1c-0.3,0-0.6,0-1,0c-9.3,0-18.6,0-28,0c-0.3,0-0.7,0-1.1,0c0-19.9,0-39.8,0-59.7c0.4,0,0.7,0,1,0   c5,0,10,0,15,0c2,0,2.6-0.5,2.6-2.5c0-6.3,0-12.6,0-18.9c0-0.3,0-0.6,0-0.9c13.7,0,27.3,0,41,0c0,0.4,0,0.7,0,1   c0,12.5,0,25.1,0,37.6c0,2,0,4,0,6c0,1,0.6,1.7,1.5,1.9c0.8,0.2,1.8-0.3,2.1-1.1c0.1-0.4,0.2-0.9,0.2-1.3c0-15.2,0-30.3,0-45.5   c0-1.9-0.6-2.5-2.5-2.5c-14.4,0-28.7,0-43.1,0c-1.3,0-2.2,0.4-3.1,1.4c-5.9,6.6-11.8,13.2-17.7,19.7c-0.6,0.6-0.8,1.3-0.8,2.1   c0,21.3,0,42.5,0,63.8c0,1.1,0.3,2,1.4,2.5c11,0,21.9,0,32.9,0c0.2-0.2,0.5-0.3,0.7-0.5c0.5-0.5,0.7-1.2,0.5-1.9   C74.6,116.6,74.1,116.2,73.3,116.1z M58.2,37c0,5.3,0,10.4,0,15.5c-4.6,0-9.1,0-13.9,0C48.9,47.4,53.5,42.3,58.2,37z"
       class="st1" /><path
       id="path11"
       d="M110.4,101.1c-0.1-1.1-0.9-1.8-1.9-1.8c-1,0-1.8,0.7-1.9,1.8c0,0.9,0,1.7,0,2.6c-0.3,6.9-6.2,12.4-13,12.3   C87.3,116,82,111.4,81,105c-1-6.1,2.7-12.4,8.6-14.4c1.3-0.4,2.7-0.6,4-0.8c0,0.1,0.1,0.2,0.1,0.3c-0.2,0.2-0.3,0.5-0.5,0.7   c-1.8,2.7-3.6,5.3-5.4,8c-0.1,0.2-0.2,0.3-0.3,0.5c-0.6,1-0.4,2.1,0.5,2.7c0.9,0.6,2,0.4,2.6-0.6c2.7-4,5.4-8,8.1-12   c0.7-1,0.6-1.8-0.3-2.7c-3.2-3.2-6.3-6.3-9.5-9.5c-0.9-0.9-2.1-1-2.9-0.2c-0.8,0.8-0.7,1.9,0.2,2.8c1.4,1.4,2.8,2.8,4.1,4.1   c0.8,0.8,1.5,1.5,2.4,2.4c-0.7,0.1-1.2,0.1-1.7,0.2c-7.8,1.3-13.7,8-13.9,15.9c-0.3,8,5,15.1,12.7,17c0.8,0.2,1.5,0.3,2.3,0.5   c1.1,0,2.2,0,3.3,0c0.2-0.1,0.3-0.1,0.5-0.2c1.6-0.4,3.2-0.7,4.7-1.4C106.6,115.6,111,109.6,110.4,101.1z"
       class="st1" /></g></svg>