<?xml version="1.0" encoding="UTF-8" standalone="no"?>
<svg
   xmlns:dc="http://purl.org/dc/elements/1.1/"
   xmlns:cc="http://creativecommons.org/ns#"
   xmlns:rdf="http://www.w3.org/1999/02/22-rdf-syntax-ns#"
   xmlns:svg="http://www.w3.org/2000/svg"
   xmlns="http://www.w3.org/2000/svg"
   xml:space="preserve"
   style="enable-background:new 0 0 150 150;"
   viewBox="0 0 150 150"
   y="0px"
   x="0px"
   id="Layer_1"
   version="1.1"><metadata
     id="metadata13"><rdf:RDF><cc:Work
         rdf:about=""><dc:format>image/svg+xml</dc:format><dc:type
           rdf:resource="http://purl.org/dc/dcmitype/StillImage" /><dc:title></dc:title></cc:Work></rdf:RDF></metadata><defs
     id="defs11" /><style
     id="style3"
     type="text/css">
	.st0{fill:#F98F8F;}
	.st1{fill:#FFFFFF;}
</style><circle
     id="circle5"
     r="75"
     cy="75"
     cx="75"
     class="st0" /><path
     id="path7"
     d="M110.5,42.7c-1.6,1-3.2,1.9-4.8,2.9c-6.1,3.7-12.3,7.4-18.4,11c-5.5,3.3-11,6.6-16.5,9.9  c-6.1,3.6-12.1,7.3-18.2,10.9c-2.3,1.4-4.5,2.7-6.8,4.1c-1.3,0.8-2.4,0.6-3.4-0.6c-3.9-5.2-7.8-10.4-11.8-15.6  c-0.8-1.1-0.5-2,0.9-2.4c12.9-4,25.9-8,38.8-12.1c15.9-4.9,31.9-9.9,47.8-14.8c0.5-0.2,1.1-0.1,1.6-0.1c-0.2,0.5-0.3,1.1-0.5,1.5  C102.7,62.6,86.1,87.8,69.5,113c-1,1.5-1.8,1.6-2.9,0.1C62.8,108,59,103,55.2,97.9c-1.1-1.4-1-2.4,0.3-3.7  c6.2-5.8,12.4-11.6,18.7-17.4c6.1-5.6,12.1-11.3,18.2-16.9c5.9-5.5,11.9-11,17.8-16.6c0.2-0.1,0.3-0.3,0.5-0.5  C110.5,42.9,110.5,42.8,110.5,42.7z"
     class="st1" /></svg>