<?xml version="1.0" encoding="utf-8"?>
<!-- Generator: Adobe Illustrator 24.3.0, SVG Export Plug-In . SVG Version: 6.00 Build 0)  -->
<svg version="1.1" id="Layer_1" xmlns="http://www.w3.org/2000/svg" xmlns:xlink="http://www.w3.org/1999/xlink" x="0px" y="0px"
	 viewBox="0 0 521.7 181.9" style="enable-background:new 0 0 521.7 181.9;" xml:space="preserve">
<style type="text/css">
	.st0{fill:url(#Path_8041_1_);}
	.st1{fill:url(#Path_8042_1_);}
	.st2{fill:url(#Path_8043_1_);}
	.st3{fill:url(#Path_8044_1_);}
	.st4{fill:#39679E;}
	.st5{fill:url(#Path_8046_1_);}
	.st6{enable-background:new    ;}
	.st7{fill:#24155C;}
	.st8{fill:#848484;}
</style>
<g id="Group_3893" transform="translate(428.281 152.55)">
	<g id="Group_41">
		
			<linearGradient id="Path_8041_1_" gradientUnits="userSpaceOnUse" x1="-664.6846" y1="437.0599" x2="-664.0176" y2="435.8669" gradientTransform="matrix(164.0824 0 0 -181.4205 108658.6953 79164.6719)">
			<stop  offset="0" style="stop-color:#572AB7"/>
			<stop  offset="0.448" style="stop-color:#7E2FA5"/>
			<stop  offset="1" style="stop-color:#F43F6E"/>
		</linearGradient>
		<path id="Path_8041" class="st0" d="M-420.2,27.3L-420.2,27.3c-7.2-3.7-10.1-12.5-6.4-19.7l75.5-148.9
			c3.6-7.1,10.9-11.4,18.8-11.2c7.7,0.3,14.6,4.8,18,11.7l47.9,95.2c3.2,6.3,3,13.9-0.8,20c-3.9,6.2-10.7,9.9-18.1,9.9h-48
			c-8.1,0-14.7-6.6-14.7-14.7c0,0,0,0,0,0l0,0c0-8.1,6.6-14.7,14.7-14.7h34.1l-33.7-67.3l-67.7,133.4
			C-404.2,28.1-413,30.9-420.2,27.3z"/>
	</g>
	<g id="Group_42" transform="translate(1.04)">
		
			<linearGradient id="Path_8042_1_" gradientUnits="userSpaceOnUse" x1="-665.0966" y1="436.8982" x2="-665.2606" y2="436.6331" gradientTransform="matrix(164.0824 0 0 -181.4205 108829.3359 79164.6719)">
			<stop  offset="0" style="stop-color:#181000"/>
			<stop  offset="1" style="stop-color:#FFB41E;stop-opacity:0"/>
		</linearGradient>
		<path id="Path_8042" class="st1" d="M-420.2,27.3L-420.2,27.3c-7.2-3.7-10.1-12.5-6.4-19.7l75.5-148.9
			c3.6-7.1,10.9-11.4,18.8-11.2c7.7,0.3,14.6,4.8,18,11.7l47.9,95.2c3.2,6.3,3,13.9-0.8,20c-3.9,6.2-10.7,9.9-18.1,9.9h-48
			c-8.1,0-14.7-6.6-14.7-14.7c0,0,0,0,0,0l0,0c0-8.1,6.6-14.7,14.7-14.7h34.1l-33.7-67.3l-67.7,133.4
			C-404.2,28.1-413,30.9-420.2,27.3z"/>
	</g>
	<g id="Group_43" transform="translate(55.835 152.075)">
		
			<linearGradient id="Path_8043_1_" gradientUnits="userSpaceOnUse" x1="-720.2668" y1="272.9709" x2="-719.2668" y2="272.9709" gradientTransform="matrix(128.7027 0 0 -29.344 92271.9062 7872.1797)">
			<stop  offset="0" style="stop-color:#E83131"/>
			<stop  offset="1" style="stop-color:#FF4CA8"/>
		</linearGradient>
		<path id="Path_8043" class="st2" d="M-314.5-123.2h-99.1c-8.1,0.1-14.7-6.4-14.8-14.5c-0.1-8.1,6.4-14.7,14.5-14.8
			c0.1,0,0.2,0,0.2,0h99.1c8.1-0.1,14.7,6.4,14.8,14.5c0.1,8.1-6.4,14.7-14.5,14.8C-314.3-123.2-314.4-123.2-314.5-123.2z"/>
	</g>
	
		<linearGradient id="Path_8044_1_" gradientUnits="userSpaceOnUse" x1="-663.7471" y1="436.3376" x2="-663.0801" y2="435.1446" gradientTransform="matrix(100.6922 0 0 -136.6917 66486.4297 59508.5977)">
		<stop  offset="0" style="stop-color:#572AB7"/>
		<stop  offset="0.448" style="stop-color:#7E2FA5"/>
		<stop  offset="1" style="stop-color:#F43F6E"/>
	</linearGradient>
	<path id="Path_8044" class="st3" d="M-267.2-25.7c3.7-6.1,4-13.6,0.8-20l-47.9-95.2c-3.4-6.9-10.3-11.4-18-11.7
		c-7.9-0.2-15.2,4.2-18.8,11.2l-13.7,27.1l0,0c21.7-21.4,32.1,1.7,32.1,1.7l33.7,67.3h-34.1c-8.1-0.1-14.7,6.4-14.8,14.5
		c-0.1,8.1,6.4,14.7,14.5,14.8c0.1,0,0.2,0,0.2,0h48C-277.9-15.8-271.1-19.5-267.2-25.7z"/>
	<path id="Path_8045" class="st4" d="M-299.1-45.2h-34.1c-8.1,0.1-14.6,6.7-14.5,14.8c0.1,8,6.5,14.5,14.5,14.5h20.8
		C-283.5-19.7-299.1-45.2-299.1-45.2z"/>
	
		<linearGradient id="Path_8046_1_" gradientUnits="userSpaceOnUse" x1="-664.1904" y1="425.0455" x2="-663.1904" y2="425.0455" gradientTransform="matrix(113.8441 0 0 -29.343 75256.3203 12486.3008)">
		<stop  offset="0" style="stop-color:#965A5D"/>
		<stop  offset="1" style="stop-color:#E93237;stop-opacity:0"/>
	</linearGradient>
	<path id="Path_8046" class="st5" d="M-244,14.2c0-8.1-6.6-14.7-14.7-14.7h-99.1c0,0-4.2,29.3,61,29.3h38.1
		C-250.6,28.9-244,22.3-244,14.2C-244,14.2-244,14.2-244,14.2z"/>
</g>
<g class="st6">
	<path class="st7" d="M249.1,88.5h-8.6L233.9,71h-24l-6.3,17.4h-8l22-57.3h8.2L249.1,88.5z M231.7,65l-10.1-26.6L212,65H231.7z"/>
	<path class="st7" d="M261.8,52c3.3-3.9,7.2-5.9,11.8-5.9c5.4,0,9.6,1.9,12.6,5.8c3,3.8,4.5,9,4.5,15.6c0,6.8-1.7,12.2-5,16.1
		s-7.5,5.9-12.6,5.9c-4.5,0-8.3-1.4-11.3-4.2v19.1h-7.4V47h7.4V52z M261.8,78.6c3.2,3.4,6.8,5,10.9,5c3.2,0,5.7-1.4,7.6-4.1
		c1.9-2.7,2.8-6.8,2.8-12.2c0-5.1-0.9-9-2.7-11.6c-1.8-2.6-4.2-4-7.4-4c-4.1,0-7.8,2.4-11.2,7.1V78.6z"/>
	<path class="st7" d="M306.3,52c3.3-3.9,7.2-5.9,11.8-5.9c5.4,0,9.6,1.9,12.6,5.8c3,3.8,4.5,9,4.5,15.6c0,6.8-1.7,12.2-5,16.1
		s-7.5,5.9-12.6,5.9c-4.5,0-8.3-1.4-11.3-4.2v19.1h-7.4V47h7.4V52z M306.3,78.6c3.2,3.4,6.8,5,10.9,5c3.2,0,5.7-1.4,7.6-4.1
		c1.9-2.7,2.8-6.8,2.8-12.2c0-5.1-0.9-9-2.7-11.6c-1.8-2.6-4.2-4-7.4-4c-4.1,0-7.8,2.4-11.2,7.1V78.6z"/>
	<path class="st7" d="M376.3,88.5h-36.7v-6.2l25.8-28.9h-24.3V47H375v6.2l-25.8,28.9h27.1V88.5z"/>
	<path class="st7" d="M390.8,39.2h-7.4v-8h7.4V39.2z M390.8,88.5h-7.4V47h7.4V88.5z"/>
	<path class="st7" d="M409.1,88.5h-7.4V31.2h7.4V88.5z"/>
	<path class="st7" d="M427.3,88.5h-7.4V31.2h7.4V88.5z"/>
	<path class="st7" d="M455,46.1c5.9,0,10.6,1.9,14.2,5.7c3.5,3.8,5.3,9.1,5.3,16c0,6.9-1.8,12.2-5.3,16c-3.5,3.8-8.2,5.7-14.2,5.7
		c-5.9,0-10.6-1.9-14.1-5.7c-3.5-3.8-5.3-9.1-5.3-16c0-6.9,1.8-12.2,5.3-16C444.4,48,449.1,46.1,455,46.1z M455,83.6
		c3.5,0,6.4-1.3,8.6-4c2.2-2.7,3.3-6.6,3.3-11.9c0-5.3-1.1-9.3-3.3-11.9c-2.2-2.7-5-4-8.6-4s-6.4,1.3-8.6,4
		c-2.2,2.7-3.3,6.6-3.3,11.9c0,5.3,1.1,9.2,3.3,11.9C448.6,82.3,451.4,83.6,455,83.6z"/>
	<path class="st7" d="M490,52.3c3.7-4.1,7.8-6.2,12.4-6.2c9.3,0,14,5.1,14,15.3v27.1h-7.4V61.7c0-3.4-0.6-5.8-1.8-7.3
		s-3.2-2.2-6-2.2c-3.8,0-7.5,2.2-11.2,6.6v29.7h-7.4V47h7.4V52.3z"/>
</g>
<g class="st6">
	<path class="st8" d="M433.5,141.4c0,3.6-1.2,6.3-3.6,8.2c-2.4,1.9-5.9,2.8-10.5,2.8h-14.2v-37.9h13.5c4,0,7.2,0.9,9.5,2.6
		c2.3,1.7,3.5,4.1,3.5,7.1c0,3.7-1.8,6.4-5.5,8.1c2.5,0.6,4.3,1.8,5.5,3.4C432.9,137.4,433.5,139.3,433.5,141.4z M410.2,130.4h8.4
		c2.8,0,4.8-0.4,6.1-1.3c1.3-0.9,2-2.4,2-4.4c0-1.9-0.6-3.3-1.9-4.2c-1.3-0.9-3.5-1.4-6.7-1.4h-8V130.4z M410.2,147.9h9.1
		c6,0,9-2.2,9-6.5c0-2.3-0.7-3.9-2.1-5c-1.4-1-3.9-1.6-7.6-1.6h-8.5V147.9z"/>
	<path class="st8" d="M457.3,149.6c-2.5,2.3-5.7,3.5-9.6,3.5c-2.7,0-5-0.7-6.7-2.2c-1.8-1.5-2.6-3.4-2.6-5.7c0-6.4,5.5-9.6,16.6-9.6
		h2.4c0-2-0.1-3.4-0.3-4.3s-0.8-1.6-1.7-2.2c-0.9-0.6-2.5-0.9-4.5-0.9c-4.3,0-6.6,1.6-6.7,4.7h-4.9c0.4-5.6,4.3-8.5,11.9-8.5
		c3.5,0,6.3,0.7,8.2,2.1s2.9,4.1,2.9,8.2v17.8h-4.9V149.6z M457.3,145.2v-6.1h-3.3c-7.1,0-10.6,1.9-10.6,5.8c0,1.4,0.5,2.5,1.6,3.2
		c1,0.8,2.4,1.1,4.2,1.1c1.6,0,3.2-0.4,4.7-1.1S456.4,146.5,457.3,145.2z"/>
	<path class="st8" d="M474.2,128.5c2.4-2.7,5.2-4.1,8.2-4.1c6.2,0,9.3,3.4,9.3,10.1v18h-4.9v-17.8c0-2.2-0.4-3.9-1.2-4.8
		c-0.8-1-2.1-1.5-3.9-1.5c-2.5,0-5,1.5-7.5,4.4v19.7h-4.9V125h4.9V128.5z"/>
	<path class="st8" d="M521.5,152.5h-5.8l-8.9-13.9l-3.1,3v10.9h-4.9v-37.9h4.9V136l10.6-11h6.2L510,135.2L521.5,152.5z"/>
</g>
</svg>
