<?xml version="1.0" encoding="utf-8"?>
<!-- Generator: Adobe Illustrator 24.3.0, SVG Export Plug-In . SVG Version: 6.00 Build 0)  -->
<svg version="1.1" id="Layer_1" xmlns="http://www.w3.org/2000/svg" xmlns:xlink="http://www.w3.org/1999/xlink" x="0px" y="0px"
	 viewBox="0 0 182 190" style="enable-background:new 0 0 182 190;" xml:space="preserve">
<style type="text/css">
	.st0{fill:url(#Path_8041_1_);}
	.st1{fill:url(#Path_8042_1_);}
	.st2{fill:url(#Path_8043_1_);}
	.st3{fill:url(#Path_8044_1_);}
	.st4{fill:#39679E;}
	.st5{fill:url(#Path_8046_1_);}
</style>
<g id="Group_3893" transform="translate(428.281 152.55)">
	<g id="Group_41">
		
			<linearGradient id="Path_8041_1_" gradientUnits="userSpaceOnUse" x1="-1010.4687" y1="4.6281" x2="-1009.8176" y2="5.7926" gradientTransform="matrix(164.0824 0 0 181.4205 165396.2344 -960.7489)">
			<stop  offset="0" style="stop-color:#572AB7"/>
			<stop  offset="0.448" style="stop-color:#7E2FA5"/>
			<stop  offset="1" style="stop-color:#F43F6E"/>
		</linearGradient>
		<path id="Path_8041" class="st0" d="M-419.4,29.5L-419.4,29.5c-7-3.6-9.9-12.2-6.2-19.2l73.7-145.3c3.5-6.9,10.6-11.1,18.4-10.9
			c7.5,0.3,14.3,4.7,17.6,11.4l46.8,92.9c3.1,6.1,2.9,13.6-0.8,19.5c-3.8,6.1-10.4,9.7-17.7,9.7h-46.9c-7.9,0-14.3-6.4-14.3-14.3
			l0,0l0,0c0-7.9,6.4-14.3,14.3-14.3h33.3l-32.9-65.7l-66.1,130.2C-403.8,30.2-412.4,33-419.4,29.5z"/>
	</g>
	<g id="Group_42" transform="translate(1.04)">
		
			<linearGradient id="Path_8042_1_" gradientUnits="userSpaceOnUse" x1="-1011.9355" y1="4.7862" x2="-1012.0956" y2="5.045" gradientTransform="matrix(164.0824 0 0 181.4205 165737.5156 -960.7489)">
			<stop  offset="0" style="stop-color:#181000"/>
			<stop  offset="1" style="stop-color:#FFB41E;stop-opacity:0"/>
		</linearGradient>
		<path id="Path_8042" class="st1" d="M-419.4,29.5L-419.4,29.5c-7-3.6-9.9-12.2-6.2-19.2l73.7-145.3c3.5-6.9,10.6-11.1,18.4-10.9
			c7.5,0.3,14.3,4.7,17.6,11.4l46.8,92.9c3.1,6.1,2.9,13.6-0.8,19.5c-3.8,6.1-10.4,9.7-17.7,9.7h-46.9c-7.9,0-14.3-6.4-14.3-14.3
			l0,0l0,0c0-7.9,6.4-14.3,14.3-14.3h33.3l-32.9-65.7l-66.1,130.2C-403.8,30.2-412.4,33-419.4,29.5z"/>
	</g>
	<g id="Group_43" transform="translate(55.835 152.075)">
		
			<linearGradient id="Path_8043_1_" gradientUnits="userSpaceOnUse" x1="-1122.0304" y1="28.3517" x2="-1121.0551" y2="28.3517" gradientTransform="matrix(128.7027 0 0 29.344 143979.625 -967.324)">
			<stop  offset="0" style="stop-color:#E83131"/>
			<stop  offset="1" style="stop-color:#FF4CA8"/>
		</linearGradient>
		<path id="Path_8043" class="st2" d="M-317.5-121.1h-96.7c-7.9,0.1-14.3-6.2-14.4-14.2c-0.1-7.9,6.2-14.3,14.2-14.4
			c0.1,0,0.2,0,0.2,0h96.7c7.9-0.1,14.3,6.2,14.4,14.2c0.1,7.9-6.2,14.3-14.2,14.4C-317.3-121.1-317.4-121.1-317.5-121.1z"/>
	</g>
	
		<linearGradient id="Path_8044_1_" gradientUnits="userSpaceOnUse" x1="-1009.861" y1="6.0981" x2="-1009.2099" y2="7.2627" gradientTransform="matrix(100.6922 0 0 136.6917 101336.5313 -962.6879)">
		<stop  offset="0" style="stop-color:#572AB7"/>
		<stop  offset="0.448" style="stop-color:#7E2FA5"/>
		<stop  offset="1" style="stop-color:#F43F6E"/>
	</linearGradient>
	<path id="Path_8044" class="st3" d="M-270-22.3c3.6-6,3.9-13.3,0.8-19.5l-46.8-92.9c-3.3-6.7-10.1-11.1-17.6-11.4
		c-7.7-0.2-14.8,4.1-18.4,10.9l-13.4,26.5l0,0c21.2-20.9,31.3,1.7,31.3,1.7l32.9,65.7h-33.3c-7.9-0.1-14.3,6.2-14.4,14.2
		c-0.1,7.9,6.2,14.3,14.2,14.4c0.1,0,0.2,0,0.2,0h46.9C-280.5-12.6-273.8-16.2-270-22.3z"/>
	<path id="Path_8045" class="st4" d="M-301.2-41.3h-33.3c-7.9,0.1-14.3,6.5-14.2,14.4c0.1,7.8,6.3,14.2,14.2,14.2h20.3
		C-285.9-16.4-301.2-41.3-301.2-41.3z"/>
	
		<linearGradient id="Path_8046_1_" gradientUnits="userSpaceOnUse" x1="-1010.2065" y1="28.3503" x2="-1009.2303" y2="28.3503" gradientTransform="matrix(113.8441 0 0 29.343 114647.5234 -815.2525)">
		<stop  offset="0" style="stop-color:#965A5D"/>
		<stop  offset="1" style="stop-color:#E93237;stop-opacity:0"/>
	</linearGradient>
	<path id="Path_8046" class="st5" d="M-247.4,16.7c0-7.9-6.4-14.3-14.3-14.3h-96.7c0,0-4.1,28.6,59.5,28.6h37.2
		C-253.8,31-247.4,24.6-247.4,16.7L-247.4,16.7z"/>
</g>
</svg>
