<?xml version="1.0" encoding="utf-8"?>
<!-- Generator: Adobe Illustrator 24.3.0, SVG Export Plug-In . SVG Version: 6.00 Build 0)  -->
<svg version="1.1" id="Layer_1" xmlns="http://www.w3.org/2000/svg" xmlns:xlink="http://www.w3.org/1999/xlink" x="0px" y="0px"
	 viewBox="0 0 1000 1000" style="enable-background:new 0 0 1000 1000;" xml:space="preserve">
<style type="text/css">
	.st0{fill:url(#Path_8041_1_);}
	.st1{fill:url(#Path_8042_1_);}
	.st2{fill:url(#Path_8043_1_);}
	.st3{fill:url(#Path_8044_1_);}
	.st4{fill:#39679E;}
	.st5{fill:url(#Path_8046_1_);}
</style>
<g id="Group_3893" transform="translate(428.281 152.55)">
	<g id="Group_41">
		
			<linearGradient id="Path_8041_1_" gradientUnits="userSpaceOnUse" x1="-1090.6727" y1="412.6171" x2="-1088.103" y2="417.2134" gradientTransform="matrix(164.0824 0 0 181.4205 178768.9844 -74760.5547)">
			<stop  offset="0" style="stop-color:#572AB7"/>
			<stop  offset="0.448" style="stop-color:#7E2FA5"/>
			<stop  offset="1" style="stop-color:#F43F6E"/>
		</linearGradient>
		<path id="Path_8041" class="st0" d="M-252.34,690.98L-252.34,690.98c-27.74-14.26-38.91-48.16-24.66-75.9L13.88,41.41
			C27.75,14.06,55.87-2.51,86.31-1.74c29.67,1.16,56.25,18.49,69.35,45.08L340.2,410.12c12.33,24.27,11.56,53.55-3.08,77.05
			c-15.03,23.89-41.22,38.14-69.73,38.14H82.46c-31.21,0-56.64-25.43-56.64-56.63l0,0l0,0c0-31.21,25.43-56.64,56.64-56.64h131.38
			L84,152.75l-260.83,513.95C-190.7,694.06-224.6,704.85-252.34,690.98z"/>
	</g>
	<g id="Group_42" transform="translate(1.04)">
		
			<linearGradient id="Path_8042_1_" gradientUnits="userSpaceOnUse" x1="-1090.3141" y1="413.2412" x2="-1090.9459" y2="414.2626" gradientTransform="matrix(164.0824 0 0 181.4205 179110.2813 -74760.5547)">
			<stop  offset="0" style="stop-color:#181000"/>
			<stop  offset="1" style="stop-color:#FFB41E;stop-opacity:0"/>
		</linearGradient>
		<path id="Path_8042" class="st1" d="M-249.38,690.98L-249.38,690.98c-27.74-14.26-38.91-48.16-24.66-75.9L16.85,41.41
			C30.72,14.06,58.84-2.51,89.28-1.74c29.67,1.16,56.25,18.49,69.35,45.08l184.55,366.78c12.33,24.27,11.56,53.55-3.08,77.05
			c-15.03,23.89-41.22,38.14-69.73,38.14H85.42c-31.21,0-56.64-25.43-56.64-56.63l0,0l0,0c0-31.21,25.43-56.64,56.64-56.64H216.8
			L86.96,152.75l-260.83,513.95C-187.73,694.06-221.64,704.85-249.38,690.98z"/>
	</g>
	<g id="Group_43" transform="translate(55.835 152.075)">
		
			<linearGradient id="Path_8043_1_" gradientUnits="userSpaceOnUse" x1="-1201.0308" y1="444.7171" x2="-1197.181" y2="444.7171" gradientTransform="matrix(128.7027 0 0 29.344 154451.2344 -12561.248)">
			<stop  offset="0" style="stop-color:#E83131"/>
			<stop  offset="1" style="stop-color:#FF4CA8"/>
		</linearGradient>
		<path id="Path_8043" class="st2" d="M314.17,544.97h-381.8c-31.21,0.39-56.64-24.66-57.02-55.86
			c-0.39-31.21,24.66-56.63,55.86-57.02c0.39,0,0.77,0,0.77,0h381.8c31.21-0.39,56.64,24.66,57.02,55.86
			c0.39,31.21-24.66,56.63-55.86,57.02C314.94,544.97,314.56,544.97,314.17,544.97z"/>
	</g>
	
		<linearGradient id="Path_8044_1_" gradientUnits="userSpaceOnUse" x1="-1087.3156" y1="413.5694" x2="-1084.7458" y2="418.1657" gradientTransform="matrix(100.6922 0 0 136.6917 109511.2969 -56466.4727)">
		<stop  offset="0" style="stop-color:#572AB7"/>
		<stop  offset="0.448" style="stop-color:#7E2FA5"/>
		<stop  offset="1" style="stop-color:#F43F6E"/>
	</linearGradient>
	<path id="Path_8044" class="st3" d="M337.12,486.78c14.26-23.5,15.41-52.4,3.08-77.05L155.66,42.95
		c-13.1-26.58-39.68-43.92-69.35-45.08C55.87-2.9,27.75,14.06,13.88,41.02L-38.9,145.43l0,0c83.6-82.45,123.67,6.55,123.67,6.55
		l129.84,259.29H83.23c-31.21-0.39-56.64,24.66-57.02,55.86c-0.39,31.21,24.66,56.64,55.86,57.02c0.39,0,0.77,0,0.77,0h184.93
		C295.9,524.93,322.1,510.67,337.12,486.78z"/>
	<path id="Path_8045" class="st4" d="M214.22,411.66H82.84c-31.21,0.39-56.25,25.81-55.86,57.02c0.39,30.82,25.04,55.86,55.86,55.86
		h80.14C274.32,509.9,214.22,411.66,214.22,411.66z"/>
	
		<linearGradient id="Path_8046_1_" gradientUnits="userSpaceOnUse" x1="-1088.4436" y1="444.7086" x2="-1084.5906" y2="444.7086" gradientTransform="matrix(113.8441 0 0 29.343 123900.7422 -12408.7676)">
		<stop  offset="0" style="stop-color:#965A5D"/>
		<stop  offset="1" style="stop-color:#E93237;stop-opacity:0"/>
	</linearGradient>
	<path id="Path_8046" class="st5" d="M426.51,640.51c0-31.21-25.43-56.64-56.64-56.64h-381.8c0,0-16.18,112.88,235.02,112.88h146.79
		C401.08,697.14,426.51,671.72,426.51,640.51L426.51,640.51z"/>
</g>
</svg>
