<svg xmlns="http://www.w3.org/2000/svg" xmlns:xlink="http://www.w3.org/1999/xlink" width="32" height="32" viewBox="0 0 32 32">
  <defs>
    <clipPath id="clip-cur">
      <rect width="32" height="32"/>
    </clipPath>
  </defs>
  <g id="cur" clip-path="url(#clip-cur)">
    <path id="Union_54" data-name="Union 54" d="M2,30a2,2,0,0,1-2-2V8A2,2,0,0,1,2,6H5.455V1a1,1,0,0,1,1-1H23.544a1,1,0,0,1,1,1V6H28a2,2,0,0,1,2,2V28a2,2,0,0,1-2,2Zm.913-6.061a3.009,3.009,0,0,0,2.853,3.137h18.4a3.009,3.009,0,0,0,2.853-3.137V21H18.858A4.139,4.139,0,0,1,15,24a4.139,4.139,0,0,1-3.859-3H2.913Zm24.106-4.828V12.249a3.009,3.009,0,0,0-2.853-3.137H5.766a3.009,3.009,0,0,0-2.853,3.137v6.862h8.011A4.268,4.268,0,0,1,15,15a4.268,4.268,0,0,1,4.075,4.111ZM21.307,6V4.187c0-.416-.672-.755-1.5-.755H10.148c-.826,0-1.5.339-1.5.755V6Z" transform="translate(1 1)" fill="#fff"/>
  </g>
</svg>
