<?xml version="1.0" encoding="utf-8"?>
<!-- Generator: Adobe Illustrator 22.0.1, SVG Export Plug-In . SVG Version: 6.00 Build 0)  -->
<svg version="1.1" id="Layer_1" xmlns="http://www.w3.org/2000/svg" xmlns:xlink="http://www.w3.org/1999/xlink" x="0px" y="0px"
	 viewBox="0 0 48 48" enable-background="new 0 0 48 48" xml:space="preserve">
<g>
	<path d="M24.6,20.3l0.9-1.7c0.1,0,0.1,0,0.2,0c1.3,0,2.4-1.1,2.4-2.4c0-1.3-1.1-2.4-2.4-2.4s-2.4,1.1-2.4,2.4
		c0,0.7,0.3,1.3,0.8,1.7l-0.9,1.6l-19-10L4.2,9.6C4.1,10.4,4,11.3,4,12.2c0,13.3,10.8,24.2,24.2,24.2c6,0,11.5-2.2,15.8-5.9
		L24.6,20.3z"/>
	<path d="M12.5,33.6L6.9,48h19.9l-3.9-9.7C17.6,37.9,12.5,33.6,12.5,33.6z"/>
	<path d="M21,9.7l1.7,0.8c4.4-0.4,8.6,1.7,10.4,5.3l1.1,0.6C32.8,11.1,26.9,8.1,21,9.7z"/>
	<path d="M38.2,14.9C35,4.5,26.1,4,20.2,5.6l1.3,0.7c5.3-0.9,12.2,0.3,15.4,8L38.2,14.9z"/>
	<path d="M41.7,13.2l1,0.5C41,3.3,26.8-3,18.9,1.4l0.9,0.5C27.4-0.9,39,4.4,41.7,13.2z"/>
</g>
</svg>
