<svg xmlns="http://www.w3.org/2000/svg" xmlns:xlink="http://www.w3.org/1999/xlink" width="64" height="64" viewBox="0 0 64 64">
  <defs>
    <clipPath id="clip-gas">
      <rect width="64" height="64"/>
    </clipPath>
  </defs>
  <g id="gas" clip-path="url(#clip-gas)">
    <rect id="Rectangle_6407" data-name="Rectangle 6407" width="58.906" height="58" rx="29" transform="translate(3 3)" fill="#93c840"/>
    <path id="gas-2" data-name="gas" d="M23.807,8.271a4.369,4.369,0,0,0-3.5-4.284c-.3-.049-.591-.1-.936-.148V3c0-1.034-.049-2.068-.049-3.1H13.516V3.79c-.2.1-.246.1-.3.148A4.363,4.363,0,0,0,9.084,8.862v6.943a4.578,4.578,0,0,0,.394,2.216c.049.049.049.1.1.2s.1.148.148.246a.68.68,0,0,0,.148.2c.049.1.1.148.148.246.049.049.1.1.1.148.2.2.394.443.591.64a1,1,0,0,1,.3.542c.049,1.133,0,2.216,0,3.348H21.837v-3.25a.8.8,0,0,1,.345-.689,4.343,4.343,0,0,0,1.625-3.4ZM14.451.934h3.89V3.889H16.913V2.461h-.985V3.889H14.451Zm-1.33,3.939c2.167-.049,4.383-.049,6.549,0a3.306,3.306,0,0,1,3.053,2.905H10.118A2.837,2.837,0,0,1,10.709,6.2,3.429,3.429,0,0,1,13.122,4.873ZM20.8,22.6H11.989V20.434l1.477.246v.886H14.4l.049-.886h1.477v.886h.936l.049-.886h1.428l.049.886h.936l.049-.886,1.428-.246Zm-.837-3c-1.379.1-2.758.1-4.136.1-.985,0-2.019,0-3-.1a3.112,3.112,0,0,1-2.117-1.28h0a5.382,5.382,0,0,1-.394-.739h0a2.318,2.318,0,0,1-.2-.788H22.773A3.4,3.4,0,0,1,19.966,19.6Zm2.807-3.89h-12.7V8.813H22.822v6.894Z" transform="translate(15.932 20.1)"/>
  </g>
</svg>
