<svg xmlns="http://www.w3.org/2000/svg" xmlns:xlink="http://www.w3.org/1999/xlink" width="64" height="64" viewBox="0 0 64 64">
  <defs>
    <clipPath id="clip-insur">
      <rect width="64" height="64"/>
    </clipPath>
  </defs>
  <g id="insur" clip-path="url(#clip-insur)">
    <rect id="Rectangle_6408" data-name="Rectangle 6408" width="58.906" height="58" rx="29" transform="translate(2 3)" fill="#93c840"/>
    <g id="insurance" transform="translate(22 20)">
      <path id="Path_7979" data-name="Path 7979" d="M13.358,12.594a.437.437,0,0,1-.439-.439V9.519c-2.392.1-4.344.732-4.735,1.513a.434.434,0,0,1-.293.293H7.744a.348.348,0,0,1-.293-.146v.049h0c0-.049-.049-.049-.049-.1-.049-.146-.586-.439-1.562-.439s-1.513.342-1.562.488a.427.427,0,0,1-.439.293.54.54,0,0,1-.439-.342h0v-.049A10.076,10.076,0,0,1,12.967,1.025V.537C13.016.2,13.211,0,13.455,0a.437.437,0,0,1,.439.439V.976a9.966,9.966,0,0,1,9.567,10.007.179.179,0,0,1-.049.146.4.4,0,0,1-.244.244h-.146a.561.561,0,0,1-.439-.293c-.049-.2-.586-.488-1.562-.488s-1.513.293-1.562.439v.049l-.1.1c-.049.049-.1.1-.146.1a.048.048,0,0,0-.049.049.369.369,0,0,1-.2.049.179.179,0,0,1-.146-.049c-.146,0-.2-.049-.2-.1h0c-.049-.049-.1-.1-.1-.146-.391-.83-2.392-1.464-4.784-1.562v2.636A.374.374,0,0,1,13.358,12.594Zm3.27-10.153c1.611,1.611,2.685,4.442,2.88,7.615a3.877,3.877,0,0,1,1.562-.293,4.165,4.165,0,0,1,1.464.244A9.242,9.242,0,0,0,16.628,2.441ZM5.841,9.763a4.768,4.768,0,0,1,1.562.244c.2-3.173,1.269-6,2.88-7.615a9.311,9.311,0,0,0-5.906,7.615A4.375,4.375,0,0,1,5.841,9.763Zm7.615-7.908c-2.587,0-4.832,3.466-5.125,7.908A10.23,10.23,0,0,1,13.455,8.64a9.5,9.5,0,0,1,5.125,1.123C18.288,5.321,16.043,1.855,13.455,1.855Z" transform="translate(-3.4 0)"/>
      <path id="Path_7980" data-name="Path 7980" d="M31.994,33.5a5.919,5.919,0,0,1-3.173.781,5.619,5.619,0,0,1-3.173-.781H25.6v.732h.049v.635c0,.439.927.927,2.245,1.123h1.855c1.318-.146,2.245-.683,2.245-1.123v-.635h.049l-.049-.732Z" transform="translate(-14.763 -17.147)"/>
      <path id="Path_7981" data-name="Path 7981" d="M31.994,28.7a5.919,5.919,0,0,1-3.173.781,5.619,5.619,0,0,1-3.173-.781H25.6v1.416c0,.537,1.367,1.172,3.173,1.172h0c1.806,0,3.173-.635,3.173-1.172l.049-1.416Z" transform="translate(-14.763 -14.691)"/>
      <path id="Path_7982" data-name="Path 7982" d="M28.922,24.3h0c-1.855,0-3.222.635-3.222,1.172,0,.293.342.586.927.781a.151.151,0,0,1,.1.049c.049,0,.1.049.146.049s.1,0,.1.049c.049,0,.1.049.146.049h.1c.049,0,.1.049.2.049h0a6.763,6.763,0,0,0,1.464.146h0a6.453,6.453,0,0,0,1.464-.146h0c.049,0,.146-.049.2-.049h.1c.049,0,.1-.049.146-.049s.1,0,.1-.049c.049,0,.1-.049.146-.049s.049,0,.1-.049c.586-.244.927-.537.927-.781C32.095,24.935,30.728,24.3,28.922,24.3Z" transform="translate(-14.815 -12.438)"/>
      <path id="Path_7983" data-name="Path 7983" d="M29.6,43.832a.619.619,0,0,0-.293.049h-.976a.619.619,0,0,1-.293-.049h0A5.159,5.159,0,0,1,25.6,43.1v1.22c.049.391.683.781,1.708,1.025a4.161,4.161,0,0,0,1.123.146h.683a4.161,4.161,0,0,0,1.123-.146c1.025-.2,1.66-.635,1.708-1.025V43.1a4.419,4.419,0,0,1-2.343.732Z" transform="translate(-14.763 -22.061)"/>
      <path id="Path_7984" data-name="Path 7984" d="M25.6,39.716c0,.488,1.172,1.025,2.831,1.123h.586c1.66-.049,2.831-.586,2.831-1.123V38.3a5.192,5.192,0,0,1-2.489.732h0c-.2,0-.391.049-.635.049h-.1c-.2,0-.391-.049-.635-.049h0A5.192,5.192,0,0,1,25.5,38.3v1.416Z" transform="translate(-14.712 -19.604)"/>
      <path id="Path_7985" data-name="Path 7985" d="M16.495,38a5.919,5.919,0,0,1-3.173.781A5.619,5.619,0,0,1,10.149,38H10.1v.732h.049v.635c0,.439.927.927,2.245,1.123h1.855c1.318-.146,2.245-.683,2.245-1.123v-.635h.049L16.495,38Z" transform="translate(-6.829 -19.451)"/>
      <path id="Path_7986" data-name="Path 7986" d="M16.495,33.2a5.919,5.919,0,0,1-3.173.781,5.62,5.62,0,0,1-3.173-.781H10.1v1.367c0,.537,1.367,1.172,3.173,1.172h0c1.806,0,3.173-.635,3.173-1.172l.049-1.367Z" transform="translate(-6.829 -16.994)"/>
      <path id="Path_7987" data-name="Path 7987" d="M13.422,28.8h0c-1.855,0-3.222.635-3.222,1.172,0,.293.342.586.927.781a.151.151,0,0,1,.1.049c.049,0,.1.049.146.049s.1,0,.1.049c.049,0,.1.049.146.049h.1c.049,0,.1.049.2.049h0a6.763,6.763,0,0,0,1.464.146h0A6.452,6.452,0,0,0,14.837,31h0c.049,0,.146-.049.2-.049h.1c.049,0,.1-.049.146-.049s.1,0,.1-.049c.049,0,.1-.049.146-.049s.049,0,.1-.049c.586-.244.927-.537.927-.781C16.594,29.435,15.228,28.8,13.422,28.8Z" transform="translate(-6.881 -14.742)"/>
      <path id="Path_7988" data-name="Path 7988" d="M14.056,43.532c-.2,0-.391.049-.635.049h-.1c-.2,0-.391-.049-.635-.049h0A5.192,5.192,0,0,1,10.2,42.8v1.416c0,.488,1.172,1.025,2.831,1.123h.586c1.66-.049,2.831-.586,2.831-1.123V42.8a4.931,4.931,0,0,1-2.392.732Z" transform="translate(-6.881 -21.908)"/>
    </g>
  </g>
</svg>
