<svg xmlns="http://www.w3.org/2000/svg" xmlns:xlink="http://www.w3.org/1999/xlink" width="32" height="32" viewBox="0 0 32 32">
  <defs>
    <clipPath id="clip-loan">
      <rect width="32" height="32"/>
    </clipPath>
  </defs>
  <g id="loan" clip-path="url(#clip-loan)">
    <path id="Path_7600" data-name="Path 7600" d="M48.7,43.151H45.122l.071-3.12,0-4.415-.024-5.783a.481.481,0,0,0-.482-.482H40.355l-.022-3.475a.481.481,0,0,0-.482-.482H29.738a.481.481,0,0,0-.482.482l.022,5.46.023,5.805v.834l-3.644-1.749a.477.477,0,0,0-.208-.048H17.371c-.266,0-.266,2.142,0,2.142h8.078l11.157,5.3v.543H30.264c-.266,0-.256,2.173.01,2.173H37.5c.266,0,.472-.742.472-1.008l-.024-.25h6.742l2.415.108.044.624L35.589,50.282,22.778,46.047a.481.481,0,0,0-.152-.025l-5.255.025c-.266,0-.23,1.871.036,1.871h5.219L35.437,52.3a.47.47,0,0,0,.152.025.48.48,0,0,0,.188-.038l12.494-5.317c.178-.075.6-.293.6-.486C48.871,44.056,48.965,43.151,48.7,43.151ZM31.207,33.1l3.16.036v2.687l-3.16-.036Zm4.8,4.259v-.482h7.412v2.2H36.006Zm7.389-6.028.024,3.468H36.008l-.024-2.626v-.842h7.412ZM31.183,27.343l7.464.041V29.35H35.058c-.266,0-.715.21-.715.476v1.022l-3.16-.036Zm.023,10.59,3.16.036v2.543L31.205,38.7ZM37.7,41.823l-1.691-.848v-.462h7.412l-.071,2.638H37.9l.071-.894A.481.481,0,0,0,37.7,41.823Z" transform="translate(-17.171 -22.394)" fill="#fff"/>
  </g>
</svg>
