<svg xmlns="http://www.w3.org/2000/svg" xmlns:xlink="http://www.w3.org/1999/xlink" width="64" height="64" viewBox="0 0 64 64">
  <defs>
    <clipPath id="clip-myProf99">
      <rect width="64" height="64"/>
    </clipPath>
  </defs>
  <g id="myProf99" clip-path="url(#clip-myProf99)">
    <circle id="Ellipse_976" data-name="Ellipse 976" cx="24" cy="24" r="24" transform="translate(8 8)" fill="#fff"/>
    <path id="Path_14121" data-name="Path 14121" d="M18.833,16.621H30.068a.5.5,0,0,0,0-1H18.833a.5.5,0,1,0,0,1Zm0,2.334h9.238a.5.5,0,1,0,0-1H18.833a.5.5,0,1,0,0,1Zm5.909,4.516H18.833a.5.5,0,1,0,0,1h5.909a.5.5,0,1,0,0-1ZM23.093,25.99h-4.26a.5.5,0,1,0,0,1h4.26a.5.5,0,0,0,0-1Zm8.46-.763A2.3,2.3,0,0,0,29.222,27.7a2.572,2.572,0,0,0,2.331,2.754A2.572,2.572,0,0,0,33.885,27.7,2.3,2.3,0,0,0,31.553,25.227Zm0,4.227A1.59,1.59,0,0,1,30.221,27.7a1.339,1.339,0,1,1,2.665,0A1.59,1.59,0,0,1,31.553,29.454Zm1.692-6.981V13.925a.5.5,0,0,0-.145-.352l-4.688-4.73a.5.5,0,0,0-.355-.148h-11.9a.5.5,0,0,0-.5.5V32.084a.5.5,0,0,0,.5.5h9.293a6.967,6.967,0,1,0,7.8-10.111ZM28.556,10.408l2.991,3.017H28.556ZM25,31.585H16.655V9.695h10.9v4.23a.5.5,0,0,0,.5.5h4.189V22.29c-.228-.023-.46-.035-.694-.035A6.95,6.95,0,0,0,25,31.585Zm6.55,3.613a5.926,5.926,0,0,1-3.019-.828c.007-.239.021-.538.035-.62.259-1.432,1.766-1.732,2.984-1.732.842,0,2.822.186,3.009,1.9.006.054.01.273.012.446A5.929,5.929,0,0,1,31.552,35.2Zm3.979-1.532c-.258-1.66-1.73-2.647-3.978-2.647-2.227,0-3.673.931-3.967,2.556,0,.026-.008.058-.012.092a5.971,5.971,0,1,1,7.958,0Z" transform="translate(5.344 9.304)"/>
  </g>
</svg>
