<svg xmlns="http://www.w3.org/2000/svg" xmlns:xlink="http://www.w3.org/1999/xlink" width="281" height="281" viewBox="0 0 281 281">
  <defs>
    <clipPath id="clip-noRecordsFound">
      <rect width="281" height="281"/>
    </clipPath>
  </defs>
  <g id="noRecordsFound" clip-path="url(#clip-noRecordsFound)">
    <g id="Group_7545" data-name="Group 7545" transform="translate(-787.76 -647.588)">
      <g id="Group_7508" data-name="Group 7508" transform="translate(798.481 668.199)">
        <g id="Background_Complete" data-name="Background Complete" transform="translate(10.843)">
          <g id="Group_7492" data-name="Group 7492">
            <path id="Path_15763" data-name="Path 15763" d="M256.053,249.285a7.1,7.1,0,0,1,4.642-1.81,1.956,1.956,0,0,1,1.239.38,20.251,20.251,0,0,1,8.693-2.02,6.617,6.617,0,0,1,3.141.751c3.007-1.969,6.848-3.362,9.629-3.362,1.584,0,1.234-.756,1.584,0,3.09-1.321,7.6-.931,10.158-.931,4.077,0,5.4,2.062,3.738,4.961.668.545,3.886,1.311,3.753,2.221H255.873C255.93,249.414,255.986,249.352,256.053,249.285Z" transform="translate(-109.797 -219.272)" fill="#fafafa"/>
            <path id="Path_15764" data-name="Path 15764" d="M269.536,255.184a1.641,1.641,0,0,1,1.27.488,19,19,0,0,1,9.362-2.648,5.51,5.51,0,0,1,3.244.987h.005c3.352-2.586,7.532-4.416,10.472-4.416,1.676,0,2.668.591,2.966,1.583a22.275,22.275,0,0,1,9.511-2.807c3.352,0,4.833,1.64,4.37,4.159a11.543,11.543,0,0,1,4.493-1.162c1.794,0,2.632.828,2.488,2.128.154,0,.314,0,.463.015,2.735.221,3.784,1.9,2.468,3.815h-55.98A7.268,7.268,0,0,1,269.536,255.184Z" transform="translate(-73.377 -193.878)" fill="#fafafa"/>
            <path id="Path_15765" data-name="Path 15765" d="M231.793,245.37a1.47,1.47,0,0,1,1.136.442,16.877,16.877,0,0,1,8.344-2.365,4.917,4.917,0,0,1,2.889.884h0c2.987-2.308,6.714-3.938,9.336-3.938,1.491,0,2.38.529,2.643,1.408a19.915,19.915,0,0,1,8.477-2.5c2.987,0,4.308,1.46,3.892,3.707a10.254,10.254,0,0,1,4-1.039c1.6,0,2.344.74,2.216,1.9a3.752,3.752,0,0,1,.416.021c2.437.19,3.367,1.686,2.2,3.4H227.459A6.475,6.475,0,0,1,231.793,245.37Z" transform="translate(-227.459 -231.428)" fill="#fafafa"/>
            <path id="Path_15766" data-name="Path 15766" d="M264.3,266.428a2.683,2.683,0,0,1,2.051.8c4.956-2.761,10.549-4.452,15.058-4.267a8.852,8.852,0,0,1,5.213,1.594h.005c5.393-4.159,12.117-7.11,16.847-7.11,2.694,0,4.293.956,4.771,2.55,5.439-2.8,10.95-4.514,15.3-4.514,5.393,0,7.773,2.637,7.033,6.694a18.474,18.474,0,0,1,7.228-1.877c2.879,0,4.226,1.337,3.995,3.424.252,0,.5.01.751.031,4.4.35,6.082,3.048,3.964,6.138H256.471A11.755,11.755,0,0,1,264.3,266.428Z" transform="translate(-107.321 -164.452)" fill="#fafafa"/>
            <path id="Path_15767" data-name="Path 15767" d="M258.723,251.171c1.363.118,2.689.3,4.01.509,1.311.221,2.6.488,3.846.823a24.818,24.818,0,0,1,2.761.91,31.572,31.572,0,0,1,4.714-2.308c1-.4,2.021-.756,3.064-1.069a29.787,29.787,0,0,1,3.172-.792l-2.709,1.434c-.889.478-1.768.946-2.627,1.424s-1.681.977-2.5,1.465-1.568,1.008-2.3,1.522l-.864.617-.92-.406a30.4,30.4,0,0,0-3.218-1.136c-1.136-.35-2.313-.684-3.5-1.013-2.355-.689-4.771-1.332-7.1-2.159A39.847,39.847,0,0,1,258.723,251.171Z" transform="translate(-115.301 -190.271)" fill="#ebebeb"/>
            <path id="Path_15768" data-name="Path 15768" d="M268.055,239.7c1.368.118,2.694.3,4.01.509s2.6.488,3.846.823a24.429,24.429,0,0,1,2.761.91,31.81,31.81,0,0,1,4.714-2.313c1.008-.391,2.02-.756,3.064-1.064a30.1,30.1,0,0,1,3.172-.792l-2.709,1.434c-.889.473-1.768.941-2.622,1.424-.874.468-1.686.977-2.5,1.46-.807.5-1.568,1.008-2.3,1.527l-.869.617-.92-.406a30.358,30.358,0,0,0-3.218-1.136c-1.136-.35-2.313-.684-3.5-1.013-2.354-.689-4.771-1.332-7.1-2.159A39.757,39.757,0,0,1,268.055,239.7Z" transform="translate(-76.661 -237.772)" fill="#ebebeb"/>
            <path id="Path_15769" data-name="Path 15769" d="M230.782,245.507c.828.067,1.635.18,2.437.308s1.578.293,2.339.5a14.227,14.227,0,0,1,1.676.555,19.037,19.037,0,0,1,2.869-1.409c.612-.237,1.229-.458,1.861-.648a17.6,17.6,0,0,1,1.928-.478l-1.645.869c-.54.288-1.074.576-1.6.869s-1.023.591-1.517.884-.956.617-1.4.931l-.53.37-.555-.242a19.7,19.7,0,0,0-1.959-.694c-.689-.211-1.409-.411-2.128-.617-1.429-.416-2.9-.807-4.318-1.311A24.24,24.24,0,0,1,230.782,245.507Z" transform="translate(-224.217 -210.595)" fill="#ebebeb"/>
            <path id="Path_15770" data-name="Path 15770" d="M272.707,245.889c.833.067,1.64.18,2.442.308s1.578.293,2.339.5a15.179,15.179,0,0,1,1.676.55,19.717,19.717,0,0,1,2.864-1.4c.612-.237,1.229-.458,1.866-.648a17.061,17.061,0,0,1,1.928-.478l-1.65.869c-.54.288-1.075.576-1.594.869s-1.023.591-1.522.884-.951.617-1.4.931l-.524.37-.56-.247a19.143,19.143,0,0,0-1.954-.689c-.694-.211-1.409-.411-2.128-.617-1.434-.416-2.9-.807-4.324-1.311A24.077,24.077,0,0,1,272.707,245.889Z" transform="translate(-50.606 -209.013)" fill="#ebebeb"/>
            <path id="Path_15771" data-name="Path 15771" d="M248.008,244.374c.581.051,1.146.129,1.707.216a16.5,16.5,0,0,1,1.64.35,10.178,10.178,0,0,1,1.177.391,13.435,13.435,0,0,1,2-.987c.432-.165.864-.319,1.306-.452a13.321,13.321,0,0,1,1.352-.339l-1.157.612c-.375.2-.751.4-1.116.607s-.72.416-1.064.622-.668.432-.982.653l-.37.257-.391-.17a12.829,12.829,0,0,0-1.368-.483c-.488-.149-.987-.293-1.491-.432-1.008-.293-2.036-.566-3.028-.92A16.8,16.8,0,0,1,248.008,244.374Z" transform="translate(-149.733 -213.841)" fill="#ebebeb"/>
            <path id="Path_15772" data-name="Path 15772" d="M244.908,239.351c.581.051,1.146.129,1.712.216s1.105.211,1.635.355a9.265,9.265,0,0,1,1.177.386,13.434,13.434,0,0,1,2.005-.987c.432-.165.864-.319,1.306-.452a13.32,13.32,0,0,1,1.352-.339l-1.152.612c-.38.206-.756.4-1.121.607s-.715.416-1.064.622-.668.432-.982.653l-.37.262-.391-.175a12.784,12.784,0,0,0-1.368-.483c-.483-.149-.987-.293-1.491-.432-1-.293-2.036-.566-3.028-.92A16.787,16.787,0,0,1,244.908,239.351Z" transform="translate(-162.57 -234.637)" fill="#ebebeb"/>
            <path id="Path_15773" data-name="Path 15773" d="M230.2,298.416c1.028-4.046,5.635-7.172,10.308-6.976a8.017,8.017,0,0,1,4.416,1.45,32.083,32.083,0,0,1,21.967-7.788,24.031,24.031,0,0,1,10.817,2.9c5.12-7.6,13.824-12.991,22.117-12.991a14.161,14.161,0,0,1,11.043,4.653c6.622-5.105,14.487-8.241,22.116-8.241,12.158,0,20.137,7.969,20.826,19.155,3.059,2.108,14.138,5.059,15.536,8.585h-139.3C230.093,298.915,230.14,298.673,230.2,298.416Z" transform="translate(-216.742 -98.432)" fill="#f0f0f0"/>
            <path id="Path_15774" data-name="Path 15774" d="M253.124,295.91a7.477,7.477,0,0,1,4.642,1.856c5.686-6.462,13.788-10.431,22.152-9.994a21.971,21.971,0,0,1,11.31,3.732h.01c4.812-9.742,13.464-16.646,22.014-16.646a14.109,14.109,0,0,1,11.644,5.964c6.514-6.555,14.436-10.57,22.3-10.57,9.742,0,17.176,6.174,20.641,15.675a17.189,17.189,0,0,1,10.837-4.39c5.208,0,9.223,3.125,11.285,8.02a12.857,12.857,0,0,1,1.393.077c8.354.818,14.6,7.141,14.441,14.374H243.073C244.219,299.236,248.553,295.668,253.124,295.91Z" transform="translate(-162.802 -103.277)" fill="#f0f0f0"/>
            <g id="Group_7491" data-name="Group 7491" transform="translate(10.611 45.601)">
              <path id="Path_15775" data-name="Path 15775" d="M275.075,340.537l1.014-21.3-1.971-.889-.8-40.185h-8.153l.2,22.278h-2.624l2.348,16.636-1.777-4.913.462-.24-5.886-20.5-2.152-.208-13.67-37.8-7.721,2.62,7.349,21.032-2.485.843,9.035,17.9,4.858,13.9-.975.044,8.515,21.534,4.572,13.085.667,13.5.142,15.825h9.194l-.658-33.09Z" transform="translate(-209.553 -218.578)" fill="#f0f0f0"/>
              <path id="Path_15776" data-name="Path 15776" d="M268.759,258.126c-8.313-4.653-18.862-1.2-19.967,11.449s-12.4,1.954-18.163,21.448,13.377,26.024,4.138,37.858S230.093,356.3,248.6,352.319s6.349,4.524,25.731,2.391,10.138-26.728,23.659-21.273,32.861,9.269,31.329-5.542c-2.313-22.312,5.413-7.675,8.673-23.648,3.732-18.292-16.461-9.758-21.453-32.99s-19.464-32.7-28.5-16.579C281,267.221,277.6,263.082,268.759,258.126Z" transform="translate(-229.523 -246.642)" fill="#e6e6e6"/>
            </g>
          </g>
        </g>
        <g id="Shadow" transform="translate(0 215.709)">
          <ellipse id="_Path_" data-name="&lt;Path&gt;" cx="129.001" cy="7.534" rx="129.001" ry="7.534" fill="#f5f5f5"/>
        </g>
        <g id="Bucket" transform="translate(96.887 168.454)">
          <g id="Group_7495" data-name="Group 7495">
            <g id="Group_7493" data-name="Group 7493" transform="translate(0.72 15.017)">
              <path id="Path_15777" data-name="Path 15777" d="M275.588,307.02l4.339-33.56H244.336l4.339,33.56a.882.882,0,0,0-.658.848.9.9,0,0,0,.9.894h26.435a.9.9,0,0,0,.895-.894A.882.882,0,0,0,275.588,307.02Z" transform="translate(-244.336 -273.46)" fill="#407bff"/>
              <path id="Path_15778" data-name="Path 15778" d="M275.588,307.02l4.339-33.56H244.336l4.339,33.56a.882.882,0,0,0-.658.848.9.9,0,0,0,.9.894h26.435a.9.9,0,0,0,.895-.894A.882.882,0,0,0,275.588,307.02Z" transform="translate(-244.336 -273.46)" fill="#fff" opacity="0.4"/>
            </g>
            <path id="Path_15779" data-name="Path 15779" d="M279.925,273.46H244.336l.622,4.815,34.626-2.184Z" transform="translate(-243.614 -258.444)" opacity="0.2"/>
            <g id="Group_7494" data-name="Group 7494">
              <path id="Path_15780" data-name="Path 15780" d="M280.044,284.363h-2.365a15.012,15.012,0,0,0-29.931,0h-2.365a1.19,1.19,0,0,0,0,2.38h34.66a1.19,1.19,0,0,0,0-2.38Zm-17.33-13.156A14.358,14.358,0,0,1,277,284.363H248.427A14.358,14.358,0,0,1,262.714,271.207Z" transform="translate(-244.196 -270.539)" fill="#407bff"/>
              <path id="Path_15781" data-name="Path 15781" d="M280.044,284.363h-2.365a15.012,15.012,0,0,0-29.931,0h-2.365a1.19,1.19,0,0,0,0,2.38h34.66a1.19,1.19,0,0,0,0-2.38Zm-17.33-13.156A14.358,14.358,0,0,1,277,284.363H248.427A14.358,14.358,0,0,1,262.714,271.207Z" transform="translate(-244.196 -270.539)" fill="#fff" opacity="0.4"/>
            </g>
          </g>
        </g>
        <g id="Character" transform="translate(4.303 69.098)">
          <g id="Group_7507" data-name="Group 7507">
            <g id="Group_7497" data-name="Group 7497" transform="translate(168.825 103.052)">
              <g id="Group_7496" data-name="Group 7496">
                <rect id="Rectangle_7017" data-name="Rectangle 7017" width="48.117" height="4.234" fill="#407bff"/>
                <rect id="Rectangle_7018" data-name="Rectangle 7018" width="11.744" height="4.234" transform="translate(36.372)" opacity="0.2"/>
                <path id="Path_15782" data-name="Path 15782" d="M264.256,316.026H259.74L296,272.081h4.515Z" transform="translate(-256.068 -267.848)" fill="#263238"/>
                <path id="Path_15783" data-name="Path 15783" d="M296,316.026h4.515l-36.255-43.944H259.74Z" transform="translate(-256.068 -267.848)" fill="#263238"/>
              </g>
            </g>
            <g id="Group_7506" data-name="Group 7506">
              <g id="Group_7505" data-name="Group 7505">
                <path id="Path_15784" data-name="Path 15784" d="M263.217,263.083c3.5-2.6,7.8-5.907,16.842-5.655,11.85.334,7.46,11.762,5.948,11.644Z" transform="translate(-72.847 -225.531)" fill="#407bff"/>
                <path id="Path_15785" data-name="Path 15785" d="M264.087,260.924c.3-1.378,6.961-3.9,12.755-3.259,6.056.663,2.612,4.159,1.65,4.082Z" transform="translate(-69.244 -224.915)" opacity="0.2"/>
                <path id="Path_15786" data-name="Path 15786" d="M279.579,258.713a4.657,4.657,0,0,0-5.259,3.969l-.005.062c-.154,1.116-.354,2.37-.571,3.563-.206,1.208-.437,2.416-.679,3.619-.488,2.411-1.028,4.807-1.635,7.177s-1.3,4.7-2.051,7c-.18.545-.391,1.069-.581,1.6-.411-.771-.823-1.583-1.224-2.421l-.709-1.47-.355-.74-.17-.37c-.051-.051-.005-.134-.159-.154a3.835,3.835,0,0,0-1.116.129l-2.123.432a11.4,11.4,0,0,0-2.334.771,3.575,3.575,0,0,0-.992.565c-.118.118-.026.185-.031.273l.093.488.2.961c.139.643.324,1.27.509,1.9a23.612,23.612,0,0,0,1.542,3.748,18.625,18.625,0,0,0,2.545,3.81,10.5,10.5,0,0,0,2.242,1.938,7.428,7.428,0,0,0,3.8,1.157,4.094,4.094,0,0,0,3.706-2.277l.031-.062a80.393,80.393,0,0,0,3.213-7.408c.915-2.488,1.753-5,2.493-7.516s1.409-5.048,2-7.6c.293-1.275.576-2.55.838-3.835s.5-2.54.735-3.928l.021-.129A4.653,4.653,0,0,0,279.579,258.713Zm-8.657,29.833a.448.448,0,0,1-.159-.087C270.9,288.5,270.968,288.557,270.922,288.546Z" transform="translate(-88.006 -220.339)" fill="#407bff"/>
                <path id="Path_15787" data-name="Path 15787" d="M265.5,265.738l-1.388-3.311-4.221,3.7s1.439,3.234,3.7,2.072Z" transform="translate(-86.62 -204.774)" fill="#ffc3bd"/>
                <path id="Path_15788" data-name="Path 15788" d="M261.869,262.093l-2.462,3.057,2.488,2.357,4.218-3.7Z" transform="translate(-88.624 -206.159)" fill="#ffc3bd"/>
                <path id="Path_15789" data-name="Path 15789" d="M280.809,258.241a61.015,61.015,0,0,0-10.251.586,7.448,7.448,0,0,0-6.164,5.5c-1.774,6.832-4.113,21.145-.648,42.177H292.68c.2-2.586-.4-10.986.046-21.695a152.247,152.247,0,0,1,2.113-19.8l.129-.668a4.605,4.605,0,0,0-4.067-5.455C288.228,258.626,284.7,258.354,280.809,258.241Z" transform="translate(-78.049 -222.211)" fill="#407bff"/>
                <path id="Path_15790" data-name="Path 15790" d="M274.747,266.27c-.812.072-4.149.889-4.946.951l-3.522,4.74c3.907,0,7.819-1.532,8.524-2.514C274.793,268.511,274.768,267.447,274.747,266.27Z" transform="translate(-60.163 -188.86)" opacity="0.2"/>
                <path id="Path_15791" data-name="Path 15791" d="M267.531,258.733h-1.146c-.483.812-1.331,7.357-.447,8.169l1.594-.334S266.678,261.874,267.531,258.733Z" transform="translate(-63.177 -220.071)" fill="#fff"/>
                <path id="Path_15792" data-name="Path 15792" d="M266.992,258.815l-1.167-.108c-.715.735-2.745,6.092-2.252,7.434l1.527.349S265.25,261.745,266.992,258.815Z" transform="translate(-71.687 -220.179)" fill="#fff"/>
                <path id="Path_15793" data-name="Path 15793" d="M267.614,260.841c-.576,2.678.016,9.434,2.54,13.14v-.041c.108-2.57.288-5.157.514-7.665Z" transform="translate(-55.477 -211.342)" opacity="0.2"/>
                <path id="Path_15794" data-name="Path 15794" d="M265.747,263.877l12.935.452a.993.993,0,0,1,.961,1.008c-.036,2.272.118,8.066,2.406,12.672a1,1,0,0,1-.73,1.439c-3.059.468-10.642,1.254-17.479-.972a.959.959,0,0,1-.622-.6c-.889-2.509-.591-9.424,1.63-13.505A.984.984,0,0,1,265.747,263.877Z" transform="translate(-74.775 -198.77)" fill="#fff" opacity="0.2"/>
                <g id="Group_7500" data-name="Group 7500" transform="translate(105.188 84.01)">
                  <path id="Path_15795" data-name="Path 15795" d="M251.795,291.207l-3.351-4.253,8.666-9.221,3.351,4.253Z" transform="translate(-239.211 -225.401)" fill="#ffc3bd"/>
                  <path id="Path_15796" data-name="Path 15796" d="M256.74,283.715l3.763,4.771a.389.389,0,0,1-.041.545l-3.594,3.208a.957.957,0,0,1-1.342-.149c-1.28-1.686-1.81-2.555-3.465-4.653-1.018-1.3-3.887-4.745-5.059-6.694-1.146-1.9.787-3.043,1.455-2.324,3.008,3.224,5.557,4.313,7.444,4.771A1.492,1.492,0,0,1,256.74,283.715Z" transform="translate(-246.648 -223.458)" fill="#263238"/>
                  <g id="Group_7498" data-name="Group 7498" transform="translate(13.431 52.334)">
                    <path id="Path_15797" data-name="Path 15797" d="M257.078,281.989l-3.352-4.255-4.465,4.755,3.352,4.255Z" transform="translate(-249.26 -277.734)" opacity="0.2"/>
                  </g>
                  <g id="Group_7499" data-name="Group 7499" transform="translate(14.447)">
                    <path id="Path_15798" data-name="Path 15798" d="M315.489,267.554s-29.54,4.586-35.3,14.343c-11.346,19.2-30.728,38.264-30.728,38.264l6.431,7.532s31.159-24.533,41.38-40.562c10.38.134,34.738,1.136,37.1-5.264a20.951,20.951,0,0,0-.175-14.22Z" transform="translate(-249.458 -267.554)" fill="#263238"/>
                    <path id="Path_15799" data-name="Path 15799" d="M315.489,267.554s-29.54,4.586-35.3,14.343c-11.346,19.2-30.728,38.264-30.728,38.264l6.431,7.532s31.159-24.533,41.38-40.562c10.38.134,34.738,1.136,37.1-5.264a20.951,20.951,0,0,0-.175-14.22Z" transform="translate(-249.458 -267.554)" opacity="0.3"/>
                  </g>
                  <path id="Path_15800" data-name="Path 15800" d="M255.963,289.438l-6.853-8.7,2.749-3.435,8.453,8.948Z" transform="translate(-236.454 -227.182)" fill="#407bff"/>
                  <path id="Path_15801" data-name="Path 15801" d="M248.568,280.365a6.38,6.38,0,0,0,1.044,1.013.126.126,0,0,0,.134.016.122.122,0,0,0,.067-.118c-.01-.211-.134-2.062-.751-2.421a.467.467,0,0,0-.458-.01.694.694,0,0,0-.442.55A1.441,1.441,0,0,0,248.568,280.365Zm.972.627c-.751-.638-1.167-1.218-1.126-1.573a.445.445,0,0,1,.3-.344.236.236,0,0,1,.226-.005C249.267,279.265,249.462,280.252,249.539,280.992Z" transform="translate(-240.398 -221.033)" fill="#407bff"/>
                  <path id="Path_15802" data-name="Path 15802" d="M248.466,281.167l.046.036a.121.121,0,0,0,.118-.005c.057-.041,1.357-.9,1.429-1.661a.639.639,0,0,0-.19-.53.492.492,0,0,0-.586-.123,2.789,2.789,0,0,0-.843,2.221Zm1.265-1.938a.369.369,0,0,1,.077.283c-.041.452-.715,1.038-1.126,1.342a2.55,2.55,0,0,1,.715-1.743c.067-.031.164-.051.293.077Z" transform="translate(-239.272 -220.843)" fill="#407bff"/>
                </g>
                <g id="Group_7502" data-name="Group 7502" transform="translate(135.571 81.565)">
                  <path id="Path_15803" data-name="Path 15803" d="M260.265,290.993l-5.365-.686,4.754-12.02,5.365.686Z" transform="translate(-242.861 -220.665)" fill="#ffc3bd"/>
                  <path id="Path_15804" data-name="Path 15804" d="M264.451,280.349l6.015.879a.386.386,0,0,1,.339.427l-.406,4.8a.958.958,0,0,1-1.075.818c-2.087-.344-3.069-.617-5.717-1-1.625-.237-7.167-.879-9.413-1.208-2.2-.324-1.856-2.54-.874-2.6,4.4-.278,8.472-.951,10.159-1.918A1.561,1.561,0,0,1,264.451,280.349Z" transform="translate(-252.558 -212.182)" fill="#263238"/>
                  <g id="Group_7501" data-name="Group 7501" transform="translate(14.343 57.624)">
                    <path id="Path_15805" data-name="Path 15805" d="M263.163,278.974l-5.368-.687-2.448,6.2,5.368.686Z" transform="translate(-255.347 -278.287)" opacity="0.2"/>
                  </g>
                  <path id="Path_15806" data-name="Path 15806" d="M305.674,269.524s-40.012-8.719-39.138,6.771c.961,16.96-11.454,51.729-11.454,51.729l9.017,1.671s19.135-26.27,16.965-43.539c8.179,2.694,35.8,7.084,39.143-1.984a26.658,26.658,0,0,0,.956-14.369Z" transform="translate(-242.104 -267.078)" fill="#263238"/>
                  <path id="Path_15807" data-name="Path 15807" d="M266.176,285.213,254.9,283.187l.71-5.071,12.121,2.543Z" transform="translate(-242.861 -221.374)" fill="#407bff"/>
                  <path id="Path_15808" data-name="Path 15808" d="M255.348,281.636a6.6,6.6,0,0,0,1.455.015.116.116,0,0,0,.108-.082.12.12,0,0,0-.031-.134c-.154-.144-1.517-1.4-2.205-1.239a.465.465,0,0,0-.344.308.693.693,0,0,0,.057.7A1.466,1.466,0,0,0,255.348,281.636Zm1.141-.216c-.987.051-1.686-.082-1.9-.365a.457.457,0,0,1-.02-.458.209.209,0,0,1,.165-.154C255.1,280.356,255.924,280.937,256.489,281.42Z" transform="translate(-245.491 -212.816)" fill="#407bff"/>
                  <path id="Path_15809" data-name="Path 15809" d="M255.572,282.51l.057-.005a.128.128,0,0,0,.082-.087c.015-.067.36-1.589-.1-2.19a.646.646,0,0,0-.5-.252.489.489,0,0,0-.509.314,2.8,2.8,0,0,0,.915,2.2Zm-.416-2.277a.38.38,0,0,1,.252.149,2.82,2.82,0,0,1,.1,1.753,2.577,2.577,0,0,1-.679-1.758c.026-.072.082-.154.267-.149Z" transform="translate(-244.285 -213.674)" fill="#407bff"/>
                </g>
                <g id="Group_7504" data-name="Group 7504" transform="translate(0 2.279)">
                  <path id="Path_15810" data-name="Path 15810" d="M238.98,251.656c12.395,5.681,24.646,11.644,36.82,17.772S300.035,281.9,312,288.434q17.929,9.84,35.426,20.446c11.624,7.136,23.062,14.585,34.208,22.487l-1.332,1.84c-11.007-7.969-22.332-15.505-33.853-22.739q-17.358-10.734-35.159-20.749-17.821-9.963-35.971-19.346c-12.1-6.236-24.291-12.323-36.609-18.111Z" transform="translate(-174.338 -251.656)" fill="#263238"/>
                  <path id="Path_15811" data-name="Path 15811" d="M400.75,313.072c-8.992-5.619-18.035-11.156-27.216-16.451q-13.757-7.982-27.736-15.567t-28.137-14.826c-9.439-4.822-18.934-9.547-28.507-14.1l.113-.015a107,107,0,0,0-7.747,8.051c-2.468,2.8-4.786,5.717-7.033,8.693a198.16,198.16,0,0,0-12.359,18.626,248.6,248.6,0,0,0-18.955,40.454,271.886,271.886,0,0,0-11.742,43.112q-2.005,11-3.172,22.137c-.751,7.418-1.188,14.862-1.4,22.317a.163.163,0,0,1-.17.159.166.166,0,0,1-.165-.165V415.5c.221-7.46.663-14.914,1.414-22.343q1.2-11.128,3.2-22.158a271.88,271.88,0,0,1,11.783-43.148,248.462,248.462,0,0,1,19.006-40.48,197.574,197.574,0,0,1,12.385-18.641c2.252-2.977,4.576-5.9,7.048-8.7a105.533,105.533,0,0,1,7.768-8.061.094.094,0,0,1,.113-.015c9.573,4.555,19.063,9.285,28.5,14.117s18.811,9.788,28.126,14.857q13.981,7.573,27.725,15.588c9.182,5.305,18.22,10.853,27.206,16.477a.048.048,0,0,1-.051.082Z" transform="translate(-224.779 -250.486)" fill="#263238"/>
                  <g id="Group_7503" data-name="Group 7503" transform="translate(0 163.515)">
                    <path id="Path_15812" data-name="Path 15812" d="M227.472,283.564a1.962,1.962,0,0,0-1.285,1.882v3.2h3.83v-3.27A1.924,1.924,0,0,0,227.472,283.564Z" transform="translate(-226.187 -283.462)" fill="#407bff"/>
                    <rect id="Rectangle_7019" data-name="Rectangle 7019" width="3.827" height="1.109" transform="translate(0.002 2.885)" fill="#fff" opacity="0.8"/>
                  </g>
                  <path id="Path_15813" data-name="Path 15813" d="M241.9,253.615l-.257.468a.777.777,0,0,1-1.054.309h0a.783.783,0,0,1-.314-1.054l.257-.463a.778.778,0,0,1,1.054-.314h0A.784.784,0,0,1,241.9,253.615Z" transform="translate(-168.229 -248.299)" fill="#263238"/>
                  <path id="Path_15814" data-name="Path 15814" d="M248.834,257.151l-.252.468a.778.778,0,0,1-1.054.309h0a.774.774,0,0,1-.314-1.054l.252-.463a.775.775,0,0,1,1.054-.314h0A.78.78,0,0,1,248.834,257.151Z" transform="translate(-139.506 -233.657)" fill="#263238"/>
                  <path id="Path_15815" data-name="Path 15815" d="M256.106,261.1l-.252.463a.775.775,0,0,1-1.054.314h0a.779.779,0,0,1-.314-1.054l.252-.468a.782.782,0,0,1,1.059-.309h0A.776.776,0,0,1,256.106,261.1Z" transform="translate(-109.388 -217.3)" fill="#263238"/>
                  <path id="Path_15816" data-name="Path 15816" d="M271.684,268.854l-3.018,5.557a.577.577,0,0,1-.833.2l-7.989-5.4a.577.577,0,0,1-.185-.756l3.018-5.552a.577.577,0,0,1,.833-.206l7.989,5.4A.584.584,0,0,1,271.684,268.854Z" transform="translate(-87.873 -206.33)" fill="#263238"/>
                  <path id="Path_15817" data-name="Path 15817" d="M265.341,271.536a.512.512,0,0,1-.3-.093l-5.09-3.434a.53.53,0,0,1-.17-.7l1.918-3.537a.534.534,0,0,1,.771-.19l5.09,3.439a.534.534,0,0,1,.17.7h0l-1.923,3.537a.529.529,0,0,1-.339.262A.6.6,0,0,1,265.341,271.536Zm-3.167-7.712-.046.005a.222.222,0,0,0-.134.1l-1.918,3.537a.2.2,0,0,0,.062.262l5.089,3.439a.192.192,0,0,0,.159.026.2.2,0,0,0,.134-.1l1.918-3.537a.209.209,0,0,0-.062-.267l-5.09-3.434A.186.186,0,0,0,262.174,263.825Zm5.413,3.815Z" transform="translate(-87.34 -202.647)" fill="#263238"/>
                  <path id="Path_15818" data-name="Path 15818" d="M266.8,266.8l-.247.452a.258.258,0,0,1-.375.092l-5.4-3.66a.329.329,0,0,1-.1-.417l.247-.452a.256.256,0,0,1,.375-.092l5.393,3.66A.337.337,0,0,1,266.8,266.8Z" transform="translate(-83.502 -206.001)" fill="#263238"/>
                </g>
                <path id="Path_15819" data-name="Path 15819" d="M269.127,266.252l-3.594.154,2.005,5.239s3.537-.226,3.229-2.75Z" transform="translate(-63.256 -188.935)" fill="#ffc3bd"/>
                <path id="Path_15820" data-name="Path 15820" d="M264.934,269.668l2.013,3.369,3.074-1.517-2.006-5.239Z" transform="translate(-65.737 -188.811)" fill="#ffc3bd"/>
                <path id="Path_15821" data-name="Path 15821" d="M276.373,255.539l-3.29,2.725-4.478,3.722a15.17,15.17,0,0,1,.283,1.81c.242,2.432-.452,4.833-4.03,5.681,0,0-2.8.982,4.236,1.08s8.035-.925,8.035-.925C274.45,266.988,275.463,259.5,276.373,255.539Z" transform="translate(-68.328 -233.297)" fill="#ffc3bd"/>
                <path id="Path_15822" data-name="Path 15822" d="M265.144,259.791a15.157,15.157,0,0,1,.283,1.81c1.671-.334,3.907-2.113,4.138-3.82a7.665,7.665,0,0,0,.057-1.712Z" transform="translate(-64.867 -231.103)" opacity="0.2"/>
                <path id="Path_15823" data-name="Path 15823" d="M267.11,263.871c-2.56-.581-3.789-4.689-2.869-7.825,1.213-4.159,5.321-3.887,8.441-1.46C276.533,257.589,271.078,264.771,267.11,263.871Z" transform="translate(-69.866 -244.529)" fill="#263238"/>
                <path id="Path_15824" data-name="Path 15824" d="M279.827,261.43c-1.141,5.259-1.542,8.39-4.653,10.791a7,7,0,0,1-11.32-5.038c-.406-4.9,1.532-12.678,7.064-14.169A7.08,7.08,0,0,1,279.827,261.43Z" transform="translate(-70.424 -244.89)" fill="#ffc3bd"/>
                <path id="Path_15825" data-name="Path 15825" d="M267.635,262.8c-2.3-1.26-1.614-7.275-.612-8.308s6.19-2.278,8.518.915C278.421,259.34,271.2,264.749,267.635,262.8Z" transform="translate(-60.942 -242.337)" fill="#263238"/>
                <path id="Path_15826" data-name="Path 15826" d="M279.66,263.584c-3.244.812-2.684-1.974-8.39-1.352-4.226.463-7.753-2.591-7.665-6.174.108-4.4,6.066-6.714,9.259-2.971s5.743,6.642,10.925,6.215c4.036-.334,4.385,5.825-.052,6.354A4.522,4.522,0,0,1,279.66,263.584Z" transform="translate(-71.245 -251.213)" fill="#263238"/>
                <path id="Path_15827" data-name="Path 15827" d="M270.123,257.79a7.236,7.236,0,0,1-3.959-1.152,5.95,5.95,0,0,1-2.709-4.1.168.168,0,0,1,.139-.19.175.175,0,0,1,.19.144,5.546,5.546,0,0,0,2.565,3.871,7.116,7.116,0,0,0,5.8.818.164.164,0,0,1,.206.113.167.167,0,0,1-.113.206A7.949,7.949,0,0,1,270.123,257.79Z" transform="translate(-71.871 -246.524)" fill="#263238"/>
                <path id="Path_15828" data-name="Path 15828" d="M270.61,257.726a4.812,4.812,0,0,1-2.586,2.2c-1.434.478-2.082-.807-1.63-2.216.406-1.275,1.64-3.054,3.049-2.92C270.836,254.919,271.315,256.446,270.61,257.726Z" transform="translate(-60.278 -236.425)" fill="#ffc3bd"/>
                <path id="Path_15829" data-name="Path 15829" d="M266,255.205c-.067.432-.35.756-.632.72s-.458-.411-.391-.843.35-.756.632-.72S266.069,254.773,266,255.205Z" transform="translate(-65.607 -238.182)" fill="#263238"/>
                <path id="Path_15830" data-name="Path 15830" d="M265.055,255.092c-.067.432-.355.751-.637.72s-.457-.411-.391-.843.35-.756.632-.72S265.116,254.66,265.055,255.092Z" transform="translate(-69.554 -238.65)" fill="#263238"/>
                <path id="Path_15831" data-name="Path 15831" d="M266.153,254.444a13.982,13.982,0,0,1-2.046,3.08,2.116,2.116,0,0,0,1.743.422Z" transform="translate(-69.161 -237.832)" fill="#ed847e"/>
                <path id="Path_15832" data-name="Path 15832" d="M264.928,256.314a3.73,3.73,0,0,0,2.848-.74.129.129,0,0,0,.015-.18.135.135,0,0,0-.185-.01,3.594,3.594,0,0,1-3.115.586.122.122,0,0,0-.154.093.124.124,0,0,0,.092.154A3.565,3.565,0,0,0,264.928,256.314Z" transform="translate(-68.23 -234.072)" fill="#263238"/>
                <path id="Path_15833" data-name="Path 15833" d="M267.507,255.04a.334.334,0,0,0,.113-.057.265.265,0,0,0,.021-.365,2.482,2.482,0,0,0-2.154-.848.259.259,0,0,0-.211.3.257.257,0,0,0,.3.206,1.972,1.972,0,0,1,1.681.684A.266.266,0,0,0,267.507,255.04Z" transform="translate(-64.331 -240.69)" fill="#263238"/>
                <path id="Path_15834" data-name="Path 15834" d="M264.051,254.685a.256.256,0,0,0,.231-.051,2.135,2.135,0,0,1,1.83-.493.255.255,0,0,0,.314-.18.259.259,0,0,0-.175-.314h-.005a2.633,2.633,0,0,0-2.288.6.254.254,0,0,0-.036.36A.263.263,0,0,0,264.051,254.685Z" transform="translate(-70.165 -241.384)" fill="#263238"/>
                <path id="Path_15835" data-name="Path 15835" d="M286.76,279.128a34.232,34.232,0,0,0-1.892-6.5,57.687,57.687,0,0,0-2.678-5.814c-.494-.936-1.008-1.851-1.542-2.756l-.817-1.357c-.288-.463-.545-.874-.895-1.4l-.108-.154a4.66,4.66,0,0,0-7.526,5.5h.005c.206.288.494.7.735,1.064l.751,1.146c.494.771.972,1.558,1.429,2.349a50.753,50.753,0,0,1,2.478,4.807,25.942,25.942,0,0,1,1.64,4.745,9.146,9.146,0,0,1,.231,3.28,19.033,19.033,0,0,1-2.144,2.54,26.7,26.7,0,0,1-3.27,2.761c-1.172.854-2.4,1.666-3.661,2.447-.622.4-1.265.771-1.9,1.152-.319.19-.642.375-.961.555l-.473.257c-.072.062-.18.031-.206.2a1.5,1.5,0,0,0,.015.386,2.9,2.9,0,0,0,.062.334c.031.134.062.272.1.4l1.074,3.419a2.955,2.955,0,0,0,.488.92,3.857,3.857,0,0,1,.247.35,2.551,2.551,0,0,0,.206.283,1.214,1.214,0,0,0,.3.273c.165.092.247-.015.365-.031l.648-.211c.432-.144.848-.3,1.27-.453.833-.313,1.64-.679,2.447-1.054a32.451,32.451,0,0,0,4.621-2.715,36.765,36.765,0,0,0,4.252-3.46,30.584,30.584,0,0,0,3.779-4.236,3.6,3.6,0,0,0,.463-.869l.052-.149a13.231,13.231,0,0,0,.73-4.252A19.8,19.8,0,0,0,286.76,279.128Z" transform="translate(-61.539 -217.99)" fill="#407bff"/>
              </g>
            </g>
          </g>
        </g>
      </g>
    </g>
  </g>
</svg>
