<svg xmlns="http://www.w3.org/2000/svg" xmlns:xlink="http://www.w3.org/1999/xlink" width="64" height="64" viewBox="0 0 64 64">
  <defs>
    <clipPath id="clip-p2p99">
      <rect width="64" height="64"/>
    </clipPath>
  </defs>
  <g id="p2p99" clip-path="url(#clip-p2p99)">
    <circle id="Ellipse_974" data-name="Ellipse 974" cx="24" cy="24" r="24" transform="translate(8 8)" fill="#fff"/>
    <path id="Union_334" data-name="Union 334" d="M21.793,14.56V11.174H20.375a5.046,5.046,0,0,1-1.58-.224,3.239,3.239,0,0,1-1.137-.624,2.572,2.572,0,0,1-.689-.956,3.373,3.373,0,0,1-.014-2.425,2.4,2.4,0,0,1,.666-.93,3.155,3.155,0,0,1,1.133-.6A5.455,5.455,0,0,1,20.375,5.2h2.968v9.36ZM19.451,6.51a1.735,1.735,0,0,0-.653.348,1.434,1.434,0,0,0-.388.552,1.99,1.99,0,0,0-.129.735,2.049,2.049,0,0,0,.132.753,1.494,1.494,0,0,0,.394.575,1.811,1.811,0,0,0,.656.368,2.921,2.921,0,0,0,.912.13h1.417V6.39H20.375A3.182,3.182,0,0,0,19.451,6.51ZM6.675,14.56v-.73a1.3,1.3,0,0,1,.09-.46,1.224,1.224,0,0,1,.29-.44l4.48-4.49q.57-.57,1.014-1.09a7.861,7.861,0,0,0,.76-1.04,4.725,4.725,0,0,0,.48-1.055,3.8,3.8,0,0,0,.166-1.125,2.677,2.677,0,0,0-.175-1.005,1.912,1.912,0,0,0-1.21-1.149,2.866,2.866,0,0,0-.935-.146,2.813,2.813,0,0,0-.905.14,2.545,2.545,0,0,0-.74.39,2.237,2.237,0,0,0-.54.595,2.584,2.584,0,0,0-.315.755,1.013,1.013,0,0,1-.385.55,1,1,0,0,1-.685.06l-1.13-.2A5.4,5.4,0,0,1,7.5,2.33,4.252,4.252,0,0,1,8.545,1.045,4.421,4.421,0,0,1,9.99.266,5.658,5.658,0,0,1,11.755,0,5.257,5.257,0,0,1,13.52.285a4.1,4.1,0,0,1,1.391.81,3.682,3.682,0,0,1,.914,1.274,4.15,4.15,0,0,1,.33,1.69,4.507,4.507,0,0,1-.235,1.48,5.992,5.992,0,0,1-.635,1.3,9.014,9.014,0,0,1-.935,1.205q-.535.585-1.125,1.185L9.745,12.79a7.856,7.856,0,0,1,.865-.19,5.187,5.187,0,0,1,.825-.07h4.23a.732.732,0,0,1,.55.205.72.72,0,0,1,.2.525v1.3ZM0,14.56V5.2H2.912A5.247,5.247,0,0,1,4.5,5.414a3.067,3.067,0,0,1,1.111.6,2.4,2.4,0,0,1,.653.93A3.43,3.43,0,0,1,6.253,9.37a2.578,2.578,0,0,1-.676.956,3.175,3.175,0,0,1-1.115.624,4.863,4.863,0,0,1-1.55.224H1.521V14.56ZM1.521,9.971H2.912a2.816,2.816,0,0,0,.894-.13,1.776,1.776,0,0,0,.644-.368A1.5,1.5,0,0,0,4.836,8.9a2.068,2.068,0,0,0,.131-.753,2.009,2.009,0,0,0-.127-.735,1.427,1.427,0,0,0-.381-.552,1.681,1.681,0,0,0-.64-.348,3.063,3.063,0,0,0-.906-.12H1.521Z" transform="translate(20 25)" stroke="rgba(0,0,0,0)" stroke-miterlimit="10" stroke-width="1"/>
  </g>
</svg>
