<svg xmlns="http://www.w3.org/2000/svg" xmlns:xlink="http://www.w3.org/1999/xlink" width="64" height="64" viewBox="0 0 64 64">
  <defs>
    <clipPath id="clip-payBill99">
      <rect width="64" height="64"/>
    </clipPath>
  </defs>
  <g id="payBill99" clip-path="url(#clip-payBill99)">
    <circle id="Ellipse_975" data-name="Ellipse 975" cx="24" cy="24" r="24" transform="translate(8 8)" fill="#fff"/>
    <path id="Union_335" data-name="Union 335" d="M14.53,22.408a.444.444,0,0,1-.372-.214.552.552,0,0,1-.058-.461,1.083,1.083,0,0,0-.32-1.153.84.84,0,0,0-1.084,0,1.081,1.081,0,0,0-.319,1.153.556.556,0,0,1-.058.461.444.444,0,0,1-.372.214H9.965a.442.442,0,0,1-.372-.214.556.556,0,0,1-.059-.461,1.082,1.082,0,0,0-.319-1.153.841.841,0,0,0-1.085,0,1.084,1.084,0,0,0-.319,1.153.552.552,0,0,1-.058.461.444.444,0,0,1-.372.214H5.4a.445.445,0,0,1-.373-.214.552.552,0,0,1-.058-.461,1.082,1.082,0,0,0-.319-1.153.841.841,0,0,0-1.085,0,1.082,1.082,0,0,0-.319,1.153.552.552,0,0,1-.058.461.444.444,0,0,1-.372.214H0V0H2.818A.444.444,0,0,1,3.19.214a.554.554,0,0,1,.058.462,1.081,1.081,0,0,0,.319,1.152.841.841,0,0,0,1.085,0A1.082,1.082,0,0,0,4.97.675.552.552,0,0,1,5.027.214.445.445,0,0,1,5.4,0H7.383a.444.444,0,0,1,.372.214.554.554,0,0,1,.058.462,1.082,1.082,0,0,0,.319,1.152.84.84,0,0,0,1.085,0A1.082,1.082,0,0,0,9.535.675.556.556,0,0,1,9.593.214.442.442,0,0,1,9.965,0h1.983a.443.443,0,0,1,.372.214.557.557,0,0,1,.058.462A1.08,1.08,0,0,0,12.7,1.828a.84.84,0,0,0,1.084,0A1.083,1.083,0,0,0,14.1.675a.552.552,0,0,1,.058-.461A.444.444,0,0,1,14.53,0h2.818V22.408Zm.535-1.014h1.37V1.014h-1.37a1.935,1.935,0,0,1-1.825,2.029,1.935,1.935,0,0,1-1.826-2.029H10.5A1.935,1.935,0,0,1,8.673,3.043,1.936,1.936,0,0,1,6.847,1.014H5.935A1.935,1.935,0,0,1,4.109,3.043,1.936,1.936,0,0,1,2.282,1.014H.913v20.38H2.282a1.936,1.936,0,0,1,1.826-2.029,1.935,1.935,0,0,1,1.826,2.029h.913a1.935,1.935,0,0,1,1.826-2.028A1.935,1.935,0,0,1,10.5,21.394h.913a1.935,1.935,0,0,1,1.826-2.028A1.935,1.935,0,0,1,15.064,21.394ZM4.137,17.372v-1.2h5.911v1.2Zm0-3v-1.2h5.911v1.2Zm0-3.595v-1.2H14.187v1.2Zm0-2.994v-1.2H14.187v1.2Z" transform="translate(23 21)"/>
  </g>
</svg>
