<svg xmlns="http://www.w3.org/2000/svg" xmlns:xlink="http://www.w3.org/1999/xlink" width="64" height="64" viewBox="0 0 64 64">
  <defs>
    <clipPath id="clip-reqMoney99">
      <rect width="64" height="64"/>
    </clipPath>
  </defs>
  <g id="reqMoney99" clip-path="url(#clip-reqMoney99)">
    <circle id="Ellipse_973" data-name="Ellipse 973" cx="24" cy="24" r="24" transform="translate(8 8)" fill="#fff"/>
    <path id="Union_333" data-name="Union 333" d="M12.445,19.865H3a3,3,0,0,1-3-3V3A3,3,0,0,1,3,0H17a3,3,0,0,1,3,3V16.865a3,3,0,0,1-1.333,2.493V24.5ZM1.333,4.325V15.54a3,3,0,0,0,3,3H15.666a3,3,0,0,0,3-3V4.325a3,3,0,0,0-3-3H4.333A3,3,0,0,0,1.333,4.325Zm8.977,8.667V6.516h2.463a3.608,3.608,0,0,1,1.333.236A2.912,2.912,0,0,1,15.8,8.438a3.787,3.787,0,0,1,0,2.631,2.914,2.914,0,0,1-1.691,1.686,3.608,3.608,0,0,1-1.333.237Zm1.064-.85h1.4a2.429,2.429,0,0,0,.905-.161,1.858,1.858,0,0,0,.686-.471,2.086,2.086,0,0,0,.435-.751,3.409,3.409,0,0,0,0-2.008A2.056,2.056,0,0,0,14.365,8a1.9,1.9,0,0,0-.686-.471,2.393,2.393,0,0,0-.905-.164h-1.4Zm-2.716.85a.917.917,0,0,1-.17-.013.455.455,0,0,1-.122-.041.337.337,0,0,1-.09-.068.535.535,0,0,1-.07-.09L6.168,10.307a.761.761,0,0,0-.091-.1.4.4,0,0,0-.106-.068.549.549,0,0,0-.138-.039,1.325,1.325,0,0,0-.182-.011H5.262v2.9H4.2V6.516H5.262v2.77h.3a.713.713,0,0,0,.281-.048.536.536,0,0,0,.194-.15L8.015,6.749a.63.63,0,0,1,.215-.182.669.669,0,0,1,.279-.051h.905L7.082,9.25a1.633,1.633,0,0,1-.184.2.792.792,0,0,1-.192.128.855.855,0,0,1,.244.138,1.168,1.168,0,0,1,.213.231l2.417,3.049Z" transform="translate(22 20)"/>
  </g>
</svg>
