<svg xmlns="http://www.w3.org/2000/svg" xmlns:xlink="http://www.w3.org/1999/xlink" width="32" height="32" viewBox="0 0 32 32">
  <defs>
    <clipPath id="clip-send">
      <rect width="32" height="32"/>
    </clipPath>
  </defs>
  <g id="send" clip-path="url(#clip-send)">
    <path id="Union_335" data-name="Union 335" d="M-6766.417-4711.7l-6.414-6.414a1.359,1.359,0,0,1,0-1.924,1.359,1.359,0,0,1,1.924,0l4.091,4.09V-4731.9a1.36,1.36,0,0,1,1.361-1.362,1.361,1.361,0,0,1,1.36,1.362v15.955l4.092-4.09a1.359,1.359,0,0,1,1.924,0,1.359,1.359,0,0,1,0,1.924l-6.414,6.414a1.359,1.359,0,0,1-.962.4A1.359,1.359,0,0,1-6766.417-4711.7Zm13.511-5.137v-15.955l-4.09,4.091a1.364,1.364,0,0,1-1.926,0,1.362,1.362,0,0,1,0-1.924l6.416-6.414a1.358,1.358,0,0,1,1.922,0l6.416,6.414a1.362,1.362,0,0,1,0,1.924,1.362,1.362,0,0,1-1.924,0l-4.091-4.091v15.957a1.36,1.36,0,0,1-1.36,1.36A1.363,1.363,0,0,1-6752.906-4716.836Z" transform="translate(6774.23 4740.437)"/>
  </g>
</svg>
