<?xml version="1.0" encoding="utf-8"?>
<!-- Generator: Adobe Illustrator 22.1.0, SVG Export Plug-In . SVG Version: 6.00 Build 0)  -->
<svg version="1.1" id="Layer_1" xmlns="http://www.w3.org/2000/svg" xmlns:xlink="http://www.w3.org/1999/xlink" x="0px" y="0px"
	 viewBox="0 0 100 100" style="enable-background:new 0 0 100 100;" xml:space="preserve">
<style type="text/css">
	.st0{fill:#00C0F7;}
</style>
<path id="twitter" class="st0" d="M50,2.5C23.8,2.5,2.5,23.8,2.5,50S23.8,97.5,50,97.5S97.5,76.2,97.5,50l0,0
	c0-26.2-21.2-47.5-47.4-47.5C50.1,2.5,50,2.5,50,2.5z M77.5,34.8c-0.9,0.9-1.9,1.6-2.9,2.5c-0.3,0-0.3,0.3-0.3,0.6
	c0.2,6.3-1.2,12.5-4.1,18.1c-3.6,7.2-9.7,12.8-17.1,15.8c-5,2.2-10.4,3.2-15.8,2.8c-4.6-0.2-9.1-1.3-13.3-3.2
	c-1.6-0.6-2.9-1.6-4.4-2.2V69c6.5,0.7,13.1-1.1,18.4-5.1c-5.3-0.3-9.9-3.8-11.7-8.9c1.9,0.4,3.9,0.3,5.7-0.3
	c-2.8-0.7-5.4-2.2-7.3-4.4c-1.9-2.2-2.9-5-2.9-7.9c1.7,1,3.7,1.5,5.7,1.6c-2.7-1.7-4.5-4.5-5.1-7.6c-0.7-3.1-0.2-6.4,1.3-9.2
	c6.3,7.8,15.6,12.5,25.6,13c0-0.6-0.3-1.6-0.3-2.2c-0.2-2.7,0.5-5.4,2.2-7.6c2.6-4,7.3-6.1,12-5.4c2.7,0.3,5.1,1.5,7,3.5
	c0.3,0.2,0.6,0.4,0.9,0.3c2.3-0.6,4.5-1.4,6.6-2.5c0.3,0,0.3-0.3,0.6-0.3c-0.4,1.4-1,2.7-1.9,3.8c-0.8,1.2-1.9,2.2-3.2,2.9
	c2.3-0.3,4.5-1,6.6-1.9l0,0C79.6,32.2,78.7,33.6,77.5,34.8z"/>
</svg>
