<?xml version="1.0" standalone="no"?>
<!DOCTYPE svg PUBLIC "-//W3C//DTD SVG 1.1//EN" "http://www.w3.org/Graphics/SVG/1.1/DTD/svg11.dtd" >
<svg xmlns="http://www.w3.org/2000/svg">
<metadata></metadata>
<defs>
<font id="gillsans_condensedbold" horiz-adv-x="1067" >
<font-face units-per-em="2048" ascent="1638" descent="-410" />
<missing-glyph horiz-adv-x="682" />
<glyph horiz-adv-x="0" />
<glyph unicode="&#xd;" horiz-adv-x="682" />
<glyph unicode=" "  horiz-adv-x="682" />
<glyph unicode="&#x09;" horiz-adv-x="682" />
<glyph unicode="&#xa0;" horiz-adv-x="682" />
<glyph unicode="!" horiz-adv-x="555" d="M117 142q0 65 48 113q48 49 116 49q65 0 113 -49q49 -48 49 -113q0 -68 -49 -116q-48 -48 -113 -48q-68 0 -116 48t-48 116zM121 1178q0 236 167 236q164 0 164 -236q0 -127 -39 -368q-42 -266 -93 -404h-76q-48 135 -88 392q-35 241 -35 380z" />
<glyph unicode="&#x22;" horiz-adv-x="971" d="M112 1203v254h305v-254l-51 -274h-203zM563 1203v254h305v-254l-51 -274h-203z" />
<glyph unicode="#" horiz-adv-x="1366" d="M70 329v215h213l57 272h-270v215h318l81 368h213l-81 -368h331l81 368h213l-81 -368h165v-215h-213l-57 -272h270v-215h-318l-81 -373h-213l81 373h-331l-81 -373h-213l81 373h-165zM496 544h331l57 272h-331z" />
<glyph unicode="$" horiz-adv-x="1044" d="M69 954q0 157 111 265q112 108 276 122v64h144v-60q178 -7 303 -62v-230q-82 32 -149 50q-67 19 -154 19v-329q170 -56 273 -162q104 -106 104 -256q0 -166 -109 -273q-109 -106 -268 -113v-219h-144v208q-224 10 -372 80v240q78 -39 175 -68q98 -29 197 -29v341 q-387 135 -387 412zM322 979q0 -87 134 -138v266q-134 -27 -134 -128zM600 220q124 34 124 130q0 72 -124 134v-264z" />
<glyph unicode="%" horiz-adv-x="1516" d="M32 1042q0 372 283 372q282 0 282 -372q0 -367 -283 -367q-282 0 -282 367zM245 1043q0 -123 17 -172t55 -49q36 0 51 50q16 50 16 169q0 133 -17 179q-16 47 -50 47q-35 0 -54 -46q-18 -45 -18 -178zM256 -51l783 1501h193l-768 -1501h-208zM907 360q0 372 283 372 q282 0 282 -372q0 -367 -283 -367q-282 0 -282 367zM1120 361q0 -121 18 -171t54 -50q30 0 48 41q19 42 19 178q0 106 -14 166q-13 60 -53 60q-38 0 -55 -56t-17 -168z" />
<glyph unicode="&#x26;" horiz-adv-x="1237" d="M35 374q0 253 290 429q-82 167 -82 270q0 145 89 243q90 98 256 98q141 0 232 -91q92 -90 92 -224q0 -172 -221 -336l122 -201q48 77 85 170h263q-23 -79 -82 -201t-120 -202l202 -329h-337l-66 111q-143 -133 -323 -133q-175 0 -288 113q-112 114 -112 283zM313 401 q0 -68 45 -114q46 -45 109 -45q87 0 160 84l-185 280q-129 -105 -129 -205zM496 1121q0 -62 75 -161q118 89 118 151q0 48 -27 75q-27 28 -70 28q-44 0 -70 -27q-26 -26 -26 -66z" />
<glyph unicode="'" horiz-adv-x="487" d="M96 1203v254h305v-254l-51 -274h-203z" />
<glyph unicode="(" horiz-adv-x="725" d="M122 464q0 -470 379 -947h209q-157 197 -214 428q-58 231 -58 526q0 286 52 499t220 441h-209q-379 -459 -379 -947z" />
<glyph unicode=")" horiz-adv-x="725" d="M15 -483q157 197 214 428q58 231 58 526q0 286 -52 499t-220 441h209q379 -459 379 -947q0 -470 -379 -947h-209z" />
<glyph unicode="*" horiz-adv-x="1024" d="M76 850q0 24 28 30l332 64v33l-309 64q-51 12 -51 38q0 20 47 105q47 86 73 86q14 0 36 -24l221 -232l39 20l-97 305q-10 33 -10 38q0 37 121 37q118 0 118 -38q0 -11 -8 -35l-99 -309l34 -18l223 228q29 28 40 28q26 0 84 -112q35 -66 35 -87q0 -25 -28 -30l-332 -64 v-34l309 -63q51 -13 51 -38q0 -21 -48 -106q-47 -85 -72 -85q-15 0 -37 24l-220 232l-39 -20l96 -306q11 -33 11 -37q0 -37 -121 -37q-118 0 -118 38q0 10 7 34l100 310l-34 18l-224 -228q-29 -28 -39 -28q-25 0 -85 111q-34 65 -34 88z" />
<glyph unicode="+" horiz-adv-x="1366" d="M128 558v248h432v432h248v-432h432v-248h-432v-432h-248v432h-432z" />
<glyph unicode="," horiz-adv-x="555" d="M112 155q0 68 47 114t117 46q88 0 140 -66t52 -170q0 -298 -346 -388v51q92 81 107 253q-117 48 -117 160z" />
<glyph unicode="-" horiz-adv-x="705" d="M80 335v275h544v-275h-544z" />
<glyph unicode="." horiz-adv-x="555" d="M112 144q0 65 48 113q48 49 116 49q65 0 113 -49q49 -48 49 -113q0 -68 -49 -116q-48 -48 -113 -48q-68 0 -116 48t-48 116z" />
<glyph unicode="/" horiz-adv-x="575" d="M10 -22l335 1414h209l-335 -1414h-209z" />
<glyph unicode="0" d="M74 690q0 373 124 548q124 176 343 176q220 0 339 -187q120 -187 120 -537q0 -348 -118 -530t-356 -182q-204 0 -328 173q-124 174 -124 539zM392 689q0 -272 31 -371q32 -98 119 -98q80 0 110 105t30 364q0 267 -31 375t-112 108q-84 0 -116 -100q-31 -100 -31 -383z " />
<glyph unicode="1" d="M384 0v1392h318v-1392h-318z" />
<glyph unicode="2" d="M35 0v22q126 133 314 445q209 351 209 482q0 87 -57 147q-57 61 -141 61q-140 0 -285 -95v250q180 102 364 102q173 0 292 -104q120 -104 120 -278q0 -154 -69 -303q-68 -149 -281 -453h434v-276h-900z" />
<glyph unicode="3" d="M104 49v249q147 -78 278 -78q103 0 168 53q66 54 66 140q0 196 -272 196v230h31q94 0 152 45q59 46 59 120q0 78 -56 123t-144 45q-107 0 -262 -78v254q63 20 146 43q84 23 180 23q196 0 325 -102q129 -101 129 -277q0 -201 -213 -295q243 -90 243 -342q0 -184 -138 -302 t-355 -118q-133 0 -337 71z" />
<glyph unicode="4" d="M40 355v228l549 831h283v-844h124v-215h-124v-355h-293v355h-539zM253 570h326v492z" />
<glyph unicode="5" d="M124 34v248q128 -62 252 -62q112 0 178 56q67 57 67 143q0 89 -72 142q-71 53 -201 53q-79 0 -164 -13v791h720v-276h-447v-275q214 0 348 -114q134 -113 134 -307q0 -180 -134 -311q-133 -131 -394 -131q-157 0 -287 56z" />
<glyph unicode="6" d="M79 472q0 132 52 264q53 133 162 313l221 365h327l-320 -530q32 8 83 8q171 0 281 -122t110 -317q0 -219 -137 -347q-136 -128 -307 -128q-222 0 -347 137q-125 138 -125 357zM387 451q0 -105 43 -168t117 -63q67 0 111 56t44 168q0 221 -155 221q-160 0 -160 -214z" />
<glyph unicode="7" d="M64 1116v276h912v-61l-490 -1353l-278 113l381 1025h-525z" />
<glyph unicode="8" d="M64 384q0 118 63 201q64 83 178 136q-83 37 -138 118q-55 82 -55 191q0 172 123 278t295 106t292 -109t120 -277q0 -212 -193 -309q241 -100 241 -336q0 -159 -124 -282t-328 -123q-236 0 -355 119q-119 120 -119 287zM382 395q0 -221 147 -221q143 0 143 219 q0 108 -40 165q-39 58 -100 58q-150 0 -150 -221zM410 1018q0 -217 123 -217q111 0 111 215q0 202 -115 202q-119 0 -119 -200z" />
<glyph unicode="9" d="M74 939q0 211 132 343q133 132 312 132q221 0 346 -138q126 -137 126 -350q0 -137 -51 -269q-51 -131 -164 -313l-220 -366h-327l320 530q-33 -8 -83 -8q-184 0 -288 126q-103 127 -103 313zM367 948q0 -113 41 -167t114 -54q80 0 120 56t40 158q0 112 -46 171 q-46 60 -114 60q-74 0 -115 -62q-40 -62 -40 -162z" />
<glyph unicode=":" horiz-adv-x="555" d="M112 144q0 65 48 113q48 49 116 49q65 0 113 -49q49 -48 49 -113q0 -68 -49 -116q-48 -48 -113 -48q-68 0 -116 48t-48 116zM112 760q0 65 48 113q48 49 116 49q65 0 113 -49q49 -48 49 -113q0 -68 -49 -116q-48 -48 -113 -48q-68 0 -116 48t-48 116z" />
<glyph unicode=";" horiz-adv-x="555" d="M112 155q0 68 47 114t117 46q88 0 140 -66t52 -170q0 -298 -346 -388v51q92 81 107 253q-117 48 -117 160zM112 760q0 65 48 113q48 49 116 49q65 0 113 -49q49 -48 49 -113q0 -68 -49 -116q-48 -48 -113 -48q-68 0 -116 48t-48 116z" />
<glyph unicode="&#x3c;" horiz-adv-x="1366" d="M122 566l1120 -464v267l-779 309l779 310v267l-1120 -464v-225z" />
<glyph unicode="=" horiz-adv-x="1366" d="M128 319v248h1120v-248h-1120zM128 807v248h1120v-248h-1120z" />
<glyph unicode="&#x3e;" horiz-adv-x="1366" d="M124 102v267l779 309l-779 310v267l1120 -464v-225z" />
<glyph unicode="?" horiz-adv-x="725" d="M61 1149l61 242q80 23 164 23q163 0 265 -89q103 -88 103 -236q0 -111 -77 -233l-139 -203q-76 -115 -76 -205q0 -21 -4 -48h-72q-77 119 -77 234q0 105 64 242q65 137 65 194q0 51 -34 90q-33 40 -89 40q-64 0 -129 -51h-25zM168 142q0 65 48 113q48 49 116 49 q65 0 113 -49q49 -48 49 -113q0 -68 -49 -116q-48 -48 -113 -48q-68 0 -116 48t-48 116z" />
<glyph unicode="@" horiz-adv-x="1997" d="M208 491q0 380 224 640q224 261 608 261q335 0 534 -207q200 -206 200 -536q0 -295 -181 -475q-180 -180 -349 -180q-124 0 -152 112q-120 -112 -243 -112q-163 0 -251 129t-88 301q0 236 124 437q125 201 307 201q130 0 238 -144l22 108h195l-122 -767q-6 -42 -6 -61 q0 -37 41 -37q88 0 191 138q104 139 104 355q0 272 -155 420q-154 148 -389 148q-334 0 -506 -209t-172 -518t180 -501q181 -192 472 -192q272 0 516 182h224q-122 -163 -330 -258q-208 -94 -410 -94q-349 0 -588 246q-238 247 -238 613zM734 375q0 -225 133 -225 q49 0 95 36q47 36 67 90q79 201 79 422q0 190 -130 190q-111 0 -178 -157q-66 -156 -66 -356z" />
<glyph unicode="A" horiz-adv-x="1087" d="M0 1414zM10 0l368 1399h327l368 -1399h-308l-65 290h-315l-67 -290h-308zM430 517h223l-112 510zM533 1494zM915 0z" />
<glyph unicode="B" horiz-adv-x="1153" d="M134 0v1392h470q192 0 300 -102t108 -246q0 -195 -189 -289q239 -104 239 -345q0 -175 -124 -293q-124 -117 -329 -117h-475zM452 227h103q189 0 189 185q0 190 -172 190h-120v-375zM452 829h72q170 0 170 165q0 171 -172 171h-70v-336z" />
<glyph unicode="C" d="M74 685q0 333 155 531t413 198q176 0 314 -80v-272q-150 88 -238 88q-146 0 -234 -113t-88 -345q0 -217 81 -334q82 -116 225 -116q111 0 270 120v-278q-133 -106 -319 -106q-272 0 -426 201q-153 202 -153 506zM611 0zM649 1494z" />
<glyph unicode="D" horiz-adv-x="1237" d="M0 1414zM134 0v1392h419q294 0 448 -194q155 -194 155 -491q0 -313 -158 -510q-157 -197 -425 -197h-439zM452 227h76q306 0 306 462q0 476 -288 476h-94v-938zM585 1494z" />
<glyph unicode="E" horiz-adv-x="1044" d="M0 1414zM134 0v1392h814v-242h-496v-321h461v-242h-461v-345h516v-242h-834zM531 1494zM732 0z" />
<glyph unicode="F" horiz-adv-x="918" d="M134 0v1392h734v-242h-416v-328h401v-242h-401v-580h-318z" />
<glyph unicode="G" horiz-adv-x="1217" d="M79 685q0 316 179 522q179 207 446 207q99 0 188 -29q90 -28 181 -80v-291q-128 99 -191 117q-62 19 -132 19q-170 0 -260 -123q-89 -123 -89 -335q0 -450 270 -450q74 0 132 39v239h-160v227h478v-607q-205 -162 -440 -162q-273 0 -438 198q-164 199 -164 509zM665 0z M700 1494z" />
<glyph unicode="H" horiz-adv-x="1260" d="M139 0v1392h318v-570h354v570h318v-1392h-318v580h-354v-580h-318z" />
<glyph unicode="I" horiz-adv-x="598" d="M0 1414zM139 0v1392h318v-1392h-318zM296 1494zM300 0z" />
<glyph unicode="J" horiz-adv-x="598" d="M-55 -199q34 -11 55 -11q143 0 143 200v1402h318v-1392q0 -225 -90 -350q-89 -124 -251 -124q-59 0 -155 29z" />
<glyph unicode="K" horiz-adv-x="1194" d="M109 0v1392h318v-685l354 685h318l-345 -663l434 -729h-352l-409 685v-685h-318zM619 0z" />
<glyph unicode="L" horiz-adv-x="981" d="M0 1414zM134 0v1392h318v-1139h512v-253h-830zM309 1494zM513 0z" />
<glyph unicode="M" horiz-adv-x="1493" d="M139 0v1392h288l318 -567l318 567h288v-1392h-298v898l-278 -535h-60l-278 535v-898h-298z" />
<glyph unicode="N" horiz-adv-x="1260" d="M0 1414zM139 0v1392h293l379 -794v794h298v-1392h-278l-394 832v-832h-298zM605 1494zM643 0z" />
<glyph unicode="O" horiz-adv-x="1260" d="M79 707q0 317 154 512t399 195q231 0 392 -184t161 -534q0 -323 -153 -521q-152 -197 -400 -197q-240 0 -397 189q-156 189 -156 540zM401 696q0 -236 54 -345t181 -109q227 0 227 450q0 237 -54 347q-53 111 -179 111q-229 0 -229 -454zM641 1494z" />
<glyph unicode="P" horiz-adv-x="1110" d="M134 0v1392h451q211 0 335 -118t124 -301q0 -182 -117 -295q-117 -112 -339 -112h-136v-566h-318zM452 808h92q178 0 178 168q0 174 -170 174h-100v-342z" />
<glyph unicode="Q" horiz-adv-x="1260" d="M79 712q0 318 155 510q156 192 398 192q235 0 394 -186q159 -185 159 -532q0 -298 -109 -458q-109 -159 -252 -216q95 -113 230 -113q43 0 101 32l30 -31l-174 -224q-165 0 -306 98q-140 98 -194 215q-201 52 -317 230q-115 179 -115 483zM401 705q0 -239 56 -342 t179 -103q227 0 227 442q0 236 -56 342t-177 106q-229 0 -229 -445z" />
<glyph unicode="R" horiz-adv-x="1130" d="M0 1414zM134 0v1392h455q216 0 335 -108q120 -108 120 -283q0 -113 -52 -189t-181 -135q67 -27 121 -180q36 -103 69 -207q30 -95 103 -290h-327l-103 341q-33 117 -71 181q-38 65 -130 65h-21v-587h-318zM452 829h94q176 0 176 163q0 158 -176 158h-94v-321zM536 1494z M596 0z" />
<glyph unicode="S" horiz-adv-x="918" d="M79 1056q0 155 115 256q115 102 287 102q151 0 302 -87v-265q-184 88 -266 88q-130 0 -130 -96q0 -62 147 -211q147 -148 180 -191q117 -147 117 -283q0 -162 -114 -277q-113 -114 -294 -114q-138 0 -328 112v304q65 -55 136 -104q72 -48 150 -48q59 0 93 35q35 36 35 84 q0 78 -111 195q-204 212 -209 217q-110 141 -110 283zM417 0zM484 1494z" />
<glyph unicode="T" horiz-adv-x="1024" d="M0 1414zM32 1150v242h958v-242h-320v-1150h-318v1150h-320zM511 0zM518 1494z" />
<glyph unicode="U" horiz-adv-x="1217" d="M0 1414zM119 470v922h318v-957q0 -193 172 -193q166 0 166 211v939h318v-917q0 -497 -491 -497q-234 0 -359 127q-124 128 -124 365zM602 1494zM667 0z" />
<glyph unicode="V" horiz-adv-x="1110" d="M16 1392h322l211 -729l206 729h322l-448 -1414h-149z" />
<glyph unicode="W" horiz-adv-x="1745" d="M16 1392h308l188 -746l224 746h253l214 -746l198 746h308l-432 -1414h-134l-283 911l-278 -911h-134z" />
<glyph unicode="X" horiz-adv-x="1237" d="M35 0l410 740l-370 652h347l201 -381l201 381h347l-370 -652l410 -740h-352l-240 451l-237 -451h-347z" />
<glyph unicode="Y" horiz-adv-x="1110" d="M0 1414zM16 1392h342l201 -419l174 419h337l-352 -756v-636h-318v636zM551 1494z" />
<glyph unicode="Z" horiz-adv-x="1024" d="M0 1414zM25 0l496 1150h-441v242h873l-491 -1150h491v-242h-928zM493 1494z" />
<glyph unicode="[" horiz-adv-x="768" d="M186 -454h562v214h-272v1418h272v214h-562v-1846z" />
<glyph unicode="\" horiz-adv-x="575" d="M10 1392h209l335 -1408h-209z" />
<glyph unicode="]" horiz-adv-x="768" d="M20 -240h272v1418h-272v214h562v-1846h-562v214z" />
<glyph unicode="^" horiz-adv-x="1194" d="M128 688l368 800h222l368 -800h-285l-192 491l-196 -491h-285z" />
<glyph unicode="_" horiz-adv-x="1024" d="M-12 -151h1024v-103h-1024v103z" />
<glyph unicode="`" horiz-adv-x="682" d="M21 1408h360l168 -336h-152zM380 1072z" />
<glyph unicode="a" horiz-adv-x="981" d="M46 215q0 148 171 251q75 43 329 134v33q0 131 -117 131q-146 0 -318 -152v221q172 131 391 131q339 0 339 -279v-396q0 -85 29 -85q24 0 86 35v-168q-149 -88 -243 -88q-131 0 -153 131q-143 -134 -273 -134q-102 0 -172 67q-69 67 -69 168zM313 279q0 -99 102 -99 q53 0 131 63v226q-233 -84 -233 -190zM490 1060zM689 0z" />
<glyph unicode="b" horiz-adv-x="1110" d="M120 0v1392h295v-492q107 64 216 64q168 0 280 -138t112 -358q0 -214 -115 -351q-114 -137 -267 -137q-128 0 -226 96v-76h-295zM415 284q62 -89 150 -89q63 0 106 67q43 68 43 201q0 137 -45 211q-45 75 -115 75q-74 0 -139 -62v-403z" />
<glyph unicode="c" horiz-adv-x="874" d="M74 464q0 222 138 361q139 139 338 139q116 0 249 -61v-214q-115 60 -190 60q-99 0 -163 -76q-63 -76 -63 -195q0 -123 63 -203t174 -80q97 0 193 66v-222q-85 -34 -152 -47q-67 -12 -114 -12q-207 0 -340 140q-133 141 -133 344zM468 0zM550 1060z" />
<glyph unicode="d" horiz-adv-x="1110" d="M74 476q0 217 102 352q102 136 266 136q127 0 240 -112v540h295v-1392h-295v92q-115 -112 -247 -112q-156 0 -259 138q-102 139 -102 358zM383 472q0 -277 152 -277q77 0 147 102v355q-47 63 -75 80t-64 17q-160 0 -160 -277z" />
<glyph unicode="e" horiz-adv-x="961" d="M74 453q0 217 120 364t307 147q190 0 292 -144q102 -143 102 -392h-512q20 -248 240 -248q106 0 244 72v-177q-154 -95 -344 -95q-223 0 -336 135q-113 136 -113 338zM383 565h240q0 231 -119 231q-121 0 -121 -231zM501 1060zM510 0z" />
<glyph unicode="f" horiz-adv-x="598" d="M48 776v168h96v65q0 183 104 292q105 110 290 110q95 0 157 -19v-209q-86 13 -106 13q-150 0 -150 -168v-84h144v-168h-144v-776h-295v776h-96z" />
<glyph unicode="g" horiz-adv-x="981" d="M0 964zM46 -227q0 166 217 216q-143 38 -143 153q0 121 157 160q-180 110 -180 305q0 157 116 257t316 100h439v-173h-183q91 -109 91 -229q0 -86 -38 -155q-38 -68 -95 -101q-100 -59 -314 -75q-48 -4 -68 -18t-20 -39q0 -30 55 -43q55 -12 156 -13q217 -3 316 -77 q100 -74 100 -214q0 -148 -123 -229q-122 -81 -334 -81q-229 0 -347 74t-118 182zM290 -200q0 -120 220 -120q214 0 214 114q0 124 -215 124q-95 0 -157 -32t-62 -86zM364 591q0 -202 135 -202q133 0 133 200q0 194 -137 194q-131 0 -131 -192zM502 1060z" />
<glyph unicode="h" horiz-adv-x="1087" d="M115 0v1392h295v-572q111 144 279 144q131 0 214 -91t83 -259v-614h-295v594q0 155 -113 155q-93 0 -168 -146v-603h-295z" />
<glyph unicode="i" horiz-adv-x="532" d="M102 1252q0 65 49 113q49 49 119 49q66 0 114 -49q49 -48 49 -113q0 -68 -49 -116q-48 -48 -114 -48q-70 0 -119 48t-49 116zM120 0v944h295v-944h-295zM265 0z" />
<glyph unicode="j" horiz-adv-x="532" d="M-5 -226q82 36 105 72q24 37 24 147v951h295v-948q0 -229 -82 -336q-82 -106 -264 -143zM106 1252q0 65 49 113q49 49 119 49q66 0 114 -49q49 -48 49 -113q0 -68 -49 -116q-48 -48 -114 -48q-70 0 -119 48t-49 116z" />
<glyph unicode="k" d="M120 0v1392h295v-916l283 468h309l-274 -465l325 -479h-323l-320 468v-468h-295zM560 0z" />
<glyph unicode="l" horiz-adv-x="532" d="M120 0v1392h295v-1392h-295zM263 0zM265 1472z" />
<glyph unicode="m" horiz-adv-x="1665" d="M115 0v944h295v-156q105 176 289 176q189 0 264 -192q95 192 290 192q130 0 219 -90q90 -89 90 -249v-625h-295v530q0 125 -24 172t-80 47q-103 0 -177 -132v-617h-295v556q0 193 -111 193q-93 0 -170 -140v-609h-295z" />
<glyph unicode="n" horiz-adv-x="1087" d="M115 0v944h295v-140q105 160 279 160q140 0 218 -93q79 -92 79 -242v-629h-295v594q0 155 -115 155q-104 0 -166 -152v-597h-295zM561 0zM581 1060z" />
<glyph unicode="o" d="M74 468q0 224 135 360t324 136q193 0 325 -139q133 -138 133 -353q0 -223 -133 -358q-132 -134 -315 -134q-211 0 -340 142q-129 143 -129 346zM383 472q0 -277 152 -277q147 0 147 277t-145 277q-154 0 -154 -277zM533 1060z" />
<glyph unicode="p" horiz-adv-x="1110" d="M120 -464v1408h295v-92q140 112 254 112q143 0 248 -136q106 -136 106 -364q0 -212 -102 -348q-101 -136 -242 -136q-118 0 -264 112v-556h-295zM415 297q23 -27 63 -58t84 -31q64 0 108 66q44 67 44 205q0 270 -139 270q-90 0 -160 -97v-355z" />
<glyph unicode="q" horiz-adv-x="1110" d="M78 464q0 222 116 361q117 139 283 139q109 0 209 -76v56h295v-1408h-295v515q-105 -71 -209 -71q-169 0 -284 135t-115 349zM387 472q0 -131 47 -204t125 -73q39 0 76 23q37 24 51 46v401q-60 84 -131 84q-75 0 -122 -71q-46 -71 -46 -206z" />
<glyph unicode="r" horiz-adv-x="811" d="M115 0v944h272v-361q100 381 268 381q101 0 171 -58l-65 -259q-23 14 -54 30q-31 17 -69 17q-88 0 -147 -114q-81 -156 -81 -425v-155h-295zM279 0zM423 1060z" />
<glyph unicode="s" horiz-adv-x="811" d="M65 657q0 135 96 221q97 86 250 86q71 0 147 -22q77 -22 164 -66v-200q-87 48 -159 76q-71 28 -148 28q-120 0 -120 -69q0 -41 82 -78q82 -36 124 -52q140 -56 199 -125t59 -165q0 -144 -100 -228q-99 -83 -251 -83q-139 0 -325 82v222q188 -104 300 -104q109 0 109 83 q0 49 -111 93q-163 68 -206 99q-110 77 -110 202zM388 0zM407 1060z" />
<glyph unicode="t" horiz-adv-x="811" d="M37 758v37l378 437h51v-288h272v-186h-272v-395q0 -155 110 -155q55 0 178 64v-213q-139 -79 -266 -79q-147 0 -232 85t-85 243v450h-134zM474 0z" />
<glyph unicode="u" horiz-adv-x="1087" d="M0 964zM97 338v606h295v-597q0 -152 113 -152q118 0 168 149v600h295v-944h-295v124q-75 -144 -268 -144q-148 0 -228 94t-80 264zM539 1060zM808 0z" />
<glyph unicode="v" horiz-adv-x="981" d="M16 944h281l193 -505l176 505h286l-384 -964h-152z" />
<glyph unicode="w" horiz-adv-x="1450" d="M18 944h281l149 -490l178 490h198l177 -490l150 490h281l-352 -964h-148l-207 569l-203 -569h-152z" />
<glyph unicode="x" horiz-adv-x="981" d="M23 0l301 479l-301 465h327l138 -240l131 240h332l-294 -461l312 -483h-327l-142 254l-150 -254h-327z" />
<glyph unicode="y" horiz-adv-x="981" d="M0 964zM9 944h300l178 -429l166 429h300l-570 -1408h-300l257 633zM488 1060z" />
<glyph unicode="z" horiz-adv-x="918" d="M0 964zM37 0l392 729h-351v215h775l-373 -729h373v-215h-816zM432 1060z" />
<glyph unicode="{" horiz-adv-x="797" d="M64 359v241q126 0 175 80t49 297v77q0 217 96 301q96 85 261 85h107v-241q-141 0 -173 -38t-32 -198q0 -224 -43 -327t-145 -157q116 -72 152 -175q36 -102 36 -335q0 -141 34 -175q34 -33 171 -33v-241h-96q-199 0 -284 90q-84 91 -84 309v40q0 285 -63 342 q-63 58 -161 58z" />
<glyph unicode="|" horiz-adv-x="1159" d="M448 -512v2048h250v-2048h-250z" />
<glyph unicode="}" horiz-adv-x="797" d="M48 -239q140 0 172 37q33 37 33 197q0 209 41 315q42 107 147 164q-108 66 -148 167q-40 102 -40 348q0 141 -35 175q-34 35 -170 35v241h96q199 0 283 -94q85 -93 85 -304v-44q0 -241 50 -322t174 -81v-241q-126 0 -175 -80t-49 -295v-103q0 -186 -93 -271t-264 -85 h-107v241z" />
<glyph unicode="~" horiz-adv-x="1366" d="M124 523v255q169 144 324 144q97 0 259 -80q163 -79 242 -79q134 0 295 151v-255q-165 -144 -319 -144q-100 0 -267 79q-167 80 -240 80q-79 0 -153 -42q-73 -42 -141 -109z" />
<glyph unicode="&#xa1;" horiz-adv-x="555" d="M105 -228q0 127 39 368q42 266 93 404h76q48 -135 88 -392q35 -241 35 -380q0 -236 -167 -236q-164 0 -164 236zM114 808q0 68 49 116q48 48 113 48q68 0 116 -48t48 -116q0 -65 -48 -113q-48 -49 -116 -49q-65 0 -113 49q-49 48 -49 113z" />
<glyph unicode="&#xa2;" horiz-adv-x="874" d="M50 460q0 225 137 361q138 136 336 136q13 0 40 -3t54 -9l94 332h99l-102 -358q29 -10 66 -28v-221q-36 21 -124 53l-147 -507q40 -15 91 -15q92 0 190 64v-225q-43 -23 -112 -43q-68 -19 -150 -19q-43 0 -83 9l-111 -377h-94l113 397q-137 53 -217 175t-80 278zM358 473 q0 -121 65 -198l128 455q-86 -13 -140 -83q-53 -70 -53 -174z" />
<glyph unicode="&#xa3;" horiz-adv-x="1044" d="M74 -22q8 68 50 282t66 306h-106v249h166v4q70 297 202 446t330 149q42 0 104 -13l84 -259q-91 15 -119 15q-109 0 -172 -76q-62 -75 -109 -262v-4h176v-249h-241q-28 -112 -59 -263q47 11 81 11q53 0 143 -27q90 -26 146 -26q63 0 159 42v-288q-102 -37 -208 -37 q-76 0 -213 26q-137 27 -215 27q-139 0 -227 -53h-38z" />
<glyph unicode="&#xa4;" horiz-adv-x="1366" d="M141 299l137 143q-70 98 -70 242q0 140 70 247l-137 134l163 163l134 -138q97 71 249 71q143 0 245 -67l135 134l163 -163l-134 -134q63 -106 63 -244q0 -120 -67 -248l138 -137l-163 -163l-138 141q-125 -70 -244 -70q-144 0 -244 66l-137 -137zM439 687q0 -98 69 -172 t174 -74q98 0 172 70t74 176t-73 174q-73 69 -173 69q-107 0 -175 -73q-68 -72 -68 -170z" />
<glyph unicode="&#xa5;" horiz-adv-x="1110" d="M16 1392h342l205 -430l179 430h337l-352 -766h368v-151h-368v-112h368v-151h-368v-212h-327v212h-368v151h368v112h-368v151h368v3z" />
<glyph unicode="&#xa6;" horiz-adv-x="1159" d="M448 358h250v-720h-250v720zM448 662v720h250v-720h-250z" />
<glyph unicode="&#xa7;" d="M66 532q0 201 178 341q-91 104 -91 227q0 132 109 221q110 90 311 90q138 0 243 -67q105 -66 105 -175q0 -66 -47 -104t-104 -38q-94 0 -123 104q-19 66 -40 81q-20 16 -59 16q-120 0 -120 -97q0 -87 171 -224l245 -189q86 -70 117 -148t31 -153q0 -207 -169 -368 q88 -117 88 -221q0 -130 -101 -216t-284 -86q-160 0 -270 69q-109 69 -109 173q0 61 43 101q44 41 107 41q32 0 63 -20q31 -19 60 -106q23 -75 106 -75q56 0 85 23q30 23 30 63q0 66 -87 145q-86 79 -192 154q-148 104 -222 211q-74 108 -74 227zM320 574q0 -94 146 -202 q72 -49 215 -161q57 64 57 143q0 104 -153 208q-114 80 -206 157q-59 -73 -59 -145z" />
<glyph unicode="&#xa8;" horiz-adv-x="682" d="M32 1247q0 44 32 77q33 33 79 33q44 0 77 -33t33 -78t-33 -78q-33 -32 -78 -32t-78 32q-32 33 -32 79zM336 1072zM429 1247q0 44 32 77q33 33 79 33q44 0 77 -33t33 -78t-33 -78q-33 -32 -78 -32t-78 32q-32 33 -32 79z" />
<glyph unicode="&#xa9;" horiz-adv-x="1511" d="M-16 724q0 319 225 541q226 223 540 223q313 0 538 -223q226 -223 226 -542q0 -317 -223 -541q-223 -223 -542 -223q-320 0 -542 224t-222 541zM137 723q0 -244 174 -428q175 -183 452 -183q233 0 415 176q182 177 182 440q0 246 -180 426q-179 181 -436 181 q-254 0 -431 -181q-176 -180 -176 -431zM377 718q0 209 106 322t280 113q248 0 325 -250l-163 -38q-55 146 -172 146q-198 0 -198 -286q0 -133 50 -210q50 -76 141 -76q135 0 179 178l163 -55q-83 -265 -325 -265q-184 0 -285 116q-101 117 -101 305z" />
<glyph unicode="&#xaa;" horiz-adv-x="618" d="M15 954q0 145 321 235q0 78 -70 78q-89 0 -211 -99v164q130 82 260 82q229 0 229 -180v-222q0 -55 14 -55l60 34v-136q-117 -57 -170 -57q-80 0 -102 68q-87 -68 -163 -68q-75 0 -122 45q-46 45 -46 111zM208 989q0 -44 54 -44q30 0 74 35v99q-128 -42 -128 -90z" />
<glyph unicode="&#xab;" horiz-adv-x="1044" d="M52 472l273 -464h239l-273 464l273 464h-239zM484 472l273 -464h239l-273 464l273 464h-239z" />
<glyph unicode="&#xac;" horiz-adv-x="1366" d="M128 799v248h1120v-728h-248v480h-872z" />
<glyph unicode="&#xad;" horiz-adv-x="705" d="M80 335v275h544v-275h-544z" />
<glyph unicode="&#xae;" horiz-adv-x="1511" d="M-16 724q0 319 225 541q226 223 540 223q313 0 538 -223q226 -223 226 -542q0 -317 -223 -541q-223 -223 -542 -223q-320 0 -542 224t-222 541zM137 723q0 -244 174 -428q175 -183 452 -183q233 0 415 176q182 177 182 440q0 246 -180 426q-179 181 -436 181 q-254 0 -431 -181q-176 -180 -176 -431zM409 319v805h394q124 0 188 -61q65 -60 65 -162q0 -93 -64 -155q-63 -62 -163 -68q49 -19 75 -44q39 -32 91 -122l111 -193h-202l-71 141q-56 112 -114 160q-35 30 -106 33h-41v-334h-163zM572 781h161q149 0 149 108q0 107 -169 107 h-141v-215z" />
<glyph unicode="&#xaf;" horiz-adv-x="682" d="M48 1248v152h592v-152h-592zM344 1072z" />
<glyph unicode="&#xb0;" horiz-adv-x="819" d="M96 1163q0 135 93 229q94 94 229 94q134 0 228 -94t94 -229t-94 -229t-228 -94q-135 0 -229 94q-93 94 -93 229zM260 1167q0 -68 45 -115q45 -46 113 -46q65 0 111 46q47 47 47 115q0 63 -47 108q-46 45 -111 45q-68 0 -113 -45t-45 -108z" />
<glyph unicode="&#xb1;" horiz-adv-x="1368" d="M128 -68v248h1112v-248h-1112zM128 740v248h432v432h248v-432h432v-248h-432v-432h-248v432h-432z" />
<glyph unicode="&#xb2;" horiz-adv-x="618" d="M3 688v31q83 70 188 219q121 171 121 246q0 83 -100 83q-86 0 -179 -56v155q108 53 226 53q107 0 181 -57q75 -57 75 -144q0 -72 -41 -153t-155 -214h246v-163h-562z" />
<glyph unicode="&#xb3;" horiz-adv-x="641" d="M80 718v151q37 -13 91 -27q55 -13 89 -13q123 0 123 83q0 80 -120 80q-7 -2 -20 -2h-19v146h35q47 0 80 21q34 21 34 51q0 67 -107 67q-70 0 -173 -48v153q43 15 93 27t115 12q122 0 198 -56q77 -55 77 -145q0 -45 -19 -76q-19 -30 -78 -73q117 -58 117 -170 q0 -105 -87 -164q-86 -58 -211 -58q-58 0 -128 14t-90 27z" />
<glyph unicode="&#xb4;" horiz-adv-x="682" d="M128 1072l168 336h360l-376 -336h-152zM270 1072z" />
<glyph unicode="&#xb5;" horiz-adv-x="1251" d="M189 -352v1296h295v-548q0 -201 149 -201q132 0 132 208v541h295v-944h-272v129q-21 -144 -152 -144q-60 0 -102 35q-42 36 -50 104v-476h-295z" />
<glyph unicode="&#xb6;" horiz-adv-x="1139" d="M0 981q0 173 112 292t333 119h694v-263h-114v-1433h-238v1433h-149v-1433h-238v880q-186 12 -293 118t-107 287z" />
<glyph unicode="&#xb7;" horiz-adv-x="555" d="M112 701q0 65 48 113t116 48q65 0 113 -48t48 -113q0 -68 -48 -116t-113 -48q-68 0 -116 48t-48 116z" />
<glyph unicode="&#xb8;" horiz-adv-x="682" d="M112 -332q169 0 169 75q0 23 -21 43q-21 21 -48 21q-8 0 -20 -3l96 212h176l-48 -112q55 -17 91 -64q37 -47 37 -104q0 -95 -79 -156q-78 -61 -232 -61h-121v149zM325 0z" />
<glyph unicode="&#xb9;" horiz-adv-x="618" d="M208 688v720h213v-720h-213z" />
<glyph unicode="&#xba;" horiz-adv-x="682" d="M32 1106q0 138 90 223t214 85q129 0 216 -87q87 -86 87 -221q0 -139 -88 -224q-88 -84 -208 -84q-139 0 -225 90q-86 91 -86 218zM255 1107q0 -154 82 -154q79 0 79 152q0 154 -79 154q-82 0 -82 -152z" />
<glyph unicode="&#xbb;" horiz-adv-x="1044" d="M48 8l273 464l-273 464h239l273 -464l-273 -464h-239zM480 8l273 464l-273 464h239l273 -464l-273 -464h-239z" />
<glyph unicode="&#xbc;" horiz-adv-x="1516" d="M208 688v720h213v-720h-213zM261 -51l783 1501h193l-768 -1501h-208zM890 180v131l329 420h183v-421h70v-130h-70v-180h-200v180h-312zM1053 310h149v199z" />
<glyph unicode="&#xbd;" horiz-adv-x="1516" d="M208 688v720h213v-720h-213zM226 -51l783 1501h193l-768 -1501h-208zM898 0v31q83 70 188 219q121 171 121 246q0 83 -100 83q-86 0 -179 -56v155q108 53 226 53q107 0 181 -57q75 -57 75 -144q0 -72 -41 -153t-155 -214h246v-163h-562z" />
<glyph unicode="&#xbe;" horiz-adv-x="1516" d="M80 718v151q37 -13 91 -27q55 -13 89 -13q123 0 123 83q0 80 -120 80q-7 -2 -20 -2h-19v146h35q47 0 80 21q34 21 34 51q0 67 -107 67q-70 0 -173 -48v153q43 15 93 27t115 12q122 0 198 -56q77 -55 77 -145q0 -45 -19 -76q-19 -30 -78 -73q117 -58 117 -170 q0 -105 -87 -164q-86 -58 -211 -58q-58 0 -128 14t-90 27zM261 -51l783 1501h193l-768 -1501h-208zM890 180v131l329 420h183v-421h70v-130h-70v-180h-200v180h-312zM1053 310h149v199z" />
<glyph unicode="&#xbf;" horiz-adv-x="725" d="M91 -143q0 111 77 233l139 203q76 115 76 205q0 21 4 48h72q77 -119 77 -234q0 -105 -64 -242q-65 -137 -65 -194q0 -51 34 -90q33 -40 89 -40q64 0 129 51h25l-61 -242q-80 -23 -164 -23q-163 0 -265 89q-103 88 -103 236zM251 804q0 68 49 116q48 48 113 48 q68 0 116 -48t48 -116q0 -65 -48 -113q-48 -49 -116 -49q-65 0 -113 49q-49 48 -49 113z" />
<glyph unicode="&#xc0;" horiz-adv-x="1087" d="M0 1414zM10 0l368 1399h327l368 -1399h-308l-65 290h-315l-67 -290h-308zM174 1830h360l168 -336h-152zM430 517h223l-112 510zM533 1494zM533 1494zM915 0z" />
<glyph unicode="&#xc1;" horiz-adv-x="1087" d="M0 1414zM10 0l368 1399h327l368 -1399h-308l-65 290h-315l-67 -290h-308zM391 1494l168 336h360l-376 -336h-152zM430 517h223l-112 510zM533 1494zM533 1494zM915 0z" />
<glyph unicode="&#xc2;" horiz-adv-x="1087" d="M0 1414zM10 0l368 1399h327l368 -1399h-308l-65 290h-315l-67 -290h-308zM223 1494l176 352h263l176 -352h-183l-121 176l-128 -176h-183zM430 517h223l-112 510zM533 1494zM533 1494zM915 0z" />
<glyph unicode="&#xc3;" horiz-adv-x="1087" d="M0 1414zM10 0l368 1399h327l368 -1399h-308l-65 290h-315l-67 -290h-308zM204 1546q0 105 56 175t152 70q58 0 148 -36q91 -36 122 -36q54 0 82 72h124q-5 -110 -67 -178q-61 -67 -147 -67q-52 0 -136 36t-113 36q-47 0 -69 -23t-28 -49h-124zM430 517h223l-112 510z M533 1494zM533 1494zM915 0z" />
<glyph unicode="&#xc4;" horiz-adv-x="1087" d="M0 1414zM10 0l368 1399h327l368 -1399h-308l-65 290h-315l-67 -290h-308zM229 1669q0 44 32 77q33 33 79 33q44 0 77 -33t33 -78t-33 -78q-33 -32 -78 -32t-78 32q-32 33 -32 79zM430 517h223l-112 510zM533 1494zM533 1494zM626 1669q0 44 32 77q33 33 79 33 q44 0 77 -33t33 -78t-33 -78q-33 -32 -78 -32t-78 32q-32 33 -32 79zM915 0z" />
<glyph unicode="&#xc5;" horiz-adv-x="1087" d="M0 1414zM10 0l368 1399h327l368 -1399h-308l-65 290h-315l-67 -290h-308zM310 1701q0 91 65 156q66 66 158 66q91 0 156 -66q66 -66 66 -157q0 -92 -66 -157t-157 -65q-92 0 -157 65q-65 66 -65 158zM403 1700q0 -53 38 -91t92 -38q52 0 90 38q39 38 39 92q0 52 -39 90 q-38 39 -91 39t-91 -39q-38 -38 -38 -91zM430 517h223l-112 510zM533 1494zM533 1494zM915 0z" />
<glyph unicode="&#xc6;" horiz-adv-x="1686" d="M-20 0l544 1392h1050v-242h-460v-321h420v-242h-420v-345h480v-242h-798v587h-288l-210 -587h-318zM591 814h205v404h-64z" />
<glyph unicode="&#xc7;" d="M74 685q0 333 155 531t413 198q176 0 314 -80v-272q-150 88 -238 88q-146 0 -234 -113t-88 -345q0 -217 81 -334q82 -116 225 -116q111 0 270 120v-278q-133 -106 -319 -106q-272 0 -426 201q-153 202 -153 506zM398 -332q169 0 169 75q0 23 -21 43q-21 21 -48 21 q-8 0 -20 -3l96 212h176l-48 -112q55 -17 91 -64q37 -47 37 -104q0 -95 -79 -156q-78 -61 -232 -61h-121v149zM611 0zM611 0zM649 1494z" />
<glyph unicode="&#xc8;" horiz-adv-x="1044" d="M0 1414zM134 0v1392h814v-242h-496v-321h461v-242h-461v-345h516v-242h-834zM172 1830h360l168 -336h-152zM531 1494zM531 1494zM732 0z" />
<glyph unicode="&#xc9;" horiz-adv-x="1044" d="M0 1414zM134 0v1392h814v-242h-496v-321h461v-242h-461v-345h516v-242h-834zM389 1494l168 336h360l-376 -336h-152zM531 1494zM531 1494zM732 0z" />
<glyph unicode="&#xca;" horiz-adv-x="1044" d="M0 1414zM134 0v1392h814v-242h-496v-321h461v-242h-461v-345h516v-242h-834zM221 1494l176 352h263l176 -352h-183l-121 176l-128 -176h-183zM531 1494zM531 1494zM732 0z" />
<glyph unicode="&#xcb;" horiz-adv-x="1044" d="M0 1414zM134 0v1392h814v-242h-496v-321h461v-242h-461v-345h516v-242h-834zM227 1669q0 44 32 77q33 33 79 33q44 0 77 -33t33 -78t-33 -78q-33 -32 -78 -32t-78 32q-32 33 -32 79zM531 1494zM531 1494zM624 1669q0 44 32 77q33 33 79 33q44 0 77 -33t33 -78t-33 -78 q-33 -32 -78 -32t-78 32q-32 33 -32 79zM732 0z" />
<glyph unicode="&#xcc;" horiz-adv-x="598" d="M-63 1830h360l168 -336h-152zM0 1414zM139 0v1392h318v-1392h-318zM296 1494zM296 1494zM300 0z" />
<glyph unicode="&#xcd;" horiz-adv-x="598" d="M0 1414zM139 0v1392h318v-1392h-318zM154 1494l168 336h360l-376 -336h-152zM296 1494zM296 1494zM300 0z" />
<glyph unicode="&#xce;" horiz-adv-x="598" d="M-14 1494l176 352h263l176 -352h-183l-121 176l-128 -176h-183zM0 1414zM139 0v1392h318v-1392h-318zM296 1494zM296 1494zM300 0z" />
<glyph unicode="&#xcf;" horiz-adv-x="598" d="M-8 1669q0 44 32 77q33 33 79 33q44 0 77 -33t33 -78t-33 -78q-33 -32 -78 -32t-78 32q-32 33 -32 79zM0 1414zM139 0v1392h318v-1392h-318zM296 1494zM296 1494zM300 0zM389 1669q0 44 32 77q33 33 79 33q44 0 77 -33t33 -78t-33 -78q-33 -32 -78 -32t-78 32 q-32 33 -32 79z" />
<glyph unicode="&#xd0;" horiz-adv-x="1237" d="M-25 602v196h159v594h419q306 0 454 -193q149 -193 149 -492q0 -315 -159 -511q-158 -196 -424 -196h-439v602h-159zM452 227h76q306 0 306 462q0 476 -288 476h-94v-367h240v-196h-240v-375z" />
<glyph unicode="&#xd1;" horiz-adv-x="1260" d="M0 1414zM139 0v1392h293l379 -794v794h298v-1392h-278l-394 832v-832h-298zM276 1546q0 105 56 175t152 70q58 0 148 -36q91 -36 122 -36q54 0 82 72h124q-5 -110 -67 -178q-61 -67 -147 -67q-52 0 -136 36t-113 36q-47 0 -69 -23t-28 -49h-124zM605 1494zM605 1494z M643 0z" />
<glyph unicode="&#xd2;" horiz-adv-x="1260" d="M79 707q0 317 154 512t399 195q231 0 392 -184t161 -534q0 -323 -153 -521q-152 -197 -400 -197q-240 0 -397 189q-156 189 -156 540zM282 1830h360l168 -336h-152zM401 696q0 -236 54 -345t181 -109q227 0 227 450q0 237 -54 347q-53 111 -179 111q-229 0 -229 -454z M641 1494zM641 1494z" />
<glyph unicode="&#xd3;" horiz-adv-x="1260" d="M79 707q0 317 154 512t399 195q231 0 392 -184t161 -534q0 -323 -153 -521q-152 -197 -400 -197q-240 0 -397 189q-156 189 -156 540zM401 696q0 -236 54 -345t181 -109q227 0 227 450q0 237 -54 347q-53 111 -179 111q-229 0 -229 -454zM499 1494l168 336h360l-376 -336 h-152zM641 1494zM641 1494z" />
<glyph unicode="&#xd4;" horiz-adv-x="1260" d="M79 707q0 317 154 512t399 195q231 0 392 -184t161 -534q0 -323 -153 -521q-152 -197 -400 -197q-240 0 -397 189q-156 189 -156 540zM331 1494l176 352h263l176 -352h-183l-121 176l-128 -176h-183zM401 696q0 -236 54 -345t181 -109q227 0 227 450q0 237 -54 347 q-53 111 -179 111q-229 0 -229 -454zM641 1494zM641 1494z" />
<glyph unicode="&#xd5;" horiz-adv-x="1260" d="M79 707q0 317 154 512t399 195q231 0 392 -184t161 -534q0 -323 -153 -521q-152 -197 -400 -197q-240 0 -397 189q-156 189 -156 540zM312 1546q0 105 56 175t152 70q58 0 148 -36q91 -36 122 -36q54 0 82 72h124q-5 -110 -67 -178q-61 -67 -147 -67q-52 0 -136 36 t-113 36q-47 0 -69 -23t-28 -49h-124zM401 696q0 -236 54 -345t181 -109q227 0 227 450q0 237 -54 347q-53 111 -179 111q-229 0 -229 -454zM641 1494zM641 1494z" />
<glyph unicode="&#xd6;" horiz-adv-x="1260" d="M79 707q0 317 154 512t399 195q231 0 392 -184t161 -534q0 -323 -153 -521q-152 -197 -400 -197q-240 0 -397 189q-156 189 -156 540zM337 1669q0 44 32 77q33 33 79 33q44 0 77 -33t33 -78t-33 -78q-33 -32 -78 -32t-78 32q-32 33 -32 79zM401 696q0 -236 54 -345 t181 -109q227 0 227 450q0 237 -54 347q-53 111 -179 111q-229 0 -229 -454zM641 1494zM641 1494zM734 1669q0 44 32 77q33 33 79 33q44 0 77 -33t33 -78t-33 -78q-33 -32 -78 -32t-78 32q-32 33 -32 79z" />
<glyph unicode="&#xd7;" horiz-adv-x="1368" d="M144 319l361 362l-361 362l178 174l357 -361l363 361l174 -174l-360 -362l360 -362l-174 -174l-363 361l-357 -361z" />
<glyph unicode="&#xd8;" horiz-adv-x="1260" d="M79 709q0 333 163 519q164 186 393 186q173 0 311 -111l75 115l104 -68l-88 -137q148 -192 148 -517q0 -368 -167 -543q-166 -175 -383 -175q-180 0 -315 102l-73 -117l-99 72l86 134q-155 196 -155 540zM401 693q0 -140 17 -231l375 598q-54 90 -164 90 q-228 0 -228 -457zM477 321q56 -79 160 -79q226 0 226 451q0 125 -17 212z" />
<glyph unicode="&#xd9;" horiz-adv-x="1217" d="M0 1414zM119 470v922h318v-957q0 -193 172 -193q166 0 166 211v939h318v-917q0 -497 -491 -497q-234 0 -359 127q-124 128 -124 365zM243 1830h360l168 -336h-152zM602 1494zM602 1494zM667 0z" />
<glyph unicode="&#xda;" horiz-adv-x="1217" d="M0 1414zM119 470v922h318v-957q0 -193 172 -193q166 0 166 211v939h318v-917q0 -497 -491 -497q-234 0 -359 127q-124 128 -124 365zM460 1494l168 336h360l-376 -336h-152zM602 1494zM602 1494zM667 0z" />
<glyph unicode="&#xdb;" horiz-adv-x="1217" d="M0 1414zM119 470v922h318v-957q0 -193 172 -193q166 0 166 211v939h318v-917q0 -497 -491 -497q-234 0 -359 127q-124 128 -124 365zM292 1494l176 352h263l176 -352h-183l-121 176l-128 -176h-183zM602 1494zM602 1494zM667 0z" />
<glyph unicode="&#xdc;" horiz-adv-x="1217" d="M0 1414zM119 470v922h318v-957q0 -193 172 -193q166 0 166 211v939h318v-917q0 -497 -491 -497q-234 0 -359 127q-124 128 -124 365zM298 1669q0 44 32 77q33 33 79 33q44 0 77 -33t33 -78t-33 -78q-33 -32 -78 -32t-78 32q-32 33 -32 79zM602 1494zM602 1494zM667 0z M695 1669q0 44 32 77q33 33 79 33q44 0 77 -33t33 -78t-33 -78q-33 -32 -78 -32t-78 32q-32 33 -32 79z" />
<glyph unicode="&#xdd;" horiz-adv-x="1110" d="M0 1414zM16 1392h342l201 -419l174 419h337l-352 -756v-636h-318v636zM409 1494l168 336h360l-376 -336h-152zM551 1494zM551 1494z" />
<glyph unicode="&#xde;" horiz-adv-x="1110" d="M134 0v1392h318v-283h134q211 0 334 -118q124 -118 124 -301q0 -177 -114 -292t-342 -115h-136v-283h-318zM452 525h94q180 0 180 168q0 174 -171 174h-103v-342z" />
<glyph unicode="&#xdf;" horiz-adv-x="1087" d="M111 0v976q0 435 444 435q195 0 303 -100q108 -99 108 -238q0 -166 -165 -250q229 -83 229 -379q0 -198 -105 -331q-104 -133 -281 -133q-39 0 -81 12t-45 15v196q22 -8 55 -8q162 0 162 239q0 284 -201 284v181q165 6 165 160q0 70 -37 120q-37 51 -107 51 q-78 0 -114 -43q-35 -43 -35 -144v-1043h-295z" />
<glyph unicode="&#xe0;" horiz-adv-x="981" d="M46 215q0 148 171 251q75 43 329 134v33q0 131 -117 131q-146 0 -318 -152v221q172 131 391 131q339 0 339 -279v-396q0 -85 29 -85q24 0 86 35v-168q-149 -88 -243 -88q-131 0 -153 131q-143 -134 -273 -134q-102 0 -172 67q-69 67 -69 168zM131 1396h360l168 -336h-152 zM313 279q0 -99 102 -99q53 0 131 63v226q-233 -84 -233 -190zM490 1060zM490 1060zM689 0z" />
<glyph unicode="&#xe1;" horiz-adv-x="981" d="M46 215q0 148 171 251q75 43 329 134v33q0 131 -117 131q-146 0 -318 -152v221q172 131 391 131q339 0 339 -279v-396q0 -85 29 -85q24 0 86 35v-168q-149 -88 -243 -88q-131 0 -153 131q-143 -134 -273 -134q-102 0 -172 67q-69 67 -69 168zM313 279q0 -99 102 -99 q53 0 131 63v226q-233 -84 -233 -190zM348 1060l168 336h360l-376 -336h-152zM490 1060zM490 1060zM689 0z" />
<glyph unicode="&#xe2;" horiz-adv-x="981" d="M46 215q0 148 171 251q75 43 329 134v33q0 131 -117 131q-146 0 -318 -152v221q172 131 391 131q339 0 339 -279v-396q0 -85 29 -85q24 0 86 35v-168q-149 -88 -243 -88q-131 0 -153 131q-143 -134 -273 -134q-102 0 -172 67q-69 67 -69 168zM180 1060l176 352h263 l176 -352h-183l-121 176l-128 -176h-183zM313 279q0 -99 102 -99q53 0 131 63v226q-233 -84 -233 -190zM490 1060zM490 1060zM689 0z" />
<glyph unicode="&#xe3;" horiz-adv-x="981" d="M46 215q0 148 171 251q75 43 329 134v33q0 131 -117 131q-146 0 -318 -152v221q172 131 391 131q339 0 339 -279v-396q0 -85 29 -85q24 0 86 35v-168q-149 -88 -243 -88q-131 0 -153 131q-143 -134 -273 -134q-102 0 -172 67q-69 67 -69 168zM161 1112q0 105 56 175 t152 70q58 0 148 -36q91 -36 122 -36q54 0 82 72h124q-5 -110 -67 -178q-61 -67 -147 -67q-52 0 -136 36t-113 36q-47 0 -69 -23t-28 -49h-124zM313 279q0 -99 102 -99q53 0 131 63v226q-233 -84 -233 -190zM490 1060zM490 1060zM689 0z" />
<glyph unicode="&#xe4;" horiz-adv-x="981" d="M46 215q0 148 171 251q75 43 329 134v33q0 131 -117 131q-146 0 -318 -152v221q172 131 391 131q339 0 339 -279v-396q0 -85 29 -85q24 0 86 35v-168q-149 -88 -243 -88q-131 0 -153 131q-143 -134 -273 -134q-102 0 -172 67q-69 67 -69 168zM186 1235q0 44 32 77 q33 33 79 33q44 0 77 -33t33 -78t-33 -78q-33 -32 -78 -32t-78 32q-32 33 -32 79zM313 279q0 -99 102 -99q53 0 131 63v226q-233 -84 -233 -190zM490 1060zM490 1060zM583 1235q0 44 32 77q33 33 79 33q44 0 77 -33t33 -78t-33 -78q-33 -32 -78 -32t-78 32q-32 33 -32 79z M689 0z" />
<glyph unicode="&#xe5;" horiz-adv-x="981" d="M46 215q0 148 171 251q75 43 329 134v33q0 131 -117 131q-146 0 -318 -152v221q172 131 391 131q339 0 339 -279v-396q0 -85 29 -85q24 0 86 35v-168q-149 -88 -243 -88q-131 0 -153 131q-143 -134 -273 -134q-102 0 -172 67q-69 67 -69 168zM267 1267q0 91 65 156 q66 66 158 66q91 0 156 -66q66 -66 66 -157q0 -92 -66 -157t-157 -65q-92 0 -157 65q-65 66 -65 158zM313 279q0 -99 102 -99q53 0 131 63v226q-233 -84 -233 -190zM360 1266q0 -53 38 -91t92 -38q52 0 90 38q39 38 39 92q0 52 -39 90q-38 39 -91 39t-91 -39 q-38 -38 -38 -91zM490 1060zM490 1060zM689 0z" />
<glyph unicode="&#xe6;" horiz-adv-x="1473" d="M46 216q0 151 186 254q110 63 326 120v27q0 147 -130 147q-141 0 -331 -152v223q188 129 375 129q166 0 263 -96q34 36 113 66t158 30q176 0 282 -143q107 -142 107 -393h-528q0 -113 62 -181q62 -67 175 -67t268 72v-166q-178 -106 -363 -106q-213 0 -365 144 q-158 -144 -327 -144q-118 0 -195 67q-76 68 -76 169zM341 259q0 -98 84 -98q63 0 133 59v228q-151 -69 -184 -105t-33 -84zM867 565h256q0 231 -129 231q-70 0 -99 -50q-28 -50 -28 -181z" />
<glyph unicode="&#xe7;" horiz-adv-x="874" d="M74 464q0 222 138 361q139 139 338 139q116 0 249 -61v-214q-115 60 -190 60q-99 0 -163 -76q-63 -76 -63 -195q0 -123 63 -203t174 -80q97 0 193 66v-222q-85 -34 -152 -47q-67 -12 -114 -12q-207 0 -340 140q-133 141 -133 344zM255 -332q169 0 169 75q0 23 -21 43 q-21 21 -48 21q-8 0 -20 -3l96 212h176l-48 -112q55 -17 91 -64q37 -47 37 -104q0 -95 -79 -156q-78 -61 -232 -61h-121v149zM468 0zM468 0zM550 1060z" />
<glyph unicode="&#xe8;" horiz-adv-x="961" d="M74 453q0 217 120 364t307 147q190 0 292 -144q102 -143 102 -392h-512q20 -248 240 -248q106 0 244 72v-177q-154 -95 -344 -95q-223 0 -336 135q-113 136 -113 338zM142 1396h360l168 -336h-152zM383 565h240q0 231 -119 231q-121 0 -121 -231zM501 1060zM501 1060z M510 0z" />
<glyph unicode="&#xe9;" horiz-adv-x="961" d="M74 453q0 217 120 364t307 147q190 0 292 -144q102 -143 102 -392h-512q20 -248 240 -248q106 0 244 72v-177q-154 -95 -344 -95q-223 0 -336 135q-113 136 -113 338zM359 1060l168 336h360l-376 -336h-152zM383 565h240q0 231 -119 231q-121 0 -121 -231zM501 1060z M501 1060zM510 0z" />
<glyph unicode="&#xea;" horiz-adv-x="961" d="M74 453q0 217 120 364t307 147q190 0 292 -144q102 -143 102 -392h-512q20 -248 240 -248q106 0 244 72v-177q-154 -95 -344 -95q-223 0 -336 135q-113 136 -113 338zM191 1060l176 352h263l176 -352h-183l-121 176l-128 -176h-183zM383 565h240q0 231 -119 231 q-121 0 -121 -231zM501 1060zM501 1060zM510 0z" />
<glyph unicode="&#xeb;" horiz-adv-x="961" d="M74 453q0 217 120 364t307 147q190 0 292 -144q102 -143 102 -392h-512q20 -248 240 -248q106 0 244 72v-177q-154 -95 -344 -95q-223 0 -336 135q-113 136 -113 338zM197 1235q0 44 32 77q33 33 79 33q44 0 77 -33t33 -78t-33 -78q-33 -32 -78 -32t-78 32q-32 33 -32 79 zM383 565h240q0 231 -119 231q-121 0 -121 -231zM501 1060zM501 1060zM510 0zM594 1235q0 44 32 77q33 33 79 33q44 0 77 -33t33 -78t-33 -78q-33 -32 -78 -32t-78 32q-32 33 -32 79z" />
<glyph unicode="&#xec;" horiz-adv-x="532" d="M-96 1396h360l168 -336h-152zM0 964zM120 0v944h295v-944h-295zM263 1060zM263 1060z" />
<glyph unicode="&#xed;" horiz-adv-x="532" d="M0 964zM120 0v944h295v-944h-295zM121 1060l168 336h360l-376 -336h-152zM263 1060zM263 1060z" />
<glyph unicode="&#xee;" horiz-adv-x="532" d="M-47 1060l176 352h263l176 -352h-183l-121 176l-128 -176h-183zM0 964zM120 0v944h295v-944h-295zM263 1060zM263 1060z" />
<glyph unicode="&#xef;" horiz-adv-x="532" d="M-41 1235q0 44 32 77q33 33 79 33q44 0 77 -33t33 -78t-33 -78q-33 -32 -78 -32t-78 32q-32 33 -32 79zM0 964zM120 0v944h295v-944h-295zM263 1060zM263 1060zM356 1235q0 44 32 77q33 33 79 33q44 0 77 -33t33 -78t-33 -78q-33 -32 -78 -32t-78 32q-32 33 -32 79z" />
<glyph unicode="&#xf0;" horiz-adv-x="1059" d="M74 464q0 228 128 364t319 136q69 0 117 -18q-22 52 -108 174l-174 -92l-69 71l172 95q-31 40 -177 166h281q29 -24 80 -72l168 88l69 -71l-162 -90q125 -138 199 -321q74 -182 74 -366v-61q0 -223 -124 -355t-320 -132q-220 0 -347 141q-126 142 -126 343zM383 470 q0 -275 152 -275q147 0 147 279q0 275 -145 275q-154 0 -154 -279z" />
<glyph unicode="&#xf1;" horiz-adv-x="1087" d="M115 0v944h295v-140q105 160 279 160q140 0 218 -93q79 -92 79 -242v-629h-295v594q0 155 -115 155q-104 0 -166 -152v-597h-295zM252 1112q0 105 56 175t152 70q58 0 148 -36q91 -36 122 -36q54 0 82 72h124q-5 -110 -67 -178q-61 -67 -147 -67q-52 0 -136 36t-113 36 q-47 0 -69 -23t-28 -49h-124zM561 0zM581 1060zM581 1060z" />
<glyph unicode="&#xf2;" d="M74 468q0 224 135 360t324 136q193 0 325 -139q133 -138 133 -353q0 -223 -133 -358q-132 -134 -315 -134q-211 0 -340 142q-129 143 -129 346zM174 1396h360l168 -336h-152zM383 472q0 -277 152 -277q147 0 147 277t-145 277q-154 0 -154 -277zM533 1060zM533 1060z" />
<glyph unicode="&#xf3;" d="M74 468q0 224 135 360t324 136q193 0 325 -139q133 -138 133 -353q0 -223 -133 -358q-132 -134 -315 -134q-211 0 -340 142q-129 143 -129 346zM383 472q0 -277 152 -277q147 0 147 277t-145 277q-154 0 -154 -277zM391 1060l168 336h360l-376 -336h-152zM533 1060z M533 1060z" />
<glyph unicode="&#xf4;" d="M74 468q0 224 135 360t324 136q193 0 325 -139q133 -138 133 -353q0 -223 -133 -358q-132 -134 -315 -134q-211 0 -340 142q-129 143 -129 346zM223 1060l176 352h263l176 -352h-183l-121 176l-128 -176h-183zM383 472q0 -277 152 -277q147 0 147 277t-145 277 q-154 0 -154 -277zM533 1060zM533 1060z" />
<glyph unicode="&#xf5;" d="M74 468q0 224 135 360t324 136q193 0 325 -139q133 -138 133 -353q0 -223 -133 -358q-132 -134 -315 -134q-211 0 -340 142q-129 143 -129 346zM204 1112q0 105 56 175t152 70q58 0 148 -36q91 -36 122 -36q54 0 82 72h124q-5 -110 -67 -178q-61 -67 -147 -67 q-52 0 -136 36t-113 36q-47 0 -69 -23t-28 -49h-124zM383 472q0 -277 152 -277q147 0 147 277t-145 277q-154 0 -154 -277zM533 1060zM533 1060z" />
<glyph unicode="&#xf6;" d="M74 468q0 224 135 360t324 136q193 0 325 -139q133 -138 133 -353q0 -223 -133 -358q-132 -134 -315 -134q-211 0 -340 142q-129 143 -129 346zM229 1235q0 44 32 77q33 33 79 33q44 0 77 -33t33 -78t-33 -78q-33 -32 -78 -32t-78 32q-32 33 -32 79zM383 472 q0 -277 152 -277q147 0 147 277t-145 277q-154 0 -154 -277zM533 1060zM533 1060zM626 1235q0 44 32 77q33 33 79 33q44 0 77 -33t33 -78t-33 -78q-33 -32 -78 -32t-78 32q-32 33 -32 79z" />
<glyph unicode="&#xf7;" horiz-adv-x="1366" d="M128 558v248h1122v-248h-1122zM544 271q0 58 42 100q43 43 105 43q59 0 101 -43t42 -102q0 -61 -42 -102t-101 -41q-62 0 -105 41q-42 42 -42 104zM544 1095q0 58 42 100q43 43 105 43q59 0 101 -43t42 -102q0 -61 -42 -102t-101 -41q-62 0 -105 41q-42 42 -42 104z" />
<glyph unicode="&#xf8;" d="M74 471q0 223 134 358q135 135 323 135q142 0 255 -78l80 110l88 -60l-85 -118q122 -141 122 -346q0 -223 -132 -358q-131 -134 -310 -134q-147 0 -258 69l-83 -117l-83 60l86 118q-137 141 -137 361zM383 474q0 -70 8 -120l249 333q-37 62 -106 62q-151 0 -151 -275z M436 237q36 -42 96 -42q150 0 150 278q0 49 -5 91z" />
<glyph unicode="&#xf9;" horiz-adv-x="1087" d="M0 964zM97 338v606h295v-597q0 -152 113 -152q118 0 168 149v600h295v-944h-295v124q-75 -144 -268 -144q-148 0 -228 94t-80 264zM180 1396h360l168 -336h-152zM539 1060zM539 1060zM808 0z" />
<glyph unicode="&#xfa;" horiz-adv-x="1087" d="M0 964zM97 338v606h295v-597q0 -152 113 -152q118 0 168 149v600h295v-944h-295v124q-75 -144 -268 -144q-148 0 -228 94t-80 264zM397 1060l168 336h360l-376 -336h-152zM539 1060zM539 1060zM808 0z" />
<glyph unicode="&#xfb;" horiz-adv-x="1087" d="M0 964zM97 338v606h295v-597q0 -152 113 -152q118 0 168 149v600h295v-944h-295v124q-75 -144 -268 -144q-148 0 -228 94t-80 264zM229 1060l176 352h263l176 -352h-183l-121 176l-128 -176h-183zM539 1060zM539 1060zM808 0z" />
<glyph unicode="&#xfc;" horiz-adv-x="1087" d="M0 964zM97 338v606h295v-597q0 -152 113 -152q118 0 168 149v600h295v-944h-295v124q-75 -144 -268 -144q-148 0 -228 94t-80 264zM235 1235q0 44 32 77q33 33 79 33q44 0 77 -33t33 -78t-33 -78q-33 -32 -78 -32t-78 32q-32 33 -32 79zM539 1060zM539 1060zM632 1235 q0 44 32 77q33 33 79 33q44 0 77 -33t33 -78t-33 -78q-33 -32 -78 -32t-78 32q-32 33 -32 79zM808 0z" />
<glyph unicode="&#xfd;" horiz-adv-x="981" d="M0 964zM9 944h300l178 -429l166 429h300l-570 -1408h-300l257 633zM346 1060l168 336h360l-376 -336h-152zM488 1060zM488 1060z" />
<glyph unicode="&#xfe;" horiz-adv-x="1110" d="M120 -464v1856h295v-540q127 112 254 112q147 0 250 -139q104 -139 104 -361q0 -212 -102 -348q-101 -136 -242 -136q-118 0 -264 112v-556h-295zM415 297q25 -29 65 -59t82 -30q64 0 108 66q44 67 44 205q0 270 -139 270q-90 0 -160 -97v-355z" />
<glyph unicode="&#xff;" horiz-adv-x="981" d="M0 964zM9 944h300l178 -429l166 429h300l-570 -1408h-300l257 633zM184 1235q0 44 32 77q33 33 79 33q44 0 77 -33t33 -78t-33 -78q-33 -32 -78 -32t-78 32q-32 33 -32 79zM488 1060zM488 1060zM581 1235q0 44 32 77q33 33 79 33q44 0 77 -33t33 -78t-33 -78 q-33 -32 -78 -32t-78 32q-32 33 -32 79z" />
<glyph unicode="&#x152;" horiz-adv-x="1729" d="M79 691q0 303 161 502q162 199 497 199h888v-242h-492v-321h457v-242h-457v-345h512v-242h-948q-297 0 -458 187q-160 188 -160 504zM401 692q0 -231 86 -341q86 -109 265 -109h63v908h-39q-233 0 -304 -131t-71 -327z" />
<glyph unicode="&#x153;" horiz-adv-x="1599" d="M74 480q0 221 128 352q128 132 319 132q180 0 306 -112q131 112 290 112q192 0 298 -151q106 -150 106 -329v-61h-544q20 -243 267 -243q122 0 259 72v-168q-168 -104 -357 -104q-209 0 -330 112q-126 -112 -290 -112q-204 0 -328 142q-124 143 -124 358zM383 470 q0 -275 155 -275q144 0 144 277t-147 277q-152 0 -152 -279zM972 560h277q0 106 -39 171q-38 65 -103 65q-135 0 -135 -236z" />
<glyph unicode="&#x178;" horiz-adv-x="1110" d="M0 1414zM16 1392h342l201 -419l174 419h337l-352 -756v-636h-318v636zM247 1669q0 44 32 77q33 33 79 33q44 0 77 -33t33 -78t-33 -78q-33 -32 -78 -32t-78 32q-32 33 -32 79zM551 1494zM551 1494zM644 1669q0 44 32 77q33 33 79 33q44 0 77 -33t33 -78t-33 -78 q-33 -32 -78 -32t-78 32q-32 33 -32 79z" />
<glyph unicode="&#x2c6;" horiz-adv-x="682" d="M32 1072l176 352h263l176 -352h-183l-121 176l-128 -176h-183zM342 1072z" />
<glyph unicode="&#x2dc;" horiz-adv-x="682" d="M0 1124q0 105 56 175t152 70q58 0 148 -36q91 -36 122 -36q54 0 82 72h124q-5 -110 -67 -178q-61 -67 -147 -67q-52 0 -136 36t-113 36q-47 0 -69 -23t-28 -49h-124zM329 1072z" />
<glyph unicode="&#x2000;" horiz-adv-x="961" />
<glyph unicode="&#x2001;" horiz-adv-x="1923" />
<glyph unicode="&#x2002;" horiz-adv-x="961" />
<glyph unicode="&#x2003;" horiz-adv-x="1923" />
<glyph unicode="&#x2004;" horiz-adv-x="641" />
<glyph unicode="&#x2005;" horiz-adv-x="480" />
<glyph unicode="&#x2006;" horiz-adv-x="320" />
<glyph unicode="&#x2007;" horiz-adv-x="320" />
<glyph unicode="&#x2008;" horiz-adv-x="240" />
<glyph unicode="&#x2009;" horiz-adv-x="384" />
<glyph unicode="&#x200a;" horiz-adv-x="106" />
<glyph unicode="&#x2010;" horiz-adv-x="705" d="M80 335v275h544v-275h-544z" />
<glyph unicode="&#x2011;" horiz-adv-x="705" d="M80 335v275h544v-275h-544z" />
<glyph unicode="&#x2012;" horiz-adv-x="705" d="M80 335v275h544v-275h-544z" />
<glyph unicode="&#x2013;" horiz-adv-x="1024" d="M-10 340v270h1056v-270h-1056z" />
<glyph unicode="&#x2014;" horiz-adv-x="2048" d="M-10 340v270h2080v-270h-2080z" />
<glyph unicode="&#x2018;" horiz-adv-x="555" d="M106 1023q0 298 346 391v-51q-92 -81 -107 -253q113 -45 113 -164q0 -67 -47 -114q-47 -48 -115 -48q-84 0 -137 66q-53 65 -53 173z" />
<glyph unicode="&#x2019;" horiz-adv-x="555" d="M97 1252q0 67 47 114q47 48 115 48q84 0 137 -66q53 -65 53 -173q0 -298 -346 -391v51q92 81 107 253q-113 45 -113 164z" />
<glyph unicode="&#x201a;" horiz-adv-x="555" d="M95 148q0 67 47 114q47 48 115 48q84 0 137 -66q53 -65 53 -173q0 -298 -346 -391v51q92 81 107 253q-113 45 -113 164z" />
<glyph unicode="&#x201c;" horiz-adv-x="1024" d="M95 1023q0 300 346 391v-51q-92 -81 -107 -253q113 -49 113 -164q0 -69 -46 -115q-47 -47 -116 -47q-87 0 -138 67q-52 67 -52 172zM575 1023q0 300 346 391v-51q-92 -81 -107 -253q113 -49 113 -164q0 -69 -46 -115q-47 -47 -116 -47q-87 0 -138 67q-52 67 -52 172z" />
<glyph unicode="&#x201d;" horiz-adv-x="1024" d="M97 1252q0 69 46 115q47 47 116 47q87 0 138 -67q52 -67 52 -172q0 -300 -346 -391v51q92 81 107 253q-113 49 -113 164zM577 1252q0 69 46 115q47 47 116 47q87 0 138 -67q52 -67 52 -172q0 -300 -346 -391v51q92 81 107 253q-113 49 -113 164z" />
<glyph unicode="&#x201e;" horiz-adv-x="1024" d="M97 148q0 69 46 115q47 47 116 47q87 0 138 -67q52 -67 52 -172q0 -300 -346 -391v51q92 81 107 253q-113 49 -113 164zM577 148q0 69 46 115q47 47 116 47q87 0 138 -67q52 -67 52 -172q0 -300 -346 -391v51q92 81 107 253q-113 49 -113 164z" />
<glyph unicode="&#x2022;" horiz-adv-x="717" d="M65 723q0 121 86 208q87 88 210 88q121 0 208 -88q88 -87 88 -208q0 -123 -88 -210q-87 -86 -208 -86q-123 0 -210 86q-86 87 -86 210z" />
<glyph unicode="&#x2026;" horiz-adv-x="2048" d="M176 144q0 65 48 113q48 49 116 49q65 0 113 -49q49 -48 49 -113q0 -68 -49 -116q-48 -48 -113 -48q-68 0 -116 48t-48 116zM864 144q0 65 48 113q48 49 116 49q65 0 113 -49q49 -48 49 -113q0 -68 -49 -116q-48 -48 -113 -48q-68 0 -116 48t-48 116zM1552 144 q0 65 48 113q48 49 116 49q65 0 113 -49q49 -48 49 -113q0 -68 -49 -116q-48 -48 -113 -48q-68 0 -116 48t-48 116z" />
<glyph unicode="&#x202f;" horiz-adv-x="384" />
<glyph unicode="&#x2039;" horiz-adv-x="618" d="M50 472l273 -464h239l-273 464l273 464h-239z" />
<glyph unicode="&#x203a;" horiz-adv-x="618" d="M56 8l273 464l-273 464h239l273 -464l-273 -464h-239z" />
<glyph unicode="&#x205f;" horiz-adv-x="480" />
<glyph unicode="&#x20ac;" d="M85 494l20 151h110q-2 21 -2 53l2 75h-130l20 151h128q39 220 169 355t339 135q144 0 270 -82v-255q-132 80 -235 80q-81 0 -143 -64t-82 -169h364l-20 -151h-364v-128h336l-20 -151h-306q16 -117 86 -188t162 -71q126 0 222 80v-259q-105 -78 -259 -78q-224 0 -367 147 q-142 147 -162 369h-138z" />
<glyph unicode="&#x2122;" horiz-adv-x="2048" d="M215 1330v142h665v-142h-249v-690h-167v690h-249zM979 640v832h259l151 -582l152 582h259v-832h-156v679l-180 -679h-149l-180 679v-679h-156z" />
<glyph unicode="&#x25fc;" horiz-adv-x="945" d="M0 0v945h945v-945h-945z" />
<glyph unicode="&#xfb01;" horiz-adv-x="1130" d="M36 776v168h112v69q0 398 325 398q37 0 82 -11q46 -10 80 -22v-195q-37 13 -80 13q-112 0 -112 -152v-100h144v-168h-144v-776h-295v776h-112zM706 1252q0 65 49 113q49 49 119 49q66 0 114 -49q49 -48 49 -113q0 -68 -49 -116q-48 -48 -114 -48q-70 0 -119 48t-49 116z M724 0v944h295v-944h-295z" />
<glyph unicode="&#xfb02;" horiz-adv-x="1130" d="M31 776v168h112v72q0 192 104 293q105 102 287 102q60 0 153 -17h327v-1394h-295v1167q-63 29 -132 29q-149 0 -149 -192v-60h144v-168h-144v-776h-295v776h-112z" />
</font>
</defs>
</svg>
