<?xml version="1.0" encoding="utf-8"?>
<!-- Generator: Adobe Illustrator 22.0.1, SVG Export Plug-In . SVG Version: 6.00 Build 0)  -->
<svg version="1.1" id="Layer_1" xmlns="http://www.w3.org/2000/svg" xmlns:xlink="http://www.w3.org/1999/xlink" x="0px" y="0px"
	 viewBox="0 0 100 100" style="enable-background:new 0 0 100 100;" xml:space="preserve">
<title>credit card, bank card</title>
<g>
	<path d="M90.7,39.1h-6.9v-2.6c0-4.4-3.6-8-8-8h-7.2V26c0-4.4-3.6-7.9-8-8H9c-4.4,0-8,3.5-8,7.9c0,0,0,0,0,0v26.9c0,4.4,3.6,8,8,8
		h7.2v2.6c0,4.4,3.6,8,8,8h7.2v2.3c0,4.6,3.7,8.2,8.3,8.2h51.2c4.6,0,8.3-3.7,8.3-8.3V47.3C99,42.8,95.3,39.1,90.7,39.1z M16.1,36.5
		v21.1H9c-2.6,0-4.7-2.1-4.7-4.7V26c0-2.6,2.1-4.6,4.7-4.6h51.8c2.6,0,4.7,2.1,4.7,4.6c0,0,0,0,0,0v2.6H24.1
		C19.7,28.6,16.1,32.1,16.1,36.5z M31.3,47.3v20.8h-7.2c-2.6,0-4.7-2.1-4.7-4.7V36.5c0-2.6,2.1-4.7,4.7-4.7h51.8
		c2.6,0,4.7,2.1,4.7,4.7v2.6h-41C35,39.1,31.3,42.8,31.3,47.3z M95.7,73.7c0,2.7-2.2,4.9-5,4.9H39.5c-2.7,0-5-2.2-5-5V61.3h61.1
		V73.7z M95.7,58H34.6v-5.1h61.1V58z M95.7,49.6H34.6v-2.3c0-2.7,2.2-5,5-5h51.2c2.7,0,5,2.2,5,5V49.6z"/>
	<path d="M43.6,71.5h10.5c0.9,0,1.7-0.7,1.7-1.7c0-0.9-0.7-1.7-1.7-1.7H43.6c-0.9,0-1.7,0.7-1.7,1.7C42,70.7,42.7,71.5,43.6,71.5z"
		/>
	<path d="M60.4,71.5h5.3c0.9,0,1.7-0.7,1.7-1.7c0-0.9-0.7-1.7-1.7-1.7h-5.3c-0.9,0-1.7,0.7-1.7,1.7C58.8,70.7,59.5,71.5,60.4,71.5z"
		/>
</g>
</svg>
