<?xml version="1.0" encoding="utf-8"?>
<!-- Generator: Adobe Illustrator 22.0.1, SVG Export Plug-In . SVG Version: 6.00 Build 0)  -->
<svg version="1.1" id="Layer_1" xmlns="http://www.w3.org/2000/svg" xmlns:xlink="http://www.w3.org/1999/xlink" x="0px" y="0px"
	 viewBox="0 0 100 100" style="enable-background:new 0 0 100 100;" xml:space="preserve">
<g>
	<path d="M97.1,56.8c-0.8-3-3.8-4.5-6.6-4.2c-1.3,0.1-2.5,0.5-3.8,1c-0.3,0.1-0.7,0.3-1.1,0.4c0-0.2,0-0.3,0-0.4
		c0.1-0.4-0.1-0.8-0.3-1.2c-0.6-0.9-1.5-1.5-2.5-1.9c-1.6-0.6-3.2-0.5-4.7-0.1c-1,0.3-2.1,0.7-3.1,1c0-0.1-0.1-0.3-0.2-0.5
		c-0.2-0.7-0.6-1.1-1.1-1.5c-0.9-0.7-1.9-1-2.9-1.1c-2.4-0.2-4.7,0.2-6.8,1.3c-1.6,0.8-3.2,1.8-4.8,2.8c-2.9,1.8-5.7,3.6-8.6,5.4
		c-0.1,0.1-0.3,0.1-0.4,0.1c-1.3-0.4-2.7-0.8-4-1.3c-0.8-0.3-1.5-0.6-2.1-1.3c-0.3-0.4-0.7-0.8-1.1-1.2c-2-2.2-4.3-3.9-7.2-4.8
		c-2.2-0.8-4.5-1.1-6.8-1.1c-2.5-0.1-5.1,0.1-7.5,0.9c-1.7,0.6-3.4,1.2-5.1,2c-4.1,1.8-8.2,3.7-12.4,5.6c-0.5,0.2-0.9,0.5-1.2,1
		c0,0.6,0,1.2,0,1.8c0.3,0.4,0.6,0.7,1.1,0.9c0.6,0.2,1.1,0,1.7-0.3c4.8-2.3,9.7-4.6,14.6-6.5c1.3-0.5,2.5-1.1,3.9-1.3
		c2.9-0.5,5.8-0.5,8.6,0c1.8,0.3,3.5,0.9,4.9,2.1c0.9,0.8,1.8,1.7,2.6,2.6c1,1.1,2,2,3.3,2.7c2.2,1.1,4.6,1.6,6.9,2.3
		c1,0.3,2,0.5,3,0.7c1.7,0.3,3.4,0.6,5.2,0.7c1.1,0.1,2.2,0.1,3.3,0.2c0.9,0.1,1.7,0.4,2.5,0.9c0.4,0.3,0.7,0.6,0.8,1.1
		c0,0.5,0,1,0,1.5c0,0.4-0.2,0.7-0.6,0.8c-0.4,0.2-0.8,0.5-1.2,0.6c-1.1,0.4-2.3,0.5-3.5,0.5c-3.7,0-7.4,0-11.1,0
		c-1.7,0-3.3-0.2-4.9-0.4c-2.2-0.3-4.4-0.8-6.5-1.4c-0.3-0.1-0.6-0.1-0.9,0c-0.9,0.2-1.5,0.9-1.5,1.8c0,0.9,0.6,1.7,1.4,1.9
		c1.7,0.4,3.3,0.8,5,1.2c2.2,0.4,4.5,0.8,6.8,0.8c3.9,0,7.7,0,11.6,0c1,0,2-0.1,3.1-0.3c1.5-0.2,2.8-0.7,4-1.7
		c0.4-0.3,0.8-0.6,1.2-0.9c4.9-3.3,9.8-6.6,14.8-9.9c1.5-1,3-2.1,4.7-2.8c1.3-0.5,2.6-1,4-0.9c1,0.1,1.6,0.6,2,1.6
		c0.1,0.2,0.1,0.4,0,0.6c-0.1,0.7-0.4,1.2-0.9,1.7c-0.9,1.1-2.1,2-3.3,2.8c-5.4,3.6-10.7,7.2-16.1,10.7c-4.3,2.9-8.7,5.7-13,8.5
		c-1.4,0.9-2.9,1.8-4.4,2.6c-1.7,1-3.6,1.3-5.5,1c-1.5-0.2-2.8-0.7-4.1-1.3c-3.4-1.7-6.8-3.5-10.2-5.2c-2.9-1.5-5.8-3-8.7-4.4
		c-1-0.5-2.1-0.8-3.2-0.9c-1.4-0.1-2.7,0.2-3.8,0.9c-2.3,1.4-4.6,2.9-6.9,4.4c-0.5,0.3-0.7,0.8-0.7,1.4c-0.1,1.5,1.5,2.5,2.8,1.8
		c0.5-0.3,1-0.6,1.5-0.9c1.6-1,3.2-2.1,4.8-3.1c1-0.7,2.1-0.8,3.3-0.3c0.6,0.2,1.1,0.5,1.7,0.7c5.1,2.7,10.3,5.3,15.4,8
		c2,1,4,2,6.1,2.5c1.9,0.4,3.8,0.6,5.7,0.2c1.8-0.3,3.4-1.1,4.9-2c4.9-3,9.7-6.1,14.5-9.3c6.3-4.2,12.5-8.4,18.8-12.5
		c1.5-1,2.9-2.2,3.9-3.7C97.1,60.4,97.6,58.7,97.1,56.8z M63.4,58.8c-0.4,0.3-0.7,0.6-1.1,0.7c-0.4,0.1-0.9,0-1.3,0
		c-1.1-0.1-2.2-0.1-3.3-0.2c-0.7-0.1-1.3-0.2-2.1-0.3c0.7-0.5,1.3-0.9,2-1.2c2.4-1.5,4.7-3,7.1-4.4c1.6-1,3.4-1.4,5.3-1.4
		c0.3,0,0.7,0.1,1,0.2c0.4,0.1,0.6,0.5,0.5,0.9c0,0.1-0.1,0.2-0.2,0.3C68.7,55.2,66.1,57,63.4,58.8z M81.6,56.2
		c-4.2,2.8-8.4,5.6-12.6,8.5c0,0-0.1,0-0.2,0.1c-0.4-1.4-1.1-2.5-2.2-3.4c0.8-0.5,1.5-1,2.2-1.5c1.8-1.3,3.7-2.5,5.5-3.8
		c1.5-1.1,3.1-1.7,4.9-2c0.7-0.1,1.5-0.2,2.2,0c0.5,0.1,0.7,0.3,0.8,0.9C82.3,55.3,82.2,55.8,81.6,56.2z"/>
	<path d="M51.8,48.1c3.4,0,6.3-1.1,8.8-3.3c3.5-3.2,4.9-7.2,4.4-11.9c3.1-0.5,5.6-2,7.4-4.6c1.8-2.5,2.5-5.4,2-8.5
		c-0.8-5.3-5.5-9.5-11.1-9.6c-2.7,0-5,0.8-7.1,2.4C53.4,15,52,18,51.9,21.6c-3.9,0.1-7.2,1.5-9.8,4.4c-2.6,2.9-3.7,6.3-3.4,10.1
		C39.3,42.7,44.8,48.1,51.8,48.1z M56.3,18.7c2.1-4.9,8.5-6.2,12.3-2.5c1.5,1.5,2.2,3.3,2.2,5.5c0,3.7-2.8,6.9-6.5,7.4
		c-0.1,0-0.2,0-0.2,0c-0.2,0-0.3,0-0.4-0.2c-1.7-3.2-4.2-5.4-7.7-6.6c-0.3-0.1-0.3-0.3-0.3-0.5C55.7,20.7,55.9,19.7,56.3,18.7z
		 M52,25.4c5.3,0,9.4,4.3,9.4,9.5c0,5.3-4.3,9.4-9.5,9.4c-5.3,0-9.4-4.3-9.4-9.5C42.5,29.6,46.7,25.4,52,25.4z"/>
</g>
</svg>
