<?xml version="1.0" encoding="UTF-8" standalone="no"?>
<svg
   xmlns:dc="http://purl.org/dc/elements/1.1/"
   xmlns:cc="http://creativecommons.org/ns#"
   xmlns:rdf="http://www.w3.org/1999/02/22-rdf-syntax-ns#"
   xmlns:svg="http://www.w3.org/2000/svg"
   xmlns="http://www.w3.org/2000/svg"
   version="1.1"
   id="Layer_1"
   x="0px"
   y="0px"
   viewBox="0 0 30 30"
   style="enable-background:new 0 0 30 30;"
   xml:space="preserve"><metadata
     id="metadata25"><rdf:RDF><cc:Work
         rdf:about=""><dc:format>image/svg+xml</dc:format><dc:type
           rdf:resource="http://purl.org/dc/dcmitype/StillImage" /><dc:title></dc:title></cc:Work></rdf:RDF></metadata><defs
     id="defs23" /><g
     id="g3"
     style="fill:#333333"><path
       d="M24.9,21.2c-1.2,0.7-2.6,0.9-4,0.9c-1.4,0-2.8-0.2-4-0.9c-1.3-0.8-1.3-1.9,0-2.7c1.9-1.2,6-1.2,8,0   C26.2,19.3,26.3,20.4,24.9,21.2z"
       id="path5"
       style="fill:#333333" /><path
       d="M13,17.5c-1.2,0.7-2.6,0.9-4,0.9c-1.4,0-2.8-0.2-4-0.9c-1.3-0.8-1.3-1.9,0-2.7c1.9-1.2,6-1.2,8,0   C14.3,15.7,14.3,16.8,13,17.5z"
       id="path7"
       style="fill:#333333" /><path
       d="M14,18.4c0.3,2.2-0.2,3-2.5,3.5c-1.7,0.4-3.4,0.4-5.1-0.1c-2.1-0.6-2.6-1.5-2.2-3.5C6.5,20.6,11.5,20.6,14,18.4z"
       id="path9"
       style="fill:#333333" /><path
       d="M11.5,25.8c-1.6,0.4-3.2,0.4-4.7,0c-2.3-0.5-2.9-1.4-2.6-3.6c1.6,2,7.3,2.4,9.8,0.1C14.3,24.5,13.7,25.3,11.5,25.8z"
       id="path11"
       style="fill:#333333" /><path
       d="M23.8,25.7c-1.9,0.6-3.9,0.6-5.8-0.1c-1.8-0.6-2.3-1.5-1.8-3.3c1.9,2.1,7.9,2.1,9.7-0.2C26.1,24.5,25.7,25.1,23.8,25.7z"
       id="path13"
       style="fill:#333333" /><path
       d="M14,26.1c0.1,2.4-0.4,3.2-2.8,3.6c-1.4,0.2-2.8,0.2-4.2,0c-2.5-0.4-3.2-1.3-2.9-3.6C6.2,28.4,12,28.3,14,26.1z"
       id="path15"
       style="fill:#333333" /><path
       d="M25.9,26.1c0.2,2.4-0.3,3.1-2.6,3.6c-1.8,0.4-3.6,0.4-5.3-0.2c-1.8-0.6-2.3-1.5-1.8-3.3C18.1,28.3,23.9,28.3,25.9,26.1z"
       id="path17"
       style="fill:#333333" /><polygon
       points="15.8,10 15.8,0 14,0 14,10 12.2,7.9 9.6,7.9 14.9,13.5 20.2,7.9 17.5,7.9  "
       id="polygon19"
       style="fill:#333333" /></g></svg>