<?xml version="1.0" encoding="utf-8"?>
<!-- Generator: Adobe Illustrator 22.0.1, SVG Export Plug-In . SVG Version: 6.00 Build 0)  -->
<svg version="1.1" id="Layer_1" xmlns="http://www.w3.org/2000/svg" xmlns:xlink="http://www.w3.org/1999/xlink" x="0px" y="0px"
	 viewBox="0 0 100 100" style="enable-background:new 0 0 100 100;" xml:space="preserve">
<g>
	<path d="M20.2,42.9c-0.5,0-0.8,0-1.2,0c-5.7,0-11.3,0-17,0c0,4.7,0,9.4,0,14.1c0.4,0,0.7,0.1,1.1,0.1c5.3,0,10.6,0,15.8,0
		c0.4,0,0.8,0,1.3,0c0,3,0,5.9,0,8.8c7.1-5.3,14.2-10.6,21.2-15.9c-7-5.3-14.1-10.6-21.2-15.9C20.2,37,20.2,40,20.2,42.9z"/>
	<path d="M79.8,42.9c0-3,0-5.9,0-8.8C72.7,39.4,65.7,44.8,58.7,50c7,5.3,14.1,10.6,21.2,15.9c0-2.8,0-5.7,0-8.8c6.1,0,12.1,0,18.1,0
		c0-4.8,0-9.4,0-14.2C91.9,42.9,85.9,42.9,79.8,42.9z"/>
	<path d="M48.4,16.1c-0.6-0.1-0.7,0.4-0.7,1.8c0,21.5,0,42.9,0,64.4c0,0.5,0,1.1,0,1.6c1.6,0,3.1,0,4.7,0c0-22.6,0-45,0-67.7
		C51,16.2,49.7,16.2,48.4,16.1z"/>
</g>
</svg>
