<?xml version="1.0" encoding="utf-8"?>
<!-- Generator: Adobe Illustrator 22.0.1, SVG Export Plug-In . SVG Version: 6.00 Build 0)  -->
<svg version="1.1" id="Layer_1" xmlns="http://www.w3.org/2000/svg" xmlns:xlink="http://www.w3.org/1999/xlink" x="0px" y="0px"
	 viewBox="0 0 100 100" style="enable-background:new 0 0 100 100;" xml:space="preserve">
<g>
	<rect x="34.3" y="7.4" width="3.2" height="6.4"/>
	<rect x="40.7" y="7.4" width="3.2" height="6.4"/>
	<path d="M64.8,21.9c0.9,0,1.6,0.7,1.6,1.6h3.2c0-2.1-1.3-3.9-3.2-4.5v-1.9h-3.2V19c-1.9,0.7-3.2,2.4-3.2,4.5c0,0.4,0.2,0.8,0.5,1.1
		l5.9,5.9c-0.2,0.6-0.8,1-1.5,1c-0.9,0-1.6-0.7-1.6-1.6H60c0,2.1,1.3,3.9,3.2,4.5v1.9h3.2v-1.9c1.9-0.7,3.2-2.4,3.2-4.5
		c0-0.4-0.2-0.8-0.5-1.1l-5.9-5.9C63.5,22.3,64.1,21.9,64.8,21.9z"/>
	<rect x="47.1" y="7.4" width="3.2" height="6.4"/>
	<rect x="27.9" y="7.4" width="3.2" height="6.4"/>
	<rect x="47.1" y="17.1" width="3.2" height="6.4"/>
	<rect x="27.9" y="17.1" width="3.2" height="6.4"/>
	<path d="M48.7,42.8h6.4h19.3c0.9,0,1.6-0.7,1.6-1.6V12.2c0-0.9-0.7-1.6-1.6-1.6H56.8v-8c0-0.9-0.7-1.6-1.6-1.6H23
		c-0.9,0-1.6,0.7-1.6,1.6v8H3.8c-0.9,0-1.6,0.7-1.6,1.6v28.9c0,0.9,0.7,1.6,1.6,1.6H23h6.4H48.7z M56.8,13.9h16.1v25.7H56.8V13.9z
		 M21.4,39.6H5.4V13.9h16.1V39.6z M37.5,39.6h-6.4v-9.6h6.4V39.6z M47.1,39.6h-6.4v-9.6h6.4V39.6z M27.9,28.3v11.2h-3.2V12.2v-8
		h28.9v8v27.3h-3.2V28.3c0-0.9-0.7-1.6-1.6-1.6H29.5C28.6,26.7,27.9,27.4,27.9,28.3z"/>
	<path d="M13.4,31.5c-0.9,0-1.6-0.7-1.6-1.6H8.6c0,2.1,1.3,3.9,3.2,4.5v1.9H15v-1.9c1.9-0.7,3.2-2.4,3.2-4.5c0-0.4-0.2-0.8-0.5-1.1
		l-5.9-5.9c0.2-0.6,0.8-1,1.5-1c0.9,0,1.6,0.7,1.6,1.6h3.2c0-2.1-1.3-3.9-3.2-4.5v-1.9h-3.2V19c-1.9,0.7-3.2,2.4-3.2,4.5
		c0,0.4,0.2,0.8,0.5,1.1l5.9,5.9C14.7,31.1,14.1,31.5,13.4,31.5z"/>
	<rect x="34.3" y="17.1" width="3.2" height="6.4"/>
	<rect x="40.7" y="17.1" width="3.2" height="6.4"/>
	<path d="M52,68.5c-0.9,0-1.6-0.7-1.6-1.6h-3.2c0,2.1,1.3,3.9,3.2,4.5v1.9h3.2v-1.9c1.9-0.7,3.2-2.4,3.2-4.5c0-0.4-0.2-0.8-0.5-1.1
		l-5.9-5.9c0.2-0.6,0.8-1,1.5-1c0.9,0,1.6,0.7,1.6,1.6h3.2c0-2.1-1.3-3.9-3.2-4.5V54h-3.2v1.9c-1.9,0.7-3.2,2.4-3.2,4.5
		c0,0.4,0.2,0.8,0.5,1.1l5.9,5.9C53.2,68,52.6,68.5,52,68.5z"/>
	<path d="M89.7,26.7h4v-3.2h-8c-0.9,0-1.6,0.7-1.6,1.6v8h3.2v-4.3c3.3,3.5,8.3,10.5,8,20.3C95,61.6,86.4,69.1,84.7,70.4l2,2.5
		c1.9-1.5,11.5-9.9,11.8-23.7C98.8,38.4,93.4,30.7,89.7,26.7z"/>
	<path d="M8.5,63.3c-1-4.2-0.4-8.5,0.3-11.5l1.5,2.9l2.9-1.4L10,46.9c-0.4-0.8-1.4-1.1-2.2-0.7l-6.4,3.2l1.4,2.9l3-1.5
		C5,54.2,4.3,59.2,5.4,64c2.2,9.3,9.3,12.6,11.6,13.7c0.2,0.1,0.3,0.2,0.4,0.2l1.5-2.8c-0.1-0.1-0.3-0.2-0.6-0.3
		C16.4,73.9,10.4,71.1,8.5,63.3z"/>
	<path d="M84.8,83.1l-6.3-3l-8-4.9c-0.3-0.2-0.5-0.2-0.8-0.2h-0.2c1.2-2.5,1.8-5.2,1.8-8c0-10.6-8.6-19.3-19.3-19.3
		s-19.3,8.6-19.3,19.3c0,0.9,0.1,1.9,0.2,2.8l0,0c-1.8-1.8-5-1.8-6.8,0L25.7,70c-1.8,1.8-1.9,4.8-0.1,6.7l15.6,17
		c0.3,0.3,0.7,0.5,1.2,0.5H63l7.7,1.8l6.3,2.9c0.2,0.1,0.4,0.1,0.7,0.1c0.6,0,1.2-0.3,1.4-0.9l6.4-12.9c0.2-0.4,0.2-0.8,0.1-1.2
		C85.5,83.6,85.2,83.3,84.8,83.1z M52,50.8C60.8,50.8,68,58,68,66.9c0,2.8-0.7,5.6-2.2,8h-2.7c-0.1,0-0.3,0-0.4,0l-6.2,1.6h-7
		c-0.3,0-0.7,0-1,0.1c-0.1,0-0.2,0-0.3,0.1c-0.2,0.1-0.5,0.1-0.7,0.2c-0.1,0-0.2,0.1-0.3,0.1c-0.3,0.1-0.5,0.3-0.8,0.4
		c-0.1,0.1-0.2,0.1-0.3,0.2c-0.1,0.1-0.3,0.2-0.4,0.4c-0.1,0.1-0.2,0.2-0.3,0.3c-0.1,0.1-0.2,0.2-0.3,0.4c-0.2,0.3-0.4,0.5-0.5,0.8
		c0,0.1-0.1,0.1-0.1,0.2L42.6,78l-5.3-4.6c-0.9-2.1-1.4-4.3-1.4-6.6C35.9,58,43.1,50.8,52,50.8z M70.4,92.6L63.6,91
		c-0.1,0-0.2,0-0.4,0H43L27.9,74.5c-0.6-0.6-0.6-1.6,0-2.2l0.4-0.4c0.6-0.6,1.6-0.7,2.4,0.1l4.3,3.7c0,0,0,0,0,0l7.9,6.9
		c0.2,0.2,0.5,0.3,0.7,0.4L44,83c0,0.1,0,0.1,0,0.2c0,0.1,0.1,0.3,0.1,0.4c0.1,0.2,0.1,0.4,0.2,0.6c0.1,0.1,0.1,0.3,0.2,0.4
		c0.1,0.2,0.2,0.4,0.3,0.5c0.1,0.1,0.2,0.2,0.2,0.4c0.1,0.2,0.2,0.3,0.4,0.5c0.1,0.1,0.2,0.2,0.3,0.3c0.1,0.1,0.3,0.3,0.5,0.4
		c0.1,0.1,0.2,0.2,0.3,0.3c0.2,0.1,0.4,0.2,0.6,0.3c0.1,0.1,0.2,0.1,0.4,0.2c0.2,0.1,0.4,0.1,0.7,0.2c0.1,0,0.2,0.1,0.3,0.1
		c0.4,0.1,0.7,0.1,1.1,0.1h8.8v-3.2h-8.8c-0.2,0-0.3,0-0.5,0c-0.8-0.2-1.5-0.8-1.8-1.6c0,0,0,0,0,0c0,0,0,0,0,0c0,0,0,0,0,0
		c0-0.1-0.1-0.3-0.1-0.4c0,0,0,0,0,0c0-0.1,0-0.2,0-0.4l0-0.3c0,0,0,0,0,0c0.1-0.6,0.4-1.1,0.8-1.5c0,0,0,0,0,0
		c0.2-0.2,0.4-0.3,0.7-0.4c0,0,0,0,0,0c0.3-0.1,0.5-0.2,0.8-0.2h7.2c0.1,0,0.3,0,0.4,0l6.2-1.6h3.4h2.4l6.4,3.9L70.4,92.6z
		 M76.9,95.3l-3.5-1.6l5-10.1l3.5,1.7L76.9,95.3z"/>
</g>
</svg>
