<?xml version="1.0" encoding="utf-8"?>
<!-- Generator: Adobe Illustrator 22.0.1, SVG Export Plug-In . SVG Version: 6.00 Build 0)  -->
<svg version="1.1"
	 id="Layer_1" xmlns:cc="http://creativecommons.org/ns#" xmlns:dc="http://purl.org/dc/elements/1.1/" xmlns:rdf="http://www.w3.org/1999/02/22-rdf-syntax-ns#" xmlns:svg="http://www.w3.org/2000/svg"
	 xmlns="http://www.w3.org/2000/svg" xmlns:xlink="http://www.w3.org/1999/xlink" x="0px" y="0px" viewBox="0 0 100 100"
	 style="enable-background:new 0 0 100 100;" xml:space="preserve">
<path id="path7" d="M46,5C21.2,5,1,25,1,50c0,24.8,20,45,45,45h0.5v-5.5H46C24.2,89.3,6.5,71.8,6.5,50S24.2,10.5,46,10.5
	c21,0,38,16.5,39.3,37h5.5C89.5,23.7,70,5,46,5z M43.5,24.5V49L22.8,69.8l3.7,3.7l22-22.2h0.3V24.5H43.5z M58,61.5
	c-1.8,0-3.3,1.5-3.3,3.2c0,0,0,0,0,0c0,1.8,1.5,3.2,3.3,3.2c1.8,0,3.2-1.4,3.3-3.2C61.3,63,59.8,61.5,58,61.5
	C58,61.5,58,61.5,58,61.5z M68.8,62.3v5.3H99v-5.3H68.8z M58,74.5c-1.8,0-3.3,1.5-3.3,3.2c0,0,0,0,0,0c0,1.8,1.5,3.3,3.2,3.3
	c0,0,0,0,0,0c1.8,0,3.3-1.5,3.3-3.2c0,0,0,0,0,0C61.3,76,59.8,74.5,58,74.5C58,74.5,58,74.5,58,74.5z M68.8,75v5.3H99V75H68.8z
	 M58,88c-1.8,0-3.3,1.5-3.3,3.2c0,0,0,0,0,0c0,1.8,1.5,3.3,3.2,3.3c0,0,0,0,0,0c1.8,0,3.3-1.5,3.3-3.2c0,0,0,0,0,0
	C61.3,89.5,59.8,88,58,88C58,88,58,88,58,88z M68.8,88.7V94H99v-5.3H68.8z"/>
</svg>
