<svg xmlns="http://www.w3.org/2000/svg" xmlns:xlink="http://www.w3.org/1999/xlink" width="97" height="93" viewBox="0 0 97 93">
  <defs>
    <clipPath id="clip-Success13">
      <rect width="97" height="93"/>
    </clipPath>
  </defs>
  <g id="Success13" clip-path="url(#clip-Success13)">
    <g id="Success13-2" data-name="Success13" transform="translate(0 -11.206)">
      <g id="Group_2" data-name="Group 2" transform="translate(0 11.206)">
        <g id="Group_1" data-name="Group 1">
          <path id="Path_1" data-name="Path 1" d="M88.835,49.74a3.918,3.918,0,0,0-3.918,3.918V57.6a38.54,38.54,0,0,1-38.54,38.518h-.023a38.54,38.54,0,0,1,.022-77.08H46.4a38.3,38.3,0,0,1,15.664,3.336,3.918,3.918,0,0,0,3.189-7.158A46.084,46.084,0,0,0,46.4,11.206h-.027a46.376,46.376,0,0,0-.022,92.751h.027A46.377,46.377,0,0,0,92.754,57.608V53.659a3.918,3.918,0,0,0-3.919-3.919Z" transform="translate(0 -11.206)" fill="#2185d0"/>
        </g>
      </g>
      <g id="Group_4" data-name="Group 4" transform="translate(29.721 15.476)">
        <g id="Group_3" data-name="Group 3">
          <path id="Path_2" data-name="Path 2" d="M223.01,34.894a3.919,3.919,0,0,0-5.541,0L173.535,78.827l-9.967-9.967a3.918,3.918,0,0,0-5.541,5.541l12.738,12.738a3.918,3.918,0,0,0,5.541,0l46.7-46.7a3.918,3.918,0,0,0,0-5.545Z" transform="translate(-156.879 -33.746)" fill="#2185d0"/>
        </g>
      </g>
    </g>
  </g>
</svg>
