<?xml version="1.0" encoding="utf-8"?>
<!-- Generator: Adobe Illustrator 22.0.1, SVG Export Plug-In . SVG Version: 6.00 Build 0)  -->
<svg version="1.1" id="Layer_1" xmlns="http://www.w3.org/2000/svg" xmlns:xlink="http://www.w3.org/1999/xlink" x="0px" y="0px"
	 viewBox="0 0 100 100" style="enable-background:new 0 0 100 100;" xml:space="preserve">
<g>
	<path d="M90.8,66.3c1.9-4.9,3-10.3,3-15.9c0-24.2-19.6-43.9-43.9-43.9c-5.8,0-11.4,1.1-16.4,3.2c-3.2-4.4-8.4-7.4-14.3-7.4
		c-9.7,0-17.6,7.9-17.6,17.6c0,5.9,3,11.2,7.5,14.4c-2,5-3.1,10.4-3.1,16.1c0,24.2,19.6,43.9,43.9,43.9c6,0,11.7-1.2,16.9-3.4
		c3.1,4.8,8.6,8,14.7,8c9.7,0,17.6-7.9,17.6-17.6C99.1,74.9,95.7,69.4,90.8,66.3z M86.7,64.4c-1.6-0.5-3.4-0.8-5.2-0.8
		c-0.3,0-0.5,0-0.8,0c0.3-1.2,0.6-2.4,0.8-3.7c4.1-1.3,7.4-3,9.5-4.7C90.2,58.5,88.7,61.6,86.7,64.4z M39.5,21.2
		c-1.3,4.6-2.3,10-2.9,16c-6,0.6-11.4,1.6-16,2.9c0.2-0.9,0.4-1.8,0.6-2.7c8.1-1,14.5-7.4,15.4-15.6C37.6,21.6,38.5,21.4,39.5,21.2z
		 M63.3,39.5C69.5,40,75,41,79.4,42.2c0.4,2.6,0.6,5.3,0.6,8.1s-0.2,5.5-0.6,8.1c-4.5,1.2-10,2.2-16.1,2.8c0.3-3.5,0.4-7.2,0.4-10.9
		S63.6,42.9,63.3,39.5z M63.1,37.1c-0.6-6-1.6-11.4-2.9-16c5.1,1,9.9,2.6,14,4.8c2.2,4.2,3.8,8.9,4.8,14
		C74.5,38.7,69.1,37.7,63.1,37.1z M61.4,50.4c0,3.9-0.1,7.6-0.4,11.1c-3.5,0.3-7.3,0.4-11.1,0.4s-7.6-0.1-11.1-0.4
		c-0.3-3.5-0.4-7.3-0.4-11.1s0.1-7.6,0.4-11.1c3.5-0.3,7.3-0.4,11.1-0.4S57.5,39,61,39.3C61.3,42.8,61.4,46.5,61.4,50.4z M60.8,36.9
		c-3.5-0.3-7.2-0.4-10.9-0.4s-7.4,0.2-10.9,0.4c0.6-6.1,1.5-11.6,2.8-16.1c2.6-0.4,5.3-0.6,8.1-0.6c2.8,0,5.5,0.2,8.1,0.6
		C59.3,25.3,60.2,30.8,60.8,36.9z M20.3,42.2c4.5-1.2,10-2.2,16.1-2.8c-0.3,3.5-0.4,7.2-0.4,10.9s0.2,7.4,0.4,10.9
		c-6.1-0.6-11.6-1.5-16.1-2.8c-0.4-2.6-0.6-5.3-0.6-8.1S20,44.9,20.3,42.2z M36.6,63.6c0.6,6,1.6,11.4,2.9,16c-5.1-1-9.9-2.6-14-4.8
		c-2.2-4.2-3.8-8.9-4.8-14C25.3,62,30.7,63,36.6,63.6z M39,63.8c3.5,0.3,7.2,0.4,10.9,0.4s7.4-0.2,10.9-0.4
		C60.2,70,59.3,75.5,58,79.9c-2.6,0.4-5.3,0.6-8.1,0.6c-2.8,0-5.5-0.2-8.1-0.6C40.5,75.5,39.5,70,39,63.8z M63.1,63.6
		c6-0.6,11.4-1.6,16-2.9c-0.2,1.1-0.4,2.2-0.7,3.2c-7.4,1.3-13.1,7.3-14.2,14.7c-1.3,0.3-2.6,0.7-3.9,0.9
		C61.5,75,62.5,69.6,63.1,63.6z M81.8,57.8c0.3-2.4,0.5-4.9,0.5-7.4s-0.2-5-0.5-7.4c6.1,2,9.7,4.6,9.7,7.4S87.8,55.8,81.8,57.8z
		 M81.5,40.7c-0.8-4.6-2-8.9-3.7-12.8c6.9,4.5,11.7,10.6,13.2,17.5C88.8,43.7,85.6,42.1,81.5,40.7z M88.6,35.2
		c-3.1-4.3-7.4-8-12.7-10.9c-2.9-5.3-6.6-9.6-10.9-12.7C75.8,15.8,84.4,24.4,88.6,35.2z M72.3,22.5c-3.9-1.7-8.2-3-12.8-3.7
		c-1.3-4.1-3-7.4-4.7-9.5C61.7,10.9,67.8,15.7,72.3,22.5z M49.9,8.8c2.8,0,5.4,3.7,7.4,9.7c-2.4-0.3-4.9-0.5-7.4-0.5
		c-2.5,0-5,0.2-7.4,0.5C44.5,12.4,47.1,8.8,49.9,8.8z M40.2,18.8c-1.2,0.2-2.4,0.4-3.5,0.7c0-2-0.4-4-1.1-5.8c2.9-2.1,6-3.7,9.4-4.4
		C43.2,11.4,41.6,14.7,40.2,18.8z M34.7,11.6C34.7,11.6,34.7,11.6,34.7,11.6C34.7,11.6,34.7,11.6,34.7,11.6
		C34.7,11.6,34.7,11.6,34.7,11.6z M3.8,19.9c0-8.5,6.9-15.3,15.3-15.3c5,0,9.4,2.4,12.2,6l0,0c0.5,0.6,0.9,1.2,1.3,1.9l0,0
		c0.1,0.2,0.2,0.4,0.3,0.5l0,0c0.3,0.7,0.7,1.4,0.9,2.2l0,0c0.5,1.5,0.7,3.1,0.7,4.7c0,0.1,0,0.1,0,0.2c0,0.8-0.1,1.6-0.2,2.4l0,0
		c-1.1,6.4-6,11.4-12.4,12.5l0,0c-0.8,0.1-1.6,0.2-2.4,0.2c-0.1,0-0.2,0-0.3,0c-1.6,0-3.2-0.3-4.7-0.7c-0.7-0.2-1.5-0.5-2.2-0.9l0,0
		c-0.2-0.1-0.3-0.1-0.5-0.2c-0.1-0.1-0.2-0.1-0.3-0.2c-0.2-0.1-0.5-0.3-0.7-0.4c-0.3-0.2-0.6-0.4-0.9-0.6
		C6.2,29.4,3.8,24.9,3.8,19.9z M13,36.4c1.8,0.7,3.8,1.1,5.9,1.1c-0.2,1.1-0.5,2.2-0.7,3.3c-4.1,1.3-7.4,3-9.5,4.7
		C9.5,42.2,11,39.2,13,36.4z M18,43c-0.3,2.4-0.5,4.9-0.5,7.4s0.2,5,0.5,7.4c-6.1-2-9.7-4.6-9.7-7.4S11.9,45,18,43z M18.3,60
		c0.8,4.6,2,8.9,3.7,12.8c-6.9-4.5-11.7-10.6-13.2-17.5C10.9,57,14.2,58.7,18.3,60z M11.1,65.5c3.1,4.3,7.4,8,12.7,10.9
		c2.9,5.3,6.6,9.6,10.9,12.7C23.9,84.9,15.3,76.3,11.1,65.5z M27.5,78.2c3.9,1.7,8.2,3,12.8,3.7c1.3,4.1,3,7.4,4.7,9.5
		C38.1,89.9,32,85.1,27.5,78.2z M49.9,92c-2.8,0-5.4-3.7-7.4-9.7c2.4,0.3,4.9,0.5,7.4,0.5c2.5,0,5-0.2,7.4-0.5
		C55.3,88.3,52.7,92,49.9,92z M59.5,82c1.5-0.2,3-0.6,4.4-0.9c0,0.1,0,0.2,0,0.2c0,1.9,0.3,3.6,0.8,5.3c-3,2.4-6.4,4.1-10,4.9
		C56.5,89.3,58.2,86.1,59.5,82z M65,89.1c0.2-0.1,0.4-0.3,0.6-0.4c0,0.1,0.1,0.1,0.1,0.2C65.5,89,65.3,89.1,65,89.1z M81.5,96.6
		c-5.2,0-9.9-2.6-12.6-6.6l0,0c-0.2-0.2-0.3-0.5-0.5-0.8c-0.1-0.1-0.1-0.2-0.2-0.3c-0.2-0.3-0.3-0.6-0.5-1c-0.1-0.2-0.2-0.5-0.3-0.7
		c-0.1-0.2-0.2-0.4-0.2-0.7c-0.1-0.2-0.1-0.3-0.2-0.5c-0.1-0.4-0.2-0.8-0.3-1.1l0,0c-0.3-1.2-0.5-2.4-0.5-3.7c0-0.3,0-0.6,0-0.8
		c0-0.4,0.1-0.8,0.1-1.2c0-0.1,0-0.1,0-0.2c0-0.3,0.1-0.7,0.2-1l0,0c1.2-5.7,5.6-10.1,11.2-11.6l0,0c0.4-0.1,0.8-0.2,1.2-0.3
		c0.1,0,0.1,0,0.2,0c0.3-0.1,0.7-0.1,1.1-0.1l0,0c0.5,0,0.9-0.1,1.4-0.1c1.3,0,2.5,0.2,3.6,0.5l0,0c0.4,0.1,0.8,0.2,1.2,0.3
		c0.4,0.1,0.8,0.3,1.1,0.4c0,0,0,0,0,0l0,0c0.2,0.1,0.3,0.1,0.5,0.2c0.7,0.3,1.4,0.7,2,1.1c4.2,2.7,7,7.5,7,12.8
		C96.8,89.7,90,96.6,81.5,96.6z"/>
	<path d="M85.7,85c-2.4,2.9-6,1.6-7.2-0.7c-0.1-0.1-0.1-0.3-0.2-0.5c1.7,0,3.3,0,4.9,0c0.6,0,1.1-0.4,1-0.9c0-0.5-0.4-0.8-1-0.8
		c-1.6,0-3.2,0-4.8,0c-0.2,0-0.4,0-0.6,0c0-0.3,0-0.5,0-0.8c0.2,0,0.4,0,0.7,0c1.9,0,3.8,0,5.7,0c0.6,0,1-0.3,1-0.9
		c0-0.5-0.4-0.9-1-0.9c-1.8,0-3.7,0-5.5,0c-0.2,0-0.4,0-0.6,0c0.6-1.7,1.7-2.7,3.4-3.2c1.6-0.4,3,0.1,4.1,1.3
		c0.5,0.5,0.8,0.5,1.2,0.2c0.4-0.3,0.4-0.9,0-1.3c-1.5-1.6-3.3-2.4-5.4-2c-2.3,0.4-3.8,1.9-4.6,4c-0.3,0.7-0.5,1.1-1.4,1
		c-0.5-0.1-0.8,0.3-0.9,0.8c0,0.5,0.3,0.8,0.8,0.9c0.3,0,0.5,0,0.8,0c0,0.3,0,0.5,0,0.8c-0.3,0-0.6,0-0.8,0c-0.5,0-0.8,0.4-0.8,0.9
		c0,0.5,0.4,0.8,0.9,0.8c0.1,0,0.3,0,0.4,0c0.6-0.1,0.9,0.1,1,0.7c0.1,0.3,0.2,0.5,0.4,0.8c2.7,4.3,7.5,3.6,9.8,0.8
		c0.4-0.5,0.4-1.1,0-1.4C86.6,84.4,86.2,84.5,85.7,85z"/>
	<path d="M15.6,25.9c1,0.6,1.2,1.3,1,2.2c0,0.1,0,0.2,0,0.4c0,0.7,0.5,1.1,1.2,1.2c0.7,0,1.2-0.4,1.3-1c0.1-0.4,0.1-0.8,0.1-1.2
		c0-0.5,0.2-0.7,0.7-0.8c2.1-0.6,3.3-2.6,3.1-4.9C22.8,20,21,18.3,19,18c-1.9-0.3-2.4-0.8-2.2-2.5c0.1-1.1,0.8-1.8,1.9-1.9
		c1-0.1,1.6,0.4,1.9,1.6c0.2,0.8,0.8,1.2,1.6,1c0.7-0.2,1.1-0.8,0.8-1.6c-0.3-1-0.9-2-1.9-2.5c-0.8-0.4-1-1-0.9-1.5
		c0-0.5,0.1-0.7,0.1-1c0-0.6-0.5-1.1-1.1-1.1c-0.7-0.1-1.3,0.3-1.4,1c-0.1,0.5,0,1-0.1,1.5c-0.1,0.2-0.3,0.6-0.5,0.7
		c-1.4,0.6-2.3,1.6-2.7,2.9c-0.9,2.5,1.1,5.5,3.8,5.7c1.5,0.1,2.3,1,2.2,2.3c-0.1,1.1-1.1,2.1-2.2,2c-1.2-0.1-2.1-1.1-2-2.2
		c0-0.1,0-0.1,0-0.2c0.1-0.8-0.3-1.3-1-1.4c-0.8-0.1-1.4,0.3-1.4,1.1C13.7,23.5,14.2,25,15.6,25.9z"/>
</g>
</svg>
