<?xml version="1.0" encoding="UTF-8" standalone="no"?>
<svg
   xmlns:dc="http://purl.org/dc/elements/1.1/"
   xmlns:cc="http://creativecommons.org/ns#"
   xmlns:rdf="http://www.w3.org/1999/02/22-rdf-syntax-ns#"
   xmlns:svg="http://www.w3.org/2000/svg"
   xmlns="http://www.w3.org/2000/svg"
   height="48"
   width="48"
   id="svg2"
   y="0px"
   x="0px"
   version="1.1"
   viewBox="0 0 48 48">
  <metadata
     id="metadata20">
    <rdf:RDF>
      <cc:Work
         rdf:about="">
        <dc:format>image/svg+xml</dc:format>
        <dc:type
           rdf:resource="http://purl.org/dc/dcmitype/StillImage" />
        <dc:title>slice-1 copy 18</dc:title>
      </cc:Work>
    </rdf:RDF>
  </metadata>
  <defs
     id="defs18" />
  <title
     id="title4">slice-1 copy 18</title>
  <desc
     id="desc6">Created with Sketch.</desc>
  <g
     transform="matrix(0.77610309,0,0,0.77610309,-3.8805155,34.907788)"
     id="g3354">
    <g
       id="g8"
       transform="matrix(0.59441951,0,0,0.59441951,2.2691892,-37.297703)"
       style="fill:none;fill-rule:evenodd;stroke:none;stroke-width:1">
      <path
         d="m 85.204461,65.62481 c -4.422868,2.70422 -10.338083,4.19354 -16.655276,4.19354 -6.317471,0 -12.232409,-1.48932 -16.655277,-4.19354 -4.167014,-2.547565 -6.461928,-5.847846 -6.461928,-9.293114 0,-3.444991 2.294914,-6.74555 6.461928,-9.293115 4.422591,-2.704219 10.337806,-4.193262 16.655277,-4.193262 6.317471,0 12.232408,1.489043 16.655276,4.193262 4.167014,2.547843 6.461928,5.848124 6.461928,9.293115 0,3.445268 -2.294914,6.745549 -6.461928,9.293114 l 0,0 0,0 z m 6.461928,-0.566619 c 0,3.445268 -2.294914,6.745549 -6.461928,9.293115 -4.422868,2.704496 -10.337805,4.193539 -16.655276,4.193539 -6.317471,0 -12.232686,-1.489043 -16.655277,-4.193539 -4.167014,-2.547288 -6.461928,-5.847847 -6.461928,-9.293115 l 0,-0.476349 c 1.247882,1.420437 2.829403,2.728939 4.722616,3.88662 4.939301,3.020027 11.471789,4.682943 18.394589,4.682943 6.922521,0 13.45501,-1.662916 18.394588,-4.682943 1.893213,-1.157681 3.474734,-2.466183 4.722616,-3.88662 l 0,0.476349 0,0 z m 0,8.873427 c 0,3.444991 -2.294914,6.745272 -6.461928,9.293115 -4.422868,2.703941 -10.338083,4.193262 -16.655276,4.193262 -6.317471,0 -12.232409,-1.489321 -16.655277,-4.193262 C 47.726894,80.67689 45.43198,77.376609 45.43198,73.931618 l 0,-0.476627 c 1.247882,1.42016 2.829403,2.72894 4.722616,3.886343 4.939301,3.020026 11.471789,4.682943 18.394589,4.682943 6.922521,0 13.45501,-1.662917 18.394588,-4.682943 1.893213,-1.157403 3.474734,-2.466183 4.722616,-3.886343 l 0,0.476627 0,0 z m -49.56802,-18.154598 0,0.591617 c -3.252215,1.002694 -6.876684,1.537094 -10.647832,1.537094 -6.317193,0 -12.23213,-1.489042 -16.654999,-4.193262 -4.167013,-2.547843 -6.4619269,-5.848124 -6.4619269,-9.293114 l 0,-0.47635 c 1.2478818,1.42016 2.8294029,2.72894 4.7226159,3.886343 4.9393,3.020027 11.471789,4.682944 18.39431,4.682944 4.297303,0 8.443482,-0.641891 12.152124,-1.850124 -0.895074,1.620143 -1.416784,3.339999 -1.504292,5.114852 l 0,0 0,0 z M 31.450537,76.208095 c -6.317193,0 -12.23213,-1.48932 -16.654999,-4.193539 C 10.628525,69.46699 8.3336111,66.16671 8.3336111,62.721441 l 0,-0.476627 c 1.2478818,1.420437 2.8294029,2.728939 4.7226159,3.886621 4.9393,3.020026 11.471789,4.682943 18.39431,4.682943 3.725867,0 7.335612,-0.485793 10.647832,-1.40155 0,0 0.0097,5.007083 0.02556,5.250118 -3.258883,1.007972 -6.892519,1.545149 -10.67339,1.545149 l 0,0 0,0 z M 8.3336111,53.09391 c 1.2478818,1.420159 2.8294029,2.728939 4.7226159,3.886343 4.9393,3.020026 11.471789,4.683221 18.39431,4.683221 3.725867,0 7.335612,-0.486071 10.647832,-1.40155 l 0,5.257617 c -3.252215,1.002972 -6.876962,1.53765 -10.647832,1.53765 -6.317193,0 -12.23213,-1.489598 -16.654999,-4.193539 -4.167013,-2.547844 -6.4619269,-5.848124 -6.4619269,-9.293115 l 0,-0.476627 0,0 z m 0,-18.024054 c 1.2478818,1.420159 2.8294029,2.728661 4.7226159,3.886343 4.9393,3.020026 11.471789,4.682943 18.39431,4.682943 6.9228,0 13.455288,-1.662917 18.394589,-4.682943 1.893213,-1.157682 3.474734,-2.466184 4.722616,-3.886621 l 0,0.476627 c 0,3.445269 -2.294914,6.745549 -6.461928,9.293115 -4.422868,2.704219 -10.337806,4.193539 -16.655277,4.193539 -6.317193,0 -12.23213,-1.48932 -16.654999,-4.193539 -4.167013,-2.547566 -6.4619269,-5.847846 -6.4619269,-9.293115 l 0,-0.476349 0,0 z M 14.795538,17.526595 c 4.422869,-2.704219 10.337806,-4.193539 16.654999,-4.193539 6.317471,0 12.232409,1.48932 16.655277,4.193539 4.167014,2.547566 6.461928,5.847846 6.461928,9.293115 0,3.444991 -2.294914,6.745549 -6.461928,9.293115 -4.422868,2.704219 -10.337806,4.193261 -16.655277,4.193261 -6.317193,0 -12.23213,-1.489042 -16.654999,-4.193261 -4.167013,-2.547566 -6.4619269,-5.848124 -6.4619269,-9.293115 0,-3.445269 2.2949139,-6.745549 6.4619269,-9.293115 l 0,0 0,0 z m 72.148235,26.668612 c -4.939578,-3.020026 -11.472067,-4.682943 -18.394588,-4.682943 -3.725866,0 -7.335612,0.485792 -10.647832,1.40155 l 0,-14.094104 c 0,-4.650168 -2.861072,-8.960365 -8.056227,-12.136767 C 44.905825,11.662917 38.373337,10 31.450537,10 24.528016,10 17.995527,11.662917 13.056227,14.682943 8.0683113,17.732411 5.2183515,21.827626 5,26.264756 l 0,36.456685 c 0,4.650168 2.8610718,8.960365 8.056227,12.136767 4.9393,3.019748 11.471789,4.682943 18.39431,4.682943 4.002278,0 7.87149,-0.55912 11.380393,-1.61181 1.156486,3.091409 3.658083,5.897564 7.323666,8.138766 4.939301,3.019749 11.471789,4.682943 18.394589,4.682943 6.922521,0 13.45501,-1.662917 18.394588,-4.682943 C 92.138928,82.891705 95,78.581509 95,73.931618 l 0,-17.599922 c 0,-4.650168 -2.861072,-8.960087 -8.056227,-12.136489 l 0,0 0,0 z"
         id="path10"
         style="fill:#000000" />
    </g>
    <path
       d="m 51.101981,-27.195791 c 0.639022,0.636842 0.639022,1.67389 0,2.312913 -0.640114,0.640114 -1.676072,0.637933 -2.314004,0 l -13.564513,-13.564512 0,6.956188 c 0,0.90401 -0.731714,1.635724 -1.635724,1.635724 -0.90401,0 -1.635724,-0.731714 -1.635724,-1.635724 l 0,-10.904826 c 0,-0.90401 0.731714,-1.635724 1.635724,-1.635724 l 10.904826,0 c 0.90401,0 1.635724,0.731714 1.635724,1.635724 0,0.90401 -0.731714,1.635724 -1.635724,1.635724 l -6.956189,0 13.565604,13.564513 z m 14.109749,-4.840652 c -0.90401,0 -1.635724,0.731713 -1.635724,1.635723 l 0,6.956189 -13.564508,-13.565603 c -0.637932,-0.639023 -1.673891,-0.639023 -2.312914,0 -0.639022,0.637932 -0.639022,1.674981 0,2.312913 l 13.564509,13.565603 -6.956189,0 c -0.904005,0 -1.635719,0.731714 -1.635719,1.635724 0,0.90401 0.731714,1.635724 1.635719,1.635724 l 10.904826,0 c 0.90401,0 1.635724,-0.731714 1.635724,-1.635724 l 0,-10.904826 c 0,-0.90401 -0.731714,-1.635723 -1.635724,-1.635723 z"
       id="path4" />
  </g>
</svg>
