<?xml version="1.0" encoding="utf-8"?>
<!-- Generator: Adobe Illustrator 22.0.1, SVG Export Plug-In . SVG Version: 6.00 Build 0)  -->
<svg version="1.1" id="Layer_1" xmlns="http://www.w3.org/2000/svg" xmlns:xlink="http://www.w3.org/1999/xlink" x="0px" y="0px"
	 viewBox="0 0 39 39" style="enable-background:new 0 0 39 39;" xml:space="preserve">
<path id="Union_187" d="M21,39c-0.6,0-1-0.4-1-1V21c0-0.6,0.4-1,1-1h17c0.6,0,1,0.4,1,1v17c0,0.6-0.4,1-1,1H21z M21,22v15
	c0,0.6,0.4,1,1,1h15c0.6,0,1-0.4,1-1V22c0-0.6-0.4-1-1-1H22C21.4,21,21,21.4,21,22z M25.2,32.9l3.7-3.2v2.1h6.3V34h-6.3v2.1
	L25.2,32.9z M4.7,27.3C1.7,24.3,0,20.2,0,16c0-4.2,1.7-8.3,4.7-11.3C7.7,1.7,11.8,0,16,0c4.2,0,8.3,1.7,11.3,4.7
	c3,3,4.7,7.1,4.7,11.3c0,1-0.1,2-0.3,3h-2c0.1-0.7,0.2-1.3,0.3-2h-3v-2h3c-0.5-6.9-6-12.5-13-13v3h-2V2C8.1,2.5,2.5,8.1,2,15h3v2H2
	c0.5,6.9,6,12.5,13,13v-3h2v3c0.7,0,1.3-0.1,2-0.3v2c-1,0.2-2,0.3-3,0.3C11.8,32,7.7,30.3,4.7,27.3L4.7,27.3z M30.6,28.9v-2.1h-6.3
	v-2.2h6.3v-2.1l3.7,3.2L30.6,28.9L30.6,28.9L30.6,28.9z M10.5,24.7c-0.4-0.2-0.5-0.7-0.2-1.1l4.4-6.6c-0.2-0.3-0.2-0.7-0.2-1.1
	c0-0.3,0-0.5,0.1-0.8l-3.4-4.6c-0.3-0.4-0.2-0.9,0.2-1.1c0.3-0.3,0.8-0.3,1.1,0l4.2,3.9c0.2,0,0.3,0,0.5,0c1.5,0,2.7,1.2,2.7,2.7v0
	c0,1.5-1.2,2.7-2.7,2.7l0,0c-0.1,0-0.1,0-0.2,0l-5.3,6.1c-0.1,0.2-0.3,0.3-0.6,0.3C10.9,24.9,10.7,24.8,10.5,24.7L10.5,24.7z
	 M15.3,15.9c0,1,0.8,1.8,1.8,1.8c1,0,1.8-0.8,1.8-1.8c0,0,0,0,0,0c0-1-0.8-1.8-1.8-1.8c0,0,0,0,0,0C16.1,14,15.3,14.9,15.3,15.9
	L15.3,15.9z M16,15.9c0-0.6,0.5-1.1,1.1-1.1c0.6,0,1.1,0.5,1.1,1.1c0,0.6-0.5,1.1-1.1,1.1C16.5,17,16,16.5,16,15.9
	C16,15.9,16,15.9,16,15.9L16,15.9z"/>
</svg>
